  0
SECTION
  2
HEADER
  9
$ACADVER
  1
AC1014
  9
$HANDSEED
  5
FFFF
  9
$MEASUREMENT
 70
     1
  0
ENDSEC
  0
SECTION
  2
TABLES
  0
TABLE
  2
VPORT
  5
8
330
0
100
AcDbSymbolTable
 70
     4
  0
VPORT
  5
2E
330
8
100
AcDbSymbolTableRecord
100
AcDbViewportTableRecord
  2
*ACTIVE
 70
     0
 10
0.0
 20
0.0
 11
1.0
 21
1.0
 12
210.0
 22
148.5
 13
0.0
 23
0.0
 14
10.0
 24
10.0
 15
10.0
 25
10.0
 16
0.0
 26
0.0
 36
1.0
 17
0.0
 27
0.0
 37
0.0
 40
341.0
 41
1.24
 42
50.0
 43
0.0
 44
0.0
 50
0.0
 51
0.0
 71
     0
 72
   100
 73
     1
 74
     3
 75
     0
 76
     0
 77
     0
 78
     0
  0
ENDTAB
  0
TABLE
  2
LTYPE
  5
5
330
0
100
AcDbSymbolTable
 70
     1
  0
LTYPE
  5
14
330
5
100
AcDbSymbolTableRecord
100
AcDbLinetypeTableRecord
  2
BYBLOCK
 70
     0
  3

 72
    65
 73
     0
 40
0.0
  0
LTYPE
  5
15
330
5
100
AcDbSymbolTableRecord
100
AcDbLinetypeTableRecord
  2
BYLAYER
 70
     0
  3

 72
    65
 73
     0
 40
0.0
  0
LTYPE
  5
16
330
5
100
AcDbSymbolTableRecord
100
AcDbLinetypeTableRecord
  2
CONTINUOUS
 70
     0
  3
Solid line
 72
    65
 73
     0
 40
0.0
  0
ENDTAB
  0
TABLE
  2
LAYER
  5
2
100
AcDbSymbolTable
 70
2
  0
LAYER
  5
50
100
AcDbSymbolTableRecord
100
AcDbLayerTableRecord
  2
0
 70
0
  6
CONTINUOUS
  0
LAYER
  5
51
100
AcDbSymbolTableRecord
100
AcDbLayerTableRecord
  2
Capa_1
 70
0
  6
CONTINUOUS
  0
ENDTAB
  0
TABLE
  2
STYLE
  5
3
330
0
100
AcDbSymbolTable
 70
     1
  0
STYLE
  5
11
330
3
100
AcDbSymbolTableRecord
100
AcDbTextStyleTableRecord
  2
STANDARD
 70
     0
 40
0.0
 41
1.0
 50
0.0
 71
     0
 42
2.5
  3
txt
  4

  0
ENDTAB
  0
TABLE
  2
VIEW
  5
6
330
0
100
AcDbSymbolTable
 70
     0
  0
ENDTAB
  0
TABLE
  2
UCS
  5
7
330
0
100
AcDbSymbolTable
 70
     0
  0
ENDTAB
  0
TABLE
  2
APPID
  5
9
330
0
100
AcDbSymbolTable
 70
     2
  0
APPID
  5
12
330
9
100
AcDbSymbolTableRecord
100
AcDbRegAppTableRecord
  2
ACAD
 70
     0
  0
ENDTAB
  0
TABLE
  2
DIMSTYLE
  5
A
330
0
100
AcDbSymbolTable
 70
     1
  0
DIMSTYLE
105
27
330
A
100
AcDbSymbolTableRecord
100
AcDbDimStyleTableRecord
  2
ISO-25
 70
     0
  3

  4

  5

  6

  7

 40
1.0
 41
2.5
 42
0.625
 43
3.75
 44
1.25
 45
0.0
 46
0.0
 47
0.0
 48
0.0
140
2.5
141
2.5
142
0.0
143
0.03937007874016
144
1.0
145
0.0
146
1.0
147
0.625
 71
     0
 72
     0
 73
     0
 74
     0
 75
     0
 76
     0
 77
     1
 78
     8
170
     0
171
     3
172
     1
173
     0
174
     0
175
     0
176
     0
177
     0
178
     0
270
     2
271
     2
272
     2
273
     2
274
     3
340
11
275
     0
280
     0
281
     0
282
     0
283
     0
284
     8
285
     0
286
     0
287
     3
288
     0
  0
ENDTAB
  0
TABLE
  2
BLOCK_RECORD
  5
1
330
0
100
AcDbSymbolTable
 70
     1
  0
BLOCK_RECORD
  5
1F
330
1
100
AcDbSymbolTableRecord
100
AcDbBlockTableRecord
  2
*MODEL_SPACE
  0
BLOCK_RECORD
  5
1B
330
1
100
AcDbSymbolTableRecord
100
AcDbBlockTableRecord
  2
*PAPER_SPACE
  0
ENDTAB
  0
ENDSEC
  0
SECTION
  2
BLOCKS
  0
BLOCK
  5
20
330
1F
100
AcDbEntity
  8
0
100
AcDbBlockBegin
  2
*MODEL_SPACE
 70
     0
 10
0.0
 20
0.0
 30
0.0
  3
*MODEL_SPACE
  1

  0
ENDBLK
  5
21
330
1F
100
AcDbEntity
  8
0
100
AcDbBlockEnd
  0
BLOCK
  5
1C
330
1B
100
AcDbEntity
 67
     1
  8
0
100
AcDbBlockBegin
  2
*PAPER_SPACE
  1

  0
ENDBLK
  5
1D
330
1B
100
AcDbEntity
 67
     1
  8
0
100
AcDbBlockEnd
  0
ENDSEC
  0
SECTION
  2
ENTITIES
  0
SPLINE
  5
100
100
AcDbEntity
  8
Capa_1
 62
7
100
AcDbSpline
 70
8
 71
3
 72
8
 73
4
 74
0
 40
0
 40
0
 40
0
 40
0
 40
1
 40
1
 40
1
 40
1
 10
1.575000
 20
0.000000
 30
0.0
 10
1.575000
 20
-0.562693
 30
0.0
 10
1.274807
 20
-1.082643
 30
0.0
 10
0.787500
 20
-1.363990
 30
0.0
  0
SPLINE
  5
101
100
AcDbEntity
  8
Capa_1
 62
7
100
AcDbSpline
 70
8
 71
3
 72
8
 73
4
 74
0
 40
0
 40
0
 40
0
 40
0
 40
1
 40
1
 40
1
 40
1
 10
0.787500
 20
-1.363990
 30
0.0
 10
0.300193
 20
-1.645337
 30
0.0
 10
-0.300193
 20
-1.645337
 30
0.0
 10
-0.787500
 20
-1.363990
 30
0.0
  0
SPLINE
  5
102
100
AcDbEntity
  8
Capa_1
 62
7
100
AcDbSpline
 70
8
 71
3
 72
8
 73
4
 74
0
 40
0
 40
0
 40
0
 40
0
 40
1
 40
1
 40
1
 40
1
 10
-0.787500
 20
-1.363990
 30
0.0
 10
-1.274807
 20
-1.082643
 30
0.0
 10
-1.575000
 20
-0.562693
 30
0.0
 10
-1.575000
 20
-0.000000
 30
0.0
  0
SPLINE
  5
103
100
AcDbEntity
  8
Capa_1
 62
7
100
AcDbSpline
 70
8
 71
3
 72
8
 73
4
 74
0
 40
0
 40
0
 40
0
 40
0
 40
1
 40
1
 40
1
 40
1
 10
-1.575000
 20
-0.000000
 30
0.0
 10
-1.575000
 20
0.562693
 30
0.0
 10
-1.274807
 20
1.082643
 30
0.0
 10
-0.787500
 20
1.363990
 30
0.0
  0
SPLINE
  5
104
100
AcDbEntity
  8
Capa_1
 62
7
100
AcDbSpline
 70
8
 71
3
 72
8
 73
4
 74
0
 40
0
 40
0
 40
0
 40
0
 40
1
 40
1
 40
1
 40
1
 10
-0.787500
 20
1.363990
 30
0.0
 10
-0.300193
 20
1.645337
 30
0.0
 10
0.300193
 20
1.645337
 30
0.0
 10
0.787500
 20
1.363990
 30
0.0
  0
SPLINE
  5
105
100
AcDbEntity
  8
Capa_1
 62
7
100
AcDbSpline
 70
8
 71
3
 72
8
 73
4
 74
0
 40
0
 40
0
 40
0
 40
0
 40
1
 40
1
 40
1
 40
1
 10
0.787500
 20
1.363990
 30
0.0
 10
1.274807
 20
1.082643
 30
0.0
 10
1.575000
 20
0.562693
 30
0.0
 10
1.575000
 20
0.000000
 30
0.0
  0
LWPOLYLINE
  5
106
100
AcDbEntity
  8
Capa_1
 62
7
100
AcDbPolyline
 90
144
 70
1
 10
12.287655
 20
1.161915
 30
0.0
 10
13.435680
 20
0.880620
 30
0.0
 10
14.583525
 20
0.296933
 30
0.0
 10
14.583525
 20
-0.296932
 30
0.0
 10
13.435680
 20
-0.880620
 30
0.0
 10
12.287655
 20
-1.161915
 30
0.0
 10
12.169688
 20
-2.057955
 30
0.0
 10
13.205790
 20
-2.626792
 30
0.0
 10
14.163458
 20
-3.487680
 30
0.0
 10
14.009753
 20
-4.061310
 30
0.0
 10
12.749948
 20
-4.328025
 30
0.0
 10
11.568233
 20
-4.302600
 30
0.0
 10
11.222378
 20
-5.137582
 30
0.0
 10
12.075953
 20
-5.955203
 30
0.0
 10
12.778170
 20
-7.034618
 30
0.0
 10
12.481238
 20
-7.548915
 30
0.0
 10
11.195333
 20
-7.480477
 30
0.0
 10
10.060463
 20
-7.150072
 30
0.0
 10
9.510278
 20
-7.867088
 30
0.0
 10
10.123155
 20
-8.877765
 30
0.0
 10
10.522073
 20
-10.102147
 30
0.0
 10
10.102148
 20
-10.522073
 30
0.0
 10
8.877765
 20
-10.123155
 30
0.0
 10
7.867088
 20
-9.510278
 30
0.0
 10
7.150073
 20
-10.060462
 30
0.0
 10
7.480478
 20
-11.195332
 30
0.0
 10
7.548915
 20
-12.481237
 30
0.0
 10
7.034618
 20
-12.778170
 30
0.0
 10
5.955203
 20
-12.075952
 30
0.0
 10
5.137582
 20
-11.222378
 30
0.0
 10
4.302600
 20
-11.568233
 30
0.0
 10
4.328025
 20
-12.749947
 30
0.0
 10
4.061310
 20
-14.009753
 30
0.0
 10
3.487680
 20
-14.163457
 30
0.0
 10
2.626793
 20
-13.205790
 30
0.0
 10
2.057955
 20
-12.169688
 30
0.0
 10
1.161915
 20
-12.287655
 30
0.0
 10
0.880620
 20
-13.435680
 30
0.0
 10
0.296932
 20
-14.583525
 30
0.0
 10
-0.296932
 20
-14.583525
 30
0.0
 10
-0.880620
 20
-13.435680
 30
0.0
 10
-1.161915
 20
-12.287655
 30
0.0
 10
-2.057955
 20
-12.169688
 30
0.0
 10
-2.626793
 20
-13.205790
 30
0.0
 10
-3.487680
 20
-14.163458
 30
0.0
 10
-4.061310
 20
-14.009753
 30
0.0
 10
-4.328025
 20
-12.749948
 30
0.0
 10
-4.302600
 20
-11.568233
 30
0.0
 10
-5.137582
 20
-11.222378
 30
0.0
 10
-5.955203
 20
-12.075953
 30
0.0
 10
-7.034618
 20
-12.778170
 30
0.0
 10
-7.548915
 20
-12.481238
 30
0.0
 10
-7.480477
 20
-11.195333
 30
0.0
 10
-7.150072
 20
-10.060463
 30
0.0
 10
-7.867088
 20
-9.510278
 30
0.0
 10
-8.877765
 20
-10.123155
 30
0.0
 10
-10.102147
 20
-10.522073
 30
0.0
 10
-10.522073
 20
-10.102148
 30
0.0
 10
-10.123155
 20
-8.877765
 30
0.0
 10
-9.510278
 20
-7.867088
 30
0.0
 10
-10.060462
 20
-7.150073
 30
0.0
 10
-11.195332
 20
-7.480478
 30
0.0
 10
-12.481237
 20
-7.548915
 30
0.0
 10
-12.778170
 20
-7.034618
 30
0.0
 10
-12.075952
 20
-5.955203
 30
0.0
 10
-11.222378
 20
-5.137583
 30
0.0
 10
-11.568233
 20
-4.302600
 30
0.0
 10
-12.749947
 20
-4.328025
 30
0.0
 10
-14.009752
 20
-4.061310
 30
0.0
 10
-14.163457
 20
-3.487680
 30
0.0
 10
-13.205790
 20
-2.626793
 30
0.0
 10
-12.169687
 20
-2.057955
 30
0.0
 10
-12.287655
 20
-1.161915
 30
0.0
 10
-13.435680
 20
-0.880620
 30
0.0
 10
-14.583525
 20
-0.296933
 30
0.0
 10
-14.583525
 20
0.296932
 30
0.0
 10
-13.435680
 20
0.880620
 30
0.0
 10
-12.287655
 20
1.161915
 30
0.0
 10
-12.169687
 20
2.057955
 30
0.0
 10
-13.205790
 20
2.626792
 30
0.0
 10
-14.163457
 20
3.487680
 30
0.0
 10
-14.009752
 20
4.061310
 30
0.0
 10
-12.749947
 20
4.328025
 30
0.0
 10
-11.568232
 20
4.302600
 30
0.0
 10
-11.222377
 20
5.137582
 30
0.0
 10
-12.075952
 20
5.955202
 30
0.0
 10
-12.778170
 20
7.034617
 30
0.0
 10
-12.481237
 20
7.548915
 30
0.0
 10
-11.195332
 20
7.480477
 30
0.0
 10
-10.060462
 20
7.150072
 30
0.0
 10
-9.510278
 20
7.867087
 30
0.0
 10
-10.123155
 20
8.877765
 30
0.0
 10
-10.522073
 20
10.102147
 30
0.0
 10
-10.102148
 20
10.522072
 30
0.0
 10
-8.877765
 20
10.123155
 30
0.0
 10
-7.867088
 20
9.510277
 30
0.0
 10
-7.150073
 20
10.060462
 30
0.0
 10
-7.480478
 20
11.195332
 30
0.0
 10
-7.548915
 20
12.481237
 30
0.0
 10
-7.034618
 20
12.778170
 30
0.0
 10
-5.955203
 20
12.075952
 30
0.0
 10
-5.137583
 20
11.222377
 30
0.0
 10
-4.302600
 20
11.568232
 30
0.0
 10
-4.328025
 20
12.749947
 30
0.0
 10
-4.061310
 20
14.009752
 30
0.0
 10
-3.487680
 20
14.163457
 30
0.0
 10
-2.626793
 20
13.205790
 30
0.0
 10
-2.057955
 20
12.169687
 30
0.0
 10
-1.161915
 20
12.287655
 30
0.0
 10
-0.880620
 20
13.435680
 30
0.0
 10
-0.296933
 20
14.583525
 30
0.0
 10
0.296932
 20
14.583525
 30
0.0
 10
0.880620
 20
13.435680
 30
0.0
 10
1.161915
 20
12.287655
 30
0.0
 10
2.057955
 20
12.169687
 30
0.0
 10
2.626792
 20
13.205790
 30
0.0
 10
3.487680
 20
14.163457
 30
0.0
 10
4.061310
 20
14.009752
 30
0.0
 10
4.328025
 20
12.749947
 30
0.0
 10
4.302600
 20
11.568232
 30
0.0
 10
5.137582
 20
11.222377
 30
0.0
 10
5.955202
 20
12.075952
 30
0.0
 10
7.034617
 20
12.778170
 30
0.0
 10
7.548915
 20
12.481237
 30
0.0
 10
7.480477
 20
11.195332
 30
0.0
 10
7.150072
 20
10.060462
 30
0.0
 10
7.867087
 20
9.510277
 30
0.0
 10
8.877765
 20
10.123155
 30
0.0
 10
10.102147
 20
10.522072
 30
0.0
 10
10.522072
 20
10.102147
 30
0.0
 10
10.123155
 20
8.877765
 30
0.0
 10
9.510277
 20
7.867087
 30
0.0
 10
10.060462
 20
7.150072
 30
0.0
 10
11.195332
 20
7.480477
 30
0.0
 10
12.481237
 20
7.548915
 30
0.0
 10
12.778170
 20
7.034617
 30
0.0
 10
12.075952
 20
5.955202
 30
0.0
 10
11.222377
 20
5.137582
 30
0.0
 10
11.568232
 20
4.302600
 30
0.0
 10
12.749947
 20
4.328025
 30
0.0
 10
14.009752
 20
4.061310
 30
0.0
 10
14.163457
 20
3.487680
 30
0.0
 10
13.205790
 20
2.626792
 30
0.0
 10
12.169687
 20
2.057955
 30
0.0
  0
LWPOLYLINE
  5
107
100
AcDbEntity
  8
Capa_1
 62
7
100
AcDbPolyline
 90
1
 70
1
 10
1.575000
 20
0.000000
 30
0.0
  0
ENDSEC
  0
SECTION
  2
OBJECTS
  0
DICTIONARY
  5
C
330
0
100
AcDbDictionary
  3
ACAD_GROUP
350
D
  3
ACAD_MLINESTYLE
350
17
  0
DICTIONARY
  5
D
330
C
100
AcDbDictionary
  0
DICTIONARY
  5
1A
330
C
100
AcDbDictionary
  0
DICTIONARY
  5
17
330
C
100
AcDbDictionary
  3
STANDARD
350
18
  0
DICTIONARY
  5
19
330
C
100
AcDbDictionary
  0
ENDSEC
  0
EOF
