<?xml version="1.0" encoding="UTF-8" standalone="no"?>
<!-- Created with Inkscape (http://www.inkscape.org/) -->

<svg
   xmlns:dc="http://purl.org/dc/elements/1.1/"
   xmlns:cc="http://creativecommons.org/ns#"
   xmlns:rdf="http://www.w3.org/1999/02/22-rdf-syntax-ns#"
   xmlns:svg="http://www.w3.org/2000/svg"
   xmlns="http://www.w3.org/2000/svg"
   xmlns:sodipodi="http://sodipodi.sourceforge.net/DTD/sodipodi-0.dtd"
   xmlns:inkscape="http://www.inkscape.org/namespaces/inkscape"
   width="210mm"
   height="297mm"
   viewBox="0 0 744.09448819 1052.3622047"
   id="svg2"
   version="1.1"
   inkscape:version="0.91 r13725"
   sodipodi:docname="drawing.svg"
   inkscape:export-filename="/home/pablovc/Documentos/openscad-free-models/Ditac-OpenSCAD/DitacLogo.png"
   inkscape:export-xdpi="90"
   inkscape:export-ydpi="90">
  <defs
     id="defs4">
    <marker
       style="overflow:visible"
       refY="0.0"
       refX="0.0"
       orient="auto"
       id="DistanceX">
      <path
         id="path3362"
         style="stroke:#000000; stroke-width:0.5"
         d="M 3,-3 L -3,3 M 0,-5 L  0,5" />
    </marker>
    <pattern
       y="0"
       x="0"
       width="8"
       patternUnits="userSpaceOnUse"
       id="Hatch"
       height="8">
      <path
         id="path3365"
         stroke-width="0.25"
         stroke="#000000"
         linecap="square"
         d="M8 4 l-4,4" />
      <path
         id="path3367"
         stroke-width="0.25"
         stroke="#000000"
         linecap="square"
         d="M6 2 l-4,4" />
      <path
         id="path3369"
         stroke-width="0.25"
         stroke="#000000"
         linecap="square"
         d="M4 0 l-4,4" />
    </pattern>
    <marker
       style="overflow:visible"
       refY="0.0"
       refX="0.0"
       orient="auto"
       id="DistanceX-3">
      <path
         id="path6734"
         style="stroke:#000000; stroke-width:0.5"
         d="M 3,-3 L -3,3 M 0,-5 L  0,5" />
    </marker>
    <pattern
       y="0"
       x="0"
       width="8"
       patternUnits="userSpaceOnUse"
       id="Hatch-6"
       height="8">
      <path
         id="path6737"
         stroke-width="0.25"
         stroke="#000000"
         linecap="square"
         d="M8 4 l-4,4" />
      <path
         id="path6739"
         stroke-width="0.25"
         stroke="#000000"
         linecap="square"
         d="M6 2 l-4,4" />
      <path
         id="path6741"
         stroke-width="0.25"
         stroke="#000000"
         linecap="square"
         d="M4 0 l-4,4" />
    </pattern>
  </defs>
  <sodipodi:namedview
     id="base"
     pagecolor="#ffffff"
     bordercolor="#666666"
     borderopacity="1.0"
     inkscape:pageopacity="0.0"
     inkscape:pageshadow="2"
     inkscape:zoom="0.48"
     inkscape:cx="98.421059"
     inkscape:cy="382.52779"
     inkscape:document-units="px"
     inkscape:current-layer="layer1"
     showgrid="false"
     inkscape:window-width="1024"
     inkscape:window-height="715"
     inkscape:window-x="0"
     inkscape:window-y="0"
     inkscape:window-maximized="1" />
  <metadata
     id="metadata7">
    <rdf:RDF>
      <cc:Work
         rdf:about="">
        <dc:format>image/svg+xml</dc:format>
        <dc:type
           rdf:resource="http://purl.org/dc/dcmitype/StillImage" />
        <dc:title></dc:title>
      </cc:Work>
    </rdf:RDF>
  </metadata>
  <g
     inkscape:label="Capa 1"
     inkscape:groupmode="layer"
     id="layer1">
    <path
       style="fill:#000000"
       d="m 214.99757,1051.966 c -8.67555,-1.6942 -18.05506,-9.0882 -21.95878,-17.3102 -3.01377,-6.3476 -3.55846,-10.7271 -3.55846,-28.6109 l 0,-16.08028 -76.76989,0 c -52.000137,0 -78.090232,-0.24039 -80.862072,-0.74505 C 18.769703,986.83838 8.165657,975.79272 6.06911,962.36671 4.244087,950.6795 10.357956,937.41084 20.52569,930.99223 c 6.800255,-4.29281 9.028707,-4.68174 29.299464,-5.11363 l 18.62069,-0.39674 0.192264,-24.82759 c 0.105744,-13.65517 0.02225,-25.52586 -0.185554,-26.37931 l -0.377816,-1.55172 -17.856451,0 c -15.552942,0 -18.394991,-0.16761 -22.031134,-1.29931 -5.786519,-1.80097 -9.491853,-4.12617 -13.749974,-8.6285 -16.6286085,-17.58231 -8.235584,-46.26176 15.387975,-52.5816 2.782015,-0.74425 18.539092,-0.92408 81.551726,-0.93068 l 78.10345,-0.008 0.012,-16.37931 c 0.0135,-18.51606 0.68131,-23.26037 4.20432,-29.87021 2.67793,-5.02432 8.82606,-10.89992 13.93401,-13.31637 15.92134,-7.53201 34.60329,-1.18543 42.21742,14.34201 3.34486,6.82113 3.77018,10.06626 3.77018,28.76629 l 0,16.45759 28.62069,0 28.62069,0 0,-16.8626 c 0,-17.9368 0.45881,-21.86846 3.24686,-27.8228 2.07581,-4.43326 8.27754,-11.28696 12.39863,-13.70208 6.7058,-3.92986 16.06418,-5.37421 23.58578,-3.64018 12.00937,2.76866 22.15594,13.75808 24.17112,26.17897 0.39881,2.45816 0.72746,11.53317 0.73033,20.16669 l 0.005,15.69731 28.44827,-0.18007 28.44828,-0.18006 0.35836,-18.96552 c 0.33451,-17.703 0.46363,-19.22834 1.9396,-22.91363 2.35663,-5.8842 6.90089,-11.60967 11.82355,-14.8969 16.64898,-11.11776 38.15768,-5.23536 46.76462,12.78961 l 2.56214,5.36575 0.34483,19.31034 0.34483,19.31035 77.58621,0.34482 77.5862,0.34483 3.6992,1.5726 c 19.75494,8.39824 26.65016,31.1358 14.63593,48.26325 -3.25419,4.63917 -7.74802,8.28754 -13.56175,11.01026 l -4.08372,1.91251 -19.48276,0.21181 -19.48276,0.21181 0,26.51233 0,26.51233 16.37931,0.012 c 11.5685,0.008 17.75275,0.30301 21.05544,1.00285 16.22934,3.439 27.4578,19.6786 24.74941,35.79478 -2.1462,12.77089 -11.24941,22.8641 -23.50748,26.064 -4.15246,1.08398 -10.9806,1.1882 -80.2284,1.22457 l -75.68966,0.0397 0,17.85842 c 0,15.8022 -0.15596,18.363 -1.35457,22.2414 -3.60658,11.6698 -13.18098,19.9921 -25.41324,22.0897 -15.42525,2.6451 -31.62966,-7.9104 -35.61012,-23.1964 -0.83078,-3.1905 -1.07034,-8.0141 -1.07034,-21.5518 l 0,-17.44132 -28.55367,0 -28.55367,0 -0.29329,18.10342 c -0.25624,15.8164 -0.46944,18.6354 -1.68754,22.3133 -2.79264,8.432 -9.19951,15.6598 -17.12225,19.3161 -17.91536,8.2678 -39.04349,-2.0228 -44.1129,-21.4856 -0.81079,-3.1128 -1.05599,-8.024 -1.05599,-21.1507 l 0,-17.09652 -28.62069,0 -28.62069,0 -0.0398,17.06902 c -0.0322,13.8187 -0.26536,17.9332 -1.22456,21.6077 -4.28776,16.4255 -20.58353,26.6004 -37.35633,23.3247 z M 109.95379,979.92967 c 17.78043,-2.64013 33.58593,-10.66893 46.16234,-23.44933 15.18772,-15.43406 23.201,-35.07282 23.201,-56.86055 0,-40.36789 -28.5846,-73.94952 -68.45505,-80.42202 -3.75205,-0.6091 -11.5161,-0.95298 -21.554167,-0.95466 l -15.689655,-0.003 0,10.62878 0,10.62877 17.413793,0.2986 c 19.501149,0.33397 22.147739,0.77913 32.133459,5.40485 23.40224,10.84071 37.09172,34.73925 34.52981,60.28075 -2.17048,21.63904 -16.44549,41.08235 -36.08984,49.15626 -9.58215,3.93831 -12.67684,4.41762 -30.918257,4.78868 l -17.068965,0.34721 0,10.61255 0,10.61254 14.566662,0 c 9.60352,0 17.0206,-0.36437 21.76887,-1.06943 z m 497.9924,-9.72263 0.19,-10.44723 -17.08655,-0.31025 c -19.59709,-0.35584 -23.54905,-1.07893 -34.32793,-6.28099 -17.12555,-8.26504 -29.39888,-24.61272 -32.77065,-43.64942 -1.08328,-6.11613 -0.5309,-19.60071 1.04116,-25.4166 1.81879,-6.72863 7.42177,-17.47466 11.86074,-22.74783 8.3891,-9.96565 18.39635,-16.29514 31.86216,-20.15249 2.87605,-0.82387 8.38084,-1.21327 21.45486,-1.51773 l 17.58621,-0.40954 0.19038,-10.51724 0.19037,-10.51724 -16.13452,0 c -21.24888,0 -28.90127,1.26678 -42.0567,6.96207 -22.09837,9.5669 -39.40005,30.06723 -45.75547,54.21451 -2.35001,8.9288 -2.97516,24.37315 -1.36254,33.66172 6.13795,35.35422 34.42651,62.54735 69.84901,67.14423 2.60405,0.33793 11.56223,0.57321 19.90705,0.52284 l 15.17242,-0.0916 0.19,-10.44723 z m -375.70724,-32.31139 0,-38.27586 -10.68966,0 -10.68965,0 0,38.27586 0,38.27587 10.68965,0 10.68966,0 0,-38.27587 z m 60.5206,-30.17009 0.17578,-68.10113 99.82422,-0.17473 99.82422,-0.17474 0.19038,-10.51724 0.19038,-10.51724 -152.08693,0 -152.08693,0 0,10.68966 0,10.68965 41.37931,0 41.37931,0 0,68.29383 0,68.29382 10.51724,-0.19037 10.51724,-0.19038 0.17578,-68.10113 z m 50.61313,55.34251 c 0.45472,-13.06446 1.14687,-17.16022 4.19566,-24.82759 7.79825,-19.61175 25.56814,-33.9442 46.19254,-37.25694 6.54252,-1.05089 18.6567,-0.54949 24.29772,1.00565 17.54733,4.83753 31.39817,16.11788 39.00768,31.76853 4.63062,9.52391 5.60786,14.15762 6.10874,28.96552 l 0.44324,13.10345 10.34482,0 10.34483,0 0.20293,-10.34483 c 0.32857,-16.749 -1.78796,-27.6559 -7.80642,-40.22802 -11.56852,-24.16577 -33.35889,-40.74739 -59.54918,-45.3146 -8.18282,-1.42697 -20.63916,-1.29528 -28.85736,0.30506 -8.38373,1.63259 -14.03422,3.55484 -21.57617,7.34005 -22.13428,11.10891 -37.50563,31.0482 -43.13212,55.94977 -1.10011,4.86887 -2.24113,29.53104 -1.4604,31.56558 0.36907,0.96179 1.77662,1.08353 10.61246,0.91792 l 10.18695,-0.19093 0.44408,-12.75862 z m 90.80874,3.7931 c 0.33708,-13.84097 -1.68507,-20.45681 -8.50378,-27.82183 -16.64174,-17.97507 -46.09828,-10.07013 -52.3827,14.05738 -1.07685,4.1343 -1.53372,21.67753 -0.58914,22.62211 0.25677,0.25678 14.14471,0.38609 30.86207,0.28736 l 30.39521,-0.1795 0.21834,-8.96552 z m -202.09692,-92.58621 0.19037,-10.51724 -10.70761,0 -10.70762,0 0,10.70762 0,10.70762 10.51724,-0.19037 10.51724,-0.19038 0.19038,-10.51725 z"
       id="path10080"
       inkscape:connector-curvature="0" />
    <path
       style="fill:#000000"
       d=""
       id="path10090"
       inkscape:connector-curvature="0" />
    <path
       style="fill:#000000"
       d=""
       id="path10092"
       inkscape:connector-curvature="0" />
    <path
       style="fill:#000000"
       d=""
       id="path10096"
       inkscape:connector-curvature="0" />
    <circle
       style="fill:none;stroke:#000000;stroke-width:0.57584107"
       id="path16742"
       cx="510.74664"
       cy="1042.5015"
       r="7.7517066" />
    <text
       xml:space="preserve"
       style="font-style:normal;font-weight:normal;font-size:13.02768707px;line-height:125%;font-family:sans-serif;letter-spacing:0px;word-spacing:0px;fill:#000000;fill-opacity:1;stroke:none;stroke-width:1px;stroke-linecap:butt;stroke-linejoin:miter;stroke-opacity:1"
       x="506.50952"
       y="1047.072"
       id="text16744"
       sodipodi:linespacing="125%"><tspan
         sodipodi:role="line"
         id="tspan16746"
         x="506.50952"
         y="1047.072">R</tspan></text>
  </g>
</svg>
