  0
SECTION
  2
BLOCKS
  0
ENDSEC
  0
SECTION
  2
ENTITIES
  0
LINE
  8
0
 10
62.1042
 20
-76.0619
 11
63.1108
 21
-75.9668
  0
LINE
  8
0
 10
63.1108
 20
-75.9668
 11
64.1093
 21
-75.8086
  0
LINE
  8
0
 10
64.1093
 20
-75.8086
 11
65.096
 21
-75.5881
  0
LINE
  8
0
 10
65.096
 20
-75.5881
 11
66.0669
 21
-75.3059
  0
LINE
  8
0
 10
66.0669
 20
-75.3059
 11
67.0181
 21
-74.9635
  0
LINE
  8
0
 10
67.0181
 20
-74.9635
 11
67.946
 21
-74.5619
  0
LINE
  8
0
 10
67.946
 20
-74.5619
 11
68.8469
 21
-74.1029
  0
LINE
  8
0
 10
68.8469
 20
-74.1029
 11
69.7171
 21
-73.5883
  0
LINE
  8
0
 10
69.7171
 20
-73.5883
 11
70.5533
 21
-73.02
  0
LINE
  8
0
 10
70.5533
 20
-73.02
 11
71.3522
 21
-72.4004
  0
LINE
  8
0
 10
71.3522
 20
-72.4004
 11
72.1106
 21
-71.7317
  0
LINE
  8
0
 10
72.1106
 20
-71.7317
 11
72.8255
 21
-71.0168
  0
LINE
  8
0
 10
72.8255
 20
-71.0168
 11
73.4941
 21
-70.2585
  0
LINE
  8
0
 10
73.4941
 20
-70.2585
 11
74.1138
 21
-69.4595
  0
LINE
  8
0
 10
74.1138
 20
-69.4595
 11
74.682
 21
-68.6234
  0
LINE
  8
0
 10
74.682
 20
-68.6234
 11
75.1967
 21
-67.7531
  0
LINE
  8
0
 10
75.1967
 20
-67.7531
 11
75.6557
 21
-66.8523
  0
LINE
  8
0
 10
75.6557
 20
-66.8523
 11
76.0573
 21
-65.9244
  0
LINE
  8
0
 10
76.0573
 20
-65.9244
 11
76.3997
 21
-64.9731
  0
LINE
  8
0
 10
76.3997
 20
-64.9731
 11
76.6818
 21
-64.0022
  0
LINE
  8
0
 10
76.6818
 20
-64.0022
 11
76.9023
 21
-63.0156
  0
LINE
  8
0
 10
76.9023
 20
-63.0156
 11
77.0605
 21
-62.0171
  0
LINE
  8
0
 10
77.0605
 20
-62.0171
 11
77.1556
 21
-61.0104
  0
LINE
  8
0
 10
77.1556
 20
-61.0104
 11
77.1875
 21
-60
  0
LINE
  8
0
 10
77.1875
 20
-60
 11
77.1875
 21
-45
  0
LINE
  8
0
 10
77.1875
 20
-45
 11
150
 21
-45
  0
LINE
  8
0
 10
150
 20
-45
 11
151.01
 21
-44.9683
  0
LINE
  8
0
 10
151.01
 20
-44.9683
 11
152.017
 21
-44.8732
  0
LINE
  8
0
 10
152.017
 20
-44.8732
 11
153.016
 21
-44.715
  0
LINE
  8
0
 10
153.016
 20
-44.715
 11
154.002
 21
-44.4945
  0
LINE
  8
0
 10
154.002
 20
-44.4945
 11
154.973
 21
-44.2123
  0
LINE
  8
0
 10
154.973
 20
-44.2123
 11
155.924
 21
-43.8699
  0
LINE
  8
0
 10
155.924
 20
-43.8699
 11
156.852
 21
-43.4683
  0
LINE
  8
0
 10
156.852
 20
-43.4683
 11
157.753
 21
-43.0093
  0
LINE
  8
0
 10
157.753
 20
-43.0093
 11
158.623
 21
-42.4947
  0
LINE
  8
0
 10
158.623
 20
-42.4947
 11
159.46
 21
-41.9264
  0
LINE
  8
0
 10
159.46
 20
-41.9264
 11
160.258
 21
-41.3068
  0
LINE
  8
0
 10
160.258
 20
-41.3068
 11
161.017
 21
-40.6381
  0
LINE
  8
0
 10
161.017
 20
-40.6381
 11
161.732
 21
-39.9232
  0
LINE
  8
0
 10
161.732
 20
-39.9232
 11
162.4
 21
-39.1649
  0
LINE
  8
0
 10
162.4
 20
-39.1649
 11
163.02
 21
-38.3659
  0
LINE
  8
0
 10
163.02
 20
-38.3659
 11
163.588
 21
-37.5298
  0
LINE
  8
0
 10
163.588
 20
-37.5298
 11
164.103
 21
-36.6595
  0
LINE
  8
0
 10
164.103
 20
-36.6595
 11
164.562
 21
-35.7587
  0
LINE
  8
0
 10
164.562
 20
-35.7587
 11
164.964
 21
-34.8308
  0
LINE
  8
0
 10
164.964
 20
-34.8308
 11
165.306
 21
-33.8795
  0
LINE
  8
0
 10
165.306
 20
-33.8795
 11
165.588
 21
-32.9086
  0
LINE
  8
0
 10
165.588
 20
-32.9086
 11
165.809
 21
-31.922
  0
LINE
  8
0
 10
165.809
 20
-31.922
 11
165.967
 21
-30.9235
  0
LINE
  8
0
 10
165.967
 20
-30.9235
 11
166.062
 21
-29.9168
  0
LINE
  8
0
 10
166.062
 20
-29.9168
 11
166.094
 21
-28.9062
  0
LINE
  8
0
 10
166.094
 20
-28.9062
 11
166.062
 21
-27.8958
  0
LINE
  8
0
 10
166.062
 20
-27.8958
 11
165.967
 21
-26.8892
  0
LINE
  8
0
 10
165.967
 20
-26.8892
 11
165.809
 21
-25.8907
  0
LINE
  8
0
 10
165.809
 20
-25.8907
 11
165.588
 21
-24.904
  0
LINE
  8
0
 10
165.588
 20
-24.904
 11
165.306
 21
-23.9331
  0
LINE
  8
0
 10
165.306
 20
-23.9331
 11
164.964
 21
-22.9819
  0
LINE
  8
0
 10
164.964
 20
-22.9819
 11
164.562
 21
-22.054
  0
LINE
  8
0
 10
164.562
 20
-22.054
 11
164.103
 21
-21.1531
  0
LINE
  8
0
 10
164.103
 20
-21.1531
 11
163.588
 21
-20.2829
  0
LINE
  8
0
 10
163.588
 20
-20.2829
 11
163.02
 21
-19.4467
  0
LINE
  8
0
 10
163.02
 20
-19.4467
 11
162.4
 21
-18.6478
  0
LINE
  8
0
 10
162.4
 20
-18.6478
 11
161.732
 21
-17.8894
  0
LINE
  8
0
 10
161.732
 20
-17.8894
 11
161.017
 21
-17.1745
  0
LINE
  8
0
 10
161.017
 20
-17.1745
 11
160.258
 21
-16.5059
  0
LINE
  8
0
 10
160.258
 20
-16.5059
 11
159.46
 21
-15.8862
  0
LINE
  8
0
 10
159.46
 20
-15.8862
 11
158.623
 21
-15.318
  0
LINE
  8
0
 10
158.623
 20
-15.318
 11
157.753
 21
-14.8033
  0
LINE
  8
0
 10
157.753
 20
-14.8033
 11
156.852
 21
-14.3443
  0
LINE
  8
0
 10
156.852
 20
-14.3443
 11
155.924
 21
-13.9427
  0
LINE
  8
0
 10
155.924
 20
-13.9427
 11
154.973
 21
-13.6003
  0
LINE
  8
0
 10
154.973
 20
-13.6003
 11
154.002
 21
-13.3182
  0
LINE
  8
0
 10
154.002
 20
-13.3182
 11
153.016
 21
-13.0977
  0
LINE
  8
0
 10
153.016
 20
-13.0977
 11
152.017
 21
-12.9395
  0
LINE
  8
0
 10
152.017
 20
-12.9395
 11
151.01
 21
-12.8444
  0
LINE
  8
0
 10
151.01
 20
-12.8444
 11
150
 21
-12.8125
  0
LINE
  8
0
 10
150
 20
-12.8125
 11
135
 21
-12.8125
  0
LINE
  8
0
 10
135
 20
-12.8125
 11
135
 21
12.8125
  0
LINE
  8
0
 10
135
 20
12.8125
 11
150
 21
12.8125
  0
LINE
  8
0
 10
150
 20
12.8125
 11
151.01
 21
12.8444
  0
LINE
  8
0
 10
151.01
 20
12.8444
 11
152.017
 21
12.9395
  0
LINE
  8
0
 10
152.017
 20
12.9395
 11
153.016
 21
13.0977
  0
LINE
  8
0
 10
153.016
 20
13.0977
 11
154.002
 21
13.3182
  0
LINE
  8
0
 10
154.002
 20
13.3182
 11
154.973
 21
13.6003
  0
LINE
  8
0
 10
154.973
 20
13.6003
 11
155.924
 21
13.9427
  0
LINE
  8
0
 10
155.924
 20
13.9427
 11
156.852
 21
14.3443
  0
LINE
  8
0
 10
156.852
 20
14.3443
 11
157.753
 21
14.8033
  0
LINE
  8
0
 10
157.753
 20
14.8033
 11
158.623
 21
15.318
  0
LINE
  8
0
 10
158.623
 20
15.318
 11
159.46
 21
15.8862
  0
LINE
  8
0
 10
159.46
 20
15.8862
 11
160.258
 21
16.5059
  0
LINE
  8
0
 10
160.258
 20
16.5059
 11
161.017
 21
17.1745
  0
LINE
  8
0
 10
161.017
 20
17.1745
 11
161.732
 21
17.8894
  0
LINE
  8
0
 10
161.732
 20
17.8894
 11
162.4
 21
18.6478
  0
LINE
  8
0
 10
162.4
 20
18.6478
 11
163.02
 21
19.4467
  0
LINE
  8
0
 10
163.02
 20
19.4467
 11
163.588
 21
20.2829
  0
LINE
  8
0
 10
163.588
 20
20.2829
 11
164.103
 21
21.1531
  0
LINE
  8
0
 10
164.103
 20
21.1531
 11
164.562
 21
22.054
  0
LINE
  8
0
 10
164.562
 20
22.054
 11
164.964
 21
22.9819
  0
LINE
  8
0
 10
164.964
 20
22.9819
 11
165.306
 21
23.9331
  0
LINE
  8
0
 10
165.306
 20
23.9331
 11
165.588
 21
24.904
  0
LINE
  8
0
 10
165.588
 20
24.904
 11
165.809
 21
25.8907
  0
LINE
  8
0
 10
165.809
 20
25.8907
 11
165.967
 21
26.8892
  0
LINE
  8
0
 10
165.967
 20
26.8892
 11
166.062
 21
27.8958
  0
LINE
  8
0
 10
166.062
 20
27.8958
 11
166.094
 21
28.9062
  0
LINE
  8
0
 10
166.094
 20
28.9062
 11
166.062
 21
29.9168
  0
LINE
  8
0
 10
166.062
 20
29.9168
 11
165.967
 21
30.9235
  0
LINE
  8
0
 10
165.967
 20
30.9235
 11
165.809
 21
31.922
  0
LINE
  8
0
 10
165.809
 20
31.922
 11
165.588
 21
32.9086
  0
LINE
  8
0
 10
165.588
 20
32.9086
 11
165.306
 21
33.8795
  0
LINE
  8
0
 10
165.306
 20
33.8795
 11
164.964
 21
34.8308
  0
LINE
  8
0
 10
164.964
 20
34.8308
 11
164.562
 21
35.7587
  0
LINE
  8
0
 10
164.562
 20
35.7587
 11
164.103
 21
36.6595
  0
LINE
  8
0
 10
164.103
 20
36.6595
 11
163.588
 21
37.5298
  0
LINE
  8
0
 10
163.588
 20
37.5298
 11
163.02
 21
38.3659
  0
LINE
  8
0
 10
163.02
 20
38.3659
 11
162.4
 21
39.1649
  0
LINE
  8
0
 10
162.4
 20
39.1649
 11
161.732
 21
39.9232
  0
LINE
  8
0
 10
161.732
 20
39.9232
 11
161.017
 21
40.6381
  0
LINE
  8
0
 10
161.017
 20
40.6381
 11
160.258
 21
41.3068
  0
LINE
  8
0
 10
160.258
 20
41.3068
 11
159.46
 21
41.9264
  0
LINE
  8
0
 10
159.46
 20
41.9264
 11
158.623
 21
42.4947
  0
LINE
  8
0
 10
158.623
 20
42.4947
 11
157.753
 21
43.0093
  0
LINE
  8
0
 10
157.753
 20
43.0093
 11
156.852
 21
43.4683
  0
LINE
  8
0
 10
156.852
 20
43.4683
 11
155.924
 21
43.8699
  0
LINE
  8
0
 10
155.924
 20
43.8699
 11
154.973
 21
44.2123
  0
LINE
  8
0
 10
154.973
 20
44.2123
 11
154.002
 21
44.4945
  0
LINE
  8
0
 10
154.002
 20
44.4945
 11
153.016
 21
44.715
  0
LINE
  8
0
 10
153.016
 20
44.715
 11
152.017
 21
44.8732
  0
LINE
  8
0
 10
152.017
 20
44.8732
 11
151.01
 21
44.9683
  0
LINE
  8
0
 10
151.01
 20
44.9683
 11
150
 21
45
  0
LINE
  8
0
 10
150
 20
45
 11
77.1875
 21
45
  0
LINE
  8
0
 10
77.1875
 20
45
 11
77.1875
 21
60
  0
LINE
  8
0
 10
77.1875
 20
60
 11
77.1556
 21
61.0104
  0
LINE
  8
0
 10
77.1556
 20
61.0104
 11
77.0605
 21
62.0171
  0
LINE
  8
0
 10
77.0605
 20
62.0171
 11
76.9023
 21
63.0156
  0
LINE
  8
0
 10
76.9023
 20
63.0156
 11
76.6818
 21
64.0022
  0
LINE
  8
0
 10
76.6818
 20
64.0022
 11
76.3997
 21
64.9731
  0
LINE
  8
0
 10
76.3997
 20
64.9731
 11
76.0573
 21
65.9244
  0
LINE
  8
0
 10
76.0573
 20
65.9244
 11
75.6557
 21
66.8523
  0
LINE
  8
0
 10
75.6557
 20
66.8523
 11
75.1967
 21
67.7531
  0
LINE
  8
0
 10
75.1967
 20
67.7531
 11
74.682
 21
68.6234
  0
LINE
  8
0
 10
74.682
 20
68.6234
 11
74.1138
 21
69.4595
  0
LINE
  8
0
 10
74.1138
 20
69.4595
 11
73.4941
 21
70.2585
  0
LINE
  8
0
 10
73.4941
 20
70.2585
 11
72.8255
 21
71.0168
  0
LINE
  8
0
 10
72.8255
 20
71.0168
 11
72.1106
 21
71.7317
  0
LINE
  8
0
 10
72.1106
 20
71.7317
 11
71.3522
 21
72.4004
  0
LINE
  8
0
 10
71.3522
 20
72.4004
 11
70.5533
 21
73.02
  0
LINE
  8
0
 10
70.5533
 20
73.02
 11
69.7171
 21
73.5883
  0
LINE
  8
0
 10
69.7171
 20
73.5883
 11
68.8469
 21
74.1029
  0
LINE
  8
0
 10
68.8469
 20
74.1029
 11
67.946
 21
74.5619
  0
LINE
  8
0
 10
67.946
 20
74.5619
 11
67.0181
 21
74.9635
  0
LINE
  8
0
 10
67.0181
 20
74.9635
 11
66.0669
 21
75.3059
  0
LINE
  8
0
 10
66.0669
 20
75.3059
 11
65.096
 21
75.5881
  0
LINE
  8
0
 10
65.096
 20
75.5881
 11
64.1093
 21
75.8086
  0
LINE
  8
0
 10
64.1093
 20
75.8086
 11
63.1108
 21
75.9668
  0
LINE
  8
0
 10
63.1108
 20
75.9668
 11
62.1042
 21
76.0619
  0
LINE
  8
0
 10
62.1042
 20
76.0619
 11
61.0938
 21
76.0938
  0
LINE
  8
0
 10
61.0938
 20
76.0938
 11
60.0832
 21
76.0619
  0
LINE
  8
0
 10
60.0832
 20
76.0619
 11
59.0765
 21
75.9668
  0
LINE
  8
0
 10
59.0765
 20
75.9668
 11
58.078
 21
75.8086
  0
LINE
  8
0
 10
58.078
 20
75.8086
 11
57.0914
 21
75.5881
  0
LINE
  8
0
 10
57.0914
 20
75.5881
 11
56.1205
 21
75.3059
  0
LINE
  8
0
 10
56.1205
 20
75.3059
 11
55.1692
 21
74.9635
  0
LINE
  8
0
 10
55.1692
 20
74.9635
 11
54.2413
 21
74.5619
  0
LINE
  8
0
 10
54.2413
 20
74.5619
 11
53.3405
 21
74.1029
  0
LINE
  8
0
 10
53.3405
 20
74.1029
 11
52.4702
 21
73.5883
  0
LINE
  8
0
 10
52.4702
 20
73.5883
 11
51.6341
 21
73.02
  0
LINE
  8
0
 10
51.6341
 20
73.02
 11
50.8351
 21
72.4004
  0
LINE
  8
0
 10
50.8351
 20
72.4004
 11
50.0768
 21
71.7317
  0
LINE
  8
0
 10
50.0768
 20
71.7317
 11
49.3619
 21
71.0168
  0
LINE
  8
0
 10
49.3619
 20
71.0168
 11
48.6932
 21
70.2585
  0
LINE
  8
0
 10
48.6932
 20
70.2585
 11
48.0736
 21
69.4595
  0
LINE
  8
0
 10
48.0736
 20
69.4595
 11
47.5053
 21
68.6234
  0
LINE
  8
0
 10
47.5053
 20
68.6234
 11
46.9907
 21
67.7531
  0
LINE
  8
0
 10
46.9907
 20
67.7531
 11
46.5317
 21
66.8523
  0
LINE
  8
0
 10
46.5317
 20
66.8523
 11
46.1301
 21
65.9244
  0
LINE
  8
0
 10
46.1301
 20
65.9244
 11
45.7877
 21
64.9731
  0
LINE
  8
0
 10
45.7877
 20
64.9731
 11
45.5055
 21
64.0022
  0
LINE
  8
0
 10
45.5055
 20
64.0022
 11
45.285
 21
63.0156
  0
LINE
  8
0
 10
45.285
 20
63.0156
 11
45.1268
 21
62.0171
  0
LINE
  8
0
 10
45.1268
 20
62.0171
 11
45.0317
 21
61.0104
  0
LINE
  8
0
 10
45.0317
 20
61.0104
 11
45
 21
60
  0
LINE
  8
0
 10
45
 20
60
 11
45
 21
45
  0
LINE
  8
0
 10
45
 20
45
 11
17.1875
 21
45
  0
LINE
  8
0
 10
17.1875
 20
45
 11
17.1875
 21
60
  0
LINE
  8
0
 10
17.1875
 20
60
 11
17.1556
 21
61.0104
  0
LINE
  8
0
 10
17.1556
 20
61.0104
 11
17.0605
 21
62.0171
  0
LINE
  8
0
 10
17.0605
 20
62.0171
 11
16.9023
 21
63.0156
  0
LINE
  8
0
 10
16.9023
 20
63.0156
 11
16.6818
 21
64.0022
  0
LINE
  8
0
 10
16.6818
 20
64.0022
 11
16.3997
 21
64.9731
  0
LINE
  8
0
 10
16.3997
 20
64.9731
 11
16.0573
 21
65.9244
  0
LINE
  8
0
 10
16.0573
 20
65.9244
 11
15.6557
 21
66.8523
  0
LINE
  8
0
 10
15.6557
 20
66.8523
 11
15.1967
 21
67.7531
  0
LINE
  8
0
 10
15.1967
 20
67.7531
 11
14.682
 21
68.6234
  0
LINE
  8
0
 10
14.682
 20
68.6234
 11
14.1138
 21
69.4595
  0
LINE
  8
0
 10
14.1138
 20
69.4595
 11
13.4941
 21
70.2585
  0
LINE
  8
0
 10
13.4941
 20
70.2585
 11
12.8255
 21
71.0168
  0
LINE
  8
0
 10
12.8255
 20
71.0168
 11
12.1106
 21
71.7317
  0
LINE
  8
0
 10
12.1106
 20
71.7317
 11
11.3522
 21
72.4004
  0
LINE
  8
0
 10
11.3522
 20
72.4004
 11
10.5533
 21
73.02
  0
LINE
  8
0
 10
10.5533
 20
73.02
 11
9.7171
 21
73.5883
  0
LINE
  8
0
 10
9.7171
 20
73.5883
 11
8.84689
 21
74.1029
  0
LINE
  8
0
 10
8.84689
 20
74.1029
 11
7.94601
 21
74.5619
  0
LINE
  8
0
 10
7.94601
 20
74.5619
 11
7.01813
 21
74.9635
  0
LINE
  8
0
 10
7.01813
 20
74.9635
 11
6.06689
 21
75.3059
  0
LINE
  8
0
 10
6.06689
 20
75.3059
 11
5.09598
 21
75.5881
  0
LINE
  8
0
 10
5.09598
 20
75.5881
 11
4.10934
 21
75.8086
  0
LINE
  8
0
 10
4.10934
 20
75.8086
 11
3.11081
 21
75.9668
  0
LINE
  8
0
 10
3.11081
 20
75.9668
 11
2.10419
 21
76.0619
  0
LINE
  8
0
 10
2.10419
 20
76.0619
 11
1.09375
 21
76.0938
  0
LINE
  8
0
 10
1.09375
 20
76.0938
 11
0.0831604
 21
76.0619
  0
LINE
  8
0
 10
0.0831604
 20
76.0619
 11
-0.923462
 21
75.9668
  0
LINE
  8
0
 10
-0.923462
 20
75.9668
 11
-1.922
 21
75.8086
  0
LINE
  8
0
 10
-1.922
 20
75.8086
 11
-2.90863
 21
75.5881
  0
LINE
  8
0
 10
-2.90863
 20
75.5881
 11
-3.87955
 21
75.3059
  0
LINE
  8
0
 10
-3.87955
 20
75.3059
 11
-4.83078
 21
74.9635
  0
LINE
  8
0
 10
-4.83078
 20
74.9635
 11
-5.75867
 21
74.5619
  0
LINE
  8
0
 10
-5.75867
 20
74.5619
 11
-6.65955
 21
74.1029
  0
LINE
  8
0
 10
-6.65955
 20
74.1029
 11
-7.52975
 21
73.5883
  0
LINE
  8
0
 10
-7.52975
 20
73.5883
 11
-8.36594
 21
73.02
  0
LINE
  8
0
 10
-8.36594
 20
73.02
 11
-9.16489
 21
72.4004
  0
LINE
  8
0
 10
-9.16489
 20
72.4004
 11
-9.92325
 21
71.7317
  0
LINE
  8
0
 10
-9.92325
 20
71.7317
 11
-10.6381
 21
71.0168
  0
LINE
  8
0
 10
-10.6381
 20
71.0168
 11
-11.3068
 21
70.2585
  0
LINE
  8
0
 10
-11.3068
 20
70.2585
 11
-11.9264
 21
69.4595
  0
LINE
  8
0
 10
-11.9264
 20
69.4595
 11
-12.4947
 21
68.6234
  0
LINE
  8
0
 10
-12.4947
 20
68.6234
 11
-13.0093
 21
67.7531
  0
LINE
  8
0
 10
-13.0093
 20
67.7531
 11
-13.4683
 21
66.8523
  0
LINE
  8
0
 10
-13.4683
 20
66.8523
 11
-13.8699
 21
65.9244
  0
LINE
  8
0
 10
-13.8699
 20
65.9244
 11
-14.2123
 21
64.9731
  0
LINE
  8
0
 10
-14.2123
 20
64.9731
 11
-14.4945
 21
64.0022
  0
LINE
  8
0
 10
-14.4945
 20
64.0022
 11
-14.715
 21
63.0156
  0
LINE
  8
0
 10
-14.715
 20
63.0156
 11
-14.8732
 21
62.0171
  0
LINE
  8
0
 10
-14.8732
 20
62.0171
 11
-14.9683
 21
61.0104
  0
LINE
  8
0
 10
-14.9683
 20
61.0104
 11
-15
 21
60
  0
LINE
  8
0
 10
-15
 20
60
 11
-15
 21
45
  0
LINE
  8
0
 10
-15
 20
45
 11
-42.8125
 21
45
  0
LINE
  8
0
 10
-42.8125
 20
45
 11
-42.8125
 21
60
  0
LINE
  8
0
 10
-42.8125
 20
60
 11
-42.8444
 21
61.0104
  0
LINE
  8
0
 10
-42.8444
 20
61.0104
 11
-42.9395
 21
62.0171
  0
LINE
  8
0
 10
-42.9395
 20
62.0171
 11
-43.0977
 21
63.0156
  0
LINE
  8
0
 10
-43.0977
 20
63.0156
 11
-43.3182
 21
64.0022
  0
LINE
  8
0
 10
-43.3182
 20
64.0022
 11
-43.6003
 21
64.9731
  0
LINE
  8
0
 10
-43.6003
 20
64.9731
 11
-43.9427
 21
65.9244
  0
LINE
  8
0
 10
-43.9427
 20
65.9244
 11
-44.3443
 21
66.8523
  0
LINE
  8
0
 10
-44.3443
 20
66.8523
 11
-44.8033
 21
67.7531
  0
LINE
  8
0
 10
-44.8033
 20
67.7531
 11
-45.318
 21
68.6234
  0
LINE
  8
0
 10
-45.318
 20
68.6234
 11
-45.8862
 21
69.4595
  0
LINE
  8
0
 10
-45.8862
 20
69.4595
 11
-46.5059
 21
70.2585
  0
LINE
  8
0
 10
-46.5059
 20
70.2585
 11
-47.1745
 21
71.0168
  0
LINE
  8
0
 10
-47.1745
 20
71.0168
 11
-47.8894
 21
71.7317
  0
LINE
  8
0
 10
-47.8894
 20
71.7317
 11
-48.6478
 21
72.4004
  0
LINE
  8
0
 10
-48.6478
 20
72.4004
 11
-49.4467
 21
73.02
  0
LINE
  8
0
 10
-49.4467
 20
73.02
 11
-50.2829
 21
73.5883
  0
LINE
  8
0
 10
-50.2829
 20
73.5883
 11
-51.1531
 21
74.1029
  0
LINE
  8
0
 10
-51.1531
 20
74.1029
 11
-52.054
 21
74.5619
  0
LINE
  8
0
 10
-52.054
 20
74.5619
 11
-52.9819
 21
74.9635
  0
LINE
  8
0
 10
-52.9819
 20
74.9635
 11
-53.9331
 21
75.3059
  0
LINE
  8
0
 10
-53.9331
 20
75.3059
 11
-54.904
 21
75.5881
  0
LINE
  8
0
 10
-54.904
 20
75.5881
 11
-55.8907
 21
75.8086
  0
LINE
  8
0
 10
-55.8907
 20
75.8086
 11
-56.8892
 21
75.9668
  0
LINE
  8
0
 10
-56.8892
 20
75.9668
 11
-57.8958
 21
76.0619
  0
LINE
  8
0
 10
-57.8958
 20
76.0619
 11
-58.9062
 21
76.0938
  0
LINE
  8
0
 10
-58.9062
 20
76.0938
 11
-59.9168
 21
76.0619
  0
LINE
  8
0
 10
-59.9168
 20
76.0619
 11
-60.9235
 21
75.9668
  0
LINE
  8
0
 10
-60.9235
 20
75.9668
 11
-61.922
 21
75.8086
  0
LINE
  8
0
 10
-61.922
 20
75.8086
 11
-62.9086
 21
75.5881
  0
LINE
  8
0
 10
-62.9086
 20
75.5881
 11
-63.8795
 21
75.3059
  0
LINE
  8
0
 10
-63.8795
 20
75.3059
 11
-64.8308
 21
74.9635
  0
LINE
  8
0
 10
-64.8308
 20
74.9635
 11
-65.7587
 21
74.5619
  0
LINE
  8
0
 10
-65.7587
 20
74.5619
 11
-66.6595
 21
74.1029
  0
LINE
  8
0
 10
-66.6595
 20
74.1029
 11
-67.5298
 21
73.5883
  0
LINE
  8
0
 10
-67.5298
 20
73.5883
 11
-68.3659
 21
73.02
  0
LINE
  8
0
 10
-68.3659
 20
73.02
 11
-69.1649
 21
72.4004
  0
LINE
  8
0
 10
-69.1649
 20
72.4004
 11
-69.9232
 21
71.7317
  0
LINE
  8
0
 10
-69.9232
 20
71.7317
 11
-70.6381
 21
71.0168
  0
LINE
  8
0
 10
-70.6381
 20
71.0168
 11
-71.3068
 21
70.2585
  0
LINE
  8
0
 10
-71.3068
 20
70.2585
 11
-71.9264
 21
69.4595
  0
LINE
  8
0
 10
-71.9264
 20
69.4595
 11
-72.4947
 21
68.6234
  0
LINE
  8
0
 10
-72.4947
 20
68.6234
 11
-73.0093
 21
67.7531
  0
LINE
  8
0
 10
-73.0093
 20
67.7531
 11
-73.4683
 21
66.8523
  0
LINE
  8
0
 10
-73.4683
 20
66.8523
 11
-73.8699
 21
65.9244
  0
LINE
  8
0
 10
-73.8699
 20
65.9244
 11
-74.2123
 21
64.9731
  0
LINE
  8
0
 10
-74.2123
 20
64.9731
 11
-74.4945
 21
64.0022
  0
LINE
  8
0
 10
-74.4945
 20
64.0022
 11
-74.715
 21
63.0156
  0
LINE
  8
0
 10
-74.715
 20
63.0156
 11
-74.8732
 21
62.0171
  0
LINE
  8
0
 10
-74.8732
 20
62.0171
 11
-74.9683
 21
61.0104
  0
LINE
  8
0
 10
-74.9683
 20
61.0104
 11
-75
 21
60
  0
LINE
  8
0
 10
-75
 20
60
 11
-75
 21
45
  0
LINE
  8
0
 10
-75
 20
45
 11
-150
 21
45
  0
LINE
  8
0
 10
-150
 20
45
 11
-151.01
 21
44.9683
  0
LINE
  8
0
 10
-151.01
 20
44.9683
 11
-152.017
 21
44.8732
  0
LINE
  8
0
 10
-152.017
 20
44.8732
 11
-153.016
 21
44.715
  0
LINE
  8
0
 10
-153.016
 20
44.715
 11
-154.002
 21
44.4945
  0
LINE
  8
0
 10
-154.002
 20
44.4945
 11
-154.973
 21
44.2123
  0
LINE
  8
0
 10
-154.973
 20
44.2123
 11
-155.924
 21
43.8699
  0
LINE
  8
0
 10
-155.924
 20
43.8699
 11
-156.852
 21
43.4683
  0
LINE
  8
0
 10
-156.852
 20
43.4683
 11
-157.753
 21
43.0093
  0
LINE
  8
0
 10
-157.753
 20
43.0093
 11
-158.623
 21
42.4947
  0
LINE
  8
0
 10
-158.623
 20
42.4947
 11
-159.46
 21
41.9264
  0
LINE
  8
0
 10
-159.46
 20
41.9264
 11
-160.258
 21
41.3068
  0
LINE
  8
0
 10
-160.258
 20
41.3068
 11
-161.017
 21
40.6381
  0
LINE
  8
0
 10
-161.017
 20
40.6381
 11
-161.732
 21
39.9232
  0
LINE
  8
0
 10
-161.732
 20
39.9232
 11
-162.4
 21
39.1649
  0
LINE
  8
0
 10
-162.4
 20
39.1649
 11
-163.02
 21
38.3659
  0
LINE
  8
0
 10
-163.02
 20
38.3659
 11
-163.588
 21
37.5298
  0
LINE
  8
0
 10
-163.588
 20
37.5298
 11
-164.103
 21
36.6595
  0
LINE
  8
0
 10
-164.103
 20
36.6595
 11
-164.562
 21
35.7587
  0
LINE
  8
0
 10
-164.562
 20
35.7587
 11
-164.964
 21
34.8308
  0
LINE
  8
0
 10
-164.964
 20
34.8308
 11
-165.306
 21
33.8795
  0
LINE
  8
0
 10
-165.306
 20
33.8795
 11
-165.588
 21
32.9086
  0
LINE
  8
0
 10
-165.588
 20
32.9086
 11
-165.809
 21
31.922
  0
LINE
  8
0
 10
-165.809
 20
31.922
 11
-165.967
 21
30.9235
  0
LINE
  8
0
 10
-165.967
 20
30.9235
 11
-166.062
 21
29.9168
  0
LINE
  8
0
 10
-166.062
 20
29.9168
 11
-166.094
 21
28.9062
  0
LINE
  8
0
 10
-166.094
 20
28.9062
 11
-166.062
 21
27.8958
  0
LINE
  8
0
 10
-166.062
 20
27.8958
 11
-165.967
 21
26.8892
  0
LINE
  8
0
 10
-165.967
 20
26.8892
 11
-165.809
 21
25.8907
  0
LINE
  8
0
 10
-165.809
 20
25.8907
 11
-165.588
 21
24.904
  0
LINE
  8
0
 10
-165.588
 20
24.904
 11
-165.306
 21
23.9331
  0
LINE
  8
0
 10
-165.306
 20
23.9331
 11
-164.964
 21
22.9819
  0
LINE
  8
0
 10
-164.964
 20
22.9819
 11
-164.562
 21
22.054
  0
LINE
  8
0
 10
-164.562
 20
22.054
 11
-164.103
 21
21.1531
  0
LINE
  8
0
 10
-164.103
 20
21.1531
 11
-163.588
 21
20.2829
  0
LINE
  8
0
 10
-163.588
 20
20.2829
 11
-163.02
 21
19.4467
  0
LINE
  8
0
 10
-163.02
 20
19.4467
 11
-162.4
 21
18.6478
  0
LINE
  8
0
 10
-162.4
 20
18.6478
 11
-161.732
 21
17.8894
  0
LINE
  8
0
 10
-161.732
 20
17.8894
 11
-161.017
 21
17.1745
  0
LINE
  8
0
 10
-161.017
 20
17.1745
 11
-160.258
 21
16.5059
  0
LINE
  8
0
 10
-160.258
 20
16.5059
 11
-159.46
 21
15.8862
  0
LINE
  8
0
 10
-159.46
 20
15.8862
 11
-158.623
 21
15.318
  0
LINE
  8
0
 10
-158.623
 20
15.318
 11
-157.753
 21
14.8033
  0
LINE
  8
0
 10
-157.753
 20
14.8033
 11
-156.852
 21
14.3443
  0
LINE
  8
0
 10
-156.852
 20
14.3443
 11
-155.924
 21
13.9427
  0
LINE
  8
0
 10
-155.924
 20
13.9427
 11
-154.973
 21
13.6003
  0
LINE
  8
0
 10
-154.973
 20
13.6003
 11
-154.002
 21
13.3182
  0
LINE
  8
0
 10
-154.002
 20
13.3182
 11
-153.016
 21
13.0977
  0
LINE
  8
0
 10
-153.016
 20
13.0977
 11
-152.017
 21
12.9395
  0
LINE
  8
0
 10
-152.017
 20
12.9395
 11
-151.01
 21
12.8444
  0
LINE
  8
0
 10
-151.01
 20
12.8444
 11
-150
 21
12.8125
  0
LINE
  8
0
 10
-150
 20
12.8125
 11
-135
 21
12.8125
  0
LINE
  8
0
 10
-135
 20
12.8125
 11
-135
 21
-12.8125
  0
LINE
  8
0
 10
-135
 20
-12.8125
 11
-150
 21
-12.8125
  0
LINE
  8
0
 10
-150
 20
-12.8125
 11
-151.01
 21
-12.8444
  0
LINE
  8
0
 10
-151.01
 20
-12.8444
 11
-152.017
 21
-12.9395
  0
LINE
  8
0
 10
-152.017
 20
-12.9395
 11
-153.016
 21
-13.0977
  0
LINE
  8
0
 10
-153.016
 20
-13.0977
 11
-154.002
 21
-13.3182
  0
LINE
  8
0
 10
-154.002
 20
-13.3182
 11
-154.973
 21
-13.6003
  0
LINE
  8
0
 10
-154.973
 20
-13.6003
 11
-155.924
 21
-13.9427
  0
LINE
  8
0
 10
-155.924
 20
-13.9427
 11
-156.852
 21
-14.3443
  0
LINE
  8
0
 10
-156.852
 20
-14.3443
 11
-157.753
 21
-14.8033
  0
LINE
  8
0
 10
-157.753
 20
-14.8033
 11
-158.623
 21
-15.318
  0
LINE
  8
0
 10
-158.623
 20
-15.318
 11
-159.46
 21
-15.8862
  0
LINE
  8
0
 10
-159.46
 20
-15.8862
 11
-160.258
 21
-16.5059
  0
LINE
  8
0
 10
-160.258
 20
-16.5059
 11
-161.017
 21
-17.1745
  0
LINE
  8
0
 10
-161.017
 20
-17.1745
 11
-161.732
 21
-17.8894
  0
LINE
  8
0
 10
-161.732
 20
-17.8894
 11
-162.4
 21
-18.6478
  0
LINE
  8
0
 10
-162.4
 20
-18.6478
 11
-163.02
 21
-19.4467
  0
LINE
  8
0
 10
-163.02
 20
-19.4467
 11
-163.588
 21
-20.2829
  0
LINE
  8
0
 10
-163.588
 20
-20.2829
 11
-164.103
 21
-21.1531
  0
LINE
  8
0
 10
-164.103
 20
-21.1531
 11
-164.562
 21
-22.054
  0
LINE
  8
0
 10
-164.562
 20
-22.054
 11
-164.964
 21
-22.9819
  0
LINE
  8
0
 10
-164.964
 20
-22.9819
 11
-165.306
 21
-23.9331
  0
LINE
  8
0
 10
-165.306
 20
-23.9331
 11
-165.588
 21
-24.904
  0
LINE
  8
0
 10
-165.588
 20
-24.904
 11
-165.809
 21
-25.8907
  0
LINE
  8
0
 10
-165.809
 20
-25.8907
 11
-165.967
 21
-26.8892
  0
LINE
  8
0
 10
-165.967
 20
-26.8892
 11
-166.062
 21
-27.8958
  0
LINE
  8
0
 10
-166.062
 20
-27.8958
 11
-166.094
 21
-28.9062
  0
LINE
  8
0
 10
-166.094
 20
-28.9062
 11
-166.062
 21
-29.9168
  0
LINE
  8
0
 10
-166.062
 20
-29.9168
 11
-165.967
 21
-30.9235
  0
LINE
  8
0
 10
-165.967
 20
-30.9235
 11
-165.809
 21
-31.922
  0
LINE
  8
0
 10
-165.809
 20
-31.922
 11
-165.588
 21
-32.9086
  0
LINE
  8
0
 10
-165.588
 20
-32.9086
 11
-165.306
 21
-33.8795
  0
LINE
  8
0
 10
-165.306
 20
-33.8795
 11
-164.964
 21
-34.8308
  0
LINE
  8
0
 10
-164.964
 20
-34.8308
 11
-164.562
 21
-35.7587
  0
LINE
  8
0
 10
-164.562
 20
-35.7587
 11
-164.103
 21
-36.6595
  0
LINE
  8
0
 10
-164.103
 20
-36.6595
 11
-163.588
 21
-37.5298
  0
LINE
  8
0
 10
-163.588
 20
-37.5298
 11
-163.02
 21
-38.3659
  0
LINE
  8
0
 10
-163.02
 20
-38.3659
 11
-162.4
 21
-39.1649
  0
LINE
  8
0
 10
-162.4
 20
-39.1649
 11
-161.732
 21
-39.9232
  0
LINE
  8
0
 10
-161.732
 20
-39.9232
 11
-161.017
 21
-40.6381
  0
LINE
  8
0
 10
-161.017
 20
-40.6381
 11
-160.258
 21
-41.3068
  0
LINE
  8
0
 10
-160.258
 20
-41.3068
 11
-159.46
 21
-41.9264
  0
LINE
  8
0
 10
-159.46
 20
-41.9264
 11
-158.623
 21
-42.4947
  0
LINE
  8
0
 10
-158.623
 20
-42.4947
 11
-157.753
 21
-43.0093
  0
LINE
  8
0
 10
-157.753
 20
-43.0093
 11
-156.852
 21
-43.4683
  0
LINE
  8
0
 10
-156.852
 20
-43.4683
 11
-155.924
 21
-43.8699
  0
LINE
  8
0
 10
-155.924
 20
-43.8699
 11
-154.973
 21
-44.2123
  0
LINE
  8
0
 10
-154.973
 20
-44.2123
 11
-154.002
 21
-44.4945
  0
LINE
  8
0
 10
-154.002
 20
-44.4945
 11
-153.016
 21
-44.715
  0
LINE
  8
0
 10
-153.016
 20
-44.715
 11
-152.017
 21
-44.8732
  0
LINE
  8
0
 10
-152.017
 20
-44.8732
 11
-151.01
 21
-44.9683
  0
LINE
  8
0
 10
-151.01
 20
-44.9683
 11
-150
 21
-45
  0
LINE
  8
0
 10
-150
 20
-45
 11
-75
 21
-45
  0
LINE
  8
0
 10
-75
 20
-45
 11
-75
 21
-60
  0
LINE
  8
0
 10
-75
 20
-60
 11
-74.9683
 21
-61.0104
  0
LINE
  8
0
 10
-74.9683
 20
-61.0104
 11
-74.8732
 21
-62.0171
  0
LINE
  8
0
 10
-74.8732
 20
-62.0171
 11
-74.715
 21
-63.0156
  0
LINE
  8
0
 10
-74.715
 20
-63.0156
 11
-74.4945
 21
-64.0022
  0
LINE
  8
0
 10
-74.4945
 20
-64.0022
 11
-74.2123
 21
-64.9731
  0
LINE
  8
0
 10
-74.2123
 20
-64.9731
 11
-73.8699
 21
-65.9244
  0
LINE
  8
0
 10
-73.8699
 20
-65.9244
 11
-73.4683
 21
-66.8523
  0
LINE
  8
0
 10
-73.4683
 20
-66.8523
 11
-73.0093
 21
-67.7531
  0
LINE
  8
0
 10
-73.0093
 20
-67.7531
 11
-72.4947
 21
-68.6234
  0
LINE
  8
0
 10
-72.4947
 20
-68.6234
 11
-71.9264
 21
-69.4595
  0
LINE
  8
0
 10
-71.9264
 20
-69.4595
 11
-71.3068
 21
-70.2585
  0
LINE
  8
0
 10
-71.3068
 20
-70.2585
 11
-70.6381
 21
-71.0168
  0
LINE
  8
0
 10
-70.6381
 20
-71.0168
 11
-69.9232
 21
-71.7317
  0
LINE
  8
0
 10
-69.9232
 20
-71.7317
 11
-69.1649
 21
-72.4004
  0
LINE
  8
0
 10
-69.1649
 20
-72.4004
 11
-68.3659
 21
-73.02
  0
LINE
  8
0
 10
-68.3659
 20
-73.02
 11
-67.5298
 21
-73.5883
  0
LINE
  8
0
 10
-67.5298
 20
-73.5883
 11
-66.6595
 21
-74.1029
  0
LINE
  8
0
 10
-66.6595
 20
-74.1029
 11
-65.7587
 21
-74.5619
  0
LINE
  8
0
 10
-65.7587
 20
-74.5619
 11
-64.8308
 21
-74.9635
  0
LINE
  8
0
 10
-64.8308
 20
-74.9635
 11
-63.8795
 21
-75.3059
  0
LINE
  8
0
 10
-63.8795
 20
-75.3059
 11
-62.9086
 21
-75.5881
  0
LINE
  8
0
 10
-62.9086
 20
-75.5881
 11
-61.922
 21
-75.8086
  0
LINE
  8
0
 10
-61.922
 20
-75.8086
 11
-60.9235
 21
-75.9668
  0
LINE
  8
0
 10
-60.9235
 20
-75.9668
 11
-59.9168
 21
-76.0619
  0
LINE
  8
0
 10
-59.9168
 20
-76.0619
 11
-58.9062
 21
-76.0938
  0
LINE
  8
0
 10
-58.9062
 20
-76.0938
 11
-57.8958
 21
-76.0619
  0
LINE
  8
0
 10
-57.8958
 20
-76.0619
 11
-56.8892
 21
-75.9668
  0
LINE
  8
0
 10
-56.8892
 20
-75.9668
 11
-55.8907
 21
-75.8086
  0
LINE
  8
0
 10
-55.8907
 20
-75.8086
 11
-54.904
 21
-75.5881
  0
LINE
  8
0
 10
-54.904
 20
-75.5881
 11
-53.9331
 21
-75.3059
  0
LINE
  8
0
 10
-53.9331
 20
-75.3059
 11
-52.9819
 21
-74.9635
  0
LINE
  8
0
 10
-52.9819
 20
-74.9635
 11
-52.054
 21
-74.5619
  0
LINE
  8
0
 10
-52.054
 20
-74.5619
 11
-51.1531
 21
-74.1029
  0
LINE
  8
0
 10
-51.1531
 20
-74.1029
 11
-50.2829
 21
-73.5883
  0
LINE
  8
0
 10
-50.2829
 20
-73.5883
 11
-49.4467
 21
-73.02
  0
LINE
  8
0
 10
-49.4467
 20
-73.02
 11
-48.6478
 21
-72.4004
  0
LINE
  8
0
 10
-48.6478
 20
-72.4004
 11
-47.8894
 21
-71.7317
  0
LINE
  8
0
 10
-47.8894
 20
-71.7317
 11
-47.1745
 21
-71.0168
  0
LINE
  8
0
 10
-47.1745
 20
-71.0168
 11
-46.5059
 21
-70.2585
  0
LINE
  8
0
 10
-46.5059
 20
-70.2585
 11
-45.8862
 21
-69.4595
  0
LINE
  8
0
 10
-45.8862
 20
-69.4595
 11
-45.318
 21
-68.6234
  0
LINE
  8
0
 10
-45.318
 20
-68.6234
 11
-44.8033
 21
-67.7531
  0
LINE
  8
0
 10
-44.8033
 20
-67.7531
 11
-44.3443
 21
-66.8523
  0
LINE
  8
0
 10
-44.3443
 20
-66.8523
 11
-43.9427
 21
-65.9244
  0
LINE
  8
0
 10
-43.9427
 20
-65.9244
 11
-43.6003
 21
-64.9731
  0
LINE
  8
0
 10
-43.6003
 20
-64.9731
 11
-43.3182
 21
-64.0022
  0
LINE
  8
0
 10
-43.3182
 20
-64.0022
 11
-43.0977
 21
-63.0156
  0
LINE
  8
0
 10
-43.0977
 20
-63.0156
 11
-42.9395
 21
-62.0171
  0
LINE
  8
0
 10
-42.9395
 20
-62.0171
 11
-42.8444
 21
-61.0104
  0
LINE
  8
0
 10
-42.8444
 20
-61.0104
 11
-42.8125
 21
-60
  0
LINE
  8
0
 10
-42.8125
 20
-60
 11
-42.8125
 21
-45
  0
LINE
  8
0
 10
-42.8125
 20
-45
 11
-15
 21
-45
  0
LINE
  8
0
 10
-15
 20
-45
 11
-15
 21
-60
  0
LINE
  8
0
 10
-15
 20
-60
 11
-14.9683
 21
-61.0104
  0
LINE
  8
0
 10
-14.9683
 20
-61.0104
 11
-14.8732
 21
-62.0171
  0
LINE
  8
0
 10
-14.8732
 20
-62.0171
 11
-14.715
 21
-63.0156
  0
LINE
  8
0
 10
-14.715
 20
-63.0156
 11
-14.4945
 21
-64.0022
  0
LINE
  8
0
 10
-14.4945
 20
-64.0022
 11
-14.2123
 21
-64.9731
  0
LINE
  8
0
 10
-14.2123
 20
-64.9731
 11
-13.8699
 21
-65.9244
  0
LINE
  8
0
 10
-13.8699
 20
-65.9244
 11
-13.4683
 21
-66.8523
  0
LINE
  8
0
 10
-13.4683
 20
-66.8523
 11
-13.0093
 21
-67.7531
  0
LINE
  8
0
 10
-13.0093
 20
-67.7531
 11
-12.4947
 21
-68.6234
  0
LINE
  8
0
 10
-12.4947
 20
-68.6234
 11
-11.9264
 21
-69.4595
  0
LINE
  8
0
 10
-11.9264
 20
-69.4595
 11
-11.3068
 21
-70.2585
  0
LINE
  8
0
 10
-11.3068
 20
-70.2585
 11
-10.6381
 21
-71.0168
  0
LINE
  8
0
 10
-10.6381
 20
-71.0168
 11
-9.92325
 21
-71.7317
  0
LINE
  8
0
 10
-9.92325
 20
-71.7317
 11
-9.16489
 21
-72.4004
  0
LINE
  8
0
 10
-9.16489
 20
-72.4004
 11
-8.36594
 21
-73.02
  0
LINE
  8
0
 10
-8.36594
 20
-73.02
 11
-7.52975
 21
-73.5883
  0
LINE
  8
0
 10
-7.52975
 20
-73.5883
 11
-6.65955
 21
-74.1029
  0
LINE
  8
0
 10
-6.65955
 20
-74.1029
 11
-5.75867
 21
-74.5619
  0
LINE
  8
0
 10
-5.75867
 20
-74.5619
 11
-4.83078
 21
-74.9635
  0
LINE
  8
0
 10
-4.83078
 20
-74.9635
 11
-3.87955
 21
-75.3059
  0
LINE
  8
0
 10
-3.87955
 20
-75.3059
 11
-2.90863
 21
-75.5881
  0
LINE
  8
0
 10
-2.90863
 20
-75.5881
 11
-1.922
 21
-75.8086
  0
LINE
  8
0
 10
-1.922
 20
-75.8086
 11
-0.923462
 21
-75.9668
  0
LINE
  8
0
 10
-0.923462
 20
-75.9668
 11
0.0831604
 21
-76.0619
  0
LINE
  8
0
 10
0.0831604
 20
-76.0619
 11
1.09375
 21
-76.0938
  0
LINE
  8
0
 10
1.09375
 20
-76.0938
 11
2.10419
 21
-76.0619
  0
LINE
  8
0
 10
2.10419
 20
-76.0619
 11
3.11081
 21
-75.9668
  0
LINE
  8
0
 10
3.11081
 20
-75.9668
 11
4.10934
 21
-75.8086
  0
LINE
  8
0
 10
4.10934
 20
-75.8086
 11
5.09598
 21
-75.5881
  0
LINE
  8
0
 10
5.09598
 20
-75.5881
 11
6.06689
 21
-75.3059
  0
LINE
  8
0
 10
6.06689
 20
-75.3059
 11
7.01813
 21
-74.9635
  0
LINE
  8
0
 10
7.01813
 20
-74.9635
 11
7.94601
 21
-74.5619
  0
LINE
  8
0
 10
7.94601
 20
-74.5619
 11
8.84689
 21
-74.1029
  0
LINE
  8
0
 10
8.84689
 20
-74.1029
 11
9.7171
 21
-73.5883
  0
LINE
  8
0
 10
9.7171
 20
-73.5883
 11
10.5533
 21
-73.02
  0
LINE
  8
0
 10
10.5533
 20
-73.02
 11
11.3522
 21
-72.4004
  0
LINE
  8
0
 10
11.3522
 20
-72.4004
 11
12.1106
 21
-71.7317
  0
LINE
  8
0
 10
12.1106
 20
-71.7317
 11
12.8255
 21
-71.0168
  0
LINE
  8
0
 10
12.8255
 20
-71.0168
 11
13.4941
 21
-70.2585
  0
LINE
  8
0
 10
13.4941
 20
-70.2585
 11
14.1138
 21
-69.4595
  0
LINE
  8
0
 10
14.1138
 20
-69.4595
 11
14.682
 21
-68.6234
  0
LINE
  8
0
 10
14.682
 20
-68.6234
 11
15.1967
 21
-67.7531
  0
LINE
  8
0
 10
15.1967
 20
-67.7531
 11
15.6557
 21
-66.8523
  0
LINE
  8
0
 10
15.6557
 20
-66.8523
 11
16.0573
 21
-65.9244
  0
LINE
  8
0
 10
16.0573
 20
-65.9244
 11
16.3997
 21
-64.9731
  0
LINE
  8
0
 10
16.3997
 20
-64.9731
 11
16.6818
 21
-64.0022
  0
LINE
  8
0
 10
16.6818
 20
-64.0022
 11
16.9023
 21
-63.0156
  0
LINE
  8
0
 10
16.9023
 20
-63.0156
 11
17.0605
 21
-62.0171
  0
LINE
  8
0
 10
17.0605
 20
-62.0171
 11
17.1556
 21
-61.0104
  0
LINE
  8
0
 10
17.1556
 20
-61.0104
 11
17.1875
 21
-60
  0
LINE
  8
0
 10
17.1875
 20
-60
 11
17.1875
 21
-45
  0
LINE
  8
0
 10
17.1875
 20
-45
 11
45
 21
-45
  0
LINE
  8
0
 10
45
 20
-45
 11
45
 21
-60
  0
LINE
  8
0
 10
45
 20
-60
 11
45.0317
 21
-61.0104
  0
LINE
  8
0
 10
45.0317
 20
-61.0104
 11
45.1268
 21
-62.0171
  0
LINE
  8
0
 10
45.1268
 20
-62.0171
 11
45.285
 21
-63.0156
  0
LINE
  8
0
 10
45.285
 20
-63.0156
 11
45.5055
 21
-64.0022
  0
LINE
  8
0
 10
45.5055
 20
-64.0022
 11
45.7877
 21
-64.9731
  0
LINE
  8
0
 10
45.7877
 20
-64.9731
 11
46.1301
 21
-65.9244
  0
LINE
  8
0
 10
46.1301
 20
-65.9244
 11
46.5317
 21
-66.8523
  0
LINE
  8
0
 10
46.5317
 20
-66.8523
 11
46.9907
 21
-67.7531
  0
LINE
  8
0
 10
46.9907
 20
-67.7531
 11
47.5053
 21
-68.6234
  0
LINE
  8
0
 10
47.5053
 20
-68.6234
 11
48.0736
 21
-69.4595
  0
LINE
  8
0
 10
48.0736
 20
-69.4595
 11
48.6932
 21
-70.2585
  0
LINE
  8
0
 10
48.6932
 20
-70.2585
 11
49.3619
 21
-71.0168
  0
LINE
  8
0
 10
49.3619
 20
-71.0168
 11
50.0768
 21
-71.7317
  0
LINE
  8
0
 10
50.0768
 20
-71.7317
 11
50.8351
 21
-72.4004
  0
LINE
  8
0
 10
50.8351
 20
-72.4004
 11
51.6341
 21
-73.02
  0
LINE
  8
0
 10
51.6341
 20
-73.02
 11
52.4702
 21
-73.5883
  0
LINE
  8
0
 10
52.4702
 20
-73.5883
 11
53.3405
 21
-74.1029
  0
LINE
  8
0
 10
53.3405
 20
-74.1029
 11
54.2413
 21
-74.5619
  0
LINE
  8
0
 10
54.2413
 20
-74.5619
 11
55.1692
 21
-74.9635
  0
LINE
  8
0
 10
55.1692
 20
-74.9635
 11
56.1205
 21
-75.3059
  0
LINE
  8
0
 10
56.1205
 20
-75.3059
 11
57.0914
 21
-75.5881
  0
LINE
  8
0
 10
57.0914
 20
-75.5881
 11
58.078
 21
-75.8086
  0
LINE
  8
0
 10
58.078
 20
-75.8086
 11
59.0765
 21
-75.9668
  0
LINE
  8
0
 10
59.0765
 20
-75.9668
 11
60.0832
 21
-76.0619
  0
LINE
  8
0
 10
60.0832
 20
-76.0619
 11
61.0938
 21
-76.0938
  0
LINE
  8
0
 10
61.0938
 20
-76.0938
 11
62.1042
 21
-76.0619
  0
LINE
  8
0
 10
-132
 20
-40
 11
-132
 21
-30
  0
LINE
  8
0
 10
-132
 20
-30
 11
-120
 21
-30
  0
LINE
  8
0
 10
-120
 20
-30
 11
-118.116
 21
-29.9408
  0
LINE
  8
0
 10
-118.116
 20
-29.9408
 11
-116.24
 21
-29.7633
  0
LINE
  8
0
 10
-116.24
 20
-29.7633
 11
-114.379
 21
-29.4685
  0
LINE
  8
0
 10
-114.379
 20
-29.4685
 11
-112.539
 21
-29.0575
  0
LINE
  8
0
 10
-112.539
 20
-29.0575
 11
-110.73
 21
-28.5316
  0
LINE
  8
0
 10
-110.73
 20
-28.5316
 11
-108.956
 21
-27.8932
  0
LINE
  8
0
 10
-108.956
 20
-27.8932
 11
-107.227
 21
-27.1448
  0
LINE
  8
0
 10
-107.227
 20
-27.1448
 11
-105.547
 21
-26.2891
  0
LINE
  8
0
 10
-105.547
 20
-26.2891
 11
-103.925
 21
-25.3297
  0
LINE
  8
0
 10
-103.925
 20
-25.3297
 11
-102.366
 21
-24.2705
  0
LINE
  8
0
 10
-102.366
 20
-24.2705
 11
-100.877
 21
-23.1154
  0
LINE
  8
0
 10
-100.877
 20
-23.1154
 11
-99.4637
 21
-21.869
  0
LINE
  8
0
 10
-99.4637
 20
-21.869
 11
-98.131
 21
-20.5363
  0
LINE
  8
0
 10
-98.131
 20
-20.5363
 11
-96.8846
 21
-19.1226
  0
LINE
  8
0
 10
-96.8846
 20
-19.1226
 11
-95.7295
 21
-17.6335
  0
LINE
  8
0
 10
-95.7295
 20
-17.6335
 11
-94.6703
 21
-16.0747
  0
LINE
  8
0
 10
-94.6703
 20
-16.0747
 11
-93.7109
 21
-14.4525
  0
LINE
  8
0
 10
-93.7109
 20
-14.4525
 11
-92.8552
 21
-12.7733
  0
LINE
  8
0
 10
-92.8552
 20
-12.7733
 11
-92.1068
 21
-11.0437
  0
LINE
  8
0
 10
-92.1068
 20
-11.0437
 11
-91.4684
 21
-9.27048
  0
LINE
  8
0
 10
-91.4684
 20
-9.27048
 11
-90.9425
 21
-7.46063
  0
LINE
  8
0
 10
-90.9425
 20
-7.46063
 11
-90.5315
 21
-5.62134
  0
LINE
  8
0
 10
-90.5315
 20
-5.62134
 11
-90.2367
 21
-3.75992
  0
LINE
  8
0
 10
-90.2367
 20
-3.75992
 11
-90.0592
 21
-1.8837
  0
LINE
  8
0
 10
-90.0592
 20
-1.8837
 11
-90
 21
0
  0
LINE
  8
0
 10
-90
 20
0
 11
-90.0592
 21
1.8837
  0
LINE
  8
0
 10
-90.0592
 20
1.8837
 11
-90.2367
 21
3.75992
  0
LINE
  8
0
 10
-90.2367
 20
3.75992
 11
-90.5315
 21
5.62134
  0
LINE
  8
0
 10
-90.5315
 20
5.62134
 11
-90.9425
 21
7.46063
  0
LINE
  8
0
 10
-90.9425
 20
7.46063
 11
-91.4684
 21
9.27048
  0
LINE
  8
0
 10
-91.4684
 20
9.27048
 11
-92.1068
 21
11.0437
  0
LINE
  8
0
 10
-92.1068
 20
11.0437
 11
-92.8552
 21
12.7733
  0
LINE
  8
0
 10
-92.8552
 20
12.7733
 11
-93.7109
 21
14.4525
  0
LINE
  8
0
 10
-93.7109
 20
14.4525
 11
-94.6703
 21
16.0747
  0
LINE
  8
0
 10
-94.6703
 20
16.0747
 11
-95.7295
 21
17.6335
  0
LINE
  8
0
 10
-95.7295
 20
17.6335
 11
-96.8846
 21
19.1226
  0
LINE
  8
0
 10
-96.8846
 20
19.1226
 11
-98.131
 21
20.5363
  0
LINE
  8
0
 10
-98.131
 20
20.5363
 11
-99.4637
 21
21.869
  0
LINE
  8
0
 10
-99.4637
 20
21.869
 11
-100.877
 21
23.1154
  0
LINE
  8
0
 10
-100.877
 20
23.1154
 11
-102.366
 21
24.2705
  0
LINE
  8
0
 10
-102.366
 20
24.2705
 11
-103.925
 21
25.3297
  0
LINE
  8
0
 10
-103.925
 20
25.3297
 11
-105.547
 21
26.2891
  0
LINE
  8
0
 10
-105.547
 20
26.2891
 11
-107.227
 21
27.1448
  0
LINE
  8
0
 10
-107.227
 20
27.1448
 11
-108.956
 21
27.8932
  0
LINE
  8
0
 10
-108.956
 20
27.8932
 11
-110.73
 21
28.5316
  0
LINE
  8
0
 10
-110.73
 20
28.5316
 11
-112.539
 21
29.0575
  0
LINE
  8
0
 10
-112.539
 20
29.0575
 11
-114.379
 21
29.4685
  0
LINE
  8
0
 10
-114.379
 20
29.4685
 11
-116.24
 21
29.7633
  0
LINE
  8
0
 10
-116.24
 20
29.7633
 11
-118.116
 21
29.9408
  0
LINE
  8
0
 10
-118.116
 20
29.9408
 11
-120
 21
30
  0
LINE
  8
0
 10
-120
 20
30
 11
-132
 21
30
  0
LINE
  8
0
 10
-132
 20
30
 11
-132
 21
40
  0
LINE
  8
0
 10
-132
 20
40
 11
-118
 21
40
  0
LINE
  8
0
 10
-118
 20
40
 11
-118
 21
39.9371
  0
LINE
  8
0
 10
-118
 20
39.9371
 11
-117.488
 21
39.921
  0
LINE
  8
0
 10
-117.488
 20
39.921
 11
-114.987
 21
39.6844
  0
LINE
  8
0
 10
-114.987
 20
39.6844
 11
-112.505
 21
39.2914
  0
LINE
  8
0
 10
-112.505
 20
39.2914
 11
-110.052
 21
38.7433
  0
LINE
  8
0
 10
-110.052
 20
38.7433
 11
-107.639
 21
38.0421
  0
LINE
  8
0
 10
-107.639
 20
38.0421
 11
-105.275
 21
37.191
  0
LINE
  8
0
 10
-105.275
 20
37.191
 11
-102.969
 21
36.1929
  0
LINE
  8
0
 10
-102.969
 20
36.1929
 11
-100.73
 21
35.0522
  0
LINE
  8
0
 10
-100.73
 20
35.0522
 11
-98.567
 21
33.773
  0
LINE
  8
0
 10
-98.567
 20
33.773
 11
-96.4886
 21
32.3605
  0
LINE
  8
0
 10
-96.4886
 20
32.3605
 11
-94.5032
 21
30.8205
  0
LINE
  8
0
 10
-94.5032
 20
30.8205
 11
-92.6183
 21
29.1586
  0
LINE
  8
0
 10
-92.6183
 20
29.1586
 11
-90.8414
 21
27.3817
  0
LINE
  8
0
 10
-90.8414
 20
27.3817
 11
-89.1795
 21
25.4968
  0
LINE
  8
0
 10
-89.1795
 20
25.4968
 11
-87.6395
 21
23.5114
  0
LINE
  8
0
 10
-87.6395
 20
23.5114
 11
-86.227
 21
21.433
  0
LINE
  8
0
 10
-86.227
 20
21.433
 11
-84.9478
 21
19.27
  0
LINE
  8
0
 10
-84.9478
 20
19.27
 11
-83.8071
 21
17.0311
  0
LINE
  8
0
 10
-83.8071
 20
17.0311
 11
-82.809
 21
14.7249
  0
LINE
  8
0
 10
-82.809
 20
14.7249
 11
-81.9579
 21
12.3605
  0
LINE
  8
0
 10
-81.9579
 20
12.3605
 11
-81.2567
 21
9.94751
  0
LINE
  8
0
 10
-81.2567
 20
9.94751
 11
-80.7086
 21
7.49512
  0
LINE
  8
0
 10
-80.7086
 20
7.49512
 11
-80.3156
 21
5.01328
  0
LINE
  8
0
 10
-80.3156
 20
5.01328
 11
-80.079
 21
2.5116
  0
LINE
  8
0
 10
-80.079
 20
2.5116
 11
-80
 21
0
  0
LINE
  8
0
 10
-80
 20
0
 11
-80.079
 21
-2.5116
  0
LINE
  8
0
 10
-80.079
 20
-2.5116
 11
-80.3156
 21
-5.01328
  0
LINE
  8
0
 10
-80.3156
 20
-5.01328
 11
-80.7086
 21
-7.49512
  0
LINE
  8
0
 10
-80.7086
 20
-7.49512
 11
-81.2567
 21
-9.94751
  0
LINE
  8
0
 10
-81.2567
 20
-9.94751
 11
-81.9579
 21
-12.3605
  0
LINE
  8
0
 10
-81.9579
 20
-12.3605
 11
-82.809
 21
-14.7249
  0
LINE
  8
0
 10
-82.809
 20
-14.7249
 11
-83.8071
 21
-17.0311
  0
LINE
  8
0
 10
-83.8071
 20
-17.0311
 11
-84.9478
 21
-19.27
  0
LINE
  8
0
 10
-84.9478
 20
-19.27
 11
-86.227
 21
-21.433
  0
LINE
  8
0
 10
-86.227
 20
-21.433
 11
-87.6395
 21
-23.5114
  0
LINE
  8
0
 10
-87.6395
 20
-23.5114
 11
-89.1795
 21
-25.4968
  0
LINE
  8
0
 10
-89.1795
 20
-25.4968
 11
-90.8414
 21
-27.3817
  0
LINE
  8
0
 10
-90.8414
 20
-27.3817
 11
-92.6183
 21
-29.1586
  0
LINE
  8
0
 10
-92.6183
 20
-29.1586
 11
-94.5032
 21
-30.8205
  0
LINE
  8
0
 10
-94.5032
 20
-30.8205
 11
-96.4886
 21
-32.3605
  0
LINE
  8
0
 10
-96.4886
 20
-32.3605
 11
-98.567
 21
-33.773
  0
LINE
  8
0
 10
-98.567
 20
-33.773
 11
-100.73
 21
-35.0522
  0
LINE
  8
0
 10
-100.73
 20
-35.0522
 11
-102.969
 21
-36.1929
  0
LINE
  8
0
 10
-102.969
 20
-36.1929
 11
-105.275
 21
-37.191
  0
LINE
  8
0
 10
-105.275
 20
-37.191
 11
-107.639
 21
-38.0421
  0
LINE
  8
0
 10
-107.639
 20
-38.0421
 11
-110.052
 21
-38.7433
  0
LINE
  8
0
 10
-110.052
 20
-38.7433
 11
-112.505
 21
-39.2914
  0
LINE
  8
0
 10
-112.505
 20
-39.2914
 11
-114.987
 21
-39.6844
  0
LINE
  8
0
 10
-114.987
 20
-39.6844
 11
-117.488
 21
-39.921
  0
LINE
  8
0
 10
-117.488
 20
-39.921
 11
-118
 21
-39.9371
  0
LINE
  8
0
 10
-118
 20
-39.9371
 11
-118
 21
-40
  0
LINE
  8
0
 10
-118
 20
-40
 11
-132
 21
-40
  0
LINE
  8
0
 10
118
 20
-40
 11
118
 21
-39.9371
  0
LINE
  8
0
 10
118
 20
-39.9371
 11
117.488
 21
-39.921
  0
LINE
  8
0
 10
117.488
 20
-39.921
 11
114.987
 21
-39.6844
  0
LINE
  8
0
 10
114.987
 20
-39.6844
 11
112.505
 21
-39.2914
  0
LINE
  8
0
 10
112.505
 20
-39.2914
 11
110.052
 21
-38.7433
  0
LINE
  8
0
 10
110.052
 20
-38.7433
 11
107.639
 21
-38.0421
  0
LINE
  8
0
 10
107.639
 20
-38.0421
 11
105.275
 21
-37.191
  0
LINE
  8
0
 10
105.275
 20
-37.191
 11
102.969
 21
-36.1929
  0
LINE
  8
0
 10
102.969
 20
-36.1929
 11
100.73
 21
-35.0522
  0
LINE
  8
0
 10
100.73
 20
-35.0522
 11
98.567
 21
-33.773
  0
LINE
  8
0
 10
98.567
 20
-33.773
 11
96.4886
 21
-32.3605
  0
LINE
  8
0
 10
96.4886
 20
-32.3605
 11
94.5032
 21
-30.8205
  0
LINE
  8
0
 10
94.5032
 20
-30.8205
 11
92.6183
 21
-29.1586
  0
LINE
  8
0
 10
92.6183
 20
-29.1586
 11
90.8414
 21
-27.3817
  0
LINE
  8
0
 10
90.8414
 20
-27.3817
 11
89.1795
 21
-25.4968
  0
LINE
  8
0
 10
89.1795
 20
-25.4968
 11
87.6395
 21
-23.5114
  0
LINE
  8
0
 10
87.6395
 20
-23.5114
 11
86.227
 21
-21.433
  0
LINE
  8
0
 10
86.227
 20
-21.433
 11
84.9478
 21
-19.27
  0
LINE
  8
0
 10
84.9478
 20
-19.27
 11
83.8071
 21
-17.0311
  0
LINE
  8
0
 10
83.8071
 20
-17.0311
 11
82.809
 21
-14.7249
  0
LINE
  8
0
 10
82.809
 20
-14.7249
 11
81.9579
 21
-12.3605
  0
LINE
  8
0
 10
81.9579
 20
-12.3605
 11
81.2567
 21
-9.94751
  0
LINE
  8
0
 10
81.2567
 20
-9.94751
 11
80.7086
 21
-7.49512
  0
LINE
  8
0
 10
80.7086
 20
-7.49512
 11
80.3156
 21
-5.01328
  0
LINE
  8
0
 10
80.3156
 20
-5.01328
 11
80.079
 21
-2.5116
  0
LINE
  8
0
 10
80.079
 20
-2.5116
 11
80
 21
0
  0
LINE
  8
0
 10
80
 20
0
 11
80.079
 21
2.5116
  0
LINE
  8
0
 10
80.079
 20
2.5116
 11
80.3156
 21
5.01328
  0
LINE
  8
0
 10
80.3156
 20
5.01328
 11
80.7086
 21
7.49512
  0
LINE
  8
0
 10
80.7086
 20
7.49512
 11
81.2567
 21
9.94751
  0
LINE
  8
0
 10
81.2567
 20
9.94751
 11
81.9579
 21
12.3605
  0
LINE
  8
0
 10
81.9579
 20
12.3605
 11
82.809
 21
14.7249
  0
LINE
  8
0
 10
82.809
 20
14.7249
 11
83.8071
 21
17.0311
  0
LINE
  8
0
 10
83.8071
 20
17.0311
 11
84.9478
 21
19.27
  0
LINE
  8
0
 10
84.9478
 20
19.27
 11
86.227
 21
21.433
  0
LINE
  8
0
 10
86.227
 20
21.433
 11
87.6395
 21
23.5114
  0
LINE
  8
0
 10
87.6395
 20
23.5114
 11
89.1795
 21
25.4968
  0
LINE
  8
0
 10
89.1795
 20
25.4968
 11
90.8414
 21
27.3817
  0
LINE
  8
0
 10
90.8414
 20
27.3817
 11
92.6183
 21
29.1586
  0
LINE
  8
0
 10
92.6183
 20
29.1586
 11
94.5032
 21
30.8205
  0
LINE
  8
0
 10
94.5032
 20
30.8205
 11
96.4886
 21
32.3605
  0
LINE
  8
0
 10
96.4886
 20
32.3605
 11
98.567
 21
33.773
  0
LINE
  8
0
 10
98.567
 20
33.773
 11
100.73
 21
35.0522
  0
LINE
  8
0
 10
100.73
 20
35.0522
 11
102.969
 21
36.1929
  0
LINE
  8
0
 10
102.969
 20
36.1929
 11
105.275
 21
37.191
  0
LINE
  8
0
 10
105.275
 20
37.191
 11
107.639
 21
38.0421
  0
LINE
  8
0
 10
107.639
 20
38.0421
 11
110.052
 21
38.7433
  0
LINE
  8
0
 10
110.052
 20
38.7433
 11
112.505
 21
39.2914
  0
LINE
  8
0
 10
112.505
 20
39.2914
 11
114.987
 21
39.6844
  0
LINE
  8
0
 10
114.987
 20
39.6844
 11
117.488
 21
39.921
  0
LINE
  8
0
 10
117.488
 20
39.921
 11
118
 21
39.9371
  0
LINE
  8
0
 10
118
 20
39.9371
 11
118
 21
40
  0
LINE
  8
0
 10
118
 20
40
 11
132
 21
40
  0
LINE
  8
0
 10
132
 20
40
 11
132
 21
30
  0
LINE
  8
0
 10
132
 20
30
 11
120
 21
30
  0
LINE
  8
0
 10
120
 20
30
 11
118.116
 21
29.9408
  0
LINE
  8
0
 10
118.116
 20
29.9408
 11
116.24
 21
29.7633
  0
LINE
  8
0
 10
116.24
 20
29.7633
 11
114.379
 21
29.4685
  0
LINE
  8
0
 10
114.379
 20
29.4685
 11
112.539
 21
29.0575
  0
LINE
  8
0
 10
112.539
 20
29.0575
 11
110.73
 21
28.5316
  0
LINE
  8
0
 10
110.73
 20
28.5316
 11
108.956
 21
27.8932
  0
LINE
  8
0
 10
108.956
 20
27.8932
 11
107.227
 21
27.1448
  0
LINE
  8
0
 10
107.227
 20
27.1448
 11
105.547
 21
26.2891
  0
LINE
  8
0
 10
105.547
 20
26.2891
 11
103.925
 21
25.3297
  0
LINE
  8
0
 10
103.925
 20
25.3297
 11
102.366
 21
24.2705
  0
LINE
  8
0
 10
102.366
 20
24.2705
 11
100.877
 21
23.1154
  0
LINE
  8
0
 10
100.877
 20
23.1154
 11
99.4637
 21
21.869
  0
LINE
  8
0
 10
99.4637
 20
21.869
 11
98.131
 21
20.5363
  0
LINE
  8
0
 10
98.131
 20
20.5363
 11
96.8846
 21
19.1226
  0
LINE
  8
0
 10
96.8846
 20
19.1226
 11
95.7295
 21
17.6335
  0
LINE
  8
0
 10
95.7295
 20
17.6335
 11
94.6703
 21
16.0747
  0
LINE
  8
0
 10
94.6703
 20
16.0747
 11
93.7109
 21
14.4525
  0
LINE
  8
0
 10
93.7109
 20
14.4525
 11
92.8552
 21
12.7733
  0
LINE
  8
0
 10
92.8552
 20
12.7733
 11
92.1068
 21
11.0437
  0
LINE
  8
0
 10
92.1068
 20
11.0437
 11
91.4684
 21
9.27048
  0
LINE
  8
0
 10
91.4684
 20
9.27048
 11
90.9425
 21
7.46063
  0
LINE
  8
0
 10
90.9425
 20
7.46063
 11
90.5315
 21
5.62134
  0
LINE
  8
0
 10
90.5315
 20
5.62134
 11
90.2367
 21
3.75992
  0
LINE
  8
0
 10
90.2367
 20
3.75992
 11
90.0592
 21
1.8837
  0
LINE
  8
0
 10
90.0592
 20
1.8837
 11
90
 21
0
  0
LINE
  8
0
 10
90
 20
0
 11
90.0592
 21
-1.8837
  0
LINE
  8
0
 10
90.0592
 20
-1.8837
 11
90.2367
 21
-3.75992
  0
LINE
  8
0
 10
90.2367
 20
-3.75992
 11
90.5315
 21
-5.62134
  0
LINE
  8
0
 10
90.5315
 20
-5.62134
 11
90.9425
 21
-7.46063
  0
LINE
  8
0
 10
90.9425
 20
-7.46063
 11
91.4684
 21
-9.27048
  0
LINE
  8
0
 10
91.4684
 20
-9.27048
 11
92.1068
 21
-11.0437
  0
LINE
  8
0
 10
92.1068
 20
-11.0437
 11
92.8552
 21
-12.7733
  0
LINE
  8
0
 10
92.8552
 20
-12.7733
 11
93.7109
 21
-14.4525
  0
LINE
  8
0
 10
93.7109
 20
-14.4525
 11
94.6703
 21
-16.0747
  0
LINE
  8
0
 10
94.6703
 20
-16.0747
 11
95.7295
 21
-17.6335
  0
LINE
  8
0
 10
95.7295
 20
-17.6335
 11
96.8846
 21
-19.1226
  0
LINE
  8
0
 10
96.8846
 20
-19.1226
 11
98.131
 21
-20.5363
  0
LINE
  8
0
 10
98.131
 20
-20.5363
 11
99.4637
 21
-21.869
  0
LINE
  8
0
 10
99.4637
 20
-21.869
 11
100.877
 21
-23.1154
  0
LINE
  8
0
 10
100.877
 20
-23.1154
 11
102.366
 21
-24.2705
  0
LINE
  8
0
 10
102.366
 20
-24.2705
 11
103.925
 21
-25.3297
  0
LINE
  8
0
 10
103.925
 20
-25.3297
 11
105.547
 21
-26.2891
  0
LINE
  8
0
 10
105.547
 20
-26.2891
 11
107.227
 21
-27.1448
  0
LINE
  8
0
 10
107.227
 20
-27.1448
 11
108.956
 21
-27.8932
  0
LINE
  8
0
 10
108.956
 20
-27.8932
 11
110.73
 21
-28.5316
  0
LINE
  8
0
 10
110.73
 20
-28.5316
 11
112.539
 21
-29.0575
  0
LINE
  8
0
 10
112.539
 20
-29.0575
 11
114.379
 21
-29.4685
  0
LINE
  8
0
 10
114.379
 20
-29.4685
 11
116.24
 21
-29.7633
  0
LINE
  8
0
 10
116.24
 20
-29.7633
 11
118.116
 21
-29.9408
  0
LINE
  8
0
 10
118.116
 20
-29.9408
 11
120
 21
-30
  0
LINE
  8
0
 10
120
 20
-30
 11
132
 21
-30
  0
LINE
  8
0
 10
132
 20
-30
 11
132
 21
-40
  0
LINE
  8
0
 10
132
 20
-40
 11
118
 21
-40
  0
LINE
  8
0
 10
-33.9999
 20
-37.5
 11
-33.9999
 21
30
  0
LINE
  8
0
 10
-33.9999
 20
30
 11
-75
 21
30
  0
LINE
  8
0
 10
-75
 20
30
 11
-75
 21
40
  0
LINE
  8
0
 10
-75
 20
40
 11
75
 21
40
  0
LINE
  8
0
 10
75
 20
40
 11
75
 21
30
  0
LINE
  8
0
 10
75
 20
30
 11
-23.9999
 21
30
  0
LINE
  8
0
 10
-23.9999
 20
30
 11
-23.9999
 21
-37.5
  0
LINE
  8
0
 10
-23.9999
 20
-37.5
 11
-33.9999
 21
-37.5
  0
LINE
  8
0
 10
-63.9999
 20
7.5
 11
-63.9999
 21
17.5
  0
LINE
  8
0
 10
-63.9999
 20
17.5
 11
-53.9999
 21
17.5
  0
LINE
  8
0
 10
-53.9999
 20
17.5
 11
-53.9999
 21
7.5
  0
LINE
  8
0
 10
-53.9999
 20
7.5
 11
-63.9999
 21
7.5
  0
LINE
  8
0
 10
-8.94989
 20
-37.5
 11
-8.94989
 21
-27.9999
  0
LINE
  8
0
 10
-8.94989
 20
-27.9999
 11
-8.88702
 21
-27.9999
  0
LINE
  8
0
 10
-8.88702
 20
-27.9999
 11
-8.87085
 21
-27.4884
  0
LINE
  8
0
 10
-8.87085
 20
-27.4884
 11
-8.63434
 21
-24.9867
  0
LINE
  8
0
 10
-8.63434
 20
-24.9867
 11
-8.24127
 21
-22.5049
  0
LINE
  8
0
 10
-8.24127
 20
-22.5049
 11
-7.69318
 21
-20.0525
  0
LINE
  8
0
 10
-7.69318
 20
-20.0525
 11
-6.99203
 21
-17.6393
  0
LINE
  8
0
 10
-6.99203
 20
-17.6393
 11
-6.1409
 21
-15.275
  0
LINE
  8
0
 10
-6.1409
 20
-15.275
 11
-5.14282
 21
-12.9688
  0
LINE
  8
0
 10
-5.14282
 20
-12.9688
 11
-4.00208
 21
-10.7298
  0
LINE
  8
0
 10
-4.00208
 20
-10.7298
 11
-2.72293
 21
-8.56705
  0
LINE
  8
0
 10
-2.72293
 20
-8.56705
 11
-1.31042
 21
-6.48865
  0
LINE
  8
0
 10
-1.31042
 20
-6.48865
 11
0.229492
 21
-4.50317
  0
LINE
  8
0
 10
0.229492
 20
-4.50317
 11
1.89133
 21
-2.61826
  0
LINE
  8
0
 10
1.89133
 20
-2.61826
 11
3.66821
 21
-0.84137
  0
LINE
  8
0
 10
3.66821
 20
-0.84137
 11
5.55313
 21
0.820465
  0
LINE
  8
0
 10
5.55313
 20
0.820465
 11
7.5386
 21
2.36053
  0
LINE
  8
0
 10
7.5386
 20
2.36053
 11
9.617
 21
3.77304
  0
LINE
  8
0
 10
9.617
 20
3.77304
 11
11.7799
 21
5.05219
  0
LINE
  8
0
 10
11.7799
 20
5.05219
 11
14.0189
 21
6.19293
  0
LINE
  8
0
 10
14.0189
 20
6.19293
 11
16.3251
 21
7.19101
  0
LINE
  8
0
 10
16.3251
 20
7.19101
 11
18.6894
 21
8.04214
  0
LINE
  8
0
 10
18.6894
 20
8.04214
 11
21.1024
 21
8.74329
  0
LINE
  8
0
 10
21.1024
 20
8.74329
 11
23.5548
 21
9.29138
  0
LINE
  8
0
 10
23.5548
 20
9.29138
 11
26.0367
 21
9.68445
  0
LINE
  8
0
 10
26.0367
 20
9.68445
 11
28.5384
 21
9.92096
  0
LINE
  8
0
 10
28.5384
 20
9.92096
 11
31.05
 21
10
  0
LINE
  8
0
 10
31.05
 20
10
 11
33.5616
 21
9.92096
  0
LINE
  8
0
 10
33.5616
 20
9.92096
 11
36.0632
 21
9.68445
  0
LINE
  8
0
 10
36.0632
 20
9.68445
 11
38.5451
 21
9.29138
  0
LINE
  8
0
 10
38.5451
 20
9.29138
 11
40.9975
 21
8.74329
  0
LINE
  8
0
 10
40.9975
 20
8.74329
 11
43.4105
 21
8.04214
  0
LINE
  8
0
 10
43.4105
 20
8.04214
 11
45.7748
 21
7.19101
  0
LINE
  8
0
 10
45.7748
 20
7.19101
 11
48.0811
 21
6.19293
  0
LINE
  8
0
 10
48.0811
 20
6.19293
 11
50.32
 21
5.05219
  0
LINE
  8
0
 10
50.32
 20
5.05219
 11
52.4829
 21
3.77304
  0
LINE
  8
0
 10
52.4829
 20
3.77304
 11
54.5613
 21
2.36053
  0
LINE
  8
0
 10
54.5613
 20
2.36053
 11
56.5468
 21
0.820465
  0
LINE
  8
0
 10
56.5468
 20
0.820465
 11
58.4317
 21
-0.84137
  0
LINE
  8
0
 10
58.4317
 20
-0.84137
 11
60.2086
 21
-2.61826
  0
LINE
  8
0
 10
60.2086
 20
-2.61826
 11
61.8704
 21
-4.50317
  0
LINE
  8
0
 10
61.8704
 20
-4.50317
 11
63.4105
 21
-6.48865
  0
LINE
  8
0
 10
63.4105
 20
-6.48865
 11
64.823
 21
-8.56705
  0
LINE
  8
0
 10
64.823
 20
-8.56705
 11
66.1021
 21
-10.73
  0
LINE
  8
0
 10
66.1021
 20
-10.73
 11
67.2429
 21
-12.9689
  0
LINE
  8
0
 10
67.2429
 20
-12.9689
 11
68.241
 21
-15.2751
  0
LINE
  8
0
 10
68.241
 20
-15.2751
 11
69.0921
 21
-17.6395
  0
LINE
  8
0
 10
69.0921
 20
-17.6395
 11
69.7932
 21
-20.0525
  0
LINE
  8
0
 10
69.7932
 20
-20.0525
 11
70.3413
 21
-22.5049
  0
LINE
  8
0
 10
70.3413
 20
-22.5049
 11
70.7344
 21
-24.9867
  0
LINE
  8
0
 10
70.7344
 20
-24.9867
 11
70.9709
 21
-27.4884
  0
LINE
  8
0
 10
70.9709
 20
-27.4884
 11
70.9871
 21
-28
  0
LINE
  8
0
 10
70.9871
 20
-28
 11
71.05
 21
-28
  0
LINE
  8
0
 10
71.05
 20
-28
 11
71.05
 21
-37.5
  0
LINE
  8
0
 10
71.05
 20
-37.5
 11
61.05
 21
-37.5
  0
LINE
  8
0
 10
61.05
 20
-37.5
 11
61.05
 21
-30
  0
LINE
  8
0
 10
61.05
 20
-30
 11
60.9908
 21
-28.1163
  0
LINE
  8
0
 10
60.9908
 20
-28.1163
 11
60.8133
 21
-26.2401
  0
LINE
  8
0
 10
60.8133
 20
-26.2401
 11
60.5185
 21
-24.3787
  0
LINE
  8
0
 10
60.5185
 20
-24.3787
 11
60.1074
 21
-22.5394
  0
LINE
  8
0
 10
60.1074
 20
-22.5394
 11
59.5816
 21
-20.7295
  0
LINE
  8
0
 10
59.5816
 20
-20.7295
 11
58.9432
 21
-18.9563
  0
LINE
  8
0
 10
58.9432
 20
-18.9563
 11
58.1947
 21
-17.2267
  0
LINE
  8
0
 10
58.1947
 20
-17.2267
 11
57.339
 21
-15.5475
  0
LINE
  8
0
 10
57.339
 20
-15.5475
 11
56.3797
 21
-13.9253
  0
LINE
  8
0
 10
56.3797
 20
-13.9253
 11
55.3204
 21
-12.3665
  0
LINE
  8
0
 10
55.3204
 20
-12.3665
 11
54.1653
 21
-10.8774
  0
LINE
  8
0
 10
54.1653
 20
-10.8774
 11
52.919
 21
-9.46365
  0
LINE
  8
0
 10
52.919
 20
-9.46365
 11
51.5863
 21
-8.13095
  0
LINE
  8
0
 10
51.5863
 20
-8.13095
 11
50.1726
 21
-6.88461
  0
LINE
  8
0
 10
50.1726
 20
-6.88461
 11
48.6835
 21
-5.72952
  0
LINE
  8
0
 10
48.6835
 20
-5.72952
 11
47.1246
 21
-4.67026
  0
LINE
  8
0
 10
47.1246
 20
-4.67026
 11
45.5025
 21
-3.71094
  0
LINE
  8
0
 10
45.5025
 20
-3.71094
 11
43.8232
 21
-2.85522
  0
LINE
  8
0
 10
43.8232
 20
-2.85522
 11
42.0937
 21
-2.10678
  0
LINE
  8
0
 10
42.0937
 20
-2.10678
 11
40.3204
 21
-1.46835
  0
LINE
  8
0
 10
40.3204
 20
-1.46835
 11
38.5106
 21
-0.942535
  0
LINE
  8
0
 10
38.5106
 20
-0.942535
 11
36.6713
 21
-0.531464
  0
LINE
  8
0
 10
36.6713
 20
-0.531464
 11
34.8099
 21
-0.236664
  0
LINE
  8
0
 10
34.8099
 20
-0.236664
 11
32.9337
 21
-0.0592041
  0
LINE
  8
0
 10
32.9337
 20
-0.0592041
 11
31.05
 21
0
  0
LINE
  8
0
 10
31.05
 20
0
 11
29.1663
 21
-0.0592041
  0
LINE
  8
0
 10
29.1663
 20
-0.0592041
 11
27.29
 21
-0.236664
  0
LINE
  8
0
 10
27.29
 20
-0.236664
 11
25.4286
 21
-0.531464
  0
LINE
  8
0
 10
25.4286
 20
-0.531464
 11
23.5893
 21
-0.942535
  0
LINE
  8
0
 10
23.5893
 20
-0.942535
 11
21.7795
 21
-1.46835
  0
LINE
  8
0
 10
21.7795
 20
-1.46835
 11
20.0063
 21
-2.10678
  0
LINE
  8
0
 10
20.0063
 20
-2.10678
 11
18.2767
 21
-2.85522
  0
LINE
  8
0
 10
18.2767
 20
-2.85522
 11
16.5974
 21
-3.71094
  0
LINE
  8
0
 10
16.5974
 20
-3.71094
 11
14.9753
 21
-4.67026
  0
LINE
  8
0
 10
14.9753
 20
-4.67026
 11
13.4164
 21
-5.72952
  0
LINE
  8
0
 10
13.4164
 20
-5.72952
 11
11.9273
 21
-6.88461
  0
LINE
  8
0
 10
11.9273
 20
-6.88461
 11
10.5136
 21
-8.13095
  0
LINE
  8
0
 10
10.5136
 20
-8.13095
 11
9.18091
 21
-9.46365
  0
LINE
  8
0
 10
9.18091
 20
-9.46365
 11
7.93457
 21
-10.8772
  0
LINE
  8
0
 10
7.93457
 20
-10.8772
 11
6.77948
 21
-12.3663
  0
LINE
  8
0
 10
6.77948
 20
-12.3663
 11
5.72021
 21
-13.9252
  0
LINE
  8
0
 10
5.72021
 20
-13.9252
 11
4.76089
 21
-15.5473
  0
LINE
  8
0
 10
4.76089
 20
-15.5473
 11
3.90518
 21
-17.2266
  0
LINE
  8
0
 10
3.90518
 20
-17.2266
 11
3.15674
 21
-18.9561
  0
LINE
  8
0
 10
3.15674
 20
-18.9561
 11
2.51831
 21
-20.7295
  0
LINE
  8
0
 10
2.51831
 20
-20.7295
 11
1.99249
 21
-22.5394
  0
LINE
  8
0
 10
1.99249
 20
-22.5394
 11
1.58142
 21
-24.3787
  0
LINE
  8
0
 10
1.58142
 20
-24.3787
 11
1.28662
 21
-26.2401
  0
LINE
  8
0
 10
1.28662
 20
-26.2401
 11
1.10916
 21
-28.1163
  0
LINE
  8
0
 10
1.10916
 20
-28.1163
 11
1.04996
 21
-30
  0
LINE
  8
0
 10
1.04996
 20
-30
 11
1.04996
 21
-37.5
  0
LINE
  8
0
 10
1.04996
 20
-37.5
 11
-8.94989
 21
-37.5
  0
LINE
  8
0
 10
-63.9999
 20
-37.7499
 11
-63.9999
 21
-0.249939
  0
LINE
  8
0
 10
-63.9999
 20
-0.249939
 11
-53.9999
 21
-0.249939
  0
LINE
  8
0
 10
-53.9999
 20
-0.249939
 11
-53.9999
 21
-37.7499
  0
LINE
  8
0
 10
-53.9999
 20
-37.7499
 11
-63.9999
 21
-37.7499
  0
LINE
  8
0
 10
16.05
 20
-37.5
 11
16.05
 21
-28
  0
LINE
  8
0
 10
16.05
 20
-28
 11
16.1874
 21
-28
  0
LINE
  8
0
 10
16.1874
 20
-28
 11
16.3158
 21
-27.1893
  0
LINE
  8
0
 10
16.3158
 20
-27.1893
 11
16.5213
 21
-26.2697
  0
LINE
  8
0
 10
16.5213
 20
-26.2697
 11
16.7842
 21
-25.3648
  0
LINE
  8
0
 10
16.7842
 20
-25.3648
 11
17.1034
 21
-24.4781
  0
LINE
  8
0
 10
17.1034
 20
-24.4781
 11
17.4776
 21
-23.6134
  0
LINE
  8
0
 10
17.4776
 20
-23.6134
 11
17.9054
 21
-22.7737
  0
LINE
  8
0
 10
17.9054
 20
-22.7737
 11
18.3852
 21
-21.9627
  0
LINE
  8
0
 10
18.3852
 20
-21.9627
 11
18.9148
 21
-21.1833
  0
LINE
  8
0
 10
18.9148
 20
-21.1833
 11
19.4923
 21
-20.4387
  0
LINE
  8
0
 10
19.4923
 20
-20.4387
 11
20.1155
 21
-19.7319
  0
LINE
  8
0
 10
20.1155
 20
-19.7319
 11
20.7819
 21
-19.0656
  0
LINE
  8
0
 10
20.7819
 20
-19.0656
 11
21.4886
 21
-18.4424
  0
LINE
  8
0
 10
21.4886
 20
-18.4424
 11
22.2333
 21
-17.8648
  0
LINE
  8
0
 10
22.2333
 20
-17.8648
 11
23.0127
 21
-17.3352
  0
LINE
  8
0
 10
23.0127
 20
-17.3352
 11
23.8237
 21
-16.8555
  0
LINE
  8
0
 10
23.8237
 20
-16.8555
 11
24.6634
 21
-16.4276
  0
LINE
  8
0
 10
24.6634
 20
-16.4276
 11
25.5281
 21
-16.0535
  0
LINE
  8
0
 10
25.5281
 20
-16.0535
 11
26.4148
 21
-15.7343
  0
LINE
  8
0
 10
26.4148
 20
-15.7343
 11
27.3196
 21
-15.4713
  0
LINE
  8
0
 10
27.3196
 20
-15.4713
 11
28.2393
 21
-15.2658
  0
LINE
  8
0
 10
28.2393
 20
-15.2658
 11
29.1701
 21
-15.1184
  0
LINE
  8
0
 10
29.1701
 20
-15.1184
 11
30.1082
 21
-15.0296
  0
LINE
  8
0
 10
30.1082
 20
-15.0296
 11
31.05
 21
-15
  0
LINE
  8
0
 10
31.05
 20
-15
 11
31.9917
 21
-15.0296
  0
LINE
  8
0
 10
31.9917
 20
-15.0296
 11
32.9298
 21
-15.1184
  0
LINE
  8
0
 10
32.9298
 20
-15.1184
 11
33.8606
 21
-15.2658
  0
LINE
  8
0
 10
33.8606
 20
-15.2658
 11
34.7803
 21
-15.4713
  0
LINE
  8
0
 10
34.7803
 20
-15.4713
 11
35.6851
 21
-15.7343
  0
LINE
  8
0
 10
35.6851
 20
-15.7343
 11
36.5718
 21
-16.0535
  0
LINE
  8
0
 10
36.5718
 20
-16.0535
 11
37.4365
 21
-16.4276
  0
LINE
  8
0
 10
37.4365
 20
-16.4276
 11
38.2762
 21
-16.8555
  0
LINE
  8
0
 10
38.2762
 20
-16.8555
 11
39.0872
 21
-17.3352
  0
LINE
  8
0
 10
39.0872
 20
-17.3352
 11
39.8666
 21
-17.8648
  0
LINE
  8
0
 10
39.8666
 20
-17.8648
 11
40.6113
 21
-18.4424
  0
LINE
  8
0
 10
40.6113
 20
-18.4424
 11
41.3181
 21
-19.0656
  0
LINE
  8
0
 10
41.3181
 20
-19.0656
 11
41.9844
 21
-19.7319
  0
LINE
  8
0
 10
41.9844
 20
-19.7319
 11
42.6076
 21
-20.4387
  0
LINE
  8
0
 10
42.6076
 20
-20.4387
 11
43.1851
 21
-21.1833
  0
LINE
  8
0
 10
43.1851
 20
-21.1833
 11
43.7148
 21
-21.9627
  0
LINE
  8
0
 10
43.7148
 20
-21.9627
 11
44.1945
 21
-22.7737
  0
LINE
  8
0
 10
44.1945
 20
-22.7737
 11
44.6223
 21
-23.6134
  0
LINE
  8
0
 10
44.6223
 20
-23.6134
 11
44.9965
 21
-24.4781
  0
LINE
  8
0
 10
44.9965
 20
-24.4781
 11
45.3157
 21
-25.3648
  0
LINE
  8
0
 10
45.3157
 20
-25.3648
 11
45.5786
 21
-26.2697
  0
LINE
  8
0
 10
45.5786
 20
-26.2697
 11
45.7841
 21
-27.1893
  0
LINE
  8
0
 10
45.7841
 20
-27.1893
 11
45.9125
 21
-28
  0
LINE
  8
0
 10
45.9125
 20
-28
 11
46.05
 21
-28
  0
LINE
  8
0
 10
46.05
 20
-28
 11
46.05
 21
-37.5
  0
LINE
  8
0
 10
46.05
 20
-37.5
 11
16.05
 21
-37.5
  0
LINE
  8
0
 10
85.3767
 20
-75.9882
 11
85.752
 21
-75.9526
  0
LINE
  8
0
 10
85.752
 20
-75.9526
 11
86.1243
 21
-75.8937
  0
LINE
  8
0
 10
86.1243
 20
-75.8937
 11
86.492
 21
-75.8115
  0
LINE
  8
0
 10
86.492
 20
-75.8115
 11
86.8541
 21
-75.7063
  0
LINE
  8
0
 10
86.8541
 20
-75.7063
 11
87.2087
 21
-75.5786
  0
LINE
  8
0
 10
87.2087
 20
-75.5786
 11
87.5546
 21
-75.4289
  0
LINE
  8
0
 10
87.5546
 20
-75.4289
 11
87.8905
 21
-75.2577
  0
LINE
  8
0
 10
87.8905
 20
-75.2577
 11
88.2149
 21
-75.0659
  0
LINE
  8
0
 10
88.2149
 20
-75.0659
 11
88.5266
 21
-74.854
  0
LINE
  8
0
 10
88.5266
 20
-74.854
 11
88.8245
 21
-74.623
  0
LINE
  8
0
 10
88.8245
 20
-74.623
 11
89.1072
 21
-74.3738
  0
LINE
  8
0
 10
89.1072
 20
-74.3738
 11
89.3738
 21
-74.1072
  0
LINE
  8
0
 10
89.3738
 20
-74.1072
 11
89.623
 21
-73.8245
  0
LINE
  8
0
 10
89.623
 20
-73.8245
 11
89.854
 21
-73.5266
  0
LINE
  8
0
 10
89.854
 20
-73.5266
 11
90.0659
 21
-73.2149
  0
LINE
  8
0
 10
90.0659
 20
-73.2149
 11
90.2577
 21
-72.8905
  0
LINE
  8
0
 10
90.2577
 20
-72.8905
 11
90.4289
 21
-72.5546
  0
LINE
  8
0
 10
90.4289
 20
-72.5546
 11
90.5786
 21
-72.2087
  0
LINE
  8
0
 10
90.5786
 20
-72.2087
 11
90.7063
 21
-71.8541
  0
LINE
  8
0
 10
90.7063
 20
-71.8541
 11
90.8115
 21
-71.492
  0
LINE
  8
0
 10
90.8115
 20
-71.492
 11
90.8937
 21
-71.1243
  0
LINE
  8
0
 10
90.8937
 20
-71.1243
 11
90.9526
 21
-70.752
  0
LINE
  8
0
 10
90.9526
 20
-70.752
 11
90.9882
 21
-70.3767
  0
LINE
  8
0
 10
90.9882
 20
-70.3767
 11
90.9999
 21
-70
  0
LINE
  8
0
 10
90.9999
 20
-70
 11
90.9882
 21
-69.6233
  0
LINE
  8
0
 10
90.9882
 20
-69.6233
 11
90.9526
 21
-69.248
  0
LINE
  8
0
 10
90.9526
 20
-69.248
 11
90.8937
 21
-68.8757
  0
LINE
  8
0
 10
90.8937
 20
-68.8757
 11
90.8115
 21
-68.508
  0
LINE
  8
0
 10
90.8115
 20
-68.508
 11
90.7063
 21
-68.1459
  0
LINE
  8
0
 10
90.7063
 20
-68.1459
 11
90.5786
 21
-67.7913
  0
LINE
  8
0
 10
90.5786
 20
-67.7913
 11
90.4289
 21
-67.4454
  0
LINE
  8
0
 10
90.4289
 20
-67.4454
 11
90.2577
 21
-67.1095
  0
LINE
  8
0
 10
90.2577
 20
-67.1095
 11
90.0659
 21
-66.7851
  0
LINE
  8
0
 10
90.0659
 20
-66.7851
 11
89.854
 21
-66.4734
  0
LINE
  8
0
 10
89.854
 20
-66.4734
 11
89.623
 21
-66.1755
  0
LINE
  8
0
 10
89.623
 20
-66.1755
 11
89.3738
 21
-65.8928
  0
LINE
  8
0
 10
89.3738
 20
-65.8928
 11
89.1072
 21
-65.6262
  0
LINE
  8
0
 10
89.1072
 20
-65.6262
 11
88.8245
 21
-65.377
  0
LINE
  8
0
 10
88.8245
 20
-65.377
 11
88.5266
 21
-65.146
  0
LINE
  8
0
 10
88.5266
 20
-65.146
 11
88.2149
 21
-64.9341
  0
LINE
  8
0
 10
88.2149
 20
-64.9341
 11
87.8905
 21
-64.7423
  0
LINE
  8
0
 10
87.8905
 20
-64.7423
 11
87.5546
 21
-64.5711
  0
LINE
  8
0
 10
87.5546
 20
-64.5711
 11
87.2087
 21
-64.4214
  0
LINE
  8
0
 10
87.2087
 20
-64.4214
 11
86.8541
 21
-64.2937
  0
LINE
  8
0
 10
86.8541
 20
-64.2937
 11
86.492
 21
-64.1885
  0
LINE
  8
0
 10
86.492
 20
-64.1885
 11
86.1243
 21
-64.1063
  0
LINE
  8
0
 10
86.1243
 20
-64.1063
 11
85.752
 21
-64.0474
  0
LINE
  8
0
 10
85.752
 20
-64.0474
 11
85.3767
 21
-64.0118
  0
LINE
  8
0
 10
85.3767
 20
-64.0118
 11
85
 21
-64.0001
  0
LINE
  8
0
 10
85
 20
-64.0001
 11
84.6233
 21
-64.0118
  0
LINE
  8
0
 10
84.6233
 20
-64.0118
 11
84.248
 21
-64.0474
  0
LINE
  8
0
 10
84.248
 20
-64.0474
 11
83.8757
 21
-64.1063
  0
LINE
  8
0
 10
83.8757
 20
-64.1063
 11
83.508
 21
-64.1885
  0
LINE
  8
0
 10
83.508
 20
-64.1885
 11
83.1459
 21
-64.2937
  0
LINE
  8
0
 10
83.1459
 20
-64.2937
 11
82.7913
 21
-64.4214
  0
LINE
  8
0
 10
82.7913
 20
-64.4214
 11
82.4454
 21
-64.5711
  0
LINE
  8
0
 10
82.4454
 20
-64.5711
 11
82.1095
 21
-64.7423
  0
LINE
  8
0
 10
82.1095
 20
-64.7423
 11
81.7851
 21
-64.9341
  0
LINE
  8
0
 10
81.7851
 20
-64.9341
 11
81.4734
 21
-65.146
  0
LINE
  8
0
 10
81.4734
 20
-65.146
 11
81.1755
 21
-65.377
  0
LINE
  8
0
 10
81.1755
 20
-65.377
 11
80.8928
 21
-65.6262
  0
LINE
  8
0
 10
80.8928
 20
-65.6262
 11
80.6262
 21
-65.8928
  0
LINE
  8
0
 10
80.6262
 20
-65.8928
 11
80.377
 21
-66.1755
  0
LINE
  8
0
 10
80.377
 20
-66.1755
 11
80.146
 21
-66.4734
  0
LINE
  8
0
 10
80.146
 20
-66.4734
 11
79.9341
 21
-66.7851
  0
LINE
  8
0
 10
79.9341
 20
-66.7851
 11
79.7423
 21
-67.1095
  0
LINE
  8
0
 10
79.7423
 20
-67.1095
 11
79.5711
 21
-67.4454
  0
LINE
  8
0
 10
79.5711
 20
-67.4454
 11
79.4214
 21
-67.7913
  0
LINE
  8
0
 10
79.4214
 20
-67.7913
 11
79.2937
 21
-68.1459
  0
LINE
  8
0
 10
79.2937
 20
-68.1459
 11
79.1885
 21
-68.508
  0
LINE
  8
0
 10
79.1885
 20
-68.508
 11
79.1063
 21
-68.8757
  0
LINE
  8
0
 10
79.1063
 20
-68.8757
 11
79.0474
 21
-69.248
  0
LINE
  8
0
 10
79.0474
 20
-69.248
 11
79.0118
 21
-69.6233
  0
LINE
  8
0
 10
79.0118
 20
-69.6233
 11
79.0001
 21
-70
  0
LINE
  8
0
 10
79.0001
 20
-70
 11
79.0118
 21
-70.3767
  0
LINE
  8
0
 10
79.0118
 20
-70.3767
 11
79.0474
 21
-70.752
  0
LINE
  8
0
 10
79.0474
 20
-70.752
 11
79.1063
 21
-71.1243
  0
LINE
  8
0
 10
79.1063
 20
-71.1243
 11
79.1885
 21
-71.492
  0
LINE
  8
0
 10
79.1885
 20
-71.492
 11
79.2937
 21
-71.8541
  0
LINE
  8
0
 10
79.2937
 20
-71.8541
 11
79.4214
 21
-72.2087
  0
LINE
  8
0
 10
79.4214
 20
-72.2087
 11
79.5711
 21
-72.5546
  0
LINE
  8
0
 10
79.5711
 20
-72.5546
 11
79.7423
 21
-72.8905
  0
LINE
  8
0
 10
79.7423
 20
-72.8905
 11
79.9341
 21
-73.2149
  0
LINE
  8
0
 10
79.9341
 20
-73.2149
 11
80.146
 21
-73.5266
  0
LINE
  8
0
 10
80.146
 20
-73.5266
 11
80.377
 21
-73.8245
  0
LINE
  8
0
 10
80.377
 20
-73.8245
 11
80.6262
 21
-74.1072
  0
LINE
  8
0
 10
80.6262
 20
-74.1072
 11
80.8928
 21
-74.3738
  0
LINE
  8
0
 10
80.8928
 20
-74.3738
 11
81.1755
 21
-74.623
  0
LINE
  8
0
 10
81.1755
 20
-74.623
 11
81.4734
 21
-74.854
  0
LINE
  8
0
 10
81.4734
 20
-74.854
 11
81.7851
 21
-75.0659
  0
LINE
  8
0
 10
81.7851
 20
-75.0659
 11
82.1095
 21
-75.2577
  0
LINE
  8
0
 10
82.1095
 20
-75.2577
 11
82.4454
 21
-75.4289
  0
LINE
  8
0
 10
82.4454
 20
-75.4289
 11
82.7913
 21
-75.5786
  0
LINE
  8
0
 10
82.7913
 20
-75.5786
 11
83.1459
 21
-75.7063
  0
LINE
  8
0
 10
83.1459
 20
-75.7063
 11
83.508
 21
-75.8115
  0
LINE
  8
0
 10
83.508
 20
-75.8115
 11
83.8757
 21
-75.8937
  0
LINE
  8
0
 10
83.8757
 20
-75.8937
 11
84.248
 21
-75.9526
  0
LINE
  8
0
 10
84.248
 20
-75.9526
 11
84.6233
 21
-75.9882
  0
LINE
  8
0
 10
84.6233
 20
-75.9882
 11
85
 21
-75.9999
  0
LINE
  8
0
 10
85
 20
-75.9999
 11
85.3767
 21
-75.9882
  0
LINE
  8
0
 10
84.3735
 20
-74.9605
 11
83.7566
 21
-74.8428
  0
LINE
  8
0
 10
83.7566
 20
-74.8428
 11
83.1595
 21
-74.6487
  0
LINE
  8
0
 10
83.1595
 20
-74.6487
 11
82.5912
 21
-74.3814
  0
LINE
  8
0
 10
82.5912
 20
-74.3814
 11
82.0612
 21
-74.045
  0
LINE
  8
0
 10
82.0612
 20
-74.045
 11
81.5773
 21
-73.6447
  0
LINE
  8
0
 10
81.5773
 20
-73.6447
 11
81.1475
 21
-73.1871
  0
LINE
  8
0
 10
81.1475
 20
-73.1871
 11
80.7785
 21
-72.679
  0
LINE
  8
0
 10
80.7785
 20
-72.679
 11
80.4759
 21
-72.1288
  0
LINE
  8
0
 10
80.4759
 20
-72.1288
 11
80.2448
 21
-71.545
  0
LINE
  8
0
 10
80.2448
 20
-71.545
 11
80.0887
 21
-70.9369
  0
LINE
  8
0
 10
80.0887
 20
-70.9369
 11
80.0099
 21
-70.3139
  0
LINE
  8
0
 10
80.0099
 20
-70.3139
 11
80.0099
 21
-69.6861
  0
LINE
  8
0
 10
80.0099
 20
-69.6861
 11
80.0887
 21
-69.0631
  0
LINE
  8
0
 10
80.0887
 20
-69.0631
 11
80.2448
 21
-68.455
  0
LINE
  8
0
 10
80.2448
 20
-68.455
 11
80.4759
 21
-67.8712
  0
LINE
  8
0
 10
80.4759
 20
-67.8712
 11
80.7785
 21
-67.321
  0
LINE
  8
0
 10
80.7785
 20
-67.321
 11
81.1475
 21
-66.8129
  0
LINE
  8
0
 10
81.1475
 20
-66.8129
 11
81.5773
 21
-66.3553
  0
LINE
  8
0
 10
81.5773
 20
-66.3553
 11
82.0612
 21
-65.955
  0
LINE
  8
0
 10
82.0612
 20
-65.955
 11
82.5912
 21
-65.6186
  0
LINE
  8
0
 10
82.5912
 20
-65.6186
 11
83.1595
 21
-65.3513
  0
LINE
  8
0
 10
83.1595
 20
-65.3513
 11
83.7566
 21
-65.1572
  0
LINE
  8
0
 10
83.7566
 20
-65.1572
 11
84.3735
 21
-65.0395
  0
LINE
  8
0
 10
84.3735
 20
-65.0395
 11
85
 21
-65
  0
LINE
  8
0
 10
85
 20
-65
 11
85.6265
 21
-65.0395
  0
LINE
  8
0
 10
85.6265
 20
-65.0395
 11
86.2434
 21
-65.1572
  0
LINE
  8
0
 10
86.2434
 20
-65.1572
 11
86.8405
 21
-65.3513
  0
LINE
  8
0
 10
86.8405
 20
-65.3513
 11
87.4088
 21
-65.6186
  0
LINE
  8
0
 10
87.4088
 20
-65.6186
 11
87.9388
 21
-65.955
  0
LINE
  8
0
 10
87.9388
 20
-65.955
 11
88.4227
 21
-66.3553
  0
LINE
  8
0
 10
88.4227
 20
-66.3553
 11
88.8525
 21
-66.8129
  0
LINE
  8
0
 10
88.8525
 20
-66.8129
 11
89.2215
 21
-67.321
  0
LINE
  8
0
 10
89.2215
 20
-67.321
 11
89.5241
 21
-67.8712
  0
LINE
  8
0
 10
89.5241
 20
-67.8712
 11
89.7552
 21
-68.455
  0
LINE
  8
0
 10
89.7552
 20
-68.455
 11
89.9113
 21
-69.0631
  0
LINE
  8
0
 10
89.9113
 20
-69.0631
 11
89.9901
 21
-69.6861
  0
LINE
  8
0
 10
89.9901
 20
-69.6861
 11
89.9901
 21
-70.3139
  0
LINE
  8
0
 10
89.9901
 20
-70.3139
 11
89.9113
 21
-70.9369
  0
LINE
  8
0
 10
89.9113
 20
-70.9369
 11
89.7552
 21
-71.545
  0
LINE
  8
0
 10
89.7552
 20
-71.545
 11
89.5241
 21
-72.1288
  0
LINE
  8
0
 10
89.5241
 20
-72.1288
 11
89.2215
 21
-72.679
  0
LINE
  8
0
 10
89.2215
 20
-72.679
 11
88.8525
 21
-73.1871
  0
LINE
  8
0
 10
88.8525
 20
-73.1871
 11
88.4227
 21
-73.6447
  0
LINE
  8
0
 10
88.4227
 20
-73.6447
 11
87.9388
 21
-74.045
  0
LINE
  8
0
 10
87.9388
 20
-74.045
 11
87.4088
 21
-74.3814
  0
LINE
  8
0
 10
87.4088
 20
-74.3814
 11
86.8405
 21
-74.6487
  0
LINE
  8
0
 10
86.8405
 20
-74.6487
 11
86.2434
 21
-74.8428
  0
LINE
  8
0
 10
86.2434
 20
-74.8428
 11
85.6265
 21
-74.9605
  0
LINE
  8
0
 10
85.6265
 20
-74.9605
 11
85
 21
-75
  0
LINE
  8
0
 10
85
 20
-75
 11
84.3735
 21
-74.9605
  0
LINE
  8
0
 10
83.1596
 20
-69.94
 11
83.9397
 21
-69.94
  0
LINE
  8
0
 10
83.9397
 20
-69.94
 11
85.8394
 21
-72.5
  0
LINE
  8
0
 10
85.8394
 20
-72.5
 11
86.3594
 21
-72.5
  0
LINE
  8
0
 10
86.3594
 20
-72.5
 11
84.2596
 21
-69.8601
  0
LINE
  8
0
 10
84.2596
 20
-69.8601
 11
84.9829
 21
-69.819
  0
LINE
  8
0
 10
84.9829
 20
-69.819
 11
85.4727
 21
-69.7623
  0
LINE
  8
0
 10
85.4727
 20
-69.7623
 11
85.7295
 21
-69.6901
  0
LINE
  8
0
 10
85.7295
 20
-69.6901
 11
85.9872
 21
-69.5123
  0
LINE
  8
0
 10
85.9872
 20
-69.5123
 11
86.0895
 21
-69.4101
  0
LINE
  8
0
 10
86.0895
 20
-69.4101
 11
86.2405
 21
-69.1701
  0
LINE
  8
0
 10
86.2405
 20
-69.1701
 11
86.3283
 21
-68.9012
  0
LINE
  8
0
 10
86.3283
 20
-68.9012
 11
86.3594
 21
-68.6301
  0
LINE
  8
0
 10
86.3594
 20
-68.6301
 11
86.3472
 21
-68.4435
  0
LINE
  8
0
 10
86.3472
 20
-68.4435
 11
86.3106
 21
-68.2701
  0
LINE
  8
0
 10
86.3106
 20
-68.2701
 11
86.2494
 21
-68.11
  0
LINE
  8
0
 10
86.2494
 20
-68.11
 11
86.165
 21
-67.959
  0
LINE
  8
0
 10
86.165
 20
-67.959
 11
86.0583
 21
-67.8256
  0
LINE
  8
0
 10
86.0583
 20
-67.8256
 11
85.9294
 21
-67.7101
  0
LINE
  8
0
 10
85.9294
 20
-67.7101
 11
85.7784
 21
-67.6123
  0
LINE
  8
0
 10
85.7784
 20
-67.6123
 11
85.605
 21
-67.5323
  0
LINE
  8
0
 10
85.605
 20
-67.5323
 11
85.1984
 21
-67.42
  0
LINE
  8
0
 10
85.1984
 20
-67.42
 11
84.9652
 21
-67.3901
  0
LINE
  8
0
 10
84.9652
 20
-67.3901
 11
82.5195
 21
-67.3801
  0
LINE
  8
0
 10
82.5195
 20
-67.3801
 11
82.5195
 21
-72.5
  0
LINE
  8
0
 10
82.5195
 20
-72.5
 11
83.1596
 21
-72.5
  0
LINE
  8
0
 10
83.1596
 20
-72.5
 11
83.1596
 21
-69.94
  0
LINE
  8
0
 10
83.1596
 20
-69.3001
 11
83.1596
 21
-68.02
  0
LINE
  8
0
 10
83.1596
 20
-68.02
 11
84.8108
 21
-68.0244
  0
LINE
  8
0
 10
84.8108
 20
-68.0244
 11
85.0995
 21
-68.0602
  0
LINE
  8
0
 10
85.0995
 20
-68.0602
 11
85.3351
 21
-68.1313
  0
LINE
  8
0
 10
85.3351
 20
-68.1313
 11
85.515
 21
-68.2323
  0
LINE
  8
0
 10
85.515
 20
-68.2323
 11
85.6395
 21
-68.3701
  0
LINE
  8
0
 10
85.6395
 20
-68.3701
 11
85.6839
 21
-68.4489
  0
LINE
  8
0
 10
85.6839
 20
-68.4489
 11
85.7195
 21
-68.6401
  0
LINE
  8
0
 10
85.7195
 20
-68.6401
 11
85.6927
 21
-68.8179
  0
LINE
  8
0
 10
85.6927
 20
-68.8179
 11
85.6117
 21
-68.9767
  0
LINE
  8
0
 10
85.6117
 20
-68.9767
 11
85.4695
 21
-69.1101
  0
LINE
  8
0
 10
85.4695
 20
-69.1101
 11
85.265
 21
-69.2123
  0
LINE
  8
0
 10
85.265
 20
-69.2123
 11
85.004
 21
-69.2778
  0
LINE
  8
0
 10
85.004
 20
-69.2778
 11
84.6796
 21
-69.3001
  0
LINE
  8
0
 10
84.6796
 20
-69.3001
 11
83.1596
 21
-69.3001
  0
ENDSEC
  0
SECTION
  2
OBJECTS
  0
DICTIONARY
  0
ENDSEC
  0
EOF
