  0
SECTION
  2
BLOCKS
  0
ENDSEC
  0
SECTION
  2
ENTITIES
  0
LINE
  8
0
 10
6.21042
 20
-7.60619
 11
6.31108
 21
-7.59668
  0
LINE
  8
0
 10
6.31108
 20
-7.59668
 11
6.41093
 21
-7.58086
  0
LINE
  8
0
 10
6.41093
 20
-7.58086
 11
6.5096
 21
-7.55881
  0
LINE
  8
0
 10
6.5096
 20
-7.55881
 11
6.60669
 21
-7.53059
  0
LINE
  8
0
 10
6.60669
 20
-7.53059
 11
6.70181
 21
-7.49635
  0
LINE
  8
0
 10
6.70181
 20
-7.49635
 11
6.7946
 21
-7.45619
  0
LINE
  8
0
 10
6.7946
 20
-7.45619
 11
6.88469
 21
-7.41029
  0
LINE
  8
0
 10
6.88469
 20
-7.41029
 11
6.97171
 21
-7.35883
  0
LINE
  8
0
 10
6.97171
 20
-7.35883
 11
7.05533
 21
-7.302
  0
LINE
  8
0
 10
7.05533
 20
-7.302
 11
7.13522
 21
-7.24004
  0
LINE
  8
0
 10
7.13522
 20
-7.24004
 11
7.21106
 21
-7.17317
  0
LINE
  8
0
 10
7.21106
 20
-7.17317
 11
7.28255
 21
-7.10168
  0
LINE
  8
0
 10
7.28255
 20
-7.10168
 11
7.34941
 21
-7.02585
  0
LINE
  8
0
 10
7.34941
 20
-7.02585
 11
7.41138
 21
-6.94595
  0
LINE
  8
0
 10
7.41138
 20
-6.94595
 11
7.4682
 21
-6.86234
  0
LINE
  8
0
 10
7.4682
 20
-6.86234
 11
7.51967
 21
-6.77531
  0
LINE
  8
0
 10
7.51967
 20
-6.77531
 11
7.56557
 21
-6.68523
  0
LINE
  8
0
 10
7.56557
 20
-6.68523
 11
7.60573
 21
-6.59244
  0
LINE
  8
0
 10
7.60573
 20
-6.59244
 11
7.63997
 21
-6.49731
  0
LINE
  8
0
 10
7.63997
 20
-6.49731
 11
7.66818
 21
-6.40022
  0
LINE
  8
0
 10
7.66818
 20
-6.40022
 11
7.69023
 21
-6.30156
  0
LINE
  8
0
 10
7.69023
 20
-6.30156
 11
7.70605
 21
-6.20171
  0
LINE
  8
0
 10
7.70605
 20
-6.20171
 11
7.71556
 21
-6.10104
  0
LINE
  8
0
 10
7.71556
 20
-6.10104
 11
7.71875
 21
-6
  0
LINE
  8
0
 10
7.71875
 20
-6
 11
7.71875
 21
-4.5
  0
LINE
  8
0
 10
7.71875
 20
-4.5
 11
15
 21
-4.5
  0
LINE
  8
0
 10
15
 20
-4.5
 11
15.101
 21
-4.49683
  0
LINE
  8
0
 10
15.101
 20
-4.49683
 11
15.2017
 21
-4.48732
  0
LINE
  8
0
 10
15.2017
 20
-4.48732
 11
15.3016
 21
-4.4715
  0
LINE
  8
0
 10
15.3016
 20
-4.4715
 11
15.4002
 21
-4.44945
  0
LINE
  8
0
 10
15.4002
 20
-4.44945
 11
15.4973
 21
-4.42123
  0
LINE
  8
0
 10
15.4973
 20
-4.42123
 11
15.5924
 21
-4.38699
  0
LINE
  8
0
 10
15.5924
 20
-4.38699
 11
15.6852
 21
-4.34683
  0
LINE
  8
0
 10
15.6852
 20
-4.34683
 11
15.7753
 21
-4.30093
  0
LINE
  8
0
 10
15.7753
 20
-4.30093
 11
15.8623
 21
-4.24947
  0
LINE
  8
0
 10
15.8623
 20
-4.24947
 11
15.946
 21
-4.19264
  0
LINE
  8
0
 10
15.946
 20
-4.19264
 11
16.0258
 21
-4.13068
  0
LINE
  8
0
 10
16.0258
 20
-4.13068
 11
16.1017
 21
-4.06381
  0
LINE
  8
0
 10
16.1017
 20
-4.06381
 11
16.1732
 21
-3.99232
  0
LINE
  8
0
 10
16.1732
 20
-3.99232
 11
16.24
 21
-3.91649
  0
LINE
  8
0
 10
16.24
 20
-3.91649
 11
16.302
 21
-3.83659
  0
LINE
  8
0
 10
16.302
 20
-3.83659
 11
16.3588
 21
-3.75298
  0
LINE
  8
0
 10
16.3588
 20
-3.75298
 11
16.4103
 21
-3.66595
  0
LINE
  8
0
 10
16.4103
 20
-3.66595
 11
16.4562
 21
-3.57587
  0
LINE
  8
0
 10
16.4562
 20
-3.57587
 11
16.4964
 21
-3.48308
  0
LINE
  8
0
 10
16.4964
 20
-3.48308
 11
16.5306
 21
-3.38795
  0
LINE
  8
0
 10
16.5306
 20
-3.38795
 11
16.5588
 21
-3.29086
  0
LINE
  8
0
 10
16.5588
 20
-3.29086
 11
16.5809
 21
-3.1922
  0
LINE
  8
0
 10
16.5809
 20
-3.1922
 11
16.5967
 21
-3.09235
  0
LINE
  8
0
 10
16.5967
 20
-3.09235
 11
16.6062
 21
-2.99168
  0
LINE
  8
0
 10
16.6062
 20
-2.99168
 11
16.6094
 21
-2.89062
  0
LINE
  8
0
 10
16.6094
 20
-2.89062
 11
16.6062
 21
-2.78958
  0
LINE
  8
0
 10
16.6062
 20
-2.78958
 11
16.5967
 21
-2.68892
  0
LINE
  8
0
 10
16.5967
 20
-2.68892
 11
16.5809
 21
-2.58907
  0
LINE
  8
0
 10
16.5809
 20
-2.58907
 11
16.5588
 21
-2.4904
  0
LINE
  8
0
 10
16.5588
 20
-2.4904
 11
16.5306
 21
-2.39331
  0
LINE
  8
0
 10
16.5306
 20
-2.39331
 11
16.4964
 21
-2.29819
  0
LINE
  8
0
 10
16.4964
 20
-2.29819
 11
16.4562
 21
-2.2054
  0
LINE
  8
0
 10
16.4562
 20
-2.2054
 11
16.4103
 21
-2.11531
  0
LINE
  8
0
 10
16.4103
 20
-2.11531
 11
16.3588
 21
-2.02829
  0
LINE
  8
0
 10
16.3588
 20
-2.02829
 11
16.302
 21
-1.94467
  0
LINE
  8
0
 10
16.302
 20
-1.94467
 11
16.24
 21
-1.86478
  0
LINE
  8
0
 10
16.24
 20
-1.86478
 11
16.1732
 21
-1.78894
  0
LINE
  8
0
 10
16.1732
 20
-1.78894
 11
16.1017
 21
-1.71745
  0
LINE
  8
0
 10
16.1017
 20
-1.71745
 11
16.0258
 21
-1.65059
  0
LINE
  8
0
 10
16.0258
 20
-1.65059
 11
15.946
 21
-1.58862
  0
LINE
  8
0
 10
15.946
 20
-1.58862
 11
15.8623
 21
-1.5318
  0
LINE
  8
0
 10
15.8623
 20
-1.5318
 11
15.7753
 21
-1.48033
  0
LINE
  8
0
 10
15.7753
 20
-1.48033
 11
15.6852
 21
-1.43443
  0
LINE
  8
0
 10
15.6852
 20
-1.43443
 11
15.5924
 21
-1.39427
  0
LINE
  8
0
 10
15.5924
 20
-1.39427
 11
15.4973
 21
-1.36003
  0
LINE
  8
0
 10
15.4973
 20
-1.36003
 11
15.4002
 21
-1.33182
  0
LINE
  8
0
 10
15.4002
 20
-1.33182
 11
15.3016
 21
-1.30977
  0
LINE
  8
0
 10
15.3016
 20
-1.30977
 11
15.2017
 21
-1.29395
  0
LINE
  8
0
 10
15.2017
 20
-1.29395
 11
15.101
 21
-1.28444
  0
LINE
  8
0
 10
15.101
 20
-1.28444
 11
15
 21
-1.28125
  0
LINE
  8
0
 10
15
 20
-1.28125
 11
13.5
 21
-1.28125
  0
LINE
  8
0
 10
13.5
 20
-1.28125
 11
13.5
 21
1.28125
  0
LINE
  8
0
 10
13.5
 20
1.28125
 11
15
 21
1.28125
  0
LINE
  8
0
 10
15
 20
1.28125
 11
15.101
 21
1.28444
  0
LINE
  8
0
 10
15.101
 20
1.28444
 11
15.2017
 21
1.29395
  0
LINE
  8
0
 10
15.2017
 20
1.29395
 11
15.3016
 21
1.30977
  0
LINE
  8
0
 10
15.3016
 20
1.30977
 11
15.4002
 21
1.33182
  0
LINE
  8
0
 10
15.4002
 20
1.33182
 11
15.4973
 21
1.36003
  0
LINE
  8
0
 10
15.4973
 20
1.36003
 11
15.5924
 21
1.39427
  0
LINE
  8
0
 10
15.5924
 20
1.39427
 11
15.6852
 21
1.43443
  0
LINE
  8
0
 10
15.6852
 20
1.43443
 11
15.7753
 21
1.48033
  0
LINE
  8
0
 10
15.7753
 20
1.48033
 11
15.8623
 21
1.5318
  0
LINE
  8
0
 10
15.8623
 20
1.5318
 11
15.946
 21
1.58862
  0
LINE
  8
0
 10
15.946
 20
1.58862
 11
16.0258
 21
1.65059
  0
LINE
  8
0
 10
16.0258
 20
1.65059
 11
16.1017
 21
1.71745
  0
LINE
  8
0
 10
16.1017
 20
1.71745
 11
16.1732
 21
1.78894
  0
LINE
  8
0
 10
16.1732
 20
1.78894
 11
16.24
 21
1.86478
  0
LINE
  8
0
 10
16.24
 20
1.86478
 11
16.302
 21
1.94467
  0
LINE
  8
0
 10
16.302
 20
1.94467
 11
16.3588
 21
2.02829
  0
LINE
  8
0
 10
16.3588
 20
2.02829
 11
16.4103
 21
2.11531
  0
LINE
  8
0
 10
16.4103
 20
2.11531
 11
16.4562
 21
2.2054
  0
LINE
  8
0
 10
16.4562
 20
2.2054
 11
16.4964
 21
2.29819
  0
LINE
  8
0
 10
16.4964
 20
2.29819
 11
16.5306
 21
2.39331
  0
LINE
  8
0
 10
16.5306
 20
2.39331
 11
16.5588
 21
2.4904
  0
LINE
  8
0
 10
16.5588
 20
2.4904
 11
16.5809
 21
2.58907
  0
LINE
  8
0
 10
16.5809
 20
2.58907
 11
16.5967
 21
2.68892
  0
LINE
  8
0
 10
16.5967
 20
2.68892
 11
16.6062
 21
2.78958
  0
LINE
  8
0
 10
16.6062
 20
2.78958
 11
16.6094
 21
2.89062
  0
LINE
  8
0
 10
16.6094
 20
2.89062
 11
16.6062
 21
2.99168
  0
LINE
  8
0
 10
16.6062
 20
2.99168
 11
16.5967
 21
3.09235
  0
LINE
  8
0
 10
16.5967
 20
3.09235
 11
16.5809
 21
3.1922
  0
LINE
  8
0
 10
16.5809
 20
3.1922
 11
16.5588
 21
3.29086
  0
LINE
  8
0
 10
16.5588
 20
3.29086
 11
16.5306
 21
3.38795
  0
LINE
  8
0
 10
16.5306
 20
3.38795
 11
16.4964
 21
3.48308
  0
LINE
  8
0
 10
16.4964
 20
3.48308
 11
16.4562
 21
3.57587
  0
LINE
  8
0
 10
16.4562
 20
3.57587
 11
16.4103
 21
3.66595
  0
LINE
  8
0
 10
16.4103
 20
3.66595
 11
16.3588
 21
3.75298
  0
LINE
  8
0
 10
16.3588
 20
3.75298
 11
16.302
 21
3.83659
  0
LINE
  8
0
 10
16.302
 20
3.83659
 11
16.24
 21
3.91649
  0
LINE
  8
0
 10
16.24
 20
3.91649
 11
16.1732
 21
3.99232
  0
LINE
  8
0
 10
16.1732
 20
3.99232
 11
16.1017
 21
4.06381
  0
LINE
  8
0
 10
16.1017
 20
4.06381
 11
16.0258
 21
4.13068
  0
LINE
  8
0
 10
16.0258
 20
4.13068
 11
15.946
 21
4.19264
  0
LINE
  8
0
 10
15.946
 20
4.19264
 11
15.8623
 21
4.24947
  0
LINE
  8
0
 10
15.8623
 20
4.24947
 11
15.7753
 21
4.30093
  0
LINE
  8
0
 10
15.7753
 20
4.30093
 11
15.6852
 21
4.34683
  0
LINE
  8
0
 10
15.6852
 20
4.34683
 11
15.5924
 21
4.38699
  0
LINE
  8
0
 10
15.5924
 20
4.38699
 11
15.4973
 21
4.42123
  0
LINE
  8
0
 10
15.4973
 20
4.42123
 11
15.4002
 21
4.44945
  0
LINE
  8
0
 10
15.4002
 20
4.44945
 11
15.3016
 21
4.4715
  0
LINE
  8
0
 10
15.3016
 20
4.4715
 11
15.2017
 21
4.48732
  0
LINE
  8
0
 10
15.2017
 20
4.48732
 11
15.101
 21
4.49683
  0
LINE
  8
0
 10
15.101
 20
4.49683
 11
15
 21
4.5
  0
LINE
  8
0
 10
15
 20
4.5
 11
7.71875
 21
4.5
  0
LINE
  8
0
 10
7.71875
 20
4.5
 11
7.71875
 21
6
  0
LINE
  8
0
 10
7.71875
 20
6
 11
7.71556
 21
6.10104
  0
LINE
  8
0
 10
7.71556
 20
6.10104
 11
7.70605
 21
6.20171
  0
LINE
  8
0
 10
7.70605
 20
6.20171
 11
7.69023
 21
6.30156
  0
LINE
  8
0
 10
7.69023
 20
6.30156
 11
7.66818
 21
6.40022
  0
LINE
  8
0
 10
7.66818
 20
6.40022
 11
7.63997
 21
6.49731
  0
LINE
  8
0
 10
7.63997
 20
6.49731
 11
7.60573
 21
6.59244
  0
LINE
  8
0
 10
7.60573
 20
6.59244
 11
7.56557
 21
6.68523
  0
LINE
  8
0
 10
7.56557
 20
6.68523
 11
7.51967
 21
6.77531
  0
LINE
  8
0
 10
7.51967
 20
6.77531
 11
7.4682
 21
6.86234
  0
LINE
  8
0
 10
7.4682
 20
6.86234
 11
7.41138
 21
6.94595
  0
LINE
  8
0
 10
7.41138
 20
6.94595
 11
7.34941
 21
7.02585
  0
LINE
  8
0
 10
7.34941
 20
7.02585
 11
7.28255
 21
7.10168
  0
LINE
  8
0
 10
7.28255
 20
7.10168
 11
7.21106
 21
7.17317
  0
LINE
  8
0
 10
7.21106
 20
7.17317
 11
7.13522
 21
7.24004
  0
LINE
  8
0
 10
7.13522
 20
7.24004
 11
7.05533
 21
7.302
  0
LINE
  8
0
 10
7.05533
 20
7.302
 11
6.97171
 21
7.35883
  0
LINE
  8
0
 10
6.97171
 20
7.35883
 11
6.88469
 21
7.41029
  0
LINE
  8
0
 10
6.88469
 20
7.41029
 11
6.7946
 21
7.45619
  0
LINE
  8
0
 10
6.7946
 20
7.45619
 11
6.70181
 21
7.49635
  0
LINE
  8
0
 10
6.70181
 20
7.49635
 11
6.60669
 21
7.53059
  0
LINE
  8
0
 10
6.60669
 20
7.53059
 11
6.5096
 21
7.55881
  0
LINE
  8
0
 10
6.5096
 20
7.55881
 11
6.41093
 21
7.58086
  0
LINE
  8
0
 10
6.41093
 20
7.58086
 11
6.31108
 21
7.59668
  0
LINE
  8
0
 10
6.31108
 20
7.59668
 11
6.21042
 21
7.60619
  0
LINE
  8
0
 10
6.21042
 20
7.60619
 11
6.10938
 21
7.60938
  0
LINE
  8
0
 10
6.10938
 20
7.60938
 11
6.00832
 21
7.60619
  0
LINE
  8
0
 10
6.00832
 20
7.60619
 11
5.90765
 21
7.59668
  0
LINE
  8
0
 10
5.90765
 20
7.59668
 11
5.8078
 21
7.58086
  0
LINE
  8
0
 10
5.8078
 20
7.58086
 11
5.70914
 21
7.55881
  0
LINE
  8
0
 10
5.70914
 20
7.55881
 11
5.61205
 21
7.53059
  0
LINE
  8
0
 10
5.61205
 20
7.53059
 11
5.51692
 21
7.49635
  0
LINE
  8
0
 10
5.51692
 20
7.49635
 11
5.42413
 21
7.45619
  0
LINE
  8
0
 10
5.42413
 20
7.45619
 11
5.33405
 21
7.41029
  0
LINE
  8
0
 10
5.33405
 20
7.41029
 11
5.24702
 21
7.35883
  0
LINE
  8
0
 10
5.24702
 20
7.35883
 11
5.16341
 21
7.302
  0
LINE
  8
0
 10
5.16341
 20
7.302
 11
5.08351
 21
7.24004
  0
LINE
  8
0
 10
5.08351
 20
7.24004
 11
5.00768
 21
7.17317
  0
LINE
  8
0
 10
5.00768
 20
7.17317
 11
4.93619
 21
7.10168
  0
LINE
  8
0
 10
4.93619
 20
7.10168
 11
4.86932
 21
7.02585
  0
LINE
  8
0
 10
4.86932
 20
7.02585
 11
4.80736
 21
6.94595
  0
LINE
  8
0
 10
4.80736
 20
6.94595
 11
4.75053
 21
6.86234
  0
LINE
  8
0
 10
4.75053
 20
6.86234
 11
4.69907
 21
6.77531
  0
LINE
  8
0
 10
4.69907
 20
6.77531
 11
4.65317
 21
6.68523
  0
LINE
  8
0
 10
4.65317
 20
6.68523
 11
4.61301
 21
6.59244
  0
LINE
  8
0
 10
4.61301
 20
6.59244
 11
4.57877
 21
6.49731
  0
LINE
  8
0
 10
4.57877
 20
6.49731
 11
4.55055
 21
6.40022
  0
LINE
  8
0
 10
4.55055
 20
6.40022
 11
4.5285
 21
6.30156
  0
LINE
  8
0
 10
4.5285
 20
6.30156
 11
4.51268
 21
6.20171
  0
LINE
  8
0
 10
4.51268
 20
6.20171
 11
4.50317
 21
6.10104
  0
LINE
  8
0
 10
4.50317
 20
6.10104
 11
4.5
 21
6
  0
LINE
  8
0
 10
4.5
 20
6
 11
4.5
 21
4.5
  0
LINE
  8
0
 10
4.5
 20
4.5
 11
1.71875
 21
4.5
  0
LINE
  8
0
 10
1.71875
 20
4.5
 11
1.71875
 21
6
  0
LINE
  8
0
 10
1.71875
 20
6
 11
1.71556
 21
6.10104
  0
LINE
  8
0
 10
1.71556
 20
6.10104
 11
1.70605
 21
6.20171
  0
LINE
  8
0
 10
1.70605
 20
6.20171
 11
1.69023
 21
6.30156
  0
LINE
  8
0
 10
1.69023
 20
6.30156
 11
1.66818
 21
6.40022
  0
LINE
  8
0
 10
1.66818
 20
6.40022
 11
1.63997
 21
6.49731
  0
LINE
  8
0
 10
1.63997
 20
6.49731
 11
1.60573
 21
6.59244
  0
LINE
  8
0
 10
1.60573
 20
6.59244
 11
1.56557
 21
6.68523
  0
LINE
  8
0
 10
1.56557
 20
6.68523
 11
1.51967
 21
6.77531
  0
LINE
  8
0
 10
1.51967
 20
6.77531
 11
1.4682
 21
6.86234
  0
LINE
  8
0
 10
1.4682
 20
6.86234
 11
1.41138
 21
6.94595
  0
LINE
  8
0
 10
1.41138
 20
6.94595
 11
1.34941
 21
7.02585
  0
LINE
  8
0
 10
1.34941
 20
7.02585
 11
1.28255
 21
7.10168
  0
LINE
  8
0
 10
1.28255
 20
7.10168
 11
1.21106
 21
7.17317
  0
LINE
  8
0
 10
1.21106
 20
7.17317
 11
1.13522
 21
7.24004
  0
LINE
  8
0
 10
1.13522
 20
7.24004
 11
1.05533
 21
7.302
  0
LINE
  8
0
 10
1.05533
 20
7.302
 11
0.97171
 21
7.35883
  0
LINE
  8
0
 10
0.97171
 20
7.35883
 11
0.884689
 21
7.41029
  0
LINE
  8
0
 10
0.884689
 20
7.41029
 11
0.794601
 21
7.45619
  0
LINE
  8
0
 10
0.794601
 20
7.45619
 11
0.701813
 21
7.49635
  0
LINE
  8
0
 10
0.701813
 20
7.49635
 11
0.606689
 21
7.53059
  0
LINE
  8
0
 10
0.606689
 20
7.53059
 11
0.509598
 21
7.55881
  0
LINE
  8
0
 10
0.509598
 20
7.55881
 11
0.410934
 21
7.58086
  0
LINE
  8
0
 10
0.410934
 20
7.58086
 11
0.311081
 21
7.59668
  0
LINE
  8
0
 10
0.311081
 20
7.59668
 11
0.210419
 21
7.60619
  0
LINE
  8
0
 10
0.210419
 20
7.60619
 11
0.109375
 21
7.60938
  0
LINE
  8
0
 10
0.109375
 20
7.60938
 11
0.00831604
 21
7.60619
  0
LINE
  8
0
 10
0.00831604
 20
7.60619
 11
-0.0923462
 21
7.59668
  0
LINE
  8
0
 10
-0.0923462
 20
7.59668
 11
-0.1922
 21
7.58086
  0
LINE
  8
0
 10
-0.1922
 20
7.58086
 11
-0.290863
 21
7.55881
  0
LINE
  8
0
 10
-0.290863
 20
7.55881
 11
-0.387955
 21
7.53059
  0
LINE
  8
0
 10
-0.387955
 20
7.53059
 11
-0.483078
 21
7.49635
  0
LINE
  8
0
 10
-0.483078
 20
7.49635
 11
-0.575867
 21
7.45619
  0
LINE
  8
0
 10
-0.575867
 20
7.45619
 11
-0.665955
 21
7.41029
  0
LINE
  8
0
 10
-0.665955
 20
7.41029
 11
-0.752975
 21
7.35883
  0
LINE
  8
0
 10
-0.752975
 20
7.35883
 11
-0.836594
 21
7.302
  0
LINE
  8
0
 10
-0.836594
 20
7.302
 11
-0.916489
 21
7.24004
  0
LINE
  8
0
 10
-0.916489
 20
7.24004
 11
-0.992325
 21
7.17317
  0
LINE
  8
0
 10
-0.992325
 20
7.17317
 11
-1.06381
 21
7.10168
  0
LINE
  8
0
 10
-1.06381
 20
7.10168
 11
-1.13068
 21
7.02585
  0
LINE
  8
0
 10
-1.13068
 20
7.02585
 11
-1.19264
 21
6.94595
  0
LINE
  8
0
 10
-1.19264
 20
6.94595
 11
-1.24947
 21
6.86234
  0
LINE
  8
0
 10
-1.24947
 20
6.86234
 11
-1.30093
 21
6.77531
  0
LINE
  8
0
 10
-1.30093
 20
6.77531
 11
-1.34683
 21
6.68523
  0
LINE
  8
0
 10
-1.34683
 20
6.68523
 11
-1.38699
 21
6.59244
  0
LINE
  8
0
 10
-1.38699
 20
6.59244
 11
-1.42123
 21
6.49731
  0
LINE
  8
0
 10
-1.42123
 20
6.49731
 11
-1.44945
 21
6.40022
  0
LINE
  8
0
 10
-1.44945
 20
6.40022
 11
-1.4715
 21
6.30156
  0
LINE
  8
0
 10
-1.4715
 20
6.30156
 11
-1.48732
 21
6.20171
  0
LINE
  8
0
 10
-1.48732
 20
6.20171
 11
-1.49683
 21
6.10104
  0
LINE
  8
0
 10
-1.49683
 20
6.10104
 11
-1.5
 21
6
  0
LINE
  8
0
 10
-1.5
 20
6
 11
-1.5
 21
4.5
  0
LINE
  8
0
 10
-1.5
 20
4.5
 11
-4.28125
 21
4.5
  0
LINE
  8
0
 10
-4.28125
 20
4.5
 11
-4.28125
 21
6
  0
LINE
  8
0
 10
-4.28125
 20
6
 11
-4.28444
 21
6.10104
  0
LINE
  8
0
 10
-4.28444
 20
6.10104
 11
-4.29395
 21
6.20171
  0
LINE
  8
0
 10
-4.29395
 20
6.20171
 11
-4.30977
 21
6.30156
  0
LINE
  8
0
 10
-4.30977
 20
6.30156
 11
-4.33182
 21
6.40022
  0
LINE
  8
0
 10
-4.33182
 20
6.40022
 11
-4.36003
 21
6.49731
  0
LINE
  8
0
 10
-4.36003
 20
6.49731
 11
-4.39427
 21
6.59244
  0
LINE
  8
0
 10
-4.39427
 20
6.59244
 11
-4.43443
 21
6.68523
  0
LINE
  8
0
 10
-4.43443
 20
6.68523
 11
-4.48033
 21
6.77531
  0
LINE
  8
0
 10
-4.48033
 20
6.77531
 11
-4.5318
 21
6.86234
  0
LINE
  8
0
 10
-4.5318
 20
6.86234
 11
-4.58862
 21
6.94595
  0
LINE
  8
0
 10
-4.58862
 20
6.94595
 11
-4.65059
 21
7.02585
  0
LINE
  8
0
 10
-4.65059
 20
7.02585
 11
-4.71745
 21
7.10168
  0
LINE
  8
0
 10
-4.71745
 20
7.10168
 11
-4.78894
 21
7.17317
  0
LINE
  8
0
 10
-4.78894
 20
7.17317
 11
-4.86478
 21
7.24004
  0
LINE
  8
0
 10
-4.86478
 20
7.24004
 11
-4.94467
 21
7.302
  0
LINE
  8
0
 10
-4.94467
 20
7.302
 11
-5.02829
 21
7.35883
  0
LINE
  8
0
 10
-5.02829
 20
7.35883
 11
-5.11531
 21
7.41029
  0
LINE
  8
0
 10
-5.11531
 20
7.41029
 11
-5.2054
 21
7.45619
  0
LINE
  8
0
 10
-5.2054
 20
7.45619
 11
-5.29819
 21
7.49635
  0
LINE
  8
0
 10
-5.29819
 20
7.49635
 11
-5.39331
 21
7.53059
  0
LINE
  8
0
 10
-5.39331
 20
7.53059
 11
-5.4904
 21
7.55881
  0
LINE
  8
0
 10
-5.4904
 20
7.55881
 11
-5.58907
 21
7.58086
  0
LINE
  8
0
 10
-5.58907
 20
7.58086
 11
-5.68892
 21
7.59668
  0
LINE
  8
0
 10
-5.68892
 20
7.59668
 11
-5.78958
 21
7.60619
  0
LINE
  8
0
 10
-5.78958
 20
7.60619
 11
-5.89062
 21
7.60938
  0
LINE
  8
0
 10
-5.89062
 20
7.60938
 11
-5.99168
 21
7.60619
  0
LINE
  8
0
 10
-5.99168
 20
7.60619
 11
-6.09235
 21
7.59668
  0
LINE
  8
0
 10
-6.09235
 20
7.59668
 11
-6.1922
 21
7.58086
  0
LINE
  8
0
 10
-6.1922
 20
7.58086
 11
-6.29086
 21
7.55881
  0
LINE
  8
0
 10
-6.29086
 20
7.55881
 11
-6.38795
 21
7.53059
  0
LINE
  8
0
 10
-6.38795
 20
7.53059
 11
-6.48308
 21
7.49635
  0
LINE
  8
0
 10
-6.48308
 20
7.49635
 11
-6.57587
 21
7.45619
  0
LINE
  8
0
 10
-6.57587
 20
7.45619
 11
-6.66595
 21
7.41029
  0
LINE
  8
0
 10
-6.66595
 20
7.41029
 11
-6.75298
 21
7.35883
  0
LINE
  8
0
 10
-6.75298
 20
7.35883
 11
-6.83659
 21
7.302
  0
LINE
  8
0
 10
-6.83659
 20
7.302
 11
-6.91649
 21
7.24004
  0
LINE
  8
0
 10
-6.91649
 20
7.24004
 11
-6.99232
 21
7.17317
  0
LINE
  8
0
 10
-6.99232
 20
7.17317
 11
-7.06381
 21
7.10168
  0
LINE
  8
0
 10
-7.06381
 20
7.10168
 11
-7.13068
 21
7.02585
  0
LINE
  8
0
 10
-7.13068
 20
7.02585
 11
-7.19264
 21
6.94595
  0
LINE
  8
0
 10
-7.19264
 20
6.94595
 11
-7.24947
 21
6.86234
  0
LINE
  8
0
 10
-7.24947
 20
6.86234
 11
-7.30093
 21
6.77531
  0
LINE
  8
0
 10
-7.30093
 20
6.77531
 11
-7.34683
 21
6.68523
  0
LINE
  8
0
 10
-7.34683
 20
6.68523
 11
-7.38699
 21
6.59244
  0
LINE
  8
0
 10
-7.38699
 20
6.59244
 11
-7.42123
 21
6.49731
  0
LINE
  8
0
 10
-7.42123
 20
6.49731
 11
-7.44945
 21
6.40022
  0
LINE
  8
0
 10
-7.44945
 20
6.40022
 11
-7.4715
 21
6.30156
  0
LINE
  8
0
 10
-7.4715
 20
6.30156
 11
-7.48732
 21
6.20171
  0
LINE
  8
0
 10
-7.48732
 20
6.20171
 11
-7.49683
 21
6.10104
  0
LINE
  8
0
 10
-7.49683
 20
6.10104
 11
-7.5
 21
6
  0
LINE
  8
0
 10
-7.5
 20
6
 11
-7.5
 21
4.5
  0
LINE
  8
0
 10
-7.5
 20
4.5
 11
-15
 21
4.5
  0
LINE
  8
0
 10
-15
 20
4.5
 11
-15.101
 21
4.49683
  0
LINE
  8
0
 10
-15.101
 20
4.49683
 11
-15.2017
 21
4.48732
  0
LINE
  8
0
 10
-15.2017
 20
4.48732
 11
-15.3016
 21
4.4715
  0
LINE
  8
0
 10
-15.3016
 20
4.4715
 11
-15.4002
 21
4.44945
  0
LINE
  8
0
 10
-15.4002
 20
4.44945
 11
-15.4973
 21
4.42123
  0
LINE
  8
0
 10
-15.4973
 20
4.42123
 11
-15.5924
 21
4.38699
  0
LINE
  8
0
 10
-15.5924
 20
4.38699
 11
-15.6852
 21
4.34683
  0
LINE
  8
0
 10
-15.6852
 20
4.34683
 11
-15.7753
 21
4.30093
  0
LINE
  8
0
 10
-15.7753
 20
4.30093
 11
-15.8623
 21
4.24947
  0
LINE
  8
0
 10
-15.8623
 20
4.24947
 11
-15.946
 21
4.19264
  0
LINE
  8
0
 10
-15.946
 20
4.19264
 11
-16.0258
 21
4.13068
  0
LINE
  8
0
 10
-16.0258
 20
4.13068
 11
-16.1017
 21
4.06381
  0
LINE
  8
0
 10
-16.1017
 20
4.06381
 11
-16.1732
 21
3.99232
  0
LINE
  8
0
 10
-16.1732
 20
3.99232
 11
-16.24
 21
3.91649
  0
LINE
  8
0
 10
-16.24
 20
3.91649
 11
-16.302
 21
3.83659
  0
LINE
  8
0
 10
-16.302
 20
3.83659
 11
-16.3588
 21
3.75298
  0
LINE
  8
0
 10
-16.3588
 20
3.75298
 11
-16.4103
 21
3.66595
  0
LINE
  8
0
 10
-16.4103
 20
3.66595
 11
-16.4562
 21
3.57587
  0
LINE
  8
0
 10
-16.4562
 20
3.57587
 11
-16.4964
 21
3.48308
  0
LINE
  8
0
 10
-16.4964
 20
3.48308
 11
-16.5306
 21
3.38795
  0
LINE
  8
0
 10
-16.5306
 20
3.38795
 11
-16.5588
 21
3.29086
  0
LINE
  8
0
 10
-16.5588
 20
3.29086
 11
-16.5809
 21
3.1922
  0
LINE
  8
0
 10
-16.5809
 20
3.1922
 11
-16.5967
 21
3.09235
  0
LINE
  8
0
 10
-16.5967
 20
3.09235
 11
-16.6062
 21
2.99168
  0
LINE
  8
0
 10
-16.6062
 20
2.99168
 11
-16.6094
 21
2.89062
  0
LINE
  8
0
 10
-16.6094
 20
2.89062
 11
-16.6062
 21
2.78958
  0
LINE
  8
0
 10
-16.6062
 20
2.78958
 11
-16.5967
 21
2.68892
  0
LINE
  8
0
 10
-16.5967
 20
2.68892
 11
-16.5809
 21
2.58907
  0
LINE
  8
0
 10
-16.5809
 20
2.58907
 11
-16.5588
 21
2.4904
  0
LINE
  8
0
 10
-16.5588
 20
2.4904
 11
-16.5306
 21
2.39331
  0
LINE
  8
0
 10
-16.5306
 20
2.39331
 11
-16.4964
 21
2.29819
  0
LINE
  8
0
 10
-16.4964
 20
2.29819
 11
-16.4562
 21
2.2054
  0
LINE
  8
0
 10
-16.4562
 20
2.2054
 11
-16.4103
 21
2.11531
  0
LINE
  8
0
 10
-16.4103
 20
2.11531
 11
-16.3588
 21
2.02829
  0
LINE
  8
0
 10
-16.3588
 20
2.02829
 11
-16.302
 21
1.94467
  0
LINE
  8
0
 10
-16.302
 20
1.94467
 11
-16.24
 21
1.86478
  0
LINE
  8
0
 10
-16.24
 20
1.86478
 11
-16.1732
 21
1.78894
  0
LINE
  8
0
 10
-16.1732
 20
1.78894
 11
-16.1017
 21
1.71745
  0
LINE
  8
0
 10
-16.1017
 20
1.71745
 11
-16.0258
 21
1.65059
  0
LINE
  8
0
 10
-16.0258
 20
1.65059
 11
-15.946
 21
1.58862
  0
LINE
  8
0
 10
-15.946
 20
1.58862
 11
-15.8623
 21
1.5318
  0
LINE
  8
0
 10
-15.8623
 20
1.5318
 11
-15.7753
 21
1.48033
  0
LINE
  8
0
 10
-15.7753
 20
1.48033
 11
-15.6852
 21
1.43443
  0
LINE
  8
0
 10
-15.6852
 20
1.43443
 11
-15.5924
 21
1.39427
  0
LINE
  8
0
 10
-15.5924
 20
1.39427
 11
-15.4973
 21
1.36003
  0
LINE
  8
0
 10
-15.4973
 20
1.36003
 11
-15.4002
 21
1.33182
  0
LINE
  8
0
 10
-15.4002
 20
1.33182
 11
-15.3016
 21
1.30977
  0
LINE
  8
0
 10
-15.3016
 20
1.30977
 11
-15.2017
 21
1.29395
  0
LINE
  8
0
 10
-15.2017
 20
1.29395
 11
-15.101
 21
1.28444
  0
LINE
  8
0
 10
-15.101
 20
1.28444
 11
-15
 21
1.28125
  0
LINE
  8
0
 10
-15
 20
1.28125
 11
-13.5
 21
1.28125
  0
LINE
  8
0
 10
-13.5
 20
1.28125
 11
-13.5
 21
-1.28125
  0
LINE
  8
0
 10
-13.5
 20
-1.28125
 11
-15
 21
-1.28125
  0
LINE
  8
0
 10
-15
 20
-1.28125
 11
-15.101
 21
-1.28444
  0
LINE
  8
0
 10
-15.101
 20
-1.28444
 11
-15.2017
 21
-1.29395
  0
LINE
  8
0
 10
-15.2017
 20
-1.29395
 11
-15.3016
 21
-1.30977
  0
LINE
  8
0
 10
-15.3016
 20
-1.30977
 11
-15.4002
 21
-1.33182
  0
LINE
  8
0
 10
-15.4002
 20
-1.33182
 11
-15.4973
 21
-1.36003
  0
LINE
  8
0
 10
-15.4973
 20
-1.36003
 11
-15.5924
 21
-1.39427
  0
LINE
  8
0
 10
-15.5924
 20
-1.39427
 11
-15.6852
 21
-1.43443
  0
LINE
  8
0
 10
-15.6852
 20
-1.43443
 11
-15.7753
 21
-1.48033
  0
LINE
  8
0
 10
-15.7753
 20
-1.48033
 11
-15.8623
 21
-1.5318
  0
LINE
  8
0
 10
-15.8623
 20
-1.5318
 11
-15.946
 21
-1.58862
  0
LINE
  8
0
 10
-15.946
 20
-1.58862
 11
-16.0258
 21
-1.65059
  0
LINE
  8
0
 10
-16.0258
 20
-1.65059
 11
-16.1017
 21
-1.71745
  0
LINE
  8
0
 10
-16.1017
 20
-1.71745
 11
-16.1732
 21
-1.78894
  0
LINE
  8
0
 10
-16.1732
 20
-1.78894
 11
-16.24
 21
-1.86478
  0
LINE
  8
0
 10
-16.24
 20
-1.86478
 11
-16.302
 21
-1.94467
  0
LINE
  8
0
 10
-16.302
 20
-1.94467
 11
-16.3588
 21
-2.02829
  0
LINE
  8
0
 10
-16.3588
 20
-2.02829
 11
-16.4103
 21
-2.11531
  0
LINE
  8
0
 10
-16.4103
 20
-2.11531
 11
-16.4562
 21
-2.2054
  0
LINE
  8
0
 10
-16.4562
 20
-2.2054
 11
-16.4964
 21
-2.29819
  0
LINE
  8
0
 10
-16.4964
 20
-2.29819
 11
-16.5306
 21
-2.39331
  0
LINE
  8
0
 10
-16.5306
 20
-2.39331
 11
-16.5588
 21
-2.4904
  0
LINE
  8
0
 10
-16.5588
 20
-2.4904
 11
-16.5809
 21
-2.58907
  0
LINE
  8
0
 10
-16.5809
 20
-2.58907
 11
-16.5967
 21
-2.68892
  0
LINE
  8
0
 10
-16.5967
 20
-2.68892
 11
-16.6062
 21
-2.78958
  0
LINE
  8
0
 10
-16.6062
 20
-2.78958
 11
-16.6094
 21
-2.89062
  0
LINE
  8
0
 10
-16.6094
 20
-2.89062
 11
-16.6062
 21
-2.99168
  0
LINE
  8
0
 10
-16.6062
 20
-2.99168
 11
-16.5967
 21
-3.09235
  0
LINE
  8
0
 10
-16.5967
 20
-3.09235
 11
-16.5809
 21
-3.1922
  0
LINE
  8
0
 10
-16.5809
 20
-3.1922
 11
-16.5588
 21
-3.29086
  0
LINE
  8
0
 10
-16.5588
 20
-3.29086
 11
-16.5306
 21
-3.38795
  0
LINE
  8
0
 10
-16.5306
 20
-3.38795
 11
-16.4964
 21
-3.48308
  0
LINE
  8
0
 10
-16.4964
 20
-3.48308
 11
-16.4562
 21
-3.57587
  0
LINE
  8
0
 10
-16.4562
 20
-3.57587
 11
-16.4103
 21
-3.66595
  0
LINE
  8
0
 10
-16.4103
 20
-3.66595
 11
-16.3588
 21
-3.75298
  0
LINE
  8
0
 10
-16.3588
 20
-3.75298
 11
-16.302
 21
-3.83659
  0
LINE
  8
0
 10
-16.302
 20
-3.83659
 11
-16.24
 21
-3.91649
  0
LINE
  8
0
 10
-16.24
 20
-3.91649
 11
-16.1732
 21
-3.99232
  0
LINE
  8
0
 10
-16.1732
 20
-3.99232
 11
-16.1017
 21
-4.06381
  0
LINE
  8
0
 10
-16.1017
 20
-4.06381
 11
-16.0258
 21
-4.13068
  0
LINE
  8
0
 10
-16.0258
 20
-4.13068
 11
-15.946
 21
-4.19264
  0
LINE
  8
0
 10
-15.946
 20
-4.19264
 11
-15.8623
 21
-4.24947
  0
LINE
  8
0
 10
-15.8623
 20
-4.24947
 11
-15.7753
 21
-4.30093
  0
LINE
  8
0
 10
-15.7753
 20
-4.30093
 11
-15.6852
 21
-4.34683
  0
LINE
  8
0
 10
-15.6852
 20
-4.34683
 11
-15.5924
 21
-4.38699
  0
LINE
  8
0
 10
-15.5924
 20
-4.38699
 11
-15.4973
 21
-4.42123
  0
LINE
  8
0
 10
-15.4973
 20
-4.42123
 11
-15.4002
 21
-4.44945
  0
LINE
  8
0
 10
-15.4002
 20
-4.44945
 11
-15.3016
 21
-4.4715
  0
LINE
  8
0
 10
-15.3016
 20
-4.4715
 11
-15.2017
 21
-4.48732
  0
LINE
  8
0
 10
-15.2017
 20
-4.48732
 11
-15.101
 21
-4.49683
  0
LINE
  8
0
 10
-15.101
 20
-4.49683
 11
-15
 21
-4.5
  0
LINE
  8
0
 10
-15
 20
-4.5
 11
-7.5
 21
-4.5
  0
LINE
  8
0
 10
-7.5
 20
-4.5
 11
-7.5
 21
-6
  0
LINE
  8
0
 10
-7.5
 20
-6
 11
-7.49683
 21
-6.10104
  0
LINE
  8
0
 10
-7.49683
 20
-6.10104
 11
-7.48732
 21
-6.20171
  0
LINE
  8
0
 10
-7.48732
 20
-6.20171
 11
-7.4715
 21
-6.30156
  0
LINE
  8
0
 10
-7.4715
 20
-6.30156
 11
-7.44945
 21
-6.40022
  0
LINE
  8
0
 10
-7.44945
 20
-6.40022
 11
-7.42123
 21
-6.49731
  0
LINE
  8
0
 10
-7.42123
 20
-6.49731
 11
-7.38699
 21
-6.59244
  0
LINE
  8
0
 10
-7.38699
 20
-6.59244
 11
-7.34683
 21
-6.68523
  0
LINE
  8
0
 10
-7.34683
 20
-6.68523
 11
-7.30093
 21
-6.77531
  0
LINE
  8
0
 10
-7.30093
 20
-6.77531
 11
-7.24947
 21
-6.86234
  0
LINE
  8
0
 10
-7.24947
 20
-6.86234
 11
-7.19264
 21
-6.94595
  0
LINE
  8
0
 10
-7.19264
 20
-6.94595
 11
-7.13068
 21
-7.02585
  0
LINE
  8
0
 10
-7.13068
 20
-7.02585
 11
-7.06381
 21
-7.10168
  0
LINE
  8
0
 10
-7.06381
 20
-7.10168
 11
-6.99232
 21
-7.17317
  0
LINE
  8
0
 10
-6.99232
 20
-7.17317
 11
-6.91649
 21
-7.24004
  0
LINE
  8
0
 10
-6.91649
 20
-7.24004
 11
-6.83659
 21
-7.302
  0
LINE
  8
0
 10
-6.83659
 20
-7.302
 11
-6.75298
 21
-7.35883
  0
LINE
  8
0
 10
-6.75298
 20
-7.35883
 11
-6.66595
 21
-7.41029
  0
LINE
  8
0
 10
-6.66595
 20
-7.41029
 11
-6.57587
 21
-7.45619
  0
LINE
  8
0
 10
-6.57587
 20
-7.45619
 11
-6.48308
 21
-7.49635
  0
LINE
  8
0
 10
-6.48308
 20
-7.49635
 11
-6.38795
 21
-7.53059
  0
LINE
  8
0
 10
-6.38795
 20
-7.53059
 11
-6.29086
 21
-7.55881
  0
LINE
  8
0
 10
-6.29086
 20
-7.55881
 11
-6.1922
 21
-7.58086
  0
LINE
  8
0
 10
-6.1922
 20
-7.58086
 11
-6.09235
 21
-7.59668
  0
LINE
  8
0
 10
-6.09235
 20
-7.59668
 11
-5.99168
 21
-7.60619
  0
LINE
  8
0
 10
-5.99168
 20
-7.60619
 11
-5.89062
 21
-7.60938
  0
LINE
  8
0
 10
-5.89062
 20
-7.60938
 11
-5.78958
 21
-7.60619
  0
LINE
  8
0
 10
-5.78958
 20
-7.60619
 11
-5.68892
 21
-7.59668
  0
LINE
  8
0
 10
-5.68892
 20
-7.59668
 11
-5.58907
 21
-7.58086
  0
LINE
  8
0
 10
-5.58907
 20
-7.58086
 11
-5.4904
 21
-7.55881
  0
LINE
  8
0
 10
-5.4904
 20
-7.55881
 11
-5.39331
 21
-7.53059
  0
LINE
  8
0
 10
-5.39331
 20
-7.53059
 11
-5.29819
 21
-7.49635
  0
LINE
  8
0
 10
-5.29819
 20
-7.49635
 11
-5.2054
 21
-7.45619
  0
LINE
  8
0
 10
-5.2054
 20
-7.45619
 11
-5.11531
 21
-7.41029
  0
LINE
  8
0
 10
-5.11531
 20
-7.41029
 11
-5.02829
 21
-7.35883
  0
LINE
  8
0
 10
-5.02829
 20
-7.35883
 11
-4.94467
 21
-7.302
  0
LINE
  8
0
 10
-4.94467
 20
-7.302
 11
-4.86478
 21
-7.24004
  0
LINE
  8
0
 10
-4.86478
 20
-7.24004
 11
-4.78894
 21
-7.17317
  0
LINE
  8
0
 10
-4.78894
 20
-7.17317
 11
-4.71745
 21
-7.10168
  0
LINE
  8
0
 10
-4.71745
 20
-7.10168
 11
-4.65059
 21
-7.02585
  0
LINE
  8
0
 10
-4.65059
 20
-7.02585
 11
-4.58862
 21
-6.94595
  0
LINE
  8
0
 10
-4.58862
 20
-6.94595
 11
-4.5318
 21
-6.86234
  0
LINE
  8
0
 10
-4.5318
 20
-6.86234
 11
-4.48033
 21
-6.77531
  0
LINE
  8
0
 10
-4.48033
 20
-6.77531
 11
-4.43443
 21
-6.68523
  0
LINE
  8
0
 10
-4.43443
 20
-6.68523
 11
-4.39427
 21
-6.59244
  0
LINE
  8
0
 10
-4.39427
 20
-6.59244
 11
-4.36003
 21
-6.49731
  0
LINE
  8
0
 10
-4.36003
 20
-6.49731
 11
-4.33182
 21
-6.40022
  0
LINE
  8
0
 10
-4.33182
 20
-6.40022
 11
-4.30977
 21
-6.30156
  0
LINE
  8
0
 10
-4.30977
 20
-6.30156
 11
-4.29395
 21
-6.20171
  0
LINE
  8
0
 10
-4.29395
 20
-6.20171
 11
-4.28444
 21
-6.10104
  0
LINE
  8
0
 10
-4.28444
 20
-6.10104
 11
-4.28125
 21
-6
  0
LINE
  8
0
 10
-4.28125
 20
-6
 11
-4.28125
 21
-4.5
  0
LINE
  8
0
 10
-4.28125
 20
-4.5
 11
-1.5
 21
-4.5
  0
LINE
  8
0
 10
-1.5
 20
-4.5
 11
-1.5
 21
-6
  0
LINE
  8
0
 10
-1.5
 20
-6
 11
-1.49683
 21
-6.10104
  0
LINE
  8
0
 10
-1.49683
 20
-6.10104
 11
-1.48732
 21
-6.20171
  0
LINE
  8
0
 10
-1.48732
 20
-6.20171
 11
-1.4715
 21
-6.30156
  0
LINE
  8
0
 10
-1.4715
 20
-6.30156
 11
-1.44945
 21
-6.40022
  0
LINE
  8
0
 10
-1.44945
 20
-6.40022
 11
-1.42123
 21
-6.49731
  0
LINE
  8
0
 10
-1.42123
 20
-6.49731
 11
-1.38699
 21
-6.59244
  0
LINE
  8
0
 10
-1.38699
 20
-6.59244
 11
-1.34683
 21
-6.68523
  0
LINE
  8
0
 10
-1.34683
 20
-6.68523
 11
-1.30093
 21
-6.77531
  0
LINE
  8
0
 10
-1.30093
 20
-6.77531
 11
-1.24947
 21
-6.86234
  0
LINE
  8
0
 10
-1.24947
 20
-6.86234
 11
-1.19264
 21
-6.94595
  0
LINE
  8
0
 10
-1.19264
 20
-6.94595
 11
-1.13068
 21
-7.02585
  0
LINE
  8
0
 10
-1.13068
 20
-7.02585
 11
-1.06381
 21
-7.10168
  0
LINE
  8
0
 10
-1.06381
 20
-7.10168
 11
-0.992325
 21
-7.17317
  0
LINE
  8
0
 10
-0.992325
 20
-7.17317
 11
-0.916489
 21
-7.24004
  0
LINE
  8
0
 10
-0.916489
 20
-7.24004
 11
-0.836594
 21
-7.302
  0
LINE
  8
0
 10
-0.836594
 20
-7.302
 11
-0.752975
 21
-7.35883
  0
LINE
  8
0
 10
-0.752975
 20
-7.35883
 11
-0.665955
 21
-7.41029
  0
LINE
  8
0
 10
-0.665955
 20
-7.41029
 11
-0.575867
 21
-7.45619
  0
LINE
  8
0
 10
-0.575867
 20
-7.45619
 11
-0.483078
 21
-7.49635
  0
LINE
  8
0
 10
-0.483078
 20
-7.49635
 11
-0.387955
 21
-7.53059
  0
LINE
  8
0
 10
-0.387955
 20
-7.53059
 11
-0.290863
 21
-7.55881
  0
LINE
  8
0
 10
-0.290863
 20
-7.55881
 11
-0.1922
 21
-7.58086
  0
LINE
  8
0
 10
-0.1922
 20
-7.58086
 11
-0.0923462
 21
-7.59668
  0
LINE
  8
0
 10
-0.0923462
 20
-7.59668
 11
0.00831604
 21
-7.60619
  0
LINE
  8
0
 10
0.00831604
 20
-7.60619
 11
0.109375
 21
-7.60938
  0
LINE
  8
0
 10
0.109375
 20
-7.60938
 11
0.210419
 21
-7.60619
  0
LINE
  8
0
 10
0.210419
 20
-7.60619
 11
0.311081
 21
-7.59668
  0
LINE
  8
0
 10
0.311081
 20
-7.59668
 11
0.410934
 21
-7.58086
  0
LINE
  8
0
 10
0.410934
 20
-7.58086
 11
0.509598
 21
-7.55881
  0
LINE
  8
0
 10
0.509598
 20
-7.55881
 11
0.606689
 21
-7.53059
  0
LINE
  8
0
 10
0.606689
 20
-7.53059
 11
0.701813
 21
-7.49635
  0
LINE
  8
0
 10
0.701813
 20
-7.49635
 11
0.794601
 21
-7.45619
  0
LINE
  8
0
 10
0.794601
 20
-7.45619
 11
0.884689
 21
-7.41029
  0
LINE
  8
0
 10
0.884689
 20
-7.41029
 11
0.97171
 21
-7.35883
  0
LINE
  8
0
 10
0.97171
 20
-7.35883
 11
1.05533
 21
-7.302
  0
LINE
  8
0
 10
1.05533
 20
-7.302
 11
1.13522
 21
-7.24004
  0
LINE
  8
0
 10
1.13522
 20
-7.24004
 11
1.21106
 21
-7.17317
  0
LINE
  8
0
 10
1.21106
 20
-7.17317
 11
1.28255
 21
-7.10168
  0
LINE
  8
0
 10
1.28255
 20
-7.10168
 11
1.34941
 21
-7.02585
  0
LINE
  8
0
 10
1.34941
 20
-7.02585
 11
1.41138
 21
-6.94595
  0
LINE
  8
0
 10
1.41138
 20
-6.94595
 11
1.4682
 21
-6.86234
  0
LINE
  8
0
 10
1.4682
 20
-6.86234
 11
1.51967
 21
-6.77531
  0
LINE
  8
0
 10
1.51967
 20
-6.77531
 11
1.56557
 21
-6.68523
  0
LINE
  8
0
 10
1.56557
 20
-6.68523
 11
1.60573
 21
-6.59244
  0
LINE
  8
0
 10
1.60573
 20
-6.59244
 11
1.63997
 21
-6.49731
  0
LINE
  8
0
 10
1.63997
 20
-6.49731
 11
1.66818
 21
-6.40022
  0
LINE
  8
0
 10
1.66818
 20
-6.40022
 11
1.69023
 21
-6.30156
  0
LINE
  8
0
 10
1.69023
 20
-6.30156
 11
1.70605
 21
-6.20171
  0
LINE
  8
0
 10
1.70605
 20
-6.20171
 11
1.71556
 21
-6.10104
  0
LINE
  8
0
 10
1.71556
 20
-6.10104
 11
1.71875
 21
-6
  0
LINE
  8
0
 10
1.71875
 20
-6
 11
1.71875
 21
-4.5
  0
LINE
  8
0
 10
1.71875
 20
-4.5
 11
4.5
 21
-4.5
  0
LINE
  8
0
 10
4.5
 20
-4.5
 11
4.5
 21
-6
  0
LINE
  8
0
 10
4.5
 20
-6
 11
4.50317
 21
-6.10104
  0
LINE
  8
0
 10
4.50317
 20
-6.10104
 11
4.51268
 21
-6.20171
  0
LINE
  8
0
 10
4.51268
 20
-6.20171
 11
4.5285
 21
-6.30156
  0
LINE
  8
0
 10
4.5285
 20
-6.30156
 11
4.55055
 21
-6.40022
  0
LINE
  8
0
 10
4.55055
 20
-6.40022
 11
4.57877
 21
-6.49731
  0
LINE
  8
0
 10
4.57877
 20
-6.49731
 11
4.61301
 21
-6.59244
  0
LINE
  8
0
 10
4.61301
 20
-6.59244
 11
4.65317
 21
-6.68523
  0
LINE
  8
0
 10
4.65317
 20
-6.68523
 11
4.69907
 21
-6.77531
  0
LINE
  8
0
 10
4.69907
 20
-6.77531
 11
4.75053
 21
-6.86234
  0
LINE
  8
0
 10
4.75053
 20
-6.86234
 11
4.80736
 21
-6.94595
  0
LINE
  8
0
 10
4.80736
 20
-6.94595
 11
4.86932
 21
-7.02585
  0
LINE
  8
0
 10
4.86932
 20
-7.02585
 11
4.93619
 21
-7.10168
  0
LINE
  8
0
 10
4.93619
 20
-7.10168
 11
5.00768
 21
-7.17317
  0
LINE
  8
0
 10
5.00768
 20
-7.17317
 11
5.08351
 21
-7.24004
  0
LINE
  8
0
 10
5.08351
 20
-7.24004
 11
5.16341
 21
-7.302
  0
LINE
  8
0
 10
5.16341
 20
-7.302
 11
5.24702
 21
-7.35883
  0
LINE
  8
0
 10
5.24702
 20
-7.35883
 11
5.33405
 21
-7.41029
  0
LINE
  8
0
 10
5.33405
 20
-7.41029
 11
5.42413
 21
-7.45619
  0
LINE
  8
0
 10
5.42413
 20
-7.45619
 11
5.51692
 21
-7.49635
  0
LINE
  8
0
 10
5.51692
 20
-7.49635
 11
5.61205
 21
-7.53059
  0
LINE
  8
0
 10
5.61205
 20
-7.53059
 11
5.70914
 21
-7.55881
  0
LINE
  8
0
 10
5.70914
 20
-7.55881
 11
5.8078
 21
-7.58086
  0
LINE
  8
0
 10
5.8078
 20
-7.58086
 11
5.90765
 21
-7.59668
  0
LINE
  8
0
 10
5.90765
 20
-7.59668
 11
6.00832
 21
-7.60619
  0
LINE
  8
0
 10
6.00832
 20
-7.60619
 11
6.10938
 21
-7.60938
  0
LINE
  8
0
 10
6.10938
 20
-7.60938
 11
6.21042
 21
-7.60619
  0
LINE
  8
0
 10
-13.2
 20
-4
 11
-13.2
 21
-3
  0
LINE
  8
0
 10
-13.2
 20
-3
 11
-12
 21
-3
  0
LINE
  8
0
 10
-12
 20
-3
 11
-11.8116
 21
-2.99408
  0
LINE
  8
0
 10
-11.8116
 20
-2.99408
 11
-11.624
 21
-2.97633
  0
LINE
  8
0
 10
-11.624
 20
-2.97633
 11
-11.4379
 21
-2.94685
  0
LINE
  8
0
 10
-11.4379
 20
-2.94685
 11
-11.2539
 21
-2.90575
  0
LINE
  8
0
 10
-11.2539
 20
-2.90575
 11
-11.073
 21
-2.85316
  0
LINE
  8
0
 10
-11.073
 20
-2.85316
 11
-10.8956
 21
-2.78932
  0
LINE
  8
0
 10
-10.8956
 20
-2.78932
 11
-10.7227
 21
-2.71448
  0
LINE
  8
0
 10
-10.7227
 20
-2.71448
 11
-10.5547
 21
-2.62891
  0
LINE
  8
0
 10
-10.5547
 20
-2.62891
 11
-10.3925
 21
-2.53297
  0
LINE
  8
0
 10
-10.3925
 20
-2.53297
 11
-10.2366
 21
-2.42705
  0
LINE
  8
0
 10
-10.2366
 20
-2.42705
 11
-10.0877
 21
-2.31154
  0
LINE
  8
0
 10
-10.0877
 20
-2.31154
 11
-9.94637
 21
-2.1869
  0
LINE
  8
0
 10
-9.94637
 20
-2.1869
 11
-9.8131
 21
-2.05363
  0
LINE
  8
0
 10
-9.8131
 20
-2.05363
 11
-9.68846
 21
-1.91226
  0
LINE
  8
0
 10
-9.68846
 20
-1.91226
 11
-9.57295
 21
-1.76335
  0
LINE
  8
0
 10
-9.57295
 20
-1.76335
 11
-9.46703
 21
-1.60747
  0
LINE
  8
0
 10
-9.46703
 20
-1.60747
 11
-9.37109
 21
-1.44525
  0
LINE
  8
0
 10
-9.37109
 20
-1.44525
 11
-9.28552
 21
-1.27733
  0
LINE
  8
0
 10
-9.28552
 20
-1.27733
 11
-9.21068
 21
-1.10437
  0
LINE
  8
0
 10
-9.21068
 20
-1.10437
 11
-9.14684
 21
-0.927048
  0
LINE
  8
0
 10
-9.14684
 20
-0.927048
 11
-9.09425
 21
-0.746063
  0
LINE
  8
0
 10
-9.09425
 20
-0.746063
 11
-9.05315
 21
-0.562134
  0
LINE
  8
0
 10
-9.05315
 20
-0.562134
 11
-9.02367
 21
-0.375992
  0
LINE
  8
0
 10
-9.02367
 20
-0.375992
 11
-9.00592
 21
-0.18837
  0
LINE
  8
0
 10
-9.00592
 20
-0.18837
 11
-9
 21
0
  0
LINE
  8
0
 10
-9
 20
0
 11
-9.00592
 21
0.18837
  0
LINE
  8
0
 10
-9.00592
 20
0.18837
 11
-9.02367
 21
0.375992
  0
LINE
  8
0
 10
-9.02367
 20
0.375992
 11
-9.05315
 21
0.562134
  0
LINE
  8
0
 10
-9.05315
 20
0.562134
 11
-9.09425
 21
0.746063
  0
LINE
  8
0
 10
-9.09425
 20
0.746063
 11
-9.14684
 21
0.927048
  0
LINE
  8
0
 10
-9.14684
 20
0.927048
 11
-9.21068
 21
1.10437
  0
LINE
  8
0
 10
-9.21068
 20
1.10437
 11
-9.28552
 21
1.27733
  0
LINE
  8
0
 10
-9.28552
 20
1.27733
 11
-9.37109
 21
1.44525
  0
LINE
  8
0
 10
-9.37109
 20
1.44525
 11
-9.46703
 21
1.60747
  0
LINE
  8
0
 10
-9.46703
 20
1.60747
 11
-9.57295
 21
1.76335
  0
LINE
  8
0
 10
-9.57295
 20
1.76335
 11
-9.68846
 21
1.91226
  0
LINE
  8
0
 10
-9.68846
 20
1.91226
 11
-9.8131
 21
2.05363
  0
LINE
  8
0
 10
-9.8131
 20
2.05363
 11
-9.94637
 21
2.1869
  0
LINE
  8
0
 10
-9.94637
 20
2.1869
 11
-10.0877
 21
2.31154
  0
LINE
  8
0
 10
-10.0877
 20
2.31154
 11
-10.2366
 21
2.42705
  0
LINE
  8
0
 10
-10.2366
 20
2.42705
 11
-10.3925
 21
2.53297
  0
LINE
  8
0
 10
-10.3925
 20
2.53297
 11
-10.5547
 21
2.62891
  0
LINE
  8
0
 10
-10.5547
 20
2.62891
 11
-10.7227
 21
2.71448
  0
LINE
  8
0
 10
-10.7227
 20
2.71448
 11
-10.8956
 21
2.78932
  0
LINE
  8
0
 10
-10.8956
 20
2.78932
 11
-11.073
 21
2.85316
  0
LINE
  8
0
 10
-11.073
 20
2.85316
 11
-11.2539
 21
2.90575
  0
LINE
  8
0
 10
-11.2539
 20
2.90575
 11
-11.4379
 21
2.94685
  0
LINE
  8
0
 10
-11.4379
 20
2.94685
 11
-11.624
 21
2.97633
  0
LINE
  8
0
 10
-11.624
 20
2.97633
 11
-11.8116
 21
2.99408
  0
LINE
  8
0
 10
-11.8116
 20
2.99408
 11
-12
 21
3
  0
LINE
  8
0
 10
-12
 20
3
 11
-13.2
 21
3
  0
LINE
  8
0
 10
-13.2
 20
3
 11
-13.2
 21
4
  0
LINE
  8
0
 10
-13.2
 20
4
 11
-11.8
 21
4
  0
LINE
  8
0
 10
-11.8
 20
4
 11
-11.8
 21
3.99371
  0
LINE
  8
0
 10
-11.8
 20
3.99371
 11
-11.7488
 21
3.9921
  0
LINE
  8
0
 10
-11.7488
 20
3.9921
 11
-11.4987
 21
3.96844
  0
LINE
  8
0
 10
-11.4987
 20
3.96844
 11
-11.2505
 21
3.92914
  0
LINE
  8
0
 10
-11.2505
 20
3.92914
 11
-11.0052
 21
3.87433
  0
LINE
  8
0
 10
-11.0052
 20
3.87433
 11
-10.7639
 21
3.80421
  0
LINE
  8
0
 10
-10.7639
 20
3.80421
 11
-10.5275
 21
3.7191
  0
LINE
  8
0
 10
-10.5275
 20
3.7191
 11
-10.2969
 21
3.61929
  0
LINE
  8
0
 10
-10.2969
 20
3.61929
 11
-10.073
 21
3.50522
  0
LINE
  8
0
 10
-10.073
 20
3.50522
 11
-9.8567
 21
3.3773
  0
LINE
  8
0
 10
-9.8567
 20
3.3773
 11
-9.64886
 21
3.23605
  0
LINE
  8
0
 10
-9.64886
 20
3.23605
 11
-9.45032
 21
3.08205
  0
LINE
  8
0
 10
-9.45032
 20
3.08205
 11
-9.26183
 21
2.91586
  0
LINE
  8
0
 10
-9.26183
 20
2.91586
 11
-9.08414
 21
2.73817
  0
LINE
  8
0
 10
-9.08414
 20
2.73817
 11
-8.91795
 21
2.54968
  0
LINE
  8
0
 10
-8.91795
 20
2.54968
 11
-8.76395
 21
2.35114
  0
LINE
  8
0
 10
-8.76395
 20
2.35114
 11
-8.6227
 21
2.1433
  0
LINE
  8
0
 10
-8.6227
 20
2.1433
 11
-8.49478
 21
1.927
  0
LINE
  8
0
 10
-8.49478
 20
1.927
 11
-8.38071
 21
1.70311
  0
LINE
  8
0
 10
-8.38071
 20
1.70311
 11
-8.2809
 21
1.47249
  0
LINE
  8
0
 10
-8.2809
 20
1.47249
 11
-8.19579
 21
1.23605
  0
LINE
  8
0
 10
-8.19579
 20
1.23605
 11
-8.12567
 21
0.994751
  0
LINE
  8
0
 10
-8.12567
 20
0.994751
 11
-8.07086
 21
0.749512
  0
LINE
  8
0
 10
-8.07086
 20
0.749512
 11
-8.03156
 21
0.501328
  0
LINE
  8
0
 10
-8.03156
 20
0.501328
 11
-8.0079
 21
0.25116
  0
LINE
  8
0
 10
-8.0079
 20
0.25116
 11
-8
 21
0
  0
LINE
  8
0
 10
-8
 20
0
 11
-8.0079
 21
-0.25116
  0
LINE
  8
0
 10
-8.0079
 20
-0.25116
 11
-8.03156
 21
-0.501328
  0
LINE
  8
0
 10
-8.03156
 20
-0.501328
 11
-8.07086
 21
-0.749512
  0
LINE
  8
0
 10
-8.07086
 20
-0.749512
 11
-8.12567
 21
-0.994751
  0
LINE
  8
0
 10
-8.12567
 20
-0.994751
 11
-8.19579
 21
-1.23605
  0
LINE
  8
0
 10
-8.19579
 20
-1.23605
 11
-8.2809
 21
-1.47249
  0
LINE
  8
0
 10
-8.2809
 20
-1.47249
 11
-8.38071
 21
-1.70311
  0
LINE
  8
0
 10
-8.38071
 20
-1.70311
 11
-8.49478
 21
-1.927
  0
LINE
  8
0
 10
-8.49478
 20
-1.927
 11
-8.6227
 21
-2.1433
  0
LINE
  8
0
 10
-8.6227
 20
-2.1433
 11
-8.76395
 21
-2.35114
  0
LINE
  8
0
 10
-8.76395
 20
-2.35114
 11
-8.91795
 21
-2.54968
  0
LINE
  8
0
 10
-8.91795
 20
-2.54968
 11
-9.08414
 21
-2.73817
  0
LINE
  8
0
 10
-9.08414
 20
-2.73817
 11
-9.26183
 21
-2.91586
  0
LINE
  8
0
 10
-9.26183
 20
-2.91586
 11
-9.45032
 21
-3.08205
  0
LINE
  8
0
 10
-9.45032
 20
-3.08205
 11
-9.64886
 21
-3.23605
  0
LINE
  8
0
 10
-9.64886
 20
-3.23605
 11
-9.8567
 21
-3.3773
  0
LINE
  8
0
 10
-9.8567
 20
-3.3773
 11
-10.073
 21
-3.50522
  0
LINE
  8
0
 10
-10.073
 20
-3.50522
 11
-10.2969
 21
-3.61929
  0
LINE
  8
0
 10
-10.2969
 20
-3.61929
 11
-10.5275
 21
-3.7191
  0
LINE
  8
0
 10
-10.5275
 20
-3.7191
 11
-10.7639
 21
-3.80421
  0
LINE
  8
0
 10
-10.7639
 20
-3.80421
 11
-11.0052
 21
-3.87433
  0
LINE
  8
0
 10
-11.0052
 20
-3.87433
 11
-11.2505
 21
-3.92914
  0
LINE
  8
0
 10
-11.2505
 20
-3.92914
 11
-11.4987
 21
-3.96844
  0
LINE
  8
0
 10
-11.4987
 20
-3.96844
 11
-11.7488
 21
-3.9921
  0
LINE
  8
0
 10
-11.7488
 20
-3.9921
 11
-11.8
 21
-3.99371
  0
LINE
  8
0
 10
-11.8
 20
-3.99371
 11
-11.8
 21
-4
  0
LINE
  8
0
 10
-11.8
 20
-4
 11
-13.2
 21
-4
  0
LINE
  8
0
 10
11.8
 20
-4
 11
11.8
 21
-3.99371
  0
LINE
  8
0
 10
11.8
 20
-3.99371
 11
11.7488
 21
-3.9921
  0
LINE
  8
0
 10
11.7488
 20
-3.9921
 11
11.4987
 21
-3.96844
  0
LINE
  8
0
 10
11.4987
 20
-3.96844
 11
11.2505
 21
-3.92914
  0
LINE
  8
0
 10
11.2505
 20
-3.92914
 11
11.0052
 21
-3.87433
  0
LINE
  8
0
 10
11.0052
 20
-3.87433
 11
10.7639
 21
-3.80421
  0
LINE
  8
0
 10
10.7639
 20
-3.80421
 11
10.5275
 21
-3.7191
  0
LINE
  8
0
 10
10.5275
 20
-3.7191
 11
10.2969
 21
-3.61929
  0
LINE
  8
0
 10
10.2969
 20
-3.61929
 11
10.073
 21
-3.50522
  0
LINE
  8
0
 10
10.073
 20
-3.50522
 11
9.8567
 21
-3.3773
  0
LINE
  8
0
 10
9.8567
 20
-3.3773
 11
9.64886
 21
-3.23605
  0
LINE
  8
0
 10
9.64886
 20
-3.23605
 11
9.45032
 21
-3.08205
  0
LINE
  8
0
 10
9.45032
 20
-3.08205
 11
9.26183
 21
-2.91586
  0
LINE
  8
0
 10
9.26183
 20
-2.91586
 11
9.08414
 21
-2.73817
  0
LINE
  8
0
 10
9.08414
 20
-2.73817
 11
8.91795
 21
-2.54968
  0
LINE
  8
0
 10
8.91795
 20
-2.54968
 11
8.76395
 21
-2.35114
  0
LINE
  8
0
 10
8.76395
 20
-2.35114
 11
8.6227
 21
-2.1433
  0
LINE
  8
0
 10
8.6227
 20
-2.1433
 11
8.49478
 21
-1.927
  0
LINE
  8
0
 10
8.49478
 20
-1.927
 11
8.38071
 21
-1.70311
  0
LINE
  8
0
 10
8.38071
 20
-1.70311
 11
8.2809
 21
-1.47249
  0
LINE
  8
0
 10
8.2809
 20
-1.47249
 11
8.19579
 21
-1.23605
  0
LINE
  8
0
 10
8.19579
 20
-1.23605
 11
8.12567
 21
-0.994751
  0
LINE
  8
0
 10
8.12567
 20
-0.994751
 11
8.07086
 21
-0.749512
  0
LINE
  8
0
 10
8.07086
 20
-0.749512
 11
8.03156
 21
-0.501328
  0
LINE
  8
0
 10
8.03156
 20
-0.501328
 11
8.0079
 21
-0.25116
  0
LINE
  8
0
 10
8.0079
 20
-0.25116
 11
8
 21
0
  0
LINE
  8
0
 10
8
 20
0
 11
8.0079
 21
0.25116
  0
LINE
  8
0
 10
8.0079
 20
0.25116
 11
8.03156
 21
0.501328
  0
LINE
  8
0
 10
8.03156
 20
0.501328
 11
8.07086
 21
0.749512
  0
LINE
  8
0
 10
8.07086
 20
0.749512
 11
8.12567
 21
0.994751
  0
LINE
  8
0
 10
8.12567
 20
0.994751
 11
8.19579
 21
1.23605
  0
LINE
  8
0
 10
8.19579
 20
1.23605
 11
8.2809
 21
1.47249
  0
LINE
  8
0
 10
8.2809
 20
1.47249
 11
8.38071
 21
1.70311
  0
LINE
  8
0
 10
8.38071
 20
1.70311
 11
8.49478
 21
1.927
  0
LINE
  8
0
 10
8.49478
 20
1.927
 11
8.6227
 21
2.1433
  0
LINE
  8
0
 10
8.6227
 20
2.1433
 11
8.76395
 21
2.35114
  0
LINE
  8
0
 10
8.76395
 20
2.35114
 11
8.91795
 21
2.54968
  0
LINE
  8
0
 10
8.91795
 20
2.54968
 11
9.08414
 21
2.73817
  0
LINE
  8
0
 10
9.08414
 20
2.73817
 11
9.26183
 21
2.91586
  0
LINE
  8
0
 10
9.26183
 20
2.91586
 11
9.45032
 21
3.08205
  0
LINE
  8
0
 10
9.45032
 20
3.08205
 11
9.64886
 21
3.23605
  0
LINE
  8
0
 10
9.64886
 20
3.23605
 11
9.8567
 21
3.3773
  0
LINE
  8
0
 10
9.8567
 20
3.3773
 11
10.073
 21
3.50522
  0
LINE
  8
0
 10
10.073
 20
3.50522
 11
10.2969
 21
3.61929
  0
LINE
  8
0
 10
10.2969
 20
3.61929
 11
10.5275
 21
3.7191
  0
LINE
  8
0
 10
10.5275
 20
3.7191
 11
10.7639
 21
3.80421
  0
LINE
  8
0
 10
10.7639
 20
3.80421
 11
11.0052
 21
3.87433
  0
LINE
  8
0
 10
11.0052
 20
3.87433
 11
11.2505
 21
3.92914
  0
LINE
  8
0
 10
11.2505
 20
3.92914
 11
11.4987
 21
3.96844
  0
LINE
  8
0
 10
11.4987
 20
3.96844
 11
11.7488
 21
3.9921
  0
LINE
  8
0
 10
11.7488
 20
3.9921
 11
11.8
 21
3.99371
  0
LINE
  8
0
 10
11.8
 20
3.99371
 11
11.8
 21
4
  0
LINE
  8
0
 10
11.8
 20
4
 11
13.2
 21
4
  0
LINE
  8
0
 10
13.2
 20
4
 11
13.2
 21
3
  0
LINE
  8
0
 10
13.2
 20
3
 11
12
 21
3
  0
LINE
  8
0
 10
12
 20
3
 11
11.8116
 21
2.99408
  0
LINE
  8
0
 10
11.8116
 20
2.99408
 11
11.624
 21
2.97633
  0
LINE
  8
0
 10
11.624
 20
2.97633
 11
11.4379
 21
2.94685
  0
LINE
  8
0
 10
11.4379
 20
2.94685
 11
11.2539
 21
2.90575
  0
LINE
  8
0
 10
11.2539
 20
2.90575
 11
11.073
 21
2.85316
  0
LINE
  8
0
 10
11.073
 20
2.85316
 11
10.8956
 21
2.78932
  0
LINE
  8
0
 10
10.8956
 20
2.78932
 11
10.7227
 21
2.71448
  0
LINE
  8
0
 10
10.7227
 20
2.71448
 11
10.5547
 21
2.62891
  0
LINE
  8
0
 10
10.5547
 20
2.62891
 11
10.3925
 21
2.53297
  0
LINE
  8
0
 10
10.3925
 20
2.53297
 11
10.2366
 21
2.42705
  0
LINE
  8
0
 10
10.2366
 20
2.42705
 11
10.0877
 21
2.31154
  0
LINE
  8
0
 10
10.0877
 20
2.31154
 11
9.94637
 21
2.1869
  0
LINE
  8
0
 10
9.94637
 20
2.1869
 11
9.8131
 21
2.05363
  0
LINE
  8
0
 10
9.8131
 20
2.05363
 11
9.68846
 21
1.91226
  0
LINE
  8
0
 10
9.68846
 20
1.91226
 11
9.57295
 21
1.76335
  0
LINE
  8
0
 10
9.57295
 20
1.76335
 11
9.46703
 21
1.60747
  0
LINE
  8
0
 10
9.46703
 20
1.60747
 11
9.37109
 21
1.44525
  0
LINE
  8
0
 10
9.37109
 20
1.44525
 11
9.28552
 21
1.27733
  0
LINE
  8
0
 10
9.28552
 20
1.27733
 11
9.21068
 21
1.10437
  0
LINE
  8
0
 10
9.21068
 20
1.10437
 11
9.14684
 21
0.927048
  0
LINE
  8
0
 10
9.14684
 20
0.927048
 11
9.09425
 21
0.746063
  0
LINE
  8
0
 10
9.09425
 20
0.746063
 11
9.05315
 21
0.562134
  0
LINE
  8
0
 10
9.05315
 20
0.562134
 11
9.02367
 21
0.375992
  0
LINE
  8
0
 10
9.02367
 20
0.375992
 11
9.00592
 21
0.18837
  0
LINE
  8
0
 10
9.00592
 20
0.18837
 11
9
 21
0
  0
LINE
  8
0
 10
9
 20
0
 11
9.00592
 21
-0.18837
  0
LINE
  8
0
 10
9.00592
 20
-0.18837
 11
9.02367
 21
-0.375992
  0
LINE
  8
0
 10
9.02367
 20
-0.375992
 11
9.05315
 21
-0.562134
  0
LINE
  8
0
 10
9.05315
 20
-0.562134
 11
9.09425
 21
-0.746063
  0
LINE
  8
0
 10
9.09425
 20
-0.746063
 11
9.14684
 21
-0.927048
  0
LINE
  8
0
 10
9.14684
 20
-0.927048
 11
9.21068
 21
-1.10437
  0
LINE
  8
0
 10
9.21068
 20
-1.10437
 11
9.28552
 21
-1.27733
  0
LINE
  8
0
 10
9.28552
 20
-1.27733
 11
9.37109
 21
-1.44525
  0
LINE
  8
0
 10
9.37109
 20
-1.44525
 11
9.46703
 21
-1.60747
  0
LINE
  8
0
 10
9.46703
 20
-1.60747
 11
9.57295
 21
-1.76335
  0
LINE
  8
0
 10
9.57295
 20
-1.76335
 11
9.68846
 21
-1.91226
  0
LINE
  8
0
 10
9.68846
 20
-1.91226
 11
9.8131
 21
-2.05363
  0
LINE
  8
0
 10
9.8131
 20
-2.05363
 11
9.94637
 21
-2.1869
  0
LINE
  8
0
 10
9.94637
 20
-2.1869
 11
10.0877
 21
-2.31154
  0
LINE
  8
0
 10
10.0877
 20
-2.31154
 11
10.2366
 21
-2.42705
  0
LINE
  8
0
 10
10.2366
 20
-2.42705
 11
10.3925
 21
-2.53297
  0
LINE
  8
0
 10
10.3925
 20
-2.53297
 11
10.5547
 21
-2.62891
  0
LINE
  8
0
 10
10.5547
 20
-2.62891
 11
10.7227
 21
-2.71448
  0
LINE
  8
0
 10
10.7227
 20
-2.71448
 11
10.8956
 21
-2.78932
  0
LINE
  8
0
 10
10.8956
 20
-2.78932
 11
11.073
 21
-2.85316
  0
LINE
  8
0
 10
11.073
 20
-2.85316
 11
11.2539
 21
-2.90575
  0
LINE
  8
0
 10
11.2539
 20
-2.90575
 11
11.4379
 21
-2.94685
  0
LINE
  8
0
 10
11.4379
 20
-2.94685
 11
11.624
 21
-2.97633
  0
LINE
  8
0
 10
11.624
 20
-2.97633
 11
11.8116
 21
-2.99408
  0
LINE
  8
0
 10
11.8116
 20
-2.99408
 11
12
 21
-3
  0
LINE
  8
0
 10
12
 20
-3
 11
13.2
 21
-3
  0
LINE
  8
0
 10
13.2
 20
-3
 11
13.2
 21
-4
  0
LINE
  8
0
 10
13.2
 20
-4
 11
11.8
 21
-4
  0
LINE
  8
0
 10
-3.39999
 20
-3.75
 11
-3.39999
 21
3
  0
LINE
  8
0
 10
-3.39999
 20
3
 11
-7.5
 21
3
  0
LINE
  8
0
 10
-7.5
 20
3
 11
-7.5
 21
4
  0
LINE
  8
0
 10
-7.5
 20
4
 11
7.5
 21
4
  0
LINE
  8
0
 10
7.5
 20
4
 11
7.5
 21
3
  0
LINE
  8
0
 10
7.5
 20
3
 11
-2.39999
 21
3
  0
LINE
  8
0
 10
-2.39999
 20
3
 11
-2.39999
 21
-3.75
  0
LINE
  8
0
 10
-2.39999
 20
-3.75
 11
-3.39999
 21
-3.75
  0
LINE
  8
0
 10
-6.39999
 20
0.75
 11
-6.39999
 21
1.75
  0
LINE
  8
0
 10
-6.39999
 20
1.75
 11
-5.39999
 21
1.75
  0
LINE
  8
0
 10
-5.39999
 20
1.75
 11
-5.39999
 21
0.75
  0
LINE
  8
0
 10
-5.39999
 20
0.75
 11
-6.39999
 21
0.75
  0
LINE
  8
0
 10
-0.894989
 20
-3.75
 11
-0.894989
 21
-2.79999
  0
LINE
  8
0
 10
-0.894989
 20
-2.79999
 11
-0.888702
 21
-2.79999
  0
LINE
  8
0
 10
-0.888702
 20
-2.79999
 11
-0.887085
 21
-2.74884
  0
LINE
  8
0
 10
-0.887085
 20
-2.74884
 11
-0.863434
 21
-2.49867
  0
LINE
  8
0
 10
-0.863434
 20
-2.49867
 11
-0.824127
 21
-2.25049
  0
LINE
  8
0
 10
-0.824127
 20
-2.25049
 11
-0.769318
 21
-2.00525
  0
LINE
  8
0
 10
-0.769318
 20
-2.00525
 11
-0.699203
 21
-1.76393
  0
LINE
  8
0
 10
-0.699203
 20
-1.76393
 11
-0.61409
 21
-1.5275
  0
LINE
  8
0
 10
-0.61409
 20
-1.5275
 11
-0.514282
 21
-1.29688
  0
LINE
  8
0
 10
-0.514282
 20
-1.29688
 11
-0.400208
 21
-1.07298
  0
LINE
  8
0
 10
-0.400208
 20
-1.07298
 11
-0.272293
 21
-0.856705
  0
LINE
  8
0
 10
-0.272293
 20
-0.856705
 11
-0.131042
 21
-0.648865
  0
LINE
  8
0
 10
-0.131042
 20
-0.648865
 11
0.0229492
 21
-0.450317
  0
LINE
  8
0
 10
0.0229492
 20
-0.450317
 11
0.189133
 21
-0.261826
  0
LINE
  8
0
 10
0.189133
 20
-0.261826
 11
0.366821
 21
-0.084137
  0
LINE
  8
0
 10
0.366821
 20
-0.084137
 11
0.555313
 21
0.0820465
  0
LINE
  8
0
 10
0.555313
 20
0.0820465
 11
0.75386
 21
0.236053
  0
LINE
  8
0
 10
0.75386
 20
0.236053
 11
0.9617
 21
0.377304
  0
LINE
  8
0
 10
0.9617
 20
0.377304
 11
1.17799
 21
0.505219
  0
LINE
  8
0
 10
1.17799
 20
0.505219
 11
1.40189
 21
0.619293
  0
LINE
  8
0
 10
1.40189
 20
0.619293
 11
1.63251
 21
0.719101
  0
LINE
  8
0
 10
1.63251
 20
0.719101
 11
1.86894
 21
0.804214
  0
LINE
  8
0
 10
1.86894
 20
0.804214
 11
2.11024
 21
0.874329
  0
LINE
  8
0
 10
2.11024
 20
0.874329
 11
2.35548
 21
0.929138
  0
LINE
  8
0
 10
2.35548
 20
0.929138
 11
2.60367
 21
0.968445
  0
LINE
  8
0
 10
2.60367
 20
0.968445
 11
2.85384
 21
0.992096
  0
LINE
  8
0
 10
2.85384
 20
0.992096
 11
3.105
 21
1
  0
LINE
  8
0
 10
3.105
 20
1
 11
3.35616
 21
0.992096
  0
LINE
  8
0
 10
3.35616
 20
0.992096
 11
3.60632
 21
0.968445
  0
LINE
  8
0
 10
3.60632
 20
0.968445
 11
3.85451
 21
0.929138
  0
LINE
  8
0
 10
3.85451
 20
0.929138
 11
4.09975
 21
0.874329
  0
LINE
  8
0
 10
4.09975
 20
0.874329
 11
4.34105
 21
0.804214
  0
LINE
  8
0
 10
4.34105
 20
0.804214
 11
4.57748
 21
0.719101
  0
LINE
  8
0
 10
4.57748
 20
0.719101
 11
4.80811
 21
0.619293
  0
LINE
  8
0
 10
4.80811
 20
0.619293
 11
5.032
 21
0.505219
  0
LINE
  8
0
 10
5.032
 20
0.505219
 11
5.24829
 21
0.377304
  0
LINE
  8
0
 10
5.24829
 20
0.377304
 11
5.45613
 21
0.236053
  0
LINE
  8
0
 10
5.45613
 20
0.236053
 11
5.65468
 21
0.0820465
  0
LINE
  8
0
 10
5.65468
 20
0.0820465
 11
5.84317
 21
-0.084137
  0
LINE
  8
0
 10
5.84317
 20
-0.084137
 11
6.02086
 21
-0.261826
  0
LINE
  8
0
 10
6.02086
 20
-0.261826
 11
6.18704
 21
-0.450317
  0
LINE
  8
0
 10
6.18704
 20
-0.450317
 11
6.34105
 21
-0.648865
  0
LINE
  8
0
 10
6.34105
 20
-0.648865
 11
6.4823
 21
-0.856705
  0
LINE
  8
0
 10
6.4823
 20
-0.856705
 11
6.61021
 21
-1.073
  0
LINE
  8
0
 10
6.61021
 20
-1.073
 11
6.72429
 21
-1.29689
  0
LINE
  8
0
 10
6.72429
 20
-1.29689
 11
6.8241
 21
-1.52751
  0
LINE
  8
0
 10
6.8241
 20
-1.52751
 11
6.90921
 21
-1.76395
  0
LINE
  8
0
 10
6.90921
 20
-1.76395
 11
6.97932
 21
-2.00525
  0
LINE
  8
0
 10
6.97932
 20
-2.00525
 11
7.03413
 21
-2.25049
  0
LINE
  8
0
 10
7.03413
 20
-2.25049
 11
7.07344
 21
-2.49867
  0
LINE
  8
0
 10
7.07344
 20
-2.49867
 11
7.09709
 21
-2.74884
  0
LINE
  8
0
 10
7.09709
 20
-2.74884
 11
7.09871
 21
-2.8
  0
LINE
  8
0
 10
7.09871
 20
-2.8
 11
7.105
 21
-2.8
  0
LINE
  8
0
 10
7.105
 20
-2.8
 11
7.105
 21
-3.75
  0
LINE
  8
0
 10
7.105
 20
-3.75
 11
6.105
 21
-3.75
  0
LINE
  8
0
 10
6.105
 20
-3.75
 11
6.105
 21
-3
  0
LINE
  8
0
 10
6.105
 20
-3
 11
6.09908
 21
-2.81163
  0
LINE
  8
0
 10
6.09908
 20
-2.81163
 11
6.08133
 21
-2.62401
  0
LINE
  8
0
 10
6.08133
 20
-2.62401
 11
6.05185
 21
-2.43787
  0
LINE
  8
0
 10
6.05185
 20
-2.43787
 11
6.01074
 21
-2.25394
  0
LINE
  8
0
 10
6.01074
 20
-2.25394
 11
5.95816
 21
-2.07295
  0
LINE
  8
0
 10
5.95816
 20
-2.07295
 11
5.89432
 21
-1.89563
  0
LINE
  8
0
 10
5.89432
 20
-1.89563
 11
5.81947
 21
-1.72267
  0
LINE
  8
0
 10
5.81947
 20
-1.72267
 11
5.7339
 21
-1.55475
  0
LINE
  8
0
 10
5.7339
 20
-1.55475
 11
5.63797
 21
-1.39253
  0
LINE
  8
0
 10
5.63797
 20
-1.39253
 11
5.53204
 21
-1.23665
  0
LINE
  8
0
 10
5.53204
 20
-1.23665
 11
5.41653
 21
-1.08774
  0
LINE
  8
0
 10
5.41653
 20
-1.08774
 11
5.2919
 21
-0.946365
  0
LINE
  8
0
 10
5.2919
 20
-0.946365
 11
5.15863
 21
-0.813095
  0
LINE
  8
0
 10
5.15863
 20
-0.813095
 11
5.01726
 21
-0.688461
  0
LINE
  8
0
 10
5.01726
 20
-0.688461
 11
4.86835
 21
-0.572952
  0
LINE
  8
0
 10
4.86835
 20
-0.572952
 11
4.71246
 21
-0.467026
  0
LINE
  8
0
 10
4.71246
 20
-0.467026
 11
4.55025
 21
-0.371094
  0
LINE
  8
0
 10
4.55025
 20
-0.371094
 11
4.38232
 21
-0.285522
  0
LINE
  8
0
 10
4.38232
 20
-0.285522
 11
4.20937
 21
-0.210678
  0
LINE
  8
0
 10
4.20937
 20
-0.210678
 11
4.03204
 21
-0.146835
  0
LINE
  8
0
 10
4.03204
 20
-0.146835
 11
3.85106
 21
-0.0942535
  0
LINE
  8
0
 10
3.85106
 20
-0.0942535
 11
3.66713
 21
-0.0531464
  0
LINE
  8
0
 10
3.66713
 20
-0.0531464
 11
3.48099
 21
-0.0236664
  0
LINE
  8
0
 10
3.48099
 20
-0.0236664
 11
3.29337
 21
-0.00592041
  0
LINE
  8
0
 10
3.29337
 20
-0.00592041
 11
3.105
 21
0
  0
LINE
  8
0
 10
3.105
 20
0
 11
2.91663
 21
-0.00592041
  0
LINE
  8
0
 10
2.91663
 20
-0.00592041
 11
2.729
 21
-0.0236664
  0
LINE
  8
0
 10
2.729
 20
-0.0236664
 11
2.54286
 21
-0.0531464
  0
LINE
  8
0
 10
2.54286
 20
-0.0531464
 11
2.35893
 21
-0.0942535
  0
LINE
  8
0
 10
2.35893
 20
-0.0942535
 11
2.17795
 21
-0.146835
  0
LINE
  8
0
 10
2.17795
 20
-0.146835
 11
2.00063
 21
-0.210678
  0
LINE
  8
0
 10
2.00063
 20
-0.210678
 11
1.82767
 21
-0.285522
  0
LINE
  8
0
 10
1.82767
 20
-0.285522
 11
1.65974
 21
-0.371094
  0
LINE
  8
0
 10
1.65974
 20
-0.371094
 11
1.49753
 21
-0.467026
  0
LINE
  8
0
 10
1.49753
 20
-0.467026
 11
1.34164
 21
-0.572952
  0
LINE
  8
0
 10
1.34164
 20
-0.572952
 11
1.19273
 21
-0.688461
  0
LINE
  8
0
 10
1.19273
 20
-0.688461
 11
1.05136
 21
-0.813095
  0
LINE
  8
0
 10
1.05136
 20
-0.813095
 11
0.918091
 21
-0.946365
  0
LINE
  8
0
 10
0.918091
 20
-0.946365
 11
0.793457
 21
-1.08772
  0
LINE
  8
0
 10
0.793457
 20
-1.08772
 11
0.677948
 21
-1.23663
  0
LINE
  8
0
 10
0.677948
 20
-1.23663
 11
0.572021
 21
-1.39252
  0
LINE
  8
0
 10
0.572021
 20
-1.39252
 11
0.476089
 21
-1.55473
  0
LINE
  8
0
 10
0.476089
 20
-1.55473
 11
0.390518
 21
-1.72266
  0
LINE
  8
0
 10
0.390518
 20
-1.72266
 11
0.315674
 21
-1.89561
  0
LINE
  8
0
 10
0.315674
 20
-1.89561
 11
0.251831
 21
-2.07295
  0
LINE
  8
0
 10
0.251831
 20
-2.07295
 11
0.199249
 21
-2.25394
  0
LINE
  8
0
 10
0.199249
 20
-2.25394
 11
0.158142
 21
-2.43787
  0
LINE
  8
0
 10
0.158142
 20
-2.43787
 11
0.128662
 21
-2.62401
  0
LINE
  8
0
 10
0.128662
 20
-2.62401
 11
0.110916
 21
-2.81163
  0
LINE
  8
0
 10
0.110916
 20
-2.81163
 11
0.104996
 21
-3
  0
LINE
  8
0
 10
0.104996
 20
-3
 11
0.104996
 21
-3.75
  0
LINE
  8
0
 10
0.104996
 20
-3.75
 11
-0.894989
 21
-3.75
  0
LINE
  8
0
 10
-6.39999
 20
-3.77499
 11
-6.39999
 21
-0.0249939
  0
LINE
  8
0
 10
-6.39999
 20
-0.0249939
 11
-5.39999
 21
-0.0249939
  0
LINE
  8
0
 10
-5.39999
 20
-0.0249939
 11
-5.39999
 21
-3.77499
  0
LINE
  8
0
 10
-5.39999
 20
-3.77499
 11
-6.39999
 21
-3.77499
  0
LINE
  8
0
 10
1.605
 20
-3.75
 11
1.605
 21
-2.8
  0
LINE
  8
0
 10
1.605
 20
-2.8
 11
1.61874
 21
-2.8
  0
LINE
  8
0
 10
1.61874
 20
-2.8
 11
1.63158
 21
-2.71893
  0
LINE
  8
0
 10
1.63158
 20
-2.71893
 11
1.65213
 21
-2.62697
  0
LINE
  8
0
 10
1.65213
 20
-2.62697
 11
1.67842
 21
-2.53648
  0
LINE
  8
0
 10
1.67842
 20
-2.53648
 11
1.71034
 21
-2.44781
  0
LINE
  8
0
 10
1.71034
 20
-2.44781
 11
1.74776
 21
-2.36134
  0
LINE
  8
0
 10
1.74776
 20
-2.36134
 11
1.79054
 21
-2.27737
  0
LINE
  8
0
 10
1.79054
 20
-2.27737
 11
1.83852
 21
-2.19627
  0
LINE
  8
0
 10
1.83852
 20
-2.19627
 11
1.89148
 21
-2.11833
  0
LINE
  8
0
 10
1.89148
 20
-2.11833
 11
1.94923
 21
-2.04387
  0
LINE
  8
0
 10
1.94923
 20
-2.04387
 11
2.01155
 21
-1.97319
  0
LINE
  8
0
 10
2.01155
 20
-1.97319
 11
2.07819
 21
-1.90656
  0
LINE
  8
0
 10
2.07819
 20
-1.90656
 11
2.14886
 21
-1.84424
  0
LINE
  8
0
 10
2.14886
 20
-1.84424
 11
2.22333
 21
-1.78648
  0
LINE
  8
0
 10
2.22333
 20
-1.78648
 11
2.30127
 21
-1.73352
  0
LINE
  8
0
 10
2.30127
 20
-1.73352
 11
2.38237
 21
-1.68555
  0
LINE
  8
0
 10
2.38237
 20
-1.68555
 11
2.46634
 21
-1.64276
  0
LINE
  8
0
 10
2.46634
 20
-1.64276
 11
2.55281
 21
-1.60535
  0
LINE
  8
0
 10
2.55281
 20
-1.60535
 11
2.64148
 21
-1.57343
  0
LINE
  8
0
 10
2.64148
 20
-1.57343
 11
2.73196
 21
-1.54713
  0
LINE
  8
0
 10
2.73196
 20
-1.54713
 11
2.82393
 21
-1.52658
  0
LINE
  8
0
 10
2.82393
 20
-1.52658
 11
2.91701
 21
-1.51184
  0
LINE
  8
0
 10
2.91701
 20
-1.51184
 11
3.01082
 21
-1.50296
  0
LINE
  8
0
 10
3.01082
 20
-1.50296
 11
3.105
 21
-1.5
  0
LINE
  8
0
 10
3.105
 20
-1.5
 11
3.19917
 21
-1.50296
  0
LINE
  8
0
 10
3.19917
 20
-1.50296
 11
3.29298
 21
-1.51184
  0
LINE
  8
0
 10
3.29298
 20
-1.51184
 11
3.38606
 21
-1.52658
  0
LINE
  8
0
 10
3.38606
 20
-1.52658
 11
3.47803
 21
-1.54713
  0
LINE
  8
0
 10
3.47803
 20
-1.54713
 11
3.56851
 21
-1.57343
  0
LINE
  8
0
 10
3.56851
 20
-1.57343
 11
3.65718
 21
-1.60535
  0
LINE
  8
0
 10
3.65718
 20
-1.60535
 11
3.74365
 21
-1.64276
  0
LINE
  8
0
 10
3.74365
 20
-1.64276
 11
3.82762
 21
-1.68555
  0
LINE
  8
0
 10
3.82762
 20
-1.68555
 11
3.90872
 21
-1.73352
  0
LINE
  8
0
 10
3.90872
 20
-1.73352
 11
3.98666
 21
-1.78648
  0
LINE
  8
0
 10
3.98666
 20
-1.78648
 11
4.06113
 21
-1.84424
  0
LINE
  8
0
 10
4.06113
 20
-1.84424
 11
4.13181
 21
-1.90656
  0
LINE
  8
0
 10
4.13181
 20
-1.90656
 11
4.19844
 21
-1.97319
  0
LINE
  8
0
 10
4.19844
 20
-1.97319
 11
4.26076
 21
-2.04387
  0
LINE
  8
0
 10
4.26076
 20
-2.04387
 11
4.31851
 21
-2.11833
  0
LINE
  8
0
 10
4.31851
 20
-2.11833
 11
4.37148
 21
-2.19627
  0
LINE
  8
0
 10
4.37148
 20
-2.19627
 11
4.41945
 21
-2.27737
  0
LINE
  8
0
 10
4.41945
 20
-2.27737
 11
4.46223
 21
-2.36134
  0
LINE
  8
0
 10
4.46223
 20
-2.36134
 11
4.49965
 21
-2.44781
  0
LINE
  8
0
 10
4.49965
 20
-2.44781
 11
4.53157
 21
-2.53648
  0
LINE
  8
0
 10
4.53157
 20
-2.53648
 11
4.55786
 21
-2.62697
  0
LINE
  8
0
 10
4.55786
 20
-2.62697
 11
4.57841
 21
-2.71893
  0
LINE
  8
0
 10
4.57841
 20
-2.71893
 11
4.59125
 21
-2.8
  0
LINE
  8
0
 10
4.59125
 20
-2.8
 11
4.605
 21
-2.8
  0
LINE
  8
0
 10
4.605
 20
-2.8
 11
4.605
 21
-3.75
  0
LINE
  8
0
 10
4.605
 20
-3.75
 11
1.605
 21
-3.75
  0
LINE
  8
0
 10
8.53767
 20
-7.59882
 11
8.5752
 21
-7.59526
  0
LINE
  8
0
 10
8.5752
 20
-7.59526
 11
8.61243
 21
-7.58937
  0
LINE
  8
0
 10
8.61243
 20
-7.58937
 11
8.6492
 21
-7.58115
  0
LINE
  8
0
 10
8.6492
 20
-7.58115
 11
8.68541
 21
-7.57063
  0
LINE
  8
0
 10
8.68541
 20
-7.57063
 11
8.72087
 21
-7.55786
  0
LINE
  8
0
 10
8.72087
 20
-7.55786
 11
8.75546
 21
-7.54289
  0
LINE
  8
0
 10
8.75546
 20
-7.54289
 11
8.78905
 21
-7.52577
  0
LINE
  8
0
 10
8.78905
 20
-7.52577
 11
8.82149
 21
-7.50659
  0
LINE
  8
0
 10
8.82149
 20
-7.50659
 11
8.85266
 21
-7.4854
  0
LINE
  8
0
 10
8.85266
 20
-7.4854
 11
8.88245
 21
-7.4623
  0
LINE
  8
0
 10
8.88245
 20
-7.4623
 11
8.91072
 21
-7.43738
  0
LINE
  8
0
 10
8.91072
 20
-7.43738
 11
8.93738
 21
-7.41072
  0
LINE
  8
0
 10
8.93738
 20
-7.41072
 11
8.9623
 21
-7.38245
  0
LINE
  8
0
 10
8.9623
 20
-7.38245
 11
8.9854
 21
-7.35266
  0
LINE
  8
0
 10
8.9854
 20
-7.35266
 11
9.00659
 21
-7.32149
  0
LINE
  8
0
 10
9.00659
 20
-7.32149
 11
9.02577
 21
-7.28905
  0
LINE
  8
0
 10
9.02577
 20
-7.28905
 11
9.04289
 21
-7.25546
  0
LINE
  8
0
 10
9.04289
 20
-7.25546
 11
9.05786
 21
-7.22087
  0
LINE
  8
0
 10
9.05786
 20
-7.22087
 11
9.07063
 21
-7.18541
  0
LINE
  8
0
 10
9.07063
 20
-7.18541
 11
9.08115
 21
-7.1492
  0
LINE
  8
0
 10
9.08115
 20
-7.1492
 11
9.08937
 21
-7.11243
  0
LINE
  8
0
 10
9.08937
 20
-7.11243
 11
9.09526
 21
-7.0752
  0
LINE
  8
0
 10
9.09526
 20
-7.0752
 11
9.09882
 21
-7.03767
  0
LINE
  8
0
 10
9.09882
 20
-7.03767
 11
9.09999
 21
-7
  0
LINE
  8
0
 10
9.09999
 20
-7
 11
9.09882
 21
-6.96233
  0
LINE
  8
0
 10
9.09882
 20
-6.96233
 11
9.09526
 21
-6.9248
  0
LINE
  8
0
 10
9.09526
 20
-6.9248
 11
9.08937
 21
-6.88757
  0
LINE
  8
0
 10
9.08937
 20
-6.88757
 11
9.08115
 21
-6.8508
  0
LINE
  8
0
 10
9.08115
 20
-6.8508
 11
9.07063
 21
-6.81459
  0
LINE
  8
0
 10
9.07063
 20
-6.81459
 11
9.05786
 21
-6.77913
  0
LINE
  8
0
 10
9.05786
 20
-6.77913
 11
9.04289
 21
-6.74454
  0
LINE
  8
0
 10
9.04289
 20
-6.74454
 11
9.02577
 21
-6.71095
  0
LINE
  8
0
 10
9.02577
 20
-6.71095
 11
9.00659
 21
-6.67851
  0
LINE
  8
0
 10
9.00659
 20
-6.67851
 11
8.9854
 21
-6.64734
  0
LINE
  8
0
 10
8.9854
 20
-6.64734
 11
8.9623
 21
-6.61755
  0
LINE
  8
0
 10
8.9623
 20
-6.61755
 11
8.93738
 21
-6.58928
  0
LINE
  8
0
 10
8.93738
 20
-6.58928
 11
8.91072
 21
-6.56262
  0
LINE
  8
0
 10
8.91072
 20
-6.56262
 11
8.88245
 21
-6.5377
  0
LINE
  8
0
 10
8.88245
 20
-6.5377
 11
8.85266
 21
-6.5146
  0
LINE
  8
0
 10
8.85266
 20
-6.5146
 11
8.82149
 21
-6.49341
  0
LINE
  8
0
 10
8.82149
 20
-6.49341
 11
8.78905
 21
-6.47423
  0
LINE
  8
0
 10
8.78905
 20
-6.47423
 11
8.75546
 21
-6.45711
  0
LINE
  8
0
 10
8.75546
 20
-6.45711
 11
8.72087
 21
-6.44214
  0
LINE
  8
0
 10
8.72087
 20
-6.44214
 11
8.68541
 21
-6.42937
  0
LINE
  8
0
 10
8.68541
 20
-6.42937
 11
8.6492
 21
-6.41885
  0
LINE
  8
0
 10
8.6492
 20
-6.41885
 11
8.61243
 21
-6.41063
  0
LINE
  8
0
 10
8.61243
 20
-6.41063
 11
8.5752
 21
-6.40474
  0
LINE
  8
0
 10
8.5752
 20
-6.40474
 11
8.53767
 21
-6.40118
  0
LINE
  8
0
 10
8.53767
 20
-6.40118
 11
8.5
 21
-6.40001
  0
LINE
  8
0
 10
8.5
 20
-6.40001
 11
8.46233
 21
-6.40118
  0
LINE
  8
0
 10
8.46233
 20
-6.40118
 11
8.4248
 21
-6.40474
  0
LINE
  8
0
 10
8.4248
 20
-6.40474
 11
8.38757
 21
-6.41063
  0
LINE
  8
0
 10
8.38757
 20
-6.41063
 11
8.3508
 21
-6.41885
  0
LINE
  8
0
 10
8.3508
 20
-6.41885
 11
8.31459
 21
-6.42937
  0
LINE
  8
0
 10
8.31459
 20
-6.42937
 11
8.27913
 21
-6.44214
  0
LINE
  8
0
 10
8.27913
 20
-6.44214
 11
8.24454
 21
-6.45711
  0
LINE
  8
0
 10
8.24454
 20
-6.45711
 11
8.21095
 21
-6.47423
  0
LINE
  8
0
 10
8.21095
 20
-6.47423
 11
8.17851
 21
-6.49341
  0
LINE
  8
0
 10
8.17851
 20
-6.49341
 11
8.14734
 21
-6.5146
  0
LINE
  8
0
 10
8.14734
 20
-6.5146
 11
8.11755
 21
-6.5377
  0
LINE
  8
0
 10
8.11755
 20
-6.5377
 11
8.08928
 21
-6.56262
  0
LINE
  8
0
 10
8.08928
 20
-6.56262
 11
8.06262
 21
-6.58928
  0
LINE
  8
0
 10
8.06262
 20
-6.58928
 11
8.0377
 21
-6.61755
  0
LINE
  8
0
 10
8.0377
 20
-6.61755
 11
8.0146
 21
-6.64734
  0
LINE
  8
0
 10
8.0146
 20
-6.64734
 11
7.99341
 21
-6.67851
  0
LINE
  8
0
 10
7.99341
 20
-6.67851
 11
7.97423
 21
-6.71095
  0
LINE
  8
0
 10
7.97423
 20
-6.71095
 11
7.95711
 21
-6.74454
  0
LINE
  8
0
 10
7.95711
 20
-6.74454
 11
7.94214
 21
-6.77913
  0
LINE
  8
0
 10
7.94214
 20
-6.77913
 11
7.92937
 21
-6.81459
  0
LINE
  8
0
 10
7.92937
 20
-6.81459
 11
7.91885
 21
-6.8508
  0
LINE
  8
0
 10
7.91885
 20
-6.8508
 11
7.91063
 21
-6.88757
  0
LINE
  8
0
 10
7.91063
 20
-6.88757
 11
7.90474
 21
-6.9248
  0
LINE
  8
0
 10
7.90474
 20
-6.9248
 11
7.90118
 21
-6.96233
  0
LINE
  8
0
 10
7.90118
 20
-6.96233
 11
7.90001
 21
-7
  0
LINE
  8
0
 10
7.90001
 20
-7
 11
7.90118
 21
-7.03767
  0
LINE
  8
0
 10
7.90118
 20
-7.03767
 11
7.90474
 21
-7.0752
  0
LINE
  8
0
 10
7.90474
 20
-7.0752
 11
7.91063
 21
-7.11243
  0
LINE
  8
0
 10
7.91063
 20
-7.11243
 11
7.91885
 21
-7.1492
  0
LINE
  8
0
 10
7.91885
 20
-7.1492
 11
7.92937
 21
-7.18541
  0
LINE
  8
0
 10
7.92937
 20
-7.18541
 11
7.94214
 21
-7.22087
  0
LINE
  8
0
 10
7.94214
 20
-7.22087
 11
7.95711
 21
-7.25546
  0
LINE
  8
0
 10
7.95711
 20
-7.25546
 11
7.97423
 21
-7.28905
  0
LINE
  8
0
 10
7.97423
 20
-7.28905
 11
7.99341
 21
-7.32149
  0
LINE
  8
0
 10
7.99341
 20
-7.32149
 11
8.0146
 21
-7.35266
  0
LINE
  8
0
 10
8.0146
 20
-7.35266
 11
8.0377
 21
-7.38245
  0
LINE
  8
0
 10
8.0377
 20
-7.38245
 11
8.06262
 21
-7.41072
  0
LINE
  8
0
 10
8.06262
 20
-7.41072
 11
8.08928
 21
-7.43738
  0
LINE
  8
0
 10
8.08928
 20
-7.43738
 11
8.11755
 21
-7.4623
  0
LINE
  8
0
 10
8.11755
 20
-7.4623
 11
8.14734
 21
-7.4854
  0
LINE
  8
0
 10
8.14734
 20
-7.4854
 11
8.17851
 21
-7.50659
  0
LINE
  8
0
 10
8.17851
 20
-7.50659
 11
8.21095
 21
-7.52577
  0
LINE
  8
0
 10
8.21095
 20
-7.52577
 11
8.24454
 21
-7.54289
  0
LINE
  8
0
 10
8.24454
 20
-7.54289
 11
8.27913
 21
-7.55786
  0
LINE
  8
0
 10
8.27913
 20
-7.55786
 11
8.31459
 21
-7.57063
  0
LINE
  8
0
 10
8.31459
 20
-7.57063
 11
8.3508
 21
-7.58115
  0
LINE
  8
0
 10
8.3508
 20
-7.58115
 11
8.38757
 21
-7.58937
  0
LINE
  8
0
 10
8.38757
 20
-7.58937
 11
8.4248
 21
-7.59526
  0
LINE
  8
0
 10
8.4248
 20
-7.59526
 11
8.46233
 21
-7.59882
  0
LINE
  8
0
 10
8.46233
 20
-7.59882
 11
8.5
 21
-7.59999
  0
LINE
  8
0
 10
8.5
 20
-7.59999
 11
8.53767
 21
-7.59882
  0
LINE
  8
0
 10
8.43735
 20
-7.49605
 11
8.37566
 21
-7.48428
  0
LINE
  8
0
 10
8.37566
 20
-7.48428
 11
8.31595
 21
-7.46487
  0
LINE
  8
0
 10
8.31595
 20
-7.46487
 11
8.25912
 21
-7.43814
  0
LINE
  8
0
 10
8.25912
 20
-7.43814
 11
8.20612
 21
-7.4045
  0
LINE
  8
0
 10
8.20612
 20
-7.4045
 11
8.15773
 21
-7.36447
  0
LINE
  8
0
 10
8.15773
 20
-7.36447
 11
8.11475
 21
-7.31871
  0
LINE
  8
0
 10
8.11475
 20
-7.31871
 11
8.07785
 21
-7.2679
  0
LINE
  8
0
 10
8.07785
 20
-7.2679
 11
8.04759
 21
-7.21288
  0
LINE
  8
0
 10
8.04759
 20
-7.21288
 11
8.02448
 21
-7.1545
  0
LINE
  8
0
 10
8.02448
 20
-7.1545
 11
8.00887
 21
-7.09369
  0
LINE
  8
0
 10
8.00887
 20
-7.09369
 11
8.00099
 21
-7.03139
  0
LINE
  8
0
 10
8.00099
 20
-7.03139
 11
8.00099
 21
-6.96861
  0
LINE
  8
0
 10
8.00099
 20
-6.96861
 11
8.00887
 21
-6.90631
  0
LINE
  8
0
 10
8.00887
 20
-6.90631
 11
8.02448
 21
-6.8455
  0
LINE
  8
0
 10
8.02448
 20
-6.8455
 11
8.04759
 21
-6.78712
  0
LINE
  8
0
 10
8.04759
 20
-6.78712
 11
8.07785
 21
-6.7321
  0
LINE
  8
0
 10
8.07785
 20
-6.7321
 11
8.11475
 21
-6.68129
  0
LINE
  8
0
 10
8.11475
 20
-6.68129
 11
8.15773
 21
-6.63553
  0
LINE
  8
0
 10
8.15773
 20
-6.63553
 11
8.20612
 21
-6.5955
  0
LINE
  8
0
 10
8.20612
 20
-6.5955
 11
8.25912
 21
-6.56186
  0
LINE
  8
0
 10
8.25912
 20
-6.56186
 11
8.31595
 21
-6.53513
  0
LINE
  8
0
 10
8.31595
 20
-6.53513
 11
8.37566
 21
-6.51572
  0
LINE
  8
0
 10
8.37566
 20
-6.51572
 11
8.43735
 21
-6.50395
  0
LINE
  8
0
 10
8.43735
 20
-6.50395
 11
8.5
 21
-6.5
  0
LINE
  8
0
 10
8.5
 20
-6.5
 11
8.56265
 21
-6.50395
  0
LINE
  8
0
 10
8.56265
 20
-6.50395
 11
8.62434
 21
-6.51572
  0
LINE
  8
0
 10
8.62434
 20
-6.51572
 11
8.68405
 21
-6.53513
  0
LINE
  8
0
 10
8.68405
 20
-6.53513
 11
8.74088
 21
-6.56186
  0
LINE
  8
0
 10
8.74088
 20
-6.56186
 11
8.79388
 21
-6.5955
  0
LINE
  8
0
 10
8.79388
 20
-6.5955
 11
8.84227
 21
-6.63553
  0
LINE
  8
0
 10
8.84227
 20
-6.63553
 11
8.88525
 21
-6.68129
  0
LINE
  8
0
 10
8.88525
 20
-6.68129
 11
8.92215
 21
-6.7321
  0
LINE
  8
0
 10
8.92215
 20
-6.7321
 11
8.95241
 21
-6.78712
  0
LINE
  8
0
 10
8.95241
 20
-6.78712
 11
8.97552
 21
-6.8455
  0
LINE
  8
0
 10
8.97552
 20
-6.8455
 11
8.99113
 21
-6.90631
  0
LINE
  8
0
 10
8.99113
 20
-6.90631
 11
8.99901
 21
-6.96861
  0
LINE
  8
0
 10
8.99901
 20
-6.96861
 11
8.99901
 21
-7.03139
  0
LINE
  8
0
 10
8.99901
 20
-7.03139
 11
8.99113
 21
-7.09369
  0
LINE
  8
0
 10
8.99113
 20
-7.09369
 11
8.97552
 21
-7.1545
  0
LINE
  8
0
 10
8.97552
 20
-7.1545
 11
8.95241
 21
-7.21288
  0
LINE
  8
0
 10
8.95241
 20
-7.21288
 11
8.92215
 21
-7.2679
  0
LINE
  8
0
 10
8.92215
 20
-7.2679
 11
8.88525
 21
-7.31871
  0
LINE
  8
0
 10
8.88525
 20
-7.31871
 11
8.84227
 21
-7.36447
  0
LINE
  8
0
 10
8.84227
 20
-7.36447
 11
8.79388
 21
-7.4045
  0
LINE
  8
0
 10
8.79388
 20
-7.4045
 11
8.74088
 21
-7.43814
  0
LINE
  8
0
 10
8.74088
 20
-7.43814
 11
8.68405
 21
-7.46487
  0
LINE
  8
0
 10
8.68405
 20
-7.46487
 11
8.62434
 21
-7.48428
  0
LINE
  8
0
 10
8.62434
 20
-7.48428
 11
8.56265
 21
-7.49605
  0
LINE
  8
0
 10
8.56265
 20
-7.49605
 11
8.5
 21
-7.5
  0
LINE
  8
0
 10
8.5
 20
-7.5
 11
8.43735
 21
-7.49605
  0
LINE
  8
0
 10
8.31596
 20
-6.994
 11
8.39397
 21
-6.994
  0
LINE
  8
0
 10
8.39397
 20
-6.994
 11
8.58394
 21
-7.25
  0
LINE
  8
0
 10
8.58394
 20
-7.25
 11
8.63594
 21
-7.25
  0
LINE
  8
0
 10
8.63594
 20
-7.25
 11
8.42596
 21
-6.98601
  0
LINE
  8
0
 10
8.42596
 20
-6.98601
 11
8.49829
 21
-6.9819
  0
LINE
  8
0
 10
8.49829
 20
-6.9819
 11
8.54727
 21
-6.97623
  0
LINE
  8
0
 10
8.54727
 20
-6.97623
 11
8.57295
 21
-6.96901
  0
LINE
  8
0
 10
8.57295
 20
-6.96901
 11
8.59872
 21
-6.95123
  0
LINE
  8
0
 10
8.59872
 20
-6.95123
 11
8.60895
 21
-6.94101
  0
LINE
  8
0
 10
8.60895
 20
-6.94101
 11
8.62405
 21
-6.91701
  0
LINE
  8
0
 10
8.62405
 20
-6.91701
 11
8.63283
 21
-6.89012
  0
LINE
  8
0
 10
8.63283
 20
-6.89012
 11
8.63594
 21
-6.86301
  0
LINE
  8
0
 10
8.63594
 20
-6.86301
 11
8.63472
 21
-6.84435
  0
LINE
  8
0
 10
8.63472
 20
-6.84435
 11
8.63106
 21
-6.82701
  0
LINE
  8
0
 10
8.63106
 20
-6.82701
 11
8.62494
 21
-6.811
  0
LINE
  8
0
 10
8.62494
 20
-6.811
 11
8.6165
 21
-6.7959
  0
LINE
  8
0
 10
8.6165
 20
-6.7959
 11
8.60583
 21
-6.78256
  0
LINE
  8
0
 10
8.60583
 20
-6.78256
 11
8.59294
 21
-6.77101
  0
LINE
  8
0
 10
8.59294
 20
-6.77101
 11
8.57784
 21
-6.76123
  0
LINE
  8
0
 10
8.57784
 20
-6.76123
 11
8.5605
 21
-6.75323
  0
LINE
  8
0
 10
8.5605
 20
-6.75323
 11
8.51984
 21
-6.742
  0
LINE
  8
0
 10
8.51984
 20
-6.742
 11
8.49652
 21
-6.73901
  0
LINE
  8
0
 10
8.49652
 20
-6.73901
 11
8.25195
 21
-6.73801
  0
LINE
  8
0
 10
8.25195
 20
-6.73801
 11
8.25195
 21
-7.25
  0
LINE
  8
0
 10
8.25195
 20
-7.25
 11
8.31596
 21
-7.25
  0
LINE
  8
0
 10
8.31596
 20
-7.25
 11
8.31596
 21
-6.994
  0
LINE
  8
0
 10
8.31596
 20
-6.93001
 11
8.31596
 21
-6.802
  0
LINE
  8
0
 10
8.31596
 20
-6.802
 11
8.48108
 21
-6.80244
  0
LINE
  8
0
 10
8.48108
 20
-6.80244
 11
8.50995
 21
-6.80602
  0
LINE
  8
0
 10
8.50995
 20
-6.80602
 11
8.53351
 21
-6.81313
  0
LINE
  8
0
 10
8.53351
 20
-6.81313
 11
8.5515
 21
-6.82323
  0
LINE
  8
0
 10
8.5515
 20
-6.82323
 11
8.56395
 21
-6.83701
  0
LINE
  8
0
 10
8.56395
 20
-6.83701
 11
8.56839
 21
-6.84489
  0
LINE
  8
0
 10
8.56839
 20
-6.84489
 11
8.57195
 21
-6.86401
  0
LINE
  8
0
 10
8.57195
 20
-6.86401
 11
8.56927
 21
-6.88179
  0
LINE
  8
0
 10
8.56927
 20
-6.88179
 11
8.56117
 21
-6.89767
  0
LINE
  8
0
 10
8.56117
 20
-6.89767
 11
8.54695
 21
-6.91101
  0
LINE
  8
0
 10
8.54695
 20
-6.91101
 11
8.5265
 21
-6.92123
  0
LINE
  8
0
 10
8.5265
 20
-6.92123
 11
8.5004
 21
-6.92778
  0
LINE
  8
0
 10
8.5004
 20
-6.92778
 11
8.46796
 21
-6.93001
  0
LINE
  8
0
 10
8.46796
 20
-6.93001
 11
8.31596
 21
-6.93001
  0
ENDSEC
  0
SECTION
  2
OBJECTS
  0
DICTIONARY
  0
ENDSEC
  0
EOF
