  0
SECTION
  2
BLOCKS
  0
ENDSEC
  0
SECTION
  2
ENTITIES
  0
LINE
  8
0
 10
20
 20
14
 11
128
 21
14
  0
LINE
  8
0
 10
128
 20
14
 11
128
 21
74
  0
LINE
  8
0
 10
128
 20
74
 11
88
 21
74
  0
LINE
  8
0
 10
88
 20
74
 11
88
 21
42
  0
LINE
  8
0
 10
88
 20
42
 11
16
 21
42
  0
LINE
  8
0
 10
16
 20
42
 11
16
 21
40
  0
LINE
  8
0
 10
16
 20
40
 11
-20
 21
40
  0
LINE
  8
0
 10
-20
 20
40
 11
-20
 21
-40
  0
LINE
  8
0
 10
-20
 20
-40
 11
88
 21
-40
  0
LINE
  8
0
 10
88
 20
-40
 11
88
 21
-70
  0
LINE
  8
0
 10
88
 20
-70
 11
128
 21
-70
  0
LINE
  8
0
 10
128
 20
-70
 11
128
 21
-10
  0
LINE
  8
0
 10
128
 20
-10
 11
92
 21
-10
  0
LINE
  8
0
 10
92
 20
-10
 11
92
 21
0
  0
LINE
  8
0
 10
92
 20
0
 11
20
 21
0
  0
LINE
  8
0
 10
20
 20
0
 11
20
 21
14
  0
LINE
  8
0
 10
124
 20
70
 11
124
 21
18
  0
LINE
  8
0
 10
124
 20
18
 11
92
 21
18
  0
LINE
  8
0
 10
92
 20
18
 11
92
 21
70
  0
LINE
  8
0
 10
92
 20
70
 11
124
 21
70
  0
LINE
  8
0
 10
20
 20
18
 11
20
 21
38
  0
LINE
  8
0
 10
20
 20
38
 11
88
 21
38
  0
LINE
  8
0
 10
88
 20
38
 11
88
 21
18
  0
LINE
  8
0
 10
88
 20
18
 11
20
 21
18
  0
LINE
  8
0
 10
-16
 20
-36
 11
-16
 21
36
  0
LINE
  8
0
 10
-16
 20
36
 11
16
 21
36
  0
LINE
  8
0
 10
16
 20
36
 11
16
 21
-36
  0
LINE
  8
0
 10
16
 20
-36
 11
-16
 21
-36
  0
LINE
  8
0
 10
20
 20
-36
 11
20
 21
-4
  0
LINE
  8
0
 10
20
 20
-4
 11
52
 21
-4
  0
LINE
  8
0
 10
52
 20
-4
 11
52
 21
-36
  0
LINE
  8
0
 10
52
 20
-36
 11
20
 21
-36
  0
LINE
  8
0
 10
56
 20
-36
 11
56
 21
-4
  0
LINE
  8
0
 10
56
 20
-4
 11
88
 21
-4
  0
LINE
  8
0
 10
88
 20
-4
 11
88
 21
-36
  0
LINE
  8
0
 10
88
 20
-36
 11
56
 21
-36
  0
LINE
  8
0
 10
92
 20
-66
 11
92
 21
-14
  0
LINE
  8
0
 10
92
 20
-14
 11
124
 21
-14
  0
LINE
  8
0
 10
124
 20
-14
 11
124
 21
-66
  0
LINE
  8
0
 10
124
 20
-66
 11
92
 21
-66
  0
ENDSEC
  0
SECTION
  2
OBJECTS
  0
DICTIONARY
  0
ENDSEC
  0
EOF
