  0
SECTION
  2
BLOCKS
  0
ENDSEC
  0
SECTION
  2
ENTITIES
  0
LINE
  8
0
 10
10
 20
137.5
 11
-10
 21
137.5
  0
LINE
  8
0
 10
-10
 20
137.5
 11
-10
 21
-137.5
  0
LINE
  8
0
 10
-10
 20
-137.5
 11
10
 21
-137.5
  0
LINE
  8
0
 10
10
 20
-137.5
 11
10
 21
137.5
  0
LINE
  8
0
 10
-0.25116
 20
123.508
 11
-0.501328
 21
123.532
  0
LINE
  8
0
 10
-0.501328
 20
123.532
 11
-0.749512
 21
123.571
  0
LINE
  8
0
 10
-0.749512
 20
123.571
 11
-0.994751
 21
123.626
  0
LINE
  8
0
 10
-0.994751
 20
123.626
 11
-1.23605
 21
123.696
  0
LINE
  8
0
 10
-1.23605
 20
123.696
 11
-1.47249
 21
123.781
  0
LINE
  8
0
 10
-1.47249
 20
123.781
 11
-1.70311
 21
123.881
  0
LINE
  8
0
 10
-1.70311
 20
123.881
 11
-1.927
 21
123.995
  0
LINE
  8
0
 10
-1.927
 20
123.995
 11
-2.1433
 21
124.123
  0
LINE
  8
0
 10
-2.1433
 20
124.123
 11
-2.35114
 21
124.264
  0
LINE
  8
0
 10
-2.35114
 20
124.264
 11
-2.54968
 21
124.418
  0
LINE
  8
0
 10
-2.54968
 20
124.418
 11
-2.73817
 21
124.584
  0
LINE
  8
0
 10
-2.73817
 20
124.584
 11
-2.91586
 21
124.762
  0
LINE
  8
0
 10
-2.91586
 20
124.762
 11
-3.08205
 21
124.95
  0
LINE
  8
0
 10
-3.08205
 20
124.95
 11
-3.23605
 21
125.149
  0
LINE
  8
0
 10
-3.23605
 20
125.149
 11
-3.3773
 21
125.357
  0
LINE
  8
0
 10
-3.3773
 20
125.357
 11
-3.50522
 21
125.573
  0
LINE
  8
0
 10
-3.50522
 20
125.573
 11
-3.61929
 21
125.797
  0
LINE
  8
0
 10
-3.61929
 20
125.797
 11
-3.7191
 21
126.027
  0
LINE
  8
0
 10
-3.7191
 20
126.027
 11
-3.80421
 21
126.264
  0
LINE
  8
0
 10
-3.80421
 20
126.264
 11
-3.87433
 21
126.505
  0
LINE
  8
0
 10
-3.87433
 20
126.505
 11
-3.92914
 21
126.75
  0
LINE
  8
0
 10
-3.92914
 20
126.75
 11
-3.96844
 21
126.999
  0
LINE
  8
0
 10
-3.96844
 20
126.999
 11
-3.9921
 21
127.249
  0
LINE
  8
0
 10
-3.9921
 20
127.249
 11
-4
 21
127.5
  0
LINE
  8
0
 10
-4
 20
127.5
 11
-3.9921
 21
127.751
  0
LINE
  8
0
 10
-3.9921
 20
127.751
 11
-3.96844
 21
128.001
  0
LINE
  8
0
 10
-3.96844
 20
128.001
 11
-3.92914
 21
128.25
  0
LINE
  8
0
 10
-3.92914
 20
128.25
 11
-3.87433
 21
128.495
  0
LINE
  8
0
 10
-3.87433
 20
128.495
 11
-3.80421
 21
128.736
  0
LINE
  8
0
 10
-3.80421
 20
128.736
 11
-3.7191
 21
128.972
  0
LINE
  8
0
 10
-3.7191
 20
128.972
 11
-3.61929
 21
129.203
  0
LINE
  8
0
 10
-3.61929
 20
129.203
 11
-3.50522
 21
129.427
  0
LINE
  8
0
 10
-3.50522
 20
129.427
 11
-3.3773
 21
129.643
  0
LINE
  8
0
 10
-3.3773
 20
129.643
 11
-3.23605
 21
129.851
  0
LINE
  8
0
 10
-3.23605
 20
129.851
 11
-3.08205
 21
130.05
  0
LINE
  8
0
 10
-3.08205
 20
130.05
 11
-2.91586
 21
130.238
  0
LINE
  8
0
 10
-2.91586
 20
130.238
 11
-2.73817
 21
130.416
  0
LINE
  8
0
 10
-2.73817
 20
130.416
 11
-2.54968
 21
130.582
  0
LINE
  8
0
 10
-2.54968
 20
130.582
 11
-2.35114
 21
130.736
  0
LINE
  8
0
 10
-2.35114
 20
130.736
 11
-2.1433
 21
130.877
  0
LINE
  8
0
 10
-2.1433
 20
130.877
 11
-1.927
 21
131.005
  0
LINE
  8
0
 10
-1.927
 20
131.005
 11
-1.70311
 21
131.119
  0
LINE
  8
0
 10
-1.70311
 20
131.119
 11
-1.47249
 21
131.219
  0
LINE
  8
0
 10
-1.47249
 20
131.219
 11
-1.23605
 21
131.304
  0
LINE
  8
0
 10
-1.23605
 20
131.304
 11
-0.994751
 21
131.374
  0
LINE
  8
0
 10
-0.994751
 20
131.374
 11
-0.749512
 21
131.429
  0
LINE
  8
0
 10
-0.749512
 20
131.429
 11
-0.501328
 21
131.468
  0
LINE
  8
0
 10
-0.501328
 20
131.468
 11
-0.25116
 21
131.492
  0
LINE
  8
0
 10
-0.25116
 20
131.492
 11
0
 21
131.5
  0
LINE
  8
0
 10
0
 20
131.5
 11
0.25116
 21
131.492
  0
LINE
  8
0
 10
0.25116
 20
131.492
 11
0.501328
 21
131.468
  0
LINE
  8
0
 10
0.501328
 20
131.468
 11
0.749512
 21
131.429
  0
LINE
  8
0
 10
0.749512
 20
131.429
 11
0.994751
 21
131.374
  0
LINE
  8
0
 10
0.994751
 20
131.374
 11
1.23605
 21
131.304
  0
LINE
  8
0
 10
1.23605
 20
131.304
 11
1.47249
 21
131.219
  0
LINE
  8
0
 10
1.47249
 20
131.219
 11
1.70311
 21
131.119
  0
LINE
  8
0
 10
1.70311
 20
131.119
 11
1.927
 21
131.005
  0
LINE
  8
0
 10
1.927
 20
131.005
 11
2.1433
 21
130.877
  0
LINE
  8
0
 10
2.1433
 20
130.877
 11
2.35114
 21
130.736
  0
LINE
  8
0
 10
2.35114
 20
130.736
 11
2.54968
 21
130.582
  0
LINE
  8
0
 10
2.54968
 20
130.582
 11
2.73817
 21
130.416
  0
LINE
  8
0
 10
2.73817
 20
130.416
 11
2.91586
 21
130.238
  0
LINE
  8
0
 10
2.91586
 20
130.238
 11
3.08205
 21
130.05
  0
LINE
  8
0
 10
3.08205
 20
130.05
 11
3.23605
 21
129.851
  0
LINE
  8
0
 10
3.23605
 20
129.851
 11
3.3773
 21
129.643
  0
LINE
  8
0
 10
3.3773
 20
129.643
 11
3.50522
 21
129.427
  0
LINE
  8
0
 10
3.50522
 20
129.427
 11
3.61929
 21
129.203
  0
LINE
  8
0
 10
3.61929
 20
129.203
 11
3.7191
 21
128.972
  0
LINE
  8
0
 10
3.7191
 20
128.972
 11
3.80421
 21
128.736
  0
LINE
  8
0
 10
3.80421
 20
128.736
 11
3.87433
 21
128.495
  0
LINE
  8
0
 10
3.87433
 20
128.495
 11
3.92914
 21
128.25
  0
LINE
  8
0
 10
3.92914
 20
128.25
 11
3.96844
 21
128.001
  0
LINE
  8
0
 10
3.96844
 20
128.001
 11
3.9921
 21
127.751
  0
LINE
  8
0
 10
3.9921
 20
127.751
 11
4
 21
127.5
  0
LINE
  8
0
 10
4
 20
127.5
 11
3.9921
 21
127.249
  0
LINE
  8
0
 10
3.9921
 20
127.249
 11
3.96844
 21
126.999
  0
LINE
  8
0
 10
3.96844
 20
126.999
 11
3.92914
 21
126.75
  0
LINE
  8
0
 10
3.92914
 20
126.75
 11
3.87433
 21
126.505
  0
LINE
  8
0
 10
3.87433
 20
126.505
 11
3.80421
 21
126.264
  0
LINE
  8
0
 10
3.80421
 20
126.264
 11
3.7191
 21
126.027
  0
LINE
  8
0
 10
3.7191
 20
126.027
 11
3.61929
 21
125.797
  0
LINE
  8
0
 10
3.61929
 20
125.797
 11
3.50522
 21
125.573
  0
LINE
  8
0
 10
3.50522
 20
125.573
 11
3.3773
 21
125.357
  0
LINE
  8
0
 10
3.3773
 20
125.357
 11
3.23605
 21
125.149
  0
LINE
  8
0
 10
3.23605
 20
125.149
 11
3.08205
 21
124.95
  0
LINE
  8
0
 10
3.08205
 20
124.95
 11
2.91586
 21
124.762
  0
LINE
  8
0
 10
2.91586
 20
124.762
 11
2.73817
 21
124.584
  0
LINE
  8
0
 10
2.73817
 20
124.584
 11
2.54968
 21
124.418
  0
LINE
  8
0
 10
2.54968
 20
124.418
 11
2.35114
 21
124.264
  0
LINE
  8
0
 10
2.35114
 20
124.264
 11
2.1433
 21
124.123
  0
LINE
  8
0
 10
2.1433
 20
124.123
 11
1.927
 21
123.995
  0
LINE
  8
0
 10
1.927
 20
123.995
 11
1.70311
 21
123.881
  0
LINE
  8
0
 10
1.70311
 20
123.881
 11
1.47249
 21
123.781
  0
LINE
  8
0
 10
1.47249
 20
123.781
 11
1.23605
 21
123.696
  0
LINE
  8
0
 10
1.23605
 20
123.696
 11
0.994751
 21
123.626
  0
LINE
  8
0
 10
0.994751
 20
123.626
 11
0.749512
 21
123.571
  0
LINE
  8
0
 10
0.749512
 20
123.571
 11
0.501328
 21
123.532
  0
LINE
  8
0
 10
0.501328
 20
123.532
 11
0.25116
 21
123.508
  0
LINE
  8
0
 10
0.25116
 20
123.508
 11
0
 21
123.5
  0
LINE
  8
0
 10
0
 20
123.5
 11
-0.25116
 21
123.508
  0
LINE
  8
0
 10
-0.25116
 20
-131.492
 11
-0.501328
 21
-131.468
  0
LINE
  8
0
 10
-0.501328
 20
-131.468
 11
-0.749512
 21
-131.429
  0
LINE
  8
0
 10
-0.749512
 20
-131.429
 11
-0.994751
 21
-131.374
  0
LINE
  8
0
 10
-0.994751
 20
-131.374
 11
-1.23605
 21
-131.304
  0
LINE
  8
0
 10
-1.23605
 20
-131.304
 11
-1.47249
 21
-131.219
  0
LINE
  8
0
 10
-1.47249
 20
-131.219
 11
-1.70311
 21
-131.119
  0
LINE
  8
0
 10
-1.70311
 20
-131.119
 11
-1.927
 21
-131.005
  0
LINE
  8
0
 10
-1.927
 20
-131.005
 11
-2.1433
 21
-130.877
  0
LINE
  8
0
 10
-2.1433
 20
-130.877
 11
-2.35114
 21
-130.736
  0
LINE
  8
0
 10
-2.35114
 20
-130.736
 11
-2.54968
 21
-130.582
  0
LINE
  8
0
 10
-2.54968
 20
-130.582
 11
-2.73817
 21
-130.416
  0
LINE
  8
0
 10
-2.73817
 20
-130.416
 11
-2.91586
 21
-130.238
  0
LINE
  8
0
 10
-2.91586
 20
-130.238
 11
-3.08205
 21
-130.05
  0
LINE
  8
0
 10
-3.08205
 20
-130.05
 11
-3.23605
 21
-129.851
  0
LINE
  8
0
 10
-3.23605
 20
-129.851
 11
-3.3773
 21
-129.643
  0
LINE
  8
0
 10
-3.3773
 20
-129.643
 11
-3.50522
 21
-129.427
  0
LINE
  8
0
 10
-3.50522
 20
-129.427
 11
-3.61929
 21
-129.203
  0
LINE
  8
0
 10
-3.61929
 20
-129.203
 11
-3.7191
 21
-128.972
  0
LINE
  8
0
 10
-3.7191
 20
-128.972
 11
-3.80421
 21
-128.736
  0
LINE
  8
0
 10
-3.80421
 20
-128.736
 11
-3.87433
 21
-128.495
  0
LINE
  8
0
 10
-3.87433
 20
-128.495
 11
-3.92914
 21
-128.25
  0
LINE
  8
0
 10
-3.92914
 20
-128.25
 11
-3.96844
 21
-128.001
  0
LINE
  8
0
 10
-3.96844
 20
-128.001
 11
-3.9921
 21
-127.751
  0
LINE
  8
0
 10
-3.9921
 20
-127.751
 11
-4
 21
-127.5
  0
LINE
  8
0
 10
-4
 20
-127.5
 11
-3.9921
 21
-127.249
  0
LINE
  8
0
 10
-3.9921
 20
-127.249
 11
-3.96844
 21
-126.999
  0
LINE
  8
0
 10
-3.96844
 20
-126.999
 11
-3.92914
 21
-126.75
  0
LINE
  8
0
 10
-3.92914
 20
-126.75
 11
-3.87433
 21
-126.505
  0
LINE
  8
0
 10
-3.87433
 20
-126.505
 11
-3.80421
 21
-126.264
  0
LINE
  8
0
 10
-3.80421
 20
-126.264
 11
-3.7191
 21
-126.027
  0
LINE
  8
0
 10
-3.7191
 20
-126.027
 11
-3.61929
 21
-125.797
  0
LINE
  8
0
 10
-3.61929
 20
-125.797
 11
-3.50522
 21
-125.573
  0
LINE
  8
0
 10
-3.50522
 20
-125.573
 11
-3.3773
 21
-125.357
  0
LINE
  8
0
 10
-3.3773
 20
-125.357
 11
-3.23605
 21
-125.149
  0
LINE
  8
0
 10
-3.23605
 20
-125.149
 11
-3.08205
 21
-124.95
  0
LINE
  8
0
 10
-3.08205
 20
-124.95
 11
-2.91586
 21
-124.762
  0
LINE
  8
0
 10
-2.91586
 20
-124.762
 11
-2.73817
 21
-124.584
  0
LINE
  8
0
 10
-2.73817
 20
-124.584
 11
-2.54968
 21
-124.418
  0
LINE
  8
0
 10
-2.54968
 20
-124.418
 11
-2.35114
 21
-124.264
  0
LINE
  8
0
 10
-2.35114
 20
-124.264
 11
-2.1433
 21
-124.123
  0
LINE
  8
0
 10
-2.1433
 20
-124.123
 11
-1.927
 21
-123.995
  0
LINE
  8
0
 10
-1.927
 20
-123.995
 11
-1.70311
 21
-123.881
  0
LINE
  8
0
 10
-1.70311
 20
-123.881
 11
-1.47249
 21
-123.781
  0
LINE
  8
0
 10
-1.47249
 20
-123.781
 11
-1.23605
 21
-123.696
  0
LINE
  8
0
 10
-1.23605
 20
-123.696
 11
-0.994751
 21
-123.626
  0
LINE
  8
0
 10
-0.994751
 20
-123.626
 11
-0.749512
 21
-123.571
  0
LINE
  8
0
 10
-0.749512
 20
-123.571
 11
-0.501328
 21
-123.532
  0
LINE
  8
0
 10
-0.501328
 20
-123.532
 11
-0.25116
 21
-123.508
  0
LINE
  8
0
 10
-0.25116
 20
-123.508
 11
0
 21
-123.5
  0
LINE
  8
0
 10
0
 20
-123.5
 11
0.25116
 21
-123.508
  0
LINE
  8
0
 10
0.25116
 20
-123.508
 11
0.501328
 21
-123.532
  0
LINE
  8
0
 10
0.501328
 20
-123.532
 11
0.749512
 21
-123.571
  0
LINE
  8
0
 10
0.749512
 20
-123.571
 11
0.994751
 21
-123.626
  0
LINE
  8
0
 10
0.994751
 20
-123.626
 11
1.23605
 21
-123.696
  0
LINE
  8
0
 10
1.23605
 20
-123.696
 11
1.47249
 21
-123.781
  0
LINE
  8
0
 10
1.47249
 20
-123.781
 11
1.70311
 21
-123.881
  0
LINE
  8
0
 10
1.70311
 20
-123.881
 11
1.927
 21
-123.995
  0
LINE
  8
0
 10
1.927
 20
-123.995
 11
2.1433
 21
-124.123
  0
LINE
  8
0
 10
2.1433
 20
-124.123
 11
2.35114
 21
-124.264
  0
LINE
  8
0
 10
2.35114
 20
-124.264
 11
2.54968
 21
-124.418
  0
LINE
  8
0
 10
2.54968
 20
-124.418
 11
2.73817
 21
-124.584
  0
LINE
  8
0
 10
2.73817
 20
-124.584
 11
2.91586
 21
-124.762
  0
LINE
  8
0
 10
2.91586
 20
-124.762
 11
3.08205
 21
-124.95
  0
LINE
  8
0
 10
3.08205
 20
-124.95
 11
3.23605
 21
-125.149
  0
LINE
  8
0
 10
3.23605
 20
-125.149
 11
3.3773
 21
-125.357
  0
LINE
  8
0
 10
3.3773
 20
-125.357
 11
3.50522
 21
-125.573
  0
LINE
  8
0
 10
3.50522
 20
-125.573
 11
3.61929
 21
-125.797
  0
LINE
  8
0
 10
3.61929
 20
-125.797
 11
3.7191
 21
-126.027
  0
LINE
  8
0
 10
3.7191
 20
-126.027
 11
3.80421
 21
-126.264
  0
LINE
  8
0
 10
3.80421
 20
-126.264
 11
3.87433
 21
-126.505
  0
LINE
  8
0
 10
3.87433
 20
-126.505
 11
3.92914
 21
-126.75
  0
LINE
  8
0
 10
3.92914
 20
-126.75
 11
3.96844
 21
-126.999
  0
LINE
  8
0
 10
3.96844
 20
-126.999
 11
3.9921
 21
-127.249
  0
LINE
  8
0
 10
3.9921
 20
-127.249
 11
4
 21
-127.5
  0
LINE
  8
0
 10
4
 20
-127.5
 11
3.9921
 21
-127.751
  0
LINE
  8
0
 10
3.9921
 20
-127.751
 11
3.96844
 21
-128.001
  0
LINE
  8
0
 10
3.96844
 20
-128.001
 11
3.92914
 21
-128.25
  0
LINE
  8
0
 10
3.92914
 20
-128.25
 11
3.87433
 21
-128.495
  0
LINE
  8
0
 10
3.87433
 20
-128.495
 11
3.80421
 21
-128.736
  0
LINE
  8
0
 10
3.80421
 20
-128.736
 11
3.7191
 21
-128.972
  0
LINE
  8
0
 10
3.7191
 20
-128.972
 11
3.61929
 21
-129.203
  0
LINE
  8
0
 10
3.61929
 20
-129.203
 11
3.50522
 21
-129.427
  0
LINE
  8
0
 10
3.50522
 20
-129.427
 11
3.3773
 21
-129.643
  0
LINE
  8
0
 10
3.3773
 20
-129.643
 11
3.23605
 21
-129.851
  0
LINE
  8
0
 10
3.23605
 20
-129.851
 11
3.08205
 21
-130.05
  0
LINE
  8
0
 10
3.08205
 20
-130.05
 11
2.91586
 21
-130.238
  0
LINE
  8
0
 10
2.91586
 20
-130.238
 11
2.73817
 21
-130.416
  0
LINE
  8
0
 10
2.73817
 20
-130.416
 11
2.54968
 21
-130.582
  0
LINE
  8
0
 10
2.54968
 20
-130.582
 11
2.35114
 21
-130.736
  0
LINE
  8
0
 10
2.35114
 20
-130.736
 11
2.1433
 21
-130.877
  0
LINE
  8
0
 10
2.1433
 20
-130.877
 11
1.927
 21
-131.005
  0
LINE
  8
0
 10
1.927
 20
-131.005
 11
1.70311
 21
-131.119
  0
LINE
  8
0
 10
1.70311
 20
-131.119
 11
1.47249
 21
-131.219
  0
LINE
  8
0
 10
1.47249
 20
-131.219
 11
1.23605
 21
-131.304
  0
LINE
  8
0
 10
1.23605
 20
-131.304
 11
0.994751
 21
-131.374
  0
LINE
  8
0
 10
0.994751
 20
-131.374
 11
0.749512
 21
-131.429
  0
LINE
  8
0
 10
0.749512
 20
-131.429
 11
0.501328
 21
-131.468
  0
LINE
  8
0
 10
0.501328
 20
-131.468
 11
0.25116
 21
-131.492
  0
LINE
  8
0
 10
0.25116
 20
-131.492
 11
0
 21
-131.5
  0
LINE
  8
0
 10
0
 20
-131.5
 11
-0.25116
 21
-131.492
  0
ENDSEC
  0
SECTION
  2
OBJECTS
  0
DICTIONARY
  0
ENDSEC
  0
EOF
