  0
SECTION
  2
BLOCKS
  0
ENDSEC
  0
SECTION
  2
ENTITIES
  0
LINE
  8
0
 10
85
 20
57.5
 11
-85
 21
57.5
  0
LINE
  8
0
 10
-85
 20
57.5
 11
-85
 21
-137.5
  0
LINE
  8
0
 10
-85
 20
-137.5
 11
85
 21
-137.5
  0
LINE
  8
0
 10
85
 20
-137.5
 11
85
 21
57.5
  0
LINE
  8
0
 10
-80.1256
 20
38.0039
 11
-80.2507
 21
38.0158
  0
LINE
  8
0
 10
-80.2507
 20
38.0158
 11
-80.3748
 21
38.0354
  0
LINE
  8
0
 10
-80.3748
 20
38.0354
 11
-80.4974
 21
38.0628
  0
LINE
  8
0
 10
-80.4974
 20
38.0628
 11
-80.618
 21
38.0979
  0
LINE
  8
0
 10
-80.618
 20
38.0979
 11
-80.7362
 21
38.1404
  0
LINE
  8
0
 10
-80.7362
 20
38.1404
 11
-80.8515
 21
38.1903
  0
LINE
  8
0
 10
-80.8515
 20
38.1903
 11
-80.9635
 21
38.2474
  0
LINE
  8
0
 10
-80.9635
 20
38.2474
 11
-81.0716
 21
38.3113
  0
LINE
  8
0
 10
-81.0716
 20
38.3113
 11
-81.1756
 21
38.382
  0
LINE
  8
0
 10
-81.1756
 20
38.382
 11
-81.2748
 21
38.459
  0
LINE
  8
0
 10
-81.2748
 20
38.459
 11
-81.3691
 21
38.5421
  0
LINE
  8
0
 10
-81.3691
 20
38.5421
 11
-81.4579
 21
38.6309
  0
LINE
  8
0
 10
-81.4579
 20
38.6309
 11
-81.541
 21
38.7251
  0
LINE
  8
0
 10
-81.541
 20
38.7251
 11
-81.618
 21
38.8244
  0
LINE
  8
0
 10
-81.618
 20
38.8244
 11
-81.6886
 21
38.9283
  0
LINE
  8
0
 10
-81.6886
 20
38.9283
 11
-81.7526
 21
39.0365
  0
LINE
  8
0
 10
-81.7526
 20
39.0365
 11
-81.8096
 21
39.1484
  0
LINE
  8
0
 10
-81.8096
 20
39.1484
 11
-81.8595
 21
39.2637
  0
LINE
  8
0
 10
-81.8595
 20
39.2637
 11
-81.9021
 21
39.382
  0
LINE
  8
0
 10
-81.9021
 20
39.382
 11
-81.9372
 21
39.5026
  0
LINE
  8
0
 10
-81.9372
 20
39.5026
 11
-81.9646
 21
39.6252
  0
LINE
  8
0
 10
-81.9646
 20
39.6252
 11
-81.9842
 21
39.7493
  0
LINE
  8
0
 10
-81.9842
 20
39.7493
 11
-81.996
 21
39.8744
  0
LINE
  8
0
 10
-81.996
 20
39.8744
 11
-82
 21
40
  0
LINE
  8
0
 10
-82
 20
40
 11
-81.996
 21
40.1256
  0
LINE
  8
0
 10
-81.996
 20
40.1256
 11
-81.9842
 21
40.2507
  0
LINE
  8
0
 10
-81.9842
 20
40.2507
 11
-81.9646
 21
40.3748
  0
LINE
  8
0
 10
-81.9646
 20
40.3748
 11
-81.9372
 21
40.4974
  0
LINE
  8
0
 10
-81.9372
 20
40.4974
 11
-81.9021
 21
40.618
  0
LINE
  8
0
 10
-81.9021
 20
40.618
 11
-81.8595
 21
40.7362
  0
LINE
  8
0
 10
-81.8595
 20
40.7362
 11
-81.8096
 21
40.8515
  0
LINE
  8
0
 10
-81.8096
 20
40.8515
 11
-81.7526
 21
40.9635
  0
LINE
  8
0
 10
-81.7526
 20
40.9635
 11
-81.6886
 21
41.0716
  0
LINE
  8
0
 10
-81.6886
 20
41.0716
 11
-81.618
 21
41.1756
  0
LINE
  8
0
 10
-81.618
 20
41.1756
 11
-81.541
 21
41.2748
  0
LINE
  8
0
 10
-81.541
 20
41.2748
 11
-81.4579
 21
41.3691
  0
LINE
  8
0
 10
-81.4579
 20
41.3691
 11
-81.3691
 21
41.4579
  0
LINE
  8
0
 10
-81.3691
 20
41.4579
 11
-81.2748
 21
41.541
  0
LINE
  8
0
 10
-81.2748
 20
41.541
 11
-81.1756
 21
41.618
  0
LINE
  8
0
 10
-81.1756
 20
41.618
 11
-81.0716
 21
41.6886
  0
LINE
  8
0
 10
-81.0716
 20
41.6886
 11
-80.9635
 21
41.7526
  0
LINE
  8
0
 10
-80.9635
 20
41.7526
 11
-80.8515
 21
41.8096
  0
LINE
  8
0
 10
-80.8515
 20
41.8096
 11
-80.7362
 21
41.8595
  0
LINE
  8
0
 10
-80.7362
 20
41.8595
 11
-80.618
 21
41.9021
  0
LINE
  8
0
 10
-80.618
 20
41.9021
 11
-80.4974
 21
41.9372
  0
LINE
  8
0
 10
-80.4974
 20
41.9372
 11
-80.3748
 21
41.9646
  0
LINE
  8
0
 10
-80.3748
 20
41.9646
 11
-80.2507
 21
41.9842
  0
LINE
  8
0
 10
-80.2507
 20
41.9842
 11
-80.1256
 21
41.996
  0
LINE
  8
0
 10
-80.1256
 20
41.996
 11
-80
 21
42
  0
LINE
  8
0
 10
-80
 20
42
 11
-79.8744
 21
41.996
  0
LINE
  8
0
 10
-79.8744
 20
41.996
 11
-79.7493
 21
41.9842
  0
LINE
  8
0
 10
-79.7493
 20
41.9842
 11
-79.6252
 21
41.9646
  0
LINE
  8
0
 10
-79.6252
 20
41.9646
 11
-79.5026
 21
41.9372
  0
LINE
  8
0
 10
-79.5026
 20
41.9372
 11
-79.382
 21
41.9021
  0
LINE
  8
0
 10
-79.382
 20
41.9021
 11
-79.2638
 21
41.8595
  0
LINE
  8
0
 10
-79.2638
 20
41.8595
 11
-79.1485
 21
41.8096
  0
LINE
  8
0
 10
-79.1485
 20
41.8096
 11
-79.0365
 21
41.7526
  0
LINE
  8
0
 10
-79.0365
 20
41.7526
 11
-78.9284
 21
41.6886
  0
LINE
  8
0
 10
-78.9284
 20
41.6886
 11
-78.8244
 21
41.618
  0
LINE
  8
0
 10
-78.8244
 20
41.618
 11
-78.7252
 21
41.541
  0
LINE
  8
0
 10
-78.7252
 20
41.541
 11
-78.6309
 21
41.4579
  0
LINE
  8
0
 10
-78.6309
 20
41.4579
 11
-78.5421
 21
41.3691
  0
LINE
  8
0
 10
-78.5421
 20
41.3691
 11
-78.459
 21
41.2748
  0
LINE
  8
0
 10
-78.459
 20
41.2748
 11
-78.382
 21
41.1756
  0
LINE
  8
0
 10
-78.382
 20
41.1756
 11
-78.3114
 21
41.0716
  0
LINE
  8
0
 10
-78.3114
 20
41.0716
 11
-78.2474
 21
40.9635
  0
LINE
  8
0
 10
-78.2474
 20
40.9635
 11
-78.1904
 21
40.8515
  0
LINE
  8
0
 10
-78.1904
 20
40.8515
 11
-78.1405
 21
40.7362
  0
LINE
  8
0
 10
-78.1405
 20
40.7362
 11
-78.0979
 21
40.618
  0
LINE
  8
0
 10
-78.0979
 20
40.618
 11
-78.0628
 21
40.4974
  0
LINE
  8
0
 10
-78.0628
 20
40.4974
 11
-78.0354
 21
40.3748
  0
LINE
  8
0
 10
-78.0354
 20
40.3748
 11
-78.0158
 21
40.2507
  0
LINE
  8
0
 10
-78.0158
 20
40.2507
 11
-78.004
 21
40.1256
  0
LINE
  8
0
 10
-78.004
 20
40.1256
 11
-78
 21
40
  0
LINE
  8
0
 10
-78
 20
40
 11
-78.004
 21
39.8744
  0
LINE
  8
0
 10
-78.004
 20
39.8744
 11
-78.0158
 21
39.7493
  0
LINE
  8
0
 10
-78.0158
 20
39.7493
 11
-78.0354
 21
39.6252
  0
LINE
  8
0
 10
-78.0354
 20
39.6252
 11
-78.0628
 21
39.5026
  0
LINE
  8
0
 10
-78.0628
 20
39.5026
 11
-78.0979
 21
39.382
  0
LINE
  8
0
 10
-78.0979
 20
39.382
 11
-78.1405
 21
39.2637
  0
LINE
  8
0
 10
-78.1405
 20
39.2637
 11
-78.1904
 21
39.1484
  0
LINE
  8
0
 10
-78.1904
 20
39.1484
 11
-78.2474
 21
39.0365
  0
LINE
  8
0
 10
-78.2474
 20
39.0365
 11
-78.3114
 21
38.9283
  0
LINE
  8
0
 10
-78.3114
 20
38.9283
 11
-78.382
 21
38.8244
  0
LINE
  8
0
 10
-78.382
 20
38.8244
 11
-78.459
 21
38.7251
  0
LINE
  8
0
 10
-78.459
 20
38.7251
 11
-78.5421
 21
38.6309
  0
LINE
  8
0
 10
-78.5421
 20
38.6309
 11
-78.6309
 21
38.5421
  0
LINE
  8
0
 10
-78.6309
 20
38.5421
 11
-78.7252
 21
38.459
  0
LINE
  8
0
 10
-78.7252
 20
38.459
 11
-78.8244
 21
38.382
  0
LINE
  8
0
 10
-78.8244
 20
38.382
 11
-78.9284
 21
38.3113
  0
LINE
  8
0
 10
-78.9284
 20
38.3113
 11
-79.0365
 21
38.2474
  0
LINE
  8
0
 10
-79.0365
 20
38.2474
 11
-79.1485
 21
38.1903
  0
LINE
  8
0
 10
-79.1485
 20
38.1903
 11
-79.2638
 21
38.1404
  0
LINE
  8
0
 10
-79.2638
 20
38.1404
 11
-79.382
 21
38.0979
  0
LINE
  8
0
 10
-79.382
 20
38.0979
 11
-79.5026
 21
38.0628
  0
LINE
  8
0
 10
-79.5026
 20
38.0628
 11
-79.6252
 21
38.0354
  0
LINE
  8
0
 10
-79.6252
 20
38.0354
 11
-79.7493
 21
38.0158
  0
LINE
  8
0
 10
-79.7493
 20
38.0158
 11
-79.8744
 21
38.0039
  0
LINE
  8
0
 10
-79.8744
 20
38.0039
 11
-80
 21
38
  0
LINE
  8
0
 10
-80
 20
38
 11
-80.1256
 21
38.0039
  0
LINE
  8
0
 10
-40.1256
 20
38.0039
 11
-40.2507
 21
38.0158
  0
LINE
  8
0
 10
-40.2507
 20
38.0158
 11
-40.3748
 21
38.0354
  0
LINE
  8
0
 10
-40.3748
 20
38.0354
 11
-40.4974
 21
38.0628
  0
LINE
  8
0
 10
-40.4974
 20
38.0628
 11
-40.618
 21
38.0979
  0
LINE
  8
0
 10
-40.618
 20
38.0979
 11
-40.7363
 21
38.1404
  0
LINE
  8
0
 10
-40.7363
 20
38.1404
 11
-40.8516
 21
38.1903
  0
LINE
  8
0
 10
-40.8516
 20
38.1903
 11
-40.9635
 21
38.2474
  0
LINE
  8
0
 10
-40.9635
 20
38.2474
 11
-41.0717
 21
38.3113
  0
LINE
  8
0
 10
-41.0717
 20
38.3113
 11
-41.1756
 21
38.382
  0
LINE
  8
0
 10
-41.1756
 20
38.382
 11
-41.2749
 21
38.459
  0
LINE
  8
0
 10
-41.2749
 20
38.459
 11
-41.3691
 21
38.5421
  0
LINE
  8
0
 10
-41.3691
 20
38.5421
 11
-41.4579
 21
38.6309
  0
LINE
  8
0
 10
-41.4579
 20
38.6309
 11
-41.541
 21
38.7251
  0
LINE
  8
0
 10
-41.541
 20
38.7251
 11
-41.618
 21
38.8244
  0
LINE
  8
0
 10
-41.618
 20
38.8244
 11
-41.6887
 21
38.9283
  0
LINE
  8
0
 10
-41.6887
 20
38.9283
 11
-41.7526
 21
39.0365
  0
LINE
  8
0
 10
-41.7526
 20
39.0365
 11
-41.8097
 21
39.1484
  0
LINE
  8
0
 10
-41.8097
 20
39.1484
 11
-41.8596
 21
39.2637
  0
LINE
  8
0
 10
-41.8596
 20
39.2637
 11
-41.9021
 21
39.382
  0
LINE
  8
0
 10
-41.9021
 20
39.382
 11
-41.9372
 21
39.5026
  0
LINE
  8
0
 10
-41.9372
 20
39.5026
 11
-41.9646
 21
39.6252
  0
LINE
  8
0
 10
-41.9646
 20
39.6252
 11
-41.9842
 21
39.7493
  0
LINE
  8
0
 10
-41.9842
 20
39.7493
 11
-41.9961
 21
39.8744
  0
LINE
  8
0
 10
-41.9961
 20
39.8744
 11
-42
 21
40
  0
LINE
  8
0
 10
-42
 20
40
 11
-41.9961
 21
40.1256
  0
LINE
  8
0
 10
-41.9961
 20
40.1256
 11
-41.9842
 21
40.2507
  0
LINE
  8
0
 10
-41.9842
 20
40.2507
 11
-41.9646
 21
40.3748
  0
LINE
  8
0
 10
-41.9646
 20
40.3748
 11
-41.9372
 21
40.4974
  0
LINE
  8
0
 10
-41.9372
 20
40.4974
 11
-41.9021
 21
40.618
  0
LINE
  8
0
 10
-41.9021
 20
40.618
 11
-41.8596
 21
40.7362
  0
LINE
  8
0
 10
-41.8596
 20
40.7362
 11
-41.8097
 21
40.8515
  0
LINE
  8
0
 10
-41.8097
 20
40.8515
 11
-41.7526
 21
40.9635
  0
LINE
  8
0
 10
-41.7526
 20
40.9635
 11
-41.6887
 21
41.0716
  0
LINE
  8
0
 10
-41.6887
 20
41.0716
 11
-41.618
 21
41.1756
  0
LINE
  8
0
 10
-41.618
 20
41.1756
 11
-41.541
 21
41.2748
  0
LINE
  8
0
 10
-41.541
 20
41.2748
 11
-41.4579
 21
41.3691
  0
LINE
  8
0
 10
-41.4579
 20
41.3691
 11
-41.3691
 21
41.4579
  0
LINE
  8
0
 10
-41.3691
 20
41.4579
 11
-41.2749
 21
41.541
  0
LINE
  8
0
 10
-41.2749
 20
41.541
 11
-41.1756
 21
41.618
  0
LINE
  8
0
 10
-41.1756
 20
41.618
 11
-41.0717
 21
41.6886
  0
LINE
  8
0
 10
-41.0717
 20
41.6886
 11
-40.9635
 21
41.7526
  0
LINE
  8
0
 10
-40.9635
 20
41.7526
 11
-40.8516
 21
41.8096
  0
LINE
  8
0
 10
-40.8516
 20
41.8096
 11
-40.7363
 21
41.8595
  0
LINE
  8
0
 10
-40.7363
 20
41.8595
 11
-40.618
 21
41.9021
  0
LINE
  8
0
 10
-40.618
 20
41.9021
 11
-40.4974
 21
41.9372
  0
LINE
  8
0
 10
-40.4974
 20
41.9372
 11
-40.3748
 21
41.9646
  0
LINE
  8
0
 10
-40.3748
 20
41.9646
 11
-40.2507
 21
41.9842
  0
LINE
  8
0
 10
-40.2507
 20
41.9842
 11
-40.1256
 21
41.996
  0
LINE
  8
0
 10
-40.1256
 20
41.996
 11
-40
 21
42
  0
LINE
  8
0
 10
-40
 20
42
 11
-39.8744
 21
41.996
  0
LINE
  8
0
 10
-39.8744
 20
41.996
 11
-39.7493
 21
41.9842
  0
LINE
  8
0
 10
-39.7493
 20
41.9842
 11
-39.6252
 21
41.9646
  0
LINE
  8
0
 10
-39.6252
 20
41.9646
 11
-39.5026
 21
41.9372
  0
LINE
  8
0
 10
-39.5026
 20
41.9372
 11
-39.382
 21
41.9021
  0
LINE
  8
0
 10
-39.382
 20
41.9021
 11
-39.2638
 21
41.8595
  0
LINE
  8
0
 10
-39.2638
 20
41.8595
 11
-39.1485
 21
41.8096
  0
LINE
  8
0
 10
-39.1485
 20
41.8096
 11
-39.0365
 21
41.7526
  0
LINE
  8
0
 10
-39.0365
 20
41.7526
 11
-38.9284
 21
41.6886
  0
LINE
  8
0
 10
-38.9284
 20
41.6886
 11
-38.8244
 21
41.618
  0
LINE
  8
0
 10
-38.8244
 20
41.618
 11
-38.7252
 21
41.541
  0
LINE
  8
0
 10
-38.7252
 20
41.541
 11
-38.6309
 21
41.4579
  0
LINE
  8
0
 10
-38.6309
 20
41.4579
 11
-38.5421
 21
41.3691
  0
LINE
  8
0
 10
-38.5421
 20
41.3691
 11
-38.459
 21
41.2748
  0
LINE
  8
0
 10
-38.459
 20
41.2748
 11
-38.382
 21
41.1756
  0
LINE
  8
0
 10
-38.382
 20
41.1756
 11
-38.3114
 21
41.0716
  0
LINE
  8
0
 10
-38.3114
 20
41.0716
 11
-38.2474
 21
40.9635
  0
LINE
  8
0
 10
-38.2474
 20
40.9635
 11
-38.1904
 21
40.8515
  0
LINE
  8
0
 10
-38.1904
 20
40.8515
 11
-38.1405
 21
40.7362
  0
LINE
  8
0
 10
-38.1405
 20
40.7362
 11
-38.0979
 21
40.618
  0
LINE
  8
0
 10
-38.0979
 20
40.618
 11
-38.0628
 21
40.4974
  0
LINE
  8
0
 10
-38.0628
 20
40.4974
 11
-38.0354
 21
40.3748
  0
LINE
  8
0
 10
-38.0354
 20
40.3748
 11
-38.0158
 21
40.2507
  0
LINE
  8
0
 10
-38.0158
 20
40.2507
 11
-38.004
 21
40.1256
  0
LINE
  8
0
 10
-38.004
 20
40.1256
 11
-38
 21
40
  0
LINE
  8
0
 10
-38
 20
40
 11
-38.004
 21
39.8744
  0
LINE
  8
0
 10
-38.004
 20
39.8744
 11
-38.0158
 21
39.7493
  0
LINE
  8
0
 10
-38.0158
 20
39.7493
 11
-38.0354
 21
39.6252
  0
LINE
  8
0
 10
-38.0354
 20
39.6252
 11
-38.0628
 21
39.5026
  0
LINE
  8
0
 10
-38.0628
 20
39.5026
 11
-38.0979
 21
39.382
  0
LINE
  8
0
 10
-38.0979
 20
39.382
 11
-38.1405
 21
39.2637
  0
LINE
  8
0
 10
-38.1405
 20
39.2637
 11
-38.1904
 21
39.1484
  0
LINE
  8
0
 10
-38.1904
 20
39.1484
 11
-38.2474
 21
39.0365
  0
LINE
  8
0
 10
-38.2474
 20
39.0365
 11
-38.3114
 21
38.9283
  0
LINE
  8
0
 10
-38.3114
 20
38.9283
 11
-38.382
 21
38.8244
  0
LINE
  8
0
 10
-38.382
 20
38.8244
 11
-38.459
 21
38.7251
  0
LINE
  8
0
 10
-38.459
 20
38.7251
 11
-38.5421
 21
38.6309
  0
LINE
  8
0
 10
-38.5421
 20
38.6309
 11
-38.6309
 21
38.5421
  0
LINE
  8
0
 10
-38.6309
 20
38.5421
 11
-38.7252
 21
38.459
  0
LINE
  8
0
 10
-38.7252
 20
38.459
 11
-38.8244
 21
38.382
  0
LINE
  8
0
 10
-38.8244
 20
38.382
 11
-38.9284
 21
38.3113
  0
LINE
  8
0
 10
-38.9284
 20
38.3113
 11
-39.0365
 21
38.2474
  0
LINE
  8
0
 10
-39.0365
 20
38.2474
 11
-39.1485
 21
38.1903
  0
LINE
  8
0
 10
-39.1485
 20
38.1903
 11
-39.2638
 21
38.1404
  0
LINE
  8
0
 10
-39.2638
 20
38.1404
 11
-39.382
 21
38.0979
  0
LINE
  8
0
 10
-39.382
 20
38.0979
 11
-39.5026
 21
38.0628
  0
LINE
  8
0
 10
-39.5026
 20
38.0628
 11
-39.6252
 21
38.0354
  0
LINE
  8
0
 10
-39.6252
 20
38.0354
 11
-39.7493
 21
38.0158
  0
LINE
  8
0
 10
-39.7493
 20
38.0158
 11
-39.8744
 21
38.0039
  0
LINE
  8
0
 10
-39.8744
 20
38.0039
 11
-40
 21
38
  0
LINE
  8
0
 10
-40
 20
38
 11
-40.1256
 21
38.0039
  0
LINE
  8
0
 10
79.8744
 20
38.0039
 11
79.7493
 21
38.0158
  0
LINE
  8
0
 10
79.7493
 20
38.0158
 11
79.6252
 21
38.0354
  0
LINE
  8
0
 10
79.6252
 20
38.0354
 11
79.5026
 21
38.0628
  0
LINE
  8
0
 10
79.5026
 20
38.0628
 11
79.382
 21
38.0979
  0
LINE
  8
0
 10
79.382
 20
38.0979
 11
79.2637
 21
38.1404
  0
LINE
  8
0
 10
79.2637
 20
38.1404
 11
79.1484
 21
38.1903
  0
LINE
  8
0
 10
79.1484
 20
38.1903
 11
79.0365
 21
38.2474
  0
LINE
  8
0
 10
79.0365
 20
38.2474
 11
78.9283
 21
38.3113
  0
LINE
  8
0
 10
78.9283
 20
38.3113
 11
78.8244
 21
38.382
  0
LINE
  8
0
 10
78.8244
 20
38.382
 11
78.7251
 21
38.459
  0
LINE
  8
0
 10
78.7251
 20
38.459
 11
78.6309
 21
38.5421
  0
LINE
  8
0
 10
78.6309
 20
38.5421
 11
78.5421
 21
38.6309
  0
LINE
  8
0
 10
78.5421
 20
38.6309
 11
78.459
 21
38.7251
  0
LINE
  8
0
 10
78.459
 20
38.7251
 11
78.382
 21
38.8244
  0
LINE
  8
0
 10
78.382
 20
38.8244
 11
78.3113
 21
38.9283
  0
LINE
  8
0
 10
78.3113
 20
38.9283
 11
78.2474
 21
39.0365
  0
LINE
  8
0
 10
78.2474
 20
39.0365
 11
78.1903
 21
39.1484
  0
LINE
  8
0
 10
78.1903
 20
39.1484
 11
78.1404
 21
39.2637
  0
LINE
  8
0
 10
78.1404
 20
39.2637
 11
78.0979
 21
39.382
  0
LINE
  8
0
 10
78.0979
 20
39.382
 11
78.0628
 21
39.5026
  0
LINE
  8
0
 10
78.0628
 20
39.5026
 11
78.0354
 21
39.6252
  0
LINE
  8
0
 10
78.0354
 20
39.6252
 11
78.0158
 21
39.7493
  0
LINE
  8
0
 10
78.0158
 20
39.7493
 11
78.0039
 21
39.8744
  0
LINE
  8
0
 10
78.0039
 20
39.8744
 11
78
 21
40
  0
LINE
  8
0
 10
78
 20
40
 11
78.0039
 21
40.1256
  0
LINE
  8
0
 10
78.0039
 20
40.1256
 11
78.0158
 21
40.2507
  0
LINE
  8
0
 10
78.0158
 20
40.2507
 11
78.0354
 21
40.3748
  0
LINE
  8
0
 10
78.0354
 20
40.3748
 11
78.0628
 21
40.4974
  0
LINE
  8
0
 10
78.0628
 20
40.4974
 11
78.0979
 21
40.618
  0
LINE
  8
0
 10
78.0979
 20
40.618
 11
78.1404
 21
40.7362
  0
LINE
  8
0
 10
78.1404
 20
40.7362
 11
78.1903
 21
40.8515
  0
LINE
  8
0
 10
78.1903
 20
40.8515
 11
78.2474
 21
40.9635
  0
LINE
  8
0
 10
78.2474
 20
40.9635
 11
78.3113
 21
41.0716
  0
LINE
  8
0
 10
78.3113
 20
41.0716
 11
78.382
 21
41.1756
  0
LINE
  8
0
 10
78.382
 20
41.1756
 11
78.459
 21
41.2748
  0
LINE
  8
0
 10
78.459
 20
41.2748
 11
78.5421
 21
41.3691
  0
LINE
  8
0
 10
78.5421
 20
41.3691
 11
78.6309
 21
41.4579
  0
LINE
  8
0
 10
78.6309
 20
41.4579
 11
78.7251
 21
41.541
  0
LINE
  8
0
 10
78.7251
 20
41.541
 11
78.8244
 21
41.618
  0
LINE
  8
0
 10
78.8244
 20
41.618
 11
78.9283
 21
41.6886
  0
LINE
  8
0
 10
78.9283
 20
41.6886
 11
79.0365
 21
41.7526
  0
LINE
  8
0
 10
79.0365
 20
41.7526
 11
79.1484
 21
41.8096
  0
LINE
  8
0
 10
79.1484
 20
41.8096
 11
79.2637
 21
41.8595
  0
LINE
  8
0
 10
79.2637
 20
41.8595
 11
79.382
 21
41.9021
  0
LINE
  8
0
 10
79.382
 20
41.9021
 11
79.5026
 21
41.9372
  0
LINE
  8
0
 10
79.5026
 20
41.9372
 11
79.6252
 21
41.9646
  0
LINE
  8
0
 10
79.6252
 20
41.9646
 11
79.7493
 21
41.9842
  0
LINE
  8
0
 10
79.7493
 20
41.9842
 11
79.8744
 21
41.996
  0
LINE
  8
0
 10
79.8744
 20
41.996
 11
80
 21
42
  0
LINE
  8
0
 10
80
 20
42
 11
80.1256
 21
41.996
  0
LINE
  8
0
 10
80.1256
 20
41.996
 11
80.2507
 21
41.9842
  0
LINE
  8
0
 10
80.2507
 20
41.9842
 11
80.3748
 21
41.9646
  0
LINE
  8
0
 10
80.3748
 20
41.9646
 11
80.4974
 21
41.9372
  0
LINE
  8
0
 10
80.4974
 20
41.9372
 11
80.618
 21
41.9021
  0
LINE
  8
0
 10
80.618
 20
41.9021
 11
80.7362
 21
41.8595
  0
LINE
  8
0
 10
80.7362
 20
41.8595
 11
80.8515
 21
41.8096
  0
LINE
  8
0
 10
80.8515
 20
41.8096
 11
80.9635
 21
41.7526
  0
LINE
  8
0
 10
80.9635
 20
41.7526
 11
81.0716
 21
41.6886
  0
LINE
  8
0
 10
81.0716
 20
41.6886
 11
81.1756
 21
41.618
  0
LINE
  8
0
 10
81.1756
 20
41.618
 11
81.2748
 21
41.541
  0
LINE
  8
0
 10
81.2748
 20
41.541
 11
81.3691
 21
41.4579
  0
LINE
  8
0
 10
81.3691
 20
41.4579
 11
81.4579
 21
41.3691
  0
LINE
  8
0
 10
81.4579
 20
41.3691
 11
81.541
 21
41.2748
  0
LINE
  8
0
 10
81.541
 20
41.2748
 11
81.618
 21
41.1756
  0
LINE
  8
0
 10
81.618
 20
41.1756
 11
81.6886
 21
41.0716
  0
LINE
  8
0
 10
81.6886
 20
41.0716
 11
81.7526
 21
40.9635
  0
LINE
  8
0
 10
81.7526
 20
40.9635
 11
81.8096
 21
40.8515
  0
LINE
  8
0
 10
81.8096
 20
40.8515
 11
81.8595
 21
40.7362
  0
LINE
  8
0
 10
81.8595
 20
40.7362
 11
81.9021
 21
40.618
  0
LINE
  8
0
 10
81.9021
 20
40.618
 11
81.9372
 21
40.4974
  0
LINE
  8
0
 10
81.9372
 20
40.4974
 11
81.9646
 21
40.3748
  0
LINE
  8
0
 10
81.9646
 20
40.3748
 11
81.9842
 21
40.2507
  0
LINE
  8
0
 10
81.9842
 20
40.2507
 11
81.996
 21
40.1256
  0
LINE
  8
0
 10
81.996
 20
40.1256
 11
82
 21
40
  0
LINE
  8
0
 10
82
 20
40
 11
81.996
 21
39.8744
  0
LINE
  8
0
 10
81.996
 20
39.8744
 11
81.9842
 21
39.7493
  0
LINE
  8
0
 10
81.9842
 20
39.7493
 11
81.9646
 21
39.6252
  0
LINE
  8
0
 10
81.9646
 20
39.6252
 11
81.9372
 21
39.5026
  0
LINE
  8
0
 10
81.9372
 20
39.5026
 11
81.9021
 21
39.382
  0
LINE
  8
0
 10
81.9021
 20
39.382
 11
81.8595
 21
39.2637
  0
LINE
  8
0
 10
81.8595
 20
39.2637
 11
81.8096
 21
39.1484
  0
LINE
  8
0
 10
81.8096
 20
39.1484
 11
81.7526
 21
39.0365
  0
LINE
  8
0
 10
81.7526
 20
39.0365
 11
81.6886
 21
38.9283
  0
LINE
  8
0
 10
81.6886
 20
38.9283
 11
81.618
 21
38.8244
  0
LINE
  8
0
 10
81.618
 20
38.8244
 11
81.541
 21
38.7251
  0
LINE
  8
0
 10
81.541
 20
38.7251
 11
81.4579
 21
38.6309
  0
LINE
  8
0
 10
81.4579
 20
38.6309
 11
81.3691
 21
38.5421
  0
LINE
  8
0
 10
81.3691
 20
38.5421
 11
81.2748
 21
38.459
  0
LINE
  8
0
 10
81.2748
 20
38.459
 11
81.1756
 21
38.382
  0
LINE
  8
0
 10
81.1756
 20
38.382
 11
81.0716
 21
38.3113
  0
LINE
  8
0
 10
81.0716
 20
38.3113
 11
80.9635
 21
38.2474
  0
LINE
  8
0
 10
80.9635
 20
38.2474
 11
80.8515
 21
38.1903
  0
LINE
  8
0
 10
80.8515
 20
38.1903
 11
80.7362
 21
38.1404
  0
LINE
  8
0
 10
80.7362
 20
38.1404
 11
80.618
 21
38.0979
  0
LINE
  8
0
 10
80.618
 20
38.0979
 11
80.4974
 21
38.0628
  0
LINE
  8
0
 10
80.4974
 20
38.0628
 11
80.3748
 21
38.0354
  0
LINE
  8
0
 10
80.3748
 20
38.0354
 11
80.2507
 21
38.0158
  0
LINE
  8
0
 10
80.2507
 20
38.0158
 11
80.1256
 21
38.0039
  0
LINE
  8
0
 10
80.1256
 20
38.0039
 11
80
 21
38
  0
LINE
  8
0
 10
80
 20
38
 11
79.8744
 21
38.0039
  0
LINE
  8
0
 10
-0.125595
 20
38.0039
 11
-0.250671
 21
38.0158
  0
LINE
  8
0
 10
-0.250671
 20
38.0158
 11
-0.374771
 21
38.0354
  0
LINE
  8
0
 10
-0.374771
 20
38.0354
 11
-0.497391
 21
38.0628
  0
LINE
  8
0
 10
-0.497391
 20
38.0628
 11
-0.618042
 21
38.0979
  0
LINE
  8
0
 10
-0.618042
 20
38.0979
 11
-0.736252
 21
38.1404
  0
LINE
  8
0
 10
-0.736252
 20
38.1404
 11
-0.851562
 21
38.1903
  0
LINE
  8
0
 10
-0.851562
 20
38.1903
 11
-0.963516
 21
38.2474
  0
LINE
  8
0
 10
-0.963516
 20
38.2474
 11
-1.07166
 21
38.3113
  0
LINE
  8
0
 10
-1.07166
 20
38.3113
 11
-1.17558
 21
38.382
  0
LINE
  8
0
 10
-1.17558
 20
38.382
 11
-1.27486
 21
38.459
  0
LINE
  8
0
 10
-1.27486
 20
38.459
 11
-1.36909
 21
38.5421
  0
LINE
  8
0
 10
-1.36909
 20
38.5421
 11
-1.45795
 21
38.6309
  0
LINE
  8
0
 10
-1.45795
 20
38.6309
 11
-1.54103
 21
38.7251
  0
LINE
  8
0
 10
-1.54103
 20
38.7251
 11
-1.61804
 21
38.8244
  0
LINE
  8
0
 10
-1.61804
 20
38.8244
 11
-1.68866
 21
38.9283
  0
LINE
  8
0
 10
-1.68866
 20
38.9283
 11
-1.75262
 21
39.0365
  0
LINE
  8
0
 10
-1.75262
 20
39.0365
 11
-1.80966
 21
39.1484
  0
LINE
  8
0
 10
-1.80966
 20
39.1484
 11
-1.85956
 21
39.2637
  0
LINE
  8
0
 10
-1.85956
 20
39.2637
 11
-1.90211
 21
39.382
  0
LINE
  8
0
 10
-1.90211
 20
39.382
 11
-1.93718
 21
39.5026
  0
LINE
  8
0
 10
-1.93718
 20
39.5026
 11
-1.96458
 21
39.6252
  0
LINE
  8
0
 10
-1.96458
 20
39.6252
 11
-1.98424
 21
39.7493
  0
LINE
  8
0
 10
-1.98424
 20
39.7493
 11
-1.99606
 21
39.8744
  0
LINE
  8
0
 10
-1.99606
 20
39.8744
 11
-2
 21
40
  0
LINE
  8
0
 10
-2
 20
40
 11
-1.99606
 21
40.1256
  0
LINE
  8
0
 10
-1.99606
 20
40.1256
 11
-1.98424
 21
40.2507
  0
LINE
  8
0
 10
-1.98424
 20
40.2507
 11
-1.96458
 21
40.3748
  0
LINE
  8
0
 10
-1.96458
 20
40.3748
 11
-1.93718
 21
40.4974
  0
LINE
  8
0
 10
-1.93718
 20
40.4974
 11
-1.90211
 21
40.618
  0
LINE
  8
0
 10
-1.90211
 20
40.618
 11
-1.85956
 21
40.7362
  0
LINE
  8
0
 10
-1.85956
 20
40.7362
 11
-1.80966
 21
40.8515
  0
LINE
  8
0
 10
-1.80966
 20
40.8515
 11
-1.75262
 21
40.9635
  0
LINE
  8
0
 10
-1.75262
 20
40.9635
 11
-1.68866
 21
41.0716
  0
LINE
  8
0
 10
-1.68866
 20
41.0716
 11
-1.61804
 21
41.1756
  0
LINE
  8
0
 10
-1.61804
 20
41.1756
 11
-1.54103
 21
41.2748
  0
LINE
  8
0
 10
-1.54103
 20
41.2748
 11
-1.45795
 21
41.3691
  0
LINE
  8
0
 10
-1.45795
 20
41.3691
 11
-1.36909
 21
41.4579
  0
LINE
  8
0
 10
-1.36909
 20
41.4579
 11
-1.27486
 21
41.541
  0
LINE
  8
0
 10
-1.27486
 20
41.541
 11
-1.17558
 21
41.618
  0
LINE
  8
0
 10
-1.17558
 20
41.618
 11
-1.07166
 21
41.6886
  0
LINE
  8
0
 10
-1.07166
 20
41.6886
 11
-0.963516
 21
41.7526
  0
LINE
  8
0
 10
-0.963516
 20
41.7526
 11
-0.851562
 21
41.8096
  0
LINE
  8
0
 10
-0.851562
 20
41.8096
 11
-0.736252
 21
41.8595
  0
LINE
  8
0
 10
-0.736252
 20
41.8595
 11
-0.618042
 21
41.9021
  0
LINE
  8
0
 10
-0.618042
 20
41.9021
 11
-0.497391
 21
41.9372
  0
LINE
  8
0
 10
-0.497391
 20
41.9372
 11
-0.374771
 21
41.9646
  0
LINE
  8
0
 10
-0.374771
 20
41.9646
 11
-0.250671
 21
41.9842
  0
LINE
  8
0
 10
-0.250671
 20
41.9842
 11
-0.125595
 21
41.996
  0
LINE
  8
0
 10
-0.125595
 20
41.996
 11
0
 21
42
  0
LINE
  8
0
 10
0
 20
42
 11
0.12558
 21
41.996
  0
LINE
  8
0
 10
0.12558
 20
41.996
 11
0.250656
 21
41.9842
  0
LINE
  8
0
 10
0.250656
 20
41.9842
 11
0.374756
 21
41.9646
  0
LINE
  8
0
 10
0.374756
 20
41.9646
 11
0.497375
 21
41.9372
  0
LINE
  8
0
 10
0.497375
 20
41.9372
 11
0.618027
 21
41.9021
  0
LINE
  8
0
 10
0.618027
 20
41.9021
 11
0.736237
 21
41.8595
  0
LINE
  8
0
 10
0.736237
 20
41.8595
 11
0.851547
 21
41.8096
  0
LINE
  8
0
 10
0.851547
 20
41.8096
 11
0.963501
 21
41.7526
  0
LINE
  8
0
 10
0.963501
 20
41.7526
 11
1.07164
 21
41.6886
  0
LINE
  8
0
 10
1.07164
 20
41.6886
 11
1.17557
 21
41.618
  0
LINE
  8
0
 10
1.17557
 20
41.618
 11
1.27484
 21
41.541
  0
LINE
  8
0
 10
1.27484
 20
41.541
 11
1.36908
 21
41.4579
  0
LINE
  8
0
 10
1.36908
 20
41.4579
 11
1.45793
 21
41.3691
  0
LINE
  8
0
 10
1.45793
 20
41.3691
 11
1.54102
 21
41.2748
  0
LINE
  8
0
 10
1.54102
 20
41.2748
 11
1.61803
 21
41.1756
  0
LINE
  8
0
 10
1.61803
 20
41.1756
 11
1.68864
 21
41.0716
  0
LINE
  8
0
 10
1.68864
 20
41.0716
 11
1.75261
 21
40.9635
  0
LINE
  8
0
 10
1.75261
 20
40.9635
 11
1.80965
 21
40.8515
  0
LINE
  8
0
 10
1.80965
 20
40.8515
 11
1.85954
 21
40.7362
  0
LINE
  8
0
 10
1.85954
 20
40.7362
 11
1.9021
 21
40.618
  0
LINE
  8
0
 10
1.9021
 20
40.618
 11
1.93716
 21
40.4974
  0
LINE
  8
0
 10
1.93716
 20
40.4974
 11
1.96457
 21
40.3748
  0
LINE
  8
0
 10
1.96457
 20
40.3748
 11
1.98422
 21
40.2507
  0
LINE
  8
0
 10
1.98422
 20
40.2507
 11
1.99605
 21
40.1256
  0
LINE
  8
0
 10
1.99605
 20
40.1256
 11
2
 21
40
  0
LINE
  8
0
 10
2
 20
40
 11
1.99605
 21
39.8744
  0
LINE
  8
0
 10
1.99605
 20
39.8744
 11
1.98422
 21
39.7493
  0
LINE
  8
0
 10
1.98422
 20
39.7493
 11
1.96457
 21
39.6252
  0
LINE
  8
0
 10
1.96457
 20
39.6252
 11
1.93716
 21
39.5026
  0
LINE
  8
0
 10
1.93716
 20
39.5026
 11
1.9021
 21
39.382
  0
LINE
  8
0
 10
1.9021
 20
39.382
 11
1.85954
 21
39.2637
  0
LINE
  8
0
 10
1.85954
 20
39.2637
 11
1.80965
 21
39.1484
  0
LINE
  8
0
 10
1.80965
 20
39.1484
 11
1.75261
 21
39.0365
  0
LINE
  8
0
 10
1.75261
 20
39.0365
 11
1.68864
 21
38.9283
  0
LINE
  8
0
 10
1.68864
 20
38.9283
 11
1.61803
 21
38.8244
  0
LINE
  8
0
 10
1.61803
 20
38.8244
 11
1.54102
 21
38.7251
  0
LINE
  8
0
 10
1.54102
 20
38.7251
 11
1.45793
 21
38.6309
  0
LINE
  8
0
 10
1.45793
 20
38.6309
 11
1.36908
 21
38.5421
  0
LINE
  8
0
 10
1.36908
 20
38.5421
 11
1.27484
 21
38.459
  0
LINE
  8
0
 10
1.27484
 20
38.459
 11
1.17557
 21
38.382
  0
LINE
  8
0
 10
1.17557
 20
38.382
 11
1.07164
 21
38.3113
  0
LINE
  8
0
 10
1.07164
 20
38.3113
 11
0.963501
 21
38.2474
  0
LINE
  8
0
 10
0.963501
 20
38.2474
 11
0.851547
 21
38.1903
  0
LINE
  8
0
 10
0.851547
 20
38.1903
 11
0.736237
 21
38.1404
  0
LINE
  8
0
 10
0.736237
 20
38.1404
 11
0.618027
 21
38.0979
  0
LINE
  8
0
 10
0.618027
 20
38.0979
 11
0.497375
 21
38.0628
  0
LINE
  8
0
 10
0.497375
 20
38.0628
 11
0.374756
 21
38.0354
  0
LINE
  8
0
 10
0.374756
 20
38.0354
 11
0.250656
 21
38.0158
  0
LINE
  8
0
 10
0.250656
 20
38.0158
 11
0.12558
 21
38.0039
  0
LINE
  8
0
 10
0.12558
 20
38.0039
 11
0
 21
38
  0
LINE
  8
0
 10
0
 20
38
 11
-0.125595
 21
38.0039
  0
LINE
  8
0
 10
39.8744
 20
38.0039
 11
39.7493
 21
38.0158
  0
LINE
  8
0
 10
39.7493
 20
38.0158
 11
39.6252
 21
38.0354
  0
LINE
  8
0
 10
39.6252
 20
38.0354
 11
39.5026
 21
38.0628
  0
LINE
  8
0
 10
39.5026
 20
38.0628
 11
39.382
 21
38.0979
  0
LINE
  8
0
 10
39.382
 20
38.0979
 11
39.2637
 21
38.1404
  0
LINE
  8
0
 10
39.2637
 20
38.1404
 11
39.1484
 21
38.1903
  0
LINE
  8
0
 10
39.1484
 20
38.1903
 11
39.0365
 21
38.2474
  0
LINE
  8
0
 10
39.0365
 20
38.2474
 11
38.9283
 21
38.3113
  0
LINE
  8
0
 10
38.9283
 20
38.3113
 11
38.8244
 21
38.382
  0
LINE
  8
0
 10
38.8244
 20
38.382
 11
38.7251
 21
38.459
  0
LINE
  8
0
 10
38.7251
 20
38.459
 11
38.6309
 21
38.5421
  0
LINE
  8
0
 10
38.6309
 20
38.5421
 11
38.5421
 21
38.6309
  0
LINE
  8
0
 10
38.5421
 20
38.6309
 11
38.459
 21
38.7251
  0
LINE
  8
0
 10
38.459
 20
38.7251
 11
38.382
 21
38.8244
  0
LINE
  8
0
 10
38.382
 20
38.8244
 11
38.3113
 21
38.9283
  0
LINE
  8
0
 10
38.3113
 20
38.9283
 11
38.2474
 21
39.0365
  0
LINE
  8
0
 10
38.2474
 20
39.0365
 11
38.1903
 21
39.1484
  0
LINE
  8
0
 10
38.1903
 20
39.1484
 11
38.1404
 21
39.2637
  0
LINE
  8
0
 10
38.1404
 20
39.2637
 11
38.0979
 21
39.382
  0
LINE
  8
0
 10
38.0979
 20
39.382
 11
38.0628
 21
39.5026
  0
LINE
  8
0
 10
38.0628
 20
39.5026
 11
38.0354
 21
39.6252
  0
LINE
  8
0
 10
38.0354
 20
39.6252
 11
38.0158
 21
39.7493
  0
LINE
  8
0
 10
38.0158
 20
39.7493
 11
38.0039
 21
39.8744
  0
LINE
  8
0
 10
38.0039
 20
39.8744
 11
38
 21
40
  0
LINE
  8
0
 10
38
 20
40
 11
38.0039
 21
40.1256
  0
LINE
  8
0
 10
38.0039
 20
40.1256
 11
38.0158
 21
40.2507
  0
LINE
  8
0
 10
38.0158
 20
40.2507
 11
38.0354
 21
40.3748
  0
LINE
  8
0
 10
38.0354
 20
40.3748
 11
38.0628
 21
40.4974
  0
LINE
  8
0
 10
38.0628
 20
40.4974
 11
38.0979
 21
40.618
  0
LINE
  8
0
 10
38.0979
 20
40.618
 11
38.1404
 21
40.7362
  0
LINE
  8
0
 10
38.1404
 20
40.7362
 11
38.1903
 21
40.8515
  0
LINE
  8
0
 10
38.1903
 20
40.8515
 11
38.2474
 21
40.9635
  0
LINE
  8
0
 10
38.2474
 20
40.9635
 11
38.3113
 21
41.0716
  0
LINE
  8
0
 10
38.3113
 20
41.0716
 11
38.382
 21
41.1756
  0
LINE
  8
0
 10
38.382
 20
41.1756
 11
38.459
 21
41.2748
  0
LINE
  8
0
 10
38.459
 20
41.2748
 11
38.5421
 21
41.3691
  0
LINE
  8
0
 10
38.5421
 20
41.3691
 11
38.6309
 21
41.4579
  0
LINE
  8
0
 10
38.6309
 20
41.4579
 11
38.7251
 21
41.541
  0
LINE
  8
0
 10
38.7251
 20
41.541
 11
38.8244
 21
41.618
  0
LINE
  8
0
 10
38.8244
 20
41.618
 11
38.9283
 21
41.6886
  0
LINE
  8
0
 10
38.9283
 20
41.6886
 11
39.0365
 21
41.7526
  0
LINE
  8
0
 10
39.0365
 20
41.7526
 11
39.1484
 21
41.8096
  0
LINE
  8
0
 10
39.1484
 20
41.8096
 11
39.2637
 21
41.8595
  0
LINE
  8
0
 10
39.2637
 20
41.8595
 11
39.382
 21
41.9021
  0
LINE
  8
0
 10
39.382
 20
41.9021
 11
39.5026
 21
41.9372
  0
LINE
  8
0
 10
39.5026
 20
41.9372
 11
39.6252
 21
41.9646
  0
LINE
  8
0
 10
39.6252
 20
41.9646
 11
39.7493
 21
41.9842
  0
LINE
  8
0
 10
39.7493
 20
41.9842
 11
39.8744
 21
41.996
  0
LINE
  8
0
 10
39.8744
 20
41.996
 11
40
 21
42
  0
LINE
  8
0
 10
40
 20
42
 11
40.1256
 21
41.996
  0
LINE
  8
0
 10
40.1256
 20
41.996
 11
40.2507
 21
41.9842
  0
LINE
  8
0
 10
40.2507
 20
41.9842
 11
40.3748
 21
41.9646
  0
LINE
  8
0
 10
40.3748
 20
41.9646
 11
40.4974
 21
41.9372
  0
LINE
  8
0
 10
40.4974
 20
41.9372
 11
40.618
 21
41.9021
  0
LINE
  8
0
 10
40.618
 20
41.9021
 11
40.7362
 21
41.8595
  0
LINE
  8
0
 10
40.7362
 20
41.8595
 11
40.8515
 21
41.8096
  0
LINE
  8
0
 10
40.8515
 20
41.8096
 11
40.9635
 21
41.7526
  0
LINE
  8
0
 10
40.9635
 20
41.7526
 11
41.0716
 21
41.6886
  0
LINE
  8
0
 10
41.0716
 20
41.6886
 11
41.1756
 21
41.618
  0
LINE
  8
0
 10
41.1756
 20
41.618
 11
41.2748
 21
41.541
  0
LINE
  8
0
 10
41.2748
 20
41.541
 11
41.3691
 21
41.4579
  0
LINE
  8
0
 10
41.3691
 20
41.4579
 11
41.4579
 21
41.3691
  0
LINE
  8
0
 10
41.4579
 20
41.3691
 11
41.541
 21
41.2748
  0
LINE
  8
0
 10
41.541
 20
41.2748
 11
41.618
 21
41.1756
  0
LINE
  8
0
 10
41.618
 20
41.1756
 11
41.6886
 21
41.0716
  0
LINE
  8
0
 10
41.6886
 20
41.0716
 11
41.7526
 21
40.9635
  0
LINE
  8
0
 10
41.7526
 20
40.9635
 11
41.8096
 21
40.8515
  0
LINE
  8
0
 10
41.8096
 20
40.8515
 11
41.8595
 21
40.7362
  0
LINE
  8
0
 10
41.8595
 20
40.7362
 11
41.9021
 21
40.618
  0
LINE
  8
0
 10
41.9021
 20
40.618
 11
41.9372
 21
40.4974
  0
LINE
  8
0
 10
41.9372
 20
40.4974
 11
41.9646
 21
40.3748
  0
LINE
  8
0
 10
41.9646
 20
40.3748
 11
41.9842
 21
40.2507
  0
LINE
  8
0
 10
41.9842
 20
40.2507
 11
41.996
 21
40.1256
  0
LINE
  8
0
 10
41.996
 20
40.1256
 11
42
 21
40
  0
LINE
  8
0
 10
42
 20
40
 11
41.996
 21
39.8744
  0
LINE
  8
0
 10
41.996
 20
39.8744
 11
41.9842
 21
39.7493
  0
LINE
  8
0
 10
41.9842
 20
39.7493
 11
41.9646
 21
39.6252
  0
LINE
  8
0
 10
41.9646
 20
39.6252
 11
41.9372
 21
39.5026
  0
LINE
  8
0
 10
41.9372
 20
39.5026
 11
41.9021
 21
39.382
  0
LINE
  8
0
 10
41.9021
 20
39.382
 11
41.8595
 21
39.2637
  0
LINE
  8
0
 10
41.8595
 20
39.2637
 11
41.8096
 21
39.1484
  0
LINE
  8
0
 10
41.8096
 20
39.1484
 11
41.7526
 21
39.0365
  0
LINE
  8
0
 10
41.7526
 20
39.0365
 11
41.6886
 21
38.9283
  0
LINE
  8
0
 10
41.6886
 20
38.9283
 11
41.618
 21
38.8244
  0
LINE
  8
0
 10
41.618
 20
38.8244
 11
41.541
 21
38.7251
  0
LINE
  8
0
 10
41.541
 20
38.7251
 11
41.4579
 21
38.6309
  0
LINE
  8
0
 10
41.4579
 20
38.6309
 11
41.3691
 21
38.5421
  0
LINE
  8
0
 10
41.3691
 20
38.5421
 11
41.2748
 21
38.459
  0
LINE
  8
0
 10
41.2748
 20
38.459
 11
41.1756
 21
38.382
  0
LINE
  8
0
 10
41.1756
 20
38.382
 11
41.0716
 21
38.3113
  0
LINE
  8
0
 10
41.0716
 20
38.3113
 11
40.9635
 21
38.2474
  0
LINE
  8
0
 10
40.9635
 20
38.2474
 11
40.8515
 21
38.1903
  0
LINE
  8
0
 10
40.8515
 20
38.1903
 11
40.7362
 21
38.1404
  0
LINE
  8
0
 10
40.7362
 20
38.1404
 11
40.618
 21
38.0979
  0
LINE
  8
0
 10
40.618
 20
38.0979
 11
40.4974
 21
38.0628
  0
LINE
  8
0
 10
40.4974
 20
38.0628
 11
40.3748
 21
38.0354
  0
LINE
  8
0
 10
40.3748
 20
38.0354
 11
40.2507
 21
38.0158
  0
LINE
  8
0
 10
40.2507
 20
38.0158
 11
40.1256
 21
38.0039
  0
LINE
  8
0
 10
40.1256
 20
38.0039
 11
40
 21
38
  0
LINE
  8
0
 10
40
 20
38
 11
39.8744
 21
38.0039
  0
LINE
  8
0
 10
-0.125595
 20
-1.99606
 11
-0.250671
 21
-1.98424
  0
LINE
  8
0
 10
-0.250671
 20
-1.98424
 11
-0.374771
 21
-1.96458
  0
LINE
  8
0
 10
-0.374771
 20
-1.96458
 11
-0.497391
 21
-1.93718
  0
LINE
  8
0
 10
-0.497391
 20
-1.93718
 11
-0.618042
 21
-1.90211
  0
LINE
  8
0
 10
-0.618042
 20
-1.90211
 11
-0.736252
 21
-1.85956
  0
LINE
  8
0
 10
-0.736252
 20
-1.85956
 11
-0.851562
 21
-1.80966
  0
LINE
  8
0
 10
-0.851562
 20
-1.80966
 11
-0.963516
 21
-1.75262
  0
LINE
  8
0
 10
-0.963516
 20
-1.75262
 11
-1.07166
 21
-1.68866
  0
LINE
  8
0
 10
-1.07166
 20
-1.68866
 11
-1.17558
 21
-1.61804
  0
LINE
  8
0
 10
-1.17558
 20
-1.61804
 11
-1.27486
 21
-1.54103
  0
LINE
  8
0
 10
-1.27486
 20
-1.54103
 11
-1.36909
 21
-1.45795
  0
LINE
  8
0
 10
-1.36909
 20
-1.45795
 11
-1.45795
 21
-1.36909
  0
LINE
  8
0
 10
-1.45795
 20
-1.36909
 11
-1.54103
 21
-1.27486
  0
LINE
  8
0
 10
-1.54103
 20
-1.27486
 11
-1.61804
 21
-1.17558
  0
LINE
  8
0
 10
-1.61804
 20
-1.17558
 11
-1.68866
 21
-1.07166
  0
LINE
  8
0
 10
-1.68866
 20
-1.07166
 11
-1.75262
 21
-0.963516
  0
LINE
  8
0
 10
-1.75262
 20
-0.963516
 11
-1.80966
 21
-0.851562
  0
LINE
  8
0
 10
-1.80966
 20
-0.851562
 11
-1.85956
 21
-0.736252
  0
LINE
  8
0
 10
-1.85956
 20
-0.736252
 11
-1.90211
 21
-0.618042
  0
LINE
  8
0
 10
-1.90211
 20
-0.618042
 11
-1.93718
 21
-0.497391
  0
LINE
  8
0
 10
-1.93718
 20
-0.497391
 11
-1.96458
 21
-0.374771
  0
LINE
  8
0
 10
-1.96458
 20
-0.374771
 11
-1.98424
 21
-0.250671
  0
LINE
  8
0
 10
-1.98424
 20
-0.250671
 11
-1.99606
 21
-0.125595
  0
LINE
  8
0
 10
-1.99606
 20
-0.125595
 11
-2
 21
0
  0
LINE
  8
0
 10
-2
 20
0
 11
-1.99606
 21
0.12558
  0
LINE
  8
0
 10
-1.99606
 20
0.12558
 11
-1.98424
 21
0.250656
  0
LINE
  8
0
 10
-1.98424
 20
0.250656
 11
-1.96458
 21
0.374756
  0
LINE
  8
0
 10
-1.96458
 20
0.374756
 11
-1.93718
 21
0.497375
  0
LINE
  8
0
 10
-1.93718
 20
0.497375
 11
-1.90211
 21
0.618027
  0
LINE
  8
0
 10
-1.90211
 20
0.618027
 11
-1.85956
 21
0.736237
  0
LINE
  8
0
 10
-1.85956
 20
0.736237
 11
-1.80966
 21
0.851547
  0
LINE
  8
0
 10
-1.80966
 20
0.851547
 11
-1.75262
 21
0.963501
  0
LINE
  8
0
 10
-1.75262
 20
0.963501
 11
-1.68866
 21
1.07164
  0
LINE
  8
0
 10
-1.68866
 20
1.07164
 11
-1.61804
 21
1.17557
  0
LINE
  8
0
 10
-1.61804
 20
1.17557
 11
-1.54103
 21
1.27484
  0
LINE
  8
0
 10
-1.54103
 20
1.27484
 11
-1.45795
 21
1.36908
  0
LINE
  8
0
 10
-1.45795
 20
1.36908
 11
-1.36909
 21
1.45793
  0
LINE
  8
0
 10
-1.36909
 20
1.45793
 11
-1.27486
 21
1.54102
  0
LINE
  8
0
 10
-1.27486
 20
1.54102
 11
-1.17558
 21
1.61803
  0
LINE
  8
0
 10
-1.17558
 20
1.61803
 11
-1.07166
 21
1.68864
  0
LINE
  8
0
 10
-1.07166
 20
1.68864
 11
-0.963516
 21
1.75261
  0
LINE
  8
0
 10
-0.963516
 20
1.75261
 11
-0.851562
 21
1.80965
  0
LINE
  8
0
 10
-0.851562
 20
1.80965
 11
-0.736252
 21
1.85954
  0
LINE
  8
0
 10
-0.736252
 20
1.85954
 11
-0.618042
 21
1.9021
  0
LINE
  8
0
 10
-0.618042
 20
1.9021
 11
-0.497391
 21
1.93716
  0
LINE
  8
0
 10
-0.497391
 20
1.93716
 11
-0.374771
 21
1.96457
  0
LINE
  8
0
 10
-0.374771
 20
1.96457
 11
-0.250671
 21
1.98422
  0
LINE
  8
0
 10
-0.250671
 20
1.98422
 11
-0.125595
 21
1.99605
  0
LINE
  8
0
 10
-0.125595
 20
1.99605
 11
0
 21
2
  0
LINE
  8
0
 10
0
 20
2
 11
0.12558
 21
1.99605
  0
LINE
  8
0
 10
0.12558
 20
1.99605
 11
0.250656
 21
1.98422
  0
LINE
  8
0
 10
0.250656
 20
1.98422
 11
0.374756
 21
1.96457
  0
LINE
  8
0
 10
0.374756
 20
1.96457
 11
0.497375
 21
1.93716
  0
LINE
  8
0
 10
0.497375
 20
1.93716
 11
0.618027
 21
1.9021
  0
LINE
  8
0
 10
0.618027
 20
1.9021
 11
0.736237
 21
1.85954
  0
LINE
  8
0
 10
0.736237
 20
1.85954
 11
0.851547
 21
1.80965
  0
LINE
  8
0
 10
0.851547
 20
1.80965
 11
0.963501
 21
1.75261
  0
LINE
  8
0
 10
0.963501
 20
1.75261
 11
1.07164
 21
1.68864
  0
LINE
  8
0
 10
1.07164
 20
1.68864
 11
1.17557
 21
1.61803
  0
LINE
  8
0
 10
1.17557
 20
1.61803
 11
1.27484
 21
1.54102
  0
LINE
  8
0
 10
1.27484
 20
1.54102
 11
1.36908
 21
1.45793
  0
LINE
  8
0
 10
1.36908
 20
1.45793
 11
1.45793
 21
1.36908
  0
LINE
  8
0
 10
1.45793
 20
1.36908
 11
1.54102
 21
1.27484
  0
LINE
  8
0
 10
1.54102
 20
1.27484
 11
1.61803
 21
1.17557
  0
LINE
  8
0
 10
1.61803
 20
1.17557
 11
1.68864
 21
1.07164
  0
LINE
  8
0
 10
1.68864
 20
1.07164
 11
1.75261
 21
0.963501
  0
LINE
  8
0
 10
1.75261
 20
0.963501
 11
1.80965
 21
0.851547
  0
LINE
  8
0
 10
1.80965
 20
0.851547
 11
1.85954
 21
0.736237
  0
LINE
  8
0
 10
1.85954
 20
0.736237
 11
1.9021
 21
0.618027
  0
LINE
  8
0
 10
1.9021
 20
0.618027
 11
1.93716
 21
0.497375
  0
LINE
  8
0
 10
1.93716
 20
0.497375
 11
1.96457
 21
0.374756
  0
LINE
  8
0
 10
1.96457
 20
0.374756
 11
1.98422
 21
0.250656
  0
LINE
  8
0
 10
1.98422
 20
0.250656
 11
1.99605
 21
0.12558
  0
LINE
  8
0
 10
1.99605
 20
0.12558
 11
2
 21
0
  0
LINE
  8
0
 10
2
 20
0
 11
1.99605
 21
-0.125595
  0
LINE
  8
0
 10
1.99605
 20
-0.125595
 11
1.98422
 21
-0.250671
  0
LINE
  8
0
 10
1.98422
 20
-0.250671
 11
1.96457
 21
-0.374771
  0
LINE
  8
0
 10
1.96457
 20
-0.374771
 11
1.93716
 21
-0.497391
  0
LINE
  8
0
 10
1.93716
 20
-0.497391
 11
1.9021
 21
-0.618042
  0
LINE
  8
0
 10
1.9021
 20
-0.618042
 11
1.85954
 21
-0.736252
  0
LINE
  8
0
 10
1.85954
 20
-0.736252
 11
1.80965
 21
-0.851562
  0
LINE
  8
0
 10
1.80965
 20
-0.851562
 11
1.75261
 21
-0.963516
  0
LINE
  8
0
 10
1.75261
 20
-0.963516
 11
1.68864
 21
-1.07166
  0
LINE
  8
0
 10
1.68864
 20
-1.07166
 11
1.61803
 21
-1.17558
  0
LINE
  8
0
 10
1.61803
 20
-1.17558
 11
1.54102
 21
-1.27486
  0
LINE
  8
0
 10
1.54102
 20
-1.27486
 11
1.45793
 21
-1.36909
  0
LINE
  8
0
 10
1.45793
 20
-1.36909
 11
1.36908
 21
-1.45795
  0
LINE
  8
0
 10
1.36908
 20
-1.45795
 11
1.27484
 21
-1.54103
  0
LINE
  8
0
 10
1.27484
 20
-1.54103
 11
1.17557
 21
-1.61804
  0
LINE
  8
0
 10
1.17557
 20
-1.61804
 11
1.07164
 21
-1.68866
  0
LINE
  8
0
 10
1.07164
 20
-1.68866
 11
0.963501
 21
-1.75262
  0
LINE
  8
0
 10
0.963501
 20
-1.75262
 11
0.851547
 21
-1.80966
  0
LINE
  8
0
 10
0.851547
 20
-1.80966
 11
0.736237
 21
-1.85956
  0
LINE
  8
0
 10
0.736237
 20
-1.85956
 11
0.618027
 21
-1.90211
  0
LINE
  8
0
 10
0.618027
 20
-1.90211
 11
0.497375
 21
-1.93718
  0
LINE
  8
0
 10
0.497375
 20
-1.93718
 11
0.374756
 21
-1.96458
  0
LINE
  8
0
 10
0.374756
 20
-1.96458
 11
0.250656
 21
-1.98424
  0
LINE
  8
0
 10
0.250656
 20
-1.98424
 11
0.12558
 21
-1.99606
  0
LINE
  8
0
 10
0.12558
 20
-1.99606
 11
0
 21
-2
  0
LINE
  8
0
 10
0
 20
-2
 11
-0.125595
 21
-1.99606
  0
LINE
  8
0
 10
-40.1256
 20
-1.99606
 11
-40.2507
 21
-1.98424
  0
LINE
  8
0
 10
-40.2507
 20
-1.98424
 11
-40.3748
 21
-1.96458
  0
LINE
  8
0
 10
-40.3748
 20
-1.96458
 11
-40.4974
 21
-1.93718
  0
LINE
  8
0
 10
-40.4974
 20
-1.93718
 11
-40.618
 21
-1.90211
  0
LINE
  8
0
 10
-40.618
 20
-1.90211
 11
-40.7363
 21
-1.85956
  0
LINE
  8
0
 10
-40.7363
 20
-1.85956
 11
-40.8516
 21
-1.80966
  0
LINE
  8
0
 10
-40.8516
 20
-1.80966
 11
-40.9635
 21
-1.75262
  0
LINE
  8
0
 10
-40.9635
 20
-1.75262
 11
-41.0717
 21
-1.68866
  0
LINE
  8
0
 10
-41.0717
 20
-1.68866
 11
-41.1756
 21
-1.61804
  0
LINE
  8
0
 10
-41.1756
 20
-1.61804
 11
-41.2749
 21
-1.54103
  0
LINE
  8
0
 10
-41.2749
 20
-1.54103
 11
-41.3691
 21
-1.45795
  0
LINE
  8
0
 10
-41.3691
 20
-1.45795
 11
-41.4579
 21
-1.36909
  0
LINE
  8
0
 10
-41.4579
 20
-1.36909
 11
-41.541
 21
-1.27486
  0
LINE
  8
0
 10
-41.541
 20
-1.27486
 11
-41.618
 21
-1.17558
  0
LINE
  8
0
 10
-41.618
 20
-1.17558
 11
-41.6887
 21
-1.07166
  0
LINE
  8
0
 10
-41.6887
 20
-1.07166
 11
-41.7526
 21
-0.963516
  0
LINE
  8
0
 10
-41.7526
 20
-0.963516
 11
-41.8097
 21
-0.851562
  0
LINE
  8
0
 10
-41.8097
 20
-0.851562
 11
-41.8596
 21
-0.736252
  0
LINE
  8
0
 10
-41.8596
 20
-0.736252
 11
-41.9021
 21
-0.618042
  0
LINE
  8
0
 10
-41.9021
 20
-0.618042
 11
-41.9372
 21
-0.497391
  0
LINE
  8
0
 10
-41.9372
 20
-0.497391
 11
-41.9646
 21
-0.374771
  0
LINE
  8
0
 10
-41.9646
 20
-0.374771
 11
-41.9842
 21
-0.250671
  0
LINE
  8
0
 10
-41.9842
 20
-0.250671
 11
-41.9961
 21
-0.125595
  0
LINE
  8
0
 10
-41.9961
 20
-0.125595
 11
-42
 21
0
  0
LINE
  8
0
 10
-42
 20
0
 11
-41.9961
 21
0.12558
  0
LINE
  8
0
 10
-41.9961
 20
0.12558
 11
-41.9842
 21
0.250656
  0
LINE
  8
0
 10
-41.9842
 20
0.250656
 11
-41.9646
 21
0.374756
  0
LINE
  8
0
 10
-41.9646
 20
0.374756
 11
-41.9372
 21
0.497375
  0
LINE
  8
0
 10
-41.9372
 20
0.497375
 11
-41.9021
 21
0.618027
  0
LINE
  8
0
 10
-41.9021
 20
0.618027
 11
-41.8596
 21
0.736237
  0
LINE
  8
0
 10
-41.8596
 20
0.736237
 11
-41.8097
 21
0.851547
  0
LINE
  8
0
 10
-41.8097
 20
0.851547
 11
-41.7526
 21
0.963501
  0
LINE
  8
0
 10
-41.7526
 20
0.963501
 11
-41.6887
 21
1.07164
  0
LINE
  8
0
 10
-41.6887
 20
1.07164
 11
-41.618
 21
1.17557
  0
LINE
  8
0
 10
-41.618
 20
1.17557
 11
-41.541
 21
1.27484
  0
LINE
  8
0
 10
-41.541
 20
1.27484
 11
-41.4579
 21
1.36908
  0
LINE
  8
0
 10
-41.4579
 20
1.36908
 11
-41.3691
 21
1.45793
  0
LINE
  8
0
 10
-41.3691
 20
1.45793
 11
-41.2749
 21
1.54102
  0
LINE
  8
0
 10
-41.2749
 20
1.54102
 11
-41.1756
 21
1.61803
  0
LINE
  8
0
 10
-41.1756
 20
1.61803
 11
-41.0717
 21
1.68864
  0
LINE
  8
0
 10
-41.0717
 20
1.68864
 11
-40.9635
 21
1.75261
  0
LINE
  8
0
 10
-40.9635
 20
1.75261
 11
-40.8516
 21
1.80965
  0
LINE
  8
0
 10
-40.8516
 20
1.80965
 11
-40.7363
 21
1.85954
  0
LINE
  8
0
 10
-40.7363
 20
1.85954
 11
-40.618
 21
1.9021
  0
LINE
  8
0
 10
-40.618
 20
1.9021
 11
-40.4974
 21
1.93716
  0
LINE
  8
0
 10
-40.4974
 20
1.93716
 11
-40.3748
 21
1.96457
  0
LINE
  8
0
 10
-40.3748
 20
1.96457
 11
-40.2507
 21
1.98422
  0
LINE
  8
0
 10
-40.2507
 20
1.98422
 11
-40.1256
 21
1.99605
  0
LINE
  8
0
 10
-40.1256
 20
1.99605
 11
-40
 21
2
  0
LINE
  8
0
 10
-40
 20
2
 11
-39.8744
 21
1.99605
  0
LINE
  8
0
 10
-39.8744
 20
1.99605
 11
-39.7493
 21
1.98422
  0
LINE
  8
0
 10
-39.7493
 20
1.98422
 11
-39.6252
 21
1.96457
  0
LINE
  8
0
 10
-39.6252
 20
1.96457
 11
-39.5026
 21
1.93716
  0
LINE
  8
0
 10
-39.5026
 20
1.93716
 11
-39.382
 21
1.9021
  0
LINE
  8
0
 10
-39.382
 20
1.9021
 11
-39.2638
 21
1.85954
  0
LINE
  8
0
 10
-39.2638
 20
1.85954
 11
-39.1485
 21
1.80965
  0
LINE
  8
0
 10
-39.1485
 20
1.80965
 11
-39.0365
 21
1.75261
  0
LINE
  8
0
 10
-39.0365
 20
1.75261
 11
-38.9284
 21
1.68864
  0
LINE
  8
0
 10
-38.9284
 20
1.68864
 11
-38.8244
 21
1.61803
  0
LINE
  8
0
 10
-38.8244
 20
1.61803
 11
-38.7252
 21
1.54102
  0
LINE
  8
0
 10
-38.7252
 20
1.54102
 11
-38.6309
 21
1.45793
  0
LINE
  8
0
 10
-38.6309
 20
1.45793
 11
-38.5421
 21
1.36908
  0
LINE
  8
0
 10
-38.5421
 20
1.36908
 11
-38.459
 21
1.27484
  0
LINE
  8
0
 10
-38.459
 20
1.27484
 11
-38.382
 21
1.17557
  0
LINE
  8
0
 10
-38.382
 20
1.17557
 11
-38.3114
 21
1.07164
  0
LINE
  8
0
 10
-38.3114
 20
1.07164
 11
-38.2474
 21
0.963501
  0
LINE
  8
0
 10
-38.2474
 20
0.963501
 11
-38.1904
 21
0.851547
  0
LINE
  8
0
 10
-38.1904
 20
0.851547
 11
-38.1405
 21
0.736237
  0
LINE
  8
0
 10
-38.1405
 20
0.736237
 11
-38.0979
 21
0.618027
  0
LINE
  8
0
 10
-38.0979
 20
0.618027
 11
-38.0628
 21
0.497375
  0
LINE
  8
0
 10
-38.0628
 20
0.497375
 11
-38.0354
 21
0.374756
  0
LINE
  8
0
 10
-38.0354
 20
0.374756
 11
-38.0158
 21
0.250656
  0
LINE
  8
0
 10
-38.0158
 20
0.250656
 11
-38.004
 21
0.12558
  0
LINE
  8
0
 10
-38.004
 20
0.12558
 11
-38
 21
0
  0
LINE
  8
0
 10
-38
 20
0
 11
-38.004
 21
-0.125595
  0
LINE
  8
0
 10
-38.004
 20
-0.125595
 11
-38.0158
 21
-0.250671
  0
LINE
  8
0
 10
-38.0158
 20
-0.250671
 11
-38.0354
 21
-0.374771
  0
LINE
  8
0
 10
-38.0354
 20
-0.374771
 11
-38.0628
 21
-0.497391
  0
LINE
  8
0
 10
-38.0628
 20
-0.497391
 11
-38.0979
 21
-0.618042
  0
LINE
  8
0
 10
-38.0979
 20
-0.618042
 11
-38.1405
 21
-0.736252
  0
LINE
  8
0
 10
-38.1405
 20
-0.736252
 11
-38.1904
 21
-0.851562
  0
LINE
  8
0
 10
-38.1904
 20
-0.851562
 11
-38.2474
 21
-0.963516
  0
LINE
  8
0
 10
-38.2474
 20
-0.963516
 11
-38.3114
 21
-1.07166
  0
LINE
  8
0
 10
-38.3114
 20
-1.07166
 11
-38.382
 21
-1.17558
  0
LINE
  8
0
 10
-38.382
 20
-1.17558
 11
-38.459
 21
-1.27486
  0
LINE
  8
0
 10
-38.459
 20
-1.27486
 11
-38.5421
 21
-1.36909
  0
LINE
  8
0
 10
-38.5421
 20
-1.36909
 11
-38.6309
 21
-1.45795
  0
LINE
  8
0
 10
-38.6309
 20
-1.45795
 11
-38.7252
 21
-1.54103
  0
LINE
  8
0
 10
-38.7252
 20
-1.54103
 11
-38.8244
 21
-1.61804
  0
LINE
  8
0
 10
-38.8244
 20
-1.61804
 11
-38.9284
 21
-1.68866
  0
LINE
  8
0
 10
-38.9284
 20
-1.68866
 11
-39.0365
 21
-1.75262
  0
LINE
  8
0
 10
-39.0365
 20
-1.75262
 11
-39.1485
 21
-1.80966
  0
LINE
  8
0
 10
-39.1485
 20
-1.80966
 11
-39.2638
 21
-1.85956
  0
LINE
  8
0
 10
-39.2638
 20
-1.85956
 11
-39.382
 21
-1.90211
  0
LINE
  8
0
 10
-39.382
 20
-1.90211
 11
-39.5026
 21
-1.93718
  0
LINE
  8
0
 10
-39.5026
 20
-1.93718
 11
-39.6252
 21
-1.96458
  0
LINE
  8
0
 10
-39.6252
 20
-1.96458
 11
-39.7493
 21
-1.98424
  0
LINE
  8
0
 10
-39.7493
 20
-1.98424
 11
-39.8744
 21
-1.99606
  0
LINE
  8
0
 10
-39.8744
 20
-1.99606
 11
-40
 21
-2
  0
LINE
  8
0
 10
-40
 20
-2
 11
-40.1256
 21
-1.99606
  0
LINE
  8
0
 10
39.8744
 20
-1.99606
 11
39.7493
 21
-1.98424
  0
LINE
  8
0
 10
39.7493
 20
-1.98424
 11
39.6252
 21
-1.96458
  0
LINE
  8
0
 10
39.6252
 20
-1.96458
 11
39.5026
 21
-1.93718
  0
LINE
  8
0
 10
39.5026
 20
-1.93718
 11
39.382
 21
-1.90211
  0
LINE
  8
0
 10
39.382
 20
-1.90211
 11
39.2637
 21
-1.85956
  0
LINE
  8
0
 10
39.2637
 20
-1.85956
 11
39.1484
 21
-1.80966
  0
LINE
  8
0
 10
39.1484
 20
-1.80966
 11
39.0365
 21
-1.75262
  0
LINE
  8
0
 10
39.0365
 20
-1.75262
 11
38.9283
 21
-1.68866
  0
LINE
  8
0
 10
38.9283
 20
-1.68866
 11
38.8244
 21
-1.61804
  0
LINE
  8
0
 10
38.8244
 20
-1.61804
 11
38.7251
 21
-1.54103
  0
LINE
  8
0
 10
38.7251
 20
-1.54103
 11
38.6309
 21
-1.45795
  0
LINE
  8
0
 10
38.6309
 20
-1.45795
 11
38.5421
 21
-1.36909
  0
LINE
  8
0
 10
38.5421
 20
-1.36909
 11
38.459
 21
-1.27486
  0
LINE
  8
0
 10
38.459
 20
-1.27486
 11
38.382
 21
-1.17558
  0
LINE
  8
0
 10
38.382
 20
-1.17558
 11
38.3113
 21
-1.07166
  0
LINE
  8
0
 10
38.3113
 20
-1.07166
 11
38.2474
 21
-0.963516
  0
LINE
  8
0
 10
38.2474
 20
-0.963516
 11
38.1903
 21
-0.851562
  0
LINE
  8
0
 10
38.1903
 20
-0.851562
 11
38.1404
 21
-0.736252
  0
LINE
  8
0
 10
38.1404
 20
-0.736252
 11
38.0979
 21
-0.618042
  0
LINE
  8
0
 10
38.0979
 20
-0.618042
 11
38.0628
 21
-0.497391
  0
LINE
  8
0
 10
38.0628
 20
-0.497391
 11
38.0354
 21
-0.374771
  0
LINE
  8
0
 10
38.0354
 20
-0.374771
 11
38.0158
 21
-0.250671
  0
LINE
  8
0
 10
38.0158
 20
-0.250671
 11
38.0039
 21
-0.125595
  0
LINE
  8
0
 10
38.0039
 20
-0.125595
 11
38
 21
0
  0
LINE
  8
0
 10
38
 20
0
 11
38.0039
 21
0.12558
  0
LINE
  8
0
 10
38.0039
 20
0.12558
 11
38.0158
 21
0.250656
  0
LINE
  8
0
 10
38.0158
 20
0.250656
 11
38.0354
 21
0.374756
  0
LINE
  8
0
 10
38.0354
 20
0.374756
 11
38.0628
 21
0.497375
  0
LINE
  8
0
 10
38.0628
 20
0.497375
 11
38.0979
 21
0.618027
  0
LINE
  8
0
 10
38.0979
 20
0.618027
 11
38.1404
 21
0.736237
  0
LINE
  8
0
 10
38.1404
 20
0.736237
 11
38.1903
 21
0.851547
  0
LINE
  8
0
 10
38.1903
 20
0.851547
 11
38.2474
 21
0.963501
  0
LINE
  8
0
 10
38.2474
 20
0.963501
 11
38.3113
 21
1.07164
  0
LINE
  8
0
 10
38.3113
 20
1.07164
 11
38.382
 21
1.17557
  0
LINE
  8
0
 10
38.382
 20
1.17557
 11
38.459
 21
1.27484
  0
LINE
  8
0
 10
38.459
 20
1.27484
 11
38.5421
 21
1.36908
  0
LINE
  8
0
 10
38.5421
 20
1.36908
 11
38.6309
 21
1.45793
  0
LINE
  8
0
 10
38.6309
 20
1.45793
 11
38.7251
 21
1.54102
  0
LINE
  8
0
 10
38.7251
 20
1.54102
 11
38.8244
 21
1.61803
  0
LINE
  8
0
 10
38.8244
 20
1.61803
 11
38.9283
 21
1.68864
  0
LINE
  8
0
 10
38.9283
 20
1.68864
 11
39.0365
 21
1.75261
  0
LINE
  8
0
 10
39.0365
 20
1.75261
 11
39.1484
 21
1.80965
  0
LINE
  8
0
 10
39.1484
 20
1.80965
 11
39.2637
 21
1.85954
  0
LINE
  8
0
 10
39.2637
 20
1.85954
 11
39.382
 21
1.9021
  0
LINE
  8
0
 10
39.382
 20
1.9021
 11
39.5026
 21
1.93716
  0
LINE
  8
0
 10
39.5026
 20
1.93716
 11
39.6252
 21
1.96457
  0
LINE
  8
0
 10
39.6252
 20
1.96457
 11
39.7493
 21
1.98422
  0
LINE
  8
0
 10
39.7493
 20
1.98422
 11
39.8744
 21
1.99605
  0
LINE
  8
0
 10
39.8744
 20
1.99605
 11
40
 21
2
  0
LINE
  8
0
 10
40
 20
2
 11
40.1256
 21
1.99605
  0
LINE
  8
0
 10
40.1256
 20
1.99605
 11
40.2507
 21
1.98422
  0
LINE
  8
0
 10
40.2507
 20
1.98422
 11
40.3748
 21
1.96457
  0
LINE
  8
0
 10
40.3748
 20
1.96457
 11
40.4974
 21
1.93716
  0
LINE
  8
0
 10
40.4974
 20
1.93716
 11
40.618
 21
1.9021
  0
LINE
  8
0
 10
40.618
 20
1.9021
 11
40.7362
 21
1.85954
  0
LINE
  8
0
 10
40.7362
 20
1.85954
 11
40.8515
 21
1.80965
  0
LINE
  8
0
 10
40.8515
 20
1.80965
 11
40.9635
 21
1.75261
  0
LINE
  8
0
 10
40.9635
 20
1.75261
 11
41.0716
 21
1.68864
  0
LINE
  8
0
 10
41.0716
 20
1.68864
 11
41.1756
 21
1.61803
  0
LINE
  8
0
 10
41.1756
 20
1.61803
 11
41.2748
 21
1.54102
  0
LINE
  8
0
 10
41.2748
 20
1.54102
 11
41.3691
 21
1.45793
  0
LINE
  8
0
 10
41.3691
 20
1.45793
 11
41.4579
 21
1.36908
  0
LINE
  8
0
 10
41.4579
 20
1.36908
 11
41.541
 21
1.27484
  0
LINE
  8
0
 10
41.541
 20
1.27484
 11
41.618
 21
1.17557
  0
LINE
  8
0
 10
41.618
 20
1.17557
 11
41.6886
 21
1.07164
  0
LINE
  8
0
 10
41.6886
 20
1.07164
 11
41.7526
 21
0.963501
  0
LINE
  8
0
 10
41.7526
 20
0.963501
 11
41.8096
 21
0.851547
  0
LINE
  8
0
 10
41.8096
 20
0.851547
 11
41.8595
 21
0.736237
  0
LINE
  8
0
 10
41.8595
 20
0.736237
 11
41.9021
 21
0.618027
  0
LINE
  8
0
 10
41.9021
 20
0.618027
 11
41.9372
 21
0.497375
  0
LINE
  8
0
 10
41.9372
 20
0.497375
 11
41.9646
 21
0.374756
  0
LINE
  8
0
 10
41.9646
 20
0.374756
 11
41.9842
 21
0.250656
  0
LINE
  8
0
 10
41.9842
 20
0.250656
 11
41.996
 21
0.12558
  0
LINE
  8
0
 10
41.996
 20
0.12558
 11
42
 21
0
  0
LINE
  8
0
 10
42
 20
0
 11
41.996
 21
-0.125595
  0
LINE
  8
0
 10
41.996
 20
-0.125595
 11
41.9842
 21
-0.250671
  0
LINE
  8
0
 10
41.9842
 20
-0.250671
 11
41.9646
 21
-0.374771
  0
LINE
  8
0
 10
41.9646
 20
-0.374771
 11
41.9372
 21
-0.497391
  0
LINE
  8
0
 10
41.9372
 20
-0.497391
 11
41.9021
 21
-0.618042
  0
LINE
  8
0
 10
41.9021
 20
-0.618042
 11
41.8595
 21
-0.736252
  0
LINE
  8
0
 10
41.8595
 20
-0.736252
 11
41.8096
 21
-0.851562
  0
LINE
  8
0
 10
41.8096
 20
-0.851562
 11
41.7526
 21
-0.963516
  0
LINE
  8
0
 10
41.7526
 20
-0.963516
 11
41.6886
 21
-1.07166
  0
LINE
  8
0
 10
41.6886
 20
-1.07166
 11
41.618
 21
-1.17558
  0
LINE
  8
0
 10
41.618
 20
-1.17558
 11
41.541
 21
-1.27486
  0
LINE
  8
0
 10
41.541
 20
-1.27486
 11
41.4579
 21
-1.36909
  0
LINE
  8
0
 10
41.4579
 20
-1.36909
 11
41.3691
 21
-1.45795
  0
LINE
  8
0
 10
41.3691
 20
-1.45795
 11
41.2748
 21
-1.54103
  0
LINE
  8
0
 10
41.2748
 20
-1.54103
 11
41.1756
 21
-1.61804
  0
LINE
  8
0
 10
41.1756
 20
-1.61804
 11
41.0716
 21
-1.68866
  0
LINE
  8
0
 10
41.0716
 20
-1.68866
 11
40.9635
 21
-1.75262
  0
LINE
  8
0
 10
40.9635
 20
-1.75262
 11
40.8515
 21
-1.80966
  0
LINE
  8
0
 10
40.8515
 20
-1.80966
 11
40.7362
 21
-1.85956
  0
LINE
  8
0
 10
40.7362
 20
-1.85956
 11
40.618
 21
-1.90211
  0
LINE
  8
0
 10
40.618
 20
-1.90211
 11
40.4974
 21
-1.93718
  0
LINE
  8
0
 10
40.4974
 20
-1.93718
 11
40.3748
 21
-1.96458
  0
LINE
  8
0
 10
40.3748
 20
-1.96458
 11
40.2507
 21
-1.98424
  0
LINE
  8
0
 10
40.2507
 20
-1.98424
 11
40.1256
 21
-1.99606
  0
LINE
  8
0
 10
40.1256
 20
-1.99606
 11
40
 21
-2
  0
LINE
  8
0
 10
40
 20
-2
 11
39.8744
 21
-1.99606
  0
LINE
  8
0
 10
79.8744
 20
-1.99606
 11
79.7493
 21
-1.98424
  0
LINE
  8
0
 10
79.7493
 20
-1.98424
 11
79.6252
 21
-1.96458
  0
LINE
  8
0
 10
79.6252
 20
-1.96458
 11
79.5026
 21
-1.93718
  0
LINE
  8
0
 10
79.5026
 20
-1.93718
 11
79.382
 21
-1.90211
  0
LINE
  8
0
 10
79.382
 20
-1.90211
 11
79.2637
 21
-1.85956
  0
LINE
  8
0
 10
79.2637
 20
-1.85956
 11
79.1484
 21
-1.80966
  0
LINE
  8
0
 10
79.1484
 20
-1.80966
 11
79.0365
 21
-1.75262
  0
LINE
  8
0
 10
79.0365
 20
-1.75262
 11
78.9283
 21
-1.68866
  0
LINE
  8
0
 10
78.9283
 20
-1.68866
 11
78.8244
 21
-1.61804
  0
LINE
  8
0
 10
78.8244
 20
-1.61804
 11
78.7251
 21
-1.54103
  0
LINE
  8
0
 10
78.7251
 20
-1.54103
 11
78.6309
 21
-1.45795
  0
LINE
  8
0
 10
78.6309
 20
-1.45795
 11
78.5421
 21
-1.36909
  0
LINE
  8
0
 10
78.5421
 20
-1.36909
 11
78.459
 21
-1.27486
  0
LINE
  8
0
 10
78.459
 20
-1.27486
 11
78.382
 21
-1.17558
  0
LINE
  8
0
 10
78.382
 20
-1.17558
 11
78.3113
 21
-1.07166
  0
LINE
  8
0
 10
78.3113
 20
-1.07166
 11
78.2474
 21
-0.963516
  0
LINE
  8
0
 10
78.2474
 20
-0.963516
 11
78.1903
 21
-0.851562
  0
LINE
  8
0
 10
78.1903
 20
-0.851562
 11
78.1404
 21
-0.736252
  0
LINE
  8
0
 10
78.1404
 20
-0.736252
 11
78.0979
 21
-0.618042
  0
LINE
  8
0
 10
78.0979
 20
-0.618042
 11
78.0628
 21
-0.497391
  0
LINE
  8
0
 10
78.0628
 20
-0.497391
 11
78.0354
 21
-0.374771
  0
LINE
  8
0
 10
78.0354
 20
-0.374771
 11
78.0158
 21
-0.250671
  0
LINE
  8
0
 10
78.0158
 20
-0.250671
 11
78.0039
 21
-0.125595
  0
LINE
  8
0
 10
78.0039
 20
-0.125595
 11
78
 21
0
  0
LINE
  8
0
 10
78
 20
0
 11
78.0039
 21
0.12558
  0
LINE
  8
0
 10
78.0039
 20
0.12558
 11
78.0158
 21
0.250656
  0
LINE
  8
0
 10
78.0158
 20
0.250656
 11
78.0354
 21
0.374756
  0
LINE
  8
0
 10
78.0354
 20
0.374756
 11
78.0628
 21
0.497375
  0
LINE
  8
0
 10
78.0628
 20
0.497375
 11
78.0979
 21
0.618027
  0
LINE
  8
0
 10
78.0979
 20
0.618027
 11
78.1404
 21
0.736237
  0
LINE
  8
0
 10
78.1404
 20
0.736237
 11
78.1903
 21
0.851547
  0
LINE
  8
0
 10
78.1903
 20
0.851547
 11
78.2474
 21
0.963501
  0
LINE
  8
0
 10
78.2474
 20
0.963501
 11
78.3113
 21
1.07164
  0
LINE
  8
0
 10
78.3113
 20
1.07164
 11
78.382
 21
1.17557
  0
LINE
  8
0
 10
78.382
 20
1.17557
 11
78.459
 21
1.27484
  0
LINE
  8
0
 10
78.459
 20
1.27484
 11
78.5421
 21
1.36908
  0
LINE
  8
0
 10
78.5421
 20
1.36908
 11
78.6309
 21
1.45793
  0
LINE
  8
0
 10
78.6309
 20
1.45793
 11
78.7251
 21
1.54102
  0
LINE
  8
0
 10
78.7251
 20
1.54102
 11
78.8244
 21
1.61803
  0
LINE
  8
0
 10
78.8244
 20
1.61803
 11
78.9283
 21
1.68864
  0
LINE
  8
0
 10
78.9283
 20
1.68864
 11
79.0365
 21
1.75261
  0
LINE
  8
0
 10
79.0365
 20
1.75261
 11
79.1484
 21
1.80965
  0
LINE
  8
0
 10
79.1484
 20
1.80965
 11
79.2637
 21
1.85954
  0
LINE
  8
0
 10
79.2637
 20
1.85954
 11
79.382
 21
1.9021
  0
LINE
  8
0
 10
79.382
 20
1.9021
 11
79.5026
 21
1.93716
  0
LINE
  8
0
 10
79.5026
 20
1.93716
 11
79.6252
 21
1.96457
  0
LINE
  8
0
 10
79.6252
 20
1.96457
 11
79.7493
 21
1.98422
  0
LINE
  8
0
 10
79.7493
 20
1.98422
 11
79.8744
 21
1.99605
  0
LINE
  8
0
 10
79.8744
 20
1.99605
 11
80
 21
2
  0
LINE
  8
0
 10
80
 20
2
 11
80.1256
 21
1.99605
  0
LINE
  8
0
 10
80.1256
 20
1.99605
 11
80.2507
 21
1.98422
  0
LINE
  8
0
 10
80.2507
 20
1.98422
 11
80.3748
 21
1.96457
  0
LINE
  8
0
 10
80.3748
 20
1.96457
 11
80.4974
 21
1.93716
  0
LINE
  8
0
 10
80.4974
 20
1.93716
 11
80.618
 21
1.9021
  0
LINE
  8
0
 10
80.618
 20
1.9021
 11
80.7362
 21
1.85954
  0
LINE
  8
0
 10
80.7362
 20
1.85954
 11
80.8515
 21
1.80965
  0
LINE
  8
0
 10
80.8515
 20
1.80965
 11
80.9635
 21
1.75261
  0
LINE
  8
0
 10
80.9635
 20
1.75261
 11
81.0716
 21
1.68864
  0
LINE
  8
0
 10
81.0716
 20
1.68864
 11
81.1756
 21
1.61803
  0
LINE
  8
0
 10
81.1756
 20
1.61803
 11
81.2748
 21
1.54102
  0
LINE
  8
0
 10
81.2748
 20
1.54102
 11
81.3691
 21
1.45793
  0
LINE
  8
0
 10
81.3691
 20
1.45793
 11
81.4579
 21
1.36908
  0
LINE
  8
0
 10
81.4579
 20
1.36908
 11
81.541
 21
1.27484
  0
LINE
  8
0
 10
81.541
 20
1.27484
 11
81.618
 21
1.17557
  0
LINE
  8
0
 10
81.618
 20
1.17557
 11
81.6886
 21
1.07164
  0
LINE
  8
0
 10
81.6886
 20
1.07164
 11
81.7526
 21
0.963501
  0
LINE
  8
0
 10
81.7526
 20
0.963501
 11
81.8096
 21
0.851547
  0
LINE
  8
0
 10
81.8096
 20
0.851547
 11
81.8595
 21
0.736237
  0
LINE
  8
0
 10
81.8595
 20
0.736237
 11
81.9021
 21
0.618027
  0
LINE
  8
0
 10
81.9021
 20
0.618027
 11
81.9372
 21
0.497375
  0
LINE
  8
0
 10
81.9372
 20
0.497375
 11
81.9646
 21
0.374756
  0
LINE
  8
0
 10
81.9646
 20
0.374756
 11
81.9842
 21
0.250656
  0
LINE
  8
0
 10
81.9842
 20
0.250656
 11
81.996
 21
0.12558
  0
LINE
  8
0
 10
81.996
 20
0.12558
 11
82
 21
0
  0
LINE
  8
0
 10
82
 20
0
 11
81.996
 21
-0.125595
  0
LINE
  8
0
 10
81.996
 20
-0.125595
 11
81.9842
 21
-0.250671
  0
LINE
  8
0
 10
81.9842
 20
-0.250671
 11
81.9646
 21
-0.374771
  0
LINE
  8
0
 10
81.9646
 20
-0.374771
 11
81.9372
 21
-0.497391
  0
LINE
  8
0
 10
81.9372
 20
-0.497391
 11
81.9021
 21
-0.618042
  0
LINE
  8
0
 10
81.9021
 20
-0.618042
 11
81.8595
 21
-0.736252
  0
LINE
  8
0
 10
81.8595
 20
-0.736252
 11
81.8096
 21
-0.851562
  0
LINE
  8
0
 10
81.8096
 20
-0.851562
 11
81.7526
 21
-0.963516
  0
LINE
  8
0
 10
81.7526
 20
-0.963516
 11
81.6886
 21
-1.07166
  0
LINE
  8
0
 10
81.6886
 20
-1.07166
 11
81.618
 21
-1.17558
  0
LINE
  8
0
 10
81.618
 20
-1.17558
 11
81.541
 21
-1.27486
  0
LINE
  8
0
 10
81.541
 20
-1.27486
 11
81.4579
 21
-1.36909
  0
LINE
  8
0
 10
81.4579
 20
-1.36909
 11
81.3691
 21
-1.45795
  0
LINE
  8
0
 10
81.3691
 20
-1.45795
 11
81.2748
 21
-1.54103
  0
LINE
  8
0
 10
81.2748
 20
-1.54103
 11
81.1756
 21
-1.61804
  0
LINE
  8
0
 10
81.1756
 20
-1.61804
 11
81.0716
 21
-1.68866
  0
LINE
  8
0
 10
81.0716
 20
-1.68866
 11
80.9635
 21
-1.75262
  0
LINE
  8
0
 10
80.9635
 20
-1.75262
 11
80.8515
 21
-1.80966
  0
LINE
  8
0
 10
80.8515
 20
-1.80966
 11
80.7362
 21
-1.85956
  0
LINE
  8
0
 10
80.7362
 20
-1.85956
 11
80.618
 21
-1.90211
  0
LINE
  8
0
 10
80.618
 20
-1.90211
 11
80.4974
 21
-1.93718
  0
LINE
  8
0
 10
80.4974
 20
-1.93718
 11
80.3748
 21
-1.96458
  0
LINE
  8
0
 10
80.3748
 20
-1.96458
 11
80.2507
 21
-1.98424
  0
LINE
  8
0
 10
80.2507
 20
-1.98424
 11
80.1256
 21
-1.99606
  0
LINE
  8
0
 10
80.1256
 20
-1.99606
 11
80
 21
-2
  0
LINE
  8
0
 10
80
 20
-2
 11
79.8744
 21
-1.99606
  0
LINE
  8
0
 10
-80.1256
 20
-1.99606
 11
-80.2507
 21
-1.98424
  0
LINE
  8
0
 10
-80.2507
 20
-1.98424
 11
-80.3748
 21
-1.96458
  0
LINE
  8
0
 10
-80.3748
 20
-1.96458
 11
-80.4974
 21
-1.93718
  0
LINE
  8
0
 10
-80.4974
 20
-1.93718
 11
-80.618
 21
-1.90211
  0
LINE
  8
0
 10
-80.618
 20
-1.90211
 11
-80.7362
 21
-1.85956
  0
LINE
  8
0
 10
-80.7362
 20
-1.85956
 11
-80.8515
 21
-1.80966
  0
LINE
  8
0
 10
-80.8515
 20
-1.80966
 11
-80.9635
 21
-1.75262
  0
LINE
  8
0
 10
-80.9635
 20
-1.75262
 11
-81.0716
 21
-1.68866
  0
LINE
  8
0
 10
-81.0716
 20
-1.68866
 11
-81.1756
 21
-1.61804
  0
LINE
  8
0
 10
-81.1756
 20
-1.61804
 11
-81.2748
 21
-1.54103
  0
LINE
  8
0
 10
-81.2748
 20
-1.54103
 11
-81.3691
 21
-1.45795
  0
LINE
  8
0
 10
-81.3691
 20
-1.45795
 11
-81.4579
 21
-1.36909
  0
LINE
  8
0
 10
-81.4579
 20
-1.36909
 11
-81.541
 21
-1.27486
  0
LINE
  8
0
 10
-81.541
 20
-1.27486
 11
-81.618
 21
-1.17558
  0
LINE
  8
0
 10
-81.618
 20
-1.17558
 11
-81.6886
 21
-1.07166
  0
LINE
  8
0
 10
-81.6886
 20
-1.07166
 11
-81.7526
 21
-0.963516
  0
LINE
  8
0
 10
-81.7526
 20
-0.963516
 11
-81.8096
 21
-0.851562
  0
LINE
  8
0
 10
-81.8096
 20
-0.851562
 11
-81.8595
 21
-0.736252
  0
LINE
  8
0
 10
-81.8595
 20
-0.736252
 11
-81.9021
 21
-0.618042
  0
LINE
  8
0
 10
-81.9021
 20
-0.618042
 11
-81.9372
 21
-0.497391
  0
LINE
  8
0
 10
-81.9372
 20
-0.497391
 11
-81.9646
 21
-0.374771
  0
LINE
  8
0
 10
-81.9646
 20
-0.374771
 11
-81.9842
 21
-0.250671
  0
LINE
  8
0
 10
-81.9842
 20
-0.250671
 11
-81.996
 21
-0.125595
  0
LINE
  8
0
 10
-81.996
 20
-0.125595
 11
-82
 21
0
  0
LINE
  8
0
 10
-82
 20
0
 11
-81.996
 21
0.12558
  0
LINE
  8
0
 10
-81.996
 20
0.12558
 11
-81.9842
 21
0.250656
  0
LINE
  8
0
 10
-81.9842
 20
0.250656
 11
-81.9646
 21
0.374756
  0
LINE
  8
0
 10
-81.9646
 20
0.374756
 11
-81.9372
 21
0.497375
  0
LINE
  8
0
 10
-81.9372
 20
0.497375
 11
-81.9021
 21
0.618027
  0
LINE
  8
0
 10
-81.9021
 20
0.618027
 11
-81.8595
 21
0.736237
  0
LINE
  8
0
 10
-81.8595
 20
0.736237
 11
-81.8096
 21
0.851547
  0
LINE
  8
0
 10
-81.8096
 20
0.851547
 11
-81.7526
 21
0.963501
  0
LINE
  8
0
 10
-81.7526
 20
0.963501
 11
-81.6886
 21
1.07164
  0
LINE
  8
0
 10
-81.6886
 20
1.07164
 11
-81.618
 21
1.17557
  0
LINE
  8
0
 10
-81.618
 20
1.17557
 11
-81.541
 21
1.27484
  0
LINE
  8
0
 10
-81.541
 20
1.27484
 11
-81.4579
 21
1.36908
  0
LINE
  8
0
 10
-81.4579
 20
1.36908
 11
-81.3691
 21
1.45793
  0
LINE
  8
0
 10
-81.3691
 20
1.45793
 11
-81.2748
 21
1.54102
  0
LINE
  8
0
 10
-81.2748
 20
1.54102
 11
-81.1756
 21
1.61803
  0
LINE
  8
0
 10
-81.1756
 20
1.61803
 11
-81.0716
 21
1.68864
  0
LINE
  8
0
 10
-81.0716
 20
1.68864
 11
-80.9635
 21
1.75261
  0
LINE
  8
0
 10
-80.9635
 20
1.75261
 11
-80.8515
 21
1.80965
  0
LINE
  8
0
 10
-80.8515
 20
1.80965
 11
-80.7362
 21
1.85954
  0
LINE
  8
0
 10
-80.7362
 20
1.85954
 11
-80.618
 21
1.9021
  0
LINE
  8
0
 10
-80.618
 20
1.9021
 11
-80.4974
 21
1.93716
  0
LINE
  8
0
 10
-80.4974
 20
1.93716
 11
-80.3748
 21
1.96457
  0
LINE
  8
0
 10
-80.3748
 20
1.96457
 11
-80.2507
 21
1.98422
  0
LINE
  8
0
 10
-80.2507
 20
1.98422
 11
-80.1256
 21
1.99605
  0
LINE
  8
0
 10
-80.1256
 20
1.99605
 11
-80
 21
2
  0
LINE
  8
0
 10
-80
 20
2
 11
-79.8744
 21
1.99605
  0
LINE
  8
0
 10
-79.8744
 20
1.99605
 11
-79.7493
 21
1.98422
  0
LINE
  8
0
 10
-79.7493
 20
1.98422
 11
-79.6252
 21
1.96457
  0
LINE
  8
0
 10
-79.6252
 20
1.96457
 11
-79.5026
 21
1.93716
  0
LINE
  8
0
 10
-79.5026
 20
1.93716
 11
-79.382
 21
1.9021
  0
LINE
  8
0
 10
-79.382
 20
1.9021
 11
-79.2638
 21
1.85954
  0
LINE
  8
0
 10
-79.2638
 20
1.85954
 11
-79.1485
 21
1.80965
  0
LINE
  8
0
 10
-79.1485
 20
1.80965
 11
-79.0365
 21
1.75261
  0
LINE
  8
0
 10
-79.0365
 20
1.75261
 11
-78.9284
 21
1.68864
  0
LINE
  8
0
 10
-78.9284
 20
1.68864
 11
-78.8244
 21
1.61803
  0
LINE
  8
0
 10
-78.8244
 20
1.61803
 11
-78.7252
 21
1.54102
  0
LINE
  8
0
 10
-78.7252
 20
1.54102
 11
-78.6309
 21
1.45793
  0
LINE
  8
0
 10
-78.6309
 20
1.45793
 11
-78.5421
 21
1.36908
  0
LINE
  8
0
 10
-78.5421
 20
1.36908
 11
-78.459
 21
1.27484
  0
LINE
  8
0
 10
-78.459
 20
1.27484
 11
-78.382
 21
1.17557
  0
LINE
  8
0
 10
-78.382
 20
1.17557
 11
-78.3114
 21
1.07164
  0
LINE
  8
0
 10
-78.3114
 20
1.07164
 11
-78.2474
 21
0.963501
  0
LINE
  8
0
 10
-78.2474
 20
0.963501
 11
-78.1904
 21
0.851547
  0
LINE
  8
0
 10
-78.1904
 20
0.851547
 11
-78.1405
 21
0.736237
  0
LINE
  8
0
 10
-78.1405
 20
0.736237
 11
-78.0979
 21
0.618027
  0
LINE
  8
0
 10
-78.0979
 20
0.618027
 11
-78.0628
 21
0.497375
  0
LINE
  8
0
 10
-78.0628
 20
0.497375
 11
-78.0354
 21
0.374756
  0
LINE
  8
0
 10
-78.0354
 20
0.374756
 11
-78.0158
 21
0.250656
  0
LINE
  8
0
 10
-78.0158
 20
0.250656
 11
-78.004
 21
0.12558
  0
LINE
  8
0
 10
-78.004
 20
0.12558
 11
-78
 21
0
  0
LINE
  8
0
 10
-78
 20
0
 11
-78.004
 21
-0.125595
  0
LINE
  8
0
 10
-78.004
 20
-0.125595
 11
-78.0158
 21
-0.250671
  0
LINE
  8
0
 10
-78.0158
 20
-0.250671
 11
-78.0354
 21
-0.374771
  0
LINE
  8
0
 10
-78.0354
 20
-0.374771
 11
-78.0628
 21
-0.497391
  0
LINE
  8
0
 10
-78.0628
 20
-0.497391
 11
-78.0979
 21
-0.618042
  0
LINE
  8
0
 10
-78.0979
 20
-0.618042
 11
-78.1405
 21
-0.736252
  0
LINE
  8
0
 10
-78.1405
 20
-0.736252
 11
-78.1904
 21
-0.851562
  0
LINE
  8
0
 10
-78.1904
 20
-0.851562
 11
-78.2474
 21
-0.963516
  0
LINE
  8
0
 10
-78.2474
 20
-0.963516
 11
-78.3114
 21
-1.07166
  0
LINE
  8
0
 10
-78.3114
 20
-1.07166
 11
-78.382
 21
-1.17558
  0
LINE
  8
0
 10
-78.382
 20
-1.17558
 11
-78.459
 21
-1.27486
  0
LINE
  8
0
 10
-78.459
 20
-1.27486
 11
-78.5421
 21
-1.36909
  0
LINE
  8
0
 10
-78.5421
 20
-1.36909
 11
-78.6309
 21
-1.45795
  0
LINE
  8
0
 10
-78.6309
 20
-1.45795
 11
-78.7252
 21
-1.54103
  0
LINE
  8
0
 10
-78.7252
 20
-1.54103
 11
-78.8244
 21
-1.61804
  0
LINE
  8
0
 10
-78.8244
 20
-1.61804
 11
-78.9284
 21
-1.68866
  0
LINE
  8
0
 10
-78.9284
 20
-1.68866
 11
-79.0365
 21
-1.75262
  0
LINE
  8
0
 10
-79.0365
 20
-1.75262
 11
-79.1485
 21
-1.80966
  0
LINE
  8
0
 10
-79.1485
 20
-1.80966
 11
-79.2638
 21
-1.85956
  0
LINE
  8
0
 10
-79.2638
 20
-1.85956
 11
-79.382
 21
-1.90211
  0
LINE
  8
0
 10
-79.382
 20
-1.90211
 11
-79.5026
 21
-1.93718
  0
LINE
  8
0
 10
-79.5026
 20
-1.93718
 11
-79.6252
 21
-1.96458
  0
LINE
  8
0
 10
-79.6252
 20
-1.96458
 11
-79.7493
 21
-1.98424
  0
LINE
  8
0
 10
-79.7493
 20
-1.98424
 11
-79.8744
 21
-1.99606
  0
LINE
  8
0
 10
-79.8744
 20
-1.99606
 11
-80
 21
-2
  0
LINE
  8
0
 10
-80
 20
-2
 11
-80.1256
 21
-1.99606
  0
LINE
  8
0
 10
-0.125595
 20
-41.9961
 11
-0.250671
 21
-41.9842
  0
LINE
  8
0
 10
-0.250671
 20
-41.9842
 11
-0.374771
 21
-41.9646
  0
LINE
  8
0
 10
-0.374771
 20
-41.9646
 11
-0.497391
 21
-41.9372
  0
LINE
  8
0
 10
-0.497391
 20
-41.9372
 11
-0.618042
 21
-41.9021
  0
LINE
  8
0
 10
-0.618042
 20
-41.9021
 11
-0.736252
 21
-41.8596
  0
LINE
  8
0
 10
-0.736252
 20
-41.8596
 11
-0.851562
 21
-41.8097
  0
LINE
  8
0
 10
-0.851562
 20
-41.8097
 11
-0.963516
 21
-41.7526
  0
LINE
  8
0
 10
-0.963516
 20
-41.7526
 11
-1.07166
 21
-41.6887
  0
LINE
  8
0
 10
-1.07166
 20
-41.6887
 11
-1.17558
 21
-41.618
  0
LINE
  8
0
 10
-1.17558
 20
-41.618
 11
-1.27486
 21
-41.541
  0
LINE
  8
0
 10
-1.27486
 20
-41.541
 11
-1.36909
 21
-41.4579
  0
LINE
  8
0
 10
-1.36909
 20
-41.4579
 11
-1.45795
 21
-41.3691
  0
LINE
  8
0
 10
-1.45795
 20
-41.3691
 11
-1.54103
 21
-41.2749
  0
LINE
  8
0
 10
-1.54103
 20
-41.2749
 11
-1.61804
 21
-41.1756
  0
LINE
  8
0
 10
-1.61804
 20
-41.1756
 11
-1.68866
 21
-41.0717
  0
LINE
  8
0
 10
-1.68866
 20
-41.0717
 11
-1.75262
 21
-40.9635
  0
LINE
  8
0
 10
-1.75262
 20
-40.9635
 11
-1.80966
 21
-40.8516
  0
LINE
  8
0
 10
-1.80966
 20
-40.8516
 11
-1.85956
 21
-40.7363
  0
LINE
  8
0
 10
-1.85956
 20
-40.7363
 11
-1.90211
 21
-40.618
  0
LINE
  8
0
 10
-1.90211
 20
-40.618
 11
-1.93718
 21
-40.4974
  0
LINE
  8
0
 10
-1.93718
 20
-40.4974
 11
-1.96458
 21
-40.3748
  0
LINE
  8
0
 10
-1.96458
 20
-40.3748
 11
-1.98424
 21
-40.2507
  0
LINE
  8
0
 10
-1.98424
 20
-40.2507
 11
-1.99606
 21
-40.1256
  0
LINE
  8
0
 10
-1.99606
 20
-40.1256
 11
-2
 21
-40
  0
LINE
  8
0
 10
-2
 20
-40
 11
-1.99606
 21
-39.8744
  0
LINE
  8
0
 10
-1.99606
 20
-39.8744
 11
-1.98424
 21
-39.7493
  0
LINE
  8
0
 10
-1.98424
 20
-39.7493
 11
-1.96458
 21
-39.6252
  0
LINE
  8
0
 10
-1.96458
 20
-39.6252
 11
-1.93718
 21
-39.5026
  0
LINE
  8
0
 10
-1.93718
 20
-39.5026
 11
-1.90211
 21
-39.382
  0
LINE
  8
0
 10
-1.90211
 20
-39.382
 11
-1.85956
 21
-39.2638
  0
LINE
  8
0
 10
-1.85956
 20
-39.2638
 11
-1.80966
 21
-39.1485
  0
LINE
  8
0
 10
-1.80966
 20
-39.1485
 11
-1.75262
 21
-39.0365
  0
LINE
  8
0
 10
-1.75262
 20
-39.0365
 11
-1.68866
 21
-38.9284
  0
LINE
  8
0
 10
-1.68866
 20
-38.9284
 11
-1.61804
 21
-38.8244
  0
LINE
  8
0
 10
-1.61804
 20
-38.8244
 11
-1.54103
 21
-38.7252
  0
LINE
  8
0
 10
-1.54103
 20
-38.7252
 11
-1.45795
 21
-38.6309
  0
LINE
  8
0
 10
-1.45795
 20
-38.6309
 11
-1.36909
 21
-38.5421
  0
LINE
  8
0
 10
-1.36909
 20
-38.5421
 11
-1.27486
 21
-38.459
  0
LINE
  8
0
 10
-1.27486
 20
-38.459
 11
-1.17558
 21
-38.382
  0
LINE
  8
0
 10
-1.17558
 20
-38.382
 11
-1.07166
 21
-38.3114
  0
LINE
  8
0
 10
-1.07166
 20
-38.3114
 11
-0.963516
 21
-38.2474
  0
LINE
  8
0
 10
-0.963516
 20
-38.2474
 11
-0.851562
 21
-38.1904
  0
LINE
  8
0
 10
-0.851562
 20
-38.1904
 11
-0.736252
 21
-38.1405
  0
LINE
  8
0
 10
-0.736252
 20
-38.1405
 11
-0.618042
 21
-38.0979
  0
LINE
  8
0
 10
-0.618042
 20
-38.0979
 11
-0.497391
 21
-38.0628
  0
LINE
  8
0
 10
-0.497391
 20
-38.0628
 11
-0.374771
 21
-38.0354
  0
LINE
  8
0
 10
-0.374771
 20
-38.0354
 11
-0.250671
 21
-38.0158
  0
LINE
  8
0
 10
-0.250671
 20
-38.0158
 11
-0.125595
 21
-38.004
  0
LINE
  8
0
 10
-0.125595
 20
-38.004
 11
0
 21
-38
  0
LINE
  8
0
 10
0
 20
-38
 11
0.12558
 21
-38.004
  0
LINE
  8
0
 10
0.12558
 20
-38.004
 11
0.250656
 21
-38.0158
  0
LINE
  8
0
 10
0.250656
 20
-38.0158
 11
0.374756
 21
-38.0354
  0
LINE
  8
0
 10
0.374756
 20
-38.0354
 11
0.497375
 21
-38.0628
  0
LINE
  8
0
 10
0.497375
 20
-38.0628
 11
0.618027
 21
-38.0979
  0
LINE
  8
0
 10
0.618027
 20
-38.0979
 11
0.736237
 21
-38.1405
  0
LINE
  8
0
 10
0.736237
 20
-38.1405
 11
0.851547
 21
-38.1904
  0
LINE
  8
0
 10
0.851547
 20
-38.1904
 11
0.963501
 21
-38.2474
  0
LINE
  8
0
 10
0.963501
 20
-38.2474
 11
1.07164
 21
-38.3114
  0
LINE
  8
0
 10
1.07164
 20
-38.3114
 11
1.17557
 21
-38.382
  0
LINE
  8
0
 10
1.17557
 20
-38.382
 11
1.27484
 21
-38.459
  0
LINE
  8
0
 10
1.27484
 20
-38.459
 11
1.36908
 21
-38.5421
  0
LINE
  8
0
 10
1.36908
 20
-38.5421
 11
1.45793
 21
-38.6309
  0
LINE
  8
0
 10
1.45793
 20
-38.6309
 11
1.54102
 21
-38.7252
  0
LINE
  8
0
 10
1.54102
 20
-38.7252
 11
1.61803
 21
-38.8244
  0
LINE
  8
0
 10
1.61803
 20
-38.8244
 11
1.68864
 21
-38.9284
  0
LINE
  8
0
 10
1.68864
 20
-38.9284
 11
1.75261
 21
-39.0365
  0
LINE
  8
0
 10
1.75261
 20
-39.0365
 11
1.80965
 21
-39.1485
  0
LINE
  8
0
 10
1.80965
 20
-39.1485
 11
1.85954
 21
-39.2638
  0
LINE
  8
0
 10
1.85954
 20
-39.2638
 11
1.9021
 21
-39.382
  0
LINE
  8
0
 10
1.9021
 20
-39.382
 11
1.93716
 21
-39.5026
  0
LINE
  8
0
 10
1.93716
 20
-39.5026
 11
1.96457
 21
-39.6252
  0
LINE
  8
0
 10
1.96457
 20
-39.6252
 11
1.98422
 21
-39.7493
  0
LINE
  8
0
 10
1.98422
 20
-39.7493
 11
1.99605
 21
-39.8744
  0
LINE
  8
0
 10
1.99605
 20
-39.8744
 11
2
 21
-40
  0
LINE
  8
0
 10
2
 20
-40
 11
1.99605
 21
-40.1256
  0
LINE
  8
0
 10
1.99605
 20
-40.1256
 11
1.98422
 21
-40.2507
  0
LINE
  8
0
 10
1.98422
 20
-40.2507
 11
1.96457
 21
-40.3748
  0
LINE
  8
0
 10
1.96457
 20
-40.3748
 11
1.93716
 21
-40.4974
  0
LINE
  8
0
 10
1.93716
 20
-40.4974
 11
1.9021
 21
-40.618
  0
LINE
  8
0
 10
1.9021
 20
-40.618
 11
1.85954
 21
-40.7363
  0
LINE
  8
0
 10
1.85954
 20
-40.7363
 11
1.80965
 21
-40.8516
  0
LINE
  8
0
 10
1.80965
 20
-40.8516
 11
1.75261
 21
-40.9635
  0
LINE
  8
0
 10
1.75261
 20
-40.9635
 11
1.68864
 21
-41.0717
  0
LINE
  8
0
 10
1.68864
 20
-41.0717
 11
1.61803
 21
-41.1756
  0
LINE
  8
0
 10
1.61803
 20
-41.1756
 11
1.54102
 21
-41.2749
  0
LINE
  8
0
 10
1.54102
 20
-41.2749
 11
1.45793
 21
-41.3691
  0
LINE
  8
0
 10
1.45793
 20
-41.3691
 11
1.36908
 21
-41.4579
  0
LINE
  8
0
 10
1.36908
 20
-41.4579
 11
1.27484
 21
-41.541
  0
LINE
  8
0
 10
1.27484
 20
-41.541
 11
1.17557
 21
-41.618
  0
LINE
  8
0
 10
1.17557
 20
-41.618
 11
1.07164
 21
-41.6887
  0
LINE
  8
0
 10
1.07164
 20
-41.6887
 11
0.963501
 21
-41.7526
  0
LINE
  8
0
 10
0.963501
 20
-41.7526
 11
0.851547
 21
-41.8097
  0
LINE
  8
0
 10
0.851547
 20
-41.8097
 11
0.736237
 21
-41.8596
  0
LINE
  8
0
 10
0.736237
 20
-41.8596
 11
0.618027
 21
-41.9021
  0
LINE
  8
0
 10
0.618027
 20
-41.9021
 11
0.497375
 21
-41.9372
  0
LINE
  8
0
 10
0.497375
 20
-41.9372
 11
0.374756
 21
-41.9646
  0
LINE
  8
0
 10
0.374756
 20
-41.9646
 11
0.250656
 21
-41.9842
  0
LINE
  8
0
 10
0.250656
 20
-41.9842
 11
0.12558
 21
-41.9961
  0
LINE
  8
0
 10
0.12558
 20
-41.9961
 11
0
 21
-42
  0
LINE
  8
0
 10
0
 20
-42
 11
-0.125595
 21
-41.9961
  0
LINE
  8
0
 10
39.8744
 20
-41.9961
 11
39.7493
 21
-41.9842
  0
LINE
  8
0
 10
39.7493
 20
-41.9842
 11
39.6252
 21
-41.9646
  0
LINE
  8
0
 10
39.6252
 20
-41.9646
 11
39.5026
 21
-41.9372
  0
LINE
  8
0
 10
39.5026
 20
-41.9372
 11
39.382
 21
-41.9021
  0
LINE
  8
0
 10
39.382
 20
-41.9021
 11
39.2637
 21
-41.8596
  0
LINE
  8
0
 10
39.2637
 20
-41.8596
 11
39.1484
 21
-41.8097
  0
LINE
  8
0
 10
39.1484
 20
-41.8097
 11
39.0365
 21
-41.7526
  0
LINE
  8
0
 10
39.0365
 20
-41.7526
 11
38.9283
 21
-41.6887
  0
LINE
  8
0
 10
38.9283
 20
-41.6887
 11
38.8244
 21
-41.618
  0
LINE
  8
0
 10
38.8244
 20
-41.618
 11
38.7251
 21
-41.541
  0
LINE
  8
0
 10
38.7251
 20
-41.541
 11
38.6309
 21
-41.4579
  0
LINE
  8
0
 10
38.6309
 20
-41.4579
 11
38.5421
 21
-41.3691
  0
LINE
  8
0
 10
38.5421
 20
-41.3691
 11
38.459
 21
-41.2749
  0
LINE
  8
0
 10
38.459
 20
-41.2749
 11
38.382
 21
-41.1756
  0
LINE
  8
0
 10
38.382
 20
-41.1756
 11
38.3113
 21
-41.0717
  0
LINE
  8
0
 10
38.3113
 20
-41.0717
 11
38.2474
 21
-40.9635
  0
LINE
  8
0
 10
38.2474
 20
-40.9635
 11
38.1903
 21
-40.8516
  0
LINE
  8
0
 10
38.1903
 20
-40.8516
 11
38.1404
 21
-40.7363
  0
LINE
  8
0
 10
38.1404
 20
-40.7363
 11
38.0979
 21
-40.618
  0
LINE
  8
0
 10
38.0979
 20
-40.618
 11
38.0628
 21
-40.4974
  0
LINE
  8
0
 10
38.0628
 20
-40.4974
 11
38.0354
 21
-40.3748
  0
LINE
  8
0
 10
38.0354
 20
-40.3748
 11
38.0158
 21
-40.2507
  0
LINE
  8
0
 10
38.0158
 20
-40.2507
 11
38.0039
 21
-40.1256
  0
LINE
  8
0
 10
38.0039
 20
-40.1256
 11
38
 21
-40
  0
LINE
  8
0
 10
38
 20
-40
 11
38.0039
 21
-39.8744
  0
LINE
  8
0
 10
38.0039
 20
-39.8744
 11
38.0158
 21
-39.7493
  0
LINE
  8
0
 10
38.0158
 20
-39.7493
 11
38.0354
 21
-39.6252
  0
LINE
  8
0
 10
38.0354
 20
-39.6252
 11
38.0628
 21
-39.5026
  0
LINE
  8
0
 10
38.0628
 20
-39.5026
 11
38.0979
 21
-39.382
  0
LINE
  8
0
 10
38.0979
 20
-39.382
 11
38.1404
 21
-39.2638
  0
LINE
  8
0
 10
38.1404
 20
-39.2638
 11
38.1903
 21
-39.1485
  0
LINE
  8
0
 10
38.1903
 20
-39.1485
 11
38.2474
 21
-39.0365
  0
LINE
  8
0
 10
38.2474
 20
-39.0365
 11
38.3113
 21
-38.9284
  0
LINE
  8
0
 10
38.3113
 20
-38.9284
 11
38.382
 21
-38.8244
  0
LINE
  8
0
 10
38.382
 20
-38.8244
 11
38.459
 21
-38.7252
  0
LINE
  8
0
 10
38.459
 20
-38.7252
 11
38.5421
 21
-38.6309
  0
LINE
  8
0
 10
38.5421
 20
-38.6309
 11
38.6309
 21
-38.5421
  0
LINE
  8
0
 10
38.6309
 20
-38.5421
 11
38.7251
 21
-38.459
  0
LINE
  8
0
 10
38.7251
 20
-38.459
 11
38.8244
 21
-38.382
  0
LINE
  8
0
 10
38.8244
 20
-38.382
 11
38.9283
 21
-38.3114
  0
LINE
  8
0
 10
38.9283
 20
-38.3114
 11
39.0365
 21
-38.2474
  0
LINE
  8
0
 10
39.0365
 20
-38.2474
 11
39.1484
 21
-38.1904
  0
LINE
  8
0
 10
39.1484
 20
-38.1904
 11
39.2637
 21
-38.1405
  0
LINE
  8
0
 10
39.2637
 20
-38.1405
 11
39.382
 21
-38.0979
  0
LINE
  8
0
 10
39.382
 20
-38.0979
 11
39.5026
 21
-38.0628
  0
LINE
  8
0
 10
39.5026
 20
-38.0628
 11
39.6252
 21
-38.0354
  0
LINE
  8
0
 10
39.6252
 20
-38.0354
 11
39.7493
 21
-38.0158
  0
LINE
  8
0
 10
39.7493
 20
-38.0158
 11
39.8744
 21
-38.004
  0
LINE
  8
0
 10
39.8744
 20
-38.004
 11
40
 21
-38
  0
LINE
  8
0
 10
40
 20
-38
 11
40.1256
 21
-38.004
  0
LINE
  8
0
 10
40.1256
 20
-38.004
 11
40.2507
 21
-38.0158
  0
LINE
  8
0
 10
40.2507
 20
-38.0158
 11
40.3748
 21
-38.0354
  0
LINE
  8
0
 10
40.3748
 20
-38.0354
 11
40.4974
 21
-38.0628
  0
LINE
  8
0
 10
40.4974
 20
-38.0628
 11
40.618
 21
-38.0979
  0
LINE
  8
0
 10
40.618
 20
-38.0979
 11
40.7362
 21
-38.1405
  0
LINE
  8
0
 10
40.7362
 20
-38.1405
 11
40.8515
 21
-38.1904
  0
LINE
  8
0
 10
40.8515
 20
-38.1904
 11
40.9635
 21
-38.2474
  0
LINE
  8
0
 10
40.9635
 20
-38.2474
 11
41.0716
 21
-38.3114
  0
LINE
  8
0
 10
41.0716
 20
-38.3114
 11
41.1756
 21
-38.382
  0
LINE
  8
0
 10
41.1756
 20
-38.382
 11
41.2748
 21
-38.459
  0
LINE
  8
0
 10
41.2748
 20
-38.459
 11
41.3691
 21
-38.5421
  0
LINE
  8
0
 10
41.3691
 20
-38.5421
 11
41.4579
 21
-38.6309
  0
LINE
  8
0
 10
41.4579
 20
-38.6309
 11
41.541
 21
-38.7252
  0
LINE
  8
0
 10
41.541
 20
-38.7252
 11
41.618
 21
-38.8244
  0
LINE
  8
0
 10
41.618
 20
-38.8244
 11
41.6886
 21
-38.9284
  0
LINE
  8
0
 10
41.6886
 20
-38.9284
 11
41.7526
 21
-39.0365
  0
LINE
  8
0
 10
41.7526
 20
-39.0365
 11
41.8096
 21
-39.1485
  0
LINE
  8
0
 10
41.8096
 20
-39.1485
 11
41.8595
 21
-39.2638
  0
LINE
  8
0
 10
41.8595
 20
-39.2638
 11
41.9021
 21
-39.382
  0
LINE
  8
0
 10
41.9021
 20
-39.382
 11
41.9372
 21
-39.5026
  0
LINE
  8
0
 10
41.9372
 20
-39.5026
 11
41.9646
 21
-39.6252
  0
LINE
  8
0
 10
41.9646
 20
-39.6252
 11
41.9842
 21
-39.7493
  0
LINE
  8
0
 10
41.9842
 20
-39.7493
 11
41.996
 21
-39.8744
  0
LINE
  8
0
 10
41.996
 20
-39.8744
 11
42
 21
-40
  0
LINE
  8
0
 10
42
 20
-40
 11
41.996
 21
-40.1256
  0
LINE
  8
0
 10
41.996
 20
-40.1256
 11
41.9842
 21
-40.2507
  0
LINE
  8
0
 10
41.9842
 20
-40.2507
 11
41.9646
 21
-40.3748
  0
LINE
  8
0
 10
41.9646
 20
-40.3748
 11
41.9372
 21
-40.4974
  0
LINE
  8
0
 10
41.9372
 20
-40.4974
 11
41.9021
 21
-40.618
  0
LINE
  8
0
 10
41.9021
 20
-40.618
 11
41.8595
 21
-40.7363
  0
LINE
  8
0
 10
41.8595
 20
-40.7363
 11
41.8096
 21
-40.8516
  0
LINE
  8
0
 10
41.8096
 20
-40.8516
 11
41.7526
 21
-40.9635
  0
LINE
  8
0
 10
41.7526
 20
-40.9635
 11
41.6886
 21
-41.0717
  0
LINE
  8
0
 10
41.6886
 20
-41.0717
 11
41.618
 21
-41.1756
  0
LINE
  8
0
 10
41.618
 20
-41.1756
 11
41.541
 21
-41.2749
  0
LINE
  8
0
 10
41.541
 20
-41.2749
 11
41.4579
 21
-41.3691
  0
LINE
  8
0
 10
41.4579
 20
-41.3691
 11
41.3691
 21
-41.4579
  0
LINE
  8
0
 10
41.3691
 20
-41.4579
 11
41.2748
 21
-41.541
  0
LINE
  8
0
 10
41.2748
 20
-41.541
 11
41.1756
 21
-41.618
  0
LINE
  8
0
 10
41.1756
 20
-41.618
 11
41.0716
 21
-41.6887
  0
LINE
  8
0
 10
41.0716
 20
-41.6887
 11
40.9635
 21
-41.7526
  0
LINE
  8
0
 10
40.9635
 20
-41.7526
 11
40.8515
 21
-41.8097
  0
LINE
  8
0
 10
40.8515
 20
-41.8097
 11
40.7362
 21
-41.8596
  0
LINE
  8
0
 10
40.7362
 20
-41.8596
 11
40.618
 21
-41.9021
  0
LINE
  8
0
 10
40.618
 20
-41.9021
 11
40.4974
 21
-41.9372
  0
LINE
  8
0
 10
40.4974
 20
-41.9372
 11
40.3748
 21
-41.9646
  0
LINE
  8
0
 10
40.3748
 20
-41.9646
 11
40.2507
 21
-41.9842
  0
LINE
  8
0
 10
40.2507
 20
-41.9842
 11
40.1256
 21
-41.9961
  0
LINE
  8
0
 10
40.1256
 20
-41.9961
 11
40
 21
-42
  0
LINE
  8
0
 10
40
 20
-42
 11
39.8744
 21
-41.9961
  0
LINE
  8
0
 10
-40.1256
 20
-41.9961
 11
-40.2507
 21
-41.9842
  0
LINE
  8
0
 10
-40.2507
 20
-41.9842
 11
-40.3748
 21
-41.9646
  0
LINE
  8
0
 10
-40.3748
 20
-41.9646
 11
-40.4974
 21
-41.9372
  0
LINE
  8
0
 10
-40.4974
 20
-41.9372
 11
-40.618
 21
-41.9021
  0
LINE
  8
0
 10
-40.618
 20
-41.9021
 11
-40.7363
 21
-41.8596
  0
LINE
  8
0
 10
-40.7363
 20
-41.8596
 11
-40.8516
 21
-41.8097
  0
LINE
  8
0
 10
-40.8516
 20
-41.8097
 11
-40.9635
 21
-41.7526
  0
LINE
  8
0
 10
-40.9635
 20
-41.7526
 11
-41.0717
 21
-41.6887
  0
LINE
  8
0
 10
-41.0717
 20
-41.6887
 11
-41.1756
 21
-41.618
  0
LINE
  8
0
 10
-41.1756
 20
-41.618
 11
-41.2749
 21
-41.541
  0
LINE
  8
0
 10
-41.2749
 20
-41.541
 11
-41.3691
 21
-41.4579
  0
LINE
  8
0
 10
-41.3691
 20
-41.4579
 11
-41.4579
 21
-41.3691
  0
LINE
  8
0
 10
-41.4579
 20
-41.3691
 11
-41.541
 21
-41.2749
  0
LINE
  8
0
 10
-41.541
 20
-41.2749
 11
-41.618
 21
-41.1756
  0
LINE
  8
0
 10
-41.618
 20
-41.1756
 11
-41.6887
 21
-41.0717
  0
LINE
  8
0
 10
-41.6887
 20
-41.0717
 11
-41.7526
 21
-40.9635
  0
LINE
  8
0
 10
-41.7526
 20
-40.9635
 11
-41.8097
 21
-40.8516
  0
LINE
  8
0
 10
-41.8097
 20
-40.8516
 11
-41.8596
 21
-40.7363
  0
LINE
  8
0
 10
-41.8596
 20
-40.7363
 11
-41.9021
 21
-40.618
  0
LINE
  8
0
 10
-41.9021
 20
-40.618
 11
-41.9372
 21
-40.4974
  0
LINE
  8
0
 10
-41.9372
 20
-40.4974
 11
-41.9646
 21
-40.3748
  0
LINE
  8
0
 10
-41.9646
 20
-40.3748
 11
-41.9842
 21
-40.2507
  0
LINE
  8
0
 10
-41.9842
 20
-40.2507
 11
-41.9961
 21
-40.1256
  0
LINE
  8
0
 10
-41.9961
 20
-40.1256
 11
-42
 21
-40
  0
LINE
  8
0
 10
-42
 20
-40
 11
-41.9961
 21
-39.8744
  0
LINE
  8
0
 10
-41.9961
 20
-39.8744
 11
-41.9842
 21
-39.7493
  0
LINE
  8
0
 10
-41.9842
 20
-39.7493
 11
-41.9646
 21
-39.6252
  0
LINE
  8
0
 10
-41.9646
 20
-39.6252
 11
-41.9372
 21
-39.5026
  0
LINE
  8
0
 10
-41.9372
 20
-39.5026
 11
-41.9021
 21
-39.382
  0
LINE
  8
0
 10
-41.9021
 20
-39.382
 11
-41.8596
 21
-39.2638
  0
LINE
  8
0
 10
-41.8596
 20
-39.2638
 11
-41.8097
 21
-39.1485
  0
LINE
  8
0
 10
-41.8097
 20
-39.1485
 11
-41.7526
 21
-39.0365
  0
LINE
  8
0
 10
-41.7526
 20
-39.0365
 11
-41.6887
 21
-38.9284
  0
LINE
  8
0
 10
-41.6887
 20
-38.9284
 11
-41.618
 21
-38.8244
  0
LINE
  8
0
 10
-41.618
 20
-38.8244
 11
-41.541
 21
-38.7252
  0
LINE
  8
0
 10
-41.541
 20
-38.7252
 11
-41.4579
 21
-38.6309
  0
LINE
  8
0
 10
-41.4579
 20
-38.6309
 11
-41.3691
 21
-38.5421
  0
LINE
  8
0
 10
-41.3691
 20
-38.5421
 11
-41.2749
 21
-38.459
  0
LINE
  8
0
 10
-41.2749
 20
-38.459
 11
-41.1756
 21
-38.382
  0
LINE
  8
0
 10
-41.1756
 20
-38.382
 11
-41.0717
 21
-38.3114
  0
LINE
  8
0
 10
-41.0717
 20
-38.3114
 11
-40.9635
 21
-38.2474
  0
LINE
  8
0
 10
-40.9635
 20
-38.2474
 11
-40.8516
 21
-38.1904
  0
LINE
  8
0
 10
-40.8516
 20
-38.1904
 11
-40.7363
 21
-38.1405
  0
LINE
  8
0
 10
-40.7363
 20
-38.1405
 11
-40.618
 21
-38.0979
  0
LINE
  8
0
 10
-40.618
 20
-38.0979
 11
-40.4974
 21
-38.0628
  0
LINE
  8
0
 10
-40.4974
 20
-38.0628
 11
-40.3748
 21
-38.0354
  0
LINE
  8
0
 10
-40.3748
 20
-38.0354
 11
-40.2507
 21
-38.0158
  0
LINE
  8
0
 10
-40.2507
 20
-38.0158
 11
-40.1256
 21
-38.004
  0
LINE
  8
0
 10
-40.1256
 20
-38.004
 11
-40
 21
-38
  0
LINE
  8
0
 10
-40
 20
-38
 11
-39.8744
 21
-38.004
  0
LINE
  8
0
 10
-39.8744
 20
-38.004
 11
-39.7493
 21
-38.0158
  0
LINE
  8
0
 10
-39.7493
 20
-38.0158
 11
-39.6252
 21
-38.0354
  0
LINE
  8
0
 10
-39.6252
 20
-38.0354
 11
-39.5026
 21
-38.0628
  0
LINE
  8
0
 10
-39.5026
 20
-38.0628
 11
-39.382
 21
-38.0979
  0
LINE
  8
0
 10
-39.382
 20
-38.0979
 11
-39.2638
 21
-38.1405
  0
LINE
  8
0
 10
-39.2638
 20
-38.1405
 11
-39.1485
 21
-38.1904
  0
LINE
  8
0
 10
-39.1485
 20
-38.1904
 11
-39.0365
 21
-38.2474
  0
LINE
  8
0
 10
-39.0365
 20
-38.2474
 11
-38.9284
 21
-38.3114
  0
LINE
  8
0
 10
-38.9284
 20
-38.3114
 11
-38.8244
 21
-38.382
  0
LINE
  8
0
 10
-38.8244
 20
-38.382
 11
-38.7252
 21
-38.459
  0
LINE
  8
0
 10
-38.7252
 20
-38.459
 11
-38.6309
 21
-38.5421
  0
LINE
  8
0
 10
-38.6309
 20
-38.5421
 11
-38.5421
 21
-38.6309
  0
LINE
  8
0
 10
-38.5421
 20
-38.6309
 11
-38.459
 21
-38.7252
  0
LINE
  8
0
 10
-38.459
 20
-38.7252
 11
-38.382
 21
-38.8244
  0
LINE
  8
0
 10
-38.382
 20
-38.8244
 11
-38.3114
 21
-38.9284
  0
LINE
  8
0
 10
-38.3114
 20
-38.9284
 11
-38.2474
 21
-39.0365
  0
LINE
  8
0
 10
-38.2474
 20
-39.0365
 11
-38.1904
 21
-39.1485
  0
LINE
  8
0
 10
-38.1904
 20
-39.1485
 11
-38.1405
 21
-39.2638
  0
LINE
  8
0
 10
-38.1405
 20
-39.2638
 11
-38.0979
 21
-39.382
  0
LINE
  8
0
 10
-38.0979
 20
-39.382
 11
-38.0628
 21
-39.5026
  0
LINE
  8
0
 10
-38.0628
 20
-39.5026
 11
-38.0354
 21
-39.6252
  0
LINE
  8
0
 10
-38.0354
 20
-39.6252
 11
-38.0158
 21
-39.7493
  0
LINE
  8
0
 10
-38.0158
 20
-39.7493
 11
-38.004
 21
-39.8744
  0
LINE
  8
0
 10
-38.004
 20
-39.8744
 11
-38
 21
-40
  0
LINE
  8
0
 10
-38
 20
-40
 11
-38.004
 21
-40.1256
  0
LINE
  8
0
 10
-38.004
 20
-40.1256
 11
-38.0158
 21
-40.2507
  0
LINE
  8
0
 10
-38.0158
 20
-40.2507
 11
-38.0354
 21
-40.3748
  0
LINE
  8
0
 10
-38.0354
 20
-40.3748
 11
-38.0628
 21
-40.4974
  0
LINE
  8
0
 10
-38.0628
 20
-40.4974
 11
-38.0979
 21
-40.618
  0
LINE
  8
0
 10
-38.0979
 20
-40.618
 11
-38.1405
 21
-40.7363
  0
LINE
  8
0
 10
-38.1405
 20
-40.7363
 11
-38.1904
 21
-40.8516
  0
LINE
  8
0
 10
-38.1904
 20
-40.8516
 11
-38.2474
 21
-40.9635
  0
LINE
  8
0
 10
-38.2474
 20
-40.9635
 11
-38.3114
 21
-41.0717
  0
LINE
  8
0
 10
-38.3114
 20
-41.0717
 11
-38.382
 21
-41.1756
  0
LINE
  8
0
 10
-38.382
 20
-41.1756
 11
-38.459
 21
-41.2749
  0
LINE
  8
0
 10
-38.459
 20
-41.2749
 11
-38.5421
 21
-41.3691
  0
LINE
  8
0
 10
-38.5421
 20
-41.3691
 11
-38.6309
 21
-41.4579
  0
LINE
  8
0
 10
-38.6309
 20
-41.4579
 11
-38.7252
 21
-41.541
  0
LINE
  8
0
 10
-38.7252
 20
-41.541
 11
-38.8244
 21
-41.618
  0
LINE
  8
0
 10
-38.8244
 20
-41.618
 11
-38.9284
 21
-41.6887
  0
LINE
  8
0
 10
-38.9284
 20
-41.6887
 11
-39.0365
 21
-41.7526
  0
LINE
  8
0
 10
-39.0365
 20
-41.7526
 11
-39.1485
 21
-41.8097
  0
LINE
  8
0
 10
-39.1485
 20
-41.8097
 11
-39.2638
 21
-41.8596
  0
LINE
  8
0
 10
-39.2638
 20
-41.8596
 11
-39.382
 21
-41.9021
  0
LINE
  8
0
 10
-39.382
 20
-41.9021
 11
-39.5026
 21
-41.9372
  0
LINE
  8
0
 10
-39.5026
 20
-41.9372
 11
-39.6252
 21
-41.9646
  0
LINE
  8
0
 10
-39.6252
 20
-41.9646
 11
-39.7493
 21
-41.9842
  0
LINE
  8
0
 10
-39.7493
 20
-41.9842
 11
-39.8744
 21
-41.9961
  0
LINE
  8
0
 10
-39.8744
 20
-41.9961
 11
-40
 21
-42
  0
LINE
  8
0
 10
-40
 20
-42
 11
-40.1256
 21
-41.9961
  0
LINE
  8
0
 10
79.8744
 20
-41.9961
 11
79.7493
 21
-41.9842
  0
LINE
  8
0
 10
79.7493
 20
-41.9842
 11
79.6252
 21
-41.9646
  0
LINE
  8
0
 10
79.6252
 20
-41.9646
 11
79.5026
 21
-41.9372
  0
LINE
  8
0
 10
79.5026
 20
-41.9372
 11
79.382
 21
-41.9021
  0
LINE
  8
0
 10
79.382
 20
-41.9021
 11
79.2637
 21
-41.8596
  0
LINE
  8
0
 10
79.2637
 20
-41.8596
 11
79.1484
 21
-41.8097
  0
LINE
  8
0
 10
79.1484
 20
-41.8097
 11
79.0365
 21
-41.7526
  0
LINE
  8
0
 10
79.0365
 20
-41.7526
 11
78.9283
 21
-41.6887
  0
LINE
  8
0
 10
78.9283
 20
-41.6887
 11
78.8244
 21
-41.618
  0
LINE
  8
0
 10
78.8244
 20
-41.618
 11
78.7251
 21
-41.541
  0
LINE
  8
0
 10
78.7251
 20
-41.541
 11
78.6309
 21
-41.4579
  0
LINE
  8
0
 10
78.6309
 20
-41.4579
 11
78.5421
 21
-41.3691
  0
LINE
  8
0
 10
78.5421
 20
-41.3691
 11
78.459
 21
-41.2749
  0
LINE
  8
0
 10
78.459
 20
-41.2749
 11
78.382
 21
-41.1756
  0
LINE
  8
0
 10
78.382
 20
-41.1756
 11
78.3113
 21
-41.0717
  0
LINE
  8
0
 10
78.3113
 20
-41.0717
 11
78.2474
 21
-40.9635
  0
LINE
  8
0
 10
78.2474
 20
-40.9635
 11
78.1903
 21
-40.8516
  0
LINE
  8
0
 10
78.1903
 20
-40.8516
 11
78.1404
 21
-40.7363
  0
LINE
  8
0
 10
78.1404
 20
-40.7363
 11
78.0979
 21
-40.618
  0
LINE
  8
0
 10
78.0979
 20
-40.618
 11
78.0628
 21
-40.4974
  0
LINE
  8
0
 10
78.0628
 20
-40.4974
 11
78.0354
 21
-40.3748
  0
LINE
  8
0
 10
78.0354
 20
-40.3748
 11
78.0158
 21
-40.2507
  0
LINE
  8
0
 10
78.0158
 20
-40.2507
 11
78.0039
 21
-40.1256
  0
LINE
  8
0
 10
78.0039
 20
-40.1256
 11
78
 21
-40
  0
LINE
  8
0
 10
78
 20
-40
 11
78.0039
 21
-39.8744
  0
LINE
  8
0
 10
78.0039
 20
-39.8744
 11
78.0158
 21
-39.7493
  0
LINE
  8
0
 10
78.0158
 20
-39.7493
 11
78.0354
 21
-39.6252
  0
LINE
  8
0
 10
78.0354
 20
-39.6252
 11
78.0628
 21
-39.5026
  0
LINE
  8
0
 10
78.0628
 20
-39.5026
 11
78.0979
 21
-39.382
  0
LINE
  8
0
 10
78.0979
 20
-39.382
 11
78.1404
 21
-39.2638
  0
LINE
  8
0
 10
78.1404
 20
-39.2638
 11
78.1903
 21
-39.1485
  0
LINE
  8
0
 10
78.1903
 20
-39.1485
 11
78.2474
 21
-39.0365
  0
LINE
  8
0
 10
78.2474
 20
-39.0365
 11
78.3113
 21
-38.9284
  0
LINE
  8
0
 10
78.3113
 20
-38.9284
 11
78.382
 21
-38.8244
  0
LINE
  8
0
 10
78.382
 20
-38.8244
 11
78.459
 21
-38.7252
  0
LINE
  8
0
 10
78.459
 20
-38.7252
 11
78.5421
 21
-38.6309
  0
LINE
  8
0
 10
78.5421
 20
-38.6309
 11
78.6309
 21
-38.5421
  0
LINE
  8
0
 10
78.6309
 20
-38.5421
 11
78.7251
 21
-38.459
  0
LINE
  8
0
 10
78.7251
 20
-38.459
 11
78.8244
 21
-38.382
  0
LINE
  8
0
 10
78.8244
 20
-38.382
 11
78.9283
 21
-38.3114
  0
LINE
  8
0
 10
78.9283
 20
-38.3114
 11
79.0365
 21
-38.2474
  0
LINE
  8
0
 10
79.0365
 20
-38.2474
 11
79.1484
 21
-38.1904
  0
LINE
  8
0
 10
79.1484
 20
-38.1904
 11
79.2637
 21
-38.1405
  0
LINE
  8
0
 10
79.2637
 20
-38.1405
 11
79.382
 21
-38.0979
  0
LINE
  8
0
 10
79.382
 20
-38.0979
 11
79.5026
 21
-38.0628
  0
LINE
  8
0
 10
79.5026
 20
-38.0628
 11
79.6252
 21
-38.0354
  0
LINE
  8
0
 10
79.6252
 20
-38.0354
 11
79.7493
 21
-38.0158
  0
LINE
  8
0
 10
79.7493
 20
-38.0158
 11
79.8744
 21
-38.004
  0
LINE
  8
0
 10
79.8744
 20
-38.004
 11
80
 21
-38
  0
LINE
  8
0
 10
80
 20
-38
 11
80.1256
 21
-38.004
  0
LINE
  8
0
 10
80.1256
 20
-38.004
 11
80.2507
 21
-38.0158
  0
LINE
  8
0
 10
80.2507
 20
-38.0158
 11
80.3748
 21
-38.0354
  0
LINE
  8
0
 10
80.3748
 20
-38.0354
 11
80.4974
 21
-38.0628
  0
LINE
  8
0
 10
80.4974
 20
-38.0628
 11
80.618
 21
-38.0979
  0
LINE
  8
0
 10
80.618
 20
-38.0979
 11
80.7362
 21
-38.1405
  0
LINE
  8
0
 10
80.7362
 20
-38.1405
 11
80.8515
 21
-38.1904
  0
LINE
  8
0
 10
80.8515
 20
-38.1904
 11
80.9635
 21
-38.2474
  0
LINE
  8
0
 10
80.9635
 20
-38.2474
 11
81.0716
 21
-38.3114
  0
LINE
  8
0
 10
81.0716
 20
-38.3114
 11
81.1756
 21
-38.382
  0
LINE
  8
0
 10
81.1756
 20
-38.382
 11
81.2748
 21
-38.459
  0
LINE
  8
0
 10
81.2748
 20
-38.459
 11
81.3691
 21
-38.5421
  0
LINE
  8
0
 10
81.3691
 20
-38.5421
 11
81.4579
 21
-38.6309
  0
LINE
  8
0
 10
81.4579
 20
-38.6309
 11
81.541
 21
-38.7252
  0
LINE
  8
0
 10
81.541
 20
-38.7252
 11
81.618
 21
-38.8244
  0
LINE
  8
0
 10
81.618
 20
-38.8244
 11
81.6886
 21
-38.9284
  0
LINE
  8
0
 10
81.6886
 20
-38.9284
 11
81.7526
 21
-39.0365
  0
LINE
  8
0
 10
81.7526
 20
-39.0365
 11
81.8096
 21
-39.1485
  0
LINE
  8
0
 10
81.8096
 20
-39.1485
 11
81.8595
 21
-39.2638
  0
LINE
  8
0
 10
81.8595
 20
-39.2638
 11
81.9021
 21
-39.382
  0
LINE
  8
0
 10
81.9021
 20
-39.382
 11
81.9372
 21
-39.5026
  0
LINE
  8
0
 10
81.9372
 20
-39.5026
 11
81.9646
 21
-39.6252
  0
LINE
  8
0
 10
81.9646
 20
-39.6252
 11
81.9842
 21
-39.7493
  0
LINE
  8
0
 10
81.9842
 20
-39.7493
 11
81.996
 21
-39.8744
  0
LINE
  8
0
 10
81.996
 20
-39.8744
 11
82
 21
-40
  0
LINE
  8
0
 10
82
 20
-40
 11
81.996
 21
-40.1256
  0
LINE
  8
0
 10
81.996
 20
-40.1256
 11
81.9842
 21
-40.2507
  0
LINE
  8
0
 10
81.9842
 20
-40.2507
 11
81.9646
 21
-40.3748
  0
LINE
  8
0
 10
81.9646
 20
-40.3748
 11
81.9372
 21
-40.4974
  0
LINE
  8
0
 10
81.9372
 20
-40.4974
 11
81.9021
 21
-40.618
  0
LINE
  8
0
 10
81.9021
 20
-40.618
 11
81.8595
 21
-40.7363
  0
LINE
  8
0
 10
81.8595
 20
-40.7363
 11
81.8096
 21
-40.8516
  0
LINE
  8
0
 10
81.8096
 20
-40.8516
 11
81.7526
 21
-40.9635
  0
LINE
  8
0
 10
81.7526
 20
-40.9635
 11
81.6886
 21
-41.0717
  0
LINE
  8
0
 10
81.6886
 20
-41.0717
 11
81.618
 21
-41.1756
  0
LINE
  8
0
 10
81.618
 20
-41.1756
 11
81.541
 21
-41.2749
  0
LINE
  8
0
 10
81.541
 20
-41.2749
 11
81.4579
 21
-41.3691
  0
LINE
  8
0
 10
81.4579
 20
-41.3691
 11
81.3691
 21
-41.4579
  0
LINE
  8
0
 10
81.3691
 20
-41.4579
 11
81.2748
 21
-41.541
  0
LINE
  8
0
 10
81.2748
 20
-41.541
 11
81.1756
 21
-41.618
  0
LINE
  8
0
 10
81.1756
 20
-41.618
 11
81.0716
 21
-41.6887
  0
LINE
  8
0
 10
81.0716
 20
-41.6887
 11
80.9635
 21
-41.7526
  0
LINE
  8
0
 10
80.9635
 20
-41.7526
 11
80.8515
 21
-41.8097
  0
LINE
  8
0
 10
80.8515
 20
-41.8097
 11
80.7362
 21
-41.8596
  0
LINE
  8
0
 10
80.7362
 20
-41.8596
 11
80.618
 21
-41.9021
  0
LINE
  8
0
 10
80.618
 20
-41.9021
 11
80.4974
 21
-41.9372
  0
LINE
  8
0
 10
80.4974
 20
-41.9372
 11
80.3748
 21
-41.9646
  0
LINE
  8
0
 10
80.3748
 20
-41.9646
 11
80.2507
 21
-41.9842
  0
LINE
  8
0
 10
80.2507
 20
-41.9842
 11
80.1256
 21
-41.9961
  0
LINE
  8
0
 10
80.1256
 20
-41.9961
 11
80
 21
-42
  0
LINE
  8
0
 10
80
 20
-42
 11
79.8744
 21
-41.9961
  0
LINE
  8
0
 10
-80.1256
 20
-41.9961
 11
-80.2507
 21
-41.9842
  0
LINE
  8
0
 10
-80.2507
 20
-41.9842
 11
-80.3748
 21
-41.9646
  0
LINE
  8
0
 10
-80.3748
 20
-41.9646
 11
-80.4974
 21
-41.9372
  0
LINE
  8
0
 10
-80.4974
 20
-41.9372
 11
-80.618
 21
-41.9021
  0
LINE
  8
0
 10
-80.618
 20
-41.9021
 11
-80.7362
 21
-41.8596
  0
LINE
  8
0
 10
-80.7362
 20
-41.8596
 11
-80.8515
 21
-41.8097
  0
LINE
  8
0
 10
-80.8515
 20
-41.8097
 11
-80.9635
 21
-41.7526
  0
LINE
  8
0
 10
-80.9635
 20
-41.7526
 11
-81.0716
 21
-41.6887
  0
LINE
  8
0
 10
-81.0716
 20
-41.6887
 11
-81.1756
 21
-41.618
  0
LINE
  8
0
 10
-81.1756
 20
-41.618
 11
-81.2748
 21
-41.541
  0
LINE
  8
0
 10
-81.2748
 20
-41.541
 11
-81.3691
 21
-41.4579
  0
LINE
  8
0
 10
-81.3691
 20
-41.4579
 11
-81.4579
 21
-41.3691
  0
LINE
  8
0
 10
-81.4579
 20
-41.3691
 11
-81.541
 21
-41.2749
  0
LINE
  8
0
 10
-81.541
 20
-41.2749
 11
-81.618
 21
-41.1756
  0
LINE
  8
0
 10
-81.618
 20
-41.1756
 11
-81.6886
 21
-41.0717
  0
LINE
  8
0
 10
-81.6886
 20
-41.0717
 11
-81.7526
 21
-40.9635
  0
LINE
  8
0
 10
-81.7526
 20
-40.9635
 11
-81.8096
 21
-40.8516
  0
LINE
  8
0
 10
-81.8096
 20
-40.8516
 11
-81.8595
 21
-40.7363
  0
LINE
  8
0
 10
-81.8595
 20
-40.7363
 11
-81.9021
 21
-40.618
  0
LINE
  8
0
 10
-81.9021
 20
-40.618
 11
-81.9372
 21
-40.4974
  0
LINE
  8
0
 10
-81.9372
 20
-40.4974
 11
-81.9646
 21
-40.3748
  0
LINE
  8
0
 10
-81.9646
 20
-40.3748
 11
-81.9842
 21
-40.2507
  0
LINE
  8
0
 10
-81.9842
 20
-40.2507
 11
-81.996
 21
-40.1256
  0
LINE
  8
0
 10
-81.996
 20
-40.1256
 11
-82
 21
-40
  0
LINE
  8
0
 10
-82
 20
-40
 11
-81.996
 21
-39.8744
  0
LINE
  8
0
 10
-81.996
 20
-39.8744
 11
-81.9842
 21
-39.7493
  0
LINE
  8
0
 10
-81.9842
 20
-39.7493
 11
-81.9646
 21
-39.6252
  0
LINE
  8
0
 10
-81.9646
 20
-39.6252
 11
-81.9372
 21
-39.5026
  0
LINE
  8
0
 10
-81.9372
 20
-39.5026
 11
-81.9021
 21
-39.382
  0
LINE
  8
0
 10
-81.9021
 20
-39.382
 11
-81.8595
 21
-39.2638
  0
LINE
  8
0
 10
-81.8595
 20
-39.2638
 11
-81.8096
 21
-39.1485
  0
LINE
  8
0
 10
-81.8096
 20
-39.1485
 11
-81.7526
 21
-39.0365
  0
LINE
  8
0
 10
-81.7526
 20
-39.0365
 11
-81.6886
 21
-38.9284
  0
LINE
  8
0
 10
-81.6886
 20
-38.9284
 11
-81.618
 21
-38.8244
  0
LINE
  8
0
 10
-81.618
 20
-38.8244
 11
-81.541
 21
-38.7252
  0
LINE
  8
0
 10
-81.541
 20
-38.7252
 11
-81.4579
 21
-38.6309
  0
LINE
  8
0
 10
-81.4579
 20
-38.6309
 11
-81.3691
 21
-38.5421
  0
LINE
  8
0
 10
-81.3691
 20
-38.5421
 11
-81.2748
 21
-38.459
  0
LINE
  8
0
 10
-81.2748
 20
-38.459
 11
-81.1756
 21
-38.382
  0
LINE
  8
0
 10
-81.1756
 20
-38.382
 11
-81.0716
 21
-38.3114
  0
LINE
  8
0
 10
-81.0716
 20
-38.3114
 11
-80.9635
 21
-38.2474
  0
LINE
  8
0
 10
-80.9635
 20
-38.2474
 11
-80.8515
 21
-38.1904
  0
LINE
  8
0
 10
-80.8515
 20
-38.1904
 11
-80.7362
 21
-38.1405
  0
LINE
  8
0
 10
-80.7362
 20
-38.1405
 11
-80.618
 21
-38.0979
  0
LINE
  8
0
 10
-80.618
 20
-38.0979
 11
-80.4974
 21
-38.0628
  0
LINE
  8
0
 10
-80.4974
 20
-38.0628
 11
-80.3748
 21
-38.0354
  0
LINE
  8
0
 10
-80.3748
 20
-38.0354
 11
-80.2507
 21
-38.0158
  0
LINE
  8
0
 10
-80.2507
 20
-38.0158
 11
-80.1256
 21
-38.004
  0
LINE
  8
0
 10
-80.1256
 20
-38.004
 11
-80
 21
-38
  0
LINE
  8
0
 10
-80
 20
-38
 11
-79.8744
 21
-38.004
  0
LINE
  8
0
 10
-79.8744
 20
-38.004
 11
-79.7493
 21
-38.0158
  0
LINE
  8
0
 10
-79.7493
 20
-38.0158
 11
-79.6252
 21
-38.0354
  0
LINE
  8
0
 10
-79.6252
 20
-38.0354
 11
-79.5026
 21
-38.0628
  0
LINE
  8
0
 10
-79.5026
 20
-38.0628
 11
-79.382
 21
-38.0979
  0
LINE
  8
0
 10
-79.382
 20
-38.0979
 11
-79.2638
 21
-38.1405
  0
LINE
  8
0
 10
-79.2638
 20
-38.1405
 11
-79.1485
 21
-38.1904
  0
LINE
  8
0
 10
-79.1485
 20
-38.1904
 11
-79.0365
 21
-38.2474
  0
LINE
  8
0
 10
-79.0365
 20
-38.2474
 11
-78.9284
 21
-38.3114
  0
LINE
  8
0
 10
-78.9284
 20
-38.3114
 11
-78.8244
 21
-38.382
  0
LINE
  8
0
 10
-78.8244
 20
-38.382
 11
-78.7252
 21
-38.459
  0
LINE
  8
0
 10
-78.7252
 20
-38.459
 11
-78.6309
 21
-38.5421
  0
LINE
  8
0
 10
-78.6309
 20
-38.5421
 11
-78.5421
 21
-38.6309
  0
LINE
  8
0
 10
-78.5421
 20
-38.6309
 11
-78.459
 21
-38.7252
  0
LINE
  8
0
 10
-78.459
 20
-38.7252
 11
-78.382
 21
-38.8244
  0
LINE
  8
0
 10
-78.382
 20
-38.8244
 11
-78.3114
 21
-38.9284
  0
LINE
  8
0
 10
-78.3114
 20
-38.9284
 11
-78.2474
 21
-39.0365
  0
LINE
  8
0
 10
-78.2474
 20
-39.0365
 11
-78.1904
 21
-39.1485
  0
LINE
  8
0
 10
-78.1904
 20
-39.1485
 11
-78.1405
 21
-39.2638
  0
LINE
  8
0
 10
-78.1405
 20
-39.2638
 11
-78.0979
 21
-39.382
  0
LINE
  8
0
 10
-78.0979
 20
-39.382
 11
-78.0628
 21
-39.5026
  0
LINE
  8
0
 10
-78.0628
 20
-39.5026
 11
-78.0354
 21
-39.6252
  0
LINE
  8
0
 10
-78.0354
 20
-39.6252
 11
-78.0158
 21
-39.7493
  0
LINE
  8
0
 10
-78.0158
 20
-39.7493
 11
-78.004
 21
-39.8744
  0
LINE
  8
0
 10
-78.004
 20
-39.8744
 11
-78
 21
-40
  0
LINE
  8
0
 10
-78
 20
-40
 11
-78.004
 21
-40.1256
  0
LINE
  8
0
 10
-78.004
 20
-40.1256
 11
-78.0158
 21
-40.2507
  0
LINE
  8
0
 10
-78.0158
 20
-40.2507
 11
-78.0354
 21
-40.3748
  0
LINE
  8
0
 10
-78.0354
 20
-40.3748
 11
-78.0628
 21
-40.4974
  0
LINE
  8
0
 10
-78.0628
 20
-40.4974
 11
-78.0979
 21
-40.618
  0
LINE
  8
0
 10
-78.0979
 20
-40.618
 11
-78.1405
 21
-40.7363
  0
LINE
  8
0
 10
-78.1405
 20
-40.7363
 11
-78.1904
 21
-40.8516
  0
LINE
  8
0
 10
-78.1904
 20
-40.8516
 11
-78.2474
 21
-40.9635
  0
LINE
  8
0
 10
-78.2474
 20
-40.9635
 11
-78.3114
 21
-41.0717
  0
LINE
  8
0
 10
-78.3114
 20
-41.0717
 11
-78.382
 21
-41.1756
  0
LINE
  8
0
 10
-78.382
 20
-41.1756
 11
-78.459
 21
-41.2749
  0
LINE
  8
0
 10
-78.459
 20
-41.2749
 11
-78.5421
 21
-41.3691
  0
LINE
  8
0
 10
-78.5421
 20
-41.3691
 11
-78.6309
 21
-41.4579
  0
LINE
  8
0
 10
-78.6309
 20
-41.4579
 11
-78.7252
 21
-41.541
  0
LINE
  8
0
 10
-78.7252
 20
-41.541
 11
-78.8244
 21
-41.618
  0
LINE
  8
0
 10
-78.8244
 20
-41.618
 11
-78.9284
 21
-41.6887
  0
LINE
  8
0
 10
-78.9284
 20
-41.6887
 11
-79.0365
 21
-41.7526
  0
LINE
  8
0
 10
-79.0365
 20
-41.7526
 11
-79.1485
 21
-41.8097
  0
LINE
  8
0
 10
-79.1485
 20
-41.8097
 11
-79.2638
 21
-41.8596
  0
LINE
  8
0
 10
-79.2638
 20
-41.8596
 11
-79.382
 21
-41.9021
  0
LINE
  8
0
 10
-79.382
 20
-41.9021
 11
-79.5026
 21
-41.9372
  0
LINE
  8
0
 10
-79.5026
 20
-41.9372
 11
-79.6252
 21
-41.9646
  0
LINE
  8
0
 10
-79.6252
 20
-41.9646
 11
-79.7493
 21
-41.9842
  0
LINE
  8
0
 10
-79.7493
 20
-41.9842
 11
-79.8744
 21
-41.9961
  0
LINE
  8
0
 10
-79.8744
 20
-41.9961
 11
-80
 21
-42
  0
LINE
  8
0
 10
-80
 20
-42
 11
-80.1256
 21
-41.9961
  0
LINE
  8
0
 10
-0.125595
 20
-81.996
 11
-0.250671
 21
-81.9842
  0
LINE
  8
0
 10
-0.250671
 20
-81.9842
 11
-0.374771
 21
-81.9646
  0
LINE
  8
0
 10
-0.374771
 20
-81.9646
 11
-0.497391
 21
-81.9372
  0
LINE
  8
0
 10
-0.497391
 20
-81.9372
 11
-0.618042
 21
-81.9021
  0
LINE
  8
0
 10
-0.618042
 20
-81.9021
 11
-0.736252
 21
-81.8595
  0
LINE
  8
0
 10
-0.736252
 20
-81.8595
 11
-0.851562
 21
-81.8096
  0
LINE
  8
0
 10
-0.851562
 20
-81.8096
 11
-0.963516
 21
-81.7526
  0
LINE
  8
0
 10
-0.963516
 20
-81.7526
 11
-1.07166
 21
-81.6886
  0
LINE
  8
0
 10
-1.07166
 20
-81.6886
 11
-1.17558
 21
-81.618
  0
LINE
  8
0
 10
-1.17558
 20
-81.618
 11
-1.27486
 21
-81.541
  0
LINE
  8
0
 10
-1.27486
 20
-81.541
 11
-1.36909
 21
-81.4579
  0
LINE
  8
0
 10
-1.36909
 20
-81.4579
 11
-1.45795
 21
-81.3691
  0
LINE
  8
0
 10
-1.45795
 20
-81.3691
 11
-1.54103
 21
-81.2748
  0
LINE
  8
0
 10
-1.54103
 20
-81.2748
 11
-1.61804
 21
-81.1756
  0
LINE
  8
0
 10
-1.61804
 20
-81.1756
 11
-1.68866
 21
-81.0716
  0
LINE
  8
0
 10
-1.68866
 20
-81.0716
 11
-1.75262
 21
-80.9635
  0
LINE
  8
0
 10
-1.75262
 20
-80.9635
 11
-1.80966
 21
-80.8515
  0
LINE
  8
0
 10
-1.80966
 20
-80.8515
 11
-1.85956
 21
-80.7362
  0
LINE
  8
0
 10
-1.85956
 20
-80.7362
 11
-1.90211
 21
-80.618
  0
LINE
  8
0
 10
-1.90211
 20
-80.618
 11
-1.93718
 21
-80.4974
  0
LINE
  8
0
 10
-1.93718
 20
-80.4974
 11
-1.96458
 21
-80.3748
  0
LINE
  8
0
 10
-1.96458
 20
-80.3748
 11
-1.98424
 21
-80.2507
  0
LINE
  8
0
 10
-1.98424
 20
-80.2507
 11
-1.99606
 21
-80.1256
  0
LINE
  8
0
 10
-1.99606
 20
-80.1256
 11
-2
 21
-80
  0
LINE
  8
0
 10
-2
 20
-80
 11
-1.99606
 21
-79.8744
  0
LINE
  8
0
 10
-1.99606
 20
-79.8744
 11
-1.98424
 21
-79.7493
  0
LINE
  8
0
 10
-1.98424
 20
-79.7493
 11
-1.96458
 21
-79.6252
  0
LINE
  8
0
 10
-1.96458
 20
-79.6252
 11
-1.93718
 21
-79.5026
  0
LINE
  8
0
 10
-1.93718
 20
-79.5026
 11
-1.90211
 21
-79.382
  0
LINE
  8
0
 10
-1.90211
 20
-79.382
 11
-1.85956
 21
-79.2638
  0
LINE
  8
0
 10
-1.85956
 20
-79.2638
 11
-1.80966
 21
-79.1485
  0
LINE
  8
0
 10
-1.80966
 20
-79.1485
 11
-1.75262
 21
-79.0365
  0
LINE
  8
0
 10
-1.75262
 20
-79.0365
 11
-1.68866
 21
-78.9284
  0
LINE
  8
0
 10
-1.68866
 20
-78.9284
 11
-1.61804
 21
-78.8244
  0
LINE
  8
0
 10
-1.61804
 20
-78.8244
 11
-1.54103
 21
-78.7252
  0
LINE
  8
0
 10
-1.54103
 20
-78.7252
 11
-1.45795
 21
-78.6309
  0
LINE
  8
0
 10
-1.45795
 20
-78.6309
 11
-1.36909
 21
-78.5421
  0
LINE
  8
0
 10
-1.36909
 20
-78.5421
 11
-1.27486
 21
-78.459
  0
LINE
  8
0
 10
-1.27486
 20
-78.459
 11
-1.17558
 21
-78.382
  0
LINE
  8
0
 10
-1.17558
 20
-78.382
 11
-1.07166
 21
-78.3114
  0
LINE
  8
0
 10
-1.07166
 20
-78.3114
 11
-0.963516
 21
-78.2474
  0
LINE
  8
0
 10
-0.963516
 20
-78.2474
 11
-0.851562
 21
-78.1904
  0
LINE
  8
0
 10
-0.851562
 20
-78.1904
 11
-0.736252
 21
-78.1405
  0
LINE
  8
0
 10
-0.736252
 20
-78.1405
 11
-0.618042
 21
-78.0979
  0
LINE
  8
0
 10
-0.618042
 20
-78.0979
 11
-0.497391
 21
-78.0628
  0
LINE
  8
0
 10
-0.497391
 20
-78.0628
 11
-0.374771
 21
-78.0354
  0
LINE
  8
0
 10
-0.374771
 20
-78.0354
 11
-0.250671
 21
-78.0158
  0
LINE
  8
0
 10
-0.250671
 20
-78.0158
 11
-0.125595
 21
-78.004
  0
LINE
  8
0
 10
-0.125595
 20
-78.004
 11
0
 21
-78
  0
LINE
  8
0
 10
0
 20
-78
 11
0.12558
 21
-78.004
  0
LINE
  8
0
 10
0.12558
 20
-78.004
 11
0.250656
 21
-78.0158
  0
LINE
  8
0
 10
0.250656
 20
-78.0158
 11
0.374756
 21
-78.0354
  0
LINE
  8
0
 10
0.374756
 20
-78.0354
 11
0.497375
 21
-78.0628
  0
LINE
  8
0
 10
0.497375
 20
-78.0628
 11
0.618027
 21
-78.0979
  0
LINE
  8
0
 10
0.618027
 20
-78.0979
 11
0.736237
 21
-78.1405
  0
LINE
  8
0
 10
0.736237
 20
-78.1405
 11
0.851547
 21
-78.1904
  0
LINE
  8
0
 10
0.851547
 20
-78.1904
 11
0.963501
 21
-78.2474
  0
LINE
  8
0
 10
0.963501
 20
-78.2474
 11
1.07164
 21
-78.3114
  0
LINE
  8
0
 10
1.07164
 20
-78.3114
 11
1.17557
 21
-78.382
  0
LINE
  8
0
 10
1.17557
 20
-78.382
 11
1.27484
 21
-78.459
  0
LINE
  8
0
 10
1.27484
 20
-78.459
 11
1.36908
 21
-78.5421
  0
LINE
  8
0
 10
1.36908
 20
-78.5421
 11
1.45793
 21
-78.6309
  0
LINE
  8
0
 10
1.45793
 20
-78.6309
 11
1.54102
 21
-78.7252
  0
LINE
  8
0
 10
1.54102
 20
-78.7252
 11
1.61803
 21
-78.8244
  0
LINE
  8
0
 10
1.61803
 20
-78.8244
 11
1.68864
 21
-78.9284
  0
LINE
  8
0
 10
1.68864
 20
-78.9284
 11
1.75261
 21
-79.0365
  0
LINE
  8
0
 10
1.75261
 20
-79.0365
 11
1.80965
 21
-79.1485
  0
LINE
  8
0
 10
1.80965
 20
-79.1485
 11
1.85954
 21
-79.2638
  0
LINE
  8
0
 10
1.85954
 20
-79.2638
 11
1.9021
 21
-79.382
  0
LINE
  8
0
 10
1.9021
 20
-79.382
 11
1.93716
 21
-79.5026
  0
LINE
  8
0
 10
1.93716
 20
-79.5026
 11
1.96457
 21
-79.6252
  0
LINE
  8
0
 10
1.96457
 20
-79.6252
 11
1.98422
 21
-79.7493
  0
LINE
  8
0
 10
1.98422
 20
-79.7493
 11
1.99605
 21
-79.8744
  0
LINE
  8
0
 10
1.99605
 20
-79.8744
 11
2
 21
-80
  0
LINE
  8
0
 10
2
 20
-80
 11
1.99605
 21
-80.1256
  0
LINE
  8
0
 10
1.99605
 20
-80.1256
 11
1.98422
 21
-80.2507
  0
LINE
  8
0
 10
1.98422
 20
-80.2507
 11
1.96457
 21
-80.3748
  0
LINE
  8
0
 10
1.96457
 20
-80.3748
 11
1.93716
 21
-80.4974
  0
LINE
  8
0
 10
1.93716
 20
-80.4974
 11
1.9021
 21
-80.618
  0
LINE
  8
0
 10
1.9021
 20
-80.618
 11
1.85954
 21
-80.7362
  0
LINE
  8
0
 10
1.85954
 20
-80.7362
 11
1.80965
 21
-80.8515
  0
LINE
  8
0
 10
1.80965
 20
-80.8515
 11
1.75261
 21
-80.9635
  0
LINE
  8
0
 10
1.75261
 20
-80.9635
 11
1.68864
 21
-81.0716
  0
LINE
  8
0
 10
1.68864
 20
-81.0716
 11
1.61803
 21
-81.1756
  0
LINE
  8
0
 10
1.61803
 20
-81.1756
 11
1.54102
 21
-81.2748
  0
LINE
  8
0
 10
1.54102
 20
-81.2748
 11
1.45793
 21
-81.3691
  0
LINE
  8
0
 10
1.45793
 20
-81.3691
 11
1.36908
 21
-81.4579
  0
LINE
  8
0
 10
1.36908
 20
-81.4579
 11
1.27484
 21
-81.541
  0
LINE
  8
0
 10
1.27484
 20
-81.541
 11
1.17557
 21
-81.618
  0
LINE
  8
0
 10
1.17557
 20
-81.618
 11
1.07164
 21
-81.6886
  0
LINE
  8
0
 10
1.07164
 20
-81.6886
 11
0.963501
 21
-81.7526
  0
LINE
  8
0
 10
0.963501
 20
-81.7526
 11
0.851547
 21
-81.8096
  0
LINE
  8
0
 10
0.851547
 20
-81.8096
 11
0.736237
 21
-81.8595
  0
LINE
  8
0
 10
0.736237
 20
-81.8595
 11
0.618027
 21
-81.9021
  0
LINE
  8
0
 10
0.618027
 20
-81.9021
 11
0.497375
 21
-81.9372
  0
LINE
  8
0
 10
0.497375
 20
-81.9372
 11
0.374756
 21
-81.9646
  0
LINE
  8
0
 10
0.374756
 20
-81.9646
 11
0.250656
 21
-81.9842
  0
LINE
  8
0
 10
0.250656
 20
-81.9842
 11
0.12558
 21
-81.996
  0
LINE
  8
0
 10
0.12558
 20
-81.996
 11
0
 21
-82
  0
LINE
  8
0
 10
0
 20
-82
 11
-0.125595
 21
-81.996
  0
LINE
  8
0
 10
-40.1256
 20
-81.996
 11
-40.2507
 21
-81.9842
  0
LINE
  8
0
 10
-40.2507
 20
-81.9842
 11
-40.3748
 21
-81.9646
  0
LINE
  8
0
 10
-40.3748
 20
-81.9646
 11
-40.4974
 21
-81.9372
  0
LINE
  8
0
 10
-40.4974
 20
-81.9372
 11
-40.618
 21
-81.9021
  0
LINE
  8
0
 10
-40.618
 20
-81.9021
 11
-40.7363
 21
-81.8595
  0
LINE
  8
0
 10
-40.7363
 20
-81.8595
 11
-40.8516
 21
-81.8096
  0
LINE
  8
0
 10
-40.8516
 20
-81.8096
 11
-40.9635
 21
-81.7526
  0
LINE
  8
0
 10
-40.9635
 20
-81.7526
 11
-41.0717
 21
-81.6886
  0
LINE
  8
0
 10
-41.0717
 20
-81.6886
 11
-41.1756
 21
-81.618
  0
LINE
  8
0
 10
-41.1756
 20
-81.618
 11
-41.2749
 21
-81.541
  0
LINE
  8
0
 10
-41.2749
 20
-81.541
 11
-41.3691
 21
-81.4579
  0
LINE
  8
0
 10
-41.3691
 20
-81.4579
 11
-41.4579
 21
-81.3691
  0
LINE
  8
0
 10
-41.4579
 20
-81.3691
 11
-41.541
 21
-81.2748
  0
LINE
  8
0
 10
-41.541
 20
-81.2748
 11
-41.618
 21
-81.1756
  0
LINE
  8
0
 10
-41.618
 20
-81.1756
 11
-41.6887
 21
-81.0716
  0
LINE
  8
0
 10
-41.6887
 20
-81.0716
 11
-41.7526
 21
-80.9635
  0
LINE
  8
0
 10
-41.7526
 20
-80.9635
 11
-41.8097
 21
-80.8515
  0
LINE
  8
0
 10
-41.8097
 20
-80.8515
 11
-41.8596
 21
-80.7362
  0
LINE
  8
0
 10
-41.8596
 20
-80.7362
 11
-41.9021
 21
-80.618
  0
LINE
  8
0
 10
-41.9021
 20
-80.618
 11
-41.9372
 21
-80.4974
  0
LINE
  8
0
 10
-41.9372
 20
-80.4974
 11
-41.9646
 21
-80.3748
  0
LINE
  8
0
 10
-41.9646
 20
-80.3748
 11
-41.9842
 21
-80.2507
  0
LINE
  8
0
 10
-41.9842
 20
-80.2507
 11
-41.9961
 21
-80.1256
  0
LINE
  8
0
 10
-41.9961
 20
-80.1256
 11
-42
 21
-80
  0
LINE
  8
0
 10
-42
 20
-80
 11
-41.9961
 21
-79.8744
  0
LINE
  8
0
 10
-41.9961
 20
-79.8744
 11
-41.9842
 21
-79.7493
  0
LINE
  8
0
 10
-41.9842
 20
-79.7493
 11
-41.9646
 21
-79.6252
  0
LINE
  8
0
 10
-41.9646
 20
-79.6252
 11
-41.9372
 21
-79.5026
  0
LINE
  8
0
 10
-41.9372
 20
-79.5026
 11
-41.9021
 21
-79.382
  0
LINE
  8
0
 10
-41.9021
 20
-79.382
 11
-41.8596
 21
-79.2638
  0
LINE
  8
0
 10
-41.8596
 20
-79.2638
 11
-41.8097
 21
-79.1485
  0
LINE
  8
0
 10
-41.8097
 20
-79.1485
 11
-41.7526
 21
-79.0365
  0
LINE
  8
0
 10
-41.7526
 20
-79.0365
 11
-41.6887
 21
-78.9284
  0
LINE
  8
0
 10
-41.6887
 20
-78.9284
 11
-41.618
 21
-78.8244
  0
LINE
  8
0
 10
-41.618
 20
-78.8244
 11
-41.541
 21
-78.7252
  0
LINE
  8
0
 10
-41.541
 20
-78.7252
 11
-41.4579
 21
-78.6309
  0
LINE
  8
0
 10
-41.4579
 20
-78.6309
 11
-41.3691
 21
-78.5421
  0
LINE
  8
0
 10
-41.3691
 20
-78.5421
 11
-41.2749
 21
-78.459
  0
LINE
  8
0
 10
-41.2749
 20
-78.459
 11
-41.1756
 21
-78.382
  0
LINE
  8
0
 10
-41.1756
 20
-78.382
 11
-41.0717
 21
-78.3114
  0
LINE
  8
0
 10
-41.0717
 20
-78.3114
 11
-40.9635
 21
-78.2474
  0
LINE
  8
0
 10
-40.9635
 20
-78.2474
 11
-40.8516
 21
-78.1904
  0
LINE
  8
0
 10
-40.8516
 20
-78.1904
 11
-40.7363
 21
-78.1405
  0
LINE
  8
0
 10
-40.7363
 20
-78.1405
 11
-40.618
 21
-78.0979
  0
LINE
  8
0
 10
-40.618
 20
-78.0979
 11
-40.4974
 21
-78.0628
  0
LINE
  8
0
 10
-40.4974
 20
-78.0628
 11
-40.3748
 21
-78.0354
  0
LINE
  8
0
 10
-40.3748
 20
-78.0354
 11
-40.2507
 21
-78.0158
  0
LINE
  8
0
 10
-40.2507
 20
-78.0158
 11
-40.1256
 21
-78.004
  0
LINE
  8
0
 10
-40.1256
 20
-78.004
 11
-40
 21
-78
  0
LINE
  8
0
 10
-40
 20
-78
 11
-39.8744
 21
-78.004
  0
LINE
  8
0
 10
-39.8744
 20
-78.004
 11
-39.7493
 21
-78.0158
  0
LINE
  8
0
 10
-39.7493
 20
-78.0158
 11
-39.6252
 21
-78.0354
  0
LINE
  8
0
 10
-39.6252
 20
-78.0354
 11
-39.5026
 21
-78.0628
  0
LINE
  8
0
 10
-39.5026
 20
-78.0628
 11
-39.382
 21
-78.0979
  0
LINE
  8
0
 10
-39.382
 20
-78.0979
 11
-39.2638
 21
-78.1405
  0
LINE
  8
0
 10
-39.2638
 20
-78.1405
 11
-39.1485
 21
-78.1904
  0
LINE
  8
0
 10
-39.1485
 20
-78.1904
 11
-39.0365
 21
-78.2474
  0
LINE
  8
0
 10
-39.0365
 20
-78.2474
 11
-38.9284
 21
-78.3114
  0
LINE
  8
0
 10
-38.9284
 20
-78.3114
 11
-38.8244
 21
-78.382
  0
LINE
  8
0
 10
-38.8244
 20
-78.382
 11
-38.7252
 21
-78.459
  0
LINE
  8
0
 10
-38.7252
 20
-78.459
 11
-38.6309
 21
-78.5421
  0
LINE
  8
0
 10
-38.6309
 20
-78.5421
 11
-38.5421
 21
-78.6309
  0
LINE
  8
0
 10
-38.5421
 20
-78.6309
 11
-38.459
 21
-78.7252
  0
LINE
  8
0
 10
-38.459
 20
-78.7252
 11
-38.382
 21
-78.8244
  0
LINE
  8
0
 10
-38.382
 20
-78.8244
 11
-38.3114
 21
-78.9284
  0
LINE
  8
0
 10
-38.3114
 20
-78.9284
 11
-38.2474
 21
-79.0365
  0
LINE
  8
0
 10
-38.2474
 20
-79.0365
 11
-38.1904
 21
-79.1485
  0
LINE
  8
0
 10
-38.1904
 20
-79.1485
 11
-38.1405
 21
-79.2638
  0
LINE
  8
0
 10
-38.1405
 20
-79.2638
 11
-38.0979
 21
-79.382
  0
LINE
  8
0
 10
-38.0979
 20
-79.382
 11
-38.0628
 21
-79.5026
  0
LINE
  8
0
 10
-38.0628
 20
-79.5026
 11
-38.0354
 21
-79.6252
  0
LINE
  8
0
 10
-38.0354
 20
-79.6252
 11
-38.0158
 21
-79.7493
  0
LINE
  8
0
 10
-38.0158
 20
-79.7493
 11
-38.004
 21
-79.8744
  0
LINE
  8
0
 10
-38.004
 20
-79.8744
 11
-38
 21
-80
  0
LINE
  8
0
 10
-38
 20
-80
 11
-38.004
 21
-80.1256
  0
LINE
  8
0
 10
-38.004
 20
-80.1256
 11
-38.0158
 21
-80.2507
  0
LINE
  8
0
 10
-38.0158
 20
-80.2507
 11
-38.0354
 21
-80.3748
  0
LINE
  8
0
 10
-38.0354
 20
-80.3748
 11
-38.0628
 21
-80.4974
  0
LINE
  8
0
 10
-38.0628
 20
-80.4974
 11
-38.0979
 21
-80.618
  0
LINE
  8
0
 10
-38.0979
 20
-80.618
 11
-38.1405
 21
-80.7362
  0
LINE
  8
0
 10
-38.1405
 20
-80.7362
 11
-38.1904
 21
-80.8515
  0
LINE
  8
0
 10
-38.1904
 20
-80.8515
 11
-38.2474
 21
-80.9635
  0
LINE
  8
0
 10
-38.2474
 20
-80.9635
 11
-38.3114
 21
-81.0716
  0
LINE
  8
0
 10
-38.3114
 20
-81.0716
 11
-38.382
 21
-81.1756
  0
LINE
  8
0
 10
-38.382
 20
-81.1756
 11
-38.459
 21
-81.2748
  0
LINE
  8
0
 10
-38.459
 20
-81.2748
 11
-38.5421
 21
-81.3691
  0
LINE
  8
0
 10
-38.5421
 20
-81.3691
 11
-38.6309
 21
-81.4579
  0
LINE
  8
0
 10
-38.6309
 20
-81.4579
 11
-38.7252
 21
-81.541
  0
LINE
  8
0
 10
-38.7252
 20
-81.541
 11
-38.8244
 21
-81.618
  0
LINE
  8
0
 10
-38.8244
 20
-81.618
 11
-38.9284
 21
-81.6886
  0
LINE
  8
0
 10
-38.9284
 20
-81.6886
 11
-39.0365
 21
-81.7526
  0
LINE
  8
0
 10
-39.0365
 20
-81.7526
 11
-39.1485
 21
-81.8096
  0
LINE
  8
0
 10
-39.1485
 20
-81.8096
 11
-39.2638
 21
-81.8595
  0
LINE
  8
0
 10
-39.2638
 20
-81.8595
 11
-39.382
 21
-81.9021
  0
LINE
  8
0
 10
-39.382
 20
-81.9021
 11
-39.5026
 21
-81.9372
  0
LINE
  8
0
 10
-39.5026
 20
-81.9372
 11
-39.6252
 21
-81.9646
  0
LINE
  8
0
 10
-39.6252
 20
-81.9646
 11
-39.7493
 21
-81.9842
  0
LINE
  8
0
 10
-39.7493
 20
-81.9842
 11
-39.8744
 21
-81.996
  0
LINE
  8
0
 10
-39.8744
 20
-81.996
 11
-40
 21
-82
  0
LINE
  8
0
 10
-40
 20
-82
 11
-40.1256
 21
-81.996
  0
LINE
  8
0
 10
39.8744
 20
-81.996
 11
39.7493
 21
-81.9842
  0
LINE
  8
0
 10
39.7493
 20
-81.9842
 11
39.6252
 21
-81.9646
  0
LINE
  8
0
 10
39.6252
 20
-81.9646
 11
39.5026
 21
-81.9372
  0
LINE
  8
0
 10
39.5026
 20
-81.9372
 11
39.382
 21
-81.9021
  0
LINE
  8
0
 10
39.382
 20
-81.9021
 11
39.2637
 21
-81.8595
  0
LINE
  8
0
 10
39.2637
 20
-81.8595
 11
39.1484
 21
-81.8096
  0
LINE
  8
0
 10
39.1484
 20
-81.8096
 11
39.0365
 21
-81.7526
  0
LINE
  8
0
 10
39.0365
 20
-81.7526
 11
38.9283
 21
-81.6886
  0
LINE
  8
0
 10
38.9283
 20
-81.6886
 11
38.8244
 21
-81.618
  0
LINE
  8
0
 10
38.8244
 20
-81.618
 11
38.7251
 21
-81.541
  0
LINE
  8
0
 10
38.7251
 20
-81.541
 11
38.6309
 21
-81.4579
  0
LINE
  8
0
 10
38.6309
 20
-81.4579
 11
38.5421
 21
-81.3691
  0
LINE
  8
0
 10
38.5421
 20
-81.3691
 11
38.459
 21
-81.2748
  0
LINE
  8
0
 10
38.459
 20
-81.2748
 11
38.382
 21
-81.1756
  0
LINE
  8
0
 10
38.382
 20
-81.1756
 11
38.3113
 21
-81.0716
  0
LINE
  8
0
 10
38.3113
 20
-81.0716
 11
38.2474
 21
-80.9635
  0
LINE
  8
0
 10
38.2474
 20
-80.9635
 11
38.1903
 21
-80.8515
  0
LINE
  8
0
 10
38.1903
 20
-80.8515
 11
38.1404
 21
-80.7362
  0
LINE
  8
0
 10
38.1404
 20
-80.7362
 11
38.0979
 21
-80.618
  0
LINE
  8
0
 10
38.0979
 20
-80.618
 11
38.0628
 21
-80.4974
  0
LINE
  8
0
 10
38.0628
 20
-80.4974
 11
38.0354
 21
-80.3748
  0
LINE
  8
0
 10
38.0354
 20
-80.3748
 11
38.0158
 21
-80.2507
  0
LINE
  8
0
 10
38.0158
 20
-80.2507
 11
38.0039
 21
-80.1256
  0
LINE
  8
0
 10
38.0039
 20
-80.1256
 11
38
 21
-80
  0
LINE
  8
0
 10
38
 20
-80
 11
38.0039
 21
-79.8744
  0
LINE
  8
0
 10
38.0039
 20
-79.8744
 11
38.0158
 21
-79.7493
  0
LINE
  8
0
 10
38.0158
 20
-79.7493
 11
38.0354
 21
-79.6252
  0
LINE
  8
0
 10
38.0354
 20
-79.6252
 11
38.0628
 21
-79.5026
  0
LINE
  8
0
 10
38.0628
 20
-79.5026
 11
38.0979
 21
-79.382
  0
LINE
  8
0
 10
38.0979
 20
-79.382
 11
38.1404
 21
-79.2638
  0
LINE
  8
0
 10
38.1404
 20
-79.2638
 11
38.1903
 21
-79.1485
  0
LINE
  8
0
 10
38.1903
 20
-79.1485
 11
38.2474
 21
-79.0365
  0
LINE
  8
0
 10
38.2474
 20
-79.0365
 11
38.3113
 21
-78.9284
  0
LINE
  8
0
 10
38.3113
 20
-78.9284
 11
38.382
 21
-78.8244
  0
LINE
  8
0
 10
38.382
 20
-78.8244
 11
38.459
 21
-78.7252
  0
LINE
  8
0
 10
38.459
 20
-78.7252
 11
38.5421
 21
-78.6309
  0
LINE
  8
0
 10
38.5421
 20
-78.6309
 11
38.6309
 21
-78.5421
  0
LINE
  8
0
 10
38.6309
 20
-78.5421
 11
38.7251
 21
-78.459
  0
LINE
  8
0
 10
38.7251
 20
-78.459
 11
38.8244
 21
-78.382
  0
LINE
  8
0
 10
38.8244
 20
-78.382
 11
38.9283
 21
-78.3114
  0
LINE
  8
0
 10
38.9283
 20
-78.3114
 11
39.0365
 21
-78.2474
  0
LINE
  8
0
 10
39.0365
 20
-78.2474
 11
39.1484
 21
-78.1904
  0
LINE
  8
0
 10
39.1484
 20
-78.1904
 11
39.2637
 21
-78.1405
  0
LINE
  8
0
 10
39.2637
 20
-78.1405
 11
39.382
 21
-78.0979
  0
LINE
  8
0
 10
39.382
 20
-78.0979
 11
39.5026
 21
-78.0628
  0
LINE
  8
0
 10
39.5026
 20
-78.0628
 11
39.6252
 21
-78.0354
  0
LINE
  8
0
 10
39.6252
 20
-78.0354
 11
39.7493
 21
-78.0158
  0
LINE
  8
0
 10
39.7493
 20
-78.0158
 11
39.8744
 21
-78.004
  0
LINE
  8
0
 10
39.8744
 20
-78.004
 11
40
 21
-78
  0
LINE
  8
0
 10
40
 20
-78
 11
40.1256
 21
-78.004
  0
LINE
  8
0
 10
40.1256
 20
-78.004
 11
40.2507
 21
-78.0158
  0
LINE
  8
0
 10
40.2507
 20
-78.0158
 11
40.3748
 21
-78.0354
  0
LINE
  8
0
 10
40.3748
 20
-78.0354
 11
40.4974
 21
-78.0628
  0
LINE
  8
0
 10
40.4974
 20
-78.0628
 11
40.618
 21
-78.0979
  0
LINE
  8
0
 10
40.618
 20
-78.0979
 11
40.7362
 21
-78.1405
  0
LINE
  8
0
 10
40.7362
 20
-78.1405
 11
40.8515
 21
-78.1904
  0
LINE
  8
0
 10
40.8515
 20
-78.1904
 11
40.9635
 21
-78.2474
  0
LINE
  8
0
 10
40.9635
 20
-78.2474
 11
41.0716
 21
-78.3114
  0
LINE
  8
0
 10
41.0716
 20
-78.3114
 11
41.1756
 21
-78.382
  0
LINE
  8
0
 10
41.1756
 20
-78.382
 11
41.2748
 21
-78.459
  0
LINE
  8
0
 10
41.2748
 20
-78.459
 11
41.3691
 21
-78.5421
  0
LINE
  8
0
 10
41.3691
 20
-78.5421
 11
41.4579
 21
-78.6309
  0
LINE
  8
0
 10
41.4579
 20
-78.6309
 11
41.541
 21
-78.7252
  0
LINE
  8
0
 10
41.541
 20
-78.7252
 11
41.618
 21
-78.8244
  0
LINE
  8
0
 10
41.618
 20
-78.8244
 11
41.6886
 21
-78.9284
  0
LINE
  8
0
 10
41.6886
 20
-78.9284
 11
41.7526
 21
-79.0365
  0
LINE
  8
0
 10
41.7526
 20
-79.0365
 11
41.8096
 21
-79.1485
  0
LINE
  8
0
 10
41.8096
 20
-79.1485
 11
41.8595
 21
-79.2638
  0
LINE
  8
0
 10
41.8595
 20
-79.2638
 11
41.9021
 21
-79.382
  0
LINE
  8
0
 10
41.9021
 20
-79.382
 11
41.9372
 21
-79.5026
  0
LINE
  8
0
 10
41.9372
 20
-79.5026
 11
41.9646
 21
-79.6252
  0
LINE
  8
0
 10
41.9646
 20
-79.6252
 11
41.9842
 21
-79.7493
  0
LINE
  8
0
 10
41.9842
 20
-79.7493
 11
41.996
 21
-79.8744
  0
LINE
  8
0
 10
41.996
 20
-79.8744
 11
42
 21
-80
  0
LINE
  8
0
 10
42
 20
-80
 11
41.996
 21
-80.1256
  0
LINE
  8
0
 10
41.996
 20
-80.1256
 11
41.9842
 21
-80.2507
  0
LINE
  8
0
 10
41.9842
 20
-80.2507
 11
41.9646
 21
-80.3748
  0
LINE
  8
0
 10
41.9646
 20
-80.3748
 11
41.9372
 21
-80.4974
  0
LINE
  8
0
 10
41.9372
 20
-80.4974
 11
41.9021
 21
-80.618
  0
LINE
  8
0
 10
41.9021
 20
-80.618
 11
41.8595
 21
-80.7362
  0
LINE
  8
0
 10
41.8595
 20
-80.7362
 11
41.8096
 21
-80.8515
  0
LINE
  8
0
 10
41.8096
 20
-80.8515
 11
41.7526
 21
-80.9635
  0
LINE
  8
0
 10
41.7526
 20
-80.9635
 11
41.6886
 21
-81.0716
  0
LINE
  8
0
 10
41.6886
 20
-81.0716
 11
41.618
 21
-81.1756
  0
LINE
  8
0
 10
41.618
 20
-81.1756
 11
41.541
 21
-81.2748
  0
LINE
  8
0
 10
41.541
 20
-81.2748
 11
41.4579
 21
-81.3691
  0
LINE
  8
0
 10
41.4579
 20
-81.3691
 11
41.3691
 21
-81.4579
  0
LINE
  8
0
 10
41.3691
 20
-81.4579
 11
41.2748
 21
-81.541
  0
LINE
  8
0
 10
41.2748
 20
-81.541
 11
41.1756
 21
-81.618
  0
LINE
  8
0
 10
41.1756
 20
-81.618
 11
41.0716
 21
-81.6886
  0
LINE
  8
0
 10
41.0716
 20
-81.6886
 11
40.9635
 21
-81.7526
  0
LINE
  8
0
 10
40.9635
 20
-81.7526
 11
40.8515
 21
-81.8096
  0
LINE
  8
0
 10
40.8515
 20
-81.8096
 11
40.7362
 21
-81.8595
  0
LINE
  8
0
 10
40.7362
 20
-81.8595
 11
40.618
 21
-81.9021
  0
LINE
  8
0
 10
40.618
 20
-81.9021
 11
40.4974
 21
-81.9372
  0
LINE
  8
0
 10
40.4974
 20
-81.9372
 11
40.3748
 21
-81.9646
  0
LINE
  8
0
 10
40.3748
 20
-81.9646
 11
40.2507
 21
-81.9842
  0
LINE
  8
0
 10
40.2507
 20
-81.9842
 11
40.1256
 21
-81.996
  0
LINE
  8
0
 10
40.1256
 20
-81.996
 11
40
 21
-82
  0
LINE
  8
0
 10
40
 20
-82
 11
39.8744
 21
-81.996
  0
LINE
  8
0
 10
-80.1256
 20
-81.996
 11
-80.2507
 21
-81.9842
  0
LINE
  8
0
 10
-80.2507
 20
-81.9842
 11
-80.3748
 21
-81.9646
  0
LINE
  8
0
 10
-80.3748
 20
-81.9646
 11
-80.4974
 21
-81.9372
  0
LINE
  8
0
 10
-80.4974
 20
-81.9372
 11
-80.618
 21
-81.9021
  0
LINE
  8
0
 10
-80.618
 20
-81.9021
 11
-80.7362
 21
-81.8595
  0
LINE
  8
0
 10
-80.7362
 20
-81.8595
 11
-80.8515
 21
-81.8096
  0
LINE
  8
0
 10
-80.8515
 20
-81.8096
 11
-80.9635
 21
-81.7526
  0
LINE
  8
0
 10
-80.9635
 20
-81.7526
 11
-81.0716
 21
-81.6886
  0
LINE
  8
0
 10
-81.0716
 20
-81.6886
 11
-81.1756
 21
-81.618
  0
LINE
  8
0
 10
-81.1756
 20
-81.618
 11
-81.2748
 21
-81.541
  0
LINE
  8
0
 10
-81.2748
 20
-81.541
 11
-81.3691
 21
-81.4579
  0
LINE
  8
0
 10
-81.3691
 20
-81.4579
 11
-81.4579
 21
-81.3691
  0
LINE
  8
0
 10
-81.4579
 20
-81.3691
 11
-81.541
 21
-81.2748
  0
LINE
  8
0
 10
-81.541
 20
-81.2748
 11
-81.618
 21
-81.1756
  0
LINE
  8
0
 10
-81.618
 20
-81.1756
 11
-81.6886
 21
-81.0716
  0
LINE
  8
0
 10
-81.6886
 20
-81.0716
 11
-81.7526
 21
-80.9635
  0
LINE
  8
0
 10
-81.7526
 20
-80.9635
 11
-81.8096
 21
-80.8515
  0
LINE
  8
0
 10
-81.8096
 20
-80.8515
 11
-81.8595
 21
-80.7362
  0
LINE
  8
0
 10
-81.8595
 20
-80.7362
 11
-81.9021
 21
-80.618
  0
LINE
  8
0
 10
-81.9021
 20
-80.618
 11
-81.9372
 21
-80.4974
  0
LINE
  8
0
 10
-81.9372
 20
-80.4974
 11
-81.9646
 21
-80.3748
  0
LINE
  8
0
 10
-81.9646
 20
-80.3748
 11
-81.9842
 21
-80.2507
  0
LINE
  8
0
 10
-81.9842
 20
-80.2507
 11
-81.996
 21
-80.1256
  0
LINE
  8
0
 10
-81.996
 20
-80.1256
 11
-82
 21
-80
  0
LINE
  8
0
 10
-82
 20
-80
 11
-81.996
 21
-79.8744
  0
LINE
  8
0
 10
-81.996
 20
-79.8744
 11
-81.9842
 21
-79.7493
  0
LINE
  8
0
 10
-81.9842
 20
-79.7493
 11
-81.9646
 21
-79.6252
  0
LINE
  8
0
 10
-81.9646
 20
-79.6252
 11
-81.9372
 21
-79.5026
  0
LINE
  8
0
 10
-81.9372
 20
-79.5026
 11
-81.9021
 21
-79.382
  0
LINE
  8
0
 10
-81.9021
 20
-79.382
 11
-81.8595
 21
-79.2638
  0
LINE
  8
0
 10
-81.8595
 20
-79.2638
 11
-81.8096
 21
-79.1485
  0
LINE
  8
0
 10
-81.8096
 20
-79.1485
 11
-81.7526
 21
-79.0365
  0
LINE
  8
0
 10
-81.7526
 20
-79.0365
 11
-81.6886
 21
-78.9284
  0
LINE
  8
0
 10
-81.6886
 20
-78.9284
 11
-81.618
 21
-78.8244
  0
LINE
  8
0
 10
-81.618
 20
-78.8244
 11
-81.541
 21
-78.7252
  0
LINE
  8
0
 10
-81.541
 20
-78.7252
 11
-81.4579
 21
-78.6309
  0
LINE
  8
0
 10
-81.4579
 20
-78.6309
 11
-81.3691
 21
-78.5421
  0
LINE
  8
0
 10
-81.3691
 20
-78.5421
 11
-81.2748
 21
-78.459
  0
LINE
  8
0
 10
-81.2748
 20
-78.459
 11
-81.1756
 21
-78.382
  0
LINE
  8
0
 10
-81.1756
 20
-78.382
 11
-81.0716
 21
-78.3114
  0
LINE
  8
0
 10
-81.0716
 20
-78.3114
 11
-80.9635
 21
-78.2474
  0
LINE
  8
0
 10
-80.9635
 20
-78.2474
 11
-80.8515
 21
-78.1904
  0
LINE
  8
0
 10
-80.8515
 20
-78.1904
 11
-80.7362
 21
-78.1405
  0
LINE
  8
0
 10
-80.7362
 20
-78.1405
 11
-80.618
 21
-78.0979
  0
LINE
  8
0
 10
-80.618
 20
-78.0979
 11
-80.4974
 21
-78.0628
  0
LINE
  8
0
 10
-80.4974
 20
-78.0628
 11
-80.3748
 21
-78.0354
  0
LINE
  8
0
 10
-80.3748
 20
-78.0354
 11
-80.2507
 21
-78.0158
  0
LINE
  8
0
 10
-80.2507
 20
-78.0158
 11
-80.1256
 21
-78.004
  0
LINE
  8
0
 10
-80.1256
 20
-78.004
 11
-80
 21
-78
  0
LINE
  8
0
 10
-80
 20
-78
 11
-79.8744
 21
-78.004
  0
LINE
  8
0
 10
-79.8744
 20
-78.004
 11
-79.7493
 21
-78.0158
  0
LINE
  8
0
 10
-79.7493
 20
-78.0158
 11
-79.6252
 21
-78.0354
  0
LINE
  8
0
 10
-79.6252
 20
-78.0354
 11
-79.5026
 21
-78.0628
  0
LINE
  8
0
 10
-79.5026
 20
-78.0628
 11
-79.382
 21
-78.0979
  0
LINE
  8
0
 10
-79.382
 20
-78.0979
 11
-79.2638
 21
-78.1405
  0
LINE
  8
0
 10
-79.2638
 20
-78.1405
 11
-79.1485
 21
-78.1904
  0
LINE
  8
0
 10
-79.1485
 20
-78.1904
 11
-79.0365
 21
-78.2474
  0
LINE
  8
0
 10
-79.0365
 20
-78.2474
 11
-78.9284
 21
-78.3114
  0
LINE
  8
0
 10
-78.9284
 20
-78.3114
 11
-78.8244
 21
-78.382
  0
LINE
  8
0
 10
-78.8244
 20
-78.382
 11
-78.7252
 21
-78.459
  0
LINE
  8
0
 10
-78.7252
 20
-78.459
 11
-78.6309
 21
-78.5421
  0
LINE
  8
0
 10
-78.6309
 20
-78.5421
 11
-78.5421
 21
-78.6309
  0
LINE
  8
0
 10
-78.5421
 20
-78.6309
 11
-78.459
 21
-78.7252
  0
LINE
  8
0
 10
-78.459
 20
-78.7252
 11
-78.382
 21
-78.8244
  0
LINE
  8
0
 10
-78.382
 20
-78.8244
 11
-78.3114
 21
-78.9284
  0
LINE
  8
0
 10
-78.3114
 20
-78.9284
 11
-78.2474
 21
-79.0365
  0
LINE
  8
0
 10
-78.2474
 20
-79.0365
 11
-78.1904
 21
-79.1485
  0
LINE
  8
0
 10
-78.1904
 20
-79.1485
 11
-78.1405
 21
-79.2638
  0
LINE
  8
0
 10
-78.1405
 20
-79.2638
 11
-78.0979
 21
-79.382
  0
LINE
  8
0
 10
-78.0979
 20
-79.382
 11
-78.0628
 21
-79.5026
  0
LINE
  8
0
 10
-78.0628
 20
-79.5026
 11
-78.0354
 21
-79.6252
  0
LINE
  8
0
 10
-78.0354
 20
-79.6252
 11
-78.0158
 21
-79.7493
  0
LINE
  8
0
 10
-78.0158
 20
-79.7493
 11
-78.004
 21
-79.8744
  0
LINE
  8
0
 10
-78.004
 20
-79.8744
 11
-78
 21
-80
  0
LINE
  8
0
 10
-78
 20
-80
 11
-78.004
 21
-80.1256
  0
LINE
  8
0
 10
-78.004
 20
-80.1256
 11
-78.0158
 21
-80.2507
  0
LINE
  8
0
 10
-78.0158
 20
-80.2507
 11
-78.0354
 21
-80.3748
  0
LINE
  8
0
 10
-78.0354
 20
-80.3748
 11
-78.0628
 21
-80.4974
  0
LINE
  8
0
 10
-78.0628
 20
-80.4974
 11
-78.0979
 21
-80.618
  0
LINE
  8
0
 10
-78.0979
 20
-80.618
 11
-78.1405
 21
-80.7362
  0
LINE
  8
0
 10
-78.1405
 20
-80.7362
 11
-78.1904
 21
-80.8515
  0
LINE
  8
0
 10
-78.1904
 20
-80.8515
 11
-78.2474
 21
-80.9635
  0
LINE
  8
0
 10
-78.2474
 20
-80.9635
 11
-78.3114
 21
-81.0716
  0
LINE
  8
0
 10
-78.3114
 20
-81.0716
 11
-78.382
 21
-81.1756
  0
LINE
  8
0
 10
-78.382
 20
-81.1756
 11
-78.459
 21
-81.2748
  0
LINE
  8
0
 10
-78.459
 20
-81.2748
 11
-78.5421
 21
-81.3691
  0
LINE
  8
0
 10
-78.5421
 20
-81.3691
 11
-78.6309
 21
-81.4579
  0
LINE
  8
0
 10
-78.6309
 20
-81.4579
 11
-78.7252
 21
-81.541
  0
LINE
  8
0
 10
-78.7252
 20
-81.541
 11
-78.8244
 21
-81.618
  0
LINE
  8
0
 10
-78.8244
 20
-81.618
 11
-78.9284
 21
-81.6886
  0
LINE
  8
0
 10
-78.9284
 20
-81.6886
 11
-79.0365
 21
-81.7526
  0
LINE
  8
0
 10
-79.0365
 20
-81.7526
 11
-79.1485
 21
-81.8096
  0
LINE
  8
0
 10
-79.1485
 20
-81.8096
 11
-79.2638
 21
-81.8595
  0
LINE
  8
0
 10
-79.2638
 20
-81.8595
 11
-79.382
 21
-81.9021
  0
LINE
  8
0
 10
-79.382
 20
-81.9021
 11
-79.5026
 21
-81.9372
  0
LINE
  8
0
 10
-79.5026
 20
-81.9372
 11
-79.6252
 21
-81.9646
  0
LINE
  8
0
 10
-79.6252
 20
-81.9646
 11
-79.7493
 21
-81.9842
  0
LINE
  8
0
 10
-79.7493
 20
-81.9842
 11
-79.8744
 21
-81.996
  0
LINE
  8
0
 10
-79.8744
 20
-81.996
 11
-80
 21
-82
  0
LINE
  8
0
 10
-80
 20
-82
 11
-80.1256
 21
-81.996
  0
LINE
  8
0
 10
79.8744
 20
-81.996
 11
79.7493
 21
-81.9842
  0
LINE
  8
0
 10
79.7493
 20
-81.9842
 11
79.6252
 21
-81.9646
  0
LINE
  8
0
 10
79.6252
 20
-81.9646
 11
79.5026
 21
-81.9372
  0
LINE
  8
0
 10
79.5026
 20
-81.9372
 11
79.382
 21
-81.9021
  0
LINE
  8
0
 10
79.382
 20
-81.9021
 11
79.2637
 21
-81.8595
  0
LINE
  8
0
 10
79.2637
 20
-81.8595
 11
79.1484
 21
-81.8096
  0
LINE
  8
0
 10
79.1484
 20
-81.8096
 11
79.0365
 21
-81.7526
  0
LINE
  8
0
 10
79.0365
 20
-81.7526
 11
78.9283
 21
-81.6886
  0
LINE
  8
0
 10
78.9283
 20
-81.6886
 11
78.8244
 21
-81.618
  0
LINE
  8
0
 10
78.8244
 20
-81.618
 11
78.7251
 21
-81.541
  0
LINE
  8
0
 10
78.7251
 20
-81.541
 11
78.6309
 21
-81.4579
  0
LINE
  8
0
 10
78.6309
 20
-81.4579
 11
78.5421
 21
-81.3691
  0
LINE
  8
0
 10
78.5421
 20
-81.3691
 11
78.459
 21
-81.2748
  0
LINE
  8
0
 10
78.459
 20
-81.2748
 11
78.382
 21
-81.1756
  0
LINE
  8
0
 10
78.382
 20
-81.1756
 11
78.3113
 21
-81.0716
  0
LINE
  8
0
 10
78.3113
 20
-81.0716
 11
78.2474
 21
-80.9635
  0
LINE
  8
0
 10
78.2474
 20
-80.9635
 11
78.1903
 21
-80.8515
  0
LINE
  8
0
 10
78.1903
 20
-80.8515
 11
78.1404
 21
-80.7362
  0
LINE
  8
0
 10
78.1404
 20
-80.7362
 11
78.0979
 21
-80.618
  0
LINE
  8
0
 10
78.0979
 20
-80.618
 11
78.0628
 21
-80.4974
  0
LINE
  8
0
 10
78.0628
 20
-80.4974
 11
78.0354
 21
-80.3748
  0
LINE
  8
0
 10
78.0354
 20
-80.3748
 11
78.0158
 21
-80.2507
  0
LINE
  8
0
 10
78.0158
 20
-80.2507
 11
78.0039
 21
-80.1256
  0
LINE
  8
0
 10
78.0039
 20
-80.1256
 11
78
 21
-80
  0
LINE
  8
0
 10
78
 20
-80
 11
78.0039
 21
-79.8744
  0
LINE
  8
0
 10
78.0039
 20
-79.8744
 11
78.0158
 21
-79.7493
  0
LINE
  8
0
 10
78.0158
 20
-79.7493
 11
78.0354
 21
-79.6252
  0
LINE
  8
0
 10
78.0354
 20
-79.6252
 11
78.0628
 21
-79.5026
  0
LINE
  8
0
 10
78.0628
 20
-79.5026
 11
78.0979
 21
-79.382
  0
LINE
  8
0
 10
78.0979
 20
-79.382
 11
78.1404
 21
-79.2638
  0
LINE
  8
0
 10
78.1404
 20
-79.2638
 11
78.1903
 21
-79.1485
  0
LINE
  8
0
 10
78.1903
 20
-79.1485
 11
78.2474
 21
-79.0365
  0
LINE
  8
0
 10
78.2474
 20
-79.0365
 11
78.3113
 21
-78.9284
  0
LINE
  8
0
 10
78.3113
 20
-78.9284
 11
78.382
 21
-78.8244
  0
LINE
  8
0
 10
78.382
 20
-78.8244
 11
78.459
 21
-78.7252
  0
LINE
  8
0
 10
78.459
 20
-78.7252
 11
78.5421
 21
-78.6309
  0
LINE
  8
0
 10
78.5421
 20
-78.6309
 11
78.6309
 21
-78.5421
  0
LINE
  8
0
 10
78.6309
 20
-78.5421
 11
78.7251
 21
-78.459
  0
LINE
  8
0
 10
78.7251
 20
-78.459
 11
78.8244
 21
-78.382
  0
LINE
  8
0
 10
78.8244
 20
-78.382
 11
78.9283
 21
-78.3114
  0
LINE
  8
0
 10
78.9283
 20
-78.3114
 11
79.0365
 21
-78.2474
  0
LINE
  8
0
 10
79.0365
 20
-78.2474
 11
79.1484
 21
-78.1904
  0
LINE
  8
0
 10
79.1484
 20
-78.1904
 11
79.2637
 21
-78.1405
  0
LINE
  8
0
 10
79.2637
 20
-78.1405
 11
79.382
 21
-78.0979
  0
LINE
  8
0
 10
79.382
 20
-78.0979
 11
79.5026
 21
-78.0628
  0
LINE
  8
0
 10
79.5026
 20
-78.0628
 11
79.6252
 21
-78.0354
  0
LINE
  8
0
 10
79.6252
 20
-78.0354
 11
79.7493
 21
-78.0158
  0
LINE
  8
0
 10
79.7493
 20
-78.0158
 11
79.8744
 21
-78.004
  0
LINE
  8
0
 10
79.8744
 20
-78.004
 11
80
 21
-78
  0
LINE
  8
0
 10
80
 20
-78
 11
80.1256
 21
-78.004
  0
LINE
  8
0
 10
80.1256
 20
-78.004
 11
80.2507
 21
-78.0158
  0
LINE
  8
0
 10
80.2507
 20
-78.0158
 11
80.3748
 21
-78.0354
  0
LINE
  8
0
 10
80.3748
 20
-78.0354
 11
80.4974
 21
-78.0628
  0
LINE
  8
0
 10
80.4974
 20
-78.0628
 11
80.618
 21
-78.0979
  0
LINE
  8
0
 10
80.618
 20
-78.0979
 11
80.7362
 21
-78.1405
  0
LINE
  8
0
 10
80.7362
 20
-78.1405
 11
80.8515
 21
-78.1904
  0
LINE
  8
0
 10
80.8515
 20
-78.1904
 11
80.9635
 21
-78.2474
  0
LINE
  8
0
 10
80.9635
 20
-78.2474
 11
81.0716
 21
-78.3114
  0
LINE
  8
0
 10
81.0716
 20
-78.3114
 11
81.1756
 21
-78.382
  0
LINE
  8
0
 10
81.1756
 20
-78.382
 11
81.2748
 21
-78.459
  0
LINE
  8
0
 10
81.2748
 20
-78.459
 11
81.3691
 21
-78.5421
  0
LINE
  8
0
 10
81.3691
 20
-78.5421
 11
81.4579
 21
-78.6309
  0
LINE
  8
0
 10
81.4579
 20
-78.6309
 11
81.541
 21
-78.7252
  0
LINE
  8
0
 10
81.541
 20
-78.7252
 11
81.618
 21
-78.8244
  0
LINE
  8
0
 10
81.618
 20
-78.8244
 11
81.6886
 21
-78.9284
  0
LINE
  8
0
 10
81.6886
 20
-78.9284
 11
81.7526
 21
-79.0365
  0
LINE
  8
0
 10
81.7526
 20
-79.0365
 11
81.8096
 21
-79.1485
  0
LINE
  8
0
 10
81.8096
 20
-79.1485
 11
81.8595
 21
-79.2638
  0
LINE
  8
0
 10
81.8595
 20
-79.2638
 11
81.9021
 21
-79.382
  0
LINE
  8
0
 10
81.9021
 20
-79.382
 11
81.9372
 21
-79.5026
  0
LINE
  8
0
 10
81.9372
 20
-79.5026
 11
81.9646
 21
-79.6252
  0
LINE
  8
0
 10
81.9646
 20
-79.6252
 11
81.9842
 21
-79.7493
  0
LINE
  8
0
 10
81.9842
 20
-79.7493
 11
81.996
 21
-79.8744
  0
LINE
  8
0
 10
81.996
 20
-79.8744
 11
82
 21
-80
  0
LINE
  8
0
 10
82
 20
-80
 11
81.996
 21
-80.1256
  0
LINE
  8
0
 10
81.996
 20
-80.1256
 11
81.9842
 21
-80.2507
  0
LINE
  8
0
 10
81.9842
 20
-80.2507
 11
81.9646
 21
-80.3748
  0
LINE
  8
0
 10
81.9646
 20
-80.3748
 11
81.9372
 21
-80.4974
  0
LINE
  8
0
 10
81.9372
 20
-80.4974
 11
81.9021
 21
-80.618
  0
LINE
  8
0
 10
81.9021
 20
-80.618
 11
81.8595
 21
-80.7362
  0
LINE
  8
0
 10
81.8595
 20
-80.7362
 11
81.8096
 21
-80.8515
  0
LINE
  8
0
 10
81.8096
 20
-80.8515
 11
81.7526
 21
-80.9635
  0
LINE
  8
0
 10
81.7526
 20
-80.9635
 11
81.6886
 21
-81.0716
  0
LINE
  8
0
 10
81.6886
 20
-81.0716
 11
81.618
 21
-81.1756
  0
LINE
  8
0
 10
81.618
 20
-81.1756
 11
81.541
 21
-81.2748
  0
LINE
  8
0
 10
81.541
 20
-81.2748
 11
81.4579
 21
-81.3691
  0
LINE
  8
0
 10
81.4579
 20
-81.3691
 11
81.3691
 21
-81.4579
  0
LINE
  8
0
 10
81.3691
 20
-81.4579
 11
81.2748
 21
-81.541
  0
LINE
  8
0
 10
81.2748
 20
-81.541
 11
81.1756
 21
-81.618
  0
LINE
  8
0
 10
81.1756
 20
-81.618
 11
81.0716
 21
-81.6886
  0
LINE
  8
0
 10
81.0716
 20
-81.6886
 11
80.9635
 21
-81.7526
  0
LINE
  8
0
 10
80.9635
 20
-81.7526
 11
80.8515
 21
-81.8096
  0
LINE
  8
0
 10
80.8515
 20
-81.8096
 11
80.7362
 21
-81.8595
  0
LINE
  8
0
 10
80.7362
 20
-81.8595
 11
80.618
 21
-81.9021
  0
LINE
  8
0
 10
80.618
 20
-81.9021
 11
80.4974
 21
-81.9372
  0
LINE
  8
0
 10
80.4974
 20
-81.9372
 11
80.3748
 21
-81.9646
  0
LINE
  8
0
 10
80.3748
 20
-81.9646
 11
80.2507
 21
-81.9842
  0
LINE
  8
0
 10
80.2507
 20
-81.9842
 11
80.1256
 21
-81.996
  0
LINE
  8
0
 10
80.1256
 20
-81.996
 11
80
 21
-82
  0
LINE
  8
0
 10
80
 20
-82
 11
79.8744
 21
-81.996
  0
LINE
  8
0
 10
-15.5
 20
-117.5
 11
-15.5
 21
-97.5
  0
LINE
  8
0
 10
-15.5
 20
-97.5
 11
-9.5
 21
-97.5
  0
LINE
  8
0
 10
-9.5
 20
-97.5
 11
-9.5
 21
-117.5
  0
LINE
  8
0
 10
-9.5
 20
-117.5
 11
-15.5
 21
-117.5
  0
LINE
  8
0
 10
9.5
 20
-117.5
 11
9.5
 21
-97.5
  0
LINE
  8
0
 10
9.5
 20
-97.5
 11
15.5
 21
-97.5
  0
LINE
  8
0
 10
15.5
 20
-97.5
 11
15.5
 21
-117.5
  0
LINE
  8
0
 10
15.5
 20
-117.5
 11
9.5
 21
-117.5
  0
ENDSEC
  0
SECTION
  2
OBJECTS
  0
DICTIONARY
  0
ENDSEC
  0
EOF
