  0
SECTION
  2
BLOCKS
  0
ENDSEC
  0
SECTION
  2
ENTITIES
  0
LINE
  8
0
 10
75
 20
41
 11
-50
 21
41
  0
LINE
  8
0
 10
-50
 20
41
 11
-50
 21
67
  0
LINE
  8
0
 10
-50
 20
67
 11
-70
 21
67
  0
LINE
  8
0
 10
-70
 20
67
 11
-70
 21
41
  0
LINE
  8
0
 10
-70
 20
41
 11
-85
 21
41
  0
LINE
  8
0
 10
-85
 20
41
 11
-85
 21
-41
  0
LINE
  8
0
 10
-85
 20
-41
 11
75
 21
-41
  0
LINE
  8
0
 10
75
 20
-41
 11
75
 21
41
  0
LINE
  8
0
 10
-60.2512
 20
53.0079
 11
-60.5013
 21
53.0315
  0
LINE
  8
0
 10
-60.5013
 20
53.0315
 11
-60.7495
 21
53.0708
  0
LINE
  8
0
 10
-60.7495
 20
53.0708
 11
-60.9948
 21
53.1257
  0
LINE
  8
0
 10
-60.9948
 20
53.1257
 11
-61.2361
 21
53.1958
  0
LINE
  8
0
 10
-61.2361
 20
53.1958
 11
-61.4725
 21
53.2809
  0
LINE
  8
0
 10
-61.4725
 20
53.2809
 11
-61.7031
 21
53.3807
  0
LINE
  8
0
 10
-61.7031
 20
53.3807
 11
-61.927
 21
53.4948
  0
LINE
  8
0
 10
-61.927
 20
53.4948
 11
-62.1433
 21
53.6227
  0
LINE
  8
0
 10
-62.1433
 20
53.6227
 11
-62.3511
 21
53.7639
  0
LINE
  8
0
 10
-62.3511
 20
53.7639
 11
-62.5497
 21
53.9179
  0
LINE
  8
0
 10
-62.5497
 20
53.9179
 11
-62.7382
 21
54.0841
  0
LINE
  8
0
 10
-62.7382
 20
54.0841
 11
-62.9159
 21
54.2618
  0
LINE
  8
0
 10
-62.9159
 20
54.2618
 11
-63.082
 21
54.4503
  0
LINE
  8
0
 10
-63.082
 20
54.4503
 11
-63.2361
 21
54.6488
  0
LINE
  8
0
 10
-63.2361
 20
54.6488
 11
-63.3773
 21
54.8567
  0
LINE
  8
0
 10
-63.3773
 20
54.8567
 11
-63.5052
 21
55.073
  0
LINE
  8
0
 10
-63.5052
 20
55.073
 11
-63.6193
 21
55.2969
  0
LINE
  8
0
 10
-63.6193
 20
55.2969
 11
-63.7191
 21
55.5275
  0
LINE
  8
0
 10
-63.7191
 20
55.5275
 11
-63.8042
 21
55.7639
  0
LINE
  8
0
 10
-63.8042
 20
55.7639
 11
-63.8743
 21
56.0052
  0
LINE
  8
0
 10
-63.8743
 20
56.0052
 11
-63.9291
 21
56.2505
  0
LINE
  8
0
 10
-63.9291
 20
56.2505
 11
-63.9684
 21
56.4987
  0
LINE
  8
0
 10
-63.9684
 20
56.4987
 11
-63.9921
 21
56.7488
  0
LINE
  8
0
 10
-63.9921
 20
56.7488
 11
-64
 21
57
  0
LINE
  8
0
 10
-64
 20
57
 11
-63.9921
 21
57.2512
  0
LINE
  8
0
 10
-63.9921
 20
57.2512
 11
-63.9684
 21
57.5013
  0
LINE
  8
0
 10
-63.9684
 20
57.5013
 11
-63.9291
 21
57.7495
  0
LINE
  8
0
 10
-63.9291
 20
57.7495
 11
-63.8743
 21
57.9948
  0
LINE
  8
0
 10
-63.8743
 20
57.9948
 11
-63.8042
 21
58.2361
  0
LINE
  8
0
 10
-63.8042
 20
58.2361
 11
-63.7191
 21
58.4725
  0
LINE
  8
0
 10
-63.7191
 20
58.4725
 11
-63.6193
 21
58.7031
  0
LINE
  8
0
 10
-63.6193
 20
58.7031
 11
-63.5052
 21
58.927
  0
LINE
  8
0
 10
-63.5052
 20
58.927
 11
-63.3773
 21
59.1433
  0
LINE
  8
0
 10
-63.3773
 20
59.1433
 11
-63.2361
 21
59.3511
  0
LINE
  8
0
 10
-63.2361
 20
59.3511
 11
-63.082
 21
59.5497
  0
LINE
  8
0
 10
-63.082
 20
59.5497
 11
-62.9159
 21
59.7382
  0
LINE
  8
0
 10
-62.9159
 20
59.7382
 11
-62.7382
 21
59.9159
  0
LINE
  8
0
 10
-62.7382
 20
59.9159
 11
-62.5497
 21
60.082
  0
LINE
  8
0
 10
-62.5497
 20
60.082
 11
-62.3511
 21
60.2361
  0
LINE
  8
0
 10
-62.3511
 20
60.2361
 11
-62.1433
 21
60.3773
  0
LINE
  8
0
 10
-62.1433
 20
60.3773
 11
-61.927
 21
60.5052
  0
LINE
  8
0
 10
-61.927
 20
60.5052
 11
-61.7031
 21
60.6193
  0
LINE
  8
0
 10
-61.7031
 20
60.6193
 11
-61.4725
 21
60.7191
  0
LINE
  8
0
 10
-61.4725
 20
60.7191
 11
-61.2361
 21
60.8042
  0
LINE
  8
0
 10
-61.2361
 20
60.8042
 11
-60.9948
 21
60.8743
  0
LINE
  8
0
 10
-60.9948
 20
60.8743
 11
-60.7495
 21
60.9291
  0
LINE
  8
0
 10
-60.7495
 20
60.9291
 11
-60.5013
 21
60.9684
  0
LINE
  8
0
 10
-60.5013
 20
60.9684
 11
-60.2512
 21
60.9921
  0
LINE
  8
0
 10
-60.2512
 20
60.9921
 11
-60
 21
61
  0
LINE
  8
0
 10
-60
 20
61
 11
-59.7488
 21
60.9921
  0
LINE
  8
0
 10
-59.7488
 20
60.9921
 11
-59.4987
 21
60.9684
  0
LINE
  8
0
 10
-59.4987
 20
60.9684
 11
-59.2505
 21
60.9291
  0
LINE
  8
0
 10
-59.2505
 20
60.9291
 11
-59.0052
 21
60.8743
  0
LINE
  8
0
 10
-59.0052
 20
60.8743
 11
-58.7639
 21
60.8042
  0
LINE
  8
0
 10
-58.7639
 20
60.8042
 11
-58.5275
 21
60.7191
  0
LINE
  8
0
 10
-58.5275
 20
60.7191
 11
-58.2969
 21
60.6193
  0
LINE
  8
0
 10
-58.2969
 20
60.6193
 11
-58.073
 21
60.5052
  0
LINE
  8
0
 10
-58.073
 20
60.5052
 11
-57.8567
 21
60.3773
  0
LINE
  8
0
 10
-57.8567
 20
60.3773
 11
-57.6488
 21
60.2361
  0
LINE
  8
0
 10
-57.6488
 20
60.2361
 11
-57.4503
 21
60.082
  0
LINE
  8
0
 10
-57.4503
 20
60.082
 11
-57.2618
 21
59.9159
  0
LINE
  8
0
 10
-57.2618
 20
59.9159
 11
-57.0841
 21
59.7382
  0
LINE
  8
0
 10
-57.0841
 20
59.7382
 11
-56.9179
 21
59.5497
  0
LINE
  8
0
 10
-56.9179
 20
59.5497
 11
-56.7639
 21
59.3511
  0
LINE
  8
0
 10
-56.7639
 20
59.3511
 11
-56.6227
 21
59.1433
  0
LINE
  8
0
 10
-56.6227
 20
59.1433
 11
-56.4948
 21
58.927
  0
LINE
  8
0
 10
-56.4948
 20
58.927
 11
-56.3807
 21
58.7031
  0
LINE
  8
0
 10
-56.3807
 20
58.7031
 11
-56.2809
 21
58.4725
  0
LINE
  8
0
 10
-56.2809
 20
58.4725
 11
-56.1958
 21
58.2361
  0
LINE
  8
0
 10
-56.1958
 20
58.2361
 11
-56.1257
 21
57.9948
  0
LINE
  8
0
 10
-56.1257
 20
57.9948
 11
-56.0708
 21
57.7495
  0
LINE
  8
0
 10
-56.0708
 20
57.7495
 11
-56.0315
 21
57.5013
  0
LINE
  8
0
 10
-56.0315
 20
57.5013
 11
-56.0079
 21
57.2512
  0
LINE
  8
0
 10
-56.0079
 20
57.2512
 11
-56
 21
57
  0
LINE
  8
0
 10
-56
 20
57
 11
-56.0079
 21
56.7488
  0
LINE
  8
0
 10
-56.0079
 20
56.7488
 11
-56.0315
 21
56.4987
  0
LINE
  8
0
 10
-56.0315
 20
56.4987
 11
-56.0708
 21
56.2505
  0
LINE
  8
0
 10
-56.0708
 20
56.2505
 11
-56.1257
 21
56.0052
  0
LINE
  8
0
 10
-56.1257
 20
56.0052
 11
-56.1958
 21
55.7639
  0
LINE
  8
0
 10
-56.1958
 20
55.7639
 11
-56.2809
 21
55.5275
  0
LINE
  8
0
 10
-56.2809
 20
55.5275
 11
-56.3807
 21
55.2969
  0
LINE
  8
0
 10
-56.3807
 20
55.2969
 11
-56.4948
 21
55.073
  0
LINE
  8
0
 10
-56.4948
 20
55.073
 11
-56.6227
 21
54.8567
  0
LINE
  8
0
 10
-56.6227
 20
54.8567
 11
-56.7639
 21
54.6488
  0
LINE
  8
0
 10
-56.7639
 20
54.6488
 11
-56.9179
 21
54.4503
  0
LINE
  8
0
 10
-56.9179
 20
54.4503
 11
-57.0841
 21
54.2618
  0
LINE
  8
0
 10
-57.0841
 20
54.2618
 11
-57.2618
 21
54.0841
  0
LINE
  8
0
 10
-57.2618
 20
54.0841
 11
-57.4503
 21
53.9179
  0
LINE
  8
0
 10
-57.4503
 20
53.9179
 11
-57.6488
 21
53.7639
  0
LINE
  8
0
 10
-57.6488
 20
53.7639
 11
-57.8567
 21
53.6227
  0
LINE
  8
0
 10
-57.8567
 20
53.6227
 11
-58.073
 21
53.4948
  0
LINE
  8
0
 10
-58.073
 20
53.4948
 11
-58.2969
 21
53.3807
  0
LINE
  8
0
 10
-58.2969
 20
53.3807
 11
-58.5275
 21
53.2809
  0
LINE
  8
0
 10
-58.5275
 20
53.2809
 11
-58.7639
 21
53.1958
  0
LINE
  8
0
 10
-58.7639
 20
53.1958
 11
-59.0052
 21
53.1257
  0
LINE
  8
0
 10
-59.0052
 20
53.1257
 11
-59.2505
 21
53.0708
  0
LINE
  8
0
 10
-59.2505
 20
53.0708
 11
-59.4987
 21
53.0315
  0
LINE
  8
0
 10
-59.4987
 20
53.0315
 11
-59.7488
 21
53.0079
  0
LINE
  8
0
 10
-59.7488
 20
53.0079
 11
-60
 21
53
  0
LINE
  8
0
 10
-60
 20
53
 11
-60.2512
 21
53.0079
  0
LINE
  8
0
 10
20.0488
 20
27.5079
 11
19.7987
 21
27.5315
  0
LINE
  8
0
 10
19.7987
 20
27.5315
 11
19.5505
 21
27.5708
  0
LINE
  8
0
 10
19.5505
 20
27.5708
 11
19.3052
 21
27.6257
  0
LINE
  8
0
 10
19.3052
 20
27.6257
 11
19.0639
 21
27.6958
  0
LINE
  8
0
 10
19.0639
 20
27.6958
 11
18.8275
 21
27.7809
  0
LINE
  8
0
 10
18.8275
 20
27.7809
 11
18.5969
 21
27.8807
  0
LINE
  8
0
 10
18.5969
 20
27.8807
 11
18.373
 21
27.9948
  0
LINE
  8
0
 10
18.373
 20
27.9948
 11
18.1567
 21
28.1227
  0
LINE
  8
0
 10
18.1567
 20
28.1227
 11
17.9489
 21
28.2639
  0
LINE
  8
0
 10
17.9489
 20
28.2639
 11
17.7503
 21
28.4179
  0
LINE
  8
0
 10
17.7503
 20
28.4179
 11
17.5618
 21
28.5841
  0
LINE
  8
0
 10
17.5618
 20
28.5841
 11
17.3841
 21
28.7618
  0
LINE
  8
0
 10
17.3841
 20
28.7618
 11
17.2179
 21
28.9503
  0
LINE
  8
0
 10
17.2179
 20
28.9503
 11
17.0639
 21
29.1488
  0
LINE
  8
0
 10
17.0639
 20
29.1488
 11
16.9227
 21
29.3567
  0
LINE
  8
0
 10
16.9227
 20
29.3567
 11
16.7948
 21
29.573
  0
LINE
  8
0
 10
16.7948
 20
29.573
 11
16.6807
 21
29.7969
  0
LINE
  8
0
 10
16.6807
 20
29.7969
 11
16.5809
 21
30.0275
  0
LINE
  8
0
 10
16.5809
 20
30.0275
 11
16.4958
 21
30.2639
  0
LINE
  8
0
 10
16.4958
 20
30.2639
 11
16.4257
 21
30.5052
  0
LINE
  8
0
 10
16.4257
 20
30.5052
 11
16.3708
 21
30.7505
  0
LINE
  8
0
 10
16.3708
 20
30.7505
 11
16.3315
 21
30.9987
  0
LINE
  8
0
 10
16.3315
 20
30.9987
 11
16.3079
 21
31.2488
  0
LINE
  8
0
 10
16.3079
 20
31.2488
 11
16.3
 21
31.5
  0
LINE
  8
0
 10
16.3
 20
31.5
 11
16.3079
 21
31.7512
  0
LINE
  8
0
 10
16.3079
 20
31.7512
 11
16.3315
 21
32.0013
  0
LINE
  8
0
 10
16.3315
 20
32.0013
 11
16.3708
 21
32.2495
  0
LINE
  8
0
 10
16.3708
 20
32.2495
 11
16.4257
 21
32.4948
  0
LINE
  8
0
 10
16.4257
 20
32.4948
 11
16.4958
 21
32.7361
  0
LINE
  8
0
 10
16.4958
 20
32.7361
 11
16.5809
 21
32.9725
  0
LINE
  8
0
 10
16.5809
 20
32.9725
 11
16.6807
 21
33.2031
  0
LINE
  8
0
 10
16.6807
 20
33.2031
 11
16.7948
 21
33.427
  0
LINE
  8
0
 10
16.7948
 20
33.427
 11
16.9227
 21
33.6433
  0
LINE
  8
0
 10
16.9227
 20
33.6433
 11
17.0639
 21
33.8511
  0
LINE
  8
0
 10
17.0639
 20
33.8511
 11
17.2179
 21
34.0497
  0
LINE
  8
0
 10
17.2179
 20
34.0497
 11
17.3841
 21
34.2382
  0
LINE
  8
0
 10
17.3841
 20
34.2382
 11
17.5618
 21
34.4159
  0
LINE
  8
0
 10
17.5618
 20
34.4159
 11
17.7503
 21
34.582
  0
LINE
  8
0
 10
17.7503
 20
34.582
 11
17.9489
 21
34.7361
  0
LINE
  8
0
 10
17.9489
 20
34.7361
 11
18.1567
 21
34.8773
  0
LINE
  8
0
 10
18.1567
 20
34.8773
 11
18.373
 21
35.0052
  0
LINE
  8
0
 10
18.373
 20
35.0052
 11
18.5969
 21
35.1193
  0
LINE
  8
0
 10
18.5969
 20
35.1193
 11
18.8275
 21
35.2191
  0
LINE
  8
0
 10
18.8275
 20
35.2191
 11
19.0639
 21
35.3042
  0
LINE
  8
0
 10
19.0639
 20
35.3042
 11
19.3052
 21
35.3743
  0
LINE
  8
0
 10
19.3052
 20
35.3743
 11
19.5505
 21
35.4291
  0
LINE
  8
0
 10
19.5505
 20
35.4291
 11
19.7987
 21
35.4684
  0
LINE
  8
0
 10
19.7987
 20
35.4684
 11
20.0488
 21
35.4921
  0
LINE
  8
0
 10
20.0488
 20
35.4921
 11
20.3
 21
35.5
  0
LINE
  8
0
 10
20.3
 20
35.5
 11
20.5511
 21
35.4921
  0
LINE
  8
0
 10
20.5511
 20
35.4921
 11
20.8013
 21
35.4684
  0
LINE
  8
0
 10
20.8013
 20
35.4684
 11
21.0495
 21
35.4291
  0
LINE
  8
0
 10
21.0495
 20
35.4291
 11
21.2948
 21
35.3743
  0
LINE
  8
0
 10
21.2948
 20
35.3743
 11
21.5361
 21
35.3042
  0
LINE
  8
0
 10
21.5361
 20
35.3042
 11
21.7725
 21
35.2191
  0
LINE
  8
0
 10
21.7725
 20
35.2191
 11
22.0031
 21
35.1193
  0
LINE
  8
0
 10
22.0031
 20
35.1193
 11
22.227
 21
35.0052
  0
LINE
  8
0
 10
22.227
 20
35.0052
 11
22.4433
 21
34.8773
  0
LINE
  8
0
 10
22.4433
 20
34.8773
 11
22.6511
 21
34.7361
  0
LINE
  8
0
 10
22.6511
 20
34.7361
 11
22.8497
 21
34.582
  0
LINE
  8
0
 10
22.8497
 20
34.582
 11
23.0382
 21
34.4159
  0
LINE
  8
0
 10
23.0382
 20
34.4159
 11
23.2159
 21
34.2382
  0
LINE
  8
0
 10
23.2159
 20
34.2382
 11
23.382
 21
34.0497
  0
LINE
  8
0
 10
23.382
 20
34.0497
 11
23.5361
 21
33.8511
  0
LINE
  8
0
 10
23.5361
 20
33.8511
 11
23.6773
 21
33.6433
  0
LINE
  8
0
 10
23.6773
 20
33.6433
 11
23.8052
 21
33.427
  0
LINE
  8
0
 10
23.8052
 20
33.427
 11
23.9193
 21
33.2031
  0
LINE
  8
0
 10
23.9193
 20
33.2031
 11
24.0191
 21
32.9725
  0
LINE
  8
0
 10
24.0191
 20
32.9725
 11
24.1042
 21
32.7361
  0
LINE
  8
0
 10
24.1042
 20
32.7361
 11
24.1743
 21
32.4948
  0
LINE
  8
0
 10
24.1743
 20
32.4948
 11
24.2291
 21
32.2495
  0
LINE
  8
0
 10
24.2291
 20
32.2495
 11
24.2684
 21
32.0013
  0
LINE
  8
0
 10
24.2684
 20
32.0013
 11
24.2921
 21
31.7512
  0
LINE
  8
0
 10
24.2921
 20
31.7512
 11
24.3
 21
31.5
  0
LINE
  8
0
 10
24.3
 20
31.5
 11
24.2921
 21
31.2488
  0
LINE
  8
0
 10
24.2921
 20
31.2488
 11
24.2684
 21
30.9987
  0
LINE
  8
0
 10
24.2684
 20
30.9987
 11
24.2291
 21
30.7505
  0
LINE
  8
0
 10
24.2291
 20
30.7505
 11
24.1743
 21
30.5052
  0
LINE
  8
0
 10
24.1743
 20
30.5052
 11
24.1042
 21
30.2639
  0
LINE
  8
0
 10
24.1042
 20
30.2639
 11
24.0191
 21
30.0275
  0
LINE
  8
0
 10
24.0191
 20
30.0275
 11
23.9193
 21
29.7969
  0
LINE
  8
0
 10
23.9193
 20
29.7969
 11
23.8052
 21
29.573
  0
LINE
  8
0
 10
23.8052
 20
29.573
 11
23.6773
 21
29.3567
  0
LINE
  8
0
 10
23.6773
 20
29.3567
 11
23.5361
 21
29.1488
  0
LINE
  8
0
 10
23.5361
 20
29.1488
 11
23.382
 21
28.9503
  0
LINE
  8
0
 10
23.382
 20
28.9503
 11
23.2159
 21
28.7618
  0
LINE
  8
0
 10
23.2159
 20
28.7618
 11
23.0382
 21
28.5841
  0
LINE
  8
0
 10
23.0382
 20
28.5841
 11
22.8497
 21
28.4179
  0
LINE
  8
0
 10
22.8497
 20
28.4179
 11
22.6511
 21
28.2639
  0
LINE
  8
0
 10
22.6511
 20
28.2639
 11
22.4433
 21
28.1227
  0
LINE
  8
0
 10
22.4433
 20
28.1227
 11
22.227
 21
27.9948
  0
LINE
  8
0
 10
22.227
 20
27.9948
 11
22.0031
 21
27.8807
  0
LINE
  8
0
 10
22.0031
 20
27.8807
 11
21.7725
 21
27.7809
  0
LINE
  8
0
 10
21.7725
 20
27.7809
 11
21.5361
 21
27.6958
  0
LINE
  8
0
 10
21.5361
 20
27.6958
 11
21.2948
 21
27.6257
  0
LINE
  8
0
 10
21.2948
 20
27.6257
 11
21.0495
 21
27.5708
  0
LINE
  8
0
 10
21.0495
 20
27.5708
 11
20.8013
 21
27.5315
  0
LINE
  8
0
 10
20.8013
 20
27.5315
 11
20.5511
 21
27.5079
  0
LINE
  8
0
 10
20.5511
 20
27.5079
 11
20.3
 21
27.5
  0
LINE
  8
0
 10
20.3
 20
27.5
 11
20.0488
 21
27.5079
  0
LINE
  8
0
 10
-20.5511
 20
27.5079
 11
-20.8013
 21
27.5315
  0
LINE
  8
0
 10
-20.8013
 20
27.5315
 11
-21.0495
 21
27.5708
  0
LINE
  8
0
 10
-21.0495
 20
27.5708
 11
-21.2948
 21
27.6257
  0
LINE
  8
0
 10
-21.2948
 20
27.6257
 11
-21.5361
 21
27.6958
  0
LINE
  8
0
 10
-21.5361
 20
27.6958
 11
-21.7725
 21
27.7809
  0
LINE
  8
0
 10
-21.7725
 20
27.7809
 11
-22.0031
 21
27.8807
  0
LINE
  8
0
 10
-22.0031
 20
27.8807
 11
-22.227
 21
27.9948
  0
LINE
  8
0
 10
-22.227
 20
27.9948
 11
-22.4433
 21
28.1227
  0
LINE
  8
0
 10
-22.4433
 20
28.1227
 11
-22.6511
 21
28.2639
  0
LINE
  8
0
 10
-22.6511
 20
28.2639
 11
-22.8497
 21
28.4179
  0
LINE
  8
0
 10
-22.8497
 20
28.4179
 11
-23.0382
 21
28.5841
  0
LINE
  8
0
 10
-23.0382
 20
28.5841
 11
-23.2159
 21
28.7618
  0
LINE
  8
0
 10
-23.2159
 20
28.7618
 11
-23.382
 21
28.9503
  0
LINE
  8
0
 10
-23.382
 20
28.9503
 11
-23.5361
 21
29.1488
  0
LINE
  8
0
 10
-23.5361
 20
29.1488
 11
-23.6773
 21
29.3567
  0
LINE
  8
0
 10
-23.6773
 20
29.3567
 11
-23.8052
 21
29.573
  0
LINE
  8
0
 10
-23.8052
 20
29.573
 11
-23.9193
 21
29.7969
  0
LINE
  8
0
 10
-23.9193
 20
29.7969
 11
-24.0191
 21
30.0275
  0
LINE
  8
0
 10
-24.0191
 20
30.0275
 11
-24.1042
 21
30.2639
  0
LINE
  8
0
 10
-24.1042
 20
30.2639
 11
-24.1743
 21
30.5052
  0
LINE
  8
0
 10
-24.1743
 20
30.5052
 11
-24.2291
 21
30.7505
  0
LINE
  8
0
 10
-24.2291
 20
30.7505
 11
-24.2684
 21
30.9987
  0
LINE
  8
0
 10
-24.2684
 20
30.9987
 11
-24.2921
 21
31.2488
  0
LINE
  8
0
 10
-24.2921
 20
31.2488
 11
-24.3
 21
31.5
  0
LINE
  8
0
 10
-24.3
 20
31.5
 11
-24.2921
 21
31.7512
  0
LINE
  8
0
 10
-24.2921
 20
31.7512
 11
-24.2684
 21
32.0013
  0
LINE
  8
0
 10
-24.2684
 20
32.0013
 11
-24.2291
 21
32.2495
  0
LINE
  8
0
 10
-24.2291
 20
32.2495
 11
-24.1743
 21
32.4948
  0
LINE
  8
0
 10
-24.1743
 20
32.4948
 11
-24.1042
 21
32.7361
  0
LINE
  8
0
 10
-24.1042
 20
32.7361
 11
-24.0191
 21
32.9725
  0
LINE
  8
0
 10
-24.0191
 20
32.9725
 11
-23.9193
 21
33.2031
  0
LINE
  8
0
 10
-23.9193
 20
33.2031
 11
-23.8052
 21
33.427
  0
LINE
  8
0
 10
-23.8052
 20
33.427
 11
-23.6773
 21
33.6433
  0
LINE
  8
0
 10
-23.6773
 20
33.6433
 11
-23.5361
 21
33.8511
  0
LINE
  8
0
 10
-23.5361
 20
33.8511
 11
-23.382
 21
34.0497
  0
LINE
  8
0
 10
-23.382
 20
34.0497
 11
-23.2159
 21
34.2382
  0
LINE
  8
0
 10
-23.2159
 20
34.2382
 11
-23.0382
 21
34.4159
  0
LINE
  8
0
 10
-23.0382
 20
34.4159
 11
-22.8497
 21
34.582
  0
LINE
  8
0
 10
-22.8497
 20
34.582
 11
-22.6511
 21
34.7361
  0
LINE
  8
0
 10
-22.6511
 20
34.7361
 11
-22.4433
 21
34.8773
  0
LINE
  8
0
 10
-22.4433
 20
34.8773
 11
-22.227
 21
35.0052
  0
LINE
  8
0
 10
-22.227
 20
35.0052
 11
-22.0031
 21
35.1193
  0
LINE
  8
0
 10
-22.0031
 20
35.1193
 11
-21.7725
 21
35.2191
  0
LINE
  8
0
 10
-21.7725
 20
35.2191
 11
-21.5361
 21
35.3042
  0
LINE
  8
0
 10
-21.5361
 20
35.3042
 11
-21.2948
 21
35.3743
  0
LINE
  8
0
 10
-21.2948
 20
35.3743
 11
-21.0495
 21
35.4291
  0
LINE
  8
0
 10
-21.0495
 20
35.4291
 11
-20.8013
 21
35.4684
  0
LINE
  8
0
 10
-20.8013
 20
35.4684
 11
-20.5511
 21
35.4921
  0
LINE
  8
0
 10
-20.5511
 20
35.4921
 11
-20.3
 21
35.5
  0
LINE
  8
0
 10
-20.3
 20
35.5
 11
-20.0488
 21
35.4921
  0
LINE
  8
0
 10
-20.0488
 20
35.4921
 11
-19.7987
 21
35.4684
  0
LINE
  8
0
 10
-19.7987
 20
35.4684
 11
-19.5505
 21
35.4291
  0
LINE
  8
0
 10
-19.5505
 20
35.4291
 11
-19.3052
 21
35.3743
  0
LINE
  8
0
 10
-19.3052
 20
35.3743
 11
-19.0639
 21
35.3042
  0
LINE
  8
0
 10
-19.0639
 20
35.3042
 11
-18.8275
 21
35.2191
  0
LINE
  8
0
 10
-18.8275
 20
35.2191
 11
-18.5969
 21
35.1193
  0
LINE
  8
0
 10
-18.5969
 20
35.1193
 11
-18.373
 21
35.0052
  0
LINE
  8
0
 10
-18.373
 20
35.0052
 11
-18.1567
 21
34.8773
  0
LINE
  8
0
 10
-18.1567
 20
34.8773
 11
-17.9489
 21
34.7361
  0
LINE
  8
0
 10
-17.9489
 20
34.7361
 11
-17.7503
 21
34.582
  0
LINE
  8
0
 10
-17.7503
 20
34.582
 11
-17.5618
 21
34.4159
  0
LINE
  8
0
 10
-17.5618
 20
34.4159
 11
-17.3841
 21
34.2382
  0
LINE
  8
0
 10
-17.3841
 20
34.2382
 11
-17.2179
 21
34.0497
  0
LINE
  8
0
 10
-17.2179
 20
34.0497
 11
-17.0639
 21
33.8511
  0
LINE
  8
0
 10
-17.0639
 20
33.8511
 11
-16.9227
 21
33.6433
  0
LINE
  8
0
 10
-16.9227
 20
33.6433
 11
-16.7948
 21
33.427
  0
LINE
  8
0
 10
-16.7948
 20
33.427
 11
-16.6807
 21
33.2031
  0
LINE
  8
0
 10
-16.6807
 20
33.2031
 11
-16.5809
 21
32.9725
  0
LINE
  8
0
 10
-16.5809
 20
32.9725
 11
-16.4958
 21
32.7361
  0
LINE
  8
0
 10
-16.4958
 20
32.7361
 11
-16.4257
 21
32.4948
  0
LINE
  8
0
 10
-16.4257
 20
32.4948
 11
-16.3708
 21
32.2495
  0
LINE
  8
0
 10
-16.3708
 20
32.2495
 11
-16.3315
 21
32.0013
  0
LINE
  8
0
 10
-16.3315
 20
32.0013
 11
-16.3079
 21
31.7512
  0
LINE
  8
0
 10
-16.3079
 20
31.7512
 11
-16.3
 21
31.5
  0
LINE
  8
0
 10
-16.3
 20
31.5
 11
-16.3079
 21
31.2488
  0
LINE
  8
0
 10
-16.3079
 20
31.2488
 11
-16.3315
 21
30.9987
  0
LINE
  8
0
 10
-16.3315
 20
30.9987
 11
-16.3708
 21
30.7505
  0
LINE
  8
0
 10
-16.3708
 20
30.7505
 11
-16.4257
 21
30.5052
  0
LINE
  8
0
 10
-16.4257
 20
30.5052
 11
-16.4958
 21
30.2639
  0
LINE
  8
0
 10
-16.4958
 20
30.2639
 11
-16.5809
 21
30.0275
  0
LINE
  8
0
 10
-16.5809
 20
30.0275
 11
-16.6807
 21
29.7969
  0
LINE
  8
0
 10
-16.6807
 20
29.7969
 11
-16.7948
 21
29.573
  0
LINE
  8
0
 10
-16.7948
 20
29.573
 11
-16.9227
 21
29.3567
  0
LINE
  8
0
 10
-16.9227
 20
29.3567
 11
-17.0639
 21
29.1488
  0
LINE
  8
0
 10
-17.0639
 20
29.1488
 11
-17.2179
 21
28.9503
  0
LINE
  8
0
 10
-17.2179
 20
28.9503
 11
-17.3841
 21
28.7618
  0
LINE
  8
0
 10
-17.3841
 20
28.7618
 11
-17.5618
 21
28.5841
  0
LINE
  8
0
 10
-17.5618
 20
28.5841
 11
-17.7503
 21
28.4179
  0
LINE
  8
0
 10
-17.7503
 20
28.4179
 11
-17.9489
 21
28.2639
  0
LINE
  8
0
 10
-17.9489
 20
28.2639
 11
-18.1567
 21
28.1227
  0
LINE
  8
0
 10
-18.1567
 20
28.1227
 11
-18.373
 21
27.9948
  0
LINE
  8
0
 10
-18.373
 20
27.9948
 11
-18.5969
 21
27.8807
  0
LINE
  8
0
 10
-18.5969
 20
27.8807
 11
-18.8275
 21
27.7809
  0
LINE
  8
0
 10
-18.8275
 20
27.7809
 11
-19.0639
 21
27.6958
  0
LINE
  8
0
 10
-19.0639
 20
27.6958
 11
-19.3052
 21
27.6257
  0
LINE
  8
0
 10
-19.3052
 20
27.6257
 11
-19.5505
 21
27.5708
  0
LINE
  8
0
 10
-19.5505
 20
27.5708
 11
-19.7987
 21
27.5315
  0
LINE
  8
0
 10
-19.7987
 20
27.5315
 11
-20.0488
 21
27.5079
  0
LINE
  8
0
 10
-20.0488
 20
27.5079
 11
-20.3
 21
27.5
  0
LINE
  8
0
 10
-20.3
 20
27.5
 11
-20.5511
 21
27.5079
  0
LINE
  8
0
 10
64.9058
 20
13.5029
 11
64.812
 21
13.5118
  0
LINE
  8
0
 10
64.812
 20
13.5118
 11
64.7189
 21
13.5266
  0
LINE
  8
0
 10
64.7189
 20
13.5266
 11
64.627
 21
13.5471
  0
LINE
  8
0
 10
64.627
 20
13.5471
 11
64.5365
 21
13.5734
  0
LINE
  8
0
 10
64.5365
 20
13.5734
 11
64.4478
 21
13.6053
  0
LINE
  8
0
 10
64.4478
 20
13.6053
 11
64.3613
 21
13.6427
  0
LINE
  8
0
 10
64.3613
 20
13.6427
 11
64.2774
 21
13.6855
  0
LINE
  8
0
 10
64.2774
 20
13.6855
 11
64.1963
 21
13.7335
  0
LINE
  8
0
 10
64.1963
 20
13.7335
 11
64.1183
 21
13.7865
  0
LINE
  8
0
 10
64.1183
 20
13.7865
 11
64.0439
 21
13.8442
  0
LINE
  8
0
 10
64.0439
 20
13.8442
 11
63.9732
 21
13.9065
  0
LINE
  8
0
 10
63.9732
 20
13.9065
 11
63.9065
 21
13.9732
  0
LINE
  8
0
 10
63.9065
 20
13.9732
 11
63.8442
 21
14.0439
  0
LINE
  8
0
 10
63.8442
 20
14.0439
 11
63.7865
 21
14.1183
  0
LINE
  8
0
 10
63.7865
 20
14.1183
 11
63.7335
 21
14.1963
  0
LINE
  8
0
 10
63.7335
 20
14.1963
 11
63.6855
 21
14.2774
  0
LINE
  8
0
 10
63.6855
 20
14.2774
 11
63.6427
 21
14.3613
  0
LINE
  8
0
 10
63.6427
 20
14.3613
 11
63.6053
 21
14.4478
  0
LINE
  8
0
 10
63.6053
 20
14.4478
 11
63.5734
 21
14.5365
  0
LINE
  8
0
 10
63.5734
 20
14.5365
 11
63.5471
 21
14.627
  0
LINE
  8
0
 10
63.5471
 20
14.627
 11
63.5266
 21
14.7189
  0
LINE
  8
0
 10
63.5266
 20
14.7189
 11
63.5118
 21
14.812
  0
LINE
  8
0
 10
63.5118
 20
14.812
 11
63.5029
 21
14.9058
  0
LINE
  8
0
 10
63.5029
 20
14.9058
 11
63.5
 21
15
  0
LINE
  8
0
 10
63.5
 20
15
 11
63.5029
 21
15.0942
  0
LINE
  8
0
 10
63.5029
 20
15.0942
 11
63.5118
 21
15.188
  0
LINE
  8
0
 10
63.5118
 20
15.188
 11
63.5266
 21
15.2811
  0
LINE
  8
0
 10
63.5266
 20
15.2811
 11
63.5471
 21
15.373
  0
LINE
  8
0
 10
63.5471
 20
15.373
 11
63.5734
 21
15.4635
  0
LINE
  8
0
 10
63.5734
 20
15.4635
 11
63.6053
 21
15.5522
  0
LINE
  8
0
 10
63.6053
 20
15.5522
 11
63.6427
 21
15.6387
  0
LINE
  8
0
 10
63.6427
 20
15.6387
 11
63.6855
 21
15.7226
  0
LINE
  8
0
 10
63.6855
 20
15.7226
 11
63.7335
 21
15.8037
  0
LINE
  8
0
 10
63.7335
 20
15.8037
 11
63.7865
 21
15.8817
  0
LINE
  8
0
 10
63.7865
 20
15.8817
 11
63.8442
 21
15.9561
  0
LINE
  8
0
 10
63.8442
 20
15.9561
 11
63.9065
 21
16.0268
  0
LINE
  8
0
 10
63.9065
 20
16.0268
 11
63.9732
 21
16.0934
  0
LINE
  8
0
 10
63.9732
 20
16.0934
 11
64.0439
 21
16.1558
  0
LINE
  8
0
 10
64.0439
 20
16.1558
 11
64.1183
 21
16.2135
  0
LINE
  8
0
 10
64.1183
 20
16.2135
 11
64.1963
 21
16.2665
  0
LINE
  8
0
 10
64.1963
 20
16.2665
 11
64.2774
 21
16.3145
  0
LINE
  8
0
 10
64.2774
 20
16.3145
 11
64.3613
 21
16.3572
  0
LINE
  8
0
 10
64.3613
 20
16.3572
 11
64.4478
 21
16.3947
  0
LINE
  8
0
 10
64.4478
 20
16.3947
 11
64.5365
 21
16.4266
  0
LINE
  8
0
 10
64.5365
 20
16.4266
 11
64.627
 21
16.4529
  0
LINE
  8
0
 10
64.627
 20
16.4529
 11
64.7189
 21
16.4734
  0
LINE
  8
0
 10
64.7189
 20
16.4734
 11
64.812
 21
16.4882
  0
LINE
  8
0
 10
64.812
 20
16.4882
 11
64.9058
 21
16.497
  0
LINE
  8
0
 10
64.9058
 20
16.497
 11
65
 21
16.5
  0
LINE
  8
0
 10
65
 20
16.5
 11
65.0942
 21
16.497
  0
LINE
  8
0
 10
65.0942
 20
16.497
 11
65.188
 21
16.4882
  0
LINE
  8
0
 10
65.188
 20
16.4882
 11
65.2811
 21
16.4734
  0
LINE
  8
0
 10
65.2811
 20
16.4734
 11
65.373
 21
16.4529
  0
LINE
  8
0
 10
65.373
 20
16.4529
 11
65.4635
 21
16.4266
  0
LINE
  8
0
 10
65.4635
 20
16.4266
 11
65.5522
 21
16.3947
  0
LINE
  8
0
 10
65.5522
 20
16.3947
 11
65.6387
 21
16.3572
  0
LINE
  8
0
 10
65.6387
 20
16.3572
 11
65.7226
 21
16.3145
  0
LINE
  8
0
 10
65.7226
 20
16.3145
 11
65.8037
 21
16.2665
  0
LINE
  8
0
 10
65.8037
 20
16.2665
 11
65.8817
 21
16.2135
  0
LINE
  8
0
 10
65.8817
 20
16.2135
 11
65.9561
 21
16.1558
  0
LINE
  8
0
 10
65.9561
 20
16.1558
 11
66.0268
 21
16.0934
  0
LINE
  8
0
 10
66.0268
 20
16.0934
 11
66.0934
 21
16.0268
  0
LINE
  8
0
 10
66.0934
 20
16.0268
 11
66.1558
 21
15.9561
  0
LINE
  8
0
 10
66.1558
 20
15.9561
 11
66.2135
 21
15.8817
  0
LINE
  8
0
 10
66.2135
 20
15.8817
 11
66.2665
 21
15.8037
  0
LINE
  8
0
 10
66.2665
 20
15.8037
 11
66.3145
 21
15.7226
  0
LINE
  8
0
 10
66.3145
 20
15.7226
 11
66.3572
 21
15.6387
  0
LINE
  8
0
 10
66.3572
 20
15.6387
 11
66.3947
 21
15.5522
  0
LINE
  8
0
 10
66.3947
 20
15.5522
 11
66.4266
 21
15.4635
  0
LINE
  8
0
 10
66.4266
 20
15.4635
 11
66.4529
 21
15.373
  0
LINE
  8
0
 10
66.4529
 20
15.373
 11
66.4734
 21
15.2811
  0
LINE
  8
0
 10
66.4734
 20
15.2811
 11
66.4882
 21
15.188
  0
LINE
  8
0
 10
66.4882
 20
15.188
 11
66.497
 21
15.0942
  0
LINE
  8
0
 10
66.497
 20
15.0942
 11
66.5
 21
15
  0
LINE
  8
0
 10
66.5
 20
15
 11
66.497
 21
14.9058
  0
LINE
  8
0
 10
66.497
 20
14.9058
 11
66.4882
 21
14.812
  0
LINE
  8
0
 10
66.4882
 20
14.812
 11
66.4734
 21
14.7189
  0
LINE
  8
0
 10
66.4734
 20
14.7189
 11
66.4529
 21
14.627
  0
LINE
  8
0
 10
66.4529
 20
14.627
 11
66.4266
 21
14.5365
  0
LINE
  8
0
 10
66.4266
 20
14.5365
 11
66.3947
 21
14.4478
  0
LINE
  8
0
 10
66.3947
 20
14.4478
 11
66.3572
 21
14.3613
  0
LINE
  8
0
 10
66.3572
 20
14.3613
 11
66.3145
 21
14.2774
  0
LINE
  8
0
 10
66.3145
 20
14.2774
 11
66.2665
 21
14.1963
  0
LINE
  8
0
 10
66.2665
 20
14.1963
 11
66.2135
 21
14.1183
  0
LINE
  8
0
 10
66.2135
 20
14.1183
 11
66.1558
 21
14.0439
  0
LINE
  8
0
 10
66.1558
 20
14.0439
 11
66.0934
 21
13.9732
  0
LINE
  8
0
 10
66.0934
 20
13.9732
 11
66.0268
 21
13.9065
  0
LINE
  8
0
 10
66.0268
 20
13.9065
 11
65.9561
 21
13.8442
  0
LINE
  8
0
 10
65.9561
 20
13.8442
 11
65.8817
 21
13.7865
  0
LINE
  8
0
 10
65.8817
 20
13.7865
 11
65.8037
 21
13.7335
  0
LINE
  8
0
 10
65.8037
 20
13.7335
 11
65.7226
 21
13.6855
  0
LINE
  8
0
 10
65.7226
 20
13.6855
 11
65.6387
 21
13.6427
  0
LINE
  8
0
 10
65.6387
 20
13.6427
 11
65.5522
 21
13.6053
  0
LINE
  8
0
 10
65.5522
 20
13.6053
 11
65.4635
 21
13.5734
  0
LINE
  8
0
 10
65.4635
 20
13.5734
 11
65.373
 21
13.5471
  0
LINE
  8
0
 10
65.373
 20
13.5471
 11
65.2811
 21
13.5266
  0
LINE
  8
0
 10
65.2811
 20
13.5266
 11
65.188
 21
13.5118
  0
LINE
  8
0
 10
65.188
 20
13.5118
 11
65.0942
 21
13.5029
  0
LINE
  8
0
 10
65.0942
 20
13.5029
 11
65
 21
13.5
  0
LINE
  8
0
 10
65
 20
13.5
 11
64.9058
 21
13.5029
  0
LINE
  8
0
 10
34.9058
 20
13.5029
 11
34.812
 21
13.5118
  0
LINE
  8
0
 10
34.812
 20
13.5118
 11
34.7189
 21
13.5266
  0
LINE
  8
0
 10
34.7189
 20
13.5266
 11
34.627
 21
13.5471
  0
LINE
  8
0
 10
34.627
 20
13.5471
 11
34.5365
 21
13.5734
  0
LINE
  8
0
 10
34.5365
 20
13.5734
 11
34.4478
 21
13.6053
  0
LINE
  8
0
 10
34.4478
 20
13.6053
 11
34.3613
 21
13.6427
  0
LINE
  8
0
 10
34.3613
 20
13.6427
 11
34.2774
 21
13.6855
  0
LINE
  8
0
 10
34.2774
 20
13.6855
 11
34.1963
 21
13.7335
  0
LINE
  8
0
 10
34.1963
 20
13.7335
 11
34.1183
 21
13.7865
  0
LINE
  8
0
 10
34.1183
 20
13.7865
 11
34.0439
 21
13.8442
  0
LINE
  8
0
 10
34.0439
 20
13.8442
 11
33.9732
 21
13.9065
  0
LINE
  8
0
 10
33.9732
 20
13.9065
 11
33.9066
 21
13.9732
  0
LINE
  8
0
 10
33.9066
 20
13.9732
 11
33.8442
 21
14.0439
  0
LINE
  8
0
 10
33.8442
 20
14.0439
 11
33.7865
 21
14.1183
  0
LINE
  8
0
 10
33.7865
 20
14.1183
 11
33.7335
 21
14.1963
  0
LINE
  8
0
 10
33.7335
 20
14.1963
 11
33.6855
 21
14.2774
  0
LINE
  8
0
 10
33.6855
 20
14.2774
 11
33.6428
 21
14.3613
  0
LINE
  8
0
 10
33.6428
 20
14.3613
 11
33.6053
 21
14.4478
  0
LINE
  8
0
 10
33.6053
 20
14.4478
 11
33.5734
 21
14.5365
  0
LINE
  8
0
 10
33.5734
 20
14.5365
 11
33.5471
 21
14.627
  0
LINE
  8
0
 10
33.5471
 20
14.627
 11
33.5266
 21
14.7189
  0
LINE
  8
0
 10
33.5266
 20
14.7189
 11
33.5118
 21
14.812
  0
LINE
  8
0
 10
33.5118
 20
14.812
 11
33.503
 21
14.9058
  0
LINE
  8
0
 10
33.503
 20
14.9058
 11
33.5
 21
15
  0
LINE
  8
0
 10
33.5
 20
15
 11
33.503
 21
15.0942
  0
LINE
  8
0
 10
33.503
 20
15.0942
 11
33.5118
 21
15.188
  0
LINE
  8
0
 10
33.5118
 20
15.188
 11
33.5266
 21
15.2811
  0
LINE
  8
0
 10
33.5266
 20
15.2811
 11
33.5471
 21
15.373
  0
LINE
  8
0
 10
33.5471
 20
15.373
 11
33.5734
 21
15.4635
  0
LINE
  8
0
 10
33.5734
 20
15.4635
 11
33.6053
 21
15.5522
  0
LINE
  8
0
 10
33.6053
 20
15.5522
 11
33.6428
 21
15.6387
  0
LINE
  8
0
 10
33.6428
 20
15.6387
 11
33.6855
 21
15.7226
  0
LINE
  8
0
 10
33.6855
 20
15.7226
 11
33.7335
 21
15.8037
  0
LINE
  8
0
 10
33.7335
 20
15.8037
 11
33.7865
 21
15.8817
  0
LINE
  8
0
 10
33.7865
 20
15.8817
 11
33.8442
 21
15.9561
  0
LINE
  8
0
 10
33.8442
 20
15.9561
 11
33.9066
 21
16.0268
  0
LINE
  8
0
 10
33.9066
 20
16.0268
 11
33.9732
 21
16.0934
  0
LINE
  8
0
 10
33.9732
 20
16.0934
 11
34.0439
 21
16.1558
  0
LINE
  8
0
 10
34.0439
 20
16.1558
 11
34.1183
 21
16.2135
  0
LINE
  8
0
 10
34.1183
 20
16.2135
 11
34.1963
 21
16.2665
  0
LINE
  8
0
 10
34.1963
 20
16.2665
 11
34.2774
 21
16.3145
  0
LINE
  8
0
 10
34.2774
 20
16.3145
 11
34.3613
 21
16.3572
  0
LINE
  8
0
 10
34.3613
 20
16.3572
 11
34.4478
 21
16.3947
  0
LINE
  8
0
 10
34.4478
 20
16.3947
 11
34.5365
 21
16.4266
  0
LINE
  8
0
 10
34.5365
 20
16.4266
 11
34.627
 21
16.4529
  0
LINE
  8
0
 10
34.627
 20
16.4529
 11
34.7189
 21
16.4734
  0
LINE
  8
0
 10
34.7189
 20
16.4734
 11
34.812
 21
16.4882
  0
LINE
  8
0
 10
34.812
 20
16.4882
 11
34.9058
 21
16.497
  0
LINE
  8
0
 10
34.9058
 20
16.497
 11
35
 21
16.5
  0
LINE
  8
0
 10
35
 20
16.5
 11
35.0942
 21
16.497
  0
LINE
  8
0
 10
35.0942
 20
16.497
 11
35.188
 21
16.4882
  0
LINE
  8
0
 10
35.188
 20
16.4882
 11
35.2811
 21
16.4734
  0
LINE
  8
0
 10
35.2811
 20
16.4734
 11
35.373
 21
16.4529
  0
LINE
  8
0
 10
35.373
 20
16.4529
 11
35.4635
 21
16.4266
  0
LINE
  8
0
 10
35.4635
 20
16.4266
 11
35.5522
 21
16.3947
  0
LINE
  8
0
 10
35.5522
 20
16.3947
 11
35.6387
 21
16.3572
  0
LINE
  8
0
 10
35.6387
 20
16.3572
 11
35.7226
 21
16.3145
  0
LINE
  8
0
 10
35.7226
 20
16.3145
 11
35.8037
 21
16.2665
  0
LINE
  8
0
 10
35.8037
 20
16.2665
 11
35.8817
 21
16.2135
  0
LINE
  8
0
 10
35.8817
 20
16.2135
 11
35.9561
 21
16.1558
  0
LINE
  8
0
 10
35.9561
 20
16.1558
 11
36.0268
 21
16.0934
  0
LINE
  8
0
 10
36.0268
 20
16.0934
 11
36.0935
 21
16.0268
  0
LINE
  8
0
 10
36.0935
 20
16.0268
 11
36.1558
 21
15.9561
  0
LINE
  8
0
 10
36.1558
 20
15.9561
 11
36.2135
 21
15.8817
  0
LINE
  8
0
 10
36.2135
 20
15.8817
 11
36.2665
 21
15.8037
  0
LINE
  8
0
 10
36.2665
 20
15.8037
 11
36.3145
 21
15.7226
  0
LINE
  8
0
 10
36.3145
 20
15.7226
 11
36.3573
 21
15.6387
  0
LINE
  8
0
 10
36.3573
 20
15.6387
 11
36.3947
 21
15.5522
  0
LINE
  8
0
 10
36.3947
 20
15.5522
 11
36.4266
 21
15.4635
  0
LINE
  8
0
 10
36.4266
 20
15.4635
 11
36.4529
 21
15.373
  0
LINE
  8
0
 10
36.4529
 20
15.373
 11
36.4734
 21
15.2811
  0
LINE
  8
0
 10
36.4734
 20
15.2811
 11
36.4882
 21
15.188
  0
LINE
  8
0
 10
36.4882
 20
15.188
 11
36.4971
 21
15.0942
  0
LINE
  8
0
 10
36.4971
 20
15.0942
 11
36.5
 21
15
  0
LINE
  8
0
 10
36.5
 20
15
 11
36.4971
 21
14.9058
  0
LINE
  8
0
 10
36.4971
 20
14.9058
 11
36.4882
 21
14.812
  0
LINE
  8
0
 10
36.4882
 20
14.812
 11
36.4734
 21
14.7189
  0
LINE
  8
0
 10
36.4734
 20
14.7189
 11
36.4529
 21
14.627
  0
LINE
  8
0
 10
36.4529
 20
14.627
 11
36.4266
 21
14.5365
  0
LINE
  8
0
 10
36.4266
 20
14.5365
 11
36.3947
 21
14.4478
  0
LINE
  8
0
 10
36.3947
 20
14.4478
 11
36.3573
 21
14.3613
  0
LINE
  8
0
 10
36.3573
 20
14.3613
 11
36.3145
 21
14.2774
  0
LINE
  8
0
 10
36.3145
 20
14.2774
 11
36.2665
 21
14.1963
  0
LINE
  8
0
 10
36.2665
 20
14.1963
 11
36.2135
 21
14.1183
  0
LINE
  8
0
 10
36.2135
 20
14.1183
 11
36.1558
 21
14.0439
  0
LINE
  8
0
 10
36.1558
 20
14.0439
 11
36.0935
 21
13.9732
  0
LINE
  8
0
 10
36.0935
 20
13.9732
 11
36.0268
 21
13.9065
  0
LINE
  8
0
 10
36.0268
 20
13.9065
 11
35.9561
 21
13.8442
  0
LINE
  8
0
 10
35.9561
 20
13.8442
 11
35.8817
 21
13.7865
  0
LINE
  8
0
 10
35.8817
 20
13.7865
 11
35.8037
 21
13.7335
  0
LINE
  8
0
 10
35.8037
 20
13.7335
 11
35.7226
 21
13.6855
  0
LINE
  8
0
 10
35.7226
 20
13.6855
 11
35.6387
 21
13.6427
  0
LINE
  8
0
 10
35.6387
 20
13.6427
 11
35.5522
 21
13.6053
  0
LINE
  8
0
 10
35.5522
 20
13.6053
 11
35.4635
 21
13.5734
  0
LINE
  8
0
 10
35.4635
 20
13.5734
 11
35.373
 21
13.5471
  0
LINE
  8
0
 10
35.373
 20
13.5471
 11
35.2811
 21
13.5266
  0
LINE
  8
0
 10
35.2811
 20
13.5266
 11
35.188
 21
13.5118
  0
LINE
  8
0
 10
35.188
 20
13.5118
 11
35.0942
 21
13.5029
  0
LINE
  8
0
 10
35.0942
 20
13.5029
 11
35
 21
13.5
  0
LINE
  8
0
 10
35
 20
13.5
 11
34.9058
 21
13.5029
  0
LINE
  8
0
 10
49.3093
 20
-10.9783
 11
48.6213
 21
-10.9133
  0
LINE
  8
0
 10
48.6213
 20
-10.9133
 11
47.9388
 21
-10.8051
  0
LINE
  8
0
 10
47.9388
 20
-10.8051
 11
47.2644
 21
-10.6544
  0
LINE
  8
0
 10
47.2644
 20
-10.6544
 11
46.6008
 21
-10.4616
  0
LINE
  8
0
 10
46.6008
 20
-10.4616
 11
45.9506
 21
-10.2275
  0
LINE
  8
0
 10
45.9506
 20
-10.2275
 11
45.3164
 21
-9.95309
  0
LINE
  8
0
 10
45.3164
 20
-9.95309
 11
44.7007
 21
-9.63936
  0
LINE
  8
0
 10
44.7007
 20
-9.63936
 11
44.1059
 21
-9.2876
  0
LINE
  8
0
 10
44.1059
 20
-9.2876
 11
43.5344
 21
-8.89919
  0
LINE
  8
0
 10
43.5344
 20
-8.89919
 11
42.9883
 21
-8.47563
  0
LINE
  8
0
 10
42.9883
 20
-8.47563
 11
42.47
 21
-8.01865
  0
LINE
  8
0
 10
42.47
 20
-8.01865
 11
41.9814
 21
-7.53001
  0
LINE
  8
0
 10
41.9814
 20
-7.53001
 11
41.5244
 21
-7.01166
  0
LINE
  8
0
 10
41.5244
 20
-7.01166
 11
41.1008
 21
-6.46564
  0
LINE
  8
0
 10
41.1008
 20
-6.46564
 11
40.7124
 21
-5.89409
  0
LINE
  8
0
 10
40.7124
 20
-5.89409
 11
40.3606
 21
-5.29929
  0
LINE
  8
0
 10
40.3606
 20
-5.29929
 11
40.0469
 21
-4.68356
  0
LINE
  8
0
 10
40.0469
 20
-4.68356
 11
39.7725
 21
-4.04936
  0
LINE
  8
0
 10
39.7725
 20
-4.04936
 11
39.5384
 21
-3.39919
  0
LINE
  8
0
 10
39.5384
 20
-3.39919
 11
39.3456
 21
-2.73558
  0
LINE
  8
0
 10
39.3456
 20
-2.73558
 11
39.1949
 21
-2.06119
  0
LINE
  8
0
 10
39.1949
 20
-2.06119
 11
39.0867
 21
-1.37866
  0
LINE
  8
0
 10
39.0867
 20
-1.37866
 11
39.0217
 21
-0.690689
  0
LINE
  8
0
 10
39.0217
 20
-0.690689
 11
39
 21
0
  0
LINE
  8
0
 10
39
 20
0
 11
39.0217
 21
0.690689
  0
LINE
  8
0
 10
39.0217
 20
0.690689
 11
39.0867
 21
1.37866
  0
LINE
  8
0
 10
39.0867
 20
1.37866
 11
39.1949
 21
2.06119
  0
LINE
  8
0
 10
39.1949
 20
2.06119
 11
39.3456
 21
2.73558
  0
LINE
  8
0
 10
39.3456
 20
2.73558
 11
39.5384
 21
3.39919
  0
LINE
  8
0
 10
39.5384
 20
3.39919
 11
39.7725
 21
4.04936
  0
LINE
  8
0
 10
39.7725
 20
4.04936
 11
40.0469
 21
4.68356
  0
LINE
  8
0
 10
40.0469
 20
4.68356
 11
40.3606
 21
5.29929
  0
LINE
  8
0
 10
40.3606
 20
5.29929
 11
40.7124
 21
5.89409
  0
LINE
  8
0
 10
40.7124
 20
5.89409
 11
41.1008
 21
6.46564
  0
LINE
  8
0
 10
41.1008
 20
6.46564
 11
41.5244
 21
7.01166
  0
LINE
  8
0
 10
41.5244
 20
7.01166
 11
41.9814
 21
7.53001
  0
LINE
  8
0
 10
41.9814
 20
7.53001
 11
42.47
 21
8.01865
  0
LINE
  8
0
 10
42.47
 20
8.01865
 11
42.9883
 21
8.47563
  0
LINE
  8
0
 10
42.9883
 20
8.47563
 11
43.5344
 21
8.89919
  0
LINE
  8
0
 10
43.5344
 20
8.89919
 11
44.1059
 21
9.2876
  0
LINE
  8
0
 10
44.1059
 20
9.2876
 11
44.7007
 21
9.63936
  0
LINE
  8
0
 10
44.7007
 20
9.63936
 11
45.3164
 21
9.95309
  0
LINE
  8
0
 10
45.3164
 20
9.95309
 11
45.9506
 21
10.2275
  0
LINE
  8
0
 10
45.9506
 20
10.2275
 11
46.6008
 21
10.4616
  0
LINE
  8
0
 10
46.6008
 20
10.4616
 11
47.2644
 21
10.6544
  0
LINE
  8
0
 10
47.2644
 20
10.6544
 11
47.9388
 21
10.8051
  0
LINE
  8
0
 10
47.9388
 20
10.8051
 11
48.6213
 21
10.9133
  0
LINE
  8
0
 10
48.6213
 20
10.9133
 11
49.3093
 21
10.9783
  0
LINE
  8
0
 10
49.3093
 20
10.9783
 11
50
 21
11
  0
LINE
  8
0
 10
50
 20
11
 11
50.6907
 21
10.9783
  0
LINE
  8
0
 10
50.6907
 20
10.9783
 11
51.3787
 21
10.9133
  0
LINE
  8
0
 10
51.3787
 20
10.9133
 11
52.0612
 21
10.8051
  0
LINE
  8
0
 10
52.0612
 20
10.8051
 11
52.7356
 21
10.6544
  0
LINE
  8
0
 10
52.7356
 20
10.6544
 11
53.3992
 21
10.4616
  0
LINE
  8
0
 10
53.3992
 20
10.4616
 11
54.0494
 21
10.2275
  0
LINE
  8
0
 10
54.0494
 20
10.2275
 11
54.6836
 21
9.95309
  0
LINE
  8
0
 10
54.6836
 20
9.95309
 11
55.2993
 21
9.63936
  0
LINE
  8
0
 10
55.2993
 20
9.63936
 11
55.8941
 21
9.2876
  0
LINE
  8
0
 10
55.8941
 20
9.2876
 11
56.4656
 21
8.89919
  0
LINE
  8
0
 10
56.4656
 20
8.89919
 11
57.0117
 21
8.47563
  0
LINE
  8
0
 10
57.0117
 20
8.47563
 11
57.53
 21
8.01865
  0
LINE
  8
0
 10
57.53
 20
8.01865
 11
58.0186
 21
7.53001
  0
LINE
  8
0
 10
58.0186
 20
7.53001
 11
58.4756
 21
7.01166
  0
LINE
  8
0
 10
58.4756
 20
7.01166
 11
58.8992
 21
6.46564
  0
LINE
  8
0
 10
58.8992
 20
6.46564
 11
59.2876
 21
5.89409
  0
LINE
  8
0
 10
59.2876
 20
5.89409
 11
59.6394
 21
5.29929
  0
LINE
  8
0
 10
59.6394
 20
5.29929
 11
59.9531
 21
4.68356
  0
LINE
  8
0
 10
59.9531
 20
4.68356
 11
60.2275
 21
4.04936
  0
LINE
  8
0
 10
60.2275
 20
4.04936
 11
60.4616
 21
3.39919
  0
LINE
  8
0
 10
60.4616
 20
3.39919
 11
60.6544
 21
2.73558
  0
LINE
  8
0
 10
60.6544
 20
2.73558
 11
60.8051
 21
2.06119
  0
LINE
  8
0
 10
60.8051
 20
2.06119
 11
60.9133
 21
1.37866
  0
LINE
  8
0
 10
60.9133
 20
1.37866
 11
60.9783
 21
0.690689
  0
LINE
  8
0
 10
60.9783
 20
0.690689
 11
61
 21
0
  0
LINE
  8
0
 10
61
 20
0
 11
60.9783
 21
-0.690689
  0
LINE
  8
0
 10
60.9783
 20
-0.690689
 11
60.9133
 21
-1.37866
  0
LINE
  8
0
 10
60.9133
 20
-1.37866
 11
60.8051
 21
-2.06119
  0
LINE
  8
0
 10
60.8051
 20
-2.06119
 11
60.6544
 21
-2.73558
  0
LINE
  8
0
 10
60.6544
 20
-2.73558
 11
60.4616
 21
-3.39919
  0
LINE
  8
0
 10
60.4616
 20
-3.39919
 11
60.2275
 21
-4.04936
  0
LINE
  8
0
 10
60.2275
 20
-4.04936
 11
59.9531
 21
-4.68356
  0
LINE
  8
0
 10
59.9531
 20
-4.68356
 11
59.6394
 21
-5.29929
  0
LINE
  8
0
 10
59.6394
 20
-5.29929
 11
59.2876
 21
-5.89409
  0
LINE
  8
0
 10
59.2876
 20
-5.89409
 11
58.8992
 21
-6.46564
  0
LINE
  8
0
 10
58.8992
 20
-6.46564
 11
58.4756
 21
-7.01166
  0
LINE
  8
0
 10
58.4756
 20
-7.01166
 11
58.0186
 21
-7.53001
  0
LINE
  8
0
 10
58.0186
 20
-7.53001
 11
57.53
 21
-8.01865
  0
LINE
  8
0
 10
57.53
 20
-8.01865
 11
57.0117
 21
-8.47563
  0
LINE
  8
0
 10
57.0117
 20
-8.47563
 11
56.4656
 21
-8.89919
  0
LINE
  8
0
 10
56.4656
 20
-8.89919
 11
55.8941
 21
-9.2876
  0
LINE
  8
0
 10
55.8941
 20
-9.2876
 11
55.2993
 21
-9.63936
  0
LINE
  8
0
 10
55.2993
 20
-9.63936
 11
54.6836
 21
-9.95309
  0
LINE
  8
0
 10
54.6836
 20
-9.95309
 11
54.0494
 21
-10.2275
  0
LINE
  8
0
 10
54.0494
 20
-10.2275
 11
53.3992
 21
-10.4616
  0
LINE
  8
0
 10
53.3992
 20
-10.4616
 11
52.7356
 21
-10.6544
  0
LINE
  8
0
 10
52.7356
 20
-10.6544
 11
52.0612
 21
-10.8051
  0
LINE
  8
0
 10
52.0612
 20
-10.8051
 11
51.3787
 21
-10.9133
  0
LINE
  8
0
 10
51.3787
 20
-10.9133
 11
50.6907
 21
-10.9783
  0
LINE
  8
0
 10
50.6907
 20
-10.9783
 11
50
 21
-11
  0
LINE
  8
0
 10
50
 20
-11
 11
49.3093
 21
-10.9783
  0
LINE
  8
0
 10
34.9058
 20
-16.497
 11
34.812
 21
-16.4882
  0
LINE
  8
0
 10
34.812
 20
-16.4882
 11
34.7189
 21
-16.4734
  0
LINE
  8
0
 10
34.7189
 20
-16.4734
 11
34.627
 21
-16.4529
  0
LINE
  8
0
 10
34.627
 20
-16.4529
 11
34.5365
 21
-16.4266
  0
LINE
  8
0
 10
34.5365
 20
-16.4266
 11
34.4478
 21
-16.3947
  0
LINE
  8
0
 10
34.4478
 20
-16.3947
 11
34.3613
 21
-16.3572
  0
LINE
  8
0
 10
34.3613
 20
-16.3572
 11
34.2774
 21
-16.3145
  0
LINE
  8
0
 10
34.2774
 20
-16.3145
 11
34.1963
 21
-16.2665
  0
LINE
  8
0
 10
34.1963
 20
-16.2665
 11
34.1183
 21
-16.2135
  0
LINE
  8
0
 10
34.1183
 20
-16.2135
 11
34.0439
 21
-16.1558
  0
LINE
  8
0
 10
34.0439
 20
-16.1558
 11
33.9732
 21
-16.0934
  0
LINE
  8
0
 10
33.9732
 20
-16.0934
 11
33.9066
 21
-16.0268
  0
LINE
  8
0
 10
33.9066
 20
-16.0268
 11
33.8442
 21
-15.9561
  0
LINE
  8
0
 10
33.8442
 20
-15.9561
 11
33.7865
 21
-15.8817
  0
LINE
  8
0
 10
33.7865
 20
-15.8817
 11
33.7335
 21
-15.8037
  0
LINE
  8
0
 10
33.7335
 20
-15.8037
 11
33.6855
 21
-15.7226
  0
LINE
  8
0
 10
33.6855
 20
-15.7226
 11
33.6428
 21
-15.6387
  0
LINE
  8
0
 10
33.6428
 20
-15.6387
 11
33.6053
 21
-15.5522
  0
LINE
  8
0
 10
33.6053
 20
-15.5522
 11
33.5734
 21
-15.4635
  0
LINE
  8
0
 10
33.5734
 20
-15.4635
 11
33.5471
 21
-15.373
  0
LINE
  8
0
 10
33.5471
 20
-15.373
 11
33.5266
 21
-15.2811
  0
LINE
  8
0
 10
33.5266
 20
-15.2811
 11
33.5118
 21
-15.188
  0
LINE
  8
0
 10
33.5118
 20
-15.188
 11
33.503
 21
-15.0942
  0
LINE
  8
0
 10
33.503
 20
-15.0942
 11
33.5
 21
-15
  0
LINE
  8
0
 10
33.5
 20
-15
 11
33.503
 21
-14.9058
  0
LINE
  8
0
 10
33.503
 20
-14.9058
 11
33.5118
 21
-14.812
  0
LINE
  8
0
 10
33.5118
 20
-14.812
 11
33.5266
 21
-14.7189
  0
LINE
  8
0
 10
33.5266
 20
-14.7189
 11
33.5471
 21
-14.627
  0
LINE
  8
0
 10
33.5471
 20
-14.627
 11
33.5734
 21
-14.5365
  0
LINE
  8
0
 10
33.5734
 20
-14.5365
 11
33.6053
 21
-14.4478
  0
LINE
  8
0
 10
33.6053
 20
-14.4478
 11
33.6428
 21
-14.3613
  0
LINE
  8
0
 10
33.6428
 20
-14.3613
 11
33.6855
 21
-14.2774
  0
LINE
  8
0
 10
33.6855
 20
-14.2774
 11
33.7335
 21
-14.1963
  0
LINE
  8
0
 10
33.7335
 20
-14.1963
 11
33.7865
 21
-14.1183
  0
LINE
  8
0
 10
33.7865
 20
-14.1183
 11
33.8442
 21
-14.0439
  0
LINE
  8
0
 10
33.8442
 20
-14.0439
 11
33.9066
 21
-13.9732
  0
LINE
  8
0
 10
33.9066
 20
-13.9732
 11
33.9732
 21
-13.9065
  0
LINE
  8
0
 10
33.9732
 20
-13.9065
 11
34.0439
 21
-13.8442
  0
LINE
  8
0
 10
34.0439
 20
-13.8442
 11
34.1183
 21
-13.7865
  0
LINE
  8
0
 10
34.1183
 20
-13.7865
 11
34.1963
 21
-13.7335
  0
LINE
  8
0
 10
34.1963
 20
-13.7335
 11
34.2774
 21
-13.6855
  0
LINE
  8
0
 10
34.2774
 20
-13.6855
 11
34.3613
 21
-13.6427
  0
LINE
  8
0
 10
34.3613
 20
-13.6427
 11
34.4478
 21
-13.6053
  0
LINE
  8
0
 10
34.4478
 20
-13.6053
 11
34.5365
 21
-13.5734
  0
LINE
  8
0
 10
34.5365
 20
-13.5734
 11
34.627
 21
-13.5471
  0
LINE
  8
0
 10
34.627
 20
-13.5471
 11
34.7189
 21
-13.5266
  0
LINE
  8
0
 10
34.7189
 20
-13.5266
 11
34.812
 21
-13.5118
  0
LINE
  8
0
 10
34.812
 20
-13.5118
 11
34.9058
 21
-13.5029
  0
LINE
  8
0
 10
34.9058
 20
-13.5029
 11
35
 21
-13.5
  0
LINE
  8
0
 10
35
 20
-13.5
 11
35.0942
 21
-13.5029
  0
LINE
  8
0
 10
35.0942
 20
-13.5029
 11
35.188
 21
-13.5118
  0
LINE
  8
0
 10
35.188
 20
-13.5118
 11
35.2811
 21
-13.5266
  0
LINE
  8
0
 10
35.2811
 20
-13.5266
 11
35.373
 21
-13.5471
  0
LINE
  8
0
 10
35.373
 20
-13.5471
 11
35.4635
 21
-13.5734
  0
LINE
  8
0
 10
35.4635
 20
-13.5734
 11
35.5522
 21
-13.6053
  0
LINE
  8
0
 10
35.5522
 20
-13.6053
 11
35.6387
 21
-13.6427
  0
LINE
  8
0
 10
35.6387
 20
-13.6427
 11
35.7226
 21
-13.6855
  0
LINE
  8
0
 10
35.7226
 20
-13.6855
 11
35.8037
 21
-13.7335
  0
LINE
  8
0
 10
35.8037
 20
-13.7335
 11
35.8817
 21
-13.7865
  0
LINE
  8
0
 10
35.8817
 20
-13.7865
 11
35.9561
 21
-13.8442
  0
LINE
  8
0
 10
35.9561
 20
-13.8442
 11
36.0268
 21
-13.9065
  0
LINE
  8
0
 10
36.0268
 20
-13.9065
 11
36.0935
 21
-13.9732
  0
LINE
  8
0
 10
36.0935
 20
-13.9732
 11
36.1558
 21
-14.0439
  0
LINE
  8
0
 10
36.1558
 20
-14.0439
 11
36.2135
 21
-14.1183
  0
LINE
  8
0
 10
36.2135
 20
-14.1183
 11
36.2665
 21
-14.1963
  0
LINE
  8
0
 10
36.2665
 20
-14.1963
 11
36.3145
 21
-14.2774
  0
LINE
  8
0
 10
36.3145
 20
-14.2774
 11
36.3573
 21
-14.3613
  0
LINE
  8
0
 10
36.3573
 20
-14.3613
 11
36.3947
 21
-14.4478
  0
LINE
  8
0
 10
36.3947
 20
-14.4478
 11
36.4266
 21
-14.5365
  0
LINE
  8
0
 10
36.4266
 20
-14.5365
 11
36.4529
 21
-14.627
  0
LINE
  8
0
 10
36.4529
 20
-14.627
 11
36.4734
 21
-14.7189
  0
LINE
  8
0
 10
36.4734
 20
-14.7189
 11
36.4882
 21
-14.812
  0
LINE
  8
0
 10
36.4882
 20
-14.812
 11
36.4971
 21
-14.9058
  0
LINE
  8
0
 10
36.4971
 20
-14.9058
 11
36.5
 21
-15
  0
LINE
  8
0
 10
36.5
 20
-15
 11
36.4971
 21
-15.0942
  0
LINE
  8
0
 10
36.4971
 20
-15.0942
 11
36.4882
 21
-15.188
  0
LINE
  8
0
 10
36.4882
 20
-15.188
 11
36.4734
 21
-15.2811
  0
LINE
  8
0
 10
36.4734
 20
-15.2811
 11
36.4529
 21
-15.373
  0
LINE
  8
0
 10
36.4529
 20
-15.373
 11
36.4266
 21
-15.4635
  0
LINE
  8
0
 10
36.4266
 20
-15.4635
 11
36.3947
 21
-15.5522
  0
LINE
  8
0
 10
36.3947
 20
-15.5522
 11
36.3573
 21
-15.6387
  0
LINE
  8
0
 10
36.3573
 20
-15.6387
 11
36.3145
 21
-15.7226
  0
LINE
  8
0
 10
36.3145
 20
-15.7226
 11
36.2665
 21
-15.8037
  0
LINE
  8
0
 10
36.2665
 20
-15.8037
 11
36.2135
 21
-15.8817
  0
LINE
  8
0
 10
36.2135
 20
-15.8817
 11
36.1558
 21
-15.9561
  0
LINE
  8
0
 10
36.1558
 20
-15.9561
 11
36.0935
 21
-16.0268
  0
LINE
  8
0
 10
36.0935
 20
-16.0268
 11
36.0268
 21
-16.0934
  0
LINE
  8
0
 10
36.0268
 20
-16.0934
 11
35.9561
 21
-16.1558
  0
LINE
  8
0
 10
35.9561
 20
-16.1558
 11
35.8817
 21
-16.2135
  0
LINE
  8
0
 10
35.8817
 20
-16.2135
 11
35.8037
 21
-16.2665
  0
LINE
  8
0
 10
35.8037
 20
-16.2665
 11
35.7226
 21
-16.3145
  0
LINE
  8
0
 10
35.7226
 20
-16.3145
 11
35.6387
 21
-16.3572
  0
LINE
  8
0
 10
35.6387
 20
-16.3572
 11
35.5522
 21
-16.3947
  0
LINE
  8
0
 10
35.5522
 20
-16.3947
 11
35.4635
 21
-16.4266
  0
LINE
  8
0
 10
35.4635
 20
-16.4266
 11
35.373
 21
-16.4529
  0
LINE
  8
0
 10
35.373
 20
-16.4529
 11
35.2811
 21
-16.4734
  0
LINE
  8
0
 10
35.2811
 20
-16.4734
 11
35.188
 21
-16.4882
  0
LINE
  8
0
 10
35.188
 20
-16.4882
 11
35.0942
 21
-16.497
  0
LINE
  8
0
 10
35.0942
 20
-16.497
 11
35
 21
-16.5
  0
LINE
  8
0
 10
35
 20
-16.5
 11
34.9058
 21
-16.497
  0
LINE
  8
0
 10
64.9058
 20
-16.497
 11
64.812
 21
-16.4882
  0
LINE
  8
0
 10
64.812
 20
-16.4882
 11
64.7189
 21
-16.4734
  0
LINE
  8
0
 10
64.7189
 20
-16.4734
 11
64.627
 21
-16.4529
  0
LINE
  8
0
 10
64.627
 20
-16.4529
 11
64.5365
 21
-16.4266
  0
LINE
  8
0
 10
64.5365
 20
-16.4266
 11
64.4478
 21
-16.3947
  0
LINE
  8
0
 10
64.4478
 20
-16.3947
 11
64.3613
 21
-16.3572
  0
LINE
  8
0
 10
64.3613
 20
-16.3572
 11
64.2774
 21
-16.3145
  0
LINE
  8
0
 10
64.2774
 20
-16.3145
 11
64.1963
 21
-16.2665
  0
LINE
  8
0
 10
64.1963
 20
-16.2665
 11
64.1183
 21
-16.2135
  0
LINE
  8
0
 10
64.1183
 20
-16.2135
 11
64.0439
 21
-16.1558
  0
LINE
  8
0
 10
64.0439
 20
-16.1558
 11
63.9732
 21
-16.0934
  0
LINE
  8
0
 10
63.9732
 20
-16.0934
 11
63.9065
 21
-16.0268
  0
LINE
  8
0
 10
63.9065
 20
-16.0268
 11
63.8442
 21
-15.9561
  0
LINE
  8
0
 10
63.8442
 20
-15.9561
 11
63.7865
 21
-15.8817
  0
LINE
  8
0
 10
63.7865
 20
-15.8817
 11
63.7335
 21
-15.8037
  0
LINE
  8
0
 10
63.7335
 20
-15.8037
 11
63.6855
 21
-15.7226
  0
LINE
  8
0
 10
63.6855
 20
-15.7226
 11
63.6427
 21
-15.6387
  0
LINE
  8
0
 10
63.6427
 20
-15.6387
 11
63.6053
 21
-15.5522
  0
LINE
  8
0
 10
63.6053
 20
-15.5522
 11
63.5734
 21
-15.4635
  0
LINE
  8
0
 10
63.5734
 20
-15.4635
 11
63.5471
 21
-15.373
  0
LINE
  8
0
 10
63.5471
 20
-15.373
 11
63.5266
 21
-15.2811
  0
LINE
  8
0
 10
63.5266
 20
-15.2811
 11
63.5118
 21
-15.188
  0
LINE
  8
0
 10
63.5118
 20
-15.188
 11
63.5029
 21
-15.0942
  0
LINE
  8
0
 10
63.5029
 20
-15.0942
 11
63.5
 21
-15
  0
LINE
  8
0
 10
63.5
 20
-15
 11
63.5029
 21
-14.9058
  0
LINE
  8
0
 10
63.5029
 20
-14.9058
 11
63.5118
 21
-14.812
  0
LINE
  8
0
 10
63.5118
 20
-14.812
 11
63.5266
 21
-14.7189
  0
LINE
  8
0
 10
63.5266
 20
-14.7189
 11
63.5471
 21
-14.627
  0
LINE
  8
0
 10
63.5471
 20
-14.627
 11
63.5734
 21
-14.5365
  0
LINE
  8
0
 10
63.5734
 20
-14.5365
 11
63.6053
 21
-14.4478
  0
LINE
  8
0
 10
63.6053
 20
-14.4478
 11
63.6427
 21
-14.3613
  0
LINE
  8
0
 10
63.6427
 20
-14.3613
 11
63.6855
 21
-14.2774
  0
LINE
  8
0
 10
63.6855
 20
-14.2774
 11
63.7335
 21
-14.1963
  0
LINE
  8
0
 10
63.7335
 20
-14.1963
 11
63.7865
 21
-14.1183
  0
LINE
  8
0
 10
63.7865
 20
-14.1183
 11
63.8442
 21
-14.0439
  0
LINE
  8
0
 10
63.8442
 20
-14.0439
 11
63.9065
 21
-13.9732
  0
LINE
  8
0
 10
63.9065
 20
-13.9732
 11
63.9732
 21
-13.9065
  0
LINE
  8
0
 10
63.9732
 20
-13.9065
 11
64.0439
 21
-13.8442
  0
LINE
  8
0
 10
64.0439
 20
-13.8442
 11
64.1183
 21
-13.7865
  0
LINE
  8
0
 10
64.1183
 20
-13.7865
 11
64.1963
 21
-13.7335
  0
LINE
  8
0
 10
64.1963
 20
-13.7335
 11
64.2774
 21
-13.6855
  0
LINE
  8
0
 10
64.2774
 20
-13.6855
 11
64.3613
 21
-13.6427
  0
LINE
  8
0
 10
64.3613
 20
-13.6427
 11
64.4478
 21
-13.6053
  0
LINE
  8
0
 10
64.4478
 20
-13.6053
 11
64.5365
 21
-13.5734
  0
LINE
  8
0
 10
64.5365
 20
-13.5734
 11
64.627
 21
-13.5471
  0
LINE
  8
0
 10
64.627
 20
-13.5471
 11
64.7189
 21
-13.5266
  0
LINE
  8
0
 10
64.7189
 20
-13.5266
 11
64.812
 21
-13.5118
  0
LINE
  8
0
 10
64.812
 20
-13.5118
 11
64.9058
 21
-13.5029
  0
LINE
  8
0
 10
64.9058
 20
-13.5029
 11
65
 21
-13.5
  0
LINE
  8
0
 10
65
 20
-13.5
 11
65.0942
 21
-13.5029
  0
LINE
  8
0
 10
65.0942
 20
-13.5029
 11
65.188
 21
-13.5118
  0
LINE
  8
0
 10
65.188
 20
-13.5118
 11
65.2811
 21
-13.5266
  0
LINE
  8
0
 10
65.2811
 20
-13.5266
 11
65.373
 21
-13.5471
  0
LINE
  8
0
 10
65.373
 20
-13.5471
 11
65.4635
 21
-13.5734
  0
LINE
  8
0
 10
65.4635
 20
-13.5734
 11
65.5522
 21
-13.6053
  0
LINE
  8
0
 10
65.5522
 20
-13.6053
 11
65.6387
 21
-13.6427
  0
LINE
  8
0
 10
65.6387
 20
-13.6427
 11
65.7226
 21
-13.6855
  0
LINE
  8
0
 10
65.7226
 20
-13.6855
 11
65.8037
 21
-13.7335
  0
LINE
  8
0
 10
65.8037
 20
-13.7335
 11
65.8817
 21
-13.7865
  0
LINE
  8
0
 10
65.8817
 20
-13.7865
 11
65.9561
 21
-13.8442
  0
LINE
  8
0
 10
65.9561
 20
-13.8442
 11
66.0268
 21
-13.9065
  0
LINE
  8
0
 10
66.0268
 20
-13.9065
 11
66.0934
 21
-13.9732
  0
LINE
  8
0
 10
66.0934
 20
-13.9732
 11
66.1558
 21
-14.0439
  0
LINE
  8
0
 10
66.1558
 20
-14.0439
 11
66.2135
 21
-14.1183
  0
LINE
  8
0
 10
66.2135
 20
-14.1183
 11
66.2665
 21
-14.1963
  0
LINE
  8
0
 10
66.2665
 20
-14.1963
 11
66.3145
 21
-14.2774
  0
LINE
  8
0
 10
66.3145
 20
-14.2774
 11
66.3572
 21
-14.3613
  0
LINE
  8
0
 10
66.3572
 20
-14.3613
 11
66.3947
 21
-14.4478
  0
LINE
  8
0
 10
66.3947
 20
-14.4478
 11
66.4266
 21
-14.5365
  0
LINE
  8
0
 10
66.4266
 20
-14.5365
 11
66.4529
 21
-14.627
  0
LINE
  8
0
 10
66.4529
 20
-14.627
 11
66.4734
 21
-14.7189
  0
LINE
  8
0
 10
66.4734
 20
-14.7189
 11
66.4882
 21
-14.812
  0
LINE
  8
0
 10
66.4882
 20
-14.812
 11
66.497
 21
-14.9058
  0
LINE
  8
0
 10
66.497
 20
-14.9058
 11
66.5
 21
-15
  0
LINE
  8
0
 10
66.5
 20
-15
 11
66.497
 21
-15.0942
  0
LINE
  8
0
 10
66.497
 20
-15.0942
 11
66.4882
 21
-15.188
  0
LINE
  8
0
 10
66.4882
 20
-15.188
 11
66.4734
 21
-15.2811
  0
LINE
  8
0
 10
66.4734
 20
-15.2811
 11
66.4529
 21
-15.373
  0
LINE
  8
0
 10
66.4529
 20
-15.373
 11
66.4266
 21
-15.4635
  0
LINE
  8
0
 10
66.4266
 20
-15.4635
 11
66.3947
 21
-15.5522
  0
LINE
  8
0
 10
66.3947
 20
-15.5522
 11
66.3572
 21
-15.6387
  0
LINE
  8
0
 10
66.3572
 20
-15.6387
 11
66.3145
 21
-15.7226
  0
LINE
  8
0
 10
66.3145
 20
-15.7226
 11
66.2665
 21
-15.8037
  0
LINE
  8
0
 10
66.2665
 20
-15.8037
 11
66.2135
 21
-15.8817
  0
LINE
  8
0
 10
66.2135
 20
-15.8817
 11
66.1558
 21
-15.9561
  0
LINE
  8
0
 10
66.1558
 20
-15.9561
 11
66.0934
 21
-16.0268
  0
LINE
  8
0
 10
66.0934
 20
-16.0268
 11
66.0268
 21
-16.0934
  0
LINE
  8
0
 10
66.0268
 20
-16.0934
 11
65.9561
 21
-16.1558
  0
LINE
  8
0
 10
65.9561
 20
-16.1558
 11
65.8817
 21
-16.2135
  0
LINE
  8
0
 10
65.8817
 20
-16.2135
 11
65.8037
 21
-16.2665
  0
LINE
  8
0
 10
65.8037
 20
-16.2665
 11
65.7226
 21
-16.3145
  0
LINE
  8
0
 10
65.7226
 20
-16.3145
 11
65.6387
 21
-16.3572
  0
LINE
  8
0
 10
65.6387
 20
-16.3572
 11
65.5522
 21
-16.3947
  0
LINE
  8
0
 10
65.5522
 20
-16.3947
 11
65.4635
 21
-16.4266
  0
LINE
  8
0
 10
65.4635
 20
-16.4266
 11
65.373
 21
-16.4529
  0
LINE
  8
0
 10
65.373
 20
-16.4529
 11
65.2811
 21
-16.4734
  0
LINE
  8
0
 10
65.2811
 20
-16.4734
 11
65.188
 21
-16.4882
  0
LINE
  8
0
 10
65.188
 20
-16.4882
 11
65.0942
 21
-16.497
  0
LINE
  8
0
 10
65.0942
 20
-16.497
 11
65
 21
-16.5
  0
LINE
  8
0
 10
65
 20
-16.5
 11
64.9058
 21
-16.497
  0
LINE
  8
0
 10
-20.5511
 20
-35.4921
 11
-20.8013
 21
-35.4684
  0
LINE
  8
0
 10
-20.8013
 20
-35.4684
 11
-21.0495
 21
-35.4291
  0
LINE
  8
0
 10
-21.0495
 20
-35.4291
 11
-21.2948
 21
-35.3743
  0
LINE
  8
0
 10
-21.2948
 20
-35.3743
 11
-21.5361
 21
-35.3042
  0
LINE
  8
0
 10
-21.5361
 20
-35.3042
 11
-21.7725
 21
-35.2191
  0
LINE
  8
0
 10
-21.7725
 20
-35.2191
 11
-22.0031
 21
-35.1193
  0
LINE
  8
0
 10
-22.0031
 20
-35.1193
 11
-22.227
 21
-35.0052
  0
LINE
  8
0
 10
-22.227
 20
-35.0052
 11
-22.4433
 21
-34.8773
  0
LINE
  8
0
 10
-22.4433
 20
-34.8773
 11
-22.6511
 21
-34.7361
  0
LINE
  8
0
 10
-22.6511
 20
-34.7361
 11
-22.8497
 21
-34.582
  0
LINE
  8
0
 10
-22.8497
 20
-34.582
 11
-23.0382
 21
-34.4159
  0
LINE
  8
0
 10
-23.0382
 20
-34.4159
 11
-23.2159
 21
-34.2382
  0
LINE
  8
0
 10
-23.2159
 20
-34.2382
 11
-23.382
 21
-34.0497
  0
LINE
  8
0
 10
-23.382
 20
-34.0497
 11
-23.5361
 21
-33.8511
  0
LINE
  8
0
 10
-23.5361
 20
-33.8511
 11
-23.6773
 21
-33.6433
  0
LINE
  8
0
 10
-23.6773
 20
-33.6433
 11
-23.8052
 21
-33.427
  0
LINE
  8
0
 10
-23.8052
 20
-33.427
 11
-23.9193
 21
-33.2031
  0
LINE
  8
0
 10
-23.9193
 20
-33.2031
 11
-24.0191
 21
-32.9725
  0
LINE
  8
0
 10
-24.0191
 20
-32.9725
 11
-24.1042
 21
-32.7361
  0
LINE
  8
0
 10
-24.1042
 20
-32.7361
 11
-24.1743
 21
-32.4948
  0
LINE
  8
0
 10
-24.1743
 20
-32.4948
 11
-24.2291
 21
-32.2495
  0
LINE
  8
0
 10
-24.2291
 20
-32.2495
 11
-24.2684
 21
-32.0013
  0
LINE
  8
0
 10
-24.2684
 20
-32.0013
 11
-24.2921
 21
-31.7512
  0
LINE
  8
0
 10
-24.2921
 20
-31.7512
 11
-24.3
 21
-31.5
  0
LINE
  8
0
 10
-24.3
 20
-31.5
 11
-24.2921
 21
-31.2488
  0
LINE
  8
0
 10
-24.2921
 20
-31.2488
 11
-24.2684
 21
-30.9987
  0
LINE
  8
0
 10
-24.2684
 20
-30.9987
 11
-24.2291
 21
-30.7505
  0
LINE
  8
0
 10
-24.2291
 20
-30.7505
 11
-24.1743
 21
-30.5052
  0
LINE
  8
0
 10
-24.1743
 20
-30.5052
 11
-24.1042
 21
-30.2639
  0
LINE
  8
0
 10
-24.1042
 20
-30.2639
 11
-24.0191
 21
-30.0275
  0
LINE
  8
0
 10
-24.0191
 20
-30.0275
 11
-23.9193
 21
-29.7969
  0
LINE
  8
0
 10
-23.9193
 20
-29.7969
 11
-23.8052
 21
-29.573
  0
LINE
  8
0
 10
-23.8052
 20
-29.573
 11
-23.6773
 21
-29.3567
  0
LINE
  8
0
 10
-23.6773
 20
-29.3567
 11
-23.5361
 21
-29.1488
  0
LINE
  8
0
 10
-23.5361
 20
-29.1488
 11
-23.382
 21
-28.9503
  0
LINE
  8
0
 10
-23.382
 20
-28.9503
 11
-23.2159
 21
-28.7618
  0
LINE
  8
0
 10
-23.2159
 20
-28.7618
 11
-23.0382
 21
-28.5841
  0
LINE
  8
0
 10
-23.0382
 20
-28.5841
 11
-22.8497
 21
-28.4179
  0
LINE
  8
0
 10
-22.8497
 20
-28.4179
 11
-22.6511
 21
-28.2639
  0
LINE
  8
0
 10
-22.6511
 20
-28.2639
 11
-22.4433
 21
-28.1227
  0
LINE
  8
0
 10
-22.4433
 20
-28.1227
 11
-22.227
 21
-27.9948
  0
LINE
  8
0
 10
-22.227
 20
-27.9948
 11
-22.0031
 21
-27.8807
  0
LINE
  8
0
 10
-22.0031
 20
-27.8807
 11
-21.7725
 21
-27.7809
  0
LINE
  8
0
 10
-21.7725
 20
-27.7809
 11
-21.5361
 21
-27.6958
  0
LINE
  8
0
 10
-21.5361
 20
-27.6958
 11
-21.2948
 21
-27.6257
  0
LINE
  8
0
 10
-21.2948
 20
-27.6257
 11
-21.0495
 21
-27.5708
  0
LINE
  8
0
 10
-21.0495
 20
-27.5708
 11
-20.8013
 21
-27.5315
  0
LINE
  8
0
 10
-20.8013
 20
-27.5315
 11
-20.5511
 21
-27.5079
  0
LINE
  8
0
 10
-20.5511
 20
-27.5079
 11
-20.3
 21
-27.5
  0
LINE
  8
0
 10
-20.3
 20
-27.5
 11
-20.0488
 21
-27.5079
  0
LINE
  8
0
 10
-20.0488
 20
-27.5079
 11
-19.7987
 21
-27.5315
  0
LINE
  8
0
 10
-19.7987
 20
-27.5315
 11
-19.5505
 21
-27.5708
  0
LINE
  8
0
 10
-19.5505
 20
-27.5708
 11
-19.3052
 21
-27.6257
  0
LINE
  8
0
 10
-19.3052
 20
-27.6257
 11
-19.0639
 21
-27.6958
  0
LINE
  8
0
 10
-19.0639
 20
-27.6958
 11
-18.8275
 21
-27.7809
  0
LINE
  8
0
 10
-18.8275
 20
-27.7809
 11
-18.5969
 21
-27.8807
  0
LINE
  8
0
 10
-18.5969
 20
-27.8807
 11
-18.373
 21
-27.9948
  0
LINE
  8
0
 10
-18.373
 20
-27.9948
 11
-18.1567
 21
-28.1227
  0
LINE
  8
0
 10
-18.1567
 20
-28.1227
 11
-17.9489
 21
-28.2639
  0
LINE
  8
0
 10
-17.9489
 20
-28.2639
 11
-17.7503
 21
-28.4179
  0
LINE
  8
0
 10
-17.7503
 20
-28.4179
 11
-17.5618
 21
-28.5841
  0
LINE
  8
0
 10
-17.5618
 20
-28.5841
 11
-17.3841
 21
-28.7618
  0
LINE
  8
0
 10
-17.3841
 20
-28.7618
 11
-17.2179
 21
-28.9503
  0
LINE
  8
0
 10
-17.2179
 20
-28.9503
 11
-17.0639
 21
-29.1488
  0
LINE
  8
0
 10
-17.0639
 20
-29.1488
 11
-16.9227
 21
-29.3567
  0
LINE
  8
0
 10
-16.9227
 20
-29.3567
 11
-16.7948
 21
-29.573
  0
LINE
  8
0
 10
-16.7948
 20
-29.573
 11
-16.6807
 21
-29.7969
  0
LINE
  8
0
 10
-16.6807
 20
-29.7969
 11
-16.5809
 21
-30.0275
  0
LINE
  8
0
 10
-16.5809
 20
-30.0275
 11
-16.4958
 21
-30.2639
  0
LINE
  8
0
 10
-16.4958
 20
-30.2639
 11
-16.4257
 21
-30.5052
  0
LINE
  8
0
 10
-16.4257
 20
-30.5052
 11
-16.3708
 21
-30.7505
  0
LINE
  8
0
 10
-16.3708
 20
-30.7505
 11
-16.3315
 21
-30.9987
  0
LINE
  8
0
 10
-16.3315
 20
-30.9987
 11
-16.3079
 21
-31.2488
  0
LINE
  8
0
 10
-16.3079
 20
-31.2488
 11
-16.3
 21
-31.5
  0
LINE
  8
0
 10
-16.3
 20
-31.5
 11
-16.3079
 21
-31.7512
  0
LINE
  8
0
 10
-16.3079
 20
-31.7512
 11
-16.3315
 21
-32.0013
  0
LINE
  8
0
 10
-16.3315
 20
-32.0013
 11
-16.3708
 21
-32.2495
  0
LINE
  8
0
 10
-16.3708
 20
-32.2495
 11
-16.4257
 21
-32.4948
  0
LINE
  8
0
 10
-16.4257
 20
-32.4948
 11
-16.4958
 21
-32.7361
  0
LINE
  8
0
 10
-16.4958
 20
-32.7361
 11
-16.5809
 21
-32.9725
  0
LINE
  8
0
 10
-16.5809
 20
-32.9725
 11
-16.6807
 21
-33.2031
  0
LINE
  8
0
 10
-16.6807
 20
-33.2031
 11
-16.7948
 21
-33.427
  0
LINE
  8
0
 10
-16.7948
 20
-33.427
 11
-16.9227
 21
-33.6433
  0
LINE
  8
0
 10
-16.9227
 20
-33.6433
 11
-17.0639
 21
-33.8511
  0
LINE
  8
0
 10
-17.0639
 20
-33.8511
 11
-17.2179
 21
-34.0497
  0
LINE
  8
0
 10
-17.2179
 20
-34.0497
 11
-17.3841
 21
-34.2382
  0
LINE
  8
0
 10
-17.3841
 20
-34.2382
 11
-17.5618
 21
-34.4159
  0
LINE
  8
0
 10
-17.5618
 20
-34.4159
 11
-17.7503
 21
-34.582
  0
LINE
  8
0
 10
-17.7503
 20
-34.582
 11
-17.9489
 21
-34.7361
  0
LINE
  8
0
 10
-17.9489
 20
-34.7361
 11
-18.1567
 21
-34.8773
  0
LINE
  8
0
 10
-18.1567
 20
-34.8773
 11
-18.373
 21
-35.0052
  0
LINE
  8
0
 10
-18.373
 20
-35.0052
 11
-18.5969
 21
-35.1193
  0
LINE
  8
0
 10
-18.5969
 20
-35.1193
 11
-18.8275
 21
-35.2191
  0
LINE
  8
0
 10
-18.8275
 20
-35.2191
 11
-19.0639
 21
-35.3042
  0
LINE
  8
0
 10
-19.0639
 20
-35.3042
 11
-19.3052
 21
-35.3743
  0
LINE
  8
0
 10
-19.3052
 20
-35.3743
 11
-19.5505
 21
-35.4291
  0
LINE
  8
0
 10
-19.5505
 20
-35.4291
 11
-19.7987
 21
-35.4684
  0
LINE
  8
0
 10
-19.7987
 20
-35.4684
 11
-20.0488
 21
-35.4921
  0
LINE
  8
0
 10
-20.0488
 20
-35.4921
 11
-20.3
 21
-35.5
  0
LINE
  8
0
 10
-20.3
 20
-35.5
 11
-20.5511
 21
-35.4921
  0
LINE
  8
0
 10
20.0488
 20
-35.4921
 11
19.7987
 21
-35.4684
  0
LINE
  8
0
 10
19.7987
 20
-35.4684
 11
19.5505
 21
-35.4291
  0
LINE
  8
0
 10
19.5505
 20
-35.4291
 11
19.3052
 21
-35.3743
  0
LINE
  8
0
 10
19.3052
 20
-35.3743
 11
19.0639
 21
-35.3042
  0
LINE
  8
0
 10
19.0639
 20
-35.3042
 11
18.8275
 21
-35.2191
  0
LINE
  8
0
 10
18.8275
 20
-35.2191
 11
18.5969
 21
-35.1193
  0
LINE
  8
0
 10
18.5969
 20
-35.1193
 11
18.373
 21
-35.0052
  0
LINE
  8
0
 10
18.373
 20
-35.0052
 11
18.1567
 21
-34.8773
  0
LINE
  8
0
 10
18.1567
 20
-34.8773
 11
17.9489
 21
-34.7361
  0
LINE
  8
0
 10
17.9489
 20
-34.7361
 11
17.7503
 21
-34.582
  0
LINE
  8
0
 10
17.7503
 20
-34.582
 11
17.5618
 21
-34.4159
  0
LINE
  8
0
 10
17.5618
 20
-34.4159
 11
17.3841
 21
-34.2382
  0
LINE
  8
0
 10
17.3841
 20
-34.2382
 11
17.2179
 21
-34.0497
  0
LINE
  8
0
 10
17.2179
 20
-34.0497
 11
17.0639
 21
-33.8511
  0
LINE
  8
0
 10
17.0639
 20
-33.8511
 11
16.9227
 21
-33.6433
  0
LINE
  8
0
 10
16.9227
 20
-33.6433
 11
16.7948
 21
-33.427
  0
LINE
  8
0
 10
16.7948
 20
-33.427
 11
16.6807
 21
-33.2031
  0
LINE
  8
0
 10
16.6807
 20
-33.2031
 11
16.5809
 21
-32.9725
  0
LINE
  8
0
 10
16.5809
 20
-32.9725
 11
16.4958
 21
-32.7361
  0
LINE
  8
0
 10
16.4958
 20
-32.7361
 11
16.4257
 21
-32.4948
  0
LINE
  8
0
 10
16.4257
 20
-32.4948
 11
16.3708
 21
-32.2495
  0
LINE
  8
0
 10
16.3708
 20
-32.2495
 11
16.3315
 21
-32.0013
  0
LINE
  8
0
 10
16.3315
 20
-32.0013
 11
16.3079
 21
-31.7512
  0
LINE
  8
0
 10
16.3079
 20
-31.7512
 11
16.3
 21
-31.5
  0
LINE
  8
0
 10
16.3
 20
-31.5
 11
16.3079
 21
-31.2488
  0
LINE
  8
0
 10
16.3079
 20
-31.2488
 11
16.3315
 21
-30.9987
  0
LINE
  8
0
 10
16.3315
 20
-30.9987
 11
16.3708
 21
-30.7505
  0
LINE
  8
0
 10
16.3708
 20
-30.7505
 11
16.4257
 21
-30.5052
  0
LINE
  8
0
 10
16.4257
 20
-30.5052
 11
16.4958
 21
-30.2639
  0
LINE
  8
0
 10
16.4958
 20
-30.2639
 11
16.5809
 21
-30.0275
  0
LINE
  8
0
 10
16.5809
 20
-30.0275
 11
16.6807
 21
-29.7969
  0
LINE
  8
0
 10
16.6807
 20
-29.7969
 11
16.7948
 21
-29.573
  0
LINE
  8
0
 10
16.7948
 20
-29.573
 11
16.9227
 21
-29.3567
  0
LINE
  8
0
 10
16.9227
 20
-29.3567
 11
17.0639
 21
-29.1488
  0
LINE
  8
0
 10
17.0639
 20
-29.1488
 11
17.2179
 21
-28.9503
  0
LINE
  8
0
 10
17.2179
 20
-28.9503
 11
17.3841
 21
-28.7618
  0
LINE
  8
0
 10
17.3841
 20
-28.7618
 11
17.5618
 21
-28.5841
  0
LINE
  8
0
 10
17.5618
 20
-28.5841
 11
17.7503
 21
-28.4179
  0
LINE
  8
0
 10
17.7503
 20
-28.4179
 11
17.9489
 21
-28.2639
  0
LINE
  8
0
 10
17.9489
 20
-28.2639
 11
18.1567
 21
-28.1227
  0
LINE
  8
0
 10
18.1567
 20
-28.1227
 11
18.373
 21
-27.9948
  0
LINE
  8
0
 10
18.373
 20
-27.9948
 11
18.5969
 21
-27.8807
  0
LINE
  8
0
 10
18.5969
 20
-27.8807
 11
18.8275
 21
-27.7809
  0
LINE
  8
0
 10
18.8275
 20
-27.7809
 11
19.0639
 21
-27.6958
  0
LINE
  8
0
 10
19.0639
 20
-27.6958
 11
19.3052
 21
-27.6257
  0
LINE
  8
0
 10
19.3052
 20
-27.6257
 11
19.5505
 21
-27.5708
  0
LINE
  8
0
 10
19.5505
 20
-27.5708
 11
19.7987
 21
-27.5315
  0
LINE
  8
0
 10
19.7987
 20
-27.5315
 11
20.0488
 21
-27.5079
  0
LINE
  8
0
 10
20.0488
 20
-27.5079
 11
20.3
 21
-27.5
  0
LINE
  8
0
 10
20.3
 20
-27.5
 11
20.5511
 21
-27.5079
  0
LINE
  8
0
 10
20.5511
 20
-27.5079
 11
20.8013
 21
-27.5315
  0
LINE
  8
0
 10
20.8013
 20
-27.5315
 11
21.0495
 21
-27.5708
  0
LINE
  8
0
 10
21.0495
 20
-27.5708
 11
21.2948
 21
-27.6257
  0
LINE
  8
0
 10
21.2948
 20
-27.6257
 11
21.5361
 21
-27.6958
  0
LINE
  8
0
 10
21.5361
 20
-27.6958
 11
21.7725
 21
-27.7809
  0
LINE
  8
0
 10
21.7725
 20
-27.7809
 11
22.0031
 21
-27.8807
  0
LINE
  8
0
 10
22.0031
 20
-27.8807
 11
22.227
 21
-27.9948
  0
LINE
  8
0
 10
22.227
 20
-27.9948
 11
22.4433
 21
-28.1227
  0
LINE
  8
0
 10
22.4433
 20
-28.1227
 11
22.6511
 21
-28.2639
  0
LINE
  8
0
 10
22.6511
 20
-28.2639
 11
22.8497
 21
-28.4179
  0
LINE
  8
0
 10
22.8497
 20
-28.4179
 11
23.0382
 21
-28.5841
  0
LINE
  8
0
 10
23.0382
 20
-28.5841
 11
23.2159
 21
-28.7618
  0
LINE
  8
0
 10
23.2159
 20
-28.7618
 11
23.382
 21
-28.9503
  0
LINE
  8
0
 10
23.382
 20
-28.9503
 11
23.5361
 21
-29.1488
  0
LINE
  8
0
 10
23.5361
 20
-29.1488
 11
23.6773
 21
-29.3567
  0
LINE
  8
0
 10
23.6773
 20
-29.3567
 11
23.8052
 21
-29.573
  0
LINE
  8
0
 10
23.8052
 20
-29.573
 11
23.9193
 21
-29.7969
  0
LINE
  8
0
 10
23.9193
 20
-29.7969
 11
24.0191
 21
-30.0275
  0
LINE
  8
0
 10
24.0191
 20
-30.0275
 11
24.1042
 21
-30.2639
  0
LINE
  8
0
 10
24.1042
 20
-30.2639
 11
24.1743
 21
-30.5052
  0
LINE
  8
0
 10
24.1743
 20
-30.5052
 11
24.2291
 21
-30.7505
  0
LINE
  8
0
 10
24.2291
 20
-30.7505
 11
24.2684
 21
-30.9987
  0
LINE
  8
0
 10
24.2684
 20
-30.9987
 11
24.2921
 21
-31.2488
  0
LINE
  8
0
 10
24.2921
 20
-31.2488
 11
24.3
 21
-31.5
  0
LINE
  8
0
 10
24.3
 20
-31.5
 11
24.2921
 21
-31.7512
  0
LINE
  8
0
 10
24.2921
 20
-31.7512
 11
24.2684
 21
-32.0013
  0
LINE
  8
0
 10
24.2684
 20
-32.0013
 11
24.2291
 21
-32.2495
  0
LINE
  8
0
 10
24.2291
 20
-32.2495
 11
24.1743
 21
-32.4948
  0
LINE
  8
0
 10
24.1743
 20
-32.4948
 11
24.1042
 21
-32.7361
  0
LINE
  8
0
 10
24.1042
 20
-32.7361
 11
24.0191
 21
-32.9725
  0
LINE
  8
0
 10
24.0191
 20
-32.9725
 11
23.9193
 21
-33.2031
  0
LINE
  8
0
 10
23.9193
 20
-33.2031
 11
23.8052
 21
-33.427
  0
LINE
  8
0
 10
23.8052
 20
-33.427
 11
23.6773
 21
-33.6433
  0
LINE
  8
0
 10
23.6773
 20
-33.6433
 11
23.5361
 21
-33.8511
  0
LINE
  8
0
 10
23.5361
 20
-33.8511
 11
23.382
 21
-34.0497
  0
LINE
  8
0
 10
23.382
 20
-34.0497
 11
23.2159
 21
-34.2382
  0
LINE
  8
0
 10
23.2159
 20
-34.2382
 11
23.0382
 21
-34.4159
  0
LINE
  8
0
 10
23.0382
 20
-34.4159
 11
22.8497
 21
-34.582
  0
LINE
  8
0
 10
22.8497
 20
-34.582
 11
22.6511
 21
-34.7361
  0
LINE
  8
0
 10
22.6511
 20
-34.7361
 11
22.4433
 21
-34.8773
  0
LINE
  8
0
 10
22.4433
 20
-34.8773
 11
22.227
 21
-35.0052
  0
LINE
  8
0
 10
22.227
 20
-35.0052
 11
22.0031
 21
-35.1193
  0
LINE
  8
0
 10
22.0031
 20
-35.1193
 11
21.7725
 21
-35.2191
  0
LINE
  8
0
 10
21.7725
 20
-35.2191
 11
21.5361
 21
-35.3042
  0
LINE
  8
0
 10
21.5361
 20
-35.3042
 11
21.2948
 21
-35.3743
  0
LINE
  8
0
 10
21.2948
 20
-35.3743
 11
21.0495
 21
-35.4291
  0
LINE
  8
0
 10
21.0495
 20
-35.4291
 11
20.8013
 21
-35.4684
  0
LINE
  8
0
 10
20.8013
 20
-35.4684
 11
20.5511
 21
-35.4921
  0
LINE
  8
0
 10
20.5511
 20
-35.4921
 11
20.3
 21
-35.5
  0
LINE
  8
0
 10
20.3
 20
-35.5
 11
20.0488
 21
-35.4921
  0
ENDSEC
  0
SECTION
  2
OBJECTS
  0
DICTIONARY
  0
ENDSEC
  0
EOF
