  0
SECTION
  2
BLOCKS
  0
ENDSEC
  0
SECTION
  2
ENTITIES
  0
LINE
  8
0
 10
90
 20
51
 11
-50
 21
51
  0
LINE
  8
0
 10
-50
 20
51
 11
-50
 21
-51
  0
LINE
  8
0
 10
-50
 20
-51
 11
90
 21
-51
  0
LINE
  8
0
 10
90
 20
-51
 11
90
 21
51
  0
LINE
  8
0
 10
-0.141266
 20
40.2544
 11
-0.281998
 21
40.2677
  0
LINE
  8
0
 10
-0.281998
 20
40.2677
 11
-0.4216
 21
40.2898
  0
LINE
  8
0
 10
-0.4216
 20
40.2898
 11
-0.55954
 21
40.3207
  0
LINE
  8
0
 10
-0.55954
 20
40.3207
 11
-0.695282
 21
40.3601
  0
LINE
  8
0
 10
-0.695282
 20
40.3601
 11
-0.828278
 21
40.408
  0
LINE
  8
0
 10
-0.828278
 20
40.408
 11
-0.957993
 21
40.4641
  0
LINE
  8
0
 10
-0.957993
 20
40.4641
 11
-1.08394
 21
40.5283
  0
LINE
  8
0
 10
-1.08394
 20
40.5283
 11
-1.2056
 21
40.6003
  0
LINE
  8
0
 10
-1.2056
 20
40.6003
 11
-1.32251
 21
40.6797
  0
LINE
  8
0
 10
-1.32251
 20
40.6797
 11
-1.43419
 21
40.7663
  0
LINE
  8
0
 10
-1.43419
 20
40.7663
 11
-1.54022
 21
40.8598
  0
LINE
  8
0
 10
-1.54022
 20
40.8598
 11
-1.64017
 21
40.9598
  0
LINE
  8
0
 10
-1.64017
 20
40.9598
 11
-1.73364
 21
41.0658
  0
LINE
  8
0
 10
-1.73364
 20
41.0658
 11
-1.82028
 21
41.1775
  0
LINE
  8
0
 10
-1.82028
 20
41.1775
 11
-1.89973
 21
41.2944
  0
LINE
  8
0
 10
-1.89973
 20
41.2944
 11
-1.97168
 21
41.416
  0
LINE
  8
0
 10
-1.97168
 20
41.416
 11
-2.03586
 21
41.542
  0
LINE
  8
0
 10
-2.03586
 20
41.542
 11
-2.092
 21
41.6717
  0
LINE
  8
0
 10
-2.092
 20
41.6717
 11
-2.13986
 21
41.8047
  0
LINE
  8
0
 10
-2.13986
 20
41.8047
 11
-2.17931
 21
41.9404
  0
LINE
  8
0
 10
-2.17931
 20
41.9404
 11
-2.21014
 21
42.0784
  0
LINE
  8
0
 10
-2.21014
 20
42.0784
 11
-2.23225
 21
42.218
  0
LINE
  8
0
 10
-2.23225
 20
42.218
 11
-2.24556
 21
42.3587
  0
LINE
  8
0
 10
-2.24556
 20
42.3587
 11
-2.25
 21
42.5
  0
LINE
  8
0
 10
-2.25
 20
42.5
 11
-2.24556
 21
42.6413
  0
LINE
  8
0
 10
-2.24556
 20
42.6413
 11
-2.23225
 21
42.782
  0
LINE
  8
0
 10
-2.23225
 20
42.782
 11
-2.21014
 21
42.9216
  0
LINE
  8
0
 10
-2.21014
 20
42.9216
 11
-2.17931
 21
43.0595
  0
LINE
  8
0
 10
-2.17931
 20
43.0595
 11
-2.13986
 21
43.1953
  0
LINE
  8
0
 10
-2.13986
 20
43.1953
 11
-2.092
 21
43.3283
  0
LINE
  8
0
 10
-2.092
 20
43.3283
 11
-2.03586
 21
43.458
  0
LINE
  8
0
 10
-2.03586
 20
43.458
 11
-1.97168
 21
43.5839
  0
LINE
  8
0
 10
-1.97168
 20
43.5839
 11
-1.89973
 21
43.7056
  0
LINE
  8
0
 10
-1.89973
 20
43.7056
 11
-1.82028
 21
43.8225
  0
LINE
  8
0
 10
-1.82028
 20
43.8225
 11
-1.73364
 21
43.9342
  0
LINE
  8
0
 10
-1.73364
 20
43.9342
 11
-1.64017
 21
44.0402
  0
LINE
  8
0
 10
-1.64017
 20
44.0402
 11
-1.54022
 21
44.1402
  0
LINE
  8
0
 10
-1.54022
 20
44.1402
 11
-1.43419
 21
44.2336
  0
LINE
  8
0
 10
-1.43419
 20
44.2336
 11
-1.32251
 21
44.3203
  0
LINE
  8
0
 10
-1.32251
 20
44.3203
 11
-1.2056
 21
44.3997
  0
LINE
  8
0
 10
-1.2056
 20
44.3997
 11
-1.08394
 21
44.4717
  0
LINE
  8
0
 10
-1.08394
 20
44.4717
 11
-0.957993
 21
44.5359
  0
LINE
  8
0
 10
-0.957993
 20
44.5359
 11
-0.828278
 21
44.592
  0
LINE
  8
0
 10
-0.828278
 20
44.592
 11
-0.695282
 21
44.6399
  0
LINE
  8
0
 10
-0.695282
 20
44.6399
 11
-0.55954
 21
44.6793
  0
LINE
  8
0
 10
-0.55954
 20
44.6793
 11
-0.4216
 21
44.7101
  0
LINE
  8
0
 10
-0.4216
 20
44.7101
 11
-0.281998
 21
44.7323
  0
LINE
  8
0
 10
-0.281998
 20
44.7323
 11
-0.141266
 21
44.7456
  0
LINE
  8
0
 10
-0.141266
 20
44.7456
 11
0
 21
44.75
  0
LINE
  8
0
 10
0
 20
44.75
 11
0.141266
 21
44.7456
  0
LINE
  8
0
 10
0.141266
 20
44.7456
 11
0.281998
 21
44.7323
  0
LINE
  8
0
 10
0.281998
 20
44.7323
 11
0.4216
 21
44.7101
  0
LINE
  8
0
 10
0.4216
 20
44.7101
 11
0.55954
 21
44.6793
  0
LINE
  8
0
 10
0.55954
 20
44.6793
 11
0.695282
 21
44.6399
  0
LINE
  8
0
 10
0.695282
 20
44.6399
 11
0.828278
 21
44.592
  0
LINE
  8
0
 10
0.828278
 20
44.592
 11
0.957993
 21
44.5359
  0
LINE
  8
0
 10
0.957993
 20
44.5359
 11
1.08394
 21
44.4717
  0
LINE
  8
0
 10
1.08394
 20
44.4717
 11
1.2056
 21
44.3997
  0
LINE
  8
0
 10
1.2056
 20
44.3997
 11
1.32251
 21
44.3203
  0
LINE
  8
0
 10
1.32251
 20
44.3203
 11
1.43419
 21
44.2336
  0
LINE
  8
0
 10
1.43419
 20
44.2336
 11
1.54022
 21
44.1402
  0
LINE
  8
0
 10
1.54022
 20
44.1402
 11
1.64017
 21
44.0402
  0
LINE
  8
0
 10
1.64017
 20
44.0402
 11
1.73364
 21
43.9342
  0
LINE
  8
0
 10
1.73364
 20
43.9342
 11
1.82028
 21
43.8225
  0
LINE
  8
0
 10
1.82028
 20
43.8225
 11
1.89973
 21
43.7056
  0
LINE
  8
0
 10
1.89973
 20
43.7056
 11
1.97168
 21
43.5839
  0
LINE
  8
0
 10
1.97168
 20
43.5839
 11
2.03586
 21
43.458
  0
LINE
  8
0
 10
2.03586
 20
43.458
 11
2.092
 21
43.3283
  0
LINE
  8
0
 10
2.092
 20
43.3283
 11
2.13986
 21
43.1953
  0
LINE
  8
0
 10
2.13986
 20
43.1953
 11
2.17931
 21
43.0595
  0
LINE
  8
0
 10
2.17931
 20
43.0595
 11
2.21014
 21
42.9216
  0
LINE
  8
0
 10
2.21014
 20
42.9216
 11
2.23225
 21
42.782
  0
LINE
  8
0
 10
2.23225
 20
42.782
 11
2.24556
 21
42.6413
  0
LINE
  8
0
 10
2.24556
 20
42.6413
 11
2.25
 21
42.5
  0
LINE
  8
0
 10
2.25
 20
42.5
 11
2.24556
 21
42.3587
  0
LINE
  8
0
 10
2.24556
 20
42.3587
 11
2.23225
 21
42.218
  0
LINE
  8
0
 10
2.23225
 20
42.218
 11
2.21014
 21
42.0784
  0
LINE
  8
0
 10
2.21014
 20
42.0784
 11
2.17931
 21
41.9404
  0
LINE
  8
0
 10
2.17931
 20
41.9404
 11
2.13986
 21
41.8047
  0
LINE
  8
0
 10
2.13986
 20
41.8047
 11
2.092
 21
41.6717
  0
LINE
  8
0
 10
2.092
 20
41.6717
 11
2.03586
 21
41.542
  0
LINE
  8
0
 10
2.03586
 20
41.542
 11
1.97168
 21
41.416
  0
LINE
  8
0
 10
1.97168
 20
41.416
 11
1.89973
 21
41.2944
  0
LINE
  8
0
 10
1.89973
 20
41.2944
 11
1.82028
 21
41.1775
  0
LINE
  8
0
 10
1.82028
 20
41.1775
 11
1.73364
 21
41.0658
  0
LINE
  8
0
 10
1.73364
 20
41.0658
 11
1.64017
 21
40.9598
  0
LINE
  8
0
 10
1.64017
 20
40.9598
 11
1.54022
 21
40.8598
  0
LINE
  8
0
 10
1.54022
 20
40.8598
 11
1.43419
 21
40.7663
  0
LINE
  8
0
 10
1.43419
 20
40.7663
 11
1.32251
 21
40.6797
  0
LINE
  8
0
 10
1.32251
 20
40.6797
 11
1.2056
 21
40.6003
  0
LINE
  8
0
 10
1.2056
 20
40.6003
 11
1.08394
 21
40.5283
  0
LINE
  8
0
 10
1.08394
 20
40.5283
 11
0.957993
 21
40.4641
  0
LINE
  8
0
 10
0.957993
 20
40.4641
 11
0.828278
 21
40.408
  0
LINE
  8
0
 10
0.828278
 20
40.408
 11
0.695282
 21
40.3601
  0
LINE
  8
0
 10
0.695282
 20
40.3601
 11
0.55954
 21
40.3207
  0
LINE
  8
0
 10
0.55954
 20
40.3207
 11
0.4216
 21
40.2898
  0
LINE
  8
0
 10
0.4216
 20
40.2898
 11
0.281998
 21
40.2677
  0
LINE
  8
0
 10
0.281998
 20
40.2677
 11
0.141266
 21
40.2544
  0
LINE
  8
0
 10
0.141266
 20
40.2544
 11
0
 21
40.25
  0
LINE
  8
0
 10
0
 20
40.25
 11
-0.141266
 21
40.2544
  0
LINE
  8
0
 10
74.8587
 20
40.2544
 11
74.718
 21
40.2677
  0
LINE
  8
0
 10
74.718
 20
40.2677
 11
74.5784
 21
40.2898
  0
LINE
  8
0
 10
74.5784
 20
40.2898
 11
74.4404
 21
40.3207
  0
LINE
  8
0
 10
74.4404
 20
40.3207
 11
74.3047
 21
40.3601
  0
LINE
  8
0
 10
74.3047
 20
40.3601
 11
74.1717
 21
40.408
  0
LINE
  8
0
 10
74.1717
 20
40.408
 11
74.042
 21
40.4641
  0
LINE
  8
0
 10
74.042
 20
40.4641
 11
73.916
 21
40.5283
  0
LINE
  8
0
 10
73.916
 20
40.5283
 11
73.7944
 21
40.6003
  0
LINE
  8
0
 10
73.7944
 20
40.6003
 11
73.6775
 21
40.6797
  0
LINE
  8
0
 10
73.6775
 20
40.6797
 11
73.5658
 21
40.7663
  0
LINE
  8
0
 10
73.5658
 20
40.7663
 11
73.4598
 21
40.8598
  0
LINE
  8
0
 10
73.4598
 20
40.8598
 11
73.3598
 21
40.9598
  0
LINE
  8
0
 10
73.3598
 20
40.9598
 11
73.2663
 21
41.0658
  0
LINE
  8
0
 10
73.2663
 20
41.0658
 11
73.1797
 21
41.1775
  0
LINE
  8
0
 10
73.1797
 20
41.1775
 11
73.1003
 21
41.2944
  0
LINE
  8
0
 10
73.1003
 20
41.2944
 11
73.0283
 21
41.416
  0
LINE
  8
0
 10
73.0283
 20
41.416
 11
72.9641
 21
41.542
  0
LINE
  8
0
 10
72.9641
 20
41.542
 11
72.908
 21
41.6717
  0
LINE
  8
0
 10
72.908
 20
41.6717
 11
72.8601
 21
41.8047
  0
LINE
  8
0
 10
72.8601
 20
41.8047
 11
72.8207
 21
41.9404
  0
LINE
  8
0
 10
72.8207
 20
41.9404
 11
72.7898
 21
42.0784
  0
LINE
  8
0
 10
72.7898
 20
42.0784
 11
72.7677
 21
42.218
  0
LINE
  8
0
 10
72.7677
 20
42.218
 11
72.7544
 21
42.3587
  0
LINE
  8
0
 10
72.7544
 20
42.3587
 11
72.75
 21
42.5
  0
LINE
  8
0
 10
72.75
 20
42.5
 11
72.7544
 21
42.6413
  0
LINE
  8
0
 10
72.7544
 20
42.6413
 11
72.7677
 21
42.782
  0
LINE
  8
0
 10
72.7677
 20
42.782
 11
72.7898
 21
42.9216
  0
LINE
  8
0
 10
72.7898
 20
42.9216
 11
72.8207
 21
43.0595
  0
LINE
  8
0
 10
72.8207
 20
43.0595
 11
72.8601
 21
43.1953
  0
LINE
  8
0
 10
72.8601
 20
43.1953
 11
72.908
 21
43.3283
  0
LINE
  8
0
 10
72.908
 20
43.3283
 11
72.9641
 21
43.458
  0
LINE
  8
0
 10
72.9641
 20
43.458
 11
73.0283
 21
43.5839
  0
LINE
  8
0
 10
73.0283
 20
43.5839
 11
73.1003
 21
43.7056
  0
LINE
  8
0
 10
73.1003
 20
43.7056
 11
73.1797
 21
43.8225
  0
LINE
  8
0
 10
73.1797
 20
43.8225
 11
73.2663
 21
43.9342
  0
LINE
  8
0
 10
73.2663
 20
43.9342
 11
73.3598
 21
44.0402
  0
LINE
  8
0
 10
73.3598
 20
44.0402
 11
73.4598
 21
44.1402
  0
LINE
  8
0
 10
73.4598
 20
44.1402
 11
73.5658
 21
44.2336
  0
LINE
  8
0
 10
73.5658
 20
44.2336
 11
73.6775
 21
44.3203
  0
LINE
  8
0
 10
73.6775
 20
44.3203
 11
73.7944
 21
44.3997
  0
LINE
  8
0
 10
73.7944
 20
44.3997
 11
73.916
 21
44.4717
  0
LINE
  8
0
 10
73.916
 20
44.4717
 11
74.042
 21
44.5359
  0
LINE
  8
0
 10
74.042
 20
44.5359
 11
74.1717
 21
44.592
  0
LINE
  8
0
 10
74.1717
 20
44.592
 11
74.3047
 21
44.6399
  0
LINE
  8
0
 10
74.3047
 20
44.6399
 11
74.4404
 21
44.6793
  0
LINE
  8
0
 10
74.4404
 20
44.6793
 11
74.5784
 21
44.7101
  0
LINE
  8
0
 10
74.5784
 20
44.7101
 11
74.718
 21
44.7323
  0
LINE
  8
0
 10
74.718
 20
44.7323
 11
74.8587
 21
44.7456
  0
LINE
  8
0
 10
74.8587
 20
44.7456
 11
75
 21
44.75
  0
LINE
  8
0
 10
75
 20
44.75
 11
75.1413
 21
44.7456
  0
LINE
  8
0
 10
75.1413
 20
44.7456
 11
75.282
 21
44.7323
  0
LINE
  8
0
 10
75.282
 20
44.7323
 11
75.4216
 21
44.7101
  0
LINE
  8
0
 10
75.4216
 20
44.7101
 11
75.5595
 21
44.6793
  0
LINE
  8
0
 10
75.5595
 20
44.6793
 11
75.6953
 21
44.6399
  0
LINE
  8
0
 10
75.6953
 20
44.6399
 11
75.8283
 21
44.592
  0
LINE
  8
0
 10
75.8283
 20
44.592
 11
75.958
 21
44.5359
  0
LINE
  8
0
 10
75.958
 20
44.5359
 11
76.0839
 21
44.4717
  0
LINE
  8
0
 10
76.0839
 20
44.4717
 11
76.2056
 21
44.3997
  0
LINE
  8
0
 10
76.2056
 20
44.3997
 11
76.3225
 21
44.3203
  0
LINE
  8
0
 10
76.3225
 20
44.3203
 11
76.4342
 21
44.2336
  0
LINE
  8
0
 10
76.4342
 20
44.2336
 11
76.5402
 21
44.1402
  0
LINE
  8
0
 10
76.5402
 20
44.1402
 11
76.6402
 21
44.0402
  0
LINE
  8
0
 10
76.6402
 20
44.0402
 11
76.7336
 21
43.9342
  0
LINE
  8
0
 10
76.7336
 20
43.9342
 11
76.8203
 21
43.8225
  0
LINE
  8
0
 10
76.8203
 20
43.8225
 11
76.8997
 21
43.7056
  0
LINE
  8
0
 10
76.8997
 20
43.7056
 11
76.9717
 21
43.5839
  0
LINE
  8
0
 10
76.9717
 20
43.5839
 11
77.0359
 21
43.458
  0
LINE
  8
0
 10
77.0359
 20
43.458
 11
77.092
 21
43.3283
  0
LINE
  8
0
 10
77.092
 20
43.3283
 11
77.1399
 21
43.1953
  0
LINE
  8
0
 10
77.1399
 20
43.1953
 11
77.1793
 21
43.0595
  0
LINE
  8
0
 10
77.1793
 20
43.0595
 11
77.2101
 21
42.9216
  0
LINE
  8
0
 10
77.2101
 20
42.9216
 11
77.2323
 21
42.782
  0
LINE
  8
0
 10
77.2323
 20
42.782
 11
77.2456
 21
42.6413
  0
LINE
  8
0
 10
77.2456
 20
42.6413
 11
77.25
 21
42.5
  0
LINE
  8
0
 10
77.25
 20
42.5
 11
77.2456
 21
42.3587
  0
LINE
  8
0
 10
77.2456
 20
42.3587
 11
77.2323
 21
42.218
  0
LINE
  8
0
 10
77.2323
 20
42.218
 11
77.2101
 21
42.0784
  0
LINE
  8
0
 10
77.2101
 20
42.0784
 11
77.1793
 21
41.9404
  0
LINE
  8
0
 10
77.1793
 20
41.9404
 11
77.1399
 21
41.8047
  0
LINE
  8
0
 10
77.1399
 20
41.8047
 11
77.092
 21
41.6717
  0
LINE
  8
0
 10
77.092
 20
41.6717
 11
77.0359
 21
41.542
  0
LINE
  8
0
 10
77.0359
 20
41.542
 11
76.9717
 21
41.416
  0
LINE
  8
0
 10
76.9717
 20
41.416
 11
76.8997
 21
41.2944
  0
LINE
  8
0
 10
76.8997
 20
41.2944
 11
76.8203
 21
41.1775
  0
LINE
  8
0
 10
76.8203
 20
41.1775
 11
76.7336
 21
41.0658
  0
LINE
  8
0
 10
76.7336
 20
41.0658
 11
76.6402
 21
40.9598
  0
LINE
  8
0
 10
76.6402
 20
40.9598
 11
76.5402
 21
40.8598
  0
LINE
  8
0
 10
76.5402
 20
40.8598
 11
76.4342
 21
40.7663
  0
LINE
  8
0
 10
76.4342
 20
40.7663
 11
76.3225
 21
40.6797
  0
LINE
  8
0
 10
76.3225
 20
40.6797
 11
76.2056
 21
40.6003
  0
LINE
  8
0
 10
76.2056
 20
40.6003
 11
76.0839
 21
40.5283
  0
LINE
  8
0
 10
76.0839
 20
40.5283
 11
75.958
 21
40.4641
  0
LINE
  8
0
 10
75.958
 20
40.4641
 11
75.8283
 21
40.408
  0
LINE
  8
0
 10
75.8283
 20
40.408
 11
75.6953
 21
40.3601
  0
LINE
  8
0
 10
75.6953
 20
40.3601
 11
75.5595
 21
40.3207
  0
LINE
  8
0
 10
75.5595
 20
40.3207
 11
75.4216
 21
40.2898
  0
LINE
  8
0
 10
75.4216
 20
40.2898
 11
75.282
 21
40.2677
  0
LINE
  8
0
 10
75.282
 20
40.2677
 11
75.1413
 21
40.2544
  0
LINE
  8
0
 10
75.1413
 20
40.2544
 11
75
 21
40.25
  0
LINE
  8
0
 10
75
 20
40.25
 11
74.8587
 21
40.2544
  0
LINE
  8
0
 10
30.0488
 20
27.5079
 11
29.7987
 21
27.5315
  0
LINE
  8
0
 10
29.7987
 20
27.5315
 11
29.5505
 21
27.5708
  0
LINE
  8
0
 10
29.5505
 20
27.5708
 11
29.3052
 21
27.6257
  0
LINE
  8
0
 10
29.3052
 20
27.6257
 11
29.0639
 21
27.6958
  0
LINE
  8
0
 10
29.0639
 20
27.6958
 11
28.8275
 21
27.7809
  0
LINE
  8
0
 10
28.8275
 20
27.7809
 11
28.5969
 21
27.8807
  0
LINE
  8
0
 10
28.5969
 20
27.8807
 11
28.373
 21
27.9948
  0
LINE
  8
0
 10
28.373
 20
27.9948
 11
28.1567
 21
28.1227
  0
LINE
  8
0
 10
28.1567
 20
28.1227
 11
27.9489
 21
28.2639
  0
LINE
  8
0
 10
27.9489
 20
28.2639
 11
27.7503
 21
28.4179
  0
LINE
  8
0
 10
27.7503
 20
28.4179
 11
27.5618
 21
28.5841
  0
LINE
  8
0
 10
27.5618
 20
28.5841
 11
27.3841
 21
28.7618
  0
LINE
  8
0
 10
27.3841
 20
28.7618
 11
27.2179
 21
28.9503
  0
LINE
  8
0
 10
27.2179
 20
28.9503
 11
27.0639
 21
29.1488
  0
LINE
  8
0
 10
27.0639
 20
29.1488
 11
26.9227
 21
29.3567
  0
LINE
  8
0
 10
26.9227
 20
29.3567
 11
26.7948
 21
29.573
  0
LINE
  8
0
 10
26.7948
 20
29.573
 11
26.6807
 21
29.7969
  0
LINE
  8
0
 10
26.6807
 20
29.7969
 11
26.5809
 21
30.0275
  0
LINE
  8
0
 10
26.5809
 20
30.0275
 11
26.4958
 21
30.2639
  0
LINE
  8
0
 10
26.4958
 20
30.2639
 11
26.4257
 21
30.5052
  0
LINE
  8
0
 10
26.4257
 20
30.5052
 11
26.3708
 21
30.7505
  0
LINE
  8
0
 10
26.3708
 20
30.7505
 11
26.3315
 21
30.9987
  0
LINE
  8
0
 10
26.3315
 20
30.9987
 11
26.3079
 21
31.2488
  0
LINE
  8
0
 10
26.3079
 20
31.2488
 11
26.3
 21
31.5
  0
LINE
  8
0
 10
26.3
 20
31.5
 11
26.3079
 21
31.7512
  0
LINE
  8
0
 10
26.3079
 20
31.7512
 11
26.3315
 21
32.0013
  0
LINE
  8
0
 10
26.3315
 20
32.0013
 11
26.3708
 21
32.2495
  0
LINE
  8
0
 10
26.3708
 20
32.2495
 11
26.4257
 21
32.4948
  0
LINE
  8
0
 10
26.4257
 20
32.4948
 11
26.4958
 21
32.7361
  0
LINE
  8
0
 10
26.4958
 20
32.7361
 11
26.5809
 21
32.9725
  0
LINE
  8
0
 10
26.5809
 20
32.9725
 11
26.6807
 21
33.2031
  0
LINE
  8
0
 10
26.6807
 20
33.2031
 11
26.7948
 21
33.427
  0
LINE
  8
0
 10
26.7948
 20
33.427
 11
26.9227
 21
33.6433
  0
LINE
  8
0
 10
26.9227
 20
33.6433
 11
27.0639
 21
33.8511
  0
LINE
  8
0
 10
27.0639
 20
33.8511
 11
27.2179
 21
34.0497
  0
LINE
  8
0
 10
27.2179
 20
34.0497
 11
27.3841
 21
34.2382
  0
LINE
  8
0
 10
27.3841
 20
34.2382
 11
27.5618
 21
34.4159
  0
LINE
  8
0
 10
27.5618
 20
34.4159
 11
27.7503
 21
34.582
  0
LINE
  8
0
 10
27.7503
 20
34.582
 11
27.9489
 21
34.7361
  0
LINE
  8
0
 10
27.9489
 20
34.7361
 11
28.1567
 21
34.8773
  0
LINE
  8
0
 10
28.1567
 20
34.8773
 11
28.373
 21
35.0052
  0
LINE
  8
0
 10
28.373
 20
35.0052
 11
28.5969
 21
35.1193
  0
LINE
  8
0
 10
28.5969
 20
35.1193
 11
28.8275
 21
35.2191
  0
LINE
  8
0
 10
28.8275
 20
35.2191
 11
29.0639
 21
35.3042
  0
LINE
  8
0
 10
29.0639
 20
35.3042
 11
29.3052
 21
35.3743
  0
LINE
  8
0
 10
29.3052
 20
35.3743
 11
29.5505
 21
35.4291
  0
LINE
  8
0
 10
29.5505
 20
35.4291
 11
29.7987
 21
35.4684
  0
LINE
  8
0
 10
29.7987
 20
35.4684
 11
30.0488
 21
35.4921
  0
LINE
  8
0
 10
30.0488
 20
35.4921
 11
30.3
 21
35.5
  0
LINE
  8
0
 10
30.3
 20
35.5
 11
30.5511
 21
35.4921
  0
LINE
  8
0
 10
30.5511
 20
35.4921
 11
30.8013
 21
35.4684
  0
LINE
  8
0
 10
30.8013
 20
35.4684
 11
31.0495
 21
35.4291
  0
LINE
  8
0
 10
31.0495
 20
35.4291
 11
31.2948
 21
35.3743
  0
LINE
  8
0
 10
31.2948
 20
35.3743
 11
31.5361
 21
35.3042
  0
LINE
  8
0
 10
31.5361
 20
35.3042
 11
31.7725
 21
35.2191
  0
LINE
  8
0
 10
31.7725
 20
35.2191
 11
32.0031
 21
35.1193
  0
LINE
  8
0
 10
32.0031
 20
35.1193
 11
32.227
 21
35.0052
  0
LINE
  8
0
 10
32.227
 20
35.0052
 11
32.4433
 21
34.8773
  0
LINE
  8
0
 10
32.4433
 20
34.8773
 11
32.6511
 21
34.7361
  0
LINE
  8
0
 10
32.6511
 20
34.7361
 11
32.8497
 21
34.582
  0
LINE
  8
0
 10
32.8497
 20
34.582
 11
33.0382
 21
34.4159
  0
LINE
  8
0
 10
33.0382
 20
34.4159
 11
33.2159
 21
34.2382
  0
LINE
  8
0
 10
33.2159
 20
34.2382
 11
33.382
 21
34.0497
  0
LINE
  8
0
 10
33.382
 20
34.0497
 11
33.5361
 21
33.8511
  0
LINE
  8
0
 10
33.5361
 20
33.8511
 11
33.6773
 21
33.6433
  0
LINE
  8
0
 10
33.6773
 20
33.6433
 11
33.8052
 21
33.427
  0
LINE
  8
0
 10
33.8052
 20
33.427
 11
33.9193
 21
33.2031
  0
LINE
  8
0
 10
33.9193
 20
33.2031
 11
34.0191
 21
32.9725
  0
LINE
  8
0
 10
34.0191
 20
32.9725
 11
34.1042
 21
32.7361
  0
LINE
  8
0
 10
34.1042
 20
32.7361
 11
34.1743
 21
32.4948
  0
LINE
  8
0
 10
34.1743
 20
32.4948
 11
34.2291
 21
32.2495
  0
LINE
  8
0
 10
34.2291
 20
32.2495
 11
34.2684
 21
32.0013
  0
LINE
  8
0
 10
34.2684
 20
32.0013
 11
34.2921
 21
31.7512
  0
LINE
  8
0
 10
34.2921
 20
31.7512
 11
34.3
 21
31.5
  0
LINE
  8
0
 10
34.3
 20
31.5
 11
34.2921
 21
31.2488
  0
LINE
  8
0
 10
34.2921
 20
31.2488
 11
34.2684
 21
30.9987
  0
LINE
  8
0
 10
34.2684
 20
30.9987
 11
34.2291
 21
30.7505
  0
LINE
  8
0
 10
34.2291
 20
30.7505
 11
34.1743
 21
30.5052
  0
LINE
  8
0
 10
34.1743
 20
30.5052
 11
34.1042
 21
30.2639
  0
LINE
  8
0
 10
34.1042
 20
30.2639
 11
34.0191
 21
30.0275
  0
LINE
  8
0
 10
34.0191
 20
30.0275
 11
33.9193
 21
29.7969
  0
LINE
  8
0
 10
33.9193
 20
29.7969
 11
33.8052
 21
29.573
  0
LINE
  8
0
 10
33.8052
 20
29.573
 11
33.6773
 21
29.3567
  0
LINE
  8
0
 10
33.6773
 20
29.3567
 11
33.5361
 21
29.1488
  0
LINE
  8
0
 10
33.5361
 20
29.1488
 11
33.382
 21
28.9503
  0
LINE
  8
0
 10
33.382
 20
28.9503
 11
33.2159
 21
28.7618
  0
LINE
  8
0
 10
33.2159
 20
28.7618
 11
33.0382
 21
28.5841
  0
LINE
  8
0
 10
33.0382
 20
28.5841
 11
32.8497
 21
28.4179
  0
LINE
  8
0
 10
32.8497
 20
28.4179
 11
32.6511
 21
28.2639
  0
LINE
  8
0
 10
32.6511
 20
28.2639
 11
32.4433
 21
28.1227
  0
LINE
  8
0
 10
32.4433
 20
28.1227
 11
32.227
 21
27.9948
  0
LINE
  8
0
 10
32.227
 20
27.9948
 11
32.0031
 21
27.8807
  0
LINE
  8
0
 10
32.0031
 20
27.8807
 11
31.7725
 21
27.7809
  0
LINE
  8
0
 10
31.7725
 20
27.7809
 11
31.5361
 21
27.6958
  0
LINE
  8
0
 10
31.5361
 20
27.6958
 11
31.2948
 21
27.6257
  0
LINE
  8
0
 10
31.2948
 20
27.6257
 11
31.0495
 21
27.5708
  0
LINE
  8
0
 10
31.0495
 20
27.5708
 11
30.8013
 21
27.5315
  0
LINE
  8
0
 10
30.8013
 20
27.5315
 11
30.5511
 21
27.5079
  0
LINE
  8
0
 10
30.5511
 20
27.5079
 11
30.3
 21
27.5
  0
LINE
  8
0
 10
30.3
 20
27.5
 11
30.0488
 21
27.5079
  0
LINE
  8
0
 10
-30.5511
 20
27.5079
 11
-30.8013
 21
27.5315
  0
LINE
  8
0
 10
-30.8013
 20
27.5315
 11
-31.0495
 21
27.5708
  0
LINE
  8
0
 10
-31.0495
 20
27.5708
 11
-31.2948
 21
27.6257
  0
LINE
  8
0
 10
-31.2948
 20
27.6257
 11
-31.5361
 21
27.6958
  0
LINE
  8
0
 10
-31.5361
 20
27.6958
 11
-31.7725
 21
27.7809
  0
LINE
  8
0
 10
-31.7725
 20
27.7809
 11
-32.0031
 21
27.8807
  0
LINE
  8
0
 10
-32.0031
 20
27.8807
 11
-32.227
 21
27.9948
  0
LINE
  8
0
 10
-32.227
 20
27.9948
 11
-32.4433
 21
28.1227
  0
LINE
  8
0
 10
-32.4433
 20
28.1227
 11
-32.6511
 21
28.2639
  0
LINE
  8
0
 10
-32.6511
 20
28.2639
 11
-32.8497
 21
28.4179
  0
LINE
  8
0
 10
-32.8497
 20
28.4179
 11
-33.0382
 21
28.5841
  0
LINE
  8
0
 10
-33.0382
 20
28.5841
 11
-33.2159
 21
28.7618
  0
LINE
  8
0
 10
-33.2159
 20
28.7618
 11
-33.382
 21
28.9503
  0
LINE
  8
0
 10
-33.382
 20
28.9503
 11
-33.5361
 21
29.1488
  0
LINE
  8
0
 10
-33.5361
 20
29.1488
 11
-33.6773
 21
29.3567
  0
LINE
  8
0
 10
-33.6773
 20
29.3567
 11
-33.8052
 21
29.573
  0
LINE
  8
0
 10
-33.8052
 20
29.573
 11
-33.9193
 21
29.7969
  0
LINE
  8
0
 10
-33.9193
 20
29.7969
 11
-34.0191
 21
30.0275
  0
LINE
  8
0
 10
-34.0191
 20
30.0275
 11
-34.1042
 21
30.2639
  0
LINE
  8
0
 10
-34.1042
 20
30.2639
 11
-34.1743
 21
30.5052
  0
LINE
  8
0
 10
-34.1743
 20
30.5052
 11
-34.2291
 21
30.7505
  0
LINE
  8
0
 10
-34.2291
 20
30.7505
 11
-34.2684
 21
30.9987
  0
LINE
  8
0
 10
-34.2684
 20
30.9987
 11
-34.2921
 21
31.2488
  0
LINE
  8
0
 10
-34.2921
 20
31.2488
 11
-34.3
 21
31.5
  0
LINE
  8
0
 10
-34.3
 20
31.5
 11
-34.2921
 21
31.7512
  0
LINE
  8
0
 10
-34.2921
 20
31.7512
 11
-34.2684
 21
32.0013
  0
LINE
  8
0
 10
-34.2684
 20
32.0013
 11
-34.2291
 21
32.2495
  0
LINE
  8
0
 10
-34.2291
 20
32.2495
 11
-34.1743
 21
32.4948
  0
LINE
  8
0
 10
-34.1743
 20
32.4948
 11
-34.1042
 21
32.7361
  0
LINE
  8
0
 10
-34.1042
 20
32.7361
 11
-34.0191
 21
32.9725
  0
LINE
  8
0
 10
-34.0191
 20
32.9725
 11
-33.9193
 21
33.2031
  0
LINE
  8
0
 10
-33.9193
 20
33.2031
 11
-33.8052
 21
33.427
  0
LINE
  8
0
 10
-33.8052
 20
33.427
 11
-33.6773
 21
33.6433
  0
LINE
  8
0
 10
-33.6773
 20
33.6433
 11
-33.5361
 21
33.8511
  0
LINE
  8
0
 10
-33.5361
 20
33.8511
 11
-33.382
 21
34.0497
  0
LINE
  8
0
 10
-33.382
 20
34.0497
 11
-33.2159
 21
34.2382
  0
LINE
  8
0
 10
-33.2159
 20
34.2382
 11
-33.0382
 21
34.4159
  0
LINE
  8
0
 10
-33.0382
 20
34.4159
 11
-32.8497
 21
34.582
  0
LINE
  8
0
 10
-32.8497
 20
34.582
 11
-32.6511
 21
34.7361
  0
LINE
  8
0
 10
-32.6511
 20
34.7361
 11
-32.4433
 21
34.8773
  0
LINE
  8
0
 10
-32.4433
 20
34.8773
 11
-32.227
 21
35.0052
  0
LINE
  8
0
 10
-32.227
 20
35.0052
 11
-32.0031
 21
35.1193
  0
LINE
  8
0
 10
-32.0031
 20
35.1193
 11
-31.7725
 21
35.2191
  0
LINE
  8
0
 10
-31.7725
 20
35.2191
 11
-31.5361
 21
35.3042
  0
LINE
  8
0
 10
-31.5361
 20
35.3042
 11
-31.2948
 21
35.3743
  0
LINE
  8
0
 10
-31.2948
 20
35.3743
 11
-31.0495
 21
35.4291
  0
LINE
  8
0
 10
-31.0495
 20
35.4291
 11
-30.8013
 21
35.4684
  0
LINE
  8
0
 10
-30.8013
 20
35.4684
 11
-30.5511
 21
35.4921
  0
LINE
  8
0
 10
-30.5511
 20
35.4921
 11
-30.3
 21
35.5
  0
LINE
  8
0
 10
-30.3
 20
35.5
 11
-30.0488
 21
35.4921
  0
LINE
  8
0
 10
-30.0488
 20
35.4921
 11
-29.7987
 21
35.4684
  0
LINE
  8
0
 10
-29.7987
 20
35.4684
 11
-29.5505
 21
35.4291
  0
LINE
  8
0
 10
-29.5505
 20
35.4291
 11
-29.3052
 21
35.3743
  0
LINE
  8
0
 10
-29.3052
 20
35.3743
 11
-29.0639
 21
35.3042
  0
LINE
  8
0
 10
-29.0639
 20
35.3042
 11
-28.8275
 21
35.2191
  0
LINE
  8
0
 10
-28.8275
 20
35.2191
 11
-28.5969
 21
35.1193
  0
LINE
  8
0
 10
-28.5969
 20
35.1193
 11
-28.373
 21
35.0052
  0
LINE
  8
0
 10
-28.373
 20
35.0052
 11
-28.1567
 21
34.8773
  0
LINE
  8
0
 10
-28.1567
 20
34.8773
 11
-27.9489
 21
34.7361
  0
LINE
  8
0
 10
-27.9489
 20
34.7361
 11
-27.7503
 21
34.582
  0
LINE
  8
0
 10
-27.7503
 20
34.582
 11
-27.5618
 21
34.4159
  0
LINE
  8
0
 10
-27.5618
 20
34.4159
 11
-27.3841
 21
34.2382
  0
LINE
  8
0
 10
-27.3841
 20
34.2382
 11
-27.2179
 21
34.0497
  0
LINE
  8
0
 10
-27.2179
 20
34.0497
 11
-27.0639
 21
33.8511
  0
LINE
  8
0
 10
-27.0639
 20
33.8511
 11
-26.9227
 21
33.6433
  0
LINE
  8
0
 10
-26.9227
 20
33.6433
 11
-26.7948
 21
33.427
  0
LINE
  8
0
 10
-26.7948
 20
33.427
 11
-26.6807
 21
33.2031
  0
LINE
  8
0
 10
-26.6807
 20
33.2031
 11
-26.5809
 21
32.9725
  0
LINE
  8
0
 10
-26.5809
 20
32.9725
 11
-26.4958
 21
32.7361
  0
LINE
  8
0
 10
-26.4958
 20
32.7361
 11
-26.4257
 21
32.4948
  0
LINE
  8
0
 10
-26.4257
 20
32.4948
 11
-26.3708
 21
32.2495
  0
LINE
  8
0
 10
-26.3708
 20
32.2495
 11
-26.3315
 21
32.0013
  0
LINE
  8
0
 10
-26.3315
 20
32.0013
 11
-26.3079
 21
31.7512
  0
LINE
  8
0
 10
-26.3079
 20
31.7512
 11
-26.3
 21
31.5
  0
LINE
  8
0
 10
-26.3
 20
31.5
 11
-26.3079
 21
31.2488
  0
LINE
  8
0
 10
-26.3079
 20
31.2488
 11
-26.3315
 21
30.9987
  0
LINE
  8
0
 10
-26.3315
 20
30.9987
 11
-26.3708
 21
30.7505
  0
LINE
  8
0
 10
-26.3708
 20
30.7505
 11
-26.4257
 21
30.5052
  0
LINE
  8
0
 10
-26.4257
 20
30.5052
 11
-26.4958
 21
30.2639
  0
LINE
  8
0
 10
-26.4958
 20
30.2639
 11
-26.5809
 21
30.0275
  0
LINE
  8
0
 10
-26.5809
 20
30.0275
 11
-26.6807
 21
29.7969
  0
LINE
  8
0
 10
-26.6807
 20
29.7969
 11
-26.7948
 21
29.573
  0
LINE
  8
0
 10
-26.7948
 20
29.573
 11
-26.9227
 21
29.3567
  0
LINE
  8
0
 10
-26.9227
 20
29.3567
 11
-27.0639
 21
29.1488
  0
LINE
  8
0
 10
-27.0639
 20
29.1488
 11
-27.2179
 21
28.9503
  0
LINE
  8
0
 10
-27.2179
 20
28.9503
 11
-27.3841
 21
28.7618
  0
LINE
  8
0
 10
-27.3841
 20
28.7618
 11
-27.5618
 21
28.5841
  0
LINE
  8
0
 10
-27.5618
 20
28.5841
 11
-27.7503
 21
28.4179
  0
LINE
  8
0
 10
-27.7503
 20
28.4179
 11
-27.9489
 21
28.2639
  0
LINE
  8
0
 10
-27.9489
 20
28.2639
 11
-28.1567
 21
28.1227
  0
LINE
  8
0
 10
-28.1567
 20
28.1227
 11
-28.373
 21
27.9948
  0
LINE
  8
0
 10
-28.373
 20
27.9948
 11
-28.5969
 21
27.8807
  0
LINE
  8
0
 10
-28.5969
 20
27.8807
 11
-28.8275
 21
27.7809
  0
LINE
  8
0
 10
-28.8275
 20
27.7809
 11
-29.0639
 21
27.6958
  0
LINE
  8
0
 10
-29.0639
 20
27.6958
 11
-29.3052
 21
27.6257
  0
LINE
  8
0
 10
-29.3052
 20
27.6257
 11
-29.5505
 21
27.5708
  0
LINE
  8
0
 10
-29.5505
 20
27.5708
 11
-29.7987
 21
27.5315
  0
LINE
  8
0
 10
-29.7987
 20
27.5315
 11
-30.0488
 21
27.5079
  0
LINE
  8
0
 10
-30.0488
 20
27.5079
 11
-30.3
 21
27.5
  0
LINE
  8
0
 10
-30.3
 20
27.5
 11
-30.5511
 21
27.5079
  0
LINE
  8
0
 10
34.4035
 20
-9.48125
 11
33.8093
 21
-9.42508
  0
LINE
  8
0
 10
33.8093
 20
-9.42508
 11
33.2199
 21
-9.33173
  0
LINE
  8
0
 10
33.2199
 20
-9.33173
 11
32.6374
 21
-9.20154
  0
LINE
  8
0
 10
32.6374
 20
-9.20154
 11
32.0643
 21
-9.03503
  0
LINE
  8
0
 10
32.0643
 20
-9.03503
 11
31.5028
 21
-8.83287
  0
LINE
  8
0
 10
31.5028
 20
-8.83287
 11
30.9551
 21
-8.59586
  0
LINE
  8
0
 10
30.9551
 20
-8.59586
 11
30.4233
 21
-8.32491
  0
LINE
  8
0
 10
30.4233
 20
-8.32491
 11
29.9096
 21
-8.0211
  0
LINE
  8
0
 10
29.9096
 20
-8.0211
 11
29.416
 21
-7.68565
  0
LINE
  8
0
 10
29.416
 20
-7.68565
 11
28.9445
 21
-7.31987
  0
LINE
  8
0
 10
28.9445
 20
-7.31987
 11
28.4968
 21
-6.9252
  0
LINE
  8
0
 10
28.4968
 20
-6.9252
 11
28.0748
 21
-6.50319
  0
LINE
  8
0
 10
28.0748
 20
-6.50319
 11
27.6801
 21
-6.05553
  0
LINE
  8
0
 10
27.6801
 20
-6.05553
 11
27.3143
 21
-5.58395
  0
LINE
  8
0
 10
27.3143
 20
-5.58395
 11
26.9789
 21
-5.09035
  0
LINE
  8
0
 10
26.9789
 20
-5.09035
 11
26.6751
 21
-4.57664
  0
LINE
  8
0
 10
26.6751
 20
-4.57664
 11
26.4041
 21
-4.04489
  0
LINE
  8
0
 10
26.4041
 20
-4.04489
 11
26.1671
 21
-3.49718
  0
LINE
  8
0
 10
26.1671
 20
-3.49718
 11
25.965
 21
-2.93565
  0
LINE
  8
0
 10
25.965
 20
-2.93565
 11
25.7984
 21
-2.36255
  0
LINE
  8
0
 10
25.7984
 20
-2.36255
 11
25.6683
 21
-1.78012
  0
LINE
  8
0
 10
25.6683
 20
-1.78012
 11
25.5749
 21
-1.19066
  0
LINE
  8
0
 10
25.5749
 20
-1.19066
 11
25.5187
 21
-0.596497
  0
LINE
  8
0
 10
25.5187
 20
-0.596497
 11
25.5
 21
0
  0
LINE
  8
0
 10
25.5
 20
0
 11
25.5187
 21
0.596497
  0
LINE
  8
0
 10
25.5187
 20
0.596497
 11
25.5749
 21
1.19066
  0
LINE
  8
0
 10
25.5749
 20
1.19066
 11
25.6683
 21
1.78012
  0
LINE
  8
0
 10
25.6683
 20
1.78012
 11
25.7984
 21
2.36255
  0
LINE
  8
0
 10
25.7984
 20
2.36255
 11
25.965
 21
2.93565
  0
LINE
  8
0
 10
25.965
 20
2.93565
 11
26.1671
 21
3.49718
  0
LINE
  8
0
 10
26.1671
 20
3.49718
 11
26.4041
 21
4.04489
  0
LINE
  8
0
 10
26.4041
 20
4.04489
 11
26.6751
 21
4.57664
  0
LINE
  8
0
 10
26.6751
 20
4.57664
 11
26.9789
 21
5.09035
  0
LINE
  8
0
 10
26.9789
 20
5.09035
 11
27.3143
 21
5.58395
  0
LINE
  8
0
 10
27.3143
 20
5.58395
 11
27.6801
 21
6.05553
  0
LINE
  8
0
 10
27.6801
 20
6.05553
 11
28.0748
 21
6.50319
  0
LINE
  8
0
 10
28.0748
 20
6.50319
 11
28.4968
 21
6.9252
  0
LINE
  8
0
 10
28.4968
 20
6.9252
 11
28.9445
 21
7.31987
  0
LINE
  8
0
 10
28.9445
 20
7.31987
 11
29.416
 21
7.68565
  0
LINE
  8
0
 10
29.416
 20
7.68565
 11
29.9096
 21
8.0211
  0
LINE
  8
0
 10
29.9096
 20
8.0211
 11
30.4233
 21
8.32491
  0
LINE
  8
0
 10
30.4233
 20
8.32491
 11
30.9551
 21
8.59586
  0
LINE
  8
0
 10
30.9551
 20
8.59586
 11
31.5028
 21
8.83287
  0
LINE
  8
0
 10
31.5028
 20
8.83287
 11
32.0643
 21
9.03503
  0
LINE
  8
0
 10
32.0643
 20
9.03503
 11
32.6374
 21
9.20154
  0
LINE
  8
0
 10
32.6374
 20
9.20154
 11
33.2199
 21
9.33173
  0
LINE
  8
0
 10
33.2199
 20
9.33173
 11
33.8093
 21
9.42508
  0
LINE
  8
0
 10
33.8093
 20
9.42508
 11
34.4035
 21
9.48125
  0
LINE
  8
0
 10
34.4035
 20
9.48125
 11
35
 21
9.5
  0
LINE
  8
0
 10
35
 20
9.5
 11
35.5965
 21
9.48125
  0
LINE
  8
0
 10
35.5965
 20
9.48125
 11
36.1907
 21
9.42508
  0
LINE
  8
0
 10
36.1907
 20
9.42508
 11
36.7801
 21
9.33173
  0
LINE
  8
0
 10
36.7801
 20
9.33173
 11
37.3625
 21
9.20154
  0
LINE
  8
0
 10
37.3625
 20
9.20154
 11
37.9357
 21
9.03503
  0
LINE
  8
0
 10
37.9357
 20
9.03503
 11
38.4972
 21
8.83287
  0
LINE
  8
0
 10
38.4972
 20
8.83287
 11
39.0449
 21
8.59586
  0
LINE
  8
0
 10
39.0449
 20
8.59586
 11
39.5766
 21
8.32491
  0
LINE
  8
0
 10
39.5766
 20
8.32491
 11
40.0903
 21
8.0211
  0
LINE
  8
0
 10
40.0903
 20
8.0211
 11
40.584
 21
7.68565
  0
LINE
  8
0
 10
40.584
 20
7.68565
 11
41.0555
 21
7.31987
  0
LINE
  8
0
 10
41.0555
 20
7.31987
 11
41.5032
 21
6.9252
  0
LINE
  8
0
 10
41.5032
 20
6.9252
 11
41.9252
 21
6.50319
  0
LINE
  8
0
 10
41.9252
 20
6.50319
 11
42.3199
 21
6.05553
  0
LINE
  8
0
 10
42.3199
 20
6.05553
 11
42.6857
 21
5.58395
  0
LINE
  8
0
 10
42.6857
 20
5.58395
 11
43.0211
 21
5.09035
  0
LINE
  8
0
 10
43.0211
 20
5.09035
 11
43.3249
 21
4.57664
  0
LINE
  8
0
 10
43.3249
 20
4.57664
 11
43.5959
 21
4.04489
  0
LINE
  8
0
 10
43.5959
 20
4.04489
 11
43.8329
 21
3.49718
  0
LINE
  8
0
 10
43.8329
 20
3.49718
 11
44.035
 21
2.93565
  0
LINE
  8
0
 10
44.035
 20
2.93565
 11
44.2015
 21
2.36255
  0
LINE
  8
0
 10
44.2015
 20
2.36255
 11
44.3317
 21
1.78012
  0
LINE
  8
0
 10
44.3317
 20
1.78012
 11
44.4251
 21
1.19066
  0
LINE
  8
0
 10
44.4251
 20
1.19066
 11
44.4812
 21
0.596497
  0
LINE
  8
0
 10
44.4812
 20
0.596497
 11
44.5
 21
0
  0
LINE
  8
0
 10
44.5
 20
0
 11
44.4812
 21
-0.596497
  0
LINE
  8
0
 10
44.4812
 20
-0.596497
 11
44.4251
 21
-1.19066
  0
LINE
  8
0
 10
44.4251
 20
-1.19066
 11
44.3317
 21
-1.78012
  0
LINE
  8
0
 10
44.3317
 20
-1.78012
 11
44.2015
 21
-2.36255
  0
LINE
  8
0
 10
44.2015
 20
-2.36255
 11
44.035
 21
-2.93565
  0
LINE
  8
0
 10
44.035
 20
-2.93565
 11
43.8329
 21
-3.49718
  0
LINE
  8
0
 10
43.8329
 20
-3.49718
 11
43.5959
 21
-4.04489
  0
LINE
  8
0
 10
43.5959
 20
-4.04489
 11
43.3249
 21
-4.57664
  0
LINE
  8
0
 10
43.3249
 20
-4.57664
 11
43.0211
 21
-5.09035
  0
LINE
  8
0
 10
43.0211
 20
-5.09035
 11
42.6857
 21
-5.58395
  0
LINE
  8
0
 10
42.6857
 20
-5.58395
 11
42.3199
 21
-6.05553
  0
LINE
  8
0
 10
42.3199
 20
-6.05553
 11
41.9252
 21
-6.50319
  0
LINE
  8
0
 10
41.9252
 20
-6.50319
 11
41.5032
 21
-6.9252
  0
LINE
  8
0
 10
41.5032
 20
-6.9252
 11
41.0555
 21
-7.31987
  0
LINE
  8
0
 10
41.0555
 20
-7.31987
 11
40.584
 21
-7.68565
  0
LINE
  8
0
 10
40.584
 20
-7.68565
 11
40.0903
 21
-8.0211
  0
LINE
  8
0
 10
40.0903
 20
-8.0211
 11
39.5766
 21
-8.32491
  0
LINE
  8
0
 10
39.5766
 20
-8.32491
 11
39.0449
 21
-8.59586
  0
LINE
  8
0
 10
39.0449
 20
-8.59586
 11
38.4972
 21
-8.83287
  0
LINE
  8
0
 10
38.4972
 20
-8.83287
 11
37.9357
 21
-9.03503
  0
LINE
  8
0
 10
37.9357
 20
-9.03503
 11
37.3625
 21
-9.20154
  0
LINE
  8
0
 10
37.3625
 20
-9.20154
 11
36.7801
 21
-9.33173
  0
LINE
  8
0
 10
36.7801
 20
-9.33173
 11
36.1907
 21
-9.42508
  0
LINE
  8
0
 10
36.1907
 20
-9.42508
 11
35.5965
 21
-9.48125
  0
LINE
  8
0
 10
35.5965
 20
-9.48125
 11
35
 21
-9.5
  0
LINE
  8
0
 10
35
 20
-9.5
 11
34.4035
 21
-9.48125
  0
LINE
  8
0
 10
-30.5511
 20
-35.4921
 11
-30.8013
 21
-35.4684
  0
LINE
  8
0
 10
-30.8013
 20
-35.4684
 11
-31.0495
 21
-35.4291
  0
LINE
  8
0
 10
-31.0495
 20
-35.4291
 11
-31.2948
 21
-35.3743
  0
LINE
  8
0
 10
-31.2948
 20
-35.3743
 11
-31.5361
 21
-35.3042
  0
LINE
  8
0
 10
-31.5361
 20
-35.3042
 11
-31.7725
 21
-35.2191
  0
LINE
  8
0
 10
-31.7725
 20
-35.2191
 11
-32.0031
 21
-35.1193
  0
LINE
  8
0
 10
-32.0031
 20
-35.1193
 11
-32.227
 21
-35.0052
  0
LINE
  8
0
 10
-32.227
 20
-35.0052
 11
-32.4433
 21
-34.8773
  0
LINE
  8
0
 10
-32.4433
 20
-34.8773
 11
-32.6511
 21
-34.7361
  0
LINE
  8
0
 10
-32.6511
 20
-34.7361
 11
-32.8497
 21
-34.582
  0
LINE
  8
0
 10
-32.8497
 20
-34.582
 11
-33.0382
 21
-34.4159
  0
LINE
  8
0
 10
-33.0382
 20
-34.4159
 11
-33.2159
 21
-34.2382
  0
LINE
  8
0
 10
-33.2159
 20
-34.2382
 11
-33.382
 21
-34.0497
  0
LINE
  8
0
 10
-33.382
 20
-34.0497
 11
-33.5361
 21
-33.8511
  0
LINE
  8
0
 10
-33.5361
 20
-33.8511
 11
-33.6773
 21
-33.6433
  0
LINE
  8
0
 10
-33.6773
 20
-33.6433
 11
-33.8052
 21
-33.427
  0
LINE
  8
0
 10
-33.8052
 20
-33.427
 11
-33.9193
 21
-33.2031
  0
LINE
  8
0
 10
-33.9193
 20
-33.2031
 11
-34.0191
 21
-32.9725
  0
LINE
  8
0
 10
-34.0191
 20
-32.9725
 11
-34.1042
 21
-32.7361
  0
LINE
  8
0
 10
-34.1042
 20
-32.7361
 11
-34.1743
 21
-32.4948
  0
LINE
  8
0
 10
-34.1743
 20
-32.4948
 11
-34.2291
 21
-32.2495
  0
LINE
  8
0
 10
-34.2291
 20
-32.2495
 11
-34.2684
 21
-32.0013
  0
LINE
  8
0
 10
-34.2684
 20
-32.0013
 11
-34.2921
 21
-31.7512
  0
LINE
  8
0
 10
-34.2921
 20
-31.7512
 11
-34.3
 21
-31.5
  0
LINE
  8
0
 10
-34.3
 20
-31.5
 11
-34.2921
 21
-31.2488
  0
LINE
  8
0
 10
-34.2921
 20
-31.2488
 11
-34.2684
 21
-30.9987
  0
LINE
  8
0
 10
-34.2684
 20
-30.9987
 11
-34.2291
 21
-30.7505
  0
LINE
  8
0
 10
-34.2291
 20
-30.7505
 11
-34.1743
 21
-30.5052
  0
LINE
  8
0
 10
-34.1743
 20
-30.5052
 11
-34.1042
 21
-30.2639
  0
LINE
  8
0
 10
-34.1042
 20
-30.2639
 11
-34.0191
 21
-30.0275
  0
LINE
  8
0
 10
-34.0191
 20
-30.0275
 11
-33.9193
 21
-29.7969
  0
LINE
  8
0
 10
-33.9193
 20
-29.7969
 11
-33.8052
 21
-29.573
  0
LINE
  8
0
 10
-33.8052
 20
-29.573
 11
-33.6773
 21
-29.3567
  0
LINE
  8
0
 10
-33.6773
 20
-29.3567
 11
-33.5361
 21
-29.1488
  0
LINE
  8
0
 10
-33.5361
 20
-29.1488
 11
-33.382
 21
-28.9503
  0
LINE
  8
0
 10
-33.382
 20
-28.9503
 11
-33.2159
 21
-28.7618
  0
LINE
  8
0
 10
-33.2159
 20
-28.7618
 11
-33.0382
 21
-28.5841
  0
LINE
  8
0
 10
-33.0382
 20
-28.5841
 11
-32.8497
 21
-28.4179
  0
LINE
  8
0
 10
-32.8497
 20
-28.4179
 11
-32.6511
 21
-28.2639
  0
LINE
  8
0
 10
-32.6511
 20
-28.2639
 11
-32.4433
 21
-28.1227
  0
LINE
  8
0
 10
-32.4433
 20
-28.1227
 11
-32.227
 21
-27.9948
  0
LINE
  8
0
 10
-32.227
 20
-27.9948
 11
-32.0031
 21
-27.8807
  0
LINE
  8
0
 10
-32.0031
 20
-27.8807
 11
-31.7725
 21
-27.7809
  0
LINE
  8
0
 10
-31.7725
 20
-27.7809
 11
-31.5361
 21
-27.6958
  0
LINE
  8
0
 10
-31.5361
 20
-27.6958
 11
-31.2948
 21
-27.6257
  0
LINE
  8
0
 10
-31.2948
 20
-27.6257
 11
-31.0495
 21
-27.5708
  0
LINE
  8
0
 10
-31.0495
 20
-27.5708
 11
-30.8013
 21
-27.5315
  0
LINE
  8
0
 10
-30.8013
 20
-27.5315
 11
-30.5511
 21
-27.5079
  0
LINE
  8
0
 10
-30.5511
 20
-27.5079
 11
-30.3
 21
-27.5
  0
LINE
  8
0
 10
-30.3
 20
-27.5
 11
-30.0488
 21
-27.5079
  0
LINE
  8
0
 10
-30.0488
 20
-27.5079
 11
-29.7987
 21
-27.5315
  0
LINE
  8
0
 10
-29.7987
 20
-27.5315
 11
-29.5505
 21
-27.5708
  0
LINE
  8
0
 10
-29.5505
 20
-27.5708
 11
-29.3052
 21
-27.6257
  0
LINE
  8
0
 10
-29.3052
 20
-27.6257
 11
-29.0639
 21
-27.6958
  0
LINE
  8
0
 10
-29.0639
 20
-27.6958
 11
-28.8275
 21
-27.7809
  0
LINE
  8
0
 10
-28.8275
 20
-27.7809
 11
-28.5969
 21
-27.8807
  0
LINE
  8
0
 10
-28.5969
 20
-27.8807
 11
-28.373
 21
-27.9948
  0
LINE
  8
0
 10
-28.373
 20
-27.9948
 11
-28.1567
 21
-28.1227
  0
LINE
  8
0
 10
-28.1567
 20
-28.1227
 11
-27.9489
 21
-28.2639
  0
LINE
  8
0
 10
-27.9489
 20
-28.2639
 11
-27.7503
 21
-28.4179
  0
LINE
  8
0
 10
-27.7503
 20
-28.4179
 11
-27.5618
 21
-28.5841
  0
LINE
  8
0
 10
-27.5618
 20
-28.5841
 11
-27.3841
 21
-28.7618
  0
LINE
  8
0
 10
-27.3841
 20
-28.7618
 11
-27.2179
 21
-28.9503
  0
LINE
  8
0
 10
-27.2179
 20
-28.9503
 11
-27.0639
 21
-29.1488
  0
LINE
  8
0
 10
-27.0639
 20
-29.1488
 11
-26.9227
 21
-29.3567
  0
LINE
  8
0
 10
-26.9227
 20
-29.3567
 11
-26.7948
 21
-29.573
  0
LINE
  8
0
 10
-26.7948
 20
-29.573
 11
-26.6807
 21
-29.7969
  0
LINE
  8
0
 10
-26.6807
 20
-29.7969
 11
-26.5809
 21
-30.0275
  0
LINE
  8
0
 10
-26.5809
 20
-30.0275
 11
-26.4958
 21
-30.2639
  0
LINE
  8
0
 10
-26.4958
 20
-30.2639
 11
-26.4257
 21
-30.5052
  0
LINE
  8
0
 10
-26.4257
 20
-30.5052
 11
-26.3708
 21
-30.7505
  0
LINE
  8
0
 10
-26.3708
 20
-30.7505
 11
-26.3315
 21
-30.9987
  0
LINE
  8
0
 10
-26.3315
 20
-30.9987
 11
-26.3079
 21
-31.2488
  0
LINE
  8
0
 10
-26.3079
 20
-31.2488
 11
-26.3
 21
-31.5
  0
LINE
  8
0
 10
-26.3
 20
-31.5
 11
-26.3079
 21
-31.7512
  0
LINE
  8
0
 10
-26.3079
 20
-31.7512
 11
-26.3315
 21
-32.0013
  0
LINE
  8
0
 10
-26.3315
 20
-32.0013
 11
-26.3708
 21
-32.2495
  0
LINE
  8
0
 10
-26.3708
 20
-32.2495
 11
-26.4257
 21
-32.4948
  0
LINE
  8
0
 10
-26.4257
 20
-32.4948
 11
-26.4958
 21
-32.7361
  0
LINE
  8
0
 10
-26.4958
 20
-32.7361
 11
-26.5809
 21
-32.9725
  0
LINE
  8
0
 10
-26.5809
 20
-32.9725
 11
-26.6807
 21
-33.2031
  0
LINE
  8
0
 10
-26.6807
 20
-33.2031
 11
-26.7948
 21
-33.427
  0
LINE
  8
0
 10
-26.7948
 20
-33.427
 11
-26.9227
 21
-33.6433
  0
LINE
  8
0
 10
-26.9227
 20
-33.6433
 11
-27.0639
 21
-33.8511
  0
LINE
  8
0
 10
-27.0639
 20
-33.8511
 11
-27.2179
 21
-34.0497
  0
LINE
  8
0
 10
-27.2179
 20
-34.0497
 11
-27.3841
 21
-34.2382
  0
LINE
  8
0
 10
-27.3841
 20
-34.2382
 11
-27.5618
 21
-34.4159
  0
LINE
  8
0
 10
-27.5618
 20
-34.4159
 11
-27.7503
 21
-34.582
  0
LINE
  8
0
 10
-27.7503
 20
-34.582
 11
-27.9489
 21
-34.7361
  0
LINE
  8
0
 10
-27.9489
 20
-34.7361
 11
-28.1567
 21
-34.8773
  0
LINE
  8
0
 10
-28.1567
 20
-34.8773
 11
-28.373
 21
-35.0052
  0
LINE
  8
0
 10
-28.373
 20
-35.0052
 11
-28.5969
 21
-35.1193
  0
LINE
  8
0
 10
-28.5969
 20
-35.1193
 11
-28.8275
 21
-35.2191
  0
LINE
  8
0
 10
-28.8275
 20
-35.2191
 11
-29.0639
 21
-35.3042
  0
LINE
  8
0
 10
-29.0639
 20
-35.3042
 11
-29.3052
 21
-35.3743
  0
LINE
  8
0
 10
-29.3052
 20
-35.3743
 11
-29.5505
 21
-35.4291
  0
LINE
  8
0
 10
-29.5505
 20
-35.4291
 11
-29.7987
 21
-35.4684
  0
LINE
  8
0
 10
-29.7987
 20
-35.4684
 11
-30.0488
 21
-35.4921
  0
LINE
  8
0
 10
-30.0488
 20
-35.4921
 11
-30.3
 21
-35.5
  0
LINE
  8
0
 10
-30.3
 20
-35.5
 11
-30.5511
 21
-35.4921
  0
LINE
  8
0
 10
30.0488
 20
-35.4921
 11
29.7987
 21
-35.4684
  0
LINE
  8
0
 10
29.7987
 20
-35.4684
 11
29.5505
 21
-35.4291
  0
LINE
  8
0
 10
29.5505
 20
-35.4291
 11
29.3052
 21
-35.3743
  0
LINE
  8
0
 10
29.3052
 20
-35.3743
 11
29.0639
 21
-35.3042
  0
LINE
  8
0
 10
29.0639
 20
-35.3042
 11
28.8275
 21
-35.2191
  0
LINE
  8
0
 10
28.8275
 20
-35.2191
 11
28.5969
 21
-35.1193
  0
LINE
  8
0
 10
28.5969
 20
-35.1193
 11
28.373
 21
-35.0052
  0
LINE
  8
0
 10
28.373
 20
-35.0052
 11
28.1567
 21
-34.8773
  0
LINE
  8
0
 10
28.1567
 20
-34.8773
 11
27.9489
 21
-34.7361
  0
LINE
  8
0
 10
27.9489
 20
-34.7361
 11
27.7503
 21
-34.582
  0
LINE
  8
0
 10
27.7503
 20
-34.582
 11
27.5618
 21
-34.4159
  0
LINE
  8
0
 10
27.5618
 20
-34.4159
 11
27.3841
 21
-34.2382
  0
LINE
  8
0
 10
27.3841
 20
-34.2382
 11
27.2179
 21
-34.0497
  0
LINE
  8
0
 10
27.2179
 20
-34.0497
 11
27.0639
 21
-33.8511
  0
LINE
  8
0
 10
27.0639
 20
-33.8511
 11
26.9227
 21
-33.6433
  0
LINE
  8
0
 10
26.9227
 20
-33.6433
 11
26.7948
 21
-33.427
  0
LINE
  8
0
 10
26.7948
 20
-33.427
 11
26.6807
 21
-33.2031
  0
LINE
  8
0
 10
26.6807
 20
-33.2031
 11
26.5809
 21
-32.9725
  0
LINE
  8
0
 10
26.5809
 20
-32.9725
 11
26.4958
 21
-32.7361
  0
LINE
  8
0
 10
26.4958
 20
-32.7361
 11
26.4257
 21
-32.4948
  0
LINE
  8
0
 10
26.4257
 20
-32.4948
 11
26.3708
 21
-32.2495
  0
LINE
  8
0
 10
26.3708
 20
-32.2495
 11
26.3315
 21
-32.0013
  0
LINE
  8
0
 10
26.3315
 20
-32.0013
 11
26.3079
 21
-31.7512
  0
LINE
  8
0
 10
26.3079
 20
-31.7512
 11
26.3
 21
-31.5
  0
LINE
  8
0
 10
26.3
 20
-31.5
 11
26.3079
 21
-31.2488
  0
LINE
  8
0
 10
26.3079
 20
-31.2488
 11
26.3315
 21
-30.9987
  0
LINE
  8
0
 10
26.3315
 20
-30.9987
 11
26.3708
 21
-30.7505
  0
LINE
  8
0
 10
26.3708
 20
-30.7505
 11
26.4257
 21
-30.5052
  0
LINE
  8
0
 10
26.4257
 20
-30.5052
 11
26.4958
 21
-30.2639
  0
LINE
  8
0
 10
26.4958
 20
-30.2639
 11
26.5809
 21
-30.0275
  0
LINE
  8
0
 10
26.5809
 20
-30.0275
 11
26.6807
 21
-29.7969
  0
LINE
  8
0
 10
26.6807
 20
-29.7969
 11
26.7948
 21
-29.573
  0
LINE
  8
0
 10
26.7948
 20
-29.573
 11
26.9227
 21
-29.3567
  0
LINE
  8
0
 10
26.9227
 20
-29.3567
 11
27.0639
 21
-29.1488
  0
LINE
  8
0
 10
27.0639
 20
-29.1488
 11
27.2179
 21
-28.9503
  0
LINE
  8
0
 10
27.2179
 20
-28.9503
 11
27.3841
 21
-28.7618
  0
LINE
  8
0
 10
27.3841
 20
-28.7618
 11
27.5618
 21
-28.5841
  0
LINE
  8
0
 10
27.5618
 20
-28.5841
 11
27.7503
 21
-28.4179
  0
LINE
  8
0
 10
27.7503
 20
-28.4179
 11
27.9489
 21
-28.2639
  0
LINE
  8
0
 10
27.9489
 20
-28.2639
 11
28.1567
 21
-28.1227
  0
LINE
  8
0
 10
28.1567
 20
-28.1227
 11
28.373
 21
-27.9948
  0
LINE
  8
0
 10
28.373
 20
-27.9948
 11
28.5969
 21
-27.8807
  0
LINE
  8
0
 10
28.5969
 20
-27.8807
 11
28.8275
 21
-27.7809
  0
LINE
  8
0
 10
28.8275
 20
-27.7809
 11
29.0639
 21
-27.6958
  0
LINE
  8
0
 10
29.0639
 20
-27.6958
 11
29.3052
 21
-27.6257
  0
LINE
  8
0
 10
29.3052
 20
-27.6257
 11
29.5505
 21
-27.5708
  0
LINE
  8
0
 10
29.5505
 20
-27.5708
 11
29.7987
 21
-27.5315
  0
LINE
  8
0
 10
29.7987
 20
-27.5315
 11
30.0488
 21
-27.5079
  0
LINE
  8
0
 10
30.0488
 20
-27.5079
 11
30.3
 21
-27.5
  0
LINE
  8
0
 10
30.3
 20
-27.5
 11
30.5511
 21
-27.5079
  0
LINE
  8
0
 10
30.5511
 20
-27.5079
 11
30.8013
 21
-27.5315
  0
LINE
  8
0
 10
30.8013
 20
-27.5315
 11
31.0495
 21
-27.5708
  0
LINE
  8
0
 10
31.0495
 20
-27.5708
 11
31.2948
 21
-27.6257
  0
LINE
  8
0
 10
31.2948
 20
-27.6257
 11
31.5361
 21
-27.6958
  0
LINE
  8
0
 10
31.5361
 20
-27.6958
 11
31.7725
 21
-27.7809
  0
LINE
  8
0
 10
31.7725
 20
-27.7809
 11
32.0031
 21
-27.8807
  0
LINE
  8
0
 10
32.0031
 20
-27.8807
 11
32.227
 21
-27.9948
  0
LINE
  8
0
 10
32.227
 20
-27.9948
 11
32.4433
 21
-28.1227
  0
LINE
  8
0
 10
32.4433
 20
-28.1227
 11
32.6511
 21
-28.2639
  0
LINE
  8
0
 10
32.6511
 20
-28.2639
 11
32.8497
 21
-28.4179
  0
LINE
  8
0
 10
32.8497
 20
-28.4179
 11
33.0382
 21
-28.5841
  0
LINE
  8
0
 10
33.0382
 20
-28.5841
 11
33.2159
 21
-28.7618
  0
LINE
  8
0
 10
33.2159
 20
-28.7618
 11
33.382
 21
-28.9503
  0
LINE
  8
0
 10
33.382
 20
-28.9503
 11
33.5361
 21
-29.1488
  0
LINE
  8
0
 10
33.5361
 20
-29.1488
 11
33.6773
 21
-29.3567
  0
LINE
  8
0
 10
33.6773
 20
-29.3567
 11
33.8052
 21
-29.573
  0
LINE
  8
0
 10
33.8052
 20
-29.573
 11
33.9193
 21
-29.7969
  0
LINE
  8
0
 10
33.9193
 20
-29.7969
 11
34.0191
 21
-30.0275
  0
LINE
  8
0
 10
34.0191
 20
-30.0275
 11
34.1042
 21
-30.2639
  0
LINE
  8
0
 10
34.1042
 20
-30.2639
 11
34.1743
 21
-30.5052
  0
LINE
  8
0
 10
34.1743
 20
-30.5052
 11
34.2291
 21
-30.7505
  0
LINE
  8
0
 10
34.2291
 20
-30.7505
 11
34.2684
 21
-30.9987
  0
LINE
  8
0
 10
34.2684
 20
-30.9987
 11
34.2921
 21
-31.2488
  0
LINE
  8
0
 10
34.2921
 20
-31.2488
 11
34.3
 21
-31.5
  0
LINE
  8
0
 10
34.3
 20
-31.5
 11
34.2921
 21
-31.7512
  0
LINE
  8
0
 10
34.2921
 20
-31.7512
 11
34.2684
 21
-32.0013
  0
LINE
  8
0
 10
34.2684
 20
-32.0013
 11
34.2291
 21
-32.2495
  0
LINE
  8
0
 10
34.2291
 20
-32.2495
 11
34.1743
 21
-32.4948
  0
LINE
  8
0
 10
34.1743
 20
-32.4948
 11
34.1042
 21
-32.7361
  0
LINE
  8
0
 10
34.1042
 20
-32.7361
 11
34.0191
 21
-32.9725
  0
LINE
  8
0
 10
34.0191
 20
-32.9725
 11
33.9193
 21
-33.2031
  0
LINE
  8
0
 10
33.9193
 20
-33.2031
 11
33.8052
 21
-33.427
  0
LINE
  8
0
 10
33.8052
 20
-33.427
 11
33.6773
 21
-33.6433
  0
LINE
  8
0
 10
33.6773
 20
-33.6433
 11
33.5361
 21
-33.8511
  0
LINE
  8
0
 10
33.5361
 20
-33.8511
 11
33.382
 21
-34.0497
  0
LINE
  8
0
 10
33.382
 20
-34.0497
 11
33.2159
 21
-34.2382
  0
LINE
  8
0
 10
33.2159
 20
-34.2382
 11
33.0382
 21
-34.4159
  0
LINE
  8
0
 10
33.0382
 20
-34.4159
 11
32.8497
 21
-34.582
  0
LINE
  8
0
 10
32.8497
 20
-34.582
 11
32.6511
 21
-34.7361
  0
LINE
  8
0
 10
32.6511
 20
-34.7361
 11
32.4433
 21
-34.8773
  0
LINE
  8
0
 10
32.4433
 20
-34.8773
 11
32.227
 21
-35.0052
  0
LINE
  8
0
 10
32.227
 20
-35.0052
 11
32.0031
 21
-35.1193
  0
LINE
  8
0
 10
32.0031
 20
-35.1193
 11
31.7725
 21
-35.2191
  0
LINE
  8
0
 10
31.7725
 20
-35.2191
 11
31.5361
 21
-35.3042
  0
LINE
  8
0
 10
31.5361
 20
-35.3042
 11
31.2948
 21
-35.3743
  0
LINE
  8
0
 10
31.2948
 20
-35.3743
 11
31.0495
 21
-35.4291
  0
LINE
  8
0
 10
31.0495
 20
-35.4291
 11
30.8013
 21
-35.4684
  0
LINE
  8
0
 10
30.8013
 20
-35.4684
 11
30.5511
 21
-35.4921
  0
LINE
  8
0
 10
30.5511
 20
-35.4921
 11
30.3
 21
-35.5
  0
LINE
  8
0
 10
30.3
 20
-35.5
 11
30.0488
 21
-35.4921
  0
LINE
  8
0
 10
-0.141266
 20
-44.7456
 11
-0.281998
 21
-44.7323
  0
LINE
  8
0
 10
-0.281998
 20
-44.7323
 11
-0.4216
 21
-44.7101
  0
LINE
  8
0
 10
-0.4216
 20
-44.7101
 11
-0.55954
 21
-44.6793
  0
LINE
  8
0
 10
-0.55954
 20
-44.6793
 11
-0.695282
 21
-44.6399
  0
LINE
  8
0
 10
-0.695282
 20
-44.6399
 11
-0.828278
 21
-44.592
  0
LINE
  8
0
 10
-0.828278
 20
-44.592
 11
-0.957993
 21
-44.5359
  0
LINE
  8
0
 10
-0.957993
 20
-44.5359
 11
-1.08394
 21
-44.4717
  0
LINE
  8
0
 10
-1.08394
 20
-44.4717
 11
-1.2056
 21
-44.3997
  0
LINE
  8
0
 10
-1.2056
 20
-44.3997
 11
-1.32251
 21
-44.3203
  0
LINE
  8
0
 10
-1.32251
 20
-44.3203
 11
-1.43419
 21
-44.2336
  0
LINE
  8
0
 10
-1.43419
 20
-44.2336
 11
-1.54022
 21
-44.1402
  0
LINE
  8
0
 10
-1.54022
 20
-44.1402
 11
-1.64017
 21
-44.0402
  0
LINE
  8
0
 10
-1.64017
 20
-44.0402
 11
-1.73364
 21
-43.9342
  0
LINE
  8
0
 10
-1.73364
 20
-43.9342
 11
-1.82028
 21
-43.8225
  0
LINE
  8
0
 10
-1.82028
 20
-43.8225
 11
-1.89973
 21
-43.7056
  0
LINE
  8
0
 10
-1.89973
 20
-43.7056
 11
-1.97168
 21
-43.5839
  0
LINE
  8
0
 10
-1.97168
 20
-43.5839
 11
-2.03586
 21
-43.458
  0
LINE
  8
0
 10
-2.03586
 20
-43.458
 11
-2.092
 21
-43.3283
  0
LINE
  8
0
 10
-2.092
 20
-43.3283
 11
-2.13986
 21
-43.1953
  0
LINE
  8
0
 10
-2.13986
 20
-43.1953
 11
-2.17931
 21
-43.0595
  0
LINE
  8
0
 10
-2.17931
 20
-43.0595
 11
-2.21014
 21
-42.9216
  0
LINE
  8
0
 10
-2.21014
 20
-42.9216
 11
-2.23225
 21
-42.782
  0
LINE
  8
0
 10
-2.23225
 20
-42.782
 11
-2.24556
 21
-42.6413
  0
LINE
  8
0
 10
-2.24556
 20
-42.6413
 11
-2.25
 21
-42.5
  0
LINE
  8
0
 10
-2.25
 20
-42.5
 11
-2.24556
 21
-42.3587
  0
LINE
  8
0
 10
-2.24556
 20
-42.3587
 11
-2.23225
 21
-42.218
  0
LINE
  8
0
 10
-2.23225
 20
-42.218
 11
-2.21014
 21
-42.0784
  0
LINE
  8
0
 10
-2.21014
 20
-42.0784
 11
-2.17931
 21
-41.9404
  0
LINE
  8
0
 10
-2.17931
 20
-41.9404
 11
-2.13986
 21
-41.8047
  0
LINE
  8
0
 10
-2.13986
 20
-41.8047
 11
-2.092
 21
-41.6717
  0
LINE
  8
0
 10
-2.092
 20
-41.6717
 11
-2.03586
 21
-41.542
  0
LINE
  8
0
 10
-2.03586
 20
-41.542
 11
-1.97168
 21
-41.416
  0
LINE
  8
0
 10
-1.97168
 20
-41.416
 11
-1.89973
 21
-41.2944
  0
LINE
  8
0
 10
-1.89973
 20
-41.2944
 11
-1.82028
 21
-41.1775
  0
LINE
  8
0
 10
-1.82028
 20
-41.1775
 11
-1.73364
 21
-41.0658
  0
LINE
  8
0
 10
-1.73364
 20
-41.0658
 11
-1.64017
 21
-40.9598
  0
LINE
  8
0
 10
-1.64017
 20
-40.9598
 11
-1.54022
 21
-40.8598
  0
LINE
  8
0
 10
-1.54022
 20
-40.8598
 11
-1.43419
 21
-40.7663
  0
LINE
  8
0
 10
-1.43419
 20
-40.7663
 11
-1.32251
 21
-40.6797
  0
LINE
  8
0
 10
-1.32251
 20
-40.6797
 11
-1.2056
 21
-40.6003
  0
LINE
  8
0
 10
-1.2056
 20
-40.6003
 11
-1.08394
 21
-40.5283
  0
LINE
  8
0
 10
-1.08394
 20
-40.5283
 11
-0.957993
 21
-40.4641
  0
LINE
  8
0
 10
-0.957993
 20
-40.4641
 11
-0.828278
 21
-40.408
  0
LINE
  8
0
 10
-0.828278
 20
-40.408
 11
-0.695282
 21
-40.3601
  0
LINE
  8
0
 10
-0.695282
 20
-40.3601
 11
-0.55954
 21
-40.3207
  0
LINE
  8
0
 10
-0.55954
 20
-40.3207
 11
-0.4216
 21
-40.2898
  0
LINE
  8
0
 10
-0.4216
 20
-40.2898
 11
-0.281998
 21
-40.2677
  0
LINE
  8
0
 10
-0.281998
 20
-40.2677
 11
-0.141266
 21
-40.2544
  0
LINE
  8
0
 10
-0.141266
 20
-40.2544
 11
0
 21
-40.25
  0
LINE
  8
0
 10
0
 20
-40.25
 11
0.141266
 21
-40.2544
  0
LINE
  8
0
 10
0.141266
 20
-40.2544
 11
0.281998
 21
-40.2677
  0
LINE
  8
0
 10
0.281998
 20
-40.2677
 11
0.4216
 21
-40.2898
  0
LINE
  8
0
 10
0.4216
 20
-40.2898
 11
0.55954
 21
-40.3207
  0
LINE
  8
0
 10
0.55954
 20
-40.3207
 11
0.695282
 21
-40.3601
  0
LINE
  8
0
 10
0.695282
 20
-40.3601
 11
0.828278
 21
-40.408
  0
LINE
  8
0
 10
0.828278
 20
-40.408
 11
0.957993
 21
-40.4641
  0
LINE
  8
0
 10
0.957993
 20
-40.4641
 11
1.08394
 21
-40.5283
  0
LINE
  8
0
 10
1.08394
 20
-40.5283
 11
1.2056
 21
-40.6003
  0
LINE
  8
0
 10
1.2056
 20
-40.6003
 11
1.32251
 21
-40.6797
  0
LINE
  8
0
 10
1.32251
 20
-40.6797
 11
1.43419
 21
-40.7663
  0
LINE
  8
0
 10
1.43419
 20
-40.7663
 11
1.54022
 21
-40.8598
  0
LINE
  8
0
 10
1.54022
 20
-40.8598
 11
1.64017
 21
-40.9598
  0
LINE
  8
0
 10
1.64017
 20
-40.9598
 11
1.73364
 21
-41.0658
  0
LINE
  8
0
 10
1.73364
 20
-41.0658
 11
1.82028
 21
-41.1775
  0
LINE
  8
0
 10
1.82028
 20
-41.1775
 11
1.89973
 21
-41.2944
  0
LINE
  8
0
 10
1.89973
 20
-41.2944
 11
1.97168
 21
-41.416
  0
LINE
  8
0
 10
1.97168
 20
-41.416
 11
2.03586
 21
-41.542
  0
LINE
  8
0
 10
2.03586
 20
-41.542
 11
2.092
 21
-41.6717
  0
LINE
  8
0
 10
2.092
 20
-41.6717
 11
2.13986
 21
-41.8047
  0
LINE
  8
0
 10
2.13986
 20
-41.8047
 11
2.17931
 21
-41.9404
  0
LINE
  8
0
 10
2.17931
 20
-41.9404
 11
2.21014
 21
-42.0784
  0
LINE
  8
0
 10
2.21014
 20
-42.0784
 11
2.23225
 21
-42.218
  0
LINE
  8
0
 10
2.23225
 20
-42.218
 11
2.24556
 21
-42.3587
  0
LINE
  8
0
 10
2.24556
 20
-42.3587
 11
2.25
 21
-42.5
  0
LINE
  8
0
 10
2.25
 20
-42.5
 11
2.24556
 21
-42.6413
  0
LINE
  8
0
 10
2.24556
 20
-42.6413
 11
2.23225
 21
-42.782
  0
LINE
  8
0
 10
2.23225
 20
-42.782
 11
2.21014
 21
-42.9216
  0
LINE
  8
0
 10
2.21014
 20
-42.9216
 11
2.17931
 21
-43.0595
  0
LINE
  8
0
 10
2.17931
 20
-43.0595
 11
2.13986
 21
-43.1953
  0
LINE
  8
0
 10
2.13986
 20
-43.1953
 11
2.092
 21
-43.3283
  0
LINE
  8
0
 10
2.092
 20
-43.3283
 11
2.03586
 21
-43.458
  0
LINE
  8
0
 10
2.03586
 20
-43.458
 11
1.97168
 21
-43.5839
  0
LINE
  8
0
 10
1.97168
 20
-43.5839
 11
1.89973
 21
-43.7056
  0
LINE
  8
0
 10
1.89973
 20
-43.7056
 11
1.82028
 21
-43.8225
  0
LINE
  8
0
 10
1.82028
 20
-43.8225
 11
1.73364
 21
-43.9342
  0
LINE
  8
0
 10
1.73364
 20
-43.9342
 11
1.64017
 21
-44.0402
  0
LINE
  8
0
 10
1.64017
 20
-44.0402
 11
1.54022
 21
-44.1402
  0
LINE
  8
0
 10
1.54022
 20
-44.1402
 11
1.43419
 21
-44.2336
  0
LINE
  8
0
 10
1.43419
 20
-44.2336
 11
1.32251
 21
-44.3203
  0
LINE
  8
0
 10
1.32251
 20
-44.3203
 11
1.2056
 21
-44.3997
  0
LINE
  8
0
 10
1.2056
 20
-44.3997
 11
1.08394
 21
-44.4717
  0
LINE
  8
0
 10
1.08394
 20
-44.4717
 11
0.957993
 21
-44.5359
  0
LINE
  8
0
 10
0.957993
 20
-44.5359
 11
0.828278
 21
-44.592
  0
LINE
  8
0
 10
0.828278
 20
-44.592
 11
0.695282
 21
-44.6399
  0
LINE
  8
0
 10
0.695282
 20
-44.6399
 11
0.55954
 21
-44.6793
  0
LINE
  8
0
 10
0.55954
 20
-44.6793
 11
0.4216
 21
-44.7101
  0
LINE
  8
0
 10
0.4216
 20
-44.7101
 11
0.281998
 21
-44.7323
  0
LINE
  8
0
 10
0.281998
 20
-44.7323
 11
0.141266
 21
-44.7456
  0
LINE
  8
0
 10
0.141266
 20
-44.7456
 11
0
 21
-44.75
  0
LINE
  8
0
 10
0
 20
-44.75
 11
-0.141266
 21
-44.7456
  0
LINE
  8
0
 10
74.8587
 20
-44.7456
 11
74.718
 21
-44.7323
  0
LINE
  8
0
 10
74.718
 20
-44.7323
 11
74.5784
 21
-44.7101
  0
LINE
  8
0
 10
74.5784
 20
-44.7101
 11
74.4404
 21
-44.6793
  0
LINE
  8
0
 10
74.4404
 20
-44.6793
 11
74.3047
 21
-44.6399
  0
LINE
  8
0
 10
74.3047
 20
-44.6399
 11
74.1717
 21
-44.592
  0
LINE
  8
0
 10
74.1717
 20
-44.592
 11
74.042
 21
-44.5359
  0
LINE
  8
0
 10
74.042
 20
-44.5359
 11
73.916
 21
-44.4717
  0
LINE
  8
0
 10
73.916
 20
-44.4717
 11
73.7944
 21
-44.3997
  0
LINE
  8
0
 10
73.7944
 20
-44.3997
 11
73.6775
 21
-44.3203
  0
LINE
  8
0
 10
73.6775
 20
-44.3203
 11
73.5658
 21
-44.2336
  0
LINE
  8
0
 10
73.5658
 20
-44.2336
 11
73.4598
 21
-44.1402
  0
LINE
  8
0
 10
73.4598
 20
-44.1402
 11
73.3598
 21
-44.0402
  0
LINE
  8
0
 10
73.3598
 20
-44.0402
 11
73.2663
 21
-43.9342
  0
LINE
  8
0
 10
73.2663
 20
-43.9342
 11
73.1797
 21
-43.8225
  0
LINE
  8
0
 10
73.1797
 20
-43.8225
 11
73.1003
 21
-43.7056
  0
LINE
  8
0
 10
73.1003
 20
-43.7056
 11
73.0283
 21
-43.5839
  0
LINE
  8
0
 10
73.0283
 20
-43.5839
 11
72.9641
 21
-43.458
  0
LINE
  8
0
 10
72.9641
 20
-43.458
 11
72.908
 21
-43.3283
  0
LINE
  8
0
 10
72.908
 20
-43.3283
 11
72.8601
 21
-43.1953
  0
LINE
  8
0
 10
72.8601
 20
-43.1953
 11
72.8207
 21
-43.0595
  0
LINE
  8
0
 10
72.8207
 20
-43.0595
 11
72.7898
 21
-42.9216
  0
LINE
  8
0
 10
72.7898
 20
-42.9216
 11
72.7677
 21
-42.782
  0
LINE
  8
0
 10
72.7677
 20
-42.782
 11
72.7544
 21
-42.6413
  0
LINE
  8
0
 10
72.7544
 20
-42.6413
 11
72.75
 21
-42.5
  0
LINE
  8
0
 10
72.75
 20
-42.5
 11
72.7544
 21
-42.3587
  0
LINE
  8
0
 10
72.7544
 20
-42.3587
 11
72.7677
 21
-42.218
  0
LINE
  8
0
 10
72.7677
 20
-42.218
 11
72.7898
 21
-42.0784
  0
LINE
  8
0
 10
72.7898
 20
-42.0784
 11
72.8207
 21
-41.9404
  0
LINE
  8
0
 10
72.8207
 20
-41.9404
 11
72.8601
 21
-41.8047
  0
LINE
  8
0
 10
72.8601
 20
-41.8047
 11
72.908
 21
-41.6717
  0
LINE
  8
0
 10
72.908
 20
-41.6717
 11
72.9641
 21
-41.542
  0
LINE
  8
0
 10
72.9641
 20
-41.542
 11
73.0283
 21
-41.416
  0
LINE
  8
0
 10
73.0283
 20
-41.416
 11
73.1003
 21
-41.2944
  0
LINE
  8
0
 10
73.1003
 20
-41.2944
 11
73.1797
 21
-41.1775
  0
LINE
  8
0
 10
73.1797
 20
-41.1775
 11
73.2663
 21
-41.0658
  0
LINE
  8
0
 10
73.2663
 20
-41.0658
 11
73.3598
 21
-40.9598
  0
LINE
  8
0
 10
73.3598
 20
-40.9598
 11
73.4598
 21
-40.8598
  0
LINE
  8
0
 10
73.4598
 20
-40.8598
 11
73.5658
 21
-40.7663
  0
LINE
  8
0
 10
73.5658
 20
-40.7663
 11
73.6775
 21
-40.6797
  0
LINE
  8
0
 10
73.6775
 20
-40.6797
 11
73.7944
 21
-40.6003
  0
LINE
  8
0
 10
73.7944
 20
-40.6003
 11
73.916
 21
-40.5283
  0
LINE
  8
0
 10
73.916
 20
-40.5283
 11
74.042
 21
-40.4641
  0
LINE
  8
0
 10
74.042
 20
-40.4641
 11
74.1717
 21
-40.408
  0
LINE
  8
0
 10
74.1717
 20
-40.408
 11
74.3047
 21
-40.3601
  0
LINE
  8
0
 10
74.3047
 20
-40.3601
 11
74.4404
 21
-40.3207
  0
LINE
  8
0
 10
74.4404
 20
-40.3207
 11
74.5784
 21
-40.2898
  0
LINE
  8
0
 10
74.5784
 20
-40.2898
 11
74.718
 21
-40.2677
  0
LINE
  8
0
 10
74.718
 20
-40.2677
 11
74.8587
 21
-40.2544
  0
LINE
  8
0
 10
74.8587
 20
-40.2544
 11
75
 21
-40.25
  0
LINE
  8
0
 10
75
 20
-40.25
 11
75.1413
 21
-40.2544
  0
LINE
  8
0
 10
75.1413
 20
-40.2544
 11
75.282
 21
-40.2677
  0
LINE
  8
0
 10
75.282
 20
-40.2677
 11
75.4216
 21
-40.2898
  0
LINE
  8
0
 10
75.4216
 20
-40.2898
 11
75.5595
 21
-40.3207
  0
LINE
  8
0
 10
75.5595
 20
-40.3207
 11
75.6953
 21
-40.3601
  0
LINE
  8
0
 10
75.6953
 20
-40.3601
 11
75.8283
 21
-40.408
  0
LINE
  8
0
 10
75.8283
 20
-40.408
 11
75.958
 21
-40.4641
  0
LINE
  8
0
 10
75.958
 20
-40.4641
 11
76.0839
 21
-40.5283
  0
LINE
  8
0
 10
76.0839
 20
-40.5283
 11
76.2056
 21
-40.6003
  0
LINE
  8
0
 10
76.2056
 20
-40.6003
 11
76.3225
 21
-40.6797
  0
LINE
  8
0
 10
76.3225
 20
-40.6797
 11
76.4342
 21
-40.7663
  0
LINE
  8
0
 10
76.4342
 20
-40.7663
 11
76.5402
 21
-40.8598
  0
LINE
  8
0
 10
76.5402
 20
-40.8598
 11
76.6402
 21
-40.9598
  0
LINE
  8
0
 10
76.6402
 20
-40.9598
 11
76.7336
 21
-41.0658
  0
LINE
  8
0
 10
76.7336
 20
-41.0658
 11
76.8203
 21
-41.1775
  0
LINE
  8
0
 10
76.8203
 20
-41.1775
 11
76.8997
 21
-41.2944
  0
LINE
  8
0
 10
76.8997
 20
-41.2944
 11
76.9717
 21
-41.416
  0
LINE
  8
0
 10
76.9717
 20
-41.416
 11
77.0359
 21
-41.542
  0
LINE
  8
0
 10
77.0359
 20
-41.542
 11
77.092
 21
-41.6717
  0
LINE
  8
0
 10
77.092
 20
-41.6717
 11
77.1399
 21
-41.8047
  0
LINE
  8
0
 10
77.1399
 20
-41.8047
 11
77.1793
 21
-41.9404
  0
LINE
  8
0
 10
77.1793
 20
-41.9404
 11
77.2101
 21
-42.0784
  0
LINE
  8
0
 10
77.2101
 20
-42.0784
 11
77.2323
 21
-42.218
  0
LINE
  8
0
 10
77.2323
 20
-42.218
 11
77.2456
 21
-42.3587
  0
LINE
  8
0
 10
77.2456
 20
-42.3587
 11
77.25
 21
-42.5
  0
LINE
  8
0
 10
77.25
 20
-42.5
 11
77.2456
 21
-42.6413
  0
LINE
  8
0
 10
77.2456
 20
-42.6413
 11
77.2323
 21
-42.782
  0
LINE
  8
0
 10
77.2323
 20
-42.782
 11
77.2101
 21
-42.9216
  0
LINE
  8
0
 10
77.2101
 20
-42.9216
 11
77.1793
 21
-43.0595
  0
LINE
  8
0
 10
77.1793
 20
-43.0595
 11
77.1399
 21
-43.1953
  0
LINE
  8
0
 10
77.1399
 20
-43.1953
 11
77.092
 21
-43.3283
  0
LINE
  8
0
 10
77.092
 20
-43.3283
 11
77.0359
 21
-43.458
  0
LINE
  8
0
 10
77.0359
 20
-43.458
 11
76.9717
 21
-43.5839
  0
LINE
  8
0
 10
76.9717
 20
-43.5839
 11
76.8997
 21
-43.7056
  0
LINE
  8
0
 10
76.8997
 20
-43.7056
 11
76.8203
 21
-43.8225
  0
LINE
  8
0
 10
76.8203
 20
-43.8225
 11
76.7336
 21
-43.9342
  0
LINE
  8
0
 10
76.7336
 20
-43.9342
 11
76.6402
 21
-44.0402
  0
LINE
  8
0
 10
76.6402
 20
-44.0402
 11
76.5402
 21
-44.1402
  0
LINE
  8
0
 10
76.5402
 20
-44.1402
 11
76.4342
 21
-44.2336
  0
LINE
  8
0
 10
76.4342
 20
-44.2336
 11
76.3225
 21
-44.3203
  0
LINE
  8
0
 10
76.3225
 20
-44.3203
 11
76.2056
 21
-44.3997
  0
LINE
  8
0
 10
76.2056
 20
-44.3997
 11
76.0839
 21
-44.4717
  0
LINE
  8
0
 10
76.0839
 20
-44.4717
 11
75.958
 21
-44.5359
  0
LINE
  8
0
 10
75.958
 20
-44.5359
 11
75.8283
 21
-44.592
  0
LINE
  8
0
 10
75.8283
 20
-44.592
 11
75.6953
 21
-44.6399
  0
LINE
  8
0
 10
75.6953
 20
-44.6399
 11
75.5595
 21
-44.6793
  0
LINE
  8
0
 10
75.5595
 20
-44.6793
 11
75.4216
 21
-44.7101
  0
LINE
  8
0
 10
75.4216
 20
-44.7101
 11
75.282
 21
-44.7323
  0
LINE
  8
0
 10
75.282
 20
-44.7323
 11
75.1413
 21
-44.7456
  0
LINE
  8
0
 10
75.1413
 20
-44.7456
 11
75
 21
-44.75
  0
LINE
  8
0
 10
75
 20
-44.75
 11
74.8587
 21
-44.7456
  0
ENDSEC
  0
SECTION
  2
OBJECTS
  0
DICTIONARY
  0
ENDSEC
  0
EOF
