  0
SECTION
  2
BLOCKS
  0
ENDSEC
  0
SECTION
  2
ENTITIES
  0
LINE
  8
0
 10
0.816269
 20
-12.9743
 11
1.62932
 21
-12.8975
  0
LINE
  8
0
 10
1.62932
 20
-12.8975
 11
2.43594
 21
-12.7697
  0
LINE
  8
0
 10
2.43594
 20
-12.7697
 11
3.23296
 21
-12.5916
  0
LINE
  8
0
 10
3.23296
 20
-12.5916
 11
4.01721
 21
-12.3637
  0
LINE
  8
0
 10
4.01721
 20
-12.3637
 11
4.78561
 21
-12.0871
  0
LINE
  8
0
 10
4.78561
 20
-12.0871
 11
5.53513
 21
-11.7627
  0
LINE
  8
0
 10
5.53513
 20
-11.7627
 11
6.26279
 21
-11.392
  0
LINE
  8
0
 10
6.26279
 20
-11.392
 11
6.96574
 21
-10.9763
  0
LINE
  8
0
 10
6.96574
 20
-10.9763
 11
7.6412
 21
-10.5172
  0
LINE
  8
0
 10
7.6412
 20
-10.5172
 11
8.2865
 21
-10.0167
  0
LINE
  8
0
 10
8.2865
 20
-10.0167
 11
8.89911
 21
-9.47658
  0
LINE
  8
0
 10
8.89911
 20
-9.47658
 11
9.47658
 21
-8.89911
  0
LINE
  8
0
 10
9.47658
 20
-8.89911
 11
10.0167
 21
-8.2865
  0
LINE
  8
0
 10
10.0167
 20
-8.2865
 11
10.5172
 21
-7.6412
  0
LINE
  8
0
 10
10.5172
 20
-7.6412
 11
10.9763
 21
-6.96574
  0
LINE
  8
0
 10
10.9763
 20
-6.96574
 11
11.392
 21
-6.26279
  0
LINE
  8
0
 10
11.392
 20
-6.26279
 11
11.7627
 21
-5.53513
  0
LINE
  8
0
 10
11.7627
 20
-5.53513
 11
12.0871
 21
-4.78561
  0
LINE
  8
0
 10
12.0871
 20
-4.78561
 11
12.3637
 21
-4.01721
  0
LINE
  8
0
 10
12.3637
 20
-4.01721
 11
12.5916
 21
-3.23296
  0
LINE
  8
0
 10
12.5916
 20
-3.23296
 11
12.7697
 21
-2.43594
  0
LINE
  8
0
 10
12.7697
 20
-2.43594
 11
12.8975
 21
-1.62932
  0
LINE
  8
0
 10
12.8975
 20
-1.62932
 11
12.9743
 21
-0.816269
  0
LINE
  8
0
 10
12.9743
 20
-0.816269
 11
13
 21
0
  0
LINE
  8
0
 10
13
 20
0
 11
12.9743
 21
0.816269
  0
LINE
  8
0
 10
12.9743
 20
0.816269
 11
12.8975
 21
1.62932
  0
LINE
  8
0
 10
12.8975
 20
1.62932
 11
12.7697
 21
2.43594
  0
LINE
  8
0
 10
12.7697
 20
2.43594
 11
12.5916
 21
3.23296
  0
LINE
  8
0
 10
12.5916
 20
3.23296
 11
12.3637
 21
4.01721
  0
LINE
  8
0
 10
12.3637
 20
4.01721
 11
12.0871
 21
4.78561
  0
LINE
  8
0
 10
12.0871
 20
4.78561
 11
11.7627
 21
5.53513
  0
LINE
  8
0
 10
11.7627
 20
5.53513
 11
11.392
 21
6.26279
  0
LINE
  8
0
 10
11.392
 20
6.26279
 11
10.9763
 21
6.96574
  0
LINE
  8
0
 10
10.9763
 20
6.96574
 11
10.5172
 21
7.6412
  0
LINE
  8
0
 10
10.5172
 20
7.6412
 11
10.0167
 21
8.2865
  0
LINE
  8
0
 10
10.0167
 20
8.2865
 11
9.47658
 21
8.89911
  0
LINE
  8
0
 10
9.47658
 20
8.89911
 11
8.89911
 21
9.47658
  0
LINE
  8
0
 10
8.89911
 20
9.47658
 11
8.2865
 21
10.0167
  0
LINE
  8
0
 10
8.2865
 20
10.0167
 11
7.6412
 21
10.5172
  0
LINE
  8
0
 10
7.6412
 20
10.5172
 11
6.96574
 21
10.9763
  0
LINE
  8
0
 10
6.96574
 20
10.9763
 11
6.26279
 21
11.392
  0
LINE
  8
0
 10
6.26279
 20
11.392
 11
5.53513
 21
11.7627
  0
LINE
  8
0
 10
5.53513
 20
11.7627
 11
4.78561
 21
12.0871
  0
LINE
  8
0
 10
4.78561
 20
12.0871
 11
4.01721
 21
12.3637
  0
LINE
  8
0
 10
4.01721
 20
12.3637
 11
3.23296
 21
12.5916
  0
LINE
  8
0
 10
3.23296
 20
12.5916
 11
2.43594
 21
12.7697
  0
LINE
  8
0
 10
2.43594
 20
12.7697
 11
1.62932
 21
12.8975
  0
LINE
  8
0
 10
1.62932
 20
12.8975
 11
0.816269
 21
12.9743
  0
LINE
  8
0
 10
0.816269
 20
12.9743
 11
0
 21
13
  0
LINE
  8
0
 10
0
 20
13
 11
-0.816269
 21
12.9743
  0
LINE
  8
0
 10
-0.816269
 20
12.9743
 11
-1.62932
 21
12.8975
  0
LINE
  8
0
 10
-1.62932
 20
12.8975
 11
-2.43594
 21
12.7697
  0
LINE
  8
0
 10
-2.43594
 20
12.7697
 11
-3.23296
 21
12.5916
  0
LINE
  8
0
 10
-3.23296
 20
12.5916
 11
-4.01721
 21
12.3637
  0
LINE
  8
0
 10
-4.01721
 20
12.3637
 11
-4.78561
 21
12.0871
  0
LINE
  8
0
 10
-4.78561
 20
12.0871
 11
-5.53513
 21
11.7627
  0
LINE
  8
0
 10
-5.53513
 20
11.7627
 11
-6.26279
 21
11.392
  0
LINE
  8
0
 10
-6.26279
 20
11.392
 11
-6.96574
 21
10.9763
  0
LINE
  8
0
 10
-6.96574
 20
10.9763
 11
-7.6412
 21
10.5172
  0
LINE
  8
0
 10
-7.6412
 20
10.5172
 11
-8.2865
 21
10.0167
  0
LINE
  8
0
 10
-8.2865
 20
10.0167
 11
-8.89911
 21
9.47658
  0
LINE
  8
0
 10
-8.89911
 20
9.47658
 11
-9.47658
 21
8.89911
  0
LINE
  8
0
 10
-9.47658
 20
8.89911
 11
-10.0167
 21
8.2865
  0
LINE
  8
0
 10
-10.0167
 20
8.2865
 11
-10.5172
 21
7.6412
  0
LINE
  8
0
 10
-10.5172
 20
7.6412
 11
-10.9763
 21
6.96574
  0
LINE
  8
0
 10
-10.9763
 20
6.96574
 11
-11.392
 21
6.26279
  0
LINE
  8
0
 10
-11.392
 20
6.26279
 11
-11.7627
 21
5.53513
  0
LINE
  8
0
 10
-11.7627
 20
5.53513
 11
-12.0871
 21
4.78561
  0
LINE
  8
0
 10
-12.0871
 20
4.78561
 11
-12.3637
 21
4.01721
  0
LINE
  8
0
 10
-12.3637
 20
4.01721
 11
-12.5916
 21
3.23296
  0
LINE
  8
0
 10
-12.5916
 20
3.23296
 11
-12.7697
 21
2.43594
  0
LINE
  8
0
 10
-12.7697
 20
2.43594
 11
-12.8975
 21
1.62932
  0
LINE
  8
0
 10
-12.8975
 20
1.62932
 11
-12.9743
 21
0.816269
  0
LINE
  8
0
 10
-12.9743
 20
0.816269
 11
-13
 21
0
  0
LINE
  8
0
 10
-13
 20
0
 11
-12.9743
 21
-0.816269
  0
LINE
  8
0
 10
-12.9743
 20
-0.816269
 11
-12.8975
 21
-1.62932
  0
LINE
  8
0
 10
-12.8975
 20
-1.62932
 11
-12.7697
 21
-2.43594
  0
LINE
  8
0
 10
-12.7697
 20
-2.43594
 11
-12.5916
 21
-3.23296
  0
LINE
  8
0
 10
-12.5916
 20
-3.23296
 11
-12.3637
 21
-4.01721
  0
LINE
  8
0
 10
-12.3637
 20
-4.01721
 11
-12.0871
 21
-4.78561
  0
LINE
  8
0
 10
-12.0871
 20
-4.78561
 11
-11.7627
 21
-5.53513
  0
LINE
  8
0
 10
-11.7627
 20
-5.53513
 11
-11.392
 21
-6.26279
  0
LINE
  8
0
 10
-11.392
 20
-6.26279
 11
-10.9763
 21
-6.96574
  0
LINE
  8
0
 10
-10.9763
 20
-6.96574
 11
-10.5172
 21
-7.6412
  0
LINE
  8
0
 10
-10.5172
 20
-7.6412
 11
-10.0167
 21
-8.2865
  0
LINE
  8
0
 10
-10.0167
 20
-8.2865
 11
-9.47658
 21
-8.89911
  0
LINE
  8
0
 10
-9.47658
 20
-8.89911
 11
-8.89911
 21
-9.47658
  0
LINE
  8
0
 10
-8.89911
 20
-9.47658
 11
-8.2865
 21
-10.0167
  0
LINE
  8
0
 10
-8.2865
 20
-10.0167
 11
-7.6412
 21
-10.5172
  0
LINE
  8
0
 10
-7.6412
 20
-10.5172
 11
-6.96574
 21
-10.9763
  0
LINE
  8
0
 10
-6.96574
 20
-10.9763
 11
-6.26279
 21
-11.392
  0
LINE
  8
0
 10
-6.26279
 20
-11.392
 11
-5.53513
 21
-11.7627
  0
LINE
  8
0
 10
-5.53513
 20
-11.7627
 11
-4.78561
 21
-12.0871
  0
LINE
  8
0
 10
-4.78561
 20
-12.0871
 11
-4.01721
 21
-12.3637
  0
LINE
  8
0
 10
-4.01721
 20
-12.3637
 11
-3.23296
 21
-12.5916
  0
LINE
  8
0
 10
-3.23296
 20
-12.5916
 11
-2.43594
 21
-12.7697
  0
LINE
  8
0
 10
-2.43594
 20
-12.7697
 11
-1.62932
 21
-12.8975
  0
LINE
  8
0
 10
-1.62932
 20
-12.8975
 11
-0.816269
 21
-12.9743
  0
LINE
  8
0
 10
-0.816269
 20
-12.9743
 11
0
 21
-13
  0
LINE
  8
0
 10
0
 20
-13
 11
0.816269
 21
-12.9743
  0
LINE
  8
0
 10
-0.690689
 20
-10.9783
 11
-1.37866
 21
-10.9133
  0
LINE
  8
0
 10
-1.37866
 20
-10.9133
 11
-2.06119
 21
-10.8051
  0
LINE
  8
0
 10
-2.06119
 20
-10.8051
 11
-2.73558
 21
-10.6544
  0
LINE
  8
0
 10
-2.73558
 20
-10.6544
 11
-3.39919
 21
-10.4616
  0
LINE
  8
0
 10
-3.39919
 20
-10.4616
 11
-4.04936
 21
-10.2275
  0
LINE
  8
0
 10
-4.04936
 20
-10.2275
 11
-4.68356
 21
-9.95309
  0
LINE
  8
0
 10
-4.68356
 20
-9.95309
 11
-5.29929
 21
-9.63936
  0
LINE
  8
0
 10
-5.29929
 20
-9.63936
 11
-5.89409
 21
-9.2876
  0
LINE
  8
0
 10
-5.89409
 20
-9.2876
 11
-6.46564
 21
-8.89919
  0
LINE
  8
0
 10
-6.46564
 20
-8.89919
 11
-7.01166
 21
-8.47563
  0
LINE
  8
0
 10
-7.01166
 20
-8.47563
 11
-7.53001
 21
-8.01865
  0
LINE
  8
0
 10
-7.53001
 20
-8.01865
 11
-8.01865
 21
-7.53001
  0
LINE
  8
0
 10
-8.01865
 20
-7.53001
 11
-8.47563
 21
-7.01166
  0
LINE
  8
0
 10
-8.47563
 20
-7.01166
 11
-8.89919
 21
-6.46564
  0
LINE
  8
0
 10
-8.89919
 20
-6.46564
 11
-9.2876
 21
-5.89409
  0
LINE
  8
0
 10
-9.2876
 20
-5.89409
 11
-9.63936
 21
-5.29929
  0
LINE
  8
0
 10
-9.63936
 20
-5.29929
 11
-9.95309
 21
-4.68356
  0
LINE
  8
0
 10
-9.95309
 20
-4.68356
 11
-10.2275
 21
-4.04936
  0
LINE
  8
0
 10
-10.2275
 20
-4.04936
 11
-10.4616
 21
-3.39919
  0
LINE
  8
0
 10
-10.4616
 20
-3.39919
 11
-10.6544
 21
-2.73558
  0
LINE
  8
0
 10
-10.6544
 20
-2.73558
 11
-10.8051
 21
-2.06119
  0
LINE
  8
0
 10
-10.8051
 20
-2.06119
 11
-10.9133
 21
-1.37866
  0
LINE
  8
0
 10
-10.9133
 20
-1.37866
 11
-10.9783
 21
-0.690689
  0
LINE
  8
0
 10
-10.9783
 20
-0.690689
 11
-11
 21
0
  0
LINE
  8
0
 10
-11
 20
0
 11
-10.9783
 21
0.690689
  0
LINE
  8
0
 10
-10.9783
 20
0.690689
 11
-10.9133
 21
1.37866
  0
LINE
  8
0
 10
-10.9133
 20
1.37866
 11
-10.8051
 21
2.06119
  0
LINE
  8
0
 10
-10.8051
 20
2.06119
 11
-10.6544
 21
2.73558
  0
LINE
  8
0
 10
-10.6544
 20
2.73558
 11
-10.4616
 21
3.39919
  0
LINE
  8
0
 10
-10.4616
 20
3.39919
 11
-10.2275
 21
4.04936
  0
LINE
  8
0
 10
-10.2275
 20
4.04936
 11
-9.95309
 21
4.68356
  0
LINE
  8
0
 10
-9.95309
 20
4.68356
 11
-9.63936
 21
5.29929
  0
LINE
  8
0
 10
-9.63936
 20
5.29929
 11
-9.2876
 21
5.89409
  0
LINE
  8
0
 10
-9.2876
 20
5.89409
 11
-8.89919
 21
6.46564
  0
LINE
  8
0
 10
-8.89919
 20
6.46564
 11
-8.47563
 21
7.01166
  0
LINE
  8
0
 10
-8.47563
 20
7.01166
 11
-8.01865
 21
7.53001
  0
LINE
  8
0
 10
-8.01865
 20
7.53001
 11
-7.53001
 21
8.01865
  0
LINE
  8
0
 10
-7.53001
 20
8.01865
 11
-7.01166
 21
8.47563
  0
LINE
  8
0
 10
-7.01166
 20
8.47563
 11
-6.46564
 21
8.89919
  0
LINE
  8
0
 10
-6.46564
 20
8.89919
 11
-5.89409
 21
9.2876
  0
LINE
  8
0
 10
-5.89409
 20
9.2876
 11
-5.29929
 21
9.63936
  0
LINE
  8
0
 10
-5.29929
 20
9.63936
 11
-4.68356
 21
9.95309
  0
LINE
  8
0
 10
-4.68356
 20
9.95309
 11
-4.04936
 21
10.2275
  0
LINE
  8
0
 10
-4.04936
 20
10.2275
 11
-3.39919
 21
10.4616
  0
LINE
  8
0
 10
-3.39919
 20
10.4616
 11
-2.73558
 21
10.6544
  0
LINE
  8
0
 10
-2.73558
 20
10.6544
 11
-2.06119
 21
10.8051
  0
LINE
  8
0
 10
-2.06119
 20
10.8051
 11
-1.37866
 21
10.9133
  0
LINE
  8
0
 10
-1.37866
 20
10.9133
 11
-0.690689
 21
10.9783
  0
LINE
  8
0
 10
-0.690689
 20
10.9783
 11
0
 21
11
  0
LINE
  8
0
 10
0
 20
11
 11
0.690689
 21
10.9783
  0
LINE
  8
0
 10
0.690689
 20
10.9783
 11
1.37866
 21
10.9133
  0
LINE
  8
0
 10
1.37866
 20
10.9133
 11
2.06119
 21
10.8051
  0
LINE
  8
0
 10
2.06119
 20
10.8051
 11
2.73558
 21
10.6544
  0
LINE
  8
0
 10
2.73558
 20
10.6544
 11
3.39919
 21
10.4616
  0
LINE
  8
0
 10
3.39919
 20
10.4616
 11
4.04936
 21
10.2275
  0
LINE
  8
0
 10
4.04936
 20
10.2275
 11
4.68356
 21
9.95309
  0
LINE
  8
0
 10
4.68356
 20
9.95309
 11
5.29929
 21
9.63936
  0
LINE
  8
0
 10
5.29929
 20
9.63936
 11
5.89409
 21
9.2876
  0
LINE
  8
0
 10
5.89409
 20
9.2876
 11
6.46564
 21
8.89919
  0
LINE
  8
0
 10
6.46564
 20
8.89919
 11
7.01166
 21
8.47563
  0
LINE
  8
0
 10
7.01166
 20
8.47563
 11
7.53001
 21
8.01865
  0
LINE
  8
0
 10
7.53001
 20
8.01865
 11
8.01865
 21
7.53001
  0
LINE
  8
0
 10
8.01865
 20
7.53001
 11
8.47563
 21
7.01166
  0
LINE
  8
0
 10
8.47563
 20
7.01166
 11
8.89919
 21
6.46564
  0
LINE
  8
0
 10
8.89919
 20
6.46564
 11
9.2876
 21
5.89409
  0
LINE
  8
0
 10
9.2876
 20
5.89409
 11
9.63936
 21
5.29929
  0
LINE
  8
0
 10
9.63936
 20
5.29929
 11
9.95309
 21
4.68356
  0
LINE
  8
0
 10
9.95309
 20
4.68356
 11
10.2275
 21
4.04936
  0
LINE
  8
0
 10
10.2275
 20
4.04936
 11
10.4616
 21
3.39919
  0
LINE
  8
0
 10
10.4616
 20
3.39919
 11
10.6544
 21
2.73558
  0
LINE
  8
0
 10
10.6544
 20
2.73558
 11
10.8051
 21
2.06119
  0
LINE
  8
0
 10
10.8051
 20
2.06119
 11
10.9133
 21
1.37866
  0
LINE
  8
0
 10
10.9133
 20
1.37866
 11
10.9783
 21
0.690689
  0
LINE
  8
0
 10
10.9783
 20
0.690689
 11
11
 21
0
  0
LINE
  8
0
 10
11
 20
0
 11
10.9783
 21
-0.690689
  0
LINE
  8
0
 10
10.9783
 20
-0.690689
 11
10.9133
 21
-1.37866
  0
LINE
  8
0
 10
10.9133
 20
-1.37866
 11
10.8051
 21
-2.06119
  0
LINE
  8
0
 10
10.8051
 20
-2.06119
 11
10.6544
 21
-2.73558
  0
LINE
  8
0
 10
10.6544
 20
-2.73558
 11
10.4616
 21
-3.39919
  0
LINE
  8
0
 10
10.4616
 20
-3.39919
 11
10.2275
 21
-4.04936
  0
LINE
  8
0
 10
10.2275
 20
-4.04936
 11
9.95309
 21
-4.68356
  0
LINE
  8
0
 10
9.95309
 20
-4.68356
 11
9.63936
 21
-5.29929
  0
LINE
  8
0
 10
9.63936
 20
-5.29929
 11
9.2876
 21
-5.89409
  0
LINE
  8
0
 10
9.2876
 20
-5.89409
 11
8.89919
 21
-6.46564
  0
LINE
  8
0
 10
8.89919
 20
-6.46564
 11
8.47563
 21
-7.01166
  0
LINE
  8
0
 10
8.47563
 20
-7.01166
 11
8.01865
 21
-7.53001
  0
LINE
  8
0
 10
8.01865
 20
-7.53001
 11
7.53001
 21
-8.01865
  0
LINE
  8
0
 10
7.53001
 20
-8.01865
 11
7.01166
 21
-8.47563
  0
LINE
  8
0
 10
7.01166
 20
-8.47563
 11
6.46564
 21
-8.89919
  0
LINE
  8
0
 10
6.46564
 20
-8.89919
 11
5.89409
 21
-9.2876
  0
LINE
  8
0
 10
5.89409
 20
-9.2876
 11
5.29929
 21
-9.63936
  0
LINE
  8
0
 10
5.29929
 20
-9.63936
 11
4.68356
 21
-9.95309
  0
LINE
  8
0
 10
4.68356
 20
-9.95309
 11
4.04936
 21
-10.2275
  0
LINE
  8
0
 10
4.04936
 20
-10.2275
 11
3.39919
 21
-10.4616
  0
LINE
  8
0
 10
3.39919
 20
-10.4616
 11
2.73558
 21
-10.6544
  0
LINE
  8
0
 10
2.73558
 20
-10.6544
 11
2.06119
 21
-10.8051
  0
LINE
  8
0
 10
2.06119
 20
-10.8051
 11
1.37866
 21
-10.9133
  0
LINE
  8
0
 10
1.37866
 20
-10.9133
 11
0.690689
 21
-10.9783
  0
LINE
  8
0
 10
0.690689
 20
-10.9783
 11
0
 21
-11
  0
LINE
  8
0
 10
0
 20
-11
 11
-0.690689
 21
-10.9783
  0
ENDSEC
  0
SECTION
  2
OBJECTS
  0
DICTIONARY
  0
ENDSEC
  0
EOF
