  0
SECTION
  2
BLOCKS
  0
ENDSEC
  0
SECTION
  2
ENTITIES
  0
LINE
  8
0
 10
0.439529
 20
-6.98618
 11
0.877319
 21
-6.94479
  0
LINE
  8
0
 10
0.877319
 20
-6.94479
 11
1.31166
 21
-6.87601
  0
LINE
  8
0
 10
1.31166
 20
-6.87601
 11
1.74081
 21
-6.78008
  0
LINE
  8
0
 10
1.74081
 20
-6.78008
 11
2.16312
 21
-6.65739
  0
LINE
  8
0
 10
2.16312
 20
-6.65739
 11
2.57686
 21
-6.50842
  0
LINE
  8
0
 10
2.57686
 20
-6.50842
 11
2.98045
 21
-6.33379
  0
LINE
  8
0
 10
2.98045
 20
-6.33379
 11
3.37227
 21
-6.13414
  0
LINE
  8
0
 10
3.37227
 20
-6.13414
 11
3.75078
 21
-5.91029
  0
LINE
  8
0
 10
3.75078
 20
-5.91029
 11
4.11449
 21
-5.66312
  0
LINE
  8
0
 10
4.11449
 20
-5.66312
 11
4.46196
 21
-5.39359
  0
LINE
  8
0
 10
4.46196
 20
-5.39359
 11
4.79182
 21
-5.10277
  0
LINE
  8
0
 10
4.79182
 20
-5.10277
 11
5.10277
 21
-4.79182
  0
LINE
  8
0
 10
5.10277
 20
-4.79182
 11
5.39359
 21
-4.46196
  0
LINE
  8
0
 10
5.39359
 20
-4.46196
 11
5.66312
 21
-4.11449
  0
LINE
  8
0
 10
5.66312
 20
-4.11449
 11
5.91029
 21
-3.75078
  0
LINE
  8
0
 10
5.91029
 20
-3.75078
 11
6.13414
 21
-3.37227
  0
LINE
  8
0
 10
6.13414
 20
-3.37227
 11
6.33379
 21
-2.98045
  0
LINE
  8
0
 10
6.33379
 20
-2.98045
 11
6.50842
 21
-2.57686
  0
LINE
  8
0
 10
6.50842
 20
-2.57686
 11
6.65739
 21
-2.16312
  0
LINE
  8
0
 10
6.65739
 20
-2.16312
 11
6.78008
 21
-1.74081
  0
LINE
  8
0
 10
6.78008
 20
-1.74081
 11
6.87601
 21
-1.31166
  0
LINE
  8
0
 10
6.87601
 20
-1.31166
 11
6.94479
 21
-0.877319
  0
LINE
  8
0
 10
6.94479
 20
-0.877319
 11
6.98618
 21
-0.439529
  0
LINE
  8
0
 10
6.98618
 20
-0.439529
 11
7
 21
0
  0
LINE
  8
0
 10
7
 20
0
 11
6.98618
 21
0.439529
  0
LINE
  8
0
 10
6.98618
 20
0.439529
 11
6.94479
 21
0.877319
  0
LINE
  8
0
 10
6.94479
 20
0.877319
 11
6.87601
 21
1.31166
  0
LINE
  8
0
 10
6.87601
 20
1.31166
 11
6.78008
 21
1.74081
  0
LINE
  8
0
 10
6.78008
 20
1.74081
 11
6.65739
 21
2.16312
  0
LINE
  8
0
 10
6.65739
 20
2.16312
 11
6.50842
 21
2.57686
  0
LINE
  8
0
 10
6.50842
 20
2.57686
 11
6.33379
 21
2.98045
  0
LINE
  8
0
 10
6.33379
 20
2.98045
 11
6.13414
 21
3.37227
  0
LINE
  8
0
 10
6.13414
 20
3.37227
 11
5.91029
 21
3.75078
  0
LINE
  8
0
 10
5.91029
 20
3.75078
 11
5.66312
 21
4.11449
  0
LINE
  8
0
 10
5.66312
 20
4.11449
 11
5.39359
 21
4.46196
  0
LINE
  8
0
 10
5.39359
 20
4.46196
 11
5.10277
 21
4.79182
  0
LINE
  8
0
 10
5.10277
 20
4.79182
 11
4.79182
 21
5.10277
  0
LINE
  8
0
 10
4.79182
 20
5.10277
 11
4.46196
 21
5.39359
  0
LINE
  8
0
 10
4.46196
 20
5.39359
 11
4.11449
 21
5.66312
  0
LINE
  8
0
 10
4.11449
 20
5.66312
 11
3.75078
 21
5.91029
  0
LINE
  8
0
 10
3.75078
 20
5.91029
 11
3.37227
 21
6.13414
  0
LINE
  8
0
 10
3.37227
 20
6.13414
 11
2.98045
 21
6.33379
  0
LINE
  8
0
 10
2.98045
 20
6.33379
 11
2.57686
 21
6.50842
  0
LINE
  8
0
 10
2.57686
 20
6.50842
 11
2.16312
 21
6.65739
  0
LINE
  8
0
 10
2.16312
 20
6.65739
 11
1.74081
 21
6.78008
  0
LINE
  8
0
 10
1.74081
 20
6.78008
 11
1.31166
 21
6.87601
  0
LINE
  8
0
 10
1.31166
 20
6.87601
 11
0.877319
 21
6.94479
  0
LINE
  8
0
 10
0.877319
 20
6.94479
 11
0.439529
 21
6.98618
  0
LINE
  8
0
 10
0.439529
 20
6.98618
 11
0
 21
7
  0
LINE
  8
0
 10
0
 20
7
 11
-0.439529
 21
6.98618
  0
LINE
  8
0
 10
-0.439529
 20
6.98618
 11
-0.877319
 21
6.94479
  0
LINE
  8
0
 10
-0.877319
 20
6.94479
 11
-1.31166
 21
6.87601
  0
LINE
  8
0
 10
-1.31166
 20
6.87601
 11
-1.74081
 21
6.78008
  0
LINE
  8
0
 10
-1.74081
 20
6.78008
 11
-2.16312
 21
6.65739
  0
LINE
  8
0
 10
-2.16312
 20
6.65739
 11
-2.57686
 21
6.50842
  0
LINE
  8
0
 10
-2.57686
 20
6.50842
 11
-2.98045
 21
6.33379
  0
LINE
  8
0
 10
-2.98045
 20
6.33379
 11
-3.37227
 21
6.13414
  0
LINE
  8
0
 10
-3.37227
 20
6.13414
 11
-3.75078
 21
5.91029
  0
LINE
  8
0
 10
-3.75078
 20
5.91029
 11
-4.11449
 21
5.66312
  0
LINE
  8
0
 10
-4.11449
 20
5.66312
 11
-4.46196
 21
5.39359
  0
LINE
  8
0
 10
-4.46196
 20
5.39359
 11
-4.79182
 21
5.10277
  0
LINE
  8
0
 10
-4.79182
 20
5.10277
 11
-5.10277
 21
4.79182
  0
LINE
  8
0
 10
-5.10277
 20
4.79182
 11
-5.39359
 21
4.46196
  0
LINE
  8
0
 10
-5.39359
 20
4.46196
 11
-5.66312
 21
4.11449
  0
LINE
  8
0
 10
-5.66312
 20
4.11449
 11
-5.91029
 21
3.75078
  0
LINE
  8
0
 10
-5.91029
 20
3.75078
 11
-6.13414
 21
3.37227
  0
LINE
  8
0
 10
-6.13414
 20
3.37227
 11
-6.33379
 21
2.98045
  0
LINE
  8
0
 10
-6.33379
 20
2.98045
 11
-6.50842
 21
2.57686
  0
LINE
  8
0
 10
-6.50842
 20
2.57686
 11
-6.65739
 21
2.16312
  0
LINE
  8
0
 10
-6.65739
 20
2.16312
 11
-6.78008
 21
1.74081
  0
LINE
  8
0
 10
-6.78008
 20
1.74081
 11
-6.87601
 21
1.31166
  0
LINE
  8
0
 10
-6.87601
 20
1.31166
 11
-6.94479
 21
0.877319
  0
LINE
  8
0
 10
-6.94479
 20
0.877319
 11
-6.98618
 21
0.439529
  0
LINE
  8
0
 10
-6.98618
 20
0.439529
 11
-7
 21
0
  0
LINE
  8
0
 10
-7
 20
0
 11
-6.98618
 21
-0.439529
  0
LINE
  8
0
 10
-6.98618
 20
-0.439529
 11
-6.94479
 21
-0.877319
  0
LINE
  8
0
 10
-6.94479
 20
-0.877319
 11
-6.87601
 21
-1.31166
  0
LINE
  8
0
 10
-6.87601
 20
-1.31166
 11
-6.78008
 21
-1.74081
  0
LINE
  8
0
 10
-6.78008
 20
-1.74081
 11
-6.65739
 21
-2.16312
  0
LINE
  8
0
 10
-6.65739
 20
-2.16312
 11
-6.50842
 21
-2.57686
  0
LINE
  8
0
 10
-6.50842
 20
-2.57686
 11
-6.33379
 21
-2.98045
  0
LINE
  8
0
 10
-6.33379
 20
-2.98045
 11
-6.13414
 21
-3.37227
  0
LINE
  8
0
 10
-6.13414
 20
-3.37227
 11
-5.91029
 21
-3.75078
  0
LINE
  8
0
 10
-5.91029
 20
-3.75078
 11
-5.66312
 21
-4.11449
  0
LINE
  8
0
 10
-5.66312
 20
-4.11449
 11
-5.39359
 21
-4.46196
  0
LINE
  8
0
 10
-5.39359
 20
-4.46196
 11
-5.10277
 21
-4.79182
  0
LINE
  8
0
 10
-5.10277
 20
-4.79182
 11
-4.79182
 21
-5.10277
  0
LINE
  8
0
 10
-4.79182
 20
-5.10277
 11
-4.46196
 21
-5.39359
  0
LINE
  8
0
 10
-4.46196
 20
-5.39359
 11
-4.11449
 21
-5.66312
  0
LINE
  8
0
 10
-4.11449
 20
-5.66312
 11
-3.75078
 21
-5.91029
  0
LINE
  8
0
 10
-3.75078
 20
-5.91029
 11
-3.37227
 21
-6.13414
  0
LINE
  8
0
 10
-3.37227
 20
-6.13414
 11
-2.98045
 21
-6.33379
  0
LINE
  8
0
 10
-2.98045
 20
-6.33379
 11
-2.57686
 21
-6.50842
  0
LINE
  8
0
 10
-2.57686
 20
-6.50842
 11
-2.16312
 21
-6.65739
  0
LINE
  8
0
 10
-2.16312
 20
-6.65739
 11
-1.74081
 21
-6.78008
  0
LINE
  8
0
 10
-1.74081
 20
-6.78008
 11
-1.31166
 21
-6.87601
  0
LINE
  8
0
 10
-1.31166
 20
-6.87601
 11
-0.877319
 21
-6.94479
  0
LINE
  8
0
 10
-0.877319
 20
-6.94479
 11
-0.439529
 21
-6.98618
  0
LINE
  8
0
 10
-0.439529
 20
-6.98618
 11
0
 21
-7
  0
LINE
  8
0
 10
0
 20
-7
 11
0.439529
 21
-6.98618
  0
LINE
  8
0
 10
-0.25116
 20
-3.9921
 11
-0.501328
 21
-3.96844
  0
LINE
  8
0
 10
-0.501328
 20
-3.96844
 11
-0.749512
 21
-3.92914
  0
LINE
  8
0
 10
-0.749512
 20
-3.92914
 11
-0.994751
 21
-3.87433
  0
LINE
  8
0
 10
-0.994751
 20
-3.87433
 11
-1.23605
 21
-3.80421
  0
LINE
  8
0
 10
-1.23605
 20
-3.80421
 11
-1.47249
 21
-3.7191
  0
LINE
  8
0
 10
-1.47249
 20
-3.7191
 11
-1.70311
 21
-3.61929
  0
LINE
  8
0
 10
-1.70311
 20
-3.61929
 11
-1.927
 21
-3.50522
  0
LINE
  8
0
 10
-1.927
 20
-3.50522
 11
-2.1433
 21
-3.3773
  0
LINE
  8
0
 10
-2.1433
 20
-3.3773
 11
-2.35114
 21
-3.23605
  0
LINE
  8
0
 10
-2.35114
 20
-3.23605
 11
-2.54968
 21
-3.08205
  0
LINE
  8
0
 10
-2.54968
 20
-3.08205
 11
-2.73817
 21
-2.91586
  0
LINE
  8
0
 10
-2.73817
 20
-2.91586
 11
-2.91586
 21
-2.73817
  0
LINE
  8
0
 10
-2.91586
 20
-2.73817
 11
-3.08205
 21
-2.54968
  0
LINE
  8
0
 10
-3.08205
 20
-2.54968
 11
-3.23605
 21
-2.35114
  0
LINE
  8
0
 10
-3.23605
 20
-2.35114
 11
-3.3773
 21
-2.1433
  0
LINE
  8
0
 10
-3.3773
 20
-2.1433
 11
-3.50522
 21
-1.927
  0
LINE
  8
0
 10
-3.50522
 20
-1.927
 11
-3.61929
 21
-1.70311
  0
LINE
  8
0
 10
-3.61929
 20
-1.70311
 11
-3.7191
 21
-1.47249
  0
LINE
  8
0
 10
-3.7191
 20
-1.47249
 11
-3.80421
 21
-1.23605
  0
LINE
  8
0
 10
-3.80421
 20
-1.23605
 11
-3.87433
 21
-0.994751
  0
LINE
  8
0
 10
-3.87433
 20
-0.994751
 11
-3.92914
 21
-0.749512
  0
LINE
  8
0
 10
-3.92914
 20
-0.749512
 11
-3.96844
 21
-0.501328
  0
LINE
  8
0
 10
-3.96844
 20
-0.501328
 11
-3.9921
 21
-0.25116
  0
LINE
  8
0
 10
-3.9921
 20
-0.25116
 11
-4
 21
0
  0
LINE
  8
0
 10
-4
 20
0
 11
-3.9921
 21
0.25116
  0
LINE
  8
0
 10
-3.9921
 20
0.25116
 11
-3.96844
 21
0.501328
  0
LINE
  8
0
 10
-3.96844
 20
0.501328
 11
-3.92914
 21
0.749512
  0
LINE
  8
0
 10
-3.92914
 20
0.749512
 11
-3.87433
 21
0.994751
  0
LINE
  8
0
 10
-3.87433
 20
0.994751
 11
-3.80421
 21
1.23605
  0
LINE
  8
0
 10
-3.80421
 20
1.23605
 11
-3.7191
 21
1.47249
  0
LINE
  8
0
 10
-3.7191
 20
1.47249
 11
-3.61929
 21
1.70311
  0
LINE
  8
0
 10
-3.61929
 20
1.70311
 11
-3.50522
 21
1.927
  0
LINE
  8
0
 10
-3.50522
 20
1.927
 11
-3.3773
 21
2.1433
  0
LINE
  8
0
 10
-3.3773
 20
2.1433
 11
-3.23605
 21
2.35114
  0
LINE
  8
0
 10
-3.23605
 20
2.35114
 11
-3.08205
 21
2.54968
  0
LINE
  8
0
 10
-3.08205
 20
2.54968
 11
-2.91586
 21
2.73817
  0
LINE
  8
0
 10
-2.91586
 20
2.73817
 11
-2.73817
 21
2.91586
  0
LINE
  8
0
 10
-2.73817
 20
2.91586
 11
-2.54968
 21
3.08205
  0
LINE
  8
0
 10
-2.54968
 20
3.08205
 11
-2.35114
 21
3.23605
  0
LINE
  8
0
 10
-2.35114
 20
3.23605
 11
-2.1433
 21
3.3773
  0
LINE
  8
0
 10
-2.1433
 20
3.3773
 11
-1.927
 21
3.50522
  0
LINE
  8
0
 10
-1.927
 20
3.50522
 11
-1.70311
 21
3.61929
  0
LINE
  8
0
 10
-1.70311
 20
3.61929
 11
-1.47249
 21
3.7191
  0
LINE
  8
0
 10
-1.47249
 20
3.7191
 11
-1.23605
 21
3.80421
  0
LINE
  8
0
 10
-1.23605
 20
3.80421
 11
-0.994751
 21
3.87433
  0
LINE
  8
0
 10
-0.994751
 20
3.87433
 11
-0.749512
 21
3.92914
  0
LINE
  8
0
 10
-0.749512
 20
3.92914
 11
-0.501328
 21
3.96844
  0
LINE
  8
0
 10
-0.501328
 20
3.96844
 11
-0.25116
 21
3.9921
  0
LINE
  8
0
 10
-0.25116
 20
3.9921
 11
0
 21
4
  0
LINE
  8
0
 10
0
 20
4
 11
0.25116
 21
3.9921
  0
LINE
  8
0
 10
0.25116
 20
3.9921
 11
0.501328
 21
3.96844
  0
LINE
  8
0
 10
0.501328
 20
3.96844
 11
0.749512
 21
3.92914
  0
LINE
  8
0
 10
0.749512
 20
3.92914
 11
0.994751
 21
3.87433
  0
LINE
  8
0
 10
0.994751
 20
3.87433
 11
1.23605
 21
3.80421
  0
LINE
  8
0
 10
1.23605
 20
3.80421
 11
1.47249
 21
3.7191
  0
LINE
  8
0
 10
1.47249
 20
3.7191
 11
1.70311
 21
3.61929
  0
LINE
  8
0
 10
1.70311
 20
3.61929
 11
1.927
 21
3.50522
  0
LINE
  8
0
 10
1.927
 20
3.50522
 11
2.1433
 21
3.3773
  0
LINE
  8
0
 10
2.1433
 20
3.3773
 11
2.35114
 21
3.23605
  0
LINE
  8
0
 10
2.35114
 20
3.23605
 11
2.54968
 21
3.08205
  0
LINE
  8
0
 10
2.54968
 20
3.08205
 11
2.73817
 21
2.91586
  0
LINE
  8
0
 10
2.73817
 20
2.91586
 11
2.91586
 21
2.73817
  0
LINE
  8
0
 10
2.91586
 20
2.73817
 11
3.08205
 21
2.54968
  0
LINE
  8
0
 10
3.08205
 20
2.54968
 11
3.23605
 21
2.35114
  0
LINE
  8
0
 10
3.23605
 20
2.35114
 11
3.3773
 21
2.1433
  0
LINE
  8
0
 10
3.3773
 20
2.1433
 11
3.50522
 21
1.927
  0
LINE
  8
0
 10
3.50522
 20
1.927
 11
3.61929
 21
1.70311
  0
LINE
  8
0
 10
3.61929
 20
1.70311
 11
3.7191
 21
1.47249
  0
LINE
  8
0
 10
3.7191
 20
1.47249
 11
3.80421
 21
1.23605
  0
LINE
  8
0
 10
3.80421
 20
1.23605
 11
3.87433
 21
0.994751
  0
LINE
  8
0
 10
3.87433
 20
0.994751
 11
3.92914
 21
0.749512
  0
LINE
  8
0
 10
3.92914
 20
0.749512
 11
3.96844
 21
0.501328
  0
LINE
  8
0
 10
3.96844
 20
0.501328
 11
3.9921
 21
0.25116
  0
LINE
  8
0
 10
3.9921
 20
0.25116
 11
4
 21
0
  0
LINE
  8
0
 10
4
 20
0
 11
3.9921
 21
-0.25116
  0
LINE
  8
0
 10
3.9921
 20
-0.25116
 11
3.96844
 21
-0.501328
  0
LINE
  8
0
 10
3.96844
 20
-0.501328
 11
3.92914
 21
-0.749512
  0
LINE
  8
0
 10
3.92914
 20
-0.749512
 11
3.87433
 21
-0.994751
  0
LINE
  8
0
 10
3.87433
 20
-0.994751
 11
3.80421
 21
-1.23605
  0
LINE
  8
0
 10
3.80421
 20
-1.23605
 11
3.7191
 21
-1.47249
  0
LINE
  8
0
 10
3.7191
 20
-1.47249
 11
3.61929
 21
-1.70311
  0
LINE
  8
0
 10
3.61929
 20
-1.70311
 11
3.50522
 21
-1.927
  0
LINE
  8
0
 10
3.50522
 20
-1.927
 11
3.3773
 21
-2.1433
  0
LINE
  8
0
 10
3.3773
 20
-2.1433
 11
3.23605
 21
-2.35114
  0
LINE
  8
0
 10
3.23605
 20
-2.35114
 11
3.08205
 21
-2.54968
  0
LINE
  8
0
 10
3.08205
 20
-2.54968
 11
2.91586
 21
-2.73817
  0
LINE
  8
0
 10
2.91586
 20
-2.73817
 11
2.73817
 21
-2.91586
  0
LINE
  8
0
 10
2.73817
 20
-2.91586
 11
2.54968
 21
-3.08205
  0
LINE
  8
0
 10
2.54968
 20
-3.08205
 11
2.35114
 21
-3.23605
  0
LINE
  8
0
 10
2.35114
 20
-3.23605
 11
2.1433
 21
-3.3773
  0
LINE
  8
0
 10
2.1433
 20
-3.3773
 11
1.927
 21
-3.50522
  0
LINE
  8
0
 10
1.927
 20
-3.50522
 11
1.70311
 21
-3.61929
  0
LINE
  8
0
 10
1.70311
 20
-3.61929
 11
1.47249
 21
-3.7191
  0
LINE
  8
0
 10
1.47249
 20
-3.7191
 11
1.23605
 21
-3.80421
  0
LINE
  8
0
 10
1.23605
 20
-3.80421
 11
0.994751
 21
-3.87433
  0
LINE
  8
0
 10
0.994751
 20
-3.87433
 11
0.749512
 21
-3.92914
  0
LINE
  8
0
 10
0.749512
 20
-3.92914
 11
0.501328
 21
-3.96844
  0
LINE
  8
0
 10
0.501328
 20
-3.96844
 11
0.25116
 21
-3.9921
  0
LINE
  8
0
 10
0.25116
 20
-3.9921
 11
0
 21
-4
  0
LINE
  8
0
 10
0
 20
-4
 11
-0.25116
 21
-3.9921
  0
ENDSEC
  0
SECTION
  2
OBJECTS
  0
DICTIONARY
  0
ENDSEC
  0
EOF
