  0
SECTION
  2
BLOCKS
  0
ENDSEC
  0
SECTION
  2
ENTITIES
  0
LINE
  8
0
 10
4.5
 20
24
 11
-4.5
 21
24
  0
LINE
  8
0
 10
-4.5
 20
24
 11
-4.5
 21
10
  0
LINE
  8
0
 10
-4.5
 20
10
 11
4.5
 21
10
  0
LINE
  8
0
 10
4.5
 20
10
 11
4.5
 21
24
  0
LINE
  8
0
 10
-3.5
 20
11
 11
-3.5
 21
23
  0
LINE
  8
0
 10
-3.5
 20
23
 11
3.5
 21
23
  0
LINE
  8
0
 10
3.5
 20
23
 11
3.5
 21
11
  0
LINE
  8
0
 10
3.5
 20
11
 11
-3.5
 21
11
  0
LINE
  8
0
 10
14.5
 20
24
 11
5.5
 21
24
  0
LINE
  8
0
 10
5.5
 20
24
 11
5.5
 21
10
  0
LINE
  8
0
 10
5.5
 20
10
 11
14.5
 21
10
  0
LINE
  8
0
 10
14.5
 20
10
 11
14.5
 21
24
  0
LINE
  8
0
 10
6.5
 20
11
 11
6.5
 21
23
  0
LINE
  8
0
 10
6.5
 20
23
 11
13.5
 21
23
  0
LINE
  8
0
 10
13.5
 20
23
 11
13.5
 21
11
  0
LINE
  8
0
 10
13.5
 20
11
 11
6.5
 21
11
  0
LINE
  8
0
 10
2.5
 20
9
 11
-2.5
 21
9
  0
LINE
  8
0
 10
-2.5
 20
9
 11
-2.5
 21
-9
  0
LINE
  8
0
 10
-2.5
 20
-9
 11
2.5
 21
-9
  0
LINE
  8
0
 10
2.5
 20
-9
 11
2.5
 21
9
  0
LINE
  8
0
 10
8.5
 20
9
 11
3.5
 21
9
  0
LINE
  8
0
 10
3.5
 20
9
 11
3.5
 21
-9
  0
LINE
  8
0
 10
3.5
 20
-9
 11
8.5
 21
-9
  0
LINE
  8
0
 10
8.5
 20
-9
 11
8.5
 21
9
  0
LINE
  8
0
 10
14.5
 20
9
 11
9.5
 21
9
  0
LINE
  8
0
 10
9.5
 20
9
 11
9.5
 21
-9
  0
LINE
  8
0
 10
9.5
 20
-9
 11
14.5
 21
-9
  0
LINE
  8
0
 10
14.5
 20
-9
 11
14.5
 21
9
  0
LINE
  8
0
 10
20.5
 20
9
 11
15.5
 21
9
  0
LINE
  8
0
 10
15.5
 20
9
 11
15.5
 21
-9
  0
LINE
  8
0
 10
15.5
 20
-9
 11
20.5
 21
-9
  0
LINE
  8
0
 10
20.5
 20
-9
 11
20.5
 21
9
  0
ENDSEC
  0
SECTION
  2
OBJECTS
  0
DICTIONARY
  0
ENDSEC
  0
EOF
