  0
SECTION
  2
BLOCKS
  0
ENDSEC
  0
SECTION
  2
ENTITIES
  0
LINE
  8
0
 10
75
 20
41
 11
-85
 21
41
  0
LINE
  8
0
 10
-85
 20
41
 11
-85
 21
-41
  0
LINE
  8
0
 10
-85
 20
-41
 11
75
 21
-41
  0
LINE
  8
0
 10
75
 20
-41
 11
75
 21
41
  0
LINE
  8
0
 10
20.0488
 20
27.5079
 11
19.7987
 21
27.5315
  0
LINE
  8
0
 10
19.7987
 20
27.5315
 11
19.5505
 21
27.5708
  0
LINE
  8
0
 10
19.5505
 20
27.5708
 11
19.3052
 21
27.6257
  0
LINE
  8
0
 10
19.3052
 20
27.6257
 11
19.0639
 21
27.6958
  0
LINE
  8
0
 10
19.0639
 20
27.6958
 11
18.8275
 21
27.7809
  0
LINE
  8
0
 10
18.8275
 20
27.7809
 11
18.5969
 21
27.8807
  0
LINE
  8
0
 10
18.5969
 20
27.8807
 11
18.373
 21
27.9948
  0
LINE
  8
0
 10
18.373
 20
27.9948
 11
18.1567
 21
28.1227
  0
LINE
  8
0
 10
18.1567
 20
28.1227
 11
17.9489
 21
28.2639
  0
LINE
  8
0
 10
17.9489
 20
28.2639
 11
17.7503
 21
28.4179
  0
LINE
  8
0
 10
17.7503
 20
28.4179
 11
17.5618
 21
28.5841
  0
LINE
  8
0
 10
17.5618
 20
28.5841
 11
17.3841
 21
28.7618
  0
LINE
  8
0
 10
17.3841
 20
28.7618
 11
17.2179
 21
28.9503
  0
LINE
  8
0
 10
17.2179
 20
28.9503
 11
17.0639
 21
29.1488
  0
LINE
  8
0
 10
17.0639
 20
29.1488
 11
16.9227
 21
29.3567
  0
LINE
  8
0
 10
16.9227
 20
29.3567
 11
16.7948
 21
29.573
  0
LINE
  8
0
 10
16.7948
 20
29.573
 11
16.6807
 21
29.7969
  0
LINE
  8
0
 10
16.6807
 20
29.7969
 11
16.5809
 21
30.0275
  0
LINE
  8
0
 10
16.5809
 20
30.0275
 11
16.4958
 21
30.2639
  0
LINE
  8
0
 10
16.4958
 20
30.2639
 11
16.4257
 21
30.5052
  0
LINE
  8
0
 10
16.4257
 20
30.5052
 11
16.3708
 21
30.7505
  0
LINE
  8
0
 10
16.3708
 20
30.7505
 11
16.3315
 21
30.9987
  0
LINE
  8
0
 10
16.3315
 20
30.9987
 11
16.3079
 21
31.2488
  0
LINE
  8
0
 10
16.3079
 20
31.2488
 11
16.3
 21
31.5
  0
LINE
  8
0
 10
16.3
 20
31.5
 11
16.3079
 21
31.7512
  0
LINE
  8
0
 10
16.3079
 20
31.7512
 11
16.3315
 21
32.0013
  0
LINE
  8
0
 10
16.3315
 20
32.0013
 11
16.3708
 21
32.2495
  0
LINE
  8
0
 10
16.3708
 20
32.2495
 11
16.4257
 21
32.4948
  0
LINE
  8
0
 10
16.4257
 20
32.4948
 11
16.4958
 21
32.7361
  0
LINE
  8
0
 10
16.4958
 20
32.7361
 11
16.5809
 21
32.9725
  0
LINE
  8
0
 10
16.5809
 20
32.9725
 11
16.6807
 21
33.2031
  0
LINE
  8
0
 10
16.6807
 20
33.2031
 11
16.7948
 21
33.427
  0
LINE
  8
0
 10
16.7948
 20
33.427
 11
16.9227
 21
33.6433
  0
LINE
  8
0
 10
16.9227
 20
33.6433
 11
17.0639
 21
33.8511
  0
LINE
  8
0
 10
17.0639
 20
33.8511
 11
17.2179
 21
34.0497
  0
LINE
  8
0
 10
17.2179
 20
34.0497
 11
17.3841
 21
34.2382
  0
LINE
  8
0
 10
17.3841
 20
34.2382
 11
17.5618
 21
34.4159
  0
LINE
  8
0
 10
17.5618
 20
34.4159
 11
17.7503
 21
34.582
  0
LINE
  8
0
 10
17.7503
 20
34.582
 11
17.9489
 21
34.7361
  0
LINE
  8
0
 10
17.9489
 20
34.7361
 11
18.1567
 21
34.8773
  0
LINE
  8
0
 10
18.1567
 20
34.8773
 11
18.373
 21
35.0052
  0
LINE
  8
0
 10
18.373
 20
35.0052
 11
18.5969
 21
35.1193
  0
LINE
  8
0
 10
18.5969
 20
35.1193
 11
18.8275
 21
35.2191
  0
LINE
  8
0
 10
18.8275
 20
35.2191
 11
19.0639
 21
35.3042
  0
LINE
  8
0
 10
19.0639
 20
35.3042
 11
19.3052
 21
35.3743
  0
LINE
  8
0
 10
19.3052
 20
35.3743
 11
19.5505
 21
35.4291
  0
LINE
  8
0
 10
19.5505
 20
35.4291
 11
19.7987
 21
35.4684
  0
LINE
  8
0
 10
19.7987
 20
35.4684
 11
20.0488
 21
35.4921
  0
LINE
  8
0
 10
20.0488
 20
35.4921
 11
20.3
 21
35.5
  0
LINE
  8
0
 10
20.3
 20
35.5
 11
20.5511
 21
35.4921
  0
LINE
  8
0
 10
20.5511
 20
35.4921
 11
20.8013
 21
35.4684
  0
LINE
  8
0
 10
20.8013
 20
35.4684
 11
21.0495
 21
35.4291
  0
LINE
  8
0
 10
21.0495
 20
35.4291
 11
21.2948
 21
35.3743
  0
LINE
  8
0
 10
21.2948
 20
35.3743
 11
21.5361
 21
35.3042
  0
LINE
  8
0
 10
21.5361
 20
35.3042
 11
21.7725
 21
35.2191
  0
LINE
  8
0
 10
21.7725
 20
35.2191
 11
22.0031
 21
35.1193
  0
LINE
  8
0
 10
22.0031
 20
35.1193
 11
22.227
 21
35.0052
  0
LINE
  8
0
 10
22.227
 20
35.0052
 11
22.4433
 21
34.8773
  0
LINE
  8
0
 10
22.4433
 20
34.8773
 11
22.6511
 21
34.7361
  0
LINE
  8
0
 10
22.6511
 20
34.7361
 11
22.8497
 21
34.582
  0
LINE
  8
0
 10
22.8497
 20
34.582
 11
23.0382
 21
34.4159
  0
LINE
  8
0
 10
23.0382
 20
34.4159
 11
23.2159
 21
34.2382
  0
LINE
  8
0
 10
23.2159
 20
34.2382
 11
23.382
 21
34.0497
  0
LINE
  8
0
 10
23.382
 20
34.0497
 11
23.5361
 21
33.8511
  0
LINE
  8
0
 10
23.5361
 20
33.8511
 11
23.6773
 21
33.6433
  0
LINE
  8
0
 10
23.6773
 20
33.6433
 11
23.8052
 21
33.427
  0
LINE
  8
0
 10
23.8052
 20
33.427
 11
23.9193
 21
33.2031
  0
LINE
  8
0
 10
23.9193
 20
33.2031
 11
24.0191
 21
32.9725
  0
LINE
  8
0
 10
24.0191
 20
32.9725
 11
24.1042
 21
32.7361
  0
LINE
  8
0
 10
24.1042
 20
32.7361
 11
24.1743
 21
32.4948
  0
LINE
  8
0
 10
24.1743
 20
32.4948
 11
24.2291
 21
32.2495
  0
LINE
  8
0
 10
24.2291
 20
32.2495
 11
24.2684
 21
32.0013
  0
LINE
  8
0
 10
24.2684
 20
32.0013
 11
24.2921
 21
31.7512
  0
LINE
  8
0
 10
24.2921
 20
31.7512
 11
24.3
 21
31.5
  0
LINE
  8
0
 10
24.3
 20
31.5
 11
24.2921
 21
31.2488
  0
LINE
  8
0
 10
24.2921
 20
31.2488
 11
24.2684
 21
30.9987
  0
LINE
  8
0
 10
24.2684
 20
30.9987
 11
24.2291
 21
30.7505
  0
LINE
  8
0
 10
24.2291
 20
30.7505
 11
24.1743
 21
30.5052
  0
LINE
  8
0
 10
24.1743
 20
30.5052
 11
24.1042
 21
30.2639
  0
LINE
  8
0
 10
24.1042
 20
30.2639
 11
24.0191
 21
30.0275
  0
LINE
  8
0
 10
24.0191
 20
30.0275
 11
23.9193
 21
29.7969
  0
LINE
  8
0
 10
23.9193
 20
29.7969
 11
23.8052
 21
29.573
  0
LINE
  8
0
 10
23.8052
 20
29.573
 11
23.6773
 21
29.3567
  0
LINE
  8
0
 10
23.6773
 20
29.3567
 11
23.5361
 21
29.1488
  0
LINE
  8
0
 10
23.5361
 20
29.1488
 11
23.382
 21
28.9503
  0
LINE
  8
0
 10
23.382
 20
28.9503
 11
23.2159
 21
28.7618
  0
LINE
  8
0
 10
23.2159
 20
28.7618
 11
23.0382
 21
28.5841
  0
LINE
  8
0
 10
23.0382
 20
28.5841
 11
22.8497
 21
28.4179
  0
LINE
  8
0
 10
22.8497
 20
28.4179
 11
22.6511
 21
28.2639
  0
LINE
  8
0
 10
22.6511
 20
28.2639
 11
22.4433
 21
28.1227
  0
LINE
  8
0
 10
22.4433
 20
28.1227
 11
22.227
 21
27.9948
  0
LINE
  8
0
 10
22.227
 20
27.9948
 11
22.0031
 21
27.8807
  0
LINE
  8
0
 10
22.0031
 20
27.8807
 11
21.7725
 21
27.7809
  0
LINE
  8
0
 10
21.7725
 20
27.7809
 11
21.5361
 21
27.6958
  0
LINE
  8
0
 10
21.5361
 20
27.6958
 11
21.2948
 21
27.6257
  0
LINE
  8
0
 10
21.2948
 20
27.6257
 11
21.0495
 21
27.5708
  0
LINE
  8
0
 10
21.0495
 20
27.5708
 11
20.8013
 21
27.5315
  0
LINE
  8
0
 10
20.8013
 20
27.5315
 11
20.5511
 21
27.5079
  0
LINE
  8
0
 10
20.5511
 20
27.5079
 11
20.3
 21
27.5
  0
LINE
  8
0
 10
20.3
 20
27.5
 11
20.0488
 21
27.5079
  0
LINE
  8
0
 10
-20.5511
 20
27.5079
 11
-20.8013
 21
27.5315
  0
LINE
  8
0
 10
-20.8013
 20
27.5315
 11
-21.0495
 21
27.5708
  0
LINE
  8
0
 10
-21.0495
 20
27.5708
 11
-21.2948
 21
27.6257
  0
LINE
  8
0
 10
-21.2948
 20
27.6257
 11
-21.5361
 21
27.6958
  0
LINE
  8
0
 10
-21.5361
 20
27.6958
 11
-21.7725
 21
27.7809
  0
LINE
  8
0
 10
-21.7725
 20
27.7809
 11
-22.0031
 21
27.8807
  0
LINE
  8
0
 10
-22.0031
 20
27.8807
 11
-22.227
 21
27.9948
  0
LINE
  8
0
 10
-22.227
 20
27.9948
 11
-22.4433
 21
28.1227
  0
LINE
  8
0
 10
-22.4433
 20
28.1227
 11
-22.6511
 21
28.2639
  0
LINE
  8
0
 10
-22.6511
 20
28.2639
 11
-22.8497
 21
28.4179
  0
LINE
  8
0
 10
-22.8497
 20
28.4179
 11
-23.0382
 21
28.5841
  0
LINE
  8
0
 10
-23.0382
 20
28.5841
 11
-23.2159
 21
28.7618
  0
LINE
  8
0
 10
-23.2159
 20
28.7618
 11
-23.382
 21
28.9503
  0
LINE
  8
0
 10
-23.382
 20
28.9503
 11
-23.5361
 21
29.1488
  0
LINE
  8
0
 10
-23.5361
 20
29.1488
 11
-23.6773
 21
29.3567
  0
LINE
  8
0
 10
-23.6773
 20
29.3567
 11
-23.8052
 21
29.573
  0
LINE
  8
0
 10
-23.8052
 20
29.573
 11
-23.9193
 21
29.7969
  0
LINE
  8
0
 10
-23.9193
 20
29.7969
 11
-24.0191
 21
30.0275
  0
LINE
  8
0
 10
-24.0191
 20
30.0275
 11
-24.1042
 21
30.2639
  0
LINE
  8
0
 10
-24.1042
 20
30.2639
 11
-24.1743
 21
30.5052
  0
LINE
  8
0
 10
-24.1743
 20
30.5052
 11
-24.2291
 21
30.7505
  0
LINE
  8
0
 10
-24.2291
 20
30.7505
 11
-24.2684
 21
30.9987
  0
LINE
  8
0
 10
-24.2684
 20
30.9987
 11
-24.2921
 21
31.2488
  0
LINE
  8
0
 10
-24.2921
 20
31.2488
 11
-24.3
 21
31.5
  0
LINE
  8
0
 10
-24.3
 20
31.5
 11
-24.2921
 21
31.7512
  0
LINE
  8
0
 10
-24.2921
 20
31.7512
 11
-24.2684
 21
32.0013
  0
LINE
  8
0
 10
-24.2684
 20
32.0013
 11
-24.2291
 21
32.2495
  0
LINE
  8
0
 10
-24.2291
 20
32.2495
 11
-24.1743
 21
32.4948
  0
LINE
  8
0
 10
-24.1743
 20
32.4948
 11
-24.1042
 21
32.7361
  0
LINE
  8
0
 10
-24.1042
 20
32.7361
 11
-24.0191
 21
32.9725
  0
LINE
  8
0
 10
-24.0191
 20
32.9725
 11
-23.9193
 21
33.2031
  0
LINE
  8
0
 10
-23.9193
 20
33.2031
 11
-23.8052
 21
33.427
  0
LINE
  8
0
 10
-23.8052
 20
33.427
 11
-23.6773
 21
33.6433
  0
LINE
  8
0
 10
-23.6773
 20
33.6433
 11
-23.5361
 21
33.8511
  0
LINE
  8
0
 10
-23.5361
 20
33.8511
 11
-23.382
 21
34.0497
  0
LINE
  8
0
 10
-23.382
 20
34.0497
 11
-23.2159
 21
34.2382
  0
LINE
  8
0
 10
-23.2159
 20
34.2382
 11
-23.0382
 21
34.4159
  0
LINE
  8
0
 10
-23.0382
 20
34.4159
 11
-22.8497
 21
34.582
  0
LINE
  8
0
 10
-22.8497
 20
34.582
 11
-22.6511
 21
34.7361
  0
LINE
  8
0
 10
-22.6511
 20
34.7361
 11
-22.4433
 21
34.8773
  0
LINE
  8
0
 10
-22.4433
 20
34.8773
 11
-22.227
 21
35.0052
  0
LINE
  8
0
 10
-22.227
 20
35.0052
 11
-22.0031
 21
35.1193
  0
LINE
  8
0
 10
-22.0031
 20
35.1193
 11
-21.7725
 21
35.2191
  0
LINE
  8
0
 10
-21.7725
 20
35.2191
 11
-21.5361
 21
35.3042
  0
LINE
  8
0
 10
-21.5361
 20
35.3042
 11
-21.2948
 21
35.3743
  0
LINE
  8
0
 10
-21.2948
 20
35.3743
 11
-21.0495
 21
35.4291
  0
LINE
  8
0
 10
-21.0495
 20
35.4291
 11
-20.8013
 21
35.4684
  0
LINE
  8
0
 10
-20.8013
 20
35.4684
 11
-20.5511
 21
35.4921
  0
LINE
  8
0
 10
-20.5511
 20
35.4921
 11
-20.3
 21
35.5
  0
LINE
  8
0
 10
-20.3
 20
35.5
 11
-20.0488
 21
35.4921
  0
LINE
  8
0
 10
-20.0488
 20
35.4921
 11
-19.7987
 21
35.4684
  0
LINE
  8
0
 10
-19.7987
 20
35.4684
 11
-19.5505
 21
35.4291
  0
LINE
  8
0
 10
-19.5505
 20
35.4291
 11
-19.3052
 21
35.3743
  0
LINE
  8
0
 10
-19.3052
 20
35.3743
 11
-19.0639
 21
35.3042
  0
LINE
  8
0
 10
-19.0639
 20
35.3042
 11
-18.8275
 21
35.2191
  0
LINE
  8
0
 10
-18.8275
 20
35.2191
 11
-18.5969
 21
35.1193
  0
LINE
  8
0
 10
-18.5969
 20
35.1193
 11
-18.373
 21
35.0052
  0
LINE
  8
0
 10
-18.373
 20
35.0052
 11
-18.1567
 21
34.8773
  0
LINE
  8
0
 10
-18.1567
 20
34.8773
 11
-17.9489
 21
34.7361
  0
LINE
  8
0
 10
-17.9489
 20
34.7361
 11
-17.7503
 21
34.582
  0
LINE
  8
0
 10
-17.7503
 20
34.582
 11
-17.5618
 21
34.4159
  0
LINE
  8
0
 10
-17.5618
 20
34.4159
 11
-17.3841
 21
34.2382
  0
LINE
  8
0
 10
-17.3841
 20
34.2382
 11
-17.2179
 21
34.0497
  0
LINE
  8
0
 10
-17.2179
 20
34.0497
 11
-17.0639
 21
33.8511
  0
LINE
  8
0
 10
-17.0639
 20
33.8511
 11
-16.9227
 21
33.6433
  0
LINE
  8
0
 10
-16.9227
 20
33.6433
 11
-16.7948
 21
33.427
  0
LINE
  8
0
 10
-16.7948
 20
33.427
 11
-16.6807
 21
33.2031
  0
LINE
  8
0
 10
-16.6807
 20
33.2031
 11
-16.5809
 21
32.9725
  0
LINE
  8
0
 10
-16.5809
 20
32.9725
 11
-16.4958
 21
32.7361
  0
LINE
  8
0
 10
-16.4958
 20
32.7361
 11
-16.4257
 21
32.4948
  0
LINE
  8
0
 10
-16.4257
 20
32.4948
 11
-16.3708
 21
32.2495
  0
LINE
  8
0
 10
-16.3708
 20
32.2495
 11
-16.3315
 21
32.0013
  0
LINE
  8
0
 10
-16.3315
 20
32.0013
 11
-16.3079
 21
31.7512
  0
LINE
  8
0
 10
-16.3079
 20
31.7512
 11
-16.3
 21
31.5
  0
LINE
  8
0
 10
-16.3
 20
31.5
 11
-16.3079
 21
31.2488
  0
LINE
  8
0
 10
-16.3079
 20
31.2488
 11
-16.3315
 21
30.9987
  0
LINE
  8
0
 10
-16.3315
 20
30.9987
 11
-16.3708
 21
30.7505
  0
LINE
  8
0
 10
-16.3708
 20
30.7505
 11
-16.4257
 21
30.5052
  0
LINE
  8
0
 10
-16.4257
 20
30.5052
 11
-16.4958
 21
30.2639
  0
LINE
  8
0
 10
-16.4958
 20
30.2639
 11
-16.5809
 21
30.0275
  0
LINE
  8
0
 10
-16.5809
 20
30.0275
 11
-16.6807
 21
29.7969
  0
LINE
  8
0
 10
-16.6807
 20
29.7969
 11
-16.7948
 21
29.573
  0
LINE
  8
0
 10
-16.7948
 20
29.573
 11
-16.9227
 21
29.3567
  0
LINE
  8
0
 10
-16.9227
 20
29.3567
 11
-17.0639
 21
29.1488
  0
LINE
  8
0
 10
-17.0639
 20
29.1488
 11
-17.2179
 21
28.9503
  0
LINE
  8
0
 10
-17.2179
 20
28.9503
 11
-17.3841
 21
28.7618
  0
LINE
  8
0
 10
-17.3841
 20
28.7618
 11
-17.5618
 21
28.5841
  0
LINE
  8
0
 10
-17.5618
 20
28.5841
 11
-17.7503
 21
28.4179
  0
LINE
  8
0
 10
-17.7503
 20
28.4179
 11
-17.9489
 21
28.2639
  0
LINE
  8
0
 10
-17.9489
 20
28.2639
 11
-18.1567
 21
28.1227
  0
LINE
  8
0
 10
-18.1567
 20
28.1227
 11
-18.373
 21
27.9948
  0
LINE
  8
0
 10
-18.373
 20
27.9948
 11
-18.5969
 21
27.8807
  0
LINE
  8
0
 10
-18.5969
 20
27.8807
 11
-18.8275
 21
27.7809
  0
LINE
  8
0
 10
-18.8275
 20
27.7809
 11
-19.0639
 21
27.6958
  0
LINE
  8
0
 10
-19.0639
 20
27.6958
 11
-19.3052
 21
27.6257
  0
LINE
  8
0
 10
-19.3052
 20
27.6257
 11
-19.5505
 21
27.5708
  0
LINE
  8
0
 10
-19.5505
 20
27.5708
 11
-19.7987
 21
27.5315
  0
LINE
  8
0
 10
-19.7987
 20
27.5315
 11
-20.0488
 21
27.5079
  0
LINE
  8
0
 10
-20.0488
 20
27.5079
 11
-20.3
 21
27.5
  0
LINE
  8
0
 10
-20.3
 20
27.5
 11
-20.5511
 21
27.5079
  0
LINE
  8
0
 10
-45.1413
 20
22.7544
 11
-45.282
 21
22.7677
  0
LINE
  8
0
 10
-45.282
 20
22.7677
 11
-45.4216
 21
22.7898
  0
LINE
  8
0
 10
-45.4216
 20
22.7898
 11
-45.5595
 21
22.8207
  0
LINE
  8
0
 10
-45.5595
 20
22.8207
 11
-45.6953
 21
22.8601
  0
LINE
  8
0
 10
-45.6953
 20
22.8601
 11
-45.8283
 21
22.908
  0
LINE
  8
0
 10
-45.8283
 20
22.908
 11
-45.958
 21
22.9641
  0
LINE
  8
0
 10
-45.958
 20
22.9641
 11
-46.0839
 21
23.0283
  0
LINE
  8
0
 10
-46.0839
 20
23.0283
 11
-46.2056
 21
23.1003
  0
LINE
  8
0
 10
-46.2056
 20
23.1003
 11
-46.3225
 21
23.1797
  0
LINE
  8
0
 10
-46.3225
 20
23.1797
 11
-46.4342
 21
23.2663
  0
LINE
  8
0
 10
-46.4342
 20
23.2663
 11
-46.5402
 21
23.3598
  0
LINE
  8
0
 10
-46.5402
 20
23.3598
 11
-46.6402
 21
23.4598
  0
LINE
  8
0
 10
-46.6402
 20
23.4598
 11
-46.7336
 21
23.5658
  0
LINE
  8
0
 10
-46.7336
 20
23.5658
 11
-46.8203
 21
23.6775
  0
LINE
  8
0
 10
-46.8203
 20
23.6775
 11
-46.8997
 21
23.7944
  0
LINE
  8
0
 10
-46.8997
 20
23.7944
 11
-46.9717
 21
23.916
  0
LINE
  8
0
 10
-46.9717
 20
23.916
 11
-47.0359
 21
24.042
  0
LINE
  8
0
 10
-47.0359
 20
24.042
 11
-47.092
 21
24.1717
  0
LINE
  8
0
 10
-47.092
 20
24.1717
 11
-47.1399
 21
24.3047
  0
LINE
  8
0
 10
-47.1399
 20
24.3047
 11
-47.1793
 21
24.4404
  0
LINE
  8
0
 10
-47.1793
 20
24.4404
 11
-47.2101
 21
24.5784
  0
LINE
  8
0
 10
-47.2101
 20
24.5784
 11
-47.2323
 21
24.718
  0
LINE
  8
0
 10
-47.2323
 20
24.718
 11
-47.2456
 21
24.8587
  0
LINE
  8
0
 10
-47.2456
 20
24.8587
 11
-47.25
 21
25
  0
LINE
  8
0
 10
-47.25
 20
25
 11
-47.2456
 21
25.1413
  0
LINE
  8
0
 10
-47.2456
 20
25.1413
 11
-47.2323
 21
25.282
  0
LINE
  8
0
 10
-47.2323
 20
25.282
 11
-47.2101
 21
25.4216
  0
LINE
  8
0
 10
-47.2101
 20
25.4216
 11
-47.1793
 21
25.5595
  0
LINE
  8
0
 10
-47.1793
 20
25.5595
 11
-47.1399
 21
25.6953
  0
LINE
  8
0
 10
-47.1399
 20
25.6953
 11
-47.092
 21
25.8283
  0
LINE
  8
0
 10
-47.092
 20
25.8283
 11
-47.0359
 21
25.958
  0
LINE
  8
0
 10
-47.0359
 20
25.958
 11
-46.9717
 21
26.0839
  0
LINE
  8
0
 10
-46.9717
 20
26.0839
 11
-46.8997
 21
26.2056
  0
LINE
  8
0
 10
-46.8997
 20
26.2056
 11
-46.8203
 21
26.3225
  0
LINE
  8
0
 10
-46.8203
 20
26.3225
 11
-46.7336
 21
26.4342
  0
LINE
  8
0
 10
-46.7336
 20
26.4342
 11
-46.6402
 21
26.5402
  0
LINE
  8
0
 10
-46.6402
 20
26.5402
 11
-46.5402
 21
26.6402
  0
LINE
  8
0
 10
-46.5402
 20
26.6402
 11
-46.4342
 21
26.7336
  0
LINE
  8
0
 10
-46.4342
 20
26.7336
 11
-46.3225
 21
26.8203
  0
LINE
  8
0
 10
-46.3225
 20
26.8203
 11
-46.2056
 21
26.8997
  0
LINE
  8
0
 10
-46.2056
 20
26.8997
 11
-46.0839
 21
26.9717
  0
LINE
  8
0
 10
-46.0839
 20
26.9717
 11
-45.958
 21
27.0359
  0
LINE
  8
0
 10
-45.958
 20
27.0359
 11
-45.8283
 21
27.092
  0
LINE
  8
0
 10
-45.8283
 20
27.092
 11
-45.6953
 21
27.1399
  0
LINE
  8
0
 10
-45.6953
 20
27.1399
 11
-45.5595
 21
27.1793
  0
LINE
  8
0
 10
-45.5595
 20
27.1793
 11
-45.4216
 21
27.2101
  0
LINE
  8
0
 10
-45.4216
 20
27.2101
 11
-45.282
 21
27.2323
  0
LINE
  8
0
 10
-45.282
 20
27.2323
 11
-45.1413
 21
27.2456
  0
LINE
  8
0
 10
-45.1413
 20
27.2456
 11
-45
 21
27.25
  0
LINE
  8
0
 10
-45
 20
27.25
 11
-44.8587
 21
27.2456
  0
LINE
  8
0
 10
-44.8587
 20
27.2456
 11
-44.718
 21
27.2323
  0
LINE
  8
0
 10
-44.718
 20
27.2323
 11
-44.5784
 21
27.2101
  0
LINE
  8
0
 10
-44.5784
 20
27.2101
 11
-44.4404
 21
27.1793
  0
LINE
  8
0
 10
-44.4404
 20
27.1793
 11
-44.3047
 21
27.1399
  0
LINE
  8
0
 10
-44.3047
 20
27.1399
 11
-44.1717
 21
27.092
  0
LINE
  8
0
 10
-44.1717
 20
27.092
 11
-44.042
 21
27.0359
  0
LINE
  8
0
 10
-44.042
 20
27.0359
 11
-43.916
 21
26.9717
  0
LINE
  8
0
 10
-43.916
 20
26.9717
 11
-43.7944
 21
26.8997
  0
LINE
  8
0
 10
-43.7944
 20
26.8997
 11
-43.6775
 21
26.8203
  0
LINE
  8
0
 10
-43.6775
 20
26.8203
 11
-43.5658
 21
26.7336
  0
LINE
  8
0
 10
-43.5658
 20
26.7336
 11
-43.4598
 21
26.6402
  0
LINE
  8
0
 10
-43.4598
 20
26.6402
 11
-43.3598
 21
26.5402
  0
LINE
  8
0
 10
-43.3598
 20
26.5402
 11
-43.2663
 21
26.4342
  0
LINE
  8
0
 10
-43.2663
 20
26.4342
 11
-43.1797
 21
26.3225
  0
LINE
  8
0
 10
-43.1797
 20
26.3225
 11
-43.1003
 21
26.2056
  0
LINE
  8
0
 10
-43.1003
 20
26.2056
 11
-43.0283
 21
26.0839
  0
LINE
  8
0
 10
-43.0283
 20
26.0839
 11
-42.9641
 21
25.958
  0
LINE
  8
0
 10
-42.9641
 20
25.958
 11
-42.908
 21
25.8283
  0
LINE
  8
0
 10
-42.908
 20
25.8283
 11
-42.8601
 21
25.6953
  0
LINE
  8
0
 10
-42.8601
 20
25.6953
 11
-42.8207
 21
25.5595
  0
LINE
  8
0
 10
-42.8207
 20
25.5595
 11
-42.7898
 21
25.4216
  0
LINE
  8
0
 10
-42.7898
 20
25.4216
 11
-42.7677
 21
25.282
  0
LINE
  8
0
 10
-42.7677
 20
25.282
 11
-42.7544
 21
25.1413
  0
LINE
  8
0
 10
-42.7544
 20
25.1413
 11
-42.75
 21
25
  0
LINE
  8
0
 10
-42.75
 20
25
 11
-42.7544
 21
24.8587
  0
LINE
  8
0
 10
-42.7544
 20
24.8587
 11
-42.7677
 21
24.718
  0
LINE
  8
0
 10
-42.7677
 20
24.718
 11
-42.7898
 21
24.5784
  0
LINE
  8
0
 10
-42.7898
 20
24.5784
 11
-42.8207
 21
24.4404
  0
LINE
  8
0
 10
-42.8207
 20
24.4404
 11
-42.8601
 21
24.3047
  0
LINE
  8
0
 10
-42.8601
 20
24.3047
 11
-42.908
 21
24.1717
  0
LINE
  8
0
 10
-42.908
 20
24.1717
 11
-42.9641
 21
24.042
  0
LINE
  8
0
 10
-42.9641
 20
24.042
 11
-43.0283
 21
23.916
  0
LINE
  8
0
 10
-43.0283
 20
23.916
 11
-43.1003
 21
23.7944
  0
LINE
  8
0
 10
-43.1003
 20
23.7944
 11
-43.1797
 21
23.6775
  0
LINE
  8
0
 10
-43.1797
 20
23.6775
 11
-43.2663
 21
23.5658
  0
LINE
  8
0
 10
-43.2663
 20
23.5658
 11
-43.3598
 21
23.4598
  0
LINE
  8
0
 10
-43.3598
 20
23.4598
 11
-43.4598
 21
23.3598
  0
LINE
  8
0
 10
-43.4598
 20
23.3598
 11
-43.5658
 21
23.2663
  0
LINE
  8
0
 10
-43.5658
 20
23.2663
 11
-43.6775
 21
23.1797
  0
LINE
  8
0
 10
-43.6775
 20
23.1797
 11
-43.7944
 21
23.1003
  0
LINE
  8
0
 10
-43.7944
 20
23.1003
 11
-43.916
 21
23.0283
  0
LINE
  8
0
 10
-43.916
 20
23.0283
 11
-44.042
 21
22.9641
  0
LINE
  8
0
 10
-44.042
 20
22.9641
 11
-44.1717
 21
22.908
  0
LINE
  8
0
 10
-44.1717
 20
22.908
 11
-44.3047
 21
22.8601
  0
LINE
  8
0
 10
-44.3047
 20
22.8601
 11
-44.4404
 21
22.8207
  0
LINE
  8
0
 10
-44.4404
 20
22.8207
 11
-44.5784
 21
22.7898
  0
LINE
  8
0
 10
-44.5784
 20
22.7898
 11
-44.718
 21
22.7677
  0
LINE
  8
0
 10
-44.718
 20
22.7677
 11
-44.8587
 21
22.7544
  0
LINE
  8
0
 10
-44.8587
 20
22.7544
 11
-45
 21
22.75
  0
LINE
  8
0
 10
-45
 20
22.75
 11
-45.1413
 21
22.7544
  0
LINE
  8
0
 10
-74.1413
 20
22.7544
 11
-74.282
 21
22.7677
  0
LINE
  8
0
 10
-74.282
 20
22.7677
 11
-74.4216
 21
22.7898
  0
LINE
  8
0
 10
-74.4216
 20
22.7898
 11
-74.5595
 21
22.8207
  0
LINE
  8
0
 10
-74.5595
 20
22.8207
 11
-74.6953
 21
22.8601
  0
LINE
  8
0
 10
-74.6953
 20
22.8601
 11
-74.8283
 21
22.908
  0
LINE
  8
0
 10
-74.8283
 20
22.908
 11
-74.958
 21
22.9641
  0
LINE
  8
0
 10
-74.958
 20
22.9641
 11
-75.0839
 21
23.0283
  0
LINE
  8
0
 10
-75.0839
 20
23.0283
 11
-75.2056
 21
23.1003
  0
LINE
  8
0
 10
-75.2056
 20
23.1003
 11
-75.3225
 21
23.1797
  0
LINE
  8
0
 10
-75.3225
 20
23.1797
 11
-75.4342
 21
23.2663
  0
LINE
  8
0
 10
-75.4342
 20
23.2663
 11
-75.5402
 21
23.3598
  0
LINE
  8
0
 10
-75.5402
 20
23.3598
 11
-75.6402
 21
23.4598
  0
LINE
  8
0
 10
-75.6402
 20
23.4598
 11
-75.7336
 21
23.5658
  0
LINE
  8
0
 10
-75.7336
 20
23.5658
 11
-75.8203
 21
23.6775
  0
LINE
  8
0
 10
-75.8203
 20
23.6775
 11
-75.8997
 21
23.7944
  0
LINE
  8
0
 10
-75.8997
 20
23.7944
 11
-75.9717
 21
23.916
  0
LINE
  8
0
 10
-75.9717
 20
23.916
 11
-76.0359
 21
24.042
  0
LINE
  8
0
 10
-76.0359
 20
24.042
 11
-76.092
 21
24.1717
  0
LINE
  8
0
 10
-76.092
 20
24.1717
 11
-76.1399
 21
24.3047
  0
LINE
  8
0
 10
-76.1399
 20
24.3047
 11
-76.1793
 21
24.4404
  0
LINE
  8
0
 10
-76.1793
 20
24.4404
 11
-76.2101
 21
24.5784
  0
LINE
  8
0
 10
-76.2101
 20
24.5784
 11
-76.2323
 21
24.718
  0
LINE
  8
0
 10
-76.2323
 20
24.718
 11
-76.2456
 21
24.8587
  0
LINE
  8
0
 10
-76.2456
 20
24.8587
 11
-76.25
 21
25
  0
LINE
  8
0
 10
-76.25
 20
25
 11
-76.2456
 21
25.1413
  0
LINE
  8
0
 10
-76.2456
 20
25.1413
 11
-76.2323
 21
25.282
  0
LINE
  8
0
 10
-76.2323
 20
25.282
 11
-76.2101
 21
25.4216
  0
LINE
  8
0
 10
-76.2101
 20
25.4216
 11
-76.1793
 21
25.5595
  0
LINE
  8
0
 10
-76.1793
 20
25.5595
 11
-76.1399
 21
25.6953
  0
LINE
  8
0
 10
-76.1399
 20
25.6953
 11
-76.092
 21
25.8283
  0
LINE
  8
0
 10
-76.092
 20
25.8283
 11
-76.0359
 21
25.958
  0
LINE
  8
0
 10
-76.0359
 20
25.958
 11
-75.9717
 21
26.0839
  0
LINE
  8
0
 10
-75.9717
 20
26.0839
 11
-75.8997
 21
26.2056
  0
LINE
  8
0
 10
-75.8997
 20
26.2056
 11
-75.8203
 21
26.3225
  0
LINE
  8
0
 10
-75.8203
 20
26.3225
 11
-75.7336
 21
26.4342
  0
LINE
  8
0
 10
-75.7336
 20
26.4342
 11
-75.6402
 21
26.5402
  0
LINE
  8
0
 10
-75.6402
 20
26.5402
 11
-75.5402
 21
26.6402
  0
LINE
  8
0
 10
-75.5402
 20
26.6402
 11
-75.4342
 21
26.7336
  0
LINE
  8
0
 10
-75.4342
 20
26.7336
 11
-75.3225
 21
26.8203
  0
LINE
  8
0
 10
-75.3225
 20
26.8203
 11
-75.2056
 21
26.8997
  0
LINE
  8
0
 10
-75.2056
 20
26.8997
 11
-75.0839
 21
26.9717
  0
LINE
  8
0
 10
-75.0839
 20
26.9717
 11
-74.958
 21
27.0359
  0
LINE
  8
0
 10
-74.958
 20
27.0359
 11
-74.8283
 21
27.092
  0
LINE
  8
0
 10
-74.8283
 20
27.092
 11
-74.6953
 21
27.1399
  0
LINE
  8
0
 10
-74.6953
 20
27.1399
 11
-74.5595
 21
27.1793
  0
LINE
  8
0
 10
-74.5595
 20
27.1793
 11
-74.4216
 21
27.2101
  0
LINE
  8
0
 10
-74.4216
 20
27.2101
 11
-74.282
 21
27.2323
  0
LINE
  8
0
 10
-74.282
 20
27.2323
 11
-74.1413
 21
27.2456
  0
LINE
  8
0
 10
-74.1413
 20
27.2456
 11
-74
 21
27.25
  0
LINE
  8
0
 10
-74
 20
27.25
 11
-73.8587
 21
27.2456
  0
LINE
  8
0
 10
-73.8587
 20
27.2456
 11
-73.718
 21
27.2323
  0
LINE
  8
0
 10
-73.718
 20
27.2323
 11
-73.5784
 21
27.2101
  0
LINE
  8
0
 10
-73.5784
 20
27.2101
 11
-73.4404
 21
27.1793
  0
LINE
  8
0
 10
-73.4404
 20
27.1793
 11
-73.3047
 21
27.1399
  0
LINE
  8
0
 10
-73.3047
 20
27.1399
 11
-73.1717
 21
27.092
  0
LINE
  8
0
 10
-73.1717
 20
27.092
 11
-73.042
 21
27.0359
  0
LINE
  8
0
 10
-73.042
 20
27.0359
 11
-72.916
 21
26.9717
  0
LINE
  8
0
 10
-72.916
 20
26.9717
 11
-72.7944
 21
26.8997
  0
LINE
  8
0
 10
-72.7944
 20
26.8997
 11
-72.6775
 21
26.8203
  0
LINE
  8
0
 10
-72.6775
 20
26.8203
 11
-72.5658
 21
26.7336
  0
LINE
  8
0
 10
-72.5658
 20
26.7336
 11
-72.4598
 21
26.6402
  0
LINE
  8
0
 10
-72.4598
 20
26.6402
 11
-72.3598
 21
26.5402
  0
LINE
  8
0
 10
-72.3598
 20
26.5402
 11
-72.2663
 21
26.4342
  0
LINE
  8
0
 10
-72.2663
 20
26.4342
 11
-72.1797
 21
26.3225
  0
LINE
  8
0
 10
-72.1797
 20
26.3225
 11
-72.1003
 21
26.2056
  0
LINE
  8
0
 10
-72.1003
 20
26.2056
 11
-72.0283
 21
26.0839
  0
LINE
  8
0
 10
-72.0283
 20
26.0839
 11
-71.9641
 21
25.958
  0
LINE
  8
0
 10
-71.9641
 20
25.958
 11
-71.908
 21
25.8283
  0
LINE
  8
0
 10
-71.908
 20
25.8283
 11
-71.8601
 21
25.6953
  0
LINE
  8
0
 10
-71.8601
 20
25.6953
 11
-71.8207
 21
25.5595
  0
LINE
  8
0
 10
-71.8207
 20
25.5595
 11
-71.7898
 21
25.4216
  0
LINE
  8
0
 10
-71.7898
 20
25.4216
 11
-71.7677
 21
25.282
  0
LINE
  8
0
 10
-71.7677
 20
25.282
 11
-71.7544
 21
25.1413
  0
LINE
  8
0
 10
-71.7544
 20
25.1413
 11
-71.75
 21
25
  0
LINE
  8
0
 10
-71.75
 20
25
 11
-71.7544
 21
24.8587
  0
LINE
  8
0
 10
-71.7544
 20
24.8587
 11
-71.7677
 21
24.718
  0
LINE
  8
0
 10
-71.7677
 20
24.718
 11
-71.7898
 21
24.5784
  0
LINE
  8
0
 10
-71.7898
 20
24.5784
 11
-71.8207
 21
24.4404
  0
LINE
  8
0
 10
-71.8207
 20
24.4404
 11
-71.8601
 21
24.3047
  0
LINE
  8
0
 10
-71.8601
 20
24.3047
 11
-71.908
 21
24.1717
  0
LINE
  8
0
 10
-71.908
 20
24.1717
 11
-71.9641
 21
24.042
  0
LINE
  8
0
 10
-71.9641
 20
24.042
 11
-72.0283
 21
23.916
  0
LINE
  8
0
 10
-72.0283
 20
23.916
 11
-72.1003
 21
23.7944
  0
LINE
  8
0
 10
-72.1003
 20
23.7944
 11
-72.1797
 21
23.6775
  0
LINE
  8
0
 10
-72.1797
 20
23.6775
 11
-72.2663
 21
23.5658
  0
LINE
  8
0
 10
-72.2663
 20
23.5658
 11
-72.3598
 21
23.4598
  0
LINE
  8
0
 10
-72.3598
 20
23.4598
 11
-72.4598
 21
23.3598
  0
LINE
  8
0
 10
-72.4598
 20
23.3598
 11
-72.5658
 21
23.2663
  0
LINE
  8
0
 10
-72.5658
 20
23.2663
 11
-72.6775
 21
23.1797
  0
LINE
  8
0
 10
-72.6775
 20
23.1797
 11
-72.7944
 21
23.1003
  0
LINE
  8
0
 10
-72.7944
 20
23.1003
 11
-72.916
 21
23.0283
  0
LINE
  8
0
 10
-72.916
 20
23.0283
 11
-73.042
 21
22.9641
  0
LINE
  8
0
 10
-73.042
 20
22.9641
 11
-73.1717
 21
22.908
  0
LINE
  8
0
 10
-73.1717
 20
22.908
 11
-73.3047
 21
22.8601
  0
LINE
  8
0
 10
-73.3047
 20
22.8601
 11
-73.4404
 21
22.8207
  0
LINE
  8
0
 10
-73.4404
 20
22.8207
 11
-73.5784
 21
22.7898
  0
LINE
  8
0
 10
-73.5784
 20
22.7898
 11
-73.718
 21
22.7677
  0
LINE
  8
0
 10
-73.718
 20
22.7677
 11
-73.8587
 21
22.7544
  0
LINE
  8
0
 10
-73.8587
 20
22.7544
 11
-74
 21
22.75
  0
LINE
  8
0
 10
-74
 20
22.75
 11
-74.1413
 21
22.7544
  0
LINE
  8
0
 10
65.9058
 20
14.5029
 11
65.812
 21
14.5118
  0
LINE
  8
0
 10
65.812
 20
14.5118
 11
65.7189
 21
14.5266
  0
LINE
  8
0
 10
65.7189
 20
14.5266
 11
65.627
 21
14.5471
  0
LINE
  8
0
 10
65.627
 20
14.5471
 11
65.5365
 21
14.5734
  0
LINE
  8
0
 10
65.5365
 20
14.5734
 11
65.4478
 21
14.6053
  0
LINE
  8
0
 10
65.4478
 20
14.6053
 11
65.3613
 21
14.6427
  0
LINE
  8
0
 10
65.3613
 20
14.6427
 11
65.2774
 21
14.6855
  0
LINE
  8
0
 10
65.2774
 20
14.6855
 11
65.1963
 21
14.7335
  0
LINE
  8
0
 10
65.1963
 20
14.7335
 11
65.1183
 21
14.7865
  0
LINE
  8
0
 10
65.1183
 20
14.7865
 11
65.0439
 21
14.8442
  0
LINE
  8
0
 10
65.0439
 20
14.8442
 11
64.9732
 21
14.9065
  0
LINE
  8
0
 10
64.9732
 20
14.9065
 11
64.9065
 21
14.9732
  0
LINE
  8
0
 10
64.9065
 20
14.9732
 11
64.8442
 21
15.0439
  0
LINE
  8
0
 10
64.8442
 20
15.0439
 11
64.7865
 21
15.1183
  0
LINE
  8
0
 10
64.7865
 20
15.1183
 11
64.7335
 21
15.1963
  0
LINE
  8
0
 10
64.7335
 20
15.1963
 11
64.6855
 21
15.2774
  0
LINE
  8
0
 10
64.6855
 20
15.2774
 11
64.6427
 21
15.3613
  0
LINE
  8
0
 10
64.6427
 20
15.3613
 11
64.6053
 21
15.4478
  0
LINE
  8
0
 10
64.6053
 20
15.4478
 11
64.5734
 21
15.5365
  0
LINE
  8
0
 10
64.5734
 20
15.5365
 11
64.5471
 21
15.627
  0
LINE
  8
0
 10
64.5471
 20
15.627
 11
64.5266
 21
15.7189
  0
LINE
  8
0
 10
64.5266
 20
15.7189
 11
64.5118
 21
15.812
  0
LINE
  8
0
 10
64.5118
 20
15.812
 11
64.5029
 21
15.9058
  0
LINE
  8
0
 10
64.5029
 20
15.9058
 11
64.5
 21
16
  0
LINE
  8
0
 10
64.5
 20
16
 11
64.5029
 21
16.0942
  0
LINE
  8
0
 10
64.5029
 20
16.0942
 11
64.5118
 21
16.188
  0
LINE
  8
0
 10
64.5118
 20
16.188
 11
64.5266
 21
16.2811
  0
LINE
  8
0
 10
64.5266
 20
16.2811
 11
64.5471
 21
16.373
  0
LINE
  8
0
 10
64.5471
 20
16.373
 11
64.5734
 21
16.4635
  0
LINE
  8
0
 10
64.5734
 20
16.4635
 11
64.6053
 21
16.5522
  0
LINE
  8
0
 10
64.6053
 20
16.5522
 11
64.6427
 21
16.6387
  0
LINE
  8
0
 10
64.6427
 20
16.6387
 11
64.6855
 21
16.7226
  0
LINE
  8
0
 10
64.6855
 20
16.7226
 11
64.7335
 21
16.8037
  0
LINE
  8
0
 10
64.7335
 20
16.8037
 11
64.7865
 21
16.8817
  0
LINE
  8
0
 10
64.7865
 20
16.8817
 11
64.8442
 21
16.9561
  0
LINE
  8
0
 10
64.8442
 20
16.9561
 11
64.9065
 21
17.0268
  0
LINE
  8
0
 10
64.9065
 20
17.0268
 11
64.9732
 21
17.0934
  0
LINE
  8
0
 10
64.9732
 20
17.0934
 11
65.0439
 21
17.1558
  0
LINE
  8
0
 10
65.0439
 20
17.1558
 11
65.1183
 21
17.2135
  0
LINE
  8
0
 10
65.1183
 20
17.2135
 11
65.1963
 21
17.2665
  0
LINE
  8
0
 10
65.1963
 20
17.2665
 11
65.2774
 21
17.3145
  0
LINE
  8
0
 10
65.2774
 20
17.3145
 11
65.3613
 21
17.3572
  0
LINE
  8
0
 10
65.3613
 20
17.3572
 11
65.4478
 21
17.3947
  0
LINE
  8
0
 10
65.4478
 20
17.3947
 11
65.5365
 21
17.4266
  0
LINE
  8
0
 10
65.5365
 20
17.4266
 11
65.627
 21
17.4529
  0
LINE
  8
0
 10
65.627
 20
17.4529
 11
65.7189
 21
17.4734
  0
LINE
  8
0
 10
65.7189
 20
17.4734
 11
65.812
 21
17.4882
  0
LINE
  8
0
 10
65.812
 20
17.4882
 11
65.9058
 21
17.497
  0
LINE
  8
0
 10
65.9058
 20
17.497
 11
66
 21
17.5
  0
LINE
  8
0
 10
66
 20
17.5
 11
66.0942
 21
17.497
  0
LINE
  8
0
 10
66.0942
 20
17.497
 11
66.188
 21
17.4882
  0
LINE
  8
0
 10
66.188
 20
17.4882
 11
66.2811
 21
17.4734
  0
LINE
  8
0
 10
66.2811
 20
17.4734
 11
66.373
 21
17.4529
  0
LINE
  8
0
 10
66.373
 20
17.4529
 11
66.4635
 21
17.4266
  0
LINE
  8
0
 10
66.4635
 20
17.4266
 11
66.5522
 21
17.3947
  0
LINE
  8
0
 10
66.5522
 20
17.3947
 11
66.6387
 21
17.3572
  0
LINE
  8
0
 10
66.6387
 20
17.3572
 11
66.7226
 21
17.3145
  0
LINE
  8
0
 10
66.7226
 20
17.3145
 11
66.8037
 21
17.2665
  0
LINE
  8
0
 10
66.8037
 20
17.2665
 11
66.8817
 21
17.2135
  0
LINE
  8
0
 10
66.8817
 20
17.2135
 11
66.9561
 21
17.1558
  0
LINE
  8
0
 10
66.9561
 20
17.1558
 11
67.0268
 21
17.0934
  0
LINE
  8
0
 10
67.0268
 20
17.0934
 11
67.0934
 21
17.0268
  0
LINE
  8
0
 10
67.0934
 20
17.0268
 11
67.1558
 21
16.9561
  0
LINE
  8
0
 10
67.1558
 20
16.9561
 11
67.2135
 21
16.8817
  0
LINE
  8
0
 10
67.2135
 20
16.8817
 11
67.2665
 21
16.8037
  0
LINE
  8
0
 10
67.2665
 20
16.8037
 11
67.3145
 21
16.7226
  0
LINE
  8
0
 10
67.3145
 20
16.7226
 11
67.3572
 21
16.6387
  0
LINE
  8
0
 10
67.3572
 20
16.6387
 11
67.3947
 21
16.5522
  0
LINE
  8
0
 10
67.3947
 20
16.5522
 11
67.4266
 21
16.4635
  0
LINE
  8
0
 10
67.4266
 20
16.4635
 11
67.4529
 21
16.373
  0
LINE
  8
0
 10
67.4529
 20
16.373
 11
67.4734
 21
16.2811
  0
LINE
  8
0
 10
67.4734
 20
16.2811
 11
67.4882
 21
16.188
  0
LINE
  8
0
 10
67.4882
 20
16.188
 11
67.497
 21
16.0942
  0
LINE
  8
0
 10
67.497
 20
16.0942
 11
67.5
 21
16
  0
LINE
  8
0
 10
67.5
 20
16
 11
67.497
 21
15.9058
  0
LINE
  8
0
 10
67.497
 20
15.9058
 11
67.4882
 21
15.812
  0
LINE
  8
0
 10
67.4882
 20
15.812
 11
67.4734
 21
15.7189
  0
LINE
  8
0
 10
67.4734
 20
15.7189
 11
67.4529
 21
15.627
  0
LINE
  8
0
 10
67.4529
 20
15.627
 11
67.4266
 21
15.5365
  0
LINE
  8
0
 10
67.4266
 20
15.5365
 11
67.3947
 21
15.4478
  0
LINE
  8
0
 10
67.3947
 20
15.4478
 11
67.3572
 21
15.3613
  0
LINE
  8
0
 10
67.3572
 20
15.3613
 11
67.3145
 21
15.2774
  0
LINE
  8
0
 10
67.3145
 20
15.2774
 11
67.2665
 21
15.1963
  0
LINE
  8
0
 10
67.2665
 20
15.1963
 11
67.2135
 21
15.1183
  0
LINE
  8
0
 10
67.2135
 20
15.1183
 11
67.1558
 21
15.0439
  0
LINE
  8
0
 10
67.1558
 20
15.0439
 11
67.0934
 21
14.9732
  0
LINE
  8
0
 10
67.0934
 20
14.9732
 11
67.0268
 21
14.9065
  0
LINE
  8
0
 10
67.0268
 20
14.9065
 11
66.9561
 21
14.8442
  0
LINE
  8
0
 10
66.9561
 20
14.8442
 11
66.8817
 21
14.7865
  0
LINE
  8
0
 10
66.8817
 20
14.7865
 11
66.8037
 21
14.7335
  0
LINE
  8
0
 10
66.8037
 20
14.7335
 11
66.7226
 21
14.6855
  0
LINE
  8
0
 10
66.7226
 20
14.6855
 11
66.6387
 21
14.6427
  0
LINE
  8
0
 10
66.6387
 20
14.6427
 11
66.5522
 21
14.6053
  0
LINE
  8
0
 10
66.5522
 20
14.6053
 11
66.4635
 21
14.5734
  0
LINE
  8
0
 10
66.4635
 20
14.5734
 11
66.373
 21
14.5471
  0
LINE
  8
0
 10
66.373
 20
14.5471
 11
66.2811
 21
14.5266
  0
LINE
  8
0
 10
66.2811
 20
14.5266
 11
66.188
 21
14.5118
  0
LINE
  8
0
 10
66.188
 20
14.5118
 11
66.0942
 21
14.5029
  0
LINE
  8
0
 10
66.0942
 20
14.5029
 11
66
 21
14.5
  0
LINE
  8
0
 10
66
 20
14.5
 11
65.9058
 21
14.5029
  0
LINE
  8
0
 10
33.9058
 20
14.5029
 11
33.812
 21
14.5118
  0
LINE
  8
0
 10
33.812
 20
14.5118
 11
33.7189
 21
14.5266
  0
LINE
  8
0
 10
33.7189
 20
14.5266
 11
33.627
 21
14.5471
  0
LINE
  8
0
 10
33.627
 20
14.5471
 11
33.5365
 21
14.5734
  0
LINE
  8
0
 10
33.5365
 20
14.5734
 11
33.4478
 21
14.6053
  0
LINE
  8
0
 10
33.4478
 20
14.6053
 11
33.3613
 21
14.6427
  0
LINE
  8
0
 10
33.3613
 20
14.6427
 11
33.2774
 21
14.6855
  0
LINE
  8
0
 10
33.2774
 20
14.6855
 11
33.1963
 21
14.7335
  0
LINE
  8
0
 10
33.1963
 20
14.7335
 11
33.1183
 21
14.7865
  0
LINE
  8
0
 10
33.1183
 20
14.7865
 11
33.0439
 21
14.8442
  0
LINE
  8
0
 10
33.0439
 20
14.8442
 11
32.9732
 21
14.9065
  0
LINE
  8
0
 10
32.9732
 20
14.9065
 11
32.9066
 21
14.9732
  0
LINE
  8
0
 10
32.9066
 20
14.9732
 11
32.8442
 21
15.0439
  0
LINE
  8
0
 10
32.8442
 20
15.0439
 11
32.7865
 21
15.1183
  0
LINE
  8
0
 10
32.7865
 20
15.1183
 11
32.7335
 21
15.1963
  0
LINE
  8
0
 10
32.7335
 20
15.1963
 11
32.6855
 21
15.2774
  0
LINE
  8
0
 10
32.6855
 20
15.2774
 11
32.6428
 21
15.3613
  0
LINE
  8
0
 10
32.6428
 20
15.3613
 11
32.6053
 21
15.4478
  0
LINE
  8
0
 10
32.6053
 20
15.4478
 11
32.5734
 21
15.5365
  0
LINE
  8
0
 10
32.5734
 20
15.5365
 11
32.5471
 21
15.627
  0
LINE
  8
0
 10
32.5471
 20
15.627
 11
32.5266
 21
15.7189
  0
LINE
  8
0
 10
32.5266
 20
15.7189
 11
32.5118
 21
15.812
  0
LINE
  8
0
 10
32.5118
 20
15.812
 11
32.503
 21
15.9058
  0
LINE
  8
0
 10
32.503
 20
15.9058
 11
32.5
 21
16
  0
LINE
  8
0
 10
32.5
 20
16
 11
32.503
 21
16.0942
  0
LINE
  8
0
 10
32.503
 20
16.0942
 11
32.5118
 21
16.188
  0
LINE
  8
0
 10
32.5118
 20
16.188
 11
32.5266
 21
16.2811
  0
LINE
  8
0
 10
32.5266
 20
16.2811
 11
32.5471
 21
16.373
  0
LINE
  8
0
 10
32.5471
 20
16.373
 11
32.5734
 21
16.4635
  0
LINE
  8
0
 10
32.5734
 20
16.4635
 11
32.6053
 21
16.5522
  0
LINE
  8
0
 10
32.6053
 20
16.5522
 11
32.6428
 21
16.6387
  0
LINE
  8
0
 10
32.6428
 20
16.6387
 11
32.6855
 21
16.7226
  0
LINE
  8
0
 10
32.6855
 20
16.7226
 11
32.7335
 21
16.8037
  0
LINE
  8
0
 10
32.7335
 20
16.8037
 11
32.7865
 21
16.8817
  0
LINE
  8
0
 10
32.7865
 20
16.8817
 11
32.8442
 21
16.9561
  0
LINE
  8
0
 10
32.8442
 20
16.9561
 11
32.9066
 21
17.0268
  0
LINE
  8
0
 10
32.9066
 20
17.0268
 11
32.9732
 21
17.0934
  0
LINE
  8
0
 10
32.9732
 20
17.0934
 11
33.0439
 21
17.1558
  0
LINE
  8
0
 10
33.0439
 20
17.1558
 11
33.1183
 21
17.2135
  0
LINE
  8
0
 10
33.1183
 20
17.2135
 11
33.1963
 21
17.2665
  0
LINE
  8
0
 10
33.1963
 20
17.2665
 11
33.2774
 21
17.3145
  0
LINE
  8
0
 10
33.2774
 20
17.3145
 11
33.3613
 21
17.3572
  0
LINE
  8
0
 10
33.3613
 20
17.3572
 11
33.4478
 21
17.3947
  0
LINE
  8
0
 10
33.4478
 20
17.3947
 11
33.5365
 21
17.4266
  0
LINE
  8
0
 10
33.5365
 20
17.4266
 11
33.627
 21
17.4529
  0
LINE
  8
0
 10
33.627
 20
17.4529
 11
33.7189
 21
17.4734
  0
LINE
  8
0
 10
33.7189
 20
17.4734
 11
33.812
 21
17.4882
  0
LINE
  8
0
 10
33.812
 20
17.4882
 11
33.9058
 21
17.497
  0
LINE
  8
0
 10
33.9058
 20
17.497
 11
34
 21
17.5
  0
LINE
  8
0
 10
34
 20
17.5
 11
34.0942
 21
17.497
  0
LINE
  8
0
 10
34.0942
 20
17.497
 11
34.188
 21
17.4882
  0
LINE
  8
0
 10
34.188
 20
17.4882
 11
34.2811
 21
17.4734
  0
LINE
  8
0
 10
34.2811
 20
17.4734
 11
34.373
 21
17.4529
  0
LINE
  8
0
 10
34.373
 20
17.4529
 11
34.4635
 21
17.4266
  0
LINE
  8
0
 10
34.4635
 20
17.4266
 11
34.5522
 21
17.3947
  0
LINE
  8
0
 10
34.5522
 20
17.3947
 11
34.6387
 21
17.3572
  0
LINE
  8
0
 10
34.6387
 20
17.3572
 11
34.7226
 21
17.3145
  0
LINE
  8
0
 10
34.7226
 20
17.3145
 11
34.8037
 21
17.2665
  0
LINE
  8
0
 10
34.8037
 20
17.2665
 11
34.8817
 21
17.2135
  0
LINE
  8
0
 10
34.8817
 20
17.2135
 11
34.9561
 21
17.1558
  0
LINE
  8
0
 10
34.9561
 20
17.1558
 11
35.0268
 21
17.0934
  0
LINE
  8
0
 10
35.0268
 20
17.0934
 11
35.0935
 21
17.0268
  0
LINE
  8
0
 10
35.0935
 20
17.0268
 11
35.1558
 21
16.9561
  0
LINE
  8
0
 10
35.1558
 20
16.9561
 11
35.2135
 21
16.8817
  0
LINE
  8
0
 10
35.2135
 20
16.8817
 11
35.2665
 21
16.8037
  0
LINE
  8
0
 10
35.2665
 20
16.8037
 11
35.3145
 21
16.7226
  0
LINE
  8
0
 10
35.3145
 20
16.7226
 11
35.3573
 21
16.6387
  0
LINE
  8
0
 10
35.3573
 20
16.6387
 11
35.3947
 21
16.5522
  0
LINE
  8
0
 10
35.3947
 20
16.5522
 11
35.4266
 21
16.4635
  0
LINE
  8
0
 10
35.4266
 20
16.4635
 11
35.4529
 21
16.373
  0
LINE
  8
0
 10
35.4529
 20
16.373
 11
35.4734
 21
16.2811
  0
LINE
  8
0
 10
35.4734
 20
16.2811
 11
35.4882
 21
16.188
  0
LINE
  8
0
 10
35.4882
 20
16.188
 11
35.4971
 21
16.0942
  0
LINE
  8
0
 10
35.4971
 20
16.0942
 11
35.5
 21
16
  0
LINE
  8
0
 10
35.5
 20
16
 11
35.4971
 21
15.9058
  0
LINE
  8
0
 10
35.4971
 20
15.9058
 11
35.4882
 21
15.812
  0
LINE
  8
0
 10
35.4882
 20
15.812
 11
35.4734
 21
15.7189
  0
LINE
  8
0
 10
35.4734
 20
15.7189
 11
35.4529
 21
15.627
  0
LINE
  8
0
 10
35.4529
 20
15.627
 11
35.4266
 21
15.5365
  0
LINE
  8
0
 10
35.4266
 20
15.5365
 11
35.3947
 21
15.4478
  0
LINE
  8
0
 10
35.3947
 20
15.4478
 11
35.3573
 21
15.3613
  0
LINE
  8
0
 10
35.3573
 20
15.3613
 11
35.3145
 21
15.2774
  0
LINE
  8
0
 10
35.3145
 20
15.2774
 11
35.2665
 21
15.1963
  0
LINE
  8
0
 10
35.2665
 20
15.1963
 11
35.2135
 21
15.1183
  0
LINE
  8
0
 10
35.2135
 20
15.1183
 11
35.1558
 21
15.0439
  0
LINE
  8
0
 10
35.1558
 20
15.0439
 11
35.0935
 21
14.9732
  0
LINE
  8
0
 10
35.0935
 20
14.9732
 11
35.0268
 21
14.9065
  0
LINE
  8
0
 10
35.0268
 20
14.9065
 11
34.9561
 21
14.8442
  0
LINE
  8
0
 10
34.9561
 20
14.8442
 11
34.8817
 21
14.7865
  0
LINE
  8
0
 10
34.8817
 20
14.7865
 11
34.8037
 21
14.7335
  0
LINE
  8
0
 10
34.8037
 20
14.7335
 11
34.7226
 21
14.6855
  0
LINE
  8
0
 10
34.7226
 20
14.6855
 11
34.6387
 21
14.6427
  0
LINE
  8
0
 10
34.6387
 20
14.6427
 11
34.5522
 21
14.6053
  0
LINE
  8
0
 10
34.5522
 20
14.6053
 11
34.4635
 21
14.5734
  0
LINE
  8
0
 10
34.4635
 20
14.5734
 11
34.373
 21
14.5471
  0
LINE
  8
0
 10
34.373
 20
14.5471
 11
34.2811
 21
14.5266
  0
LINE
  8
0
 10
34.2811
 20
14.5266
 11
34.188
 21
14.5118
  0
LINE
  8
0
 10
34.188
 20
14.5118
 11
34.0942
 21
14.5029
  0
LINE
  8
0
 10
34.0942
 20
14.5029
 11
34
 21
14.5
  0
LINE
  8
0
 10
34
 20
14.5
 11
33.9058
 21
14.5029
  0
LINE
  8
0
 10
49.3093
 20
-10.9783
 11
48.6213
 21
-10.9133
  0
LINE
  8
0
 10
48.6213
 20
-10.9133
 11
47.9388
 21
-10.8051
  0
LINE
  8
0
 10
47.9388
 20
-10.8051
 11
47.2644
 21
-10.6544
  0
LINE
  8
0
 10
47.2644
 20
-10.6544
 11
46.6008
 21
-10.4616
  0
LINE
  8
0
 10
46.6008
 20
-10.4616
 11
45.9506
 21
-10.2275
  0
LINE
  8
0
 10
45.9506
 20
-10.2275
 11
45.3164
 21
-9.95309
  0
LINE
  8
0
 10
45.3164
 20
-9.95309
 11
44.7007
 21
-9.63936
  0
LINE
  8
0
 10
44.7007
 20
-9.63936
 11
44.1059
 21
-9.2876
  0
LINE
  8
0
 10
44.1059
 20
-9.2876
 11
43.5344
 21
-8.89919
  0
LINE
  8
0
 10
43.5344
 20
-8.89919
 11
42.9883
 21
-8.47563
  0
LINE
  8
0
 10
42.9883
 20
-8.47563
 11
42.47
 21
-8.01865
  0
LINE
  8
0
 10
42.47
 20
-8.01865
 11
41.9814
 21
-7.53001
  0
LINE
  8
0
 10
41.9814
 20
-7.53001
 11
41.5244
 21
-7.01166
  0
LINE
  8
0
 10
41.5244
 20
-7.01166
 11
41.1008
 21
-6.46564
  0
LINE
  8
0
 10
41.1008
 20
-6.46564
 11
40.7124
 21
-5.89409
  0
LINE
  8
0
 10
40.7124
 20
-5.89409
 11
40.3606
 21
-5.29929
  0
LINE
  8
0
 10
40.3606
 20
-5.29929
 11
40.0469
 21
-4.68356
  0
LINE
  8
0
 10
40.0469
 20
-4.68356
 11
39.7725
 21
-4.04936
  0
LINE
  8
0
 10
39.7725
 20
-4.04936
 11
39.5384
 21
-3.39919
  0
LINE
  8
0
 10
39.5384
 20
-3.39919
 11
39.3456
 21
-2.73558
  0
LINE
  8
0
 10
39.3456
 20
-2.73558
 11
39.1949
 21
-2.06119
  0
LINE
  8
0
 10
39.1949
 20
-2.06119
 11
39.0867
 21
-1.37866
  0
LINE
  8
0
 10
39.0867
 20
-1.37866
 11
39.0217
 21
-0.690689
  0
LINE
  8
0
 10
39.0217
 20
-0.690689
 11
39
 21
0
  0
LINE
  8
0
 10
39
 20
0
 11
39.0217
 21
0.690689
  0
LINE
  8
0
 10
39.0217
 20
0.690689
 11
39.0867
 21
1.37866
  0
LINE
  8
0
 10
39.0867
 20
1.37866
 11
39.1949
 21
2.06119
  0
LINE
  8
0
 10
39.1949
 20
2.06119
 11
39.3456
 21
2.73558
  0
LINE
  8
0
 10
39.3456
 20
2.73558
 11
39.5384
 21
3.39919
  0
LINE
  8
0
 10
39.5384
 20
3.39919
 11
39.7725
 21
4.04936
  0
LINE
  8
0
 10
39.7725
 20
4.04936
 11
40.0469
 21
4.68356
  0
LINE
  8
0
 10
40.0469
 20
4.68356
 11
40.3606
 21
5.29929
  0
LINE
  8
0
 10
40.3606
 20
5.29929
 11
40.7124
 21
5.89409
  0
LINE
  8
0
 10
40.7124
 20
5.89409
 11
41.1008
 21
6.46564
  0
LINE
  8
0
 10
41.1008
 20
6.46564
 11
41.5244
 21
7.01166
  0
LINE
  8
0
 10
41.5244
 20
7.01166
 11
41.9814
 21
7.53001
  0
LINE
  8
0
 10
41.9814
 20
7.53001
 11
42.47
 21
8.01865
  0
LINE
  8
0
 10
42.47
 20
8.01865
 11
42.9883
 21
8.47563
  0
LINE
  8
0
 10
42.9883
 20
8.47563
 11
43.5344
 21
8.89919
  0
LINE
  8
0
 10
43.5344
 20
8.89919
 11
44.1059
 21
9.2876
  0
LINE
  8
0
 10
44.1059
 20
9.2876
 11
44.7007
 21
9.63936
  0
LINE
  8
0
 10
44.7007
 20
9.63936
 11
45.3164
 21
9.95309
  0
LINE
  8
0
 10
45.3164
 20
9.95309
 11
45.9506
 21
10.2275
  0
LINE
  8
0
 10
45.9506
 20
10.2275
 11
46.6008
 21
10.4616
  0
LINE
  8
0
 10
46.6008
 20
10.4616
 11
47.2644
 21
10.6544
  0
LINE
  8
0
 10
47.2644
 20
10.6544
 11
47.9388
 21
10.8051
  0
LINE
  8
0
 10
47.9388
 20
10.8051
 11
48.6213
 21
10.9133
  0
LINE
  8
0
 10
48.6213
 20
10.9133
 11
49.3093
 21
10.9783
  0
LINE
  8
0
 10
49.3093
 20
10.9783
 11
50
 21
11
  0
LINE
  8
0
 10
50
 20
11
 11
50.6907
 21
10.9783
  0
LINE
  8
0
 10
50.6907
 20
10.9783
 11
51.3787
 21
10.9133
  0
LINE
  8
0
 10
51.3787
 20
10.9133
 11
52.0612
 21
10.8051
  0
LINE
  8
0
 10
52.0612
 20
10.8051
 11
52.7356
 21
10.6544
  0
LINE
  8
0
 10
52.7356
 20
10.6544
 11
53.3992
 21
10.4616
  0
LINE
  8
0
 10
53.3992
 20
10.4616
 11
54.0494
 21
10.2275
  0
LINE
  8
0
 10
54.0494
 20
10.2275
 11
54.6836
 21
9.95309
  0
LINE
  8
0
 10
54.6836
 20
9.95309
 11
55.2993
 21
9.63936
  0
LINE
  8
0
 10
55.2993
 20
9.63936
 11
55.8941
 21
9.2876
  0
LINE
  8
0
 10
55.8941
 20
9.2876
 11
56.4656
 21
8.89919
  0
LINE
  8
0
 10
56.4656
 20
8.89919
 11
57.0117
 21
8.47563
  0
LINE
  8
0
 10
57.0117
 20
8.47563
 11
57.53
 21
8.01865
  0
LINE
  8
0
 10
57.53
 20
8.01865
 11
58.0186
 21
7.53001
  0
LINE
  8
0
 10
58.0186
 20
7.53001
 11
58.4756
 21
7.01166
  0
LINE
  8
0
 10
58.4756
 20
7.01166
 11
58.8992
 21
6.46564
  0
LINE
  8
0
 10
58.8992
 20
6.46564
 11
59.2876
 21
5.89409
  0
LINE
  8
0
 10
59.2876
 20
5.89409
 11
59.6394
 21
5.29929
  0
LINE
  8
0
 10
59.6394
 20
5.29929
 11
59.9531
 21
4.68356
  0
LINE
  8
0
 10
59.9531
 20
4.68356
 11
60.2275
 21
4.04936
  0
LINE
  8
0
 10
60.2275
 20
4.04936
 11
60.4616
 21
3.39919
  0
LINE
  8
0
 10
60.4616
 20
3.39919
 11
60.6544
 21
2.73558
  0
LINE
  8
0
 10
60.6544
 20
2.73558
 11
60.8051
 21
2.06119
  0
LINE
  8
0
 10
60.8051
 20
2.06119
 11
60.9133
 21
1.37866
  0
LINE
  8
0
 10
60.9133
 20
1.37866
 11
60.9783
 21
0.690689
  0
LINE
  8
0
 10
60.9783
 20
0.690689
 11
61
 21
0
  0
LINE
  8
0
 10
61
 20
0
 11
60.9783
 21
-0.690689
  0
LINE
  8
0
 10
60.9783
 20
-0.690689
 11
60.9133
 21
-1.37866
  0
LINE
  8
0
 10
60.9133
 20
-1.37866
 11
60.8051
 21
-2.06119
  0
LINE
  8
0
 10
60.8051
 20
-2.06119
 11
60.6544
 21
-2.73558
  0
LINE
  8
0
 10
60.6544
 20
-2.73558
 11
60.4616
 21
-3.39919
  0
LINE
  8
0
 10
60.4616
 20
-3.39919
 11
60.2275
 21
-4.04936
  0
LINE
  8
0
 10
60.2275
 20
-4.04936
 11
59.9531
 21
-4.68356
  0
LINE
  8
0
 10
59.9531
 20
-4.68356
 11
59.6394
 21
-5.29929
  0
LINE
  8
0
 10
59.6394
 20
-5.29929
 11
59.2876
 21
-5.89409
  0
LINE
  8
0
 10
59.2876
 20
-5.89409
 11
58.8992
 21
-6.46564
  0
LINE
  8
0
 10
58.8992
 20
-6.46564
 11
58.4756
 21
-7.01166
  0
LINE
  8
0
 10
58.4756
 20
-7.01166
 11
58.0186
 21
-7.53001
  0
LINE
  8
0
 10
58.0186
 20
-7.53001
 11
57.53
 21
-8.01865
  0
LINE
  8
0
 10
57.53
 20
-8.01865
 11
57.0117
 21
-8.47563
  0
LINE
  8
0
 10
57.0117
 20
-8.47563
 11
56.4656
 21
-8.89919
  0
LINE
  8
0
 10
56.4656
 20
-8.89919
 11
55.8941
 21
-9.2876
  0
LINE
  8
0
 10
55.8941
 20
-9.2876
 11
55.2993
 21
-9.63936
  0
LINE
  8
0
 10
55.2993
 20
-9.63936
 11
54.6836
 21
-9.95309
  0
LINE
  8
0
 10
54.6836
 20
-9.95309
 11
54.0494
 21
-10.2275
  0
LINE
  8
0
 10
54.0494
 20
-10.2275
 11
53.3992
 21
-10.4616
  0
LINE
  8
0
 10
53.3992
 20
-10.4616
 11
52.7356
 21
-10.6544
  0
LINE
  8
0
 10
52.7356
 20
-10.6544
 11
52.0612
 21
-10.8051
  0
LINE
  8
0
 10
52.0612
 20
-10.8051
 11
51.3787
 21
-10.9133
  0
LINE
  8
0
 10
51.3787
 20
-10.9133
 11
50.6907
 21
-10.9783
  0
LINE
  8
0
 10
50.6907
 20
-10.9783
 11
50
 21
-11
  0
LINE
  8
0
 10
50
 20
-11
 11
49.3093
 21
-10.9783
  0
LINE
  8
0
 10
33.9058
 20
-17.497
 11
33.812
 21
-17.4882
  0
LINE
  8
0
 10
33.812
 20
-17.4882
 11
33.7189
 21
-17.4734
  0
LINE
  8
0
 10
33.7189
 20
-17.4734
 11
33.627
 21
-17.4529
  0
LINE
  8
0
 10
33.627
 20
-17.4529
 11
33.5365
 21
-17.4266
  0
LINE
  8
0
 10
33.5365
 20
-17.4266
 11
33.4478
 21
-17.3947
  0
LINE
  8
0
 10
33.4478
 20
-17.3947
 11
33.3613
 21
-17.3572
  0
LINE
  8
0
 10
33.3613
 20
-17.3572
 11
33.2774
 21
-17.3145
  0
LINE
  8
0
 10
33.2774
 20
-17.3145
 11
33.1963
 21
-17.2665
  0
LINE
  8
0
 10
33.1963
 20
-17.2665
 11
33.1183
 21
-17.2135
  0
LINE
  8
0
 10
33.1183
 20
-17.2135
 11
33.0439
 21
-17.1558
  0
LINE
  8
0
 10
33.0439
 20
-17.1558
 11
32.9732
 21
-17.0934
  0
LINE
  8
0
 10
32.9732
 20
-17.0934
 11
32.9066
 21
-17.0268
  0
LINE
  8
0
 10
32.9066
 20
-17.0268
 11
32.8442
 21
-16.9561
  0
LINE
  8
0
 10
32.8442
 20
-16.9561
 11
32.7865
 21
-16.8817
  0
LINE
  8
0
 10
32.7865
 20
-16.8817
 11
32.7335
 21
-16.8037
  0
LINE
  8
0
 10
32.7335
 20
-16.8037
 11
32.6855
 21
-16.7226
  0
LINE
  8
0
 10
32.6855
 20
-16.7226
 11
32.6428
 21
-16.6387
  0
LINE
  8
0
 10
32.6428
 20
-16.6387
 11
32.6053
 21
-16.5522
  0
LINE
  8
0
 10
32.6053
 20
-16.5522
 11
32.5734
 21
-16.4635
  0
LINE
  8
0
 10
32.5734
 20
-16.4635
 11
32.5471
 21
-16.373
  0
LINE
  8
0
 10
32.5471
 20
-16.373
 11
32.5266
 21
-16.2811
  0
LINE
  8
0
 10
32.5266
 20
-16.2811
 11
32.5118
 21
-16.188
  0
LINE
  8
0
 10
32.5118
 20
-16.188
 11
32.503
 21
-16.0942
  0
LINE
  8
0
 10
32.503
 20
-16.0942
 11
32.5
 21
-16
  0
LINE
  8
0
 10
32.5
 20
-16
 11
32.503
 21
-15.9058
  0
LINE
  8
0
 10
32.503
 20
-15.9058
 11
32.5118
 21
-15.812
  0
LINE
  8
0
 10
32.5118
 20
-15.812
 11
32.5266
 21
-15.7189
  0
LINE
  8
0
 10
32.5266
 20
-15.7189
 11
32.5471
 21
-15.627
  0
LINE
  8
0
 10
32.5471
 20
-15.627
 11
32.5734
 21
-15.5365
  0
LINE
  8
0
 10
32.5734
 20
-15.5365
 11
32.6053
 21
-15.4478
  0
LINE
  8
0
 10
32.6053
 20
-15.4478
 11
32.6428
 21
-15.3613
  0
LINE
  8
0
 10
32.6428
 20
-15.3613
 11
32.6855
 21
-15.2774
  0
LINE
  8
0
 10
32.6855
 20
-15.2774
 11
32.7335
 21
-15.1963
  0
LINE
  8
0
 10
32.7335
 20
-15.1963
 11
32.7865
 21
-15.1183
  0
LINE
  8
0
 10
32.7865
 20
-15.1183
 11
32.8442
 21
-15.0439
  0
LINE
  8
0
 10
32.8442
 20
-15.0439
 11
32.9066
 21
-14.9732
  0
LINE
  8
0
 10
32.9066
 20
-14.9732
 11
32.9732
 21
-14.9065
  0
LINE
  8
0
 10
32.9732
 20
-14.9065
 11
33.0439
 21
-14.8442
  0
LINE
  8
0
 10
33.0439
 20
-14.8442
 11
33.1183
 21
-14.7865
  0
LINE
  8
0
 10
33.1183
 20
-14.7865
 11
33.1963
 21
-14.7335
  0
LINE
  8
0
 10
33.1963
 20
-14.7335
 11
33.2774
 21
-14.6855
  0
LINE
  8
0
 10
33.2774
 20
-14.6855
 11
33.3613
 21
-14.6427
  0
LINE
  8
0
 10
33.3613
 20
-14.6427
 11
33.4478
 21
-14.6053
  0
LINE
  8
0
 10
33.4478
 20
-14.6053
 11
33.5365
 21
-14.5734
  0
LINE
  8
0
 10
33.5365
 20
-14.5734
 11
33.627
 21
-14.5471
  0
LINE
  8
0
 10
33.627
 20
-14.5471
 11
33.7189
 21
-14.5266
  0
LINE
  8
0
 10
33.7189
 20
-14.5266
 11
33.812
 21
-14.5118
  0
LINE
  8
0
 10
33.812
 20
-14.5118
 11
33.9058
 21
-14.5029
  0
LINE
  8
0
 10
33.9058
 20
-14.5029
 11
34
 21
-14.5
  0
LINE
  8
0
 10
34
 20
-14.5
 11
34.0942
 21
-14.5029
  0
LINE
  8
0
 10
34.0942
 20
-14.5029
 11
34.188
 21
-14.5118
  0
LINE
  8
0
 10
34.188
 20
-14.5118
 11
34.2811
 21
-14.5266
  0
LINE
  8
0
 10
34.2811
 20
-14.5266
 11
34.373
 21
-14.5471
  0
LINE
  8
0
 10
34.373
 20
-14.5471
 11
34.4635
 21
-14.5734
  0
LINE
  8
0
 10
34.4635
 20
-14.5734
 11
34.5522
 21
-14.6053
  0
LINE
  8
0
 10
34.5522
 20
-14.6053
 11
34.6387
 21
-14.6427
  0
LINE
  8
0
 10
34.6387
 20
-14.6427
 11
34.7226
 21
-14.6855
  0
LINE
  8
0
 10
34.7226
 20
-14.6855
 11
34.8037
 21
-14.7335
  0
LINE
  8
0
 10
34.8037
 20
-14.7335
 11
34.8817
 21
-14.7865
  0
LINE
  8
0
 10
34.8817
 20
-14.7865
 11
34.9561
 21
-14.8442
  0
LINE
  8
0
 10
34.9561
 20
-14.8442
 11
35.0268
 21
-14.9065
  0
LINE
  8
0
 10
35.0268
 20
-14.9065
 11
35.0935
 21
-14.9732
  0
LINE
  8
0
 10
35.0935
 20
-14.9732
 11
35.1558
 21
-15.0439
  0
LINE
  8
0
 10
35.1558
 20
-15.0439
 11
35.2135
 21
-15.1183
  0
LINE
  8
0
 10
35.2135
 20
-15.1183
 11
35.2665
 21
-15.1963
  0
LINE
  8
0
 10
35.2665
 20
-15.1963
 11
35.3145
 21
-15.2774
  0
LINE
  8
0
 10
35.3145
 20
-15.2774
 11
35.3573
 21
-15.3613
  0
LINE
  8
0
 10
35.3573
 20
-15.3613
 11
35.3947
 21
-15.4478
  0
LINE
  8
0
 10
35.3947
 20
-15.4478
 11
35.4266
 21
-15.5365
  0
LINE
  8
0
 10
35.4266
 20
-15.5365
 11
35.4529
 21
-15.627
  0
LINE
  8
0
 10
35.4529
 20
-15.627
 11
35.4734
 21
-15.7189
  0
LINE
  8
0
 10
35.4734
 20
-15.7189
 11
35.4882
 21
-15.812
  0
LINE
  8
0
 10
35.4882
 20
-15.812
 11
35.4971
 21
-15.9058
  0
LINE
  8
0
 10
35.4971
 20
-15.9058
 11
35.5
 21
-16
  0
LINE
  8
0
 10
35.5
 20
-16
 11
35.4971
 21
-16.0942
  0
LINE
  8
0
 10
35.4971
 20
-16.0942
 11
35.4882
 21
-16.188
  0
LINE
  8
0
 10
35.4882
 20
-16.188
 11
35.4734
 21
-16.2811
  0
LINE
  8
0
 10
35.4734
 20
-16.2811
 11
35.4529
 21
-16.373
  0
LINE
  8
0
 10
35.4529
 20
-16.373
 11
35.4266
 21
-16.4635
  0
LINE
  8
0
 10
35.4266
 20
-16.4635
 11
35.3947
 21
-16.5522
  0
LINE
  8
0
 10
35.3947
 20
-16.5522
 11
35.3573
 21
-16.6387
  0
LINE
  8
0
 10
35.3573
 20
-16.6387
 11
35.3145
 21
-16.7226
  0
LINE
  8
0
 10
35.3145
 20
-16.7226
 11
35.2665
 21
-16.8037
  0
LINE
  8
0
 10
35.2665
 20
-16.8037
 11
35.2135
 21
-16.8817
  0
LINE
  8
0
 10
35.2135
 20
-16.8817
 11
35.1558
 21
-16.9561
  0
LINE
  8
0
 10
35.1558
 20
-16.9561
 11
35.0935
 21
-17.0268
  0
LINE
  8
0
 10
35.0935
 20
-17.0268
 11
35.0268
 21
-17.0934
  0
LINE
  8
0
 10
35.0268
 20
-17.0934
 11
34.9561
 21
-17.1558
  0
LINE
  8
0
 10
34.9561
 20
-17.1558
 11
34.8817
 21
-17.2135
  0
LINE
  8
0
 10
34.8817
 20
-17.2135
 11
34.8037
 21
-17.2665
  0
LINE
  8
0
 10
34.8037
 20
-17.2665
 11
34.7226
 21
-17.3145
  0
LINE
  8
0
 10
34.7226
 20
-17.3145
 11
34.6387
 21
-17.3572
  0
LINE
  8
0
 10
34.6387
 20
-17.3572
 11
34.5522
 21
-17.3947
  0
LINE
  8
0
 10
34.5522
 20
-17.3947
 11
34.4635
 21
-17.4266
  0
LINE
  8
0
 10
34.4635
 20
-17.4266
 11
34.373
 21
-17.4529
  0
LINE
  8
0
 10
34.373
 20
-17.4529
 11
34.2811
 21
-17.4734
  0
LINE
  8
0
 10
34.2811
 20
-17.4734
 11
34.188
 21
-17.4882
  0
LINE
  8
0
 10
34.188
 20
-17.4882
 11
34.0942
 21
-17.497
  0
LINE
  8
0
 10
34.0942
 20
-17.497
 11
34
 21
-17.5
  0
LINE
  8
0
 10
34
 20
-17.5
 11
33.9058
 21
-17.497
  0
LINE
  8
0
 10
65.9058
 20
-17.497
 11
65.812
 21
-17.4882
  0
LINE
  8
0
 10
65.812
 20
-17.4882
 11
65.7189
 21
-17.4734
  0
LINE
  8
0
 10
65.7189
 20
-17.4734
 11
65.627
 21
-17.4529
  0
LINE
  8
0
 10
65.627
 20
-17.4529
 11
65.5365
 21
-17.4266
  0
LINE
  8
0
 10
65.5365
 20
-17.4266
 11
65.4478
 21
-17.3947
  0
LINE
  8
0
 10
65.4478
 20
-17.3947
 11
65.3613
 21
-17.3572
  0
LINE
  8
0
 10
65.3613
 20
-17.3572
 11
65.2774
 21
-17.3145
  0
LINE
  8
0
 10
65.2774
 20
-17.3145
 11
65.1963
 21
-17.2665
  0
LINE
  8
0
 10
65.1963
 20
-17.2665
 11
65.1183
 21
-17.2135
  0
LINE
  8
0
 10
65.1183
 20
-17.2135
 11
65.0439
 21
-17.1558
  0
LINE
  8
0
 10
65.0439
 20
-17.1558
 11
64.9732
 21
-17.0934
  0
LINE
  8
0
 10
64.9732
 20
-17.0934
 11
64.9065
 21
-17.0268
  0
LINE
  8
0
 10
64.9065
 20
-17.0268
 11
64.8442
 21
-16.9561
  0
LINE
  8
0
 10
64.8442
 20
-16.9561
 11
64.7865
 21
-16.8817
  0
LINE
  8
0
 10
64.7865
 20
-16.8817
 11
64.7335
 21
-16.8037
  0
LINE
  8
0
 10
64.7335
 20
-16.8037
 11
64.6855
 21
-16.7226
  0
LINE
  8
0
 10
64.6855
 20
-16.7226
 11
64.6427
 21
-16.6387
  0
LINE
  8
0
 10
64.6427
 20
-16.6387
 11
64.6053
 21
-16.5522
  0
LINE
  8
0
 10
64.6053
 20
-16.5522
 11
64.5734
 21
-16.4635
  0
LINE
  8
0
 10
64.5734
 20
-16.4635
 11
64.5471
 21
-16.373
  0
LINE
  8
0
 10
64.5471
 20
-16.373
 11
64.5266
 21
-16.2811
  0
LINE
  8
0
 10
64.5266
 20
-16.2811
 11
64.5118
 21
-16.188
  0
LINE
  8
0
 10
64.5118
 20
-16.188
 11
64.5029
 21
-16.0942
  0
LINE
  8
0
 10
64.5029
 20
-16.0942
 11
64.5
 21
-16
  0
LINE
  8
0
 10
64.5
 20
-16
 11
64.5029
 21
-15.9058
  0
LINE
  8
0
 10
64.5029
 20
-15.9058
 11
64.5118
 21
-15.812
  0
LINE
  8
0
 10
64.5118
 20
-15.812
 11
64.5266
 21
-15.7189
  0
LINE
  8
0
 10
64.5266
 20
-15.7189
 11
64.5471
 21
-15.627
  0
LINE
  8
0
 10
64.5471
 20
-15.627
 11
64.5734
 21
-15.5365
  0
LINE
  8
0
 10
64.5734
 20
-15.5365
 11
64.6053
 21
-15.4478
  0
LINE
  8
0
 10
64.6053
 20
-15.4478
 11
64.6427
 21
-15.3613
  0
LINE
  8
0
 10
64.6427
 20
-15.3613
 11
64.6855
 21
-15.2774
  0
LINE
  8
0
 10
64.6855
 20
-15.2774
 11
64.7335
 21
-15.1963
  0
LINE
  8
0
 10
64.7335
 20
-15.1963
 11
64.7865
 21
-15.1183
  0
LINE
  8
0
 10
64.7865
 20
-15.1183
 11
64.8442
 21
-15.0439
  0
LINE
  8
0
 10
64.8442
 20
-15.0439
 11
64.9065
 21
-14.9732
  0
LINE
  8
0
 10
64.9065
 20
-14.9732
 11
64.9732
 21
-14.9065
  0
LINE
  8
0
 10
64.9732
 20
-14.9065
 11
65.0439
 21
-14.8442
  0
LINE
  8
0
 10
65.0439
 20
-14.8442
 11
65.1183
 21
-14.7865
  0
LINE
  8
0
 10
65.1183
 20
-14.7865
 11
65.1963
 21
-14.7335
  0
LINE
  8
0
 10
65.1963
 20
-14.7335
 11
65.2774
 21
-14.6855
  0
LINE
  8
0
 10
65.2774
 20
-14.6855
 11
65.3613
 21
-14.6427
  0
LINE
  8
0
 10
65.3613
 20
-14.6427
 11
65.4478
 21
-14.6053
  0
LINE
  8
0
 10
65.4478
 20
-14.6053
 11
65.5365
 21
-14.5734
  0
LINE
  8
0
 10
65.5365
 20
-14.5734
 11
65.627
 21
-14.5471
  0
LINE
  8
0
 10
65.627
 20
-14.5471
 11
65.7189
 21
-14.5266
  0
LINE
  8
0
 10
65.7189
 20
-14.5266
 11
65.812
 21
-14.5118
  0
LINE
  8
0
 10
65.812
 20
-14.5118
 11
65.9058
 21
-14.5029
  0
LINE
  8
0
 10
65.9058
 20
-14.5029
 11
66
 21
-14.5
  0
LINE
  8
0
 10
66
 20
-14.5
 11
66.0942
 21
-14.5029
  0
LINE
  8
0
 10
66.0942
 20
-14.5029
 11
66.188
 21
-14.5118
  0
LINE
  8
0
 10
66.188
 20
-14.5118
 11
66.2811
 21
-14.5266
  0
LINE
  8
0
 10
66.2811
 20
-14.5266
 11
66.373
 21
-14.5471
  0
LINE
  8
0
 10
66.373
 20
-14.5471
 11
66.4635
 21
-14.5734
  0
LINE
  8
0
 10
66.4635
 20
-14.5734
 11
66.5522
 21
-14.6053
  0
LINE
  8
0
 10
66.5522
 20
-14.6053
 11
66.6387
 21
-14.6427
  0
LINE
  8
0
 10
66.6387
 20
-14.6427
 11
66.7226
 21
-14.6855
  0
LINE
  8
0
 10
66.7226
 20
-14.6855
 11
66.8037
 21
-14.7335
  0
LINE
  8
0
 10
66.8037
 20
-14.7335
 11
66.8817
 21
-14.7865
  0
LINE
  8
0
 10
66.8817
 20
-14.7865
 11
66.9561
 21
-14.8442
  0
LINE
  8
0
 10
66.9561
 20
-14.8442
 11
67.0268
 21
-14.9065
  0
LINE
  8
0
 10
67.0268
 20
-14.9065
 11
67.0934
 21
-14.9732
  0
LINE
  8
0
 10
67.0934
 20
-14.9732
 11
67.1558
 21
-15.0439
  0
LINE
  8
0
 10
67.1558
 20
-15.0439
 11
67.2135
 21
-15.1183
  0
LINE
  8
0
 10
67.2135
 20
-15.1183
 11
67.2665
 21
-15.1963
  0
LINE
  8
0
 10
67.2665
 20
-15.1963
 11
67.3145
 21
-15.2774
  0
LINE
  8
0
 10
67.3145
 20
-15.2774
 11
67.3572
 21
-15.3613
  0
LINE
  8
0
 10
67.3572
 20
-15.3613
 11
67.3947
 21
-15.4478
  0
LINE
  8
0
 10
67.3947
 20
-15.4478
 11
67.4266
 21
-15.5365
  0
LINE
  8
0
 10
67.4266
 20
-15.5365
 11
67.4529
 21
-15.627
  0
LINE
  8
0
 10
67.4529
 20
-15.627
 11
67.4734
 21
-15.7189
  0
LINE
  8
0
 10
67.4734
 20
-15.7189
 11
67.4882
 21
-15.812
  0
LINE
  8
0
 10
67.4882
 20
-15.812
 11
67.497
 21
-15.9058
  0
LINE
  8
0
 10
67.497
 20
-15.9058
 11
67.5
 21
-16
  0
LINE
  8
0
 10
67.5
 20
-16
 11
67.497
 21
-16.0942
  0
LINE
  8
0
 10
67.497
 20
-16.0942
 11
67.4882
 21
-16.188
  0
LINE
  8
0
 10
67.4882
 20
-16.188
 11
67.4734
 21
-16.2811
  0
LINE
  8
0
 10
67.4734
 20
-16.2811
 11
67.4529
 21
-16.373
  0
LINE
  8
0
 10
67.4529
 20
-16.373
 11
67.4266
 21
-16.4635
  0
LINE
  8
0
 10
67.4266
 20
-16.4635
 11
67.3947
 21
-16.5522
  0
LINE
  8
0
 10
67.3947
 20
-16.5522
 11
67.3572
 21
-16.6387
  0
LINE
  8
0
 10
67.3572
 20
-16.6387
 11
67.3145
 21
-16.7226
  0
LINE
  8
0
 10
67.3145
 20
-16.7226
 11
67.2665
 21
-16.8037
  0
LINE
  8
0
 10
67.2665
 20
-16.8037
 11
67.2135
 21
-16.8817
  0
LINE
  8
0
 10
67.2135
 20
-16.8817
 11
67.1558
 21
-16.9561
  0
LINE
  8
0
 10
67.1558
 20
-16.9561
 11
67.0934
 21
-17.0268
  0
LINE
  8
0
 10
67.0934
 20
-17.0268
 11
67.0268
 21
-17.0934
  0
LINE
  8
0
 10
67.0268
 20
-17.0934
 11
66.9561
 21
-17.1558
  0
LINE
  8
0
 10
66.9561
 20
-17.1558
 11
66.8817
 21
-17.2135
  0
LINE
  8
0
 10
66.8817
 20
-17.2135
 11
66.8037
 21
-17.2665
  0
LINE
  8
0
 10
66.8037
 20
-17.2665
 11
66.7226
 21
-17.3145
  0
LINE
  8
0
 10
66.7226
 20
-17.3145
 11
66.6387
 21
-17.3572
  0
LINE
  8
0
 10
66.6387
 20
-17.3572
 11
66.5522
 21
-17.3947
  0
LINE
  8
0
 10
66.5522
 20
-17.3947
 11
66.4635
 21
-17.4266
  0
LINE
  8
0
 10
66.4635
 20
-17.4266
 11
66.373
 21
-17.4529
  0
LINE
  8
0
 10
66.373
 20
-17.4529
 11
66.2811
 21
-17.4734
  0
LINE
  8
0
 10
66.2811
 20
-17.4734
 11
66.188
 21
-17.4882
  0
LINE
  8
0
 10
66.188
 20
-17.4882
 11
66.0942
 21
-17.497
  0
LINE
  8
0
 10
66.0942
 20
-17.497
 11
66
 21
-17.5
  0
LINE
  8
0
 10
66
 20
-17.5
 11
65.9058
 21
-17.497
  0
LINE
  8
0
 10
-20.5511
 20
-35.4921
 11
-20.8013
 21
-35.4684
  0
LINE
  8
0
 10
-20.8013
 20
-35.4684
 11
-21.0495
 21
-35.4291
  0
LINE
  8
0
 10
-21.0495
 20
-35.4291
 11
-21.2948
 21
-35.3743
  0
LINE
  8
0
 10
-21.2948
 20
-35.3743
 11
-21.5361
 21
-35.3042
  0
LINE
  8
0
 10
-21.5361
 20
-35.3042
 11
-21.7725
 21
-35.2191
  0
LINE
  8
0
 10
-21.7725
 20
-35.2191
 11
-22.0031
 21
-35.1193
  0
LINE
  8
0
 10
-22.0031
 20
-35.1193
 11
-22.227
 21
-35.0052
  0
LINE
  8
0
 10
-22.227
 20
-35.0052
 11
-22.4433
 21
-34.8773
  0
LINE
  8
0
 10
-22.4433
 20
-34.8773
 11
-22.6511
 21
-34.7361
  0
LINE
  8
0
 10
-22.6511
 20
-34.7361
 11
-22.8497
 21
-34.582
  0
LINE
  8
0
 10
-22.8497
 20
-34.582
 11
-23.0382
 21
-34.4159
  0
LINE
  8
0
 10
-23.0382
 20
-34.4159
 11
-23.2159
 21
-34.2382
  0
LINE
  8
0
 10
-23.2159
 20
-34.2382
 11
-23.382
 21
-34.0497
  0
LINE
  8
0
 10
-23.382
 20
-34.0497
 11
-23.5361
 21
-33.8511
  0
LINE
  8
0
 10
-23.5361
 20
-33.8511
 11
-23.6773
 21
-33.6433
  0
LINE
  8
0
 10
-23.6773
 20
-33.6433
 11
-23.8052
 21
-33.427
  0
LINE
  8
0
 10
-23.8052
 20
-33.427
 11
-23.9193
 21
-33.2031
  0
LINE
  8
0
 10
-23.9193
 20
-33.2031
 11
-24.0191
 21
-32.9725
  0
LINE
  8
0
 10
-24.0191
 20
-32.9725
 11
-24.1042
 21
-32.7361
  0
LINE
  8
0
 10
-24.1042
 20
-32.7361
 11
-24.1743
 21
-32.4948
  0
LINE
  8
0
 10
-24.1743
 20
-32.4948
 11
-24.2291
 21
-32.2495
  0
LINE
  8
0
 10
-24.2291
 20
-32.2495
 11
-24.2684
 21
-32.0013
  0
LINE
  8
0
 10
-24.2684
 20
-32.0013
 11
-24.2921
 21
-31.7512
  0
LINE
  8
0
 10
-24.2921
 20
-31.7512
 11
-24.3
 21
-31.5
  0
LINE
  8
0
 10
-24.3
 20
-31.5
 11
-24.2921
 21
-31.2488
  0
LINE
  8
0
 10
-24.2921
 20
-31.2488
 11
-24.2684
 21
-30.9987
  0
LINE
  8
0
 10
-24.2684
 20
-30.9987
 11
-24.2291
 21
-30.7505
  0
LINE
  8
0
 10
-24.2291
 20
-30.7505
 11
-24.1743
 21
-30.5052
  0
LINE
  8
0
 10
-24.1743
 20
-30.5052
 11
-24.1042
 21
-30.2639
  0
LINE
  8
0
 10
-24.1042
 20
-30.2639
 11
-24.0191
 21
-30.0275
  0
LINE
  8
0
 10
-24.0191
 20
-30.0275
 11
-23.9193
 21
-29.7969
  0
LINE
  8
0
 10
-23.9193
 20
-29.7969
 11
-23.8052
 21
-29.573
  0
LINE
  8
0
 10
-23.8052
 20
-29.573
 11
-23.6773
 21
-29.3567
  0
LINE
  8
0
 10
-23.6773
 20
-29.3567
 11
-23.5361
 21
-29.1488
  0
LINE
  8
0
 10
-23.5361
 20
-29.1488
 11
-23.382
 21
-28.9503
  0
LINE
  8
0
 10
-23.382
 20
-28.9503
 11
-23.2159
 21
-28.7618
  0
LINE
  8
0
 10
-23.2159
 20
-28.7618
 11
-23.0382
 21
-28.5841
  0
LINE
  8
0
 10
-23.0382
 20
-28.5841
 11
-22.8497
 21
-28.4179
  0
LINE
  8
0
 10
-22.8497
 20
-28.4179
 11
-22.6511
 21
-28.2639
  0
LINE
  8
0
 10
-22.6511
 20
-28.2639
 11
-22.4433
 21
-28.1227
  0
LINE
  8
0
 10
-22.4433
 20
-28.1227
 11
-22.227
 21
-27.9948
  0
LINE
  8
0
 10
-22.227
 20
-27.9948
 11
-22.0031
 21
-27.8807
  0
LINE
  8
0
 10
-22.0031
 20
-27.8807
 11
-21.7725
 21
-27.7809
  0
LINE
  8
0
 10
-21.7725
 20
-27.7809
 11
-21.5361
 21
-27.6958
  0
LINE
  8
0
 10
-21.5361
 20
-27.6958
 11
-21.2948
 21
-27.6257
  0
LINE
  8
0
 10
-21.2948
 20
-27.6257
 11
-21.0495
 21
-27.5708
  0
LINE
  8
0
 10
-21.0495
 20
-27.5708
 11
-20.8013
 21
-27.5315
  0
LINE
  8
0
 10
-20.8013
 20
-27.5315
 11
-20.5511
 21
-27.5079
  0
LINE
  8
0
 10
-20.5511
 20
-27.5079
 11
-20.3
 21
-27.5
  0
LINE
  8
0
 10
-20.3
 20
-27.5
 11
-20.0488
 21
-27.5079
  0
LINE
  8
0
 10
-20.0488
 20
-27.5079
 11
-19.7987
 21
-27.5315
  0
LINE
  8
0
 10
-19.7987
 20
-27.5315
 11
-19.5505
 21
-27.5708
  0
LINE
  8
0
 10
-19.5505
 20
-27.5708
 11
-19.3052
 21
-27.6257
  0
LINE
  8
0
 10
-19.3052
 20
-27.6257
 11
-19.0639
 21
-27.6958
  0
LINE
  8
0
 10
-19.0639
 20
-27.6958
 11
-18.8275
 21
-27.7809
  0
LINE
  8
0
 10
-18.8275
 20
-27.7809
 11
-18.5969
 21
-27.8807
  0
LINE
  8
0
 10
-18.5969
 20
-27.8807
 11
-18.373
 21
-27.9948
  0
LINE
  8
0
 10
-18.373
 20
-27.9948
 11
-18.1567
 21
-28.1227
  0
LINE
  8
0
 10
-18.1567
 20
-28.1227
 11
-17.9489
 21
-28.2639
  0
LINE
  8
0
 10
-17.9489
 20
-28.2639
 11
-17.7503
 21
-28.4179
  0
LINE
  8
0
 10
-17.7503
 20
-28.4179
 11
-17.5618
 21
-28.5841
  0
LINE
  8
0
 10
-17.5618
 20
-28.5841
 11
-17.3841
 21
-28.7618
  0
LINE
  8
0
 10
-17.3841
 20
-28.7618
 11
-17.2179
 21
-28.9503
  0
LINE
  8
0
 10
-17.2179
 20
-28.9503
 11
-17.0639
 21
-29.1488
  0
LINE
  8
0
 10
-17.0639
 20
-29.1488
 11
-16.9227
 21
-29.3567
  0
LINE
  8
0
 10
-16.9227
 20
-29.3567
 11
-16.7948
 21
-29.573
  0
LINE
  8
0
 10
-16.7948
 20
-29.573
 11
-16.6807
 21
-29.7969
  0
LINE
  8
0
 10
-16.6807
 20
-29.7969
 11
-16.5809
 21
-30.0275
  0
LINE
  8
0
 10
-16.5809
 20
-30.0275
 11
-16.4958
 21
-30.2639
  0
LINE
  8
0
 10
-16.4958
 20
-30.2639
 11
-16.4257
 21
-30.5052
  0
LINE
  8
0
 10
-16.4257
 20
-30.5052
 11
-16.3708
 21
-30.7505
  0
LINE
  8
0
 10
-16.3708
 20
-30.7505
 11
-16.3315
 21
-30.9987
  0
LINE
  8
0
 10
-16.3315
 20
-30.9987
 11
-16.3079
 21
-31.2488
  0
LINE
  8
0
 10
-16.3079
 20
-31.2488
 11
-16.3
 21
-31.5
  0
LINE
  8
0
 10
-16.3
 20
-31.5
 11
-16.3079
 21
-31.7512
  0
LINE
  8
0
 10
-16.3079
 20
-31.7512
 11
-16.3315
 21
-32.0013
  0
LINE
  8
0
 10
-16.3315
 20
-32.0013
 11
-16.3708
 21
-32.2495
  0
LINE
  8
0
 10
-16.3708
 20
-32.2495
 11
-16.4257
 21
-32.4948
  0
LINE
  8
0
 10
-16.4257
 20
-32.4948
 11
-16.4958
 21
-32.7361
  0
LINE
  8
0
 10
-16.4958
 20
-32.7361
 11
-16.5809
 21
-32.9725
  0
LINE
  8
0
 10
-16.5809
 20
-32.9725
 11
-16.6807
 21
-33.2031
  0
LINE
  8
0
 10
-16.6807
 20
-33.2031
 11
-16.7948
 21
-33.427
  0
LINE
  8
0
 10
-16.7948
 20
-33.427
 11
-16.9227
 21
-33.6433
  0
LINE
  8
0
 10
-16.9227
 20
-33.6433
 11
-17.0639
 21
-33.8511
  0
LINE
  8
0
 10
-17.0639
 20
-33.8511
 11
-17.2179
 21
-34.0497
  0
LINE
  8
0
 10
-17.2179
 20
-34.0497
 11
-17.3841
 21
-34.2382
  0
LINE
  8
0
 10
-17.3841
 20
-34.2382
 11
-17.5618
 21
-34.4159
  0
LINE
  8
0
 10
-17.5618
 20
-34.4159
 11
-17.7503
 21
-34.582
  0
LINE
  8
0
 10
-17.7503
 20
-34.582
 11
-17.9489
 21
-34.7361
  0
LINE
  8
0
 10
-17.9489
 20
-34.7361
 11
-18.1567
 21
-34.8773
  0
LINE
  8
0
 10
-18.1567
 20
-34.8773
 11
-18.373
 21
-35.0052
  0
LINE
  8
0
 10
-18.373
 20
-35.0052
 11
-18.5969
 21
-35.1193
  0
LINE
  8
0
 10
-18.5969
 20
-35.1193
 11
-18.8275
 21
-35.2191
  0
LINE
  8
0
 10
-18.8275
 20
-35.2191
 11
-19.0639
 21
-35.3042
  0
LINE
  8
0
 10
-19.0639
 20
-35.3042
 11
-19.3052
 21
-35.3743
  0
LINE
  8
0
 10
-19.3052
 20
-35.3743
 11
-19.5505
 21
-35.4291
  0
LINE
  8
0
 10
-19.5505
 20
-35.4291
 11
-19.7987
 21
-35.4684
  0
LINE
  8
0
 10
-19.7987
 20
-35.4684
 11
-20.0488
 21
-35.4921
  0
LINE
  8
0
 10
-20.0488
 20
-35.4921
 11
-20.3
 21
-35.5
  0
LINE
  8
0
 10
-20.3
 20
-35.5
 11
-20.5511
 21
-35.4921
  0
LINE
  8
0
 10
20.0488
 20
-35.4921
 11
19.7987
 21
-35.4684
  0
LINE
  8
0
 10
19.7987
 20
-35.4684
 11
19.5505
 21
-35.4291
  0
LINE
  8
0
 10
19.5505
 20
-35.4291
 11
19.3052
 21
-35.3743
  0
LINE
  8
0
 10
19.3052
 20
-35.3743
 11
19.0639
 21
-35.3042
  0
LINE
  8
0
 10
19.0639
 20
-35.3042
 11
18.8275
 21
-35.2191
  0
LINE
  8
0
 10
18.8275
 20
-35.2191
 11
18.5969
 21
-35.1193
  0
LINE
  8
0
 10
18.5969
 20
-35.1193
 11
18.373
 21
-35.0052
  0
LINE
  8
0
 10
18.373
 20
-35.0052
 11
18.1567
 21
-34.8773
  0
LINE
  8
0
 10
18.1567
 20
-34.8773
 11
17.9489
 21
-34.7361
  0
LINE
  8
0
 10
17.9489
 20
-34.7361
 11
17.7503
 21
-34.582
  0
LINE
  8
0
 10
17.7503
 20
-34.582
 11
17.5618
 21
-34.4159
  0
LINE
  8
0
 10
17.5618
 20
-34.4159
 11
17.3841
 21
-34.2382
  0
LINE
  8
0
 10
17.3841
 20
-34.2382
 11
17.2179
 21
-34.0497
  0
LINE
  8
0
 10
17.2179
 20
-34.0497
 11
17.0639
 21
-33.8511
  0
LINE
  8
0
 10
17.0639
 20
-33.8511
 11
16.9227
 21
-33.6433
  0
LINE
  8
0
 10
16.9227
 20
-33.6433
 11
16.7948
 21
-33.427
  0
LINE
  8
0
 10
16.7948
 20
-33.427
 11
16.6807
 21
-33.2031
  0
LINE
  8
0
 10
16.6807
 20
-33.2031
 11
16.5809
 21
-32.9725
  0
LINE
  8
0
 10
16.5809
 20
-32.9725
 11
16.4958
 21
-32.7361
  0
LINE
  8
0
 10
16.4958
 20
-32.7361
 11
16.4257
 21
-32.4948
  0
LINE
  8
0
 10
16.4257
 20
-32.4948
 11
16.3708
 21
-32.2495
  0
LINE
  8
0
 10
16.3708
 20
-32.2495
 11
16.3315
 21
-32.0013
  0
LINE
  8
0
 10
16.3315
 20
-32.0013
 11
16.3079
 21
-31.7512
  0
LINE
  8
0
 10
16.3079
 20
-31.7512
 11
16.3
 21
-31.5
  0
LINE
  8
0
 10
16.3
 20
-31.5
 11
16.3079
 21
-31.2488
  0
LINE
  8
0
 10
16.3079
 20
-31.2488
 11
16.3315
 21
-30.9987
  0
LINE
  8
0
 10
16.3315
 20
-30.9987
 11
16.3708
 21
-30.7505
  0
LINE
  8
0
 10
16.3708
 20
-30.7505
 11
16.4257
 21
-30.5052
  0
LINE
  8
0
 10
16.4257
 20
-30.5052
 11
16.4958
 21
-30.2639
  0
LINE
  8
0
 10
16.4958
 20
-30.2639
 11
16.5809
 21
-30.0275
  0
LINE
  8
0
 10
16.5809
 20
-30.0275
 11
16.6807
 21
-29.7969
  0
LINE
  8
0
 10
16.6807
 20
-29.7969
 11
16.7948
 21
-29.573
  0
LINE
  8
0
 10
16.7948
 20
-29.573
 11
16.9227
 21
-29.3567
  0
LINE
  8
0
 10
16.9227
 20
-29.3567
 11
17.0639
 21
-29.1488
  0
LINE
  8
0
 10
17.0639
 20
-29.1488
 11
17.2179
 21
-28.9503
  0
LINE
  8
0
 10
17.2179
 20
-28.9503
 11
17.3841
 21
-28.7618
  0
LINE
  8
0
 10
17.3841
 20
-28.7618
 11
17.5618
 21
-28.5841
  0
LINE
  8
0
 10
17.5618
 20
-28.5841
 11
17.7503
 21
-28.4179
  0
LINE
  8
0
 10
17.7503
 20
-28.4179
 11
17.9489
 21
-28.2639
  0
LINE
  8
0
 10
17.9489
 20
-28.2639
 11
18.1567
 21
-28.1227
  0
LINE
  8
0
 10
18.1567
 20
-28.1227
 11
18.373
 21
-27.9948
  0
LINE
  8
0
 10
18.373
 20
-27.9948
 11
18.5969
 21
-27.8807
  0
LINE
  8
0
 10
18.5969
 20
-27.8807
 11
18.8275
 21
-27.7809
  0
LINE
  8
0
 10
18.8275
 20
-27.7809
 11
19.0639
 21
-27.6958
  0
LINE
  8
0
 10
19.0639
 20
-27.6958
 11
19.3052
 21
-27.6257
  0
LINE
  8
0
 10
19.3052
 20
-27.6257
 11
19.5505
 21
-27.5708
  0
LINE
  8
0
 10
19.5505
 20
-27.5708
 11
19.7987
 21
-27.5315
  0
LINE
  8
0
 10
19.7987
 20
-27.5315
 11
20.0488
 21
-27.5079
  0
LINE
  8
0
 10
20.0488
 20
-27.5079
 11
20.3
 21
-27.5
  0
LINE
  8
0
 10
20.3
 20
-27.5
 11
20.5511
 21
-27.5079
  0
LINE
  8
0
 10
20.5511
 20
-27.5079
 11
20.8013
 21
-27.5315
  0
LINE
  8
0
 10
20.8013
 20
-27.5315
 11
21.0495
 21
-27.5708
  0
LINE
  8
0
 10
21.0495
 20
-27.5708
 11
21.2948
 21
-27.6257
  0
LINE
  8
0
 10
21.2948
 20
-27.6257
 11
21.5361
 21
-27.6958
  0
LINE
  8
0
 10
21.5361
 20
-27.6958
 11
21.7725
 21
-27.7809
  0
LINE
  8
0
 10
21.7725
 20
-27.7809
 11
22.0031
 21
-27.8807
  0
LINE
  8
0
 10
22.0031
 20
-27.8807
 11
22.227
 21
-27.9948
  0
LINE
  8
0
 10
22.227
 20
-27.9948
 11
22.4433
 21
-28.1227
  0
LINE
  8
0
 10
22.4433
 20
-28.1227
 11
22.6511
 21
-28.2639
  0
LINE
  8
0
 10
22.6511
 20
-28.2639
 11
22.8497
 21
-28.4179
  0
LINE
  8
0
 10
22.8497
 20
-28.4179
 11
23.0382
 21
-28.5841
  0
LINE
  8
0
 10
23.0382
 20
-28.5841
 11
23.2159
 21
-28.7618
  0
LINE
  8
0
 10
23.2159
 20
-28.7618
 11
23.382
 21
-28.9503
  0
LINE
  8
0
 10
23.382
 20
-28.9503
 11
23.5361
 21
-29.1488
  0
LINE
  8
0
 10
23.5361
 20
-29.1488
 11
23.6773
 21
-29.3567
  0
LINE
  8
0
 10
23.6773
 20
-29.3567
 11
23.8052
 21
-29.573
  0
LINE
  8
0
 10
23.8052
 20
-29.573
 11
23.9193
 21
-29.7969
  0
LINE
  8
0
 10
23.9193
 20
-29.7969
 11
24.0191
 21
-30.0275
  0
LINE
  8
0
 10
24.0191
 20
-30.0275
 11
24.1042
 21
-30.2639
  0
LINE
  8
0
 10
24.1042
 20
-30.2639
 11
24.1743
 21
-30.5052
  0
LINE
  8
0
 10
24.1743
 20
-30.5052
 11
24.2291
 21
-30.7505
  0
LINE
  8
0
 10
24.2291
 20
-30.7505
 11
24.2684
 21
-30.9987
  0
LINE
  8
0
 10
24.2684
 20
-30.9987
 11
24.2921
 21
-31.2488
  0
LINE
  8
0
 10
24.2921
 20
-31.2488
 11
24.3
 21
-31.5
  0
LINE
  8
0
 10
24.3
 20
-31.5
 11
24.2921
 21
-31.7512
  0
LINE
  8
0
 10
24.2921
 20
-31.7512
 11
24.2684
 21
-32.0013
  0
LINE
  8
0
 10
24.2684
 20
-32.0013
 11
24.2291
 21
-32.2495
  0
LINE
  8
0
 10
24.2291
 20
-32.2495
 11
24.1743
 21
-32.4948
  0
LINE
  8
0
 10
24.1743
 20
-32.4948
 11
24.1042
 21
-32.7361
  0
LINE
  8
0
 10
24.1042
 20
-32.7361
 11
24.0191
 21
-32.9725
  0
LINE
  8
0
 10
24.0191
 20
-32.9725
 11
23.9193
 21
-33.2031
  0
LINE
  8
0
 10
23.9193
 20
-33.2031
 11
23.8052
 21
-33.427
  0
LINE
  8
0
 10
23.8052
 20
-33.427
 11
23.6773
 21
-33.6433
  0
LINE
  8
0
 10
23.6773
 20
-33.6433
 11
23.5361
 21
-33.8511
  0
LINE
  8
0
 10
23.5361
 20
-33.8511
 11
23.382
 21
-34.0497
  0
LINE
  8
0
 10
23.382
 20
-34.0497
 11
23.2159
 21
-34.2382
  0
LINE
  8
0
 10
23.2159
 20
-34.2382
 11
23.0382
 21
-34.4159
  0
LINE
  8
0
 10
23.0382
 20
-34.4159
 11
22.8497
 21
-34.582
  0
LINE
  8
0
 10
22.8497
 20
-34.582
 11
22.6511
 21
-34.7361
  0
LINE
  8
0
 10
22.6511
 20
-34.7361
 11
22.4433
 21
-34.8773
  0
LINE
  8
0
 10
22.4433
 20
-34.8773
 11
22.227
 21
-35.0052
  0
LINE
  8
0
 10
22.227
 20
-35.0052
 11
22.0031
 21
-35.1193
  0
LINE
  8
0
 10
22.0031
 20
-35.1193
 11
21.7725
 21
-35.2191
  0
LINE
  8
0
 10
21.7725
 20
-35.2191
 11
21.5361
 21
-35.3042
  0
LINE
  8
0
 10
21.5361
 20
-35.3042
 11
21.2948
 21
-35.3743
  0
LINE
  8
0
 10
21.2948
 20
-35.3743
 11
21.0495
 21
-35.4291
  0
LINE
  8
0
 10
21.0495
 20
-35.4291
 11
20.8013
 21
-35.4684
  0
LINE
  8
0
 10
20.8013
 20
-35.4684
 11
20.5511
 21
-35.4921
  0
LINE
  8
0
 10
20.5511
 20
-35.4921
 11
20.3
 21
-35.5
  0
LINE
  8
0
 10
20.3
 20
-35.5
 11
20.0488
 21
-35.4921
  0
ENDSEC
  0
SECTION
  2
OBJECTS
  0
DICTIONARY
  0
ENDSEC
  0
EOF
