  0
SECTION
  2
BLOCKS
  0
ENDSEC
  0
SECTION
  2
ENTITIES
  0
LINE
  8
0
 10
90
 20
41
 11
-100
 21
41
  0
LINE
  8
0
 10
-100
 20
41
 11
-100
 21
-41
  0
LINE
  8
0
 10
-100
 20
-41
 11
90
 21
-41
  0
LINE
  8
0
 10
90
 20
-41
 11
90
 21
41
  0
LINE
  8
0
 10
30.0488
 20
27.5079
 11
29.7987
 21
27.5315
  0
LINE
  8
0
 10
29.7987
 20
27.5315
 11
29.5505
 21
27.5708
  0
LINE
  8
0
 10
29.5505
 20
27.5708
 11
29.3052
 21
27.6257
  0
LINE
  8
0
 10
29.3052
 20
27.6257
 11
29.0639
 21
27.6958
  0
LINE
  8
0
 10
29.0639
 20
27.6958
 11
28.8275
 21
27.7809
  0
LINE
  8
0
 10
28.8275
 20
27.7809
 11
28.5969
 21
27.8807
  0
LINE
  8
0
 10
28.5969
 20
27.8807
 11
28.373
 21
27.9948
  0
LINE
  8
0
 10
28.373
 20
27.9948
 11
28.1567
 21
28.1227
  0
LINE
  8
0
 10
28.1567
 20
28.1227
 11
27.9489
 21
28.2639
  0
LINE
  8
0
 10
27.9489
 20
28.2639
 11
27.7503
 21
28.4179
  0
LINE
  8
0
 10
27.7503
 20
28.4179
 11
27.5618
 21
28.5841
  0
LINE
  8
0
 10
27.5618
 20
28.5841
 11
27.3841
 21
28.7618
  0
LINE
  8
0
 10
27.3841
 20
28.7618
 11
27.2179
 21
28.9503
  0
LINE
  8
0
 10
27.2179
 20
28.9503
 11
27.0639
 21
29.1488
  0
LINE
  8
0
 10
27.0639
 20
29.1488
 11
26.9227
 21
29.3567
  0
LINE
  8
0
 10
26.9227
 20
29.3567
 11
26.7948
 21
29.573
  0
LINE
  8
0
 10
26.7948
 20
29.573
 11
26.6807
 21
29.7969
  0
LINE
  8
0
 10
26.6807
 20
29.7969
 11
26.5809
 21
30.0275
  0
LINE
  8
0
 10
26.5809
 20
30.0275
 11
26.4958
 21
30.2639
  0
LINE
  8
0
 10
26.4958
 20
30.2639
 11
26.4257
 21
30.5052
  0
LINE
  8
0
 10
26.4257
 20
30.5052
 11
26.3708
 21
30.7505
  0
LINE
  8
0
 10
26.3708
 20
30.7505
 11
26.3315
 21
30.9987
  0
LINE
  8
0
 10
26.3315
 20
30.9987
 11
26.3079
 21
31.2488
  0
LINE
  8
0
 10
26.3079
 20
31.2488
 11
26.3
 21
31.5
  0
LINE
  8
0
 10
26.3
 20
31.5
 11
26.3079
 21
31.7512
  0
LINE
  8
0
 10
26.3079
 20
31.7512
 11
26.3315
 21
32.0013
  0
LINE
  8
0
 10
26.3315
 20
32.0013
 11
26.3708
 21
32.2495
  0
LINE
  8
0
 10
26.3708
 20
32.2495
 11
26.4257
 21
32.4948
  0
LINE
  8
0
 10
26.4257
 20
32.4948
 11
26.4958
 21
32.7361
  0
LINE
  8
0
 10
26.4958
 20
32.7361
 11
26.5809
 21
32.9725
  0
LINE
  8
0
 10
26.5809
 20
32.9725
 11
26.6807
 21
33.2031
  0
LINE
  8
0
 10
26.6807
 20
33.2031
 11
26.7948
 21
33.427
  0
LINE
  8
0
 10
26.7948
 20
33.427
 11
26.9227
 21
33.6433
  0
LINE
  8
0
 10
26.9227
 20
33.6433
 11
27.0639
 21
33.8511
  0
LINE
  8
0
 10
27.0639
 20
33.8511
 11
27.2179
 21
34.0497
  0
LINE
  8
0
 10
27.2179
 20
34.0497
 11
27.3841
 21
34.2382
  0
LINE
  8
0
 10
27.3841
 20
34.2382
 11
27.5618
 21
34.4159
  0
LINE
  8
0
 10
27.5618
 20
34.4159
 11
27.7503
 21
34.582
  0
LINE
  8
0
 10
27.7503
 20
34.582
 11
27.9489
 21
34.7361
  0
LINE
  8
0
 10
27.9489
 20
34.7361
 11
28.1567
 21
34.8773
  0
LINE
  8
0
 10
28.1567
 20
34.8773
 11
28.373
 21
35.0052
  0
LINE
  8
0
 10
28.373
 20
35.0052
 11
28.5969
 21
35.1193
  0
LINE
  8
0
 10
28.5969
 20
35.1193
 11
28.8275
 21
35.2191
  0
LINE
  8
0
 10
28.8275
 20
35.2191
 11
29.0639
 21
35.3042
  0
LINE
  8
0
 10
29.0639
 20
35.3042
 11
29.3052
 21
35.3743
  0
LINE
  8
0
 10
29.3052
 20
35.3743
 11
29.5505
 21
35.4291
  0
LINE
  8
0
 10
29.5505
 20
35.4291
 11
29.7987
 21
35.4684
  0
LINE
  8
0
 10
29.7987
 20
35.4684
 11
30.0488
 21
35.4921
  0
LINE
  8
0
 10
30.0488
 20
35.4921
 11
30.3
 21
35.5
  0
LINE
  8
0
 10
30.3
 20
35.5
 11
30.5511
 21
35.4921
  0
LINE
  8
0
 10
30.5511
 20
35.4921
 11
30.8013
 21
35.4684
  0
LINE
  8
0
 10
30.8013
 20
35.4684
 11
31.0495
 21
35.4291
  0
LINE
  8
0
 10
31.0495
 20
35.4291
 11
31.2948
 21
35.3743
  0
LINE
  8
0
 10
31.2948
 20
35.3743
 11
31.5361
 21
35.3042
  0
LINE
  8
0
 10
31.5361
 20
35.3042
 11
31.7725
 21
35.2191
  0
LINE
  8
0
 10
31.7725
 20
35.2191
 11
32.0031
 21
35.1193
  0
LINE
  8
0
 10
32.0031
 20
35.1193
 11
32.227
 21
35.0052
  0
LINE
  8
0
 10
32.227
 20
35.0052
 11
32.4433
 21
34.8773
  0
LINE
  8
0
 10
32.4433
 20
34.8773
 11
32.6511
 21
34.7361
  0
LINE
  8
0
 10
32.6511
 20
34.7361
 11
32.8497
 21
34.582
  0
LINE
  8
0
 10
32.8497
 20
34.582
 11
33.0382
 21
34.4159
  0
LINE
  8
0
 10
33.0382
 20
34.4159
 11
33.2159
 21
34.2382
  0
LINE
  8
0
 10
33.2159
 20
34.2382
 11
33.382
 21
34.0497
  0
LINE
  8
0
 10
33.382
 20
34.0497
 11
33.5361
 21
33.8511
  0
LINE
  8
0
 10
33.5361
 20
33.8511
 11
33.6773
 21
33.6433
  0
LINE
  8
0
 10
33.6773
 20
33.6433
 11
33.8052
 21
33.427
  0
LINE
  8
0
 10
33.8052
 20
33.427
 11
33.9193
 21
33.2031
  0
LINE
  8
0
 10
33.9193
 20
33.2031
 11
34.0191
 21
32.9725
  0
LINE
  8
0
 10
34.0191
 20
32.9725
 11
34.1042
 21
32.7361
  0
LINE
  8
0
 10
34.1042
 20
32.7361
 11
34.1743
 21
32.4948
  0
LINE
  8
0
 10
34.1743
 20
32.4948
 11
34.2291
 21
32.2495
  0
LINE
  8
0
 10
34.2291
 20
32.2495
 11
34.2684
 21
32.0013
  0
LINE
  8
0
 10
34.2684
 20
32.0013
 11
34.2921
 21
31.7512
  0
LINE
  8
0
 10
34.2921
 20
31.7512
 11
34.3
 21
31.5
  0
LINE
  8
0
 10
34.3
 20
31.5
 11
34.2921
 21
31.2488
  0
LINE
  8
0
 10
34.2921
 20
31.2488
 11
34.2684
 21
30.9987
  0
LINE
  8
0
 10
34.2684
 20
30.9987
 11
34.2291
 21
30.7505
  0
LINE
  8
0
 10
34.2291
 20
30.7505
 11
34.1743
 21
30.5052
  0
LINE
  8
0
 10
34.1743
 20
30.5052
 11
34.1042
 21
30.2639
  0
LINE
  8
0
 10
34.1042
 20
30.2639
 11
34.0191
 21
30.0275
  0
LINE
  8
0
 10
34.0191
 20
30.0275
 11
33.9193
 21
29.7969
  0
LINE
  8
0
 10
33.9193
 20
29.7969
 11
33.8052
 21
29.573
  0
LINE
  8
0
 10
33.8052
 20
29.573
 11
33.6773
 21
29.3567
  0
LINE
  8
0
 10
33.6773
 20
29.3567
 11
33.5361
 21
29.1488
  0
LINE
  8
0
 10
33.5361
 20
29.1488
 11
33.382
 21
28.9503
  0
LINE
  8
0
 10
33.382
 20
28.9503
 11
33.2159
 21
28.7618
  0
LINE
  8
0
 10
33.2159
 20
28.7618
 11
33.0382
 21
28.5841
  0
LINE
  8
0
 10
33.0382
 20
28.5841
 11
32.8497
 21
28.4179
  0
LINE
  8
0
 10
32.8497
 20
28.4179
 11
32.6511
 21
28.2639
  0
LINE
  8
0
 10
32.6511
 20
28.2639
 11
32.4433
 21
28.1227
  0
LINE
  8
0
 10
32.4433
 20
28.1227
 11
32.227
 21
27.9948
  0
LINE
  8
0
 10
32.227
 20
27.9948
 11
32.0031
 21
27.8807
  0
LINE
  8
0
 10
32.0031
 20
27.8807
 11
31.7725
 21
27.7809
  0
LINE
  8
0
 10
31.7725
 20
27.7809
 11
31.5361
 21
27.6958
  0
LINE
  8
0
 10
31.5361
 20
27.6958
 11
31.2948
 21
27.6257
  0
LINE
  8
0
 10
31.2948
 20
27.6257
 11
31.0495
 21
27.5708
  0
LINE
  8
0
 10
31.0495
 20
27.5708
 11
30.8013
 21
27.5315
  0
LINE
  8
0
 10
30.8013
 20
27.5315
 11
30.5511
 21
27.5079
  0
LINE
  8
0
 10
30.5511
 20
27.5079
 11
30.3
 21
27.5
  0
LINE
  8
0
 10
30.3
 20
27.5
 11
30.0488
 21
27.5079
  0
LINE
  8
0
 10
-30.5511
 20
27.5079
 11
-30.8013
 21
27.5315
  0
LINE
  8
0
 10
-30.8013
 20
27.5315
 11
-31.0495
 21
27.5708
  0
LINE
  8
0
 10
-31.0495
 20
27.5708
 11
-31.2948
 21
27.6257
  0
LINE
  8
0
 10
-31.2948
 20
27.6257
 11
-31.5361
 21
27.6958
  0
LINE
  8
0
 10
-31.5361
 20
27.6958
 11
-31.7725
 21
27.7809
  0
LINE
  8
0
 10
-31.7725
 20
27.7809
 11
-32.0031
 21
27.8807
  0
LINE
  8
0
 10
-32.0031
 20
27.8807
 11
-32.227
 21
27.9948
  0
LINE
  8
0
 10
-32.227
 20
27.9948
 11
-32.4433
 21
28.1227
  0
LINE
  8
0
 10
-32.4433
 20
28.1227
 11
-32.6511
 21
28.2639
  0
LINE
  8
0
 10
-32.6511
 20
28.2639
 11
-32.8497
 21
28.4179
  0
LINE
  8
0
 10
-32.8497
 20
28.4179
 11
-33.0382
 21
28.5841
  0
LINE
  8
0
 10
-33.0382
 20
28.5841
 11
-33.2159
 21
28.7618
  0
LINE
  8
0
 10
-33.2159
 20
28.7618
 11
-33.382
 21
28.9503
  0
LINE
  8
0
 10
-33.382
 20
28.9503
 11
-33.5361
 21
29.1488
  0
LINE
  8
0
 10
-33.5361
 20
29.1488
 11
-33.6773
 21
29.3567
  0
LINE
  8
0
 10
-33.6773
 20
29.3567
 11
-33.8052
 21
29.573
  0
LINE
  8
0
 10
-33.8052
 20
29.573
 11
-33.9193
 21
29.7969
  0
LINE
  8
0
 10
-33.9193
 20
29.7969
 11
-34.0191
 21
30.0275
  0
LINE
  8
0
 10
-34.0191
 20
30.0275
 11
-34.1042
 21
30.2639
  0
LINE
  8
0
 10
-34.1042
 20
30.2639
 11
-34.1743
 21
30.5052
  0
LINE
  8
0
 10
-34.1743
 20
30.5052
 11
-34.2291
 21
30.7505
  0
LINE
  8
0
 10
-34.2291
 20
30.7505
 11
-34.2684
 21
30.9987
  0
LINE
  8
0
 10
-34.2684
 20
30.9987
 11
-34.2921
 21
31.2488
  0
LINE
  8
0
 10
-34.2921
 20
31.2488
 11
-34.3
 21
31.5
  0
LINE
  8
0
 10
-34.3
 20
31.5
 11
-34.2921
 21
31.7512
  0
LINE
  8
0
 10
-34.2921
 20
31.7512
 11
-34.2684
 21
32.0013
  0
LINE
  8
0
 10
-34.2684
 20
32.0013
 11
-34.2291
 21
32.2495
  0
LINE
  8
0
 10
-34.2291
 20
32.2495
 11
-34.1743
 21
32.4948
  0
LINE
  8
0
 10
-34.1743
 20
32.4948
 11
-34.1042
 21
32.7361
  0
LINE
  8
0
 10
-34.1042
 20
32.7361
 11
-34.0191
 21
32.9725
  0
LINE
  8
0
 10
-34.0191
 20
32.9725
 11
-33.9193
 21
33.2031
  0
LINE
  8
0
 10
-33.9193
 20
33.2031
 11
-33.8052
 21
33.427
  0
LINE
  8
0
 10
-33.8052
 20
33.427
 11
-33.6773
 21
33.6433
  0
LINE
  8
0
 10
-33.6773
 20
33.6433
 11
-33.5361
 21
33.8511
  0
LINE
  8
0
 10
-33.5361
 20
33.8511
 11
-33.382
 21
34.0497
  0
LINE
  8
0
 10
-33.382
 20
34.0497
 11
-33.2159
 21
34.2382
  0
LINE
  8
0
 10
-33.2159
 20
34.2382
 11
-33.0382
 21
34.4159
  0
LINE
  8
0
 10
-33.0382
 20
34.4159
 11
-32.8497
 21
34.582
  0
LINE
  8
0
 10
-32.8497
 20
34.582
 11
-32.6511
 21
34.7361
  0
LINE
  8
0
 10
-32.6511
 20
34.7361
 11
-32.4433
 21
34.8773
  0
LINE
  8
0
 10
-32.4433
 20
34.8773
 11
-32.227
 21
35.0052
  0
LINE
  8
0
 10
-32.227
 20
35.0052
 11
-32.0031
 21
35.1193
  0
LINE
  8
0
 10
-32.0031
 20
35.1193
 11
-31.7725
 21
35.2191
  0
LINE
  8
0
 10
-31.7725
 20
35.2191
 11
-31.5361
 21
35.3042
  0
LINE
  8
0
 10
-31.5361
 20
35.3042
 11
-31.2948
 21
35.3743
  0
LINE
  8
0
 10
-31.2948
 20
35.3743
 11
-31.0495
 21
35.4291
  0
LINE
  8
0
 10
-31.0495
 20
35.4291
 11
-30.8013
 21
35.4684
  0
LINE
  8
0
 10
-30.8013
 20
35.4684
 11
-30.5511
 21
35.4921
  0
LINE
  8
0
 10
-30.5511
 20
35.4921
 11
-30.3
 21
35.5
  0
LINE
  8
0
 10
-30.3
 20
35.5
 11
-30.0488
 21
35.4921
  0
LINE
  8
0
 10
-30.0488
 20
35.4921
 11
-29.7987
 21
35.4684
  0
LINE
  8
0
 10
-29.7987
 20
35.4684
 11
-29.5505
 21
35.4291
  0
LINE
  8
0
 10
-29.5505
 20
35.4291
 11
-29.3052
 21
35.3743
  0
LINE
  8
0
 10
-29.3052
 20
35.3743
 11
-29.0639
 21
35.3042
  0
LINE
  8
0
 10
-29.0639
 20
35.3042
 11
-28.8275
 21
35.2191
  0
LINE
  8
0
 10
-28.8275
 20
35.2191
 11
-28.5969
 21
35.1193
  0
LINE
  8
0
 10
-28.5969
 20
35.1193
 11
-28.373
 21
35.0052
  0
LINE
  8
0
 10
-28.373
 20
35.0052
 11
-28.1567
 21
34.8773
  0
LINE
  8
0
 10
-28.1567
 20
34.8773
 11
-27.9489
 21
34.7361
  0
LINE
  8
0
 10
-27.9489
 20
34.7361
 11
-27.7503
 21
34.582
  0
LINE
  8
0
 10
-27.7503
 20
34.582
 11
-27.5618
 21
34.4159
  0
LINE
  8
0
 10
-27.5618
 20
34.4159
 11
-27.3841
 21
34.2382
  0
LINE
  8
0
 10
-27.3841
 20
34.2382
 11
-27.2179
 21
34.0497
  0
LINE
  8
0
 10
-27.2179
 20
34.0497
 11
-27.0639
 21
33.8511
  0
LINE
  8
0
 10
-27.0639
 20
33.8511
 11
-26.9227
 21
33.6433
  0
LINE
  8
0
 10
-26.9227
 20
33.6433
 11
-26.7948
 21
33.427
  0
LINE
  8
0
 10
-26.7948
 20
33.427
 11
-26.6807
 21
33.2031
  0
LINE
  8
0
 10
-26.6807
 20
33.2031
 11
-26.5809
 21
32.9725
  0
LINE
  8
0
 10
-26.5809
 20
32.9725
 11
-26.4958
 21
32.7361
  0
LINE
  8
0
 10
-26.4958
 20
32.7361
 11
-26.4257
 21
32.4948
  0
LINE
  8
0
 10
-26.4257
 20
32.4948
 11
-26.3708
 21
32.2495
  0
LINE
  8
0
 10
-26.3708
 20
32.2495
 11
-26.3315
 21
32.0013
  0
LINE
  8
0
 10
-26.3315
 20
32.0013
 11
-26.3079
 21
31.7512
  0
LINE
  8
0
 10
-26.3079
 20
31.7512
 11
-26.3
 21
31.5
  0
LINE
  8
0
 10
-26.3
 20
31.5
 11
-26.3079
 21
31.2488
  0
LINE
  8
0
 10
-26.3079
 20
31.2488
 11
-26.3315
 21
30.9987
  0
LINE
  8
0
 10
-26.3315
 20
30.9987
 11
-26.3708
 21
30.7505
  0
LINE
  8
0
 10
-26.3708
 20
30.7505
 11
-26.4257
 21
30.5052
  0
LINE
  8
0
 10
-26.4257
 20
30.5052
 11
-26.4958
 21
30.2639
  0
LINE
  8
0
 10
-26.4958
 20
30.2639
 11
-26.5809
 21
30.0275
  0
LINE
  8
0
 10
-26.5809
 20
30.0275
 11
-26.6807
 21
29.7969
  0
LINE
  8
0
 10
-26.6807
 20
29.7969
 11
-26.7948
 21
29.573
  0
LINE
  8
0
 10
-26.7948
 20
29.573
 11
-26.9227
 21
29.3567
  0
LINE
  8
0
 10
-26.9227
 20
29.3567
 11
-27.0639
 21
29.1488
  0
LINE
  8
0
 10
-27.0639
 20
29.1488
 11
-27.2179
 21
28.9503
  0
LINE
  8
0
 10
-27.2179
 20
28.9503
 11
-27.3841
 21
28.7618
  0
LINE
  8
0
 10
-27.3841
 20
28.7618
 11
-27.5618
 21
28.5841
  0
LINE
  8
0
 10
-27.5618
 20
28.5841
 11
-27.7503
 21
28.4179
  0
LINE
  8
0
 10
-27.7503
 20
28.4179
 11
-27.9489
 21
28.2639
  0
LINE
  8
0
 10
-27.9489
 20
28.2639
 11
-28.1567
 21
28.1227
  0
LINE
  8
0
 10
-28.1567
 20
28.1227
 11
-28.373
 21
27.9948
  0
LINE
  8
0
 10
-28.373
 20
27.9948
 11
-28.5969
 21
27.8807
  0
LINE
  8
0
 10
-28.5969
 20
27.8807
 11
-28.8275
 21
27.7809
  0
LINE
  8
0
 10
-28.8275
 20
27.7809
 11
-29.0639
 21
27.6958
  0
LINE
  8
0
 10
-29.0639
 20
27.6958
 11
-29.3052
 21
27.6257
  0
LINE
  8
0
 10
-29.3052
 20
27.6257
 11
-29.5505
 21
27.5708
  0
LINE
  8
0
 10
-29.5505
 20
27.5708
 11
-29.7987
 21
27.5315
  0
LINE
  8
0
 10
-29.7987
 20
27.5315
 11
-30.0488
 21
27.5079
  0
LINE
  8
0
 10
-30.0488
 20
27.5079
 11
-30.3
 21
27.5
  0
LINE
  8
0
 10
-30.3
 20
27.5
 11
-30.5511
 21
27.5079
  0
LINE
  8
0
 10
75.9058
 20
14.5029
 11
75.812
 21
14.5118
  0
LINE
  8
0
 10
75.812
 20
14.5118
 11
75.7189
 21
14.5266
  0
LINE
  8
0
 10
75.7189
 20
14.5266
 11
75.627
 21
14.5471
  0
LINE
  8
0
 10
75.627
 20
14.5471
 11
75.5365
 21
14.5734
  0
LINE
  8
0
 10
75.5365
 20
14.5734
 11
75.4478
 21
14.6053
  0
LINE
  8
0
 10
75.4478
 20
14.6053
 11
75.3613
 21
14.6427
  0
LINE
  8
0
 10
75.3613
 20
14.6427
 11
75.2774
 21
14.6855
  0
LINE
  8
0
 10
75.2774
 20
14.6855
 11
75.1963
 21
14.7335
  0
LINE
  8
0
 10
75.1963
 20
14.7335
 11
75.1183
 21
14.7865
  0
LINE
  8
0
 10
75.1183
 20
14.7865
 11
75.0439
 21
14.8442
  0
LINE
  8
0
 10
75.0439
 20
14.8442
 11
74.9732
 21
14.9065
  0
LINE
  8
0
 10
74.9732
 20
14.9065
 11
74.9065
 21
14.9732
  0
LINE
  8
0
 10
74.9065
 20
14.9732
 11
74.8442
 21
15.0439
  0
LINE
  8
0
 10
74.8442
 20
15.0439
 11
74.7865
 21
15.1183
  0
LINE
  8
0
 10
74.7865
 20
15.1183
 11
74.7335
 21
15.1963
  0
LINE
  8
0
 10
74.7335
 20
15.1963
 11
74.6855
 21
15.2774
  0
LINE
  8
0
 10
74.6855
 20
15.2774
 11
74.6427
 21
15.3613
  0
LINE
  8
0
 10
74.6427
 20
15.3613
 11
74.6053
 21
15.4478
  0
LINE
  8
0
 10
74.6053
 20
15.4478
 11
74.5734
 21
15.5365
  0
LINE
  8
0
 10
74.5734
 20
15.5365
 11
74.5471
 21
15.627
  0
LINE
  8
0
 10
74.5471
 20
15.627
 11
74.5266
 21
15.7189
  0
LINE
  8
0
 10
74.5266
 20
15.7189
 11
74.5118
 21
15.812
  0
LINE
  8
0
 10
74.5118
 20
15.812
 11
74.5029
 21
15.9058
  0
LINE
  8
0
 10
74.5029
 20
15.9058
 11
74.5
 21
16
  0
LINE
  8
0
 10
74.5
 20
16
 11
74.5029
 21
16.0942
  0
LINE
  8
0
 10
74.5029
 20
16.0942
 11
74.5118
 21
16.188
  0
LINE
  8
0
 10
74.5118
 20
16.188
 11
74.5266
 21
16.2811
  0
LINE
  8
0
 10
74.5266
 20
16.2811
 11
74.5471
 21
16.373
  0
LINE
  8
0
 10
74.5471
 20
16.373
 11
74.5734
 21
16.4635
  0
LINE
  8
0
 10
74.5734
 20
16.4635
 11
74.6053
 21
16.5522
  0
LINE
  8
0
 10
74.6053
 20
16.5522
 11
74.6427
 21
16.6387
  0
LINE
  8
0
 10
74.6427
 20
16.6387
 11
74.6855
 21
16.7226
  0
LINE
  8
0
 10
74.6855
 20
16.7226
 11
74.7335
 21
16.8037
  0
LINE
  8
0
 10
74.7335
 20
16.8037
 11
74.7865
 21
16.8817
  0
LINE
  8
0
 10
74.7865
 20
16.8817
 11
74.8442
 21
16.9561
  0
LINE
  8
0
 10
74.8442
 20
16.9561
 11
74.9065
 21
17.0268
  0
LINE
  8
0
 10
74.9065
 20
17.0268
 11
74.9732
 21
17.0934
  0
LINE
  8
0
 10
74.9732
 20
17.0934
 11
75.0439
 21
17.1558
  0
LINE
  8
0
 10
75.0439
 20
17.1558
 11
75.1183
 21
17.2135
  0
LINE
  8
0
 10
75.1183
 20
17.2135
 11
75.1963
 21
17.2665
  0
LINE
  8
0
 10
75.1963
 20
17.2665
 11
75.2774
 21
17.3145
  0
LINE
  8
0
 10
75.2774
 20
17.3145
 11
75.3613
 21
17.3572
  0
LINE
  8
0
 10
75.3613
 20
17.3572
 11
75.4478
 21
17.3947
  0
LINE
  8
0
 10
75.4478
 20
17.3947
 11
75.5365
 21
17.4266
  0
LINE
  8
0
 10
75.5365
 20
17.4266
 11
75.627
 21
17.4529
  0
LINE
  8
0
 10
75.627
 20
17.4529
 11
75.7189
 21
17.4734
  0
LINE
  8
0
 10
75.7189
 20
17.4734
 11
75.812
 21
17.4882
  0
LINE
  8
0
 10
75.812
 20
17.4882
 11
75.9058
 21
17.497
  0
LINE
  8
0
 10
75.9058
 20
17.497
 11
76
 21
17.5
  0
LINE
  8
0
 10
76
 20
17.5
 11
76.0942
 21
17.497
  0
LINE
  8
0
 10
76.0942
 20
17.497
 11
76.188
 21
17.4882
  0
LINE
  8
0
 10
76.188
 20
17.4882
 11
76.2811
 21
17.4734
  0
LINE
  8
0
 10
76.2811
 20
17.4734
 11
76.373
 21
17.4529
  0
LINE
  8
0
 10
76.373
 20
17.4529
 11
76.4635
 21
17.4266
  0
LINE
  8
0
 10
76.4635
 20
17.4266
 11
76.5522
 21
17.3947
  0
LINE
  8
0
 10
76.5522
 20
17.3947
 11
76.6387
 21
17.3572
  0
LINE
  8
0
 10
76.6387
 20
17.3572
 11
76.7226
 21
17.3145
  0
LINE
  8
0
 10
76.7226
 20
17.3145
 11
76.8037
 21
17.2665
  0
LINE
  8
0
 10
76.8037
 20
17.2665
 11
76.8817
 21
17.2135
  0
LINE
  8
0
 10
76.8817
 20
17.2135
 11
76.9561
 21
17.1558
  0
LINE
  8
0
 10
76.9561
 20
17.1558
 11
77.0268
 21
17.0934
  0
LINE
  8
0
 10
77.0268
 20
17.0934
 11
77.0934
 21
17.0268
  0
LINE
  8
0
 10
77.0934
 20
17.0268
 11
77.1558
 21
16.9561
  0
LINE
  8
0
 10
77.1558
 20
16.9561
 11
77.2135
 21
16.8817
  0
LINE
  8
0
 10
77.2135
 20
16.8817
 11
77.2665
 21
16.8037
  0
LINE
  8
0
 10
77.2665
 20
16.8037
 11
77.3145
 21
16.7226
  0
LINE
  8
0
 10
77.3145
 20
16.7226
 11
77.3572
 21
16.6387
  0
LINE
  8
0
 10
77.3572
 20
16.6387
 11
77.3947
 21
16.5522
  0
LINE
  8
0
 10
77.3947
 20
16.5522
 11
77.4266
 21
16.4635
  0
LINE
  8
0
 10
77.4266
 20
16.4635
 11
77.4529
 21
16.373
  0
LINE
  8
0
 10
77.4529
 20
16.373
 11
77.4734
 21
16.2811
  0
LINE
  8
0
 10
77.4734
 20
16.2811
 11
77.4882
 21
16.188
  0
LINE
  8
0
 10
77.4882
 20
16.188
 11
77.497
 21
16.0942
  0
LINE
  8
0
 10
77.497
 20
16.0942
 11
77.5
 21
16
  0
LINE
  8
0
 10
77.5
 20
16
 11
77.497
 21
15.9058
  0
LINE
  8
0
 10
77.497
 20
15.9058
 11
77.4882
 21
15.812
  0
LINE
  8
0
 10
77.4882
 20
15.812
 11
77.4734
 21
15.7189
  0
LINE
  8
0
 10
77.4734
 20
15.7189
 11
77.4529
 21
15.627
  0
LINE
  8
0
 10
77.4529
 20
15.627
 11
77.4266
 21
15.5365
  0
LINE
  8
0
 10
77.4266
 20
15.5365
 11
77.3947
 21
15.4478
  0
LINE
  8
0
 10
77.3947
 20
15.4478
 11
77.3572
 21
15.3613
  0
LINE
  8
0
 10
77.3572
 20
15.3613
 11
77.3145
 21
15.2774
  0
LINE
  8
0
 10
77.3145
 20
15.2774
 11
77.2665
 21
15.1963
  0
LINE
  8
0
 10
77.2665
 20
15.1963
 11
77.2135
 21
15.1183
  0
LINE
  8
0
 10
77.2135
 20
15.1183
 11
77.1558
 21
15.0439
  0
LINE
  8
0
 10
77.1558
 20
15.0439
 11
77.0934
 21
14.9732
  0
LINE
  8
0
 10
77.0934
 20
14.9732
 11
77.0268
 21
14.9065
  0
LINE
  8
0
 10
77.0268
 20
14.9065
 11
76.9561
 21
14.8442
  0
LINE
  8
0
 10
76.9561
 20
14.8442
 11
76.8817
 21
14.7865
  0
LINE
  8
0
 10
76.8817
 20
14.7865
 11
76.8037
 21
14.7335
  0
LINE
  8
0
 10
76.8037
 20
14.7335
 11
76.7226
 21
14.6855
  0
LINE
  8
0
 10
76.7226
 20
14.6855
 11
76.6387
 21
14.6427
  0
LINE
  8
0
 10
76.6387
 20
14.6427
 11
76.5522
 21
14.6053
  0
LINE
  8
0
 10
76.5522
 20
14.6053
 11
76.4635
 21
14.5734
  0
LINE
  8
0
 10
76.4635
 20
14.5734
 11
76.373
 21
14.5471
  0
LINE
  8
0
 10
76.373
 20
14.5471
 11
76.2811
 21
14.5266
  0
LINE
  8
0
 10
76.2811
 20
14.5266
 11
76.188
 21
14.5118
  0
LINE
  8
0
 10
76.188
 20
14.5118
 11
76.0942
 21
14.5029
  0
LINE
  8
0
 10
76.0942
 20
14.5029
 11
76
 21
14.5
  0
LINE
  8
0
 10
76
 20
14.5
 11
75.9058
 21
14.5029
  0
LINE
  8
0
 10
43.9058
 20
14.5029
 11
43.812
 21
14.5118
  0
LINE
  8
0
 10
43.812
 20
14.5118
 11
43.7189
 21
14.5266
  0
LINE
  8
0
 10
43.7189
 20
14.5266
 11
43.627
 21
14.5471
  0
LINE
  8
0
 10
43.627
 20
14.5471
 11
43.5365
 21
14.5734
  0
LINE
  8
0
 10
43.5365
 20
14.5734
 11
43.4478
 21
14.6053
  0
LINE
  8
0
 10
43.4478
 20
14.6053
 11
43.3613
 21
14.6427
  0
LINE
  8
0
 10
43.3613
 20
14.6427
 11
43.2774
 21
14.6855
  0
LINE
  8
0
 10
43.2774
 20
14.6855
 11
43.1963
 21
14.7335
  0
LINE
  8
0
 10
43.1963
 20
14.7335
 11
43.1183
 21
14.7865
  0
LINE
  8
0
 10
43.1183
 20
14.7865
 11
43.0439
 21
14.8442
  0
LINE
  8
0
 10
43.0439
 20
14.8442
 11
42.9732
 21
14.9065
  0
LINE
  8
0
 10
42.9732
 20
14.9065
 11
42.9066
 21
14.9732
  0
LINE
  8
0
 10
42.9066
 20
14.9732
 11
42.8442
 21
15.0439
  0
LINE
  8
0
 10
42.8442
 20
15.0439
 11
42.7865
 21
15.1183
  0
LINE
  8
0
 10
42.7865
 20
15.1183
 11
42.7335
 21
15.1963
  0
LINE
  8
0
 10
42.7335
 20
15.1963
 11
42.6855
 21
15.2774
  0
LINE
  8
0
 10
42.6855
 20
15.2774
 11
42.6428
 21
15.3613
  0
LINE
  8
0
 10
42.6428
 20
15.3613
 11
42.6053
 21
15.4478
  0
LINE
  8
0
 10
42.6053
 20
15.4478
 11
42.5734
 21
15.5365
  0
LINE
  8
0
 10
42.5734
 20
15.5365
 11
42.5471
 21
15.627
  0
LINE
  8
0
 10
42.5471
 20
15.627
 11
42.5266
 21
15.7189
  0
LINE
  8
0
 10
42.5266
 20
15.7189
 11
42.5118
 21
15.812
  0
LINE
  8
0
 10
42.5118
 20
15.812
 11
42.503
 21
15.9058
  0
LINE
  8
0
 10
42.503
 20
15.9058
 11
42.5
 21
16
  0
LINE
  8
0
 10
42.5
 20
16
 11
42.503
 21
16.0942
  0
LINE
  8
0
 10
42.503
 20
16.0942
 11
42.5118
 21
16.188
  0
LINE
  8
0
 10
42.5118
 20
16.188
 11
42.5266
 21
16.2811
  0
LINE
  8
0
 10
42.5266
 20
16.2811
 11
42.5471
 21
16.373
  0
LINE
  8
0
 10
42.5471
 20
16.373
 11
42.5734
 21
16.4635
  0
LINE
  8
0
 10
42.5734
 20
16.4635
 11
42.6053
 21
16.5522
  0
LINE
  8
0
 10
42.6053
 20
16.5522
 11
42.6428
 21
16.6387
  0
LINE
  8
0
 10
42.6428
 20
16.6387
 11
42.6855
 21
16.7226
  0
LINE
  8
0
 10
42.6855
 20
16.7226
 11
42.7335
 21
16.8037
  0
LINE
  8
0
 10
42.7335
 20
16.8037
 11
42.7865
 21
16.8817
  0
LINE
  8
0
 10
42.7865
 20
16.8817
 11
42.8442
 21
16.9561
  0
LINE
  8
0
 10
42.8442
 20
16.9561
 11
42.9066
 21
17.0268
  0
LINE
  8
0
 10
42.9066
 20
17.0268
 11
42.9732
 21
17.0934
  0
LINE
  8
0
 10
42.9732
 20
17.0934
 11
43.0439
 21
17.1558
  0
LINE
  8
0
 10
43.0439
 20
17.1558
 11
43.1183
 21
17.2135
  0
LINE
  8
0
 10
43.1183
 20
17.2135
 11
43.1963
 21
17.2665
  0
LINE
  8
0
 10
43.1963
 20
17.2665
 11
43.2774
 21
17.3145
  0
LINE
  8
0
 10
43.2774
 20
17.3145
 11
43.3613
 21
17.3572
  0
LINE
  8
0
 10
43.3613
 20
17.3572
 11
43.4478
 21
17.3947
  0
LINE
  8
0
 10
43.4478
 20
17.3947
 11
43.5365
 21
17.4266
  0
LINE
  8
0
 10
43.5365
 20
17.4266
 11
43.627
 21
17.4529
  0
LINE
  8
0
 10
43.627
 20
17.4529
 11
43.7189
 21
17.4734
  0
LINE
  8
0
 10
43.7189
 20
17.4734
 11
43.812
 21
17.4882
  0
LINE
  8
0
 10
43.812
 20
17.4882
 11
43.9058
 21
17.497
  0
LINE
  8
0
 10
43.9058
 20
17.497
 11
44
 21
17.5
  0
LINE
  8
0
 10
44
 20
17.5
 11
44.0942
 21
17.497
  0
LINE
  8
0
 10
44.0942
 20
17.497
 11
44.188
 21
17.4882
  0
LINE
  8
0
 10
44.188
 20
17.4882
 11
44.2811
 21
17.4734
  0
LINE
  8
0
 10
44.2811
 20
17.4734
 11
44.373
 21
17.4529
  0
LINE
  8
0
 10
44.373
 20
17.4529
 11
44.4635
 21
17.4266
  0
LINE
  8
0
 10
44.4635
 20
17.4266
 11
44.5522
 21
17.3947
  0
LINE
  8
0
 10
44.5522
 20
17.3947
 11
44.6387
 21
17.3572
  0
LINE
  8
0
 10
44.6387
 20
17.3572
 11
44.7226
 21
17.3145
  0
LINE
  8
0
 10
44.7226
 20
17.3145
 11
44.8037
 21
17.2665
  0
LINE
  8
0
 10
44.8037
 20
17.2665
 11
44.8817
 21
17.2135
  0
LINE
  8
0
 10
44.8817
 20
17.2135
 11
44.9561
 21
17.1558
  0
LINE
  8
0
 10
44.9561
 20
17.1558
 11
45.0268
 21
17.0934
  0
LINE
  8
0
 10
45.0268
 20
17.0934
 11
45.0935
 21
17.0268
  0
LINE
  8
0
 10
45.0935
 20
17.0268
 11
45.1558
 21
16.9561
  0
LINE
  8
0
 10
45.1558
 20
16.9561
 11
45.2135
 21
16.8817
  0
LINE
  8
0
 10
45.2135
 20
16.8817
 11
45.2665
 21
16.8037
  0
LINE
  8
0
 10
45.2665
 20
16.8037
 11
45.3145
 21
16.7226
  0
LINE
  8
0
 10
45.3145
 20
16.7226
 11
45.3573
 21
16.6387
  0
LINE
  8
0
 10
45.3573
 20
16.6387
 11
45.3947
 21
16.5522
  0
LINE
  8
0
 10
45.3947
 20
16.5522
 11
45.4266
 21
16.4635
  0
LINE
  8
0
 10
45.4266
 20
16.4635
 11
45.4529
 21
16.373
  0
LINE
  8
0
 10
45.4529
 20
16.373
 11
45.4734
 21
16.2811
  0
LINE
  8
0
 10
45.4734
 20
16.2811
 11
45.4882
 21
16.188
  0
LINE
  8
0
 10
45.4882
 20
16.188
 11
45.4971
 21
16.0942
  0
LINE
  8
0
 10
45.4971
 20
16.0942
 11
45.5
 21
16
  0
LINE
  8
0
 10
45.5
 20
16
 11
45.4971
 21
15.9058
  0
LINE
  8
0
 10
45.4971
 20
15.9058
 11
45.4882
 21
15.812
  0
LINE
  8
0
 10
45.4882
 20
15.812
 11
45.4734
 21
15.7189
  0
LINE
  8
0
 10
45.4734
 20
15.7189
 11
45.4529
 21
15.627
  0
LINE
  8
0
 10
45.4529
 20
15.627
 11
45.4266
 21
15.5365
  0
LINE
  8
0
 10
45.4266
 20
15.5365
 11
45.3947
 21
15.4478
  0
LINE
  8
0
 10
45.3947
 20
15.4478
 11
45.3573
 21
15.3613
  0
LINE
  8
0
 10
45.3573
 20
15.3613
 11
45.3145
 21
15.2774
  0
LINE
  8
0
 10
45.3145
 20
15.2774
 11
45.2665
 21
15.1963
  0
LINE
  8
0
 10
45.2665
 20
15.1963
 11
45.2135
 21
15.1183
  0
LINE
  8
0
 10
45.2135
 20
15.1183
 11
45.1558
 21
15.0439
  0
LINE
  8
0
 10
45.1558
 20
15.0439
 11
45.0935
 21
14.9732
  0
LINE
  8
0
 10
45.0935
 20
14.9732
 11
45.0268
 21
14.9065
  0
LINE
  8
0
 10
45.0268
 20
14.9065
 11
44.9561
 21
14.8442
  0
LINE
  8
0
 10
44.9561
 20
14.8442
 11
44.8817
 21
14.7865
  0
LINE
  8
0
 10
44.8817
 20
14.7865
 11
44.8037
 21
14.7335
  0
LINE
  8
0
 10
44.8037
 20
14.7335
 11
44.7226
 21
14.6855
  0
LINE
  8
0
 10
44.7226
 20
14.6855
 11
44.6387
 21
14.6427
  0
LINE
  8
0
 10
44.6387
 20
14.6427
 11
44.5522
 21
14.6053
  0
LINE
  8
0
 10
44.5522
 20
14.6053
 11
44.4635
 21
14.5734
  0
LINE
  8
0
 10
44.4635
 20
14.5734
 11
44.373
 21
14.5471
  0
LINE
  8
0
 10
44.373
 20
14.5471
 11
44.2811
 21
14.5266
  0
LINE
  8
0
 10
44.2811
 20
14.5266
 11
44.188
 21
14.5118
  0
LINE
  8
0
 10
44.188
 20
14.5118
 11
44.0942
 21
14.5029
  0
LINE
  8
0
 10
44.0942
 20
14.5029
 11
44
 21
14.5
  0
LINE
  8
0
 10
44
 20
14.5
 11
43.9058
 21
14.5029
  0
LINE
  8
0
 10
59.3093
 20
-10.9783
 11
58.6213
 21
-10.9133
  0
LINE
  8
0
 10
58.6213
 20
-10.9133
 11
57.9388
 21
-10.8051
  0
LINE
  8
0
 10
57.9388
 20
-10.8051
 11
57.2644
 21
-10.6544
  0
LINE
  8
0
 10
57.2644
 20
-10.6544
 11
56.6008
 21
-10.4616
  0
LINE
  8
0
 10
56.6008
 20
-10.4616
 11
55.9506
 21
-10.2275
  0
LINE
  8
0
 10
55.9506
 20
-10.2275
 11
55.3164
 21
-9.95309
  0
LINE
  8
0
 10
55.3164
 20
-9.95309
 11
54.7007
 21
-9.63936
  0
LINE
  8
0
 10
54.7007
 20
-9.63936
 11
54.1059
 21
-9.2876
  0
LINE
  8
0
 10
54.1059
 20
-9.2876
 11
53.5344
 21
-8.89919
  0
LINE
  8
0
 10
53.5344
 20
-8.89919
 11
52.9883
 21
-8.47563
  0
LINE
  8
0
 10
52.9883
 20
-8.47563
 11
52.47
 21
-8.01865
  0
LINE
  8
0
 10
52.47
 20
-8.01865
 11
51.9814
 21
-7.53001
  0
LINE
  8
0
 10
51.9814
 20
-7.53001
 11
51.5244
 21
-7.01166
  0
LINE
  8
0
 10
51.5244
 20
-7.01166
 11
51.1008
 21
-6.46564
  0
LINE
  8
0
 10
51.1008
 20
-6.46564
 11
50.7124
 21
-5.89409
  0
LINE
  8
0
 10
50.7124
 20
-5.89409
 11
50.3606
 21
-5.29929
  0
LINE
  8
0
 10
50.3606
 20
-5.29929
 11
50.0469
 21
-4.68356
  0
LINE
  8
0
 10
50.0469
 20
-4.68356
 11
49.7725
 21
-4.04936
  0
LINE
  8
0
 10
49.7725
 20
-4.04936
 11
49.5384
 21
-3.39919
  0
LINE
  8
0
 10
49.5384
 20
-3.39919
 11
49.3456
 21
-2.73558
  0
LINE
  8
0
 10
49.3456
 20
-2.73558
 11
49.1949
 21
-2.06119
  0
LINE
  8
0
 10
49.1949
 20
-2.06119
 11
49.0867
 21
-1.37866
  0
LINE
  8
0
 10
49.0867
 20
-1.37866
 11
49.0217
 21
-0.690689
  0
LINE
  8
0
 10
49.0217
 20
-0.690689
 11
49
 21
0
  0
LINE
  8
0
 10
49
 20
0
 11
49.0217
 21
0.690689
  0
LINE
  8
0
 10
49.0217
 20
0.690689
 11
49.0867
 21
1.37866
  0
LINE
  8
0
 10
49.0867
 20
1.37866
 11
49.1949
 21
2.06119
  0
LINE
  8
0
 10
49.1949
 20
2.06119
 11
49.3456
 21
2.73558
  0
LINE
  8
0
 10
49.3456
 20
2.73558
 11
49.5384
 21
3.39919
  0
LINE
  8
0
 10
49.5384
 20
3.39919
 11
49.7725
 21
4.04936
  0
LINE
  8
0
 10
49.7725
 20
4.04936
 11
50.0469
 21
4.68356
  0
LINE
  8
0
 10
50.0469
 20
4.68356
 11
50.3606
 21
5.29929
  0
LINE
  8
0
 10
50.3606
 20
5.29929
 11
50.7124
 21
5.89409
  0
LINE
  8
0
 10
50.7124
 20
5.89409
 11
51.1008
 21
6.46564
  0
LINE
  8
0
 10
51.1008
 20
6.46564
 11
51.5244
 21
7.01166
  0
LINE
  8
0
 10
51.5244
 20
7.01166
 11
51.9814
 21
7.53001
  0
LINE
  8
0
 10
51.9814
 20
7.53001
 11
52.47
 21
8.01865
  0
LINE
  8
0
 10
52.47
 20
8.01865
 11
52.9883
 21
8.47563
  0
LINE
  8
0
 10
52.9883
 20
8.47563
 11
53.5344
 21
8.89919
  0
LINE
  8
0
 10
53.5344
 20
8.89919
 11
54.1059
 21
9.2876
  0
LINE
  8
0
 10
54.1059
 20
9.2876
 11
54.7007
 21
9.63936
  0
LINE
  8
0
 10
54.7007
 20
9.63936
 11
55.3164
 21
9.95309
  0
LINE
  8
0
 10
55.3164
 20
9.95309
 11
55.9506
 21
10.2275
  0
LINE
  8
0
 10
55.9506
 20
10.2275
 11
56.6008
 21
10.4616
  0
LINE
  8
0
 10
56.6008
 20
10.4616
 11
57.2644
 21
10.6544
  0
LINE
  8
0
 10
57.2644
 20
10.6544
 11
57.9388
 21
10.8051
  0
LINE
  8
0
 10
57.9388
 20
10.8051
 11
58.6213
 21
10.9133
  0
LINE
  8
0
 10
58.6213
 20
10.9133
 11
59.3093
 21
10.9783
  0
LINE
  8
0
 10
59.3093
 20
10.9783
 11
60
 21
11
  0
LINE
  8
0
 10
60
 20
11
 11
60.6907
 21
10.9783
  0
LINE
  8
0
 10
60.6907
 20
10.9783
 11
61.3787
 21
10.9133
  0
LINE
  8
0
 10
61.3787
 20
10.9133
 11
62.0612
 21
10.8051
  0
LINE
  8
0
 10
62.0612
 20
10.8051
 11
62.7356
 21
10.6544
  0
LINE
  8
0
 10
62.7356
 20
10.6544
 11
63.3992
 21
10.4616
  0
LINE
  8
0
 10
63.3992
 20
10.4616
 11
64.0494
 21
10.2275
  0
LINE
  8
0
 10
64.0494
 20
10.2275
 11
64.6836
 21
9.95309
  0
LINE
  8
0
 10
64.6836
 20
9.95309
 11
65.2993
 21
9.63936
  0
LINE
  8
0
 10
65.2993
 20
9.63936
 11
65.8941
 21
9.2876
  0
LINE
  8
0
 10
65.8941
 20
9.2876
 11
66.4656
 21
8.89919
  0
LINE
  8
0
 10
66.4656
 20
8.89919
 11
67.0117
 21
8.47563
  0
LINE
  8
0
 10
67.0117
 20
8.47563
 11
67.53
 21
8.01865
  0
LINE
  8
0
 10
67.53
 20
8.01865
 11
68.0186
 21
7.53001
  0
LINE
  8
0
 10
68.0186
 20
7.53001
 11
68.4756
 21
7.01166
  0
LINE
  8
0
 10
68.4756
 20
7.01166
 11
68.8992
 21
6.46564
  0
LINE
  8
0
 10
68.8992
 20
6.46564
 11
69.2876
 21
5.89409
  0
LINE
  8
0
 10
69.2876
 20
5.89409
 11
69.6394
 21
5.29929
  0
LINE
  8
0
 10
69.6394
 20
5.29929
 11
69.9531
 21
4.68356
  0
LINE
  8
0
 10
69.9531
 20
4.68356
 11
70.2275
 21
4.04936
  0
LINE
  8
0
 10
70.2275
 20
4.04936
 11
70.4616
 21
3.39919
  0
LINE
  8
0
 10
70.4616
 20
3.39919
 11
70.6544
 21
2.73558
  0
LINE
  8
0
 10
70.6544
 20
2.73558
 11
70.8051
 21
2.06119
  0
LINE
  8
0
 10
70.8051
 20
2.06119
 11
70.9133
 21
1.37866
  0
LINE
  8
0
 10
70.9133
 20
1.37866
 11
70.9783
 21
0.690689
  0
LINE
  8
0
 10
70.9783
 20
0.690689
 11
71
 21
0
  0
LINE
  8
0
 10
71
 20
0
 11
70.9783
 21
-0.690689
  0
LINE
  8
0
 10
70.9783
 20
-0.690689
 11
70.9133
 21
-1.37866
  0
LINE
  8
0
 10
70.9133
 20
-1.37866
 11
70.8051
 21
-2.06119
  0
LINE
  8
0
 10
70.8051
 20
-2.06119
 11
70.6544
 21
-2.73558
  0
LINE
  8
0
 10
70.6544
 20
-2.73558
 11
70.4616
 21
-3.39919
  0
LINE
  8
0
 10
70.4616
 20
-3.39919
 11
70.2275
 21
-4.04936
  0
LINE
  8
0
 10
70.2275
 20
-4.04936
 11
69.9531
 21
-4.68356
  0
LINE
  8
0
 10
69.9531
 20
-4.68356
 11
69.6394
 21
-5.29929
  0
LINE
  8
0
 10
69.6394
 20
-5.29929
 11
69.2876
 21
-5.89409
  0
LINE
  8
0
 10
69.2876
 20
-5.89409
 11
68.8992
 21
-6.46564
  0
LINE
  8
0
 10
68.8992
 20
-6.46564
 11
68.4756
 21
-7.01166
  0
LINE
  8
0
 10
68.4756
 20
-7.01166
 11
68.0186
 21
-7.53001
  0
LINE
  8
0
 10
68.0186
 20
-7.53001
 11
67.53
 21
-8.01865
  0
LINE
  8
0
 10
67.53
 20
-8.01865
 11
67.0117
 21
-8.47563
  0
LINE
  8
0
 10
67.0117
 20
-8.47563
 11
66.4656
 21
-8.89919
  0
LINE
  8
0
 10
66.4656
 20
-8.89919
 11
65.8941
 21
-9.2876
  0
LINE
  8
0
 10
65.8941
 20
-9.2876
 11
65.2993
 21
-9.63936
  0
LINE
  8
0
 10
65.2993
 20
-9.63936
 11
64.6836
 21
-9.95309
  0
LINE
  8
0
 10
64.6836
 20
-9.95309
 11
64.0494
 21
-10.2275
  0
LINE
  8
0
 10
64.0494
 20
-10.2275
 11
63.3992
 21
-10.4616
  0
LINE
  8
0
 10
63.3992
 20
-10.4616
 11
62.7356
 21
-10.6544
  0
LINE
  8
0
 10
62.7356
 20
-10.6544
 11
62.0612
 21
-10.8051
  0
LINE
  8
0
 10
62.0612
 20
-10.8051
 11
61.3787
 21
-10.9133
  0
LINE
  8
0
 10
61.3787
 20
-10.9133
 11
60.6907
 21
-10.9783
  0
LINE
  8
0
 10
60.6907
 20
-10.9783
 11
60
 21
-11
  0
LINE
  8
0
 10
60
 20
-11
 11
59.3093
 21
-10.9783
  0
LINE
  8
0
 10
-90.1884
 20
-2.99406
 11
-90.376
 21
-2.97632
  0
LINE
  8
0
 10
-90.376
 20
-2.97632
 11
-90.5621
 21
-2.94684
  0
LINE
  8
0
 10
-90.5621
 20
-2.94684
 11
-90.7461
 21
-2.90573
  0
LINE
  8
0
 10
-90.7461
 20
-2.90573
 11
-90.927
 21
-2.85315
  0
LINE
  8
0
 10
-90.927
 20
-2.85315
 11
-91.1044
 21
-2.78931
  0
LINE
  8
0
 10
-91.1044
 20
-2.78931
 11
-91.2773
 21
-2.71446
  0
LINE
  8
0
 10
-91.2773
 20
-2.71446
 11
-91.4453
 21
-2.62889
  0
LINE
  8
0
 10
-91.4453
 20
-2.62889
 11
-91.6075
 21
-2.53296
  0
LINE
  8
0
 10
-91.6075
 20
-2.53296
 11
-91.7634
 21
-2.42703
  0
LINE
  8
0
 10
-91.7634
 20
-2.42703
 11
-91.9123
 21
-2.31152
  0
LINE
  8
0
 10
-91.9123
 20
-2.31152
 11
-92.0536
 21
-2.18689
  0
LINE
  8
0
 10
-92.0536
 20
-2.18689
 11
-92.1869
 21
-2.05362
  0
LINE
  8
0
 10
-92.1869
 20
-2.05362
 11
-92.3115
 21
-1.91225
  0
LINE
  8
0
 10
-92.3115
 20
-1.91225
 11
-92.427
 21
-1.76334
  0
LINE
  8
0
 10
-92.427
 20
-1.76334
 11
-92.533
 21
-1.60745
  0
LINE
  8
0
 10
-92.533
 20
-1.60745
 11
-92.6289
 21
-1.44524
  0
LINE
  8
0
 10
-92.6289
 20
-1.44524
 11
-92.7145
 21
-1.27731
  0
LINE
  8
0
 10
-92.7145
 20
-1.27731
 11
-92.7893
 21
-1.10435
  0
LINE
  8
0
 10
-92.7893
 20
-1.10435
 11
-92.8532
 21
-0.927032
  0
LINE
  8
0
 10
-92.8532
 20
-0.927032
 11
-92.9057
 21
-0.746048
  0
LINE
  8
0
 10
-92.9057
 20
-0.746048
 11
-92.9469
 21
-0.562119
  0
LINE
  8
0
 10
-92.9469
 20
-0.562119
 11
-92.9763
 21
-0.375977
  0
LINE
  8
0
 10
-92.9763
 20
-0.375977
 11
-92.9941
 21
-0.188354
  0
LINE
  8
0
 10
-92.9941
 20
-0.188354
 11
-93
 21
0
  0
LINE
  8
0
 10
-93
 20
0
 11
-92.9941
 21
0.18837
  0
LINE
  8
0
 10
-92.9941
 20
0.18837
 11
-92.9763
 21
0.375992
  0
LINE
  8
0
 10
-92.9763
 20
0.375992
 11
-92.9469
 21
0.562134
  0
LINE
  8
0
 10
-92.9469
 20
0.562134
 11
-92.9057
 21
0.746063
  0
LINE
  8
0
 10
-92.9057
 20
0.746063
 11
-92.8532
 21
0.927048
  0
LINE
  8
0
 10
-92.8532
 20
0.927048
 11
-92.7893
 21
1.10437
  0
LINE
  8
0
 10
-92.7893
 20
1.10437
 11
-92.7145
 21
1.27733
  0
LINE
  8
0
 10
-92.7145
 20
1.27733
 11
-92.6289
 21
1.44525
  0
LINE
  8
0
 10
-92.6289
 20
1.44525
 11
-92.533
 21
1.60747
  0
LINE
  8
0
 10
-92.533
 20
1.60747
 11
-92.427
 21
1.76335
  0
LINE
  8
0
 10
-92.427
 20
1.76335
 11
-92.3115
 21
1.91226
  0
LINE
  8
0
 10
-92.3115
 20
1.91226
 11
-92.1869
 21
2.05363
  0
LINE
  8
0
 10
-92.1869
 20
2.05363
 11
-92.0536
 21
2.1869
  0
LINE
  8
0
 10
-92.0536
 20
2.1869
 11
-91.9123
 21
2.31154
  0
LINE
  8
0
 10
-91.9123
 20
2.31154
 11
-91.7634
 21
2.42705
  0
LINE
  8
0
 10
-91.7634
 20
2.42705
 11
-91.6075
 21
2.53297
  0
LINE
  8
0
 10
-91.6075
 20
2.53297
 11
-91.4453
 21
2.62891
  0
LINE
  8
0
 10
-91.4453
 20
2.62891
 11
-91.2773
 21
2.71448
  0
LINE
  8
0
 10
-91.2773
 20
2.71448
 11
-91.1044
 21
2.78932
  0
LINE
  8
0
 10
-91.1044
 20
2.78932
 11
-90.927
 21
2.85316
  0
LINE
  8
0
 10
-90.927
 20
2.85316
 11
-90.7461
 21
2.90575
  0
LINE
  8
0
 10
-90.7461
 20
2.90575
 11
-90.5621
 21
2.94685
  0
LINE
  8
0
 10
-90.5621
 20
2.94685
 11
-90.376
 21
2.97633
  0
LINE
  8
0
 10
-90.376
 20
2.97633
 11
-90.1884
 21
2.99408
  0
LINE
  8
0
 10
-90.1884
 20
2.99408
 11
-90
 21
3
  0
LINE
  8
0
 10
-90
 20
3
 11
-89.8116
 21
2.99408
  0
LINE
  8
0
 10
-89.8116
 20
2.99408
 11
-89.624
 21
2.97633
  0
LINE
  8
0
 10
-89.624
 20
2.97633
 11
-89.4379
 21
2.94685
  0
LINE
  8
0
 10
-89.4379
 20
2.94685
 11
-89.2539
 21
2.90575
  0
LINE
  8
0
 10
-89.2539
 20
2.90575
 11
-89.0729
 21
2.85316
  0
LINE
  8
0
 10
-89.0729
 20
2.85316
 11
-88.8956
 21
2.78932
  0
LINE
  8
0
 10
-88.8956
 20
2.78932
 11
-88.7227
 21
2.71448
  0
LINE
  8
0
 10
-88.7227
 20
2.71448
 11
-88.5547
 21
2.62891
  0
LINE
  8
0
 10
-88.5547
 20
2.62891
 11
-88.3925
 21
2.53297
  0
LINE
  8
0
 10
-88.3925
 20
2.53297
 11
-88.2366
 21
2.42705
  0
LINE
  8
0
 10
-88.2366
 20
2.42705
 11
-88.0877
 21
2.31154
  0
LINE
  8
0
 10
-88.0877
 20
2.31154
 11
-87.9464
 21
2.1869
  0
LINE
  8
0
 10
-87.9464
 20
2.1869
 11
-87.8131
 21
2.05363
  0
LINE
  8
0
 10
-87.8131
 20
2.05363
 11
-87.6884
 21
1.91226
  0
LINE
  8
0
 10
-87.6884
 20
1.91226
 11
-87.5729
 21
1.76335
  0
LINE
  8
0
 10
-87.5729
 20
1.76335
 11
-87.467
 21
1.60747
  0
LINE
  8
0
 10
-87.467
 20
1.60747
 11
-87.3711
 21
1.44525
  0
LINE
  8
0
 10
-87.3711
 20
1.44525
 11
-87.2855
 21
1.27733
  0
LINE
  8
0
 10
-87.2855
 20
1.27733
 11
-87.2107
 21
1.10437
  0
LINE
  8
0
 10
-87.2107
 20
1.10437
 11
-87.1468
 21
0.927048
  0
LINE
  8
0
 10
-87.1468
 20
0.927048
 11
-87.0942
 21
0.746063
  0
LINE
  8
0
 10
-87.0942
 20
0.746063
 11
-87.0531
 21
0.562134
  0
LINE
  8
0
 10
-87.0531
 20
0.562134
 11
-87.0237
 21
0.375992
  0
LINE
  8
0
 10
-87.0237
 20
0.375992
 11
-87.0059
 21
0.18837
  0
LINE
  8
0
 10
-87.0059
 20
0.18837
 11
-87
 21
0
  0
LINE
  8
0
 10
-87
 20
0
 11
-87.0059
 21
-0.188354
  0
LINE
  8
0
 10
-87.0059
 20
-0.188354
 11
-87.0237
 21
-0.375977
  0
LINE
  8
0
 10
-87.0237
 20
-0.375977
 11
-87.0531
 21
-0.562119
  0
LINE
  8
0
 10
-87.0531
 20
-0.562119
 11
-87.0942
 21
-0.746048
  0
LINE
  8
0
 10
-87.0942
 20
-0.746048
 11
-87.1468
 21
-0.927032
  0
LINE
  8
0
 10
-87.1468
 20
-0.927032
 11
-87.2107
 21
-1.10435
  0
LINE
  8
0
 10
-87.2107
 20
-1.10435
 11
-87.2855
 21
-1.27731
  0
LINE
  8
0
 10
-87.2855
 20
-1.27731
 11
-87.3711
 21
-1.44524
  0
LINE
  8
0
 10
-87.3711
 20
-1.44524
 11
-87.467
 21
-1.60745
  0
LINE
  8
0
 10
-87.467
 20
-1.60745
 11
-87.5729
 21
-1.76334
  0
LINE
  8
0
 10
-87.5729
 20
-1.76334
 11
-87.6884
 21
-1.91225
  0
LINE
  8
0
 10
-87.6884
 20
-1.91225
 11
-87.8131
 21
-2.05362
  0
LINE
  8
0
 10
-87.8131
 20
-2.05362
 11
-87.9464
 21
-2.18689
  0
LINE
  8
0
 10
-87.9464
 20
-2.18689
 11
-88.0877
 21
-2.31152
  0
LINE
  8
0
 10
-88.0877
 20
-2.31152
 11
-88.2366
 21
-2.42703
  0
LINE
  8
0
 10
-88.2366
 20
-2.42703
 11
-88.3925
 21
-2.53296
  0
LINE
  8
0
 10
-88.3925
 20
-2.53296
 11
-88.5547
 21
-2.62889
  0
LINE
  8
0
 10
-88.5547
 20
-2.62889
 11
-88.7227
 21
-2.71446
  0
LINE
  8
0
 10
-88.7227
 20
-2.71446
 11
-88.8956
 21
-2.78931
  0
LINE
  8
0
 10
-88.8956
 20
-2.78931
 11
-89.0729
 21
-2.85315
  0
LINE
  8
0
 10
-89.0729
 20
-2.85315
 11
-89.2539
 21
-2.90573
  0
LINE
  8
0
 10
-89.2539
 20
-2.90573
 11
-89.4379
 21
-2.94684
  0
LINE
  8
0
 10
-89.4379
 20
-2.94684
 11
-89.624
 21
-2.97632
  0
LINE
  8
0
 10
-89.624
 20
-2.97632
 11
-89.8116
 21
-2.99406
  0
LINE
  8
0
 10
-89.8116
 20
-2.99406
 11
-90
 21
-2.99998
  0
LINE
  8
0
 10
-90
 20
-2.99998
 11
-90.1884
 21
-2.99406
  0
LINE
  8
0
 10
-70.1884
 20
-2.99408
 11
-70.376
 21
-2.97633
  0
LINE
  8
0
 10
-70.376
 20
-2.97633
 11
-70.5621
 21
-2.94685
  0
LINE
  8
0
 10
-70.5621
 20
-2.94685
 11
-70.7461
 21
-2.90575
  0
LINE
  8
0
 10
-70.7461
 20
-2.90575
 11
-70.9271
 21
-2.85316
  0
LINE
  8
0
 10
-70.9271
 20
-2.85316
 11
-71.1044
 21
-2.78932
  0
LINE
  8
0
 10
-71.1044
 20
-2.78932
 11
-71.2773
 21
-2.71448
  0
LINE
  8
0
 10
-71.2773
 20
-2.71448
 11
-71.4453
 21
-2.62891
  0
LINE
  8
0
 10
-71.4453
 20
-2.62891
 11
-71.6075
 21
-2.53297
  0
LINE
  8
0
 10
-71.6075
 20
-2.53297
 11
-71.7634
 21
-2.42705
  0
LINE
  8
0
 10
-71.7634
 20
-2.42705
 11
-71.9123
 21
-2.31154
  0
LINE
  8
0
 10
-71.9123
 20
-2.31154
 11
-72.0536
 21
-2.1869
  0
LINE
  8
0
 10
-72.0536
 20
-2.1869
 11
-72.1869
 21
-2.05363
  0
LINE
  8
0
 10
-72.1869
 20
-2.05363
 11
-72.3116
 21
-1.91226
  0
LINE
  8
0
 10
-72.3116
 20
-1.91226
 11
-72.4271
 21
-1.76335
  0
LINE
  8
0
 10
-72.4271
 20
-1.76335
 11
-72.533
 21
-1.60747
  0
LINE
  8
0
 10
-72.533
 20
-1.60747
 11
-72.6289
 21
-1.44525
  0
LINE
  8
0
 10
-72.6289
 20
-1.44525
 11
-72.7145
 21
-1.27733
  0
LINE
  8
0
 10
-72.7145
 20
-1.27733
 11
-72.7893
 21
-1.10437
  0
LINE
  8
0
 10
-72.7893
 20
-1.10437
 11
-72.8532
 21
-0.927048
  0
LINE
  8
0
 10
-72.8532
 20
-0.927048
 11
-72.9058
 21
-0.746063
  0
LINE
  8
0
 10
-72.9058
 20
-0.746063
 11
-72.9469
 21
-0.562134
  0
LINE
  8
0
 10
-72.9469
 20
-0.562134
 11
-72.9763
 21
-0.375992
  0
LINE
  8
0
 10
-72.9763
 20
-0.375992
 11
-72.9941
 21
-0.18837
  0
LINE
  8
0
 10
-72.9941
 20
-0.18837
 11
-73
 21
0
  0
LINE
  8
0
 10
-73
 20
0
 11
-72.9941
 21
0.188354
  0
LINE
  8
0
 10
-72.9941
 20
0.188354
 11
-72.9763
 21
0.375977
  0
LINE
  8
0
 10
-72.9763
 20
0.375977
 11
-72.9469
 21
0.562119
  0
LINE
  8
0
 10
-72.9469
 20
0.562119
 11
-72.9058
 21
0.746048
  0
LINE
  8
0
 10
-72.9058
 20
0.746048
 11
-72.8532
 21
0.927032
  0
LINE
  8
0
 10
-72.8532
 20
0.927032
 11
-72.7893
 21
1.10435
  0
LINE
  8
0
 10
-72.7893
 20
1.10435
 11
-72.7145
 21
1.27731
  0
LINE
  8
0
 10
-72.7145
 20
1.27731
 11
-72.6289
 21
1.44524
  0
LINE
  8
0
 10
-72.6289
 20
1.44524
 11
-72.533
 21
1.60745
  0
LINE
  8
0
 10
-72.533
 20
1.60745
 11
-72.4271
 21
1.76334
  0
LINE
  8
0
 10
-72.4271
 20
1.76334
 11
-72.3116
 21
1.91225
  0
LINE
  8
0
 10
-72.3116
 20
1.91225
 11
-72.1869
 21
2.05362
  0
LINE
  8
0
 10
-72.1869
 20
2.05362
 11
-72.0536
 21
2.18689
  0
LINE
  8
0
 10
-72.0536
 20
2.18689
 11
-71.9123
 21
2.31152
  0
LINE
  8
0
 10
-71.9123
 20
2.31152
 11
-71.7634
 21
2.42703
  0
LINE
  8
0
 10
-71.7634
 20
2.42703
 11
-71.6075
 21
2.53296
  0
LINE
  8
0
 10
-71.6075
 20
2.53296
 11
-71.4453
 21
2.62889
  0
LINE
  8
0
 10
-71.4453
 20
2.62889
 11
-71.2773
 21
2.71446
  0
LINE
  8
0
 10
-71.2773
 20
2.71446
 11
-71.1044
 21
2.78931
  0
LINE
  8
0
 10
-71.1044
 20
2.78931
 11
-70.9271
 21
2.85315
  0
LINE
  8
0
 10
-70.9271
 20
2.85315
 11
-70.7461
 21
2.90573
  0
LINE
  8
0
 10
-70.7461
 20
2.90573
 11
-70.5621
 21
2.94684
  0
LINE
  8
0
 10
-70.5621
 20
2.94684
 11
-70.376
 21
2.97632
  0
LINE
  8
0
 10
-70.376
 20
2.97632
 11
-70.1884
 21
2.99406
  0
LINE
  8
0
 10
-70.1884
 20
2.99406
 11
-70
 21
2.99998
  0
LINE
  8
0
 10
-70
 20
2.99998
 11
-69.8116
 21
2.99406
  0
LINE
  8
0
 10
-69.8116
 20
2.99406
 11
-69.624
 21
2.97632
  0
LINE
  8
0
 10
-69.624
 20
2.97632
 11
-69.4379
 21
2.94684
  0
LINE
  8
0
 10
-69.4379
 20
2.94684
 11
-69.2539
 21
2.90573
  0
LINE
  8
0
 10
-69.2539
 20
2.90573
 11
-69.073
 21
2.85315
  0
LINE
  8
0
 10
-69.073
 20
2.85315
 11
-68.8956
 21
2.78931
  0
LINE
  8
0
 10
-68.8956
 20
2.78931
 11
-68.7227
 21
2.71446
  0
LINE
  8
0
 10
-68.7227
 20
2.71446
 11
-68.5547
 21
2.62889
  0
LINE
  8
0
 10
-68.5547
 20
2.62889
 11
-68.3925
 21
2.53296
  0
LINE
  8
0
 10
-68.3925
 20
2.53296
 11
-68.2366
 21
2.42703
  0
LINE
  8
0
 10
-68.2366
 20
2.42703
 11
-68.0877
 21
2.31152
  0
LINE
  8
0
 10
-68.0877
 20
2.31152
 11
-67.9464
 21
2.18689
  0
LINE
  8
0
 10
-67.9464
 20
2.18689
 11
-67.8131
 21
2.05362
  0
LINE
  8
0
 10
-67.8131
 20
2.05362
 11
-67.6885
 21
1.91225
  0
LINE
  8
0
 10
-67.6885
 20
1.91225
 11
-67.573
 21
1.76334
  0
LINE
  8
0
 10
-67.573
 20
1.76334
 11
-67.467
 21
1.60745
  0
LINE
  8
0
 10
-67.467
 20
1.60745
 11
-67.3711
 21
1.44524
  0
LINE
  8
0
 10
-67.3711
 20
1.44524
 11
-67.2855
 21
1.27731
  0
LINE
  8
0
 10
-67.2855
 20
1.27731
 11
-67.2107
 21
1.10435
  0
LINE
  8
0
 10
-67.2107
 20
1.10435
 11
-67.1468
 21
0.927032
  0
LINE
  8
0
 10
-67.1468
 20
0.927032
 11
-67.0943
 21
0.746048
  0
LINE
  8
0
 10
-67.0943
 20
0.746048
 11
-67.0531
 21
0.562119
  0
LINE
  8
0
 10
-67.0531
 20
0.562119
 11
-67.0237
 21
0.375977
  0
LINE
  8
0
 10
-67.0237
 20
0.375977
 11
-67.0059
 21
0.188354
  0
LINE
  8
0
 10
-67.0059
 20
0.188354
 11
-67
 21
0
  0
LINE
  8
0
 10
-67
 20
0
 11
-67.0059
 21
-0.18837
  0
LINE
  8
0
 10
-67.0059
 20
-0.18837
 11
-67.0237
 21
-0.375992
  0
LINE
  8
0
 10
-67.0237
 20
-0.375992
 11
-67.0531
 21
-0.562134
  0
LINE
  8
0
 10
-67.0531
 20
-0.562134
 11
-67.0943
 21
-0.746063
  0
LINE
  8
0
 10
-67.0943
 20
-0.746063
 11
-67.1468
 21
-0.927048
  0
LINE
  8
0
 10
-67.1468
 20
-0.927048
 11
-67.2107
 21
-1.10437
  0
LINE
  8
0
 10
-67.2107
 20
-1.10437
 11
-67.2855
 21
-1.27733
  0
LINE
  8
0
 10
-67.2855
 20
-1.27733
 11
-67.3711
 21
-1.44525
  0
LINE
  8
0
 10
-67.3711
 20
-1.44525
 11
-67.467
 21
-1.60747
  0
LINE
  8
0
 10
-67.467
 20
-1.60747
 11
-67.573
 21
-1.76335
  0
LINE
  8
0
 10
-67.573
 20
-1.76335
 11
-67.6885
 21
-1.91226
  0
LINE
  8
0
 10
-67.6885
 20
-1.91226
 11
-67.8131
 21
-2.05363
  0
LINE
  8
0
 10
-67.8131
 20
-2.05363
 11
-67.9464
 21
-2.1869
  0
LINE
  8
0
 10
-67.9464
 20
-2.1869
 11
-68.0877
 21
-2.31154
  0
LINE
  8
0
 10
-68.0877
 20
-2.31154
 11
-68.2366
 21
-2.42705
  0
LINE
  8
0
 10
-68.2366
 20
-2.42705
 11
-68.3925
 21
-2.53297
  0
LINE
  8
0
 10
-68.3925
 20
-2.53297
 11
-68.5547
 21
-2.62891
  0
LINE
  8
0
 10
-68.5547
 20
-2.62891
 11
-68.7227
 21
-2.71448
  0
LINE
  8
0
 10
-68.7227
 20
-2.71448
 11
-68.8956
 21
-2.78932
  0
LINE
  8
0
 10
-68.8956
 20
-2.78932
 11
-69.073
 21
-2.85316
  0
LINE
  8
0
 10
-69.073
 20
-2.85316
 11
-69.2539
 21
-2.90575
  0
LINE
  8
0
 10
-69.2539
 20
-2.90575
 11
-69.4379
 21
-2.94685
  0
LINE
  8
0
 10
-69.4379
 20
-2.94685
 11
-69.624
 21
-2.97633
  0
LINE
  8
0
 10
-69.624
 20
-2.97633
 11
-69.8116
 21
-2.99408
  0
LINE
  8
0
 10
-69.8116
 20
-2.99408
 11
-70
 21
-3
  0
LINE
  8
0
 10
-70
 20
-3
 11
-70.1884
 21
-2.99408
  0
LINE
  8
0
 10
43.9058
 20
-17.497
 11
43.812
 21
-17.4882
  0
LINE
  8
0
 10
43.812
 20
-17.4882
 11
43.7189
 21
-17.4734
  0
LINE
  8
0
 10
43.7189
 20
-17.4734
 11
43.627
 21
-17.4529
  0
LINE
  8
0
 10
43.627
 20
-17.4529
 11
43.5365
 21
-17.4266
  0
LINE
  8
0
 10
43.5365
 20
-17.4266
 11
43.4478
 21
-17.3947
  0
LINE
  8
0
 10
43.4478
 20
-17.3947
 11
43.3613
 21
-17.3572
  0
LINE
  8
0
 10
43.3613
 20
-17.3572
 11
43.2774
 21
-17.3145
  0
LINE
  8
0
 10
43.2774
 20
-17.3145
 11
43.1963
 21
-17.2665
  0
LINE
  8
0
 10
43.1963
 20
-17.2665
 11
43.1183
 21
-17.2135
  0
LINE
  8
0
 10
43.1183
 20
-17.2135
 11
43.0439
 21
-17.1558
  0
LINE
  8
0
 10
43.0439
 20
-17.1558
 11
42.9732
 21
-17.0934
  0
LINE
  8
0
 10
42.9732
 20
-17.0934
 11
42.9066
 21
-17.0268
  0
LINE
  8
0
 10
42.9066
 20
-17.0268
 11
42.8442
 21
-16.9561
  0
LINE
  8
0
 10
42.8442
 20
-16.9561
 11
42.7865
 21
-16.8817
  0
LINE
  8
0
 10
42.7865
 20
-16.8817
 11
42.7335
 21
-16.8037
  0
LINE
  8
0
 10
42.7335
 20
-16.8037
 11
42.6855
 21
-16.7226
  0
LINE
  8
0
 10
42.6855
 20
-16.7226
 11
42.6428
 21
-16.6387
  0
LINE
  8
0
 10
42.6428
 20
-16.6387
 11
42.6053
 21
-16.5522
  0
LINE
  8
0
 10
42.6053
 20
-16.5522
 11
42.5734
 21
-16.4635
  0
LINE
  8
0
 10
42.5734
 20
-16.4635
 11
42.5471
 21
-16.373
  0
LINE
  8
0
 10
42.5471
 20
-16.373
 11
42.5266
 21
-16.2811
  0
LINE
  8
0
 10
42.5266
 20
-16.2811
 11
42.5118
 21
-16.188
  0
LINE
  8
0
 10
42.5118
 20
-16.188
 11
42.503
 21
-16.0942
  0
LINE
  8
0
 10
42.503
 20
-16.0942
 11
42.5
 21
-16
  0
LINE
  8
0
 10
42.5
 20
-16
 11
42.503
 21
-15.9058
  0
LINE
  8
0
 10
42.503
 20
-15.9058
 11
42.5118
 21
-15.812
  0
LINE
  8
0
 10
42.5118
 20
-15.812
 11
42.5266
 21
-15.7189
  0
LINE
  8
0
 10
42.5266
 20
-15.7189
 11
42.5471
 21
-15.627
  0
LINE
  8
0
 10
42.5471
 20
-15.627
 11
42.5734
 21
-15.5365
  0
LINE
  8
0
 10
42.5734
 20
-15.5365
 11
42.6053
 21
-15.4478
  0
LINE
  8
0
 10
42.6053
 20
-15.4478
 11
42.6428
 21
-15.3613
  0
LINE
  8
0
 10
42.6428
 20
-15.3613
 11
42.6855
 21
-15.2774
  0
LINE
  8
0
 10
42.6855
 20
-15.2774
 11
42.7335
 21
-15.1963
  0
LINE
  8
0
 10
42.7335
 20
-15.1963
 11
42.7865
 21
-15.1183
  0
LINE
  8
0
 10
42.7865
 20
-15.1183
 11
42.8442
 21
-15.0439
  0
LINE
  8
0
 10
42.8442
 20
-15.0439
 11
42.9066
 21
-14.9732
  0
LINE
  8
0
 10
42.9066
 20
-14.9732
 11
42.9732
 21
-14.9065
  0
LINE
  8
0
 10
42.9732
 20
-14.9065
 11
43.0439
 21
-14.8442
  0
LINE
  8
0
 10
43.0439
 20
-14.8442
 11
43.1183
 21
-14.7865
  0
LINE
  8
0
 10
43.1183
 20
-14.7865
 11
43.1963
 21
-14.7335
  0
LINE
  8
0
 10
43.1963
 20
-14.7335
 11
43.2774
 21
-14.6855
  0
LINE
  8
0
 10
43.2774
 20
-14.6855
 11
43.3613
 21
-14.6427
  0
LINE
  8
0
 10
43.3613
 20
-14.6427
 11
43.4478
 21
-14.6053
  0
LINE
  8
0
 10
43.4478
 20
-14.6053
 11
43.5365
 21
-14.5734
  0
LINE
  8
0
 10
43.5365
 20
-14.5734
 11
43.627
 21
-14.5471
  0
LINE
  8
0
 10
43.627
 20
-14.5471
 11
43.7189
 21
-14.5266
  0
LINE
  8
0
 10
43.7189
 20
-14.5266
 11
43.812
 21
-14.5118
  0
LINE
  8
0
 10
43.812
 20
-14.5118
 11
43.9058
 21
-14.5029
  0
LINE
  8
0
 10
43.9058
 20
-14.5029
 11
44
 21
-14.5
  0
LINE
  8
0
 10
44
 20
-14.5
 11
44.0942
 21
-14.5029
  0
LINE
  8
0
 10
44.0942
 20
-14.5029
 11
44.188
 21
-14.5118
  0
LINE
  8
0
 10
44.188
 20
-14.5118
 11
44.2811
 21
-14.5266
  0
LINE
  8
0
 10
44.2811
 20
-14.5266
 11
44.373
 21
-14.5471
  0
LINE
  8
0
 10
44.373
 20
-14.5471
 11
44.4635
 21
-14.5734
  0
LINE
  8
0
 10
44.4635
 20
-14.5734
 11
44.5522
 21
-14.6053
  0
LINE
  8
0
 10
44.5522
 20
-14.6053
 11
44.6387
 21
-14.6427
  0
LINE
  8
0
 10
44.6387
 20
-14.6427
 11
44.7226
 21
-14.6855
  0
LINE
  8
0
 10
44.7226
 20
-14.6855
 11
44.8037
 21
-14.7335
  0
LINE
  8
0
 10
44.8037
 20
-14.7335
 11
44.8817
 21
-14.7865
  0
LINE
  8
0
 10
44.8817
 20
-14.7865
 11
44.9561
 21
-14.8442
  0
LINE
  8
0
 10
44.9561
 20
-14.8442
 11
45.0268
 21
-14.9065
  0
LINE
  8
0
 10
45.0268
 20
-14.9065
 11
45.0935
 21
-14.9732
  0
LINE
  8
0
 10
45.0935
 20
-14.9732
 11
45.1558
 21
-15.0439
  0
LINE
  8
0
 10
45.1558
 20
-15.0439
 11
45.2135
 21
-15.1183
  0
LINE
  8
0
 10
45.2135
 20
-15.1183
 11
45.2665
 21
-15.1963
  0
LINE
  8
0
 10
45.2665
 20
-15.1963
 11
45.3145
 21
-15.2774
  0
LINE
  8
0
 10
45.3145
 20
-15.2774
 11
45.3573
 21
-15.3613
  0
LINE
  8
0
 10
45.3573
 20
-15.3613
 11
45.3947
 21
-15.4478
  0
LINE
  8
0
 10
45.3947
 20
-15.4478
 11
45.4266
 21
-15.5365
  0
LINE
  8
0
 10
45.4266
 20
-15.5365
 11
45.4529
 21
-15.627
  0
LINE
  8
0
 10
45.4529
 20
-15.627
 11
45.4734
 21
-15.7189
  0
LINE
  8
0
 10
45.4734
 20
-15.7189
 11
45.4882
 21
-15.812
  0
LINE
  8
0
 10
45.4882
 20
-15.812
 11
45.4971
 21
-15.9058
  0
LINE
  8
0
 10
45.4971
 20
-15.9058
 11
45.5
 21
-16
  0
LINE
  8
0
 10
45.5
 20
-16
 11
45.4971
 21
-16.0942
  0
LINE
  8
0
 10
45.4971
 20
-16.0942
 11
45.4882
 21
-16.188
  0
LINE
  8
0
 10
45.4882
 20
-16.188
 11
45.4734
 21
-16.2811
  0
LINE
  8
0
 10
45.4734
 20
-16.2811
 11
45.4529
 21
-16.373
  0
LINE
  8
0
 10
45.4529
 20
-16.373
 11
45.4266
 21
-16.4635
  0
LINE
  8
0
 10
45.4266
 20
-16.4635
 11
45.3947
 21
-16.5522
  0
LINE
  8
0
 10
45.3947
 20
-16.5522
 11
45.3573
 21
-16.6387
  0
LINE
  8
0
 10
45.3573
 20
-16.6387
 11
45.3145
 21
-16.7226
  0
LINE
  8
0
 10
45.3145
 20
-16.7226
 11
45.2665
 21
-16.8037
  0
LINE
  8
0
 10
45.2665
 20
-16.8037
 11
45.2135
 21
-16.8817
  0
LINE
  8
0
 10
45.2135
 20
-16.8817
 11
45.1558
 21
-16.9561
  0
LINE
  8
0
 10
45.1558
 20
-16.9561
 11
45.0935
 21
-17.0268
  0
LINE
  8
0
 10
45.0935
 20
-17.0268
 11
45.0268
 21
-17.0934
  0
LINE
  8
0
 10
45.0268
 20
-17.0934
 11
44.9561
 21
-17.1558
  0
LINE
  8
0
 10
44.9561
 20
-17.1558
 11
44.8817
 21
-17.2135
  0
LINE
  8
0
 10
44.8817
 20
-17.2135
 11
44.8037
 21
-17.2665
  0
LINE
  8
0
 10
44.8037
 20
-17.2665
 11
44.7226
 21
-17.3145
  0
LINE
  8
0
 10
44.7226
 20
-17.3145
 11
44.6387
 21
-17.3572
  0
LINE
  8
0
 10
44.6387
 20
-17.3572
 11
44.5522
 21
-17.3947
  0
LINE
  8
0
 10
44.5522
 20
-17.3947
 11
44.4635
 21
-17.4266
  0
LINE
  8
0
 10
44.4635
 20
-17.4266
 11
44.373
 21
-17.4529
  0
LINE
  8
0
 10
44.373
 20
-17.4529
 11
44.2811
 21
-17.4734
  0
LINE
  8
0
 10
44.2811
 20
-17.4734
 11
44.188
 21
-17.4882
  0
LINE
  8
0
 10
44.188
 20
-17.4882
 11
44.0942
 21
-17.497
  0
LINE
  8
0
 10
44.0942
 20
-17.497
 11
44
 21
-17.5
  0
LINE
  8
0
 10
44
 20
-17.5
 11
43.9058
 21
-17.497
  0
LINE
  8
0
 10
75.9058
 20
-17.497
 11
75.812
 21
-17.4882
  0
LINE
  8
0
 10
75.812
 20
-17.4882
 11
75.7189
 21
-17.4734
  0
LINE
  8
0
 10
75.7189
 20
-17.4734
 11
75.627
 21
-17.4529
  0
LINE
  8
0
 10
75.627
 20
-17.4529
 11
75.5365
 21
-17.4266
  0
LINE
  8
0
 10
75.5365
 20
-17.4266
 11
75.4478
 21
-17.3947
  0
LINE
  8
0
 10
75.4478
 20
-17.3947
 11
75.3613
 21
-17.3572
  0
LINE
  8
0
 10
75.3613
 20
-17.3572
 11
75.2774
 21
-17.3145
  0
LINE
  8
0
 10
75.2774
 20
-17.3145
 11
75.1963
 21
-17.2665
  0
LINE
  8
0
 10
75.1963
 20
-17.2665
 11
75.1183
 21
-17.2135
  0
LINE
  8
0
 10
75.1183
 20
-17.2135
 11
75.0439
 21
-17.1558
  0
LINE
  8
0
 10
75.0439
 20
-17.1558
 11
74.9732
 21
-17.0934
  0
LINE
  8
0
 10
74.9732
 20
-17.0934
 11
74.9065
 21
-17.0268
  0
LINE
  8
0
 10
74.9065
 20
-17.0268
 11
74.8442
 21
-16.9561
  0
LINE
  8
0
 10
74.8442
 20
-16.9561
 11
74.7865
 21
-16.8817
  0
LINE
  8
0
 10
74.7865
 20
-16.8817
 11
74.7335
 21
-16.8037
  0
LINE
  8
0
 10
74.7335
 20
-16.8037
 11
74.6855
 21
-16.7226
  0
LINE
  8
0
 10
74.6855
 20
-16.7226
 11
74.6427
 21
-16.6387
  0
LINE
  8
0
 10
74.6427
 20
-16.6387
 11
74.6053
 21
-16.5522
  0
LINE
  8
0
 10
74.6053
 20
-16.5522
 11
74.5734
 21
-16.4635
  0
LINE
  8
0
 10
74.5734
 20
-16.4635
 11
74.5471
 21
-16.373
  0
LINE
  8
0
 10
74.5471
 20
-16.373
 11
74.5266
 21
-16.2811
  0
LINE
  8
0
 10
74.5266
 20
-16.2811
 11
74.5118
 21
-16.188
  0
LINE
  8
0
 10
74.5118
 20
-16.188
 11
74.5029
 21
-16.0942
  0
LINE
  8
0
 10
74.5029
 20
-16.0942
 11
74.5
 21
-16
  0
LINE
  8
0
 10
74.5
 20
-16
 11
74.5029
 21
-15.9058
  0
LINE
  8
0
 10
74.5029
 20
-15.9058
 11
74.5118
 21
-15.812
  0
LINE
  8
0
 10
74.5118
 20
-15.812
 11
74.5266
 21
-15.7189
  0
LINE
  8
0
 10
74.5266
 20
-15.7189
 11
74.5471
 21
-15.627
  0
LINE
  8
0
 10
74.5471
 20
-15.627
 11
74.5734
 21
-15.5365
  0
LINE
  8
0
 10
74.5734
 20
-15.5365
 11
74.6053
 21
-15.4478
  0
LINE
  8
0
 10
74.6053
 20
-15.4478
 11
74.6427
 21
-15.3613
  0
LINE
  8
0
 10
74.6427
 20
-15.3613
 11
74.6855
 21
-15.2774
  0
LINE
  8
0
 10
74.6855
 20
-15.2774
 11
74.7335
 21
-15.1963
  0
LINE
  8
0
 10
74.7335
 20
-15.1963
 11
74.7865
 21
-15.1183
  0
LINE
  8
0
 10
74.7865
 20
-15.1183
 11
74.8442
 21
-15.0439
  0
LINE
  8
0
 10
74.8442
 20
-15.0439
 11
74.9065
 21
-14.9732
  0
LINE
  8
0
 10
74.9065
 20
-14.9732
 11
74.9732
 21
-14.9065
  0
LINE
  8
0
 10
74.9732
 20
-14.9065
 11
75.0439
 21
-14.8442
  0
LINE
  8
0
 10
75.0439
 20
-14.8442
 11
75.1183
 21
-14.7865
  0
LINE
  8
0
 10
75.1183
 20
-14.7865
 11
75.1963
 21
-14.7335
  0
LINE
  8
0
 10
75.1963
 20
-14.7335
 11
75.2774
 21
-14.6855
  0
LINE
  8
0
 10
75.2774
 20
-14.6855
 11
75.3613
 21
-14.6427
  0
LINE
  8
0
 10
75.3613
 20
-14.6427
 11
75.4478
 21
-14.6053
  0
LINE
  8
0
 10
75.4478
 20
-14.6053
 11
75.5365
 21
-14.5734
  0
LINE
  8
0
 10
75.5365
 20
-14.5734
 11
75.627
 21
-14.5471
  0
LINE
  8
0
 10
75.627
 20
-14.5471
 11
75.7189
 21
-14.5266
  0
LINE
  8
0
 10
75.7189
 20
-14.5266
 11
75.812
 21
-14.5118
  0
LINE
  8
0
 10
75.812
 20
-14.5118
 11
75.9058
 21
-14.5029
  0
LINE
  8
0
 10
75.9058
 20
-14.5029
 11
76
 21
-14.5
  0
LINE
  8
0
 10
76
 20
-14.5
 11
76.0942
 21
-14.5029
  0
LINE
  8
0
 10
76.0942
 20
-14.5029
 11
76.188
 21
-14.5118
  0
LINE
  8
0
 10
76.188
 20
-14.5118
 11
76.2811
 21
-14.5266
  0
LINE
  8
0
 10
76.2811
 20
-14.5266
 11
76.373
 21
-14.5471
  0
LINE
  8
0
 10
76.373
 20
-14.5471
 11
76.4635
 21
-14.5734
  0
LINE
  8
0
 10
76.4635
 20
-14.5734
 11
76.5522
 21
-14.6053
  0
LINE
  8
0
 10
76.5522
 20
-14.6053
 11
76.6387
 21
-14.6427
  0
LINE
  8
0
 10
76.6387
 20
-14.6427
 11
76.7226
 21
-14.6855
  0
LINE
  8
0
 10
76.7226
 20
-14.6855
 11
76.8037
 21
-14.7335
  0
LINE
  8
0
 10
76.8037
 20
-14.7335
 11
76.8817
 21
-14.7865
  0
LINE
  8
0
 10
76.8817
 20
-14.7865
 11
76.9561
 21
-14.8442
  0
LINE
  8
0
 10
76.9561
 20
-14.8442
 11
77.0268
 21
-14.9065
  0
LINE
  8
0
 10
77.0268
 20
-14.9065
 11
77.0934
 21
-14.9732
  0
LINE
  8
0
 10
77.0934
 20
-14.9732
 11
77.1558
 21
-15.0439
  0
LINE
  8
0
 10
77.1558
 20
-15.0439
 11
77.2135
 21
-15.1183
  0
LINE
  8
0
 10
77.2135
 20
-15.1183
 11
77.2665
 21
-15.1963
  0
LINE
  8
0
 10
77.2665
 20
-15.1963
 11
77.3145
 21
-15.2774
  0
LINE
  8
0
 10
77.3145
 20
-15.2774
 11
77.3572
 21
-15.3613
  0
LINE
  8
0
 10
77.3572
 20
-15.3613
 11
77.3947
 21
-15.4478
  0
LINE
  8
0
 10
77.3947
 20
-15.4478
 11
77.4266
 21
-15.5365
  0
LINE
  8
0
 10
77.4266
 20
-15.5365
 11
77.4529
 21
-15.627
  0
LINE
  8
0
 10
77.4529
 20
-15.627
 11
77.4734
 21
-15.7189
  0
LINE
  8
0
 10
77.4734
 20
-15.7189
 11
77.4882
 21
-15.812
  0
LINE
  8
0
 10
77.4882
 20
-15.812
 11
77.497
 21
-15.9058
  0
LINE
  8
0
 10
77.497
 20
-15.9058
 11
77.5
 21
-16
  0
LINE
  8
0
 10
77.5
 20
-16
 11
77.497
 21
-16.0942
  0
LINE
  8
0
 10
77.497
 20
-16.0942
 11
77.4882
 21
-16.188
  0
LINE
  8
0
 10
77.4882
 20
-16.188
 11
77.4734
 21
-16.2811
  0
LINE
  8
0
 10
77.4734
 20
-16.2811
 11
77.4529
 21
-16.373
  0
LINE
  8
0
 10
77.4529
 20
-16.373
 11
77.4266
 21
-16.4635
  0
LINE
  8
0
 10
77.4266
 20
-16.4635
 11
77.3947
 21
-16.5522
  0
LINE
  8
0
 10
77.3947
 20
-16.5522
 11
77.3572
 21
-16.6387
  0
LINE
  8
0
 10
77.3572
 20
-16.6387
 11
77.3145
 21
-16.7226
  0
LINE
  8
0
 10
77.3145
 20
-16.7226
 11
77.2665
 21
-16.8037
  0
LINE
  8
0
 10
77.2665
 20
-16.8037
 11
77.2135
 21
-16.8817
  0
LINE
  8
0
 10
77.2135
 20
-16.8817
 11
77.1558
 21
-16.9561
  0
LINE
  8
0
 10
77.1558
 20
-16.9561
 11
77.0934
 21
-17.0268
  0
LINE
  8
0
 10
77.0934
 20
-17.0268
 11
77.0268
 21
-17.0934
  0
LINE
  8
0
 10
77.0268
 20
-17.0934
 11
76.9561
 21
-17.1558
  0
LINE
  8
0
 10
76.9561
 20
-17.1558
 11
76.8817
 21
-17.2135
  0
LINE
  8
0
 10
76.8817
 20
-17.2135
 11
76.8037
 21
-17.2665
  0
LINE
  8
0
 10
76.8037
 20
-17.2665
 11
76.7226
 21
-17.3145
  0
LINE
  8
0
 10
76.7226
 20
-17.3145
 11
76.6387
 21
-17.3572
  0
LINE
  8
0
 10
76.6387
 20
-17.3572
 11
76.5522
 21
-17.3947
  0
LINE
  8
0
 10
76.5522
 20
-17.3947
 11
76.4635
 21
-17.4266
  0
LINE
  8
0
 10
76.4635
 20
-17.4266
 11
76.373
 21
-17.4529
  0
LINE
  8
0
 10
76.373
 20
-17.4529
 11
76.2811
 21
-17.4734
  0
LINE
  8
0
 10
76.2811
 20
-17.4734
 11
76.188
 21
-17.4882
  0
LINE
  8
0
 10
76.188
 20
-17.4882
 11
76.0942
 21
-17.497
  0
LINE
  8
0
 10
76.0942
 20
-17.497
 11
76
 21
-17.5
  0
LINE
  8
0
 10
76
 20
-17.5
 11
75.9058
 21
-17.497
  0
LINE
  8
0
 10
-30.5511
 20
-35.4921
 11
-30.8013
 21
-35.4684
  0
LINE
  8
0
 10
-30.8013
 20
-35.4684
 11
-31.0495
 21
-35.4291
  0
LINE
  8
0
 10
-31.0495
 20
-35.4291
 11
-31.2948
 21
-35.3743
  0
LINE
  8
0
 10
-31.2948
 20
-35.3743
 11
-31.5361
 21
-35.3042
  0
LINE
  8
0
 10
-31.5361
 20
-35.3042
 11
-31.7725
 21
-35.2191
  0
LINE
  8
0
 10
-31.7725
 20
-35.2191
 11
-32.0031
 21
-35.1193
  0
LINE
  8
0
 10
-32.0031
 20
-35.1193
 11
-32.227
 21
-35.0052
  0
LINE
  8
0
 10
-32.227
 20
-35.0052
 11
-32.4433
 21
-34.8773
  0
LINE
  8
0
 10
-32.4433
 20
-34.8773
 11
-32.6511
 21
-34.7361
  0
LINE
  8
0
 10
-32.6511
 20
-34.7361
 11
-32.8497
 21
-34.582
  0
LINE
  8
0
 10
-32.8497
 20
-34.582
 11
-33.0382
 21
-34.4159
  0
LINE
  8
0
 10
-33.0382
 20
-34.4159
 11
-33.2159
 21
-34.2382
  0
LINE
  8
0
 10
-33.2159
 20
-34.2382
 11
-33.382
 21
-34.0497
  0
LINE
  8
0
 10
-33.382
 20
-34.0497
 11
-33.5361
 21
-33.8511
  0
LINE
  8
0
 10
-33.5361
 20
-33.8511
 11
-33.6773
 21
-33.6433
  0
LINE
  8
0
 10
-33.6773
 20
-33.6433
 11
-33.8052
 21
-33.427
  0
LINE
  8
0
 10
-33.8052
 20
-33.427
 11
-33.9193
 21
-33.2031
  0
LINE
  8
0
 10
-33.9193
 20
-33.2031
 11
-34.0191
 21
-32.9725
  0
LINE
  8
0
 10
-34.0191
 20
-32.9725
 11
-34.1042
 21
-32.7361
  0
LINE
  8
0
 10
-34.1042
 20
-32.7361
 11
-34.1743
 21
-32.4948
  0
LINE
  8
0
 10
-34.1743
 20
-32.4948
 11
-34.2291
 21
-32.2495
  0
LINE
  8
0
 10
-34.2291
 20
-32.2495
 11
-34.2684
 21
-32.0013
  0
LINE
  8
0
 10
-34.2684
 20
-32.0013
 11
-34.2921
 21
-31.7512
  0
LINE
  8
0
 10
-34.2921
 20
-31.7512
 11
-34.3
 21
-31.5
  0
LINE
  8
0
 10
-34.3
 20
-31.5
 11
-34.2921
 21
-31.2488
  0
LINE
  8
0
 10
-34.2921
 20
-31.2488
 11
-34.2684
 21
-30.9987
  0
LINE
  8
0
 10
-34.2684
 20
-30.9987
 11
-34.2291
 21
-30.7505
  0
LINE
  8
0
 10
-34.2291
 20
-30.7505
 11
-34.1743
 21
-30.5052
  0
LINE
  8
0
 10
-34.1743
 20
-30.5052
 11
-34.1042
 21
-30.2639
  0
LINE
  8
0
 10
-34.1042
 20
-30.2639
 11
-34.0191
 21
-30.0275
  0
LINE
  8
0
 10
-34.0191
 20
-30.0275
 11
-33.9193
 21
-29.7969
  0
LINE
  8
0
 10
-33.9193
 20
-29.7969
 11
-33.8052
 21
-29.573
  0
LINE
  8
0
 10
-33.8052
 20
-29.573
 11
-33.6773
 21
-29.3567
  0
LINE
  8
0
 10
-33.6773
 20
-29.3567
 11
-33.5361
 21
-29.1488
  0
LINE
  8
0
 10
-33.5361
 20
-29.1488
 11
-33.382
 21
-28.9503
  0
LINE
  8
0
 10
-33.382
 20
-28.9503
 11
-33.2159
 21
-28.7618
  0
LINE
  8
0
 10
-33.2159
 20
-28.7618
 11
-33.0382
 21
-28.5841
  0
LINE
  8
0
 10
-33.0382
 20
-28.5841
 11
-32.8497
 21
-28.4179
  0
LINE
  8
0
 10
-32.8497
 20
-28.4179
 11
-32.6511
 21
-28.2639
  0
LINE
  8
0
 10
-32.6511
 20
-28.2639
 11
-32.4433
 21
-28.1227
  0
LINE
  8
0
 10
-32.4433
 20
-28.1227
 11
-32.227
 21
-27.9948
  0
LINE
  8
0
 10
-32.227
 20
-27.9948
 11
-32.0031
 21
-27.8807
  0
LINE
  8
0
 10
-32.0031
 20
-27.8807
 11
-31.7725
 21
-27.7809
  0
LINE
  8
0
 10
-31.7725
 20
-27.7809
 11
-31.5361
 21
-27.6958
  0
LINE
  8
0
 10
-31.5361
 20
-27.6958
 11
-31.2948
 21
-27.6257
  0
LINE
  8
0
 10
-31.2948
 20
-27.6257
 11
-31.0495
 21
-27.5708
  0
LINE
  8
0
 10
-31.0495
 20
-27.5708
 11
-30.8013
 21
-27.5315
  0
LINE
  8
0
 10
-30.8013
 20
-27.5315
 11
-30.5511
 21
-27.5079
  0
LINE
  8
0
 10
-30.5511
 20
-27.5079
 11
-30.3
 21
-27.5
  0
LINE
  8
0
 10
-30.3
 20
-27.5
 11
-30.0488
 21
-27.5079
  0
LINE
  8
0
 10
-30.0488
 20
-27.5079
 11
-29.7987
 21
-27.5315
  0
LINE
  8
0
 10
-29.7987
 20
-27.5315
 11
-29.5505
 21
-27.5708
  0
LINE
  8
0
 10
-29.5505
 20
-27.5708
 11
-29.3052
 21
-27.6257
  0
LINE
  8
0
 10
-29.3052
 20
-27.6257
 11
-29.0639
 21
-27.6958
  0
LINE
  8
0
 10
-29.0639
 20
-27.6958
 11
-28.8275
 21
-27.7809
  0
LINE
  8
0
 10
-28.8275
 20
-27.7809
 11
-28.5969
 21
-27.8807
  0
LINE
  8
0
 10
-28.5969
 20
-27.8807
 11
-28.373
 21
-27.9948
  0
LINE
  8
0
 10
-28.373
 20
-27.9948
 11
-28.1567
 21
-28.1227
  0
LINE
  8
0
 10
-28.1567
 20
-28.1227
 11
-27.9489
 21
-28.2639
  0
LINE
  8
0
 10
-27.9489
 20
-28.2639
 11
-27.7503
 21
-28.4179
  0
LINE
  8
0
 10
-27.7503
 20
-28.4179
 11
-27.5618
 21
-28.5841
  0
LINE
  8
0
 10
-27.5618
 20
-28.5841
 11
-27.3841
 21
-28.7618
  0
LINE
  8
0
 10
-27.3841
 20
-28.7618
 11
-27.2179
 21
-28.9503
  0
LINE
  8
0
 10
-27.2179
 20
-28.9503
 11
-27.0639
 21
-29.1488
  0
LINE
  8
0
 10
-27.0639
 20
-29.1488
 11
-26.9227
 21
-29.3567
  0
LINE
  8
0
 10
-26.9227
 20
-29.3567
 11
-26.7948
 21
-29.573
  0
LINE
  8
0
 10
-26.7948
 20
-29.573
 11
-26.6807
 21
-29.7969
  0
LINE
  8
0
 10
-26.6807
 20
-29.7969
 11
-26.5809
 21
-30.0275
  0
LINE
  8
0
 10
-26.5809
 20
-30.0275
 11
-26.4958
 21
-30.2639
  0
LINE
  8
0
 10
-26.4958
 20
-30.2639
 11
-26.4257
 21
-30.5052
  0
LINE
  8
0
 10
-26.4257
 20
-30.5052
 11
-26.3708
 21
-30.7505
  0
LINE
  8
0
 10
-26.3708
 20
-30.7505
 11
-26.3315
 21
-30.9987
  0
LINE
  8
0
 10
-26.3315
 20
-30.9987
 11
-26.3079
 21
-31.2488
  0
LINE
  8
0
 10
-26.3079
 20
-31.2488
 11
-26.3
 21
-31.5
  0
LINE
  8
0
 10
-26.3
 20
-31.5
 11
-26.3079
 21
-31.7512
  0
LINE
  8
0
 10
-26.3079
 20
-31.7512
 11
-26.3315
 21
-32.0013
  0
LINE
  8
0
 10
-26.3315
 20
-32.0013
 11
-26.3708
 21
-32.2495
  0
LINE
  8
0
 10
-26.3708
 20
-32.2495
 11
-26.4257
 21
-32.4948
  0
LINE
  8
0
 10
-26.4257
 20
-32.4948
 11
-26.4958
 21
-32.7361
  0
LINE
  8
0
 10
-26.4958
 20
-32.7361
 11
-26.5809
 21
-32.9725
  0
LINE
  8
0
 10
-26.5809
 20
-32.9725
 11
-26.6807
 21
-33.2031
  0
LINE
  8
0
 10
-26.6807
 20
-33.2031
 11
-26.7948
 21
-33.427
  0
LINE
  8
0
 10
-26.7948
 20
-33.427
 11
-26.9227
 21
-33.6433
  0
LINE
  8
0
 10
-26.9227
 20
-33.6433
 11
-27.0639
 21
-33.8511
  0
LINE
  8
0
 10
-27.0639
 20
-33.8511
 11
-27.2179
 21
-34.0497
  0
LINE
  8
0
 10
-27.2179
 20
-34.0497
 11
-27.3841
 21
-34.2382
  0
LINE
  8
0
 10
-27.3841
 20
-34.2382
 11
-27.5618
 21
-34.4159
  0
LINE
  8
0
 10
-27.5618
 20
-34.4159
 11
-27.7503
 21
-34.582
  0
LINE
  8
0
 10
-27.7503
 20
-34.582
 11
-27.9489
 21
-34.7361
  0
LINE
  8
0
 10
-27.9489
 20
-34.7361
 11
-28.1567
 21
-34.8773
  0
LINE
  8
0
 10
-28.1567
 20
-34.8773
 11
-28.373
 21
-35.0052
  0
LINE
  8
0
 10
-28.373
 20
-35.0052
 11
-28.5969
 21
-35.1193
  0
LINE
  8
0
 10
-28.5969
 20
-35.1193
 11
-28.8275
 21
-35.2191
  0
LINE
  8
0
 10
-28.8275
 20
-35.2191
 11
-29.0639
 21
-35.3042
  0
LINE
  8
0
 10
-29.0639
 20
-35.3042
 11
-29.3052
 21
-35.3743
  0
LINE
  8
0
 10
-29.3052
 20
-35.3743
 11
-29.5505
 21
-35.4291
  0
LINE
  8
0
 10
-29.5505
 20
-35.4291
 11
-29.7987
 21
-35.4684
  0
LINE
  8
0
 10
-29.7987
 20
-35.4684
 11
-30.0488
 21
-35.4921
  0
LINE
  8
0
 10
-30.0488
 20
-35.4921
 11
-30.3
 21
-35.5
  0
LINE
  8
0
 10
-30.3
 20
-35.5
 11
-30.5511
 21
-35.4921
  0
LINE
  8
0
 10
30.0488
 20
-35.4921
 11
29.7987
 21
-35.4684
  0
LINE
  8
0
 10
29.7987
 20
-35.4684
 11
29.5505
 21
-35.4291
  0
LINE
  8
0
 10
29.5505
 20
-35.4291
 11
29.3052
 21
-35.3743
  0
LINE
  8
0
 10
29.3052
 20
-35.3743
 11
29.0639
 21
-35.3042
  0
LINE
  8
0
 10
29.0639
 20
-35.3042
 11
28.8275
 21
-35.2191
  0
LINE
  8
0
 10
28.8275
 20
-35.2191
 11
28.5969
 21
-35.1193
  0
LINE
  8
0
 10
28.5969
 20
-35.1193
 11
28.373
 21
-35.0052
  0
LINE
  8
0
 10
28.373
 20
-35.0052
 11
28.1567
 21
-34.8773
  0
LINE
  8
0
 10
28.1567
 20
-34.8773
 11
27.9489
 21
-34.7361
  0
LINE
  8
0
 10
27.9489
 20
-34.7361
 11
27.7503
 21
-34.582
  0
LINE
  8
0
 10
27.7503
 20
-34.582
 11
27.5618
 21
-34.4159
  0
LINE
  8
0
 10
27.5618
 20
-34.4159
 11
27.3841
 21
-34.2382
  0
LINE
  8
0
 10
27.3841
 20
-34.2382
 11
27.2179
 21
-34.0497
  0
LINE
  8
0
 10
27.2179
 20
-34.0497
 11
27.0639
 21
-33.8511
  0
LINE
  8
0
 10
27.0639
 20
-33.8511
 11
26.9227
 21
-33.6433
  0
LINE
  8
0
 10
26.9227
 20
-33.6433
 11
26.7948
 21
-33.427
  0
LINE
  8
0
 10
26.7948
 20
-33.427
 11
26.6807
 21
-33.2031
  0
LINE
  8
0
 10
26.6807
 20
-33.2031
 11
26.5809
 21
-32.9725
  0
LINE
  8
0
 10
26.5809
 20
-32.9725
 11
26.4958
 21
-32.7361
  0
LINE
  8
0
 10
26.4958
 20
-32.7361
 11
26.4257
 21
-32.4948
  0
LINE
  8
0
 10
26.4257
 20
-32.4948
 11
26.3708
 21
-32.2495
  0
LINE
  8
0
 10
26.3708
 20
-32.2495
 11
26.3315
 21
-32.0013
  0
LINE
  8
0
 10
26.3315
 20
-32.0013
 11
26.3079
 21
-31.7512
  0
LINE
  8
0
 10
26.3079
 20
-31.7512
 11
26.3
 21
-31.5
  0
LINE
  8
0
 10
26.3
 20
-31.5
 11
26.3079
 21
-31.2488
  0
LINE
  8
0
 10
26.3079
 20
-31.2488
 11
26.3315
 21
-30.9987
  0
LINE
  8
0
 10
26.3315
 20
-30.9987
 11
26.3708
 21
-30.7505
  0
LINE
  8
0
 10
26.3708
 20
-30.7505
 11
26.4257
 21
-30.5052
  0
LINE
  8
0
 10
26.4257
 20
-30.5052
 11
26.4958
 21
-30.2639
  0
LINE
  8
0
 10
26.4958
 20
-30.2639
 11
26.5809
 21
-30.0275
  0
LINE
  8
0
 10
26.5809
 20
-30.0275
 11
26.6807
 21
-29.7969
  0
LINE
  8
0
 10
26.6807
 20
-29.7969
 11
26.7948
 21
-29.573
  0
LINE
  8
0
 10
26.7948
 20
-29.573
 11
26.9227
 21
-29.3567
  0
LINE
  8
0
 10
26.9227
 20
-29.3567
 11
27.0639
 21
-29.1488
  0
LINE
  8
0
 10
27.0639
 20
-29.1488
 11
27.2179
 21
-28.9503
  0
LINE
  8
0
 10
27.2179
 20
-28.9503
 11
27.3841
 21
-28.7618
  0
LINE
  8
0
 10
27.3841
 20
-28.7618
 11
27.5618
 21
-28.5841
  0
LINE
  8
0
 10
27.5618
 20
-28.5841
 11
27.7503
 21
-28.4179
  0
LINE
  8
0
 10
27.7503
 20
-28.4179
 11
27.9489
 21
-28.2639
  0
LINE
  8
0
 10
27.9489
 20
-28.2639
 11
28.1567
 21
-28.1227
  0
LINE
  8
0
 10
28.1567
 20
-28.1227
 11
28.373
 21
-27.9948
  0
LINE
  8
0
 10
28.373
 20
-27.9948
 11
28.5969
 21
-27.8807
  0
LINE
  8
0
 10
28.5969
 20
-27.8807
 11
28.8275
 21
-27.7809
  0
LINE
  8
0
 10
28.8275
 20
-27.7809
 11
29.0639
 21
-27.6958
  0
LINE
  8
0
 10
29.0639
 20
-27.6958
 11
29.3052
 21
-27.6257
  0
LINE
  8
0
 10
29.3052
 20
-27.6257
 11
29.5505
 21
-27.5708
  0
LINE
  8
0
 10
29.5505
 20
-27.5708
 11
29.7987
 21
-27.5315
  0
LINE
  8
0
 10
29.7987
 20
-27.5315
 11
30.0488
 21
-27.5079
  0
LINE
  8
0
 10
30.0488
 20
-27.5079
 11
30.3
 21
-27.5
  0
LINE
  8
0
 10
30.3
 20
-27.5
 11
30.5511
 21
-27.5079
  0
LINE
  8
0
 10
30.5511
 20
-27.5079
 11
30.8013
 21
-27.5315
  0
LINE
  8
0
 10
30.8013
 20
-27.5315
 11
31.0495
 21
-27.5708
  0
LINE
  8
0
 10
31.0495
 20
-27.5708
 11
31.2948
 21
-27.6257
  0
LINE
  8
0
 10
31.2948
 20
-27.6257
 11
31.5361
 21
-27.6958
  0
LINE
  8
0
 10
31.5361
 20
-27.6958
 11
31.7725
 21
-27.7809
  0
LINE
  8
0
 10
31.7725
 20
-27.7809
 11
32.0031
 21
-27.8807
  0
LINE
  8
0
 10
32.0031
 20
-27.8807
 11
32.227
 21
-27.9948
  0
LINE
  8
0
 10
32.227
 20
-27.9948
 11
32.4433
 21
-28.1227
  0
LINE
  8
0
 10
32.4433
 20
-28.1227
 11
32.6511
 21
-28.2639
  0
LINE
  8
0
 10
32.6511
 20
-28.2639
 11
32.8497
 21
-28.4179
  0
LINE
  8
0
 10
32.8497
 20
-28.4179
 11
33.0382
 21
-28.5841
  0
LINE
  8
0
 10
33.0382
 20
-28.5841
 11
33.2159
 21
-28.7618
  0
LINE
  8
0
 10
33.2159
 20
-28.7618
 11
33.382
 21
-28.9503
  0
LINE
  8
0
 10
33.382
 20
-28.9503
 11
33.5361
 21
-29.1488
  0
LINE
  8
0
 10
33.5361
 20
-29.1488
 11
33.6773
 21
-29.3567
  0
LINE
  8
0
 10
33.6773
 20
-29.3567
 11
33.8052
 21
-29.573
  0
LINE
  8
0
 10
33.8052
 20
-29.573
 11
33.9193
 21
-29.7969
  0
LINE
  8
0
 10
33.9193
 20
-29.7969
 11
34.0191
 21
-30.0275
  0
LINE
  8
0
 10
34.0191
 20
-30.0275
 11
34.1042
 21
-30.2639
  0
LINE
  8
0
 10
34.1042
 20
-30.2639
 11
34.1743
 21
-30.5052
  0
LINE
  8
0
 10
34.1743
 20
-30.5052
 11
34.2291
 21
-30.7505
  0
LINE
  8
0
 10
34.2291
 20
-30.7505
 11
34.2684
 21
-30.9987
  0
LINE
  8
0
 10
34.2684
 20
-30.9987
 11
34.2921
 21
-31.2488
  0
LINE
  8
0
 10
34.2921
 20
-31.2488
 11
34.3
 21
-31.5
  0
LINE
  8
0
 10
34.3
 20
-31.5
 11
34.2921
 21
-31.7512
  0
LINE
  8
0
 10
34.2921
 20
-31.7512
 11
34.2684
 21
-32.0013
  0
LINE
  8
0
 10
34.2684
 20
-32.0013
 11
34.2291
 21
-32.2495
  0
LINE
  8
0
 10
34.2291
 20
-32.2495
 11
34.1743
 21
-32.4948
  0
LINE
  8
0
 10
34.1743
 20
-32.4948
 11
34.1042
 21
-32.7361
  0
LINE
  8
0
 10
34.1042
 20
-32.7361
 11
34.0191
 21
-32.9725
  0
LINE
  8
0
 10
34.0191
 20
-32.9725
 11
33.9193
 21
-33.2031
  0
LINE
  8
0
 10
33.9193
 20
-33.2031
 11
33.8052
 21
-33.427
  0
LINE
  8
0
 10
33.8052
 20
-33.427
 11
33.6773
 21
-33.6433
  0
LINE
  8
0
 10
33.6773
 20
-33.6433
 11
33.5361
 21
-33.8511
  0
LINE
  8
0
 10
33.5361
 20
-33.8511
 11
33.382
 21
-34.0497
  0
LINE
  8
0
 10
33.382
 20
-34.0497
 11
33.2159
 21
-34.2382
  0
LINE
  8
0
 10
33.2159
 20
-34.2382
 11
33.0382
 21
-34.4159
  0
LINE
  8
0
 10
33.0382
 20
-34.4159
 11
32.8497
 21
-34.582
  0
LINE
  8
0
 10
32.8497
 20
-34.582
 11
32.6511
 21
-34.7361
  0
LINE
  8
0
 10
32.6511
 20
-34.7361
 11
32.4433
 21
-34.8773
  0
LINE
  8
0
 10
32.4433
 20
-34.8773
 11
32.227
 21
-35.0052
  0
LINE
  8
0
 10
32.227
 20
-35.0052
 11
32.0031
 21
-35.1193
  0
LINE
  8
0
 10
32.0031
 20
-35.1193
 11
31.7725
 21
-35.2191
  0
LINE
  8
0
 10
31.7725
 20
-35.2191
 11
31.5361
 21
-35.3042
  0
LINE
  8
0
 10
31.5361
 20
-35.3042
 11
31.2948
 21
-35.3743
  0
LINE
  8
0
 10
31.2948
 20
-35.3743
 11
31.0495
 21
-35.4291
  0
LINE
  8
0
 10
31.0495
 20
-35.4291
 11
30.8013
 21
-35.4684
  0
LINE
  8
0
 10
30.8013
 20
-35.4684
 11
30.5511
 21
-35.4921
  0
LINE
  8
0
 10
30.5511
 20
-35.4921
 11
30.3
 21
-35.5
  0
LINE
  8
0
 10
30.3
 20
-35.5
 11
30.0488
 21
-35.4921
  0
ENDSEC
  0
SECTION
  2
OBJECTS
  0
DICTIONARY
  0
ENDSEC
  0
EOF
