  0
SECTION
  2
BLOCKS
  0
ENDSEC
  0
SECTION
  2
ENTITIES
  0
LINE
  8
0
 10
130.5
 20
52.5
 11
130.5
 21
57.5
  0
LINE
  8
0
 10
130.5
 20
57.5
 11
127.5
 21
57.5
  0
LINE
  8
0
 10
127.5
 20
57.5
 11
127.5
 21
62.5
  0
LINE
  8
0
 10
127.5
 20
62.5
 11
130.5
 21
62.5
  0
LINE
  8
0
 10
130.5
 20
62.5
 11
130.5
 21
67.5
  0
LINE
  8
0
 10
130.5
 20
67.5
 11
127.5
 21
67.5
  0
LINE
  8
0
 10
127.5
 20
67.5
 11
127.5
 21
72.5
  0
LINE
  8
0
 10
127.5
 20
72.5
 11
130.5
 21
72.5
  0
LINE
  8
0
 10
130.5
 20
72.5
 11
130.5
 21
77.5
  0
LINE
  8
0
 10
130.5
 20
77.5
 11
127.5
 21
77.5
  0
LINE
  8
0
 10
127.5
 20
77.5
 11
127.5
 21
82.5
  0
LINE
  8
0
 10
127.5
 20
82.5
 11
130.5
 21
82.5
  0
LINE
  8
0
 10
130.5
 20
82.5
 11
130.5
 21
87.5
  0
LINE
  8
0
 10
130.5
 20
87.5
 11
47.5
 21
87.5
  0
LINE
  8
0
 10
47.5
 20
87.5
 11
47.5
 21
82.5
  0
LINE
  8
0
 10
47.5
 20
82.5
 11
44.5
 21
82.5
  0
LINE
  8
0
 10
44.5
 20
82.5
 11
44.5
 21
77.5
  0
LINE
  8
0
 10
44.5
 20
77.5
 11
47.5
 21
77.5
  0
LINE
  8
0
 10
47.5
 20
77.5
 11
47.5
 21
72.5
  0
LINE
  8
0
 10
47.5
 20
72.5
 11
44.5
 21
72.5
  0
LINE
  8
0
 10
44.5
 20
72.5
 11
44.5
 21
67.5
  0
LINE
  8
0
 10
44.5
 20
67.5
 11
47.5
 21
67.5
  0
LINE
  8
0
 10
47.5
 20
67.5
 11
47.5
 21
62.5
  0
LINE
  8
0
 10
47.5
 20
62.5
 11
44.5
 21
62.5
  0
LINE
  8
0
 10
44.5
 20
62.5
 11
44.5
 21
57.5
  0
LINE
  8
0
 10
44.5
 20
57.5
 11
47.5
 21
57.5
  0
LINE
  8
0
 10
47.5
 20
57.5
 11
47.5
 21
52.5
  0
LINE
  8
0
 10
47.5
 20
52.5
 11
44.5
 21
52.5
  0
LINE
  8
0
 10
44.5
 20
52.5
 11
44.5
 21
47.5
  0
LINE
  8
0
 10
44.5
 20
47.5
 11
57.5
 21
47.5
  0
LINE
  8
0
 10
57.5
 20
47.5
 11
57.5
 21
44.5
  0
LINE
  8
0
 10
57.5
 20
44.5
 11
67.5
 21
44.5
  0
LINE
  8
0
 10
67.5
 20
44.5
 11
67.5
 21
47.5
  0
LINE
  8
0
 10
67.5
 20
47.5
 11
77.5
 21
47.5
  0
LINE
  8
0
 10
77.5
 20
47.5
 11
77.5
 21
44.5
  0
LINE
  8
0
 10
77.5
 20
44.5
 11
87.5
 21
44.5
  0
LINE
  8
0
 10
87.5
 20
44.5
 11
87.5
 21
47.5
  0
LINE
  8
0
 10
87.5
 20
47.5
 11
97.5
 21
47.5
  0
LINE
  8
0
 10
97.5
 20
47.5
 11
97.5
 21
44.5
  0
LINE
  8
0
 10
97.5
 20
44.5
 11
107.5
 21
44.5
  0
LINE
  8
0
 10
107.5
 20
44.5
 11
107.5
 21
47.5
  0
LINE
  8
0
 10
107.5
 20
47.5
 11
117.5
 21
47.5
  0
LINE
  8
0
 10
117.5
 20
47.5
 11
117.5
 21
44.5
  0
LINE
  8
0
 10
117.5
 20
44.5
 11
127.5
 21
44.5
  0
LINE
  8
0
 10
127.5
 20
44.5
 11
127.5
 21
52.5
  0
LINE
  8
0
 10
127.5
 20
52.5
 11
130.5
 21
52.5
  0
LINE
  8
0
 10
10
 20
47.5
 11
10
 21
44.5
  0
LINE
  8
0
 10
10
 20
44.5
 11
20
 21
44.5
  0
LINE
  8
0
 10
20
 20
44.5
 11
20
 21
47.5
  0
LINE
  8
0
 10
20
 20
47.5
 11
30
 21
47.5
  0
LINE
  8
0
 10
30
 20
47.5
 11
30
 21
44.5
  0
LINE
  8
0
 10
30
 20
44.5
 11
40
 21
44.5
  0
LINE
  8
0
 10
40
 20
44.5
 11
40
 21
52.5
  0
LINE
  8
0
 10
40
 20
52.5
 11
43
 21
52.5
  0
LINE
  8
0
 10
43
 20
52.5
 11
43
 21
57.5
  0
LINE
  8
0
 10
43
 20
57.5
 11
40
 21
57.5
  0
LINE
  8
0
 10
40
 20
57.5
 11
40
 21
62.5
  0
LINE
  8
0
 10
40
 20
62.5
 11
43
 21
62.5
  0
LINE
  8
0
 10
43
 20
62.5
 11
43
 21
67.5
  0
LINE
  8
0
 10
43
 20
67.5
 11
40
 21
67.5
  0
LINE
  8
0
 10
40
 20
67.5
 11
40
 21
72.5
  0
LINE
  8
0
 10
40
 20
72.5
 11
43
 21
72.5
  0
LINE
  8
0
 10
43
 20
72.5
 11
43
 21
77.5
  0
LINE
  8
0
 10
43
 20
77.5
 11
40
 21
77.5
  0
LINE
  8
0
 10
40
 20
77.5
 11
40
 21
82.5
  0
LINE
  8
0
 10
40
 20
82.5
 11
43
 21
82.5
  0
LINE
  8
0
 10
43
 20
82.5
 11
43
 21
87.5
  0
LINE
  8
0
 10
43
 20
87.5
 11
-40
 21
87.5
  0
LINE
  8
0
 10
-40
 20
87.5
 11
-40
 21
82.5
  0
LINE
  8
0
 10
-40
 20
82.5
 11
-43
 21
82.5
  0
LINE
  8
0
 10
-43
 20
82.5
 11
-43
 21
77.5
  0
LINE
  8
0
 10
-43
 20
77.5
 11
-40
 21
77.5
  0
LINE
  8
0
 10
-40
 20
77.5
 11
-40
 21
72.5
  0
LINE
  8
0
 10
-40
 20
72.5
 11
-43
 21
72.5
  0
LINE
  8
0
 10
-43
 20
72.5
 11
-43
 21
67.5
  0
LINE
  8
0
 10
-43
 20
67.5
 11
-40
 21
67.5
  0
LINE
  8
0
 10
-40
 20
67.5
 11
-40
 21
62.5
  0
LINE
  8
0
 10
-40
 20
62.5
 11
-43
 21
62.5
  0
LINE
  8
0
 10
-43
 20
62.5
 11
-43
 21
57.5
  0
LINE
  8
0
 10
-43
 20
57.5
 11
-40
 21
57.5
  0
LINE
  8
0
 10
-40
 20
57.5
 11
-40
 21
52.5
  0
LINE
  8
0
 10
-40
 20
52.5
 11
-43
 21
52.5
  0
LINE
  8
0
 10
-43
 20
52.5
 11
-43
 21
47.5
  0
LINE
  8
0
 10
-43
 20
47.5
 11
-30
 21
47.5
  0
LINE
  8
0
 10
-30
 20
47.5
 11
-30
 21
44.5
  0
LINE
  8
0
 10
-30
 20
44.5
 11
-20
 21
44.5
  0
LINE
  8
0
 10
-20
 20
44.5
 11
-20
 21
47.5
  0
LINE
  8
0
 10
-20
 20
47.5
 11
-10
 21
47.5
  0
LINE
  8
0
 10
-10
 20
47.5
 11
-10
 21
44.5
  0
LINE
  8
0
 10
-10
 20
44.5
 11
0
 21
44.5
  0
LINE
  8
0
 10
0
 20
44.5
 11
0
 21
47.5
  0
LINE
  8
0
 10
0
 20
47.5
 11
10
 21
47.5
  0
LINE
  8
0
 10
-20
 20
-40
 11
-10
 21
-40
  0
LINE
  8
0
 10
-10
 20
-40
 11
-10
 21
-43
  0
LINE
  8
0
 10
-10
 20
-43
 11
0
 21
-43
  0
LINE
  8
0
 10
0
 20
-43
 11
0
 21
-40
  0
LINE
  8
0
 10
0
 20
-40
 11
10
 21
-40
  0
LINE
  8
0
 10
10
 20
-40
 11
10
 21
-43
  0
LINE
  8
0
 10
10
 20
-43
 11
20
 21
-43
  0
LINE
  8
0
 10
20
 20
-43
 11
20
 21
-40
  0
LINE
  8
0
 10
20
 20
-40
 11
30
 21
-40
  0
LINE
  8
0
 10
30
 20
-40
 11
30
 21
-43
  0
LINE
  8
0
 10
30
 20
-43
 11
40
 21
-43
  0
LINE
  8
0
 10
40
 20
-43
 11
40
 21
-30
  0
LINE
  8
0
 10
40
 20
-30
 11
43
 21
-30
  0
LINE
  8
0
 10
43
 20
-30
 11
43
 21
-20
  0
LINE
  8
0
 10
43
 20
-20
 11
40
 21
-20
  0
LINE
  8
0
 10
40
 20
-20
 11
40
 21
-10
  0
LINE
  8
0
 10
40
 20
-10
 11
43
 21
-10
  0
LINE
  8
0
 10
43
 20
-10
 11
43
 21
0
  0
LINE
  8
0
 10
43
 20
0
 11
40
 21
0
  0
LINE
  8
0
 10
40
 20
0
 11
40
 21
10
  0
LINE
  8
0
 10
40
 20
10
 11
43
 21
10
  0
LINE
  8
0
 10
43
 20
10
 11
43
 21
20
  0
LINE
  8
0
 10
43
 20
20
 11
40
 21
20
  0
LINE
  8
0
 10
40
 20
20
 11
40
 21
30
  0
LINE
  8
0
 10
40
 20
30
 11
43
 21
30
  0
LINE
  8
0
 10
43
 20
30
 11
43
 21
40
  0
LINE
  8
0
 10
43
 20
40
 11
30
 21
40
  0
LINE
  8
0
 10
30
 20
40
 11
30
 21
43
  0
LINE
  8
0
 10
30
 20
43
 11
20
 21
43
  0
LINE
  8
0
 10
20
 20
43
 11
20
 21
40
  0
LINE
  8
0
 10
20
 20
40
 11
10
 21
40
  0
LINE
  8
0
 10
10
 20
40
 11
10
 21
43
  0
LINE
  8
0
 10
10
 20
43
 11
0
 21
43
  0
LINE
  8
0
 10
0
 20
43
 11
0
 21
40
  0
LINE
  8
0
 10
0
 20
40
 11
-10
 21
40
  0
LINE
  8
0
 10
-10
 20
40
 11
-10
 21
43
  0
LINE
  8
0
 10
-10
 20
43
 11
-20
 21
43
  0
LINE
  8
0
 10
-20
 20
43
 11
-20
 21
40
  0
LINE
  8
0
 10
-20
 20
40
 11
-30
 21
40
  0
LINE
  8
0
 10
-30
 20
40
 11
-30
 21
43
  0
LINE
  8
0
 10
-30
 20
43
 11
-40
 21
43
  0
LINE
  8
0
 10
-40
 20
43
 11
-40
 21
30
  0
LINE
  8
0
 10
-40
 20
30
 11
-43
 21
30
  0
LINE
  8
0
 10
-43
 20
30
 11
-43
 21
20
  0
LINE
  8
0
 10
-43
 20
20
 11
-40
 21
20
  0
LINE
  8
0
 10
-40
 20
20
 11
-40
 21
10
  0
LINE
  8
0
 10
-40
 20
10
 11
-43
 21
10
  0
LINE
  8
0
 10
-43
 20
10
 11
-43
 21
0
  0
LINE
  8
0
 10
-43
 20
0
 11
-40
 21
0
  0
LINE
  8
0
 10
-40
 20
0
 11
-40
 21
-10
  0
LINE
  8
0
 10
-40
 20
-10
 11
-43
 21
-10
  0
LINE
  8
0
 10
-43
 20
-10
 11
-43
 21
-20
  0
LINE
  8
0
 10
-43
 20
-20
 11
-40
 21
-20
  0
LINE
  8
0
 10
-40
 20
-20
 11
-40
 21
-30
  0
LINE
  8
0
 10
-40
 20
-30
 11
-43
 21
-30
  0
LINE
  8
0
 10
-43
 20
-30
 11
-43
 21
-40
  0
LINE
  8
0
 10
-43
 20
-40
 11
-30
 21
-40
  0
LINE
  8
0
 10
-30
 20
-40
 11
-30
 21
-43
  0
LINE
  8
0
 10
-30
 20
-43
 11
-20
 21
-43
  0
LINE
  8
0
 10
-20
 20
-43
 11
-20
 21
-40
  0
LINE
  8
0
 10
127.5
 20
-37
 11
130.5
 21
-37
  0
LINE
  8
0
 10
130.5
 20
-37
 11
130.5
 21
-34
  0
LINE
  8
0
 10
130.5
 20
-34
 11
127.5
 21
-34
  0
LINE
  8
0
 10
127.5
 20
-34
 11
127.5
 21
40
  0
LINE
  8
0
 10
127.5
 20
40
 11
90.5
 21
40
  0
LINE
  8
0
 10
90.5
 20
40
 11
90.5
 21
43
  0
LINE
  8
0
 10
90.5
 20
43
 11
84.5
 21
43
  0
LINE
  8
0
 10
84.5
 20
43
 11
84.5
 21
40
  0
LINE
  8
0
 10
84.5
 20
40
 11
47.5
 21
40
  0
LINE
  8
0
 10
47.5
 20
40
 11
47.5
 21
-34
  0
LINE
  8
0
 10
47.5
 20
-34
 11
44.5
 21
-34
  0
LINE
  8
0
 10
44.5
 20
-34
 11
44.5
 21
-37
  0
LINE
  8
0
 10
44.5
 20
-37
 11
47.5
 21
-37
  0
LINE
  8
0
 10
47.5
 20
-37
 11
47.5
 21
-40
  0
LINE
  8
0
 10
47.5
 20
-40
 11
127.5
 21
-40
  0
LINE
  8
0
 10
127.5
 20
-40
 11
127.5
 21
-37
  0
LINE
  8
0
 10
-10
 20
-127.5
 11
-5
 21
-127.5
  0
LINE
  8
0
 10
-5
 20
-127.5
 11
-5
 21
-130.5
  0
LINE
  8
0
 10
-5
 20
-130.5
 11
0
 21
-130.5
  0
LINE
  8
0
 10
0
 20
-130.5
 11
0
 21
-127.5
  0
LINE
  8
0
 10
0
 20
-127.5
 11
5
 21
-127.5
  0
LINE
  8
0
 10
5
 20
-127.5
 11
5
 21
-130.5
  0
LINE
  8
0
 10
5
 20
-130.5
 11
10
 21
-130.5
  0
LINE
  8
0
 10
10
 20
-130.5
 11
10
 21
-127.5
  0
LINE
  8
0
 10
10
 20
-127.5
 11
15
 21
-127.5
  0
LINE
  8
0
 10
15
 20
-127.5
 11
15
 21
-130.5
  0
LINE
  8
0
 10
15
 20
-130.5
 11
20
 21
-130.5
  0
LINE
  8
0
 10
20
 20
-130.5
 11
20
 21
-117.5
  0
LINE
  8
0
 10
20
 20
-117.5
 11
23
 21
-117.5
  0
LINE
  8
0
 10
23
 20
-117.5
 11
23
 21
-107.5
  0
LINE
  8
0
 10
23
 20
-107.5
 11
20
 21
-107.5
  0
LINE
  8
0
 10
20
 20
-107.5
 11
20
 21
-97.5
  0
LINE
  8
0
 10
20
 20
-97.5
 11
23
 21
-97.5
  0
LINE
  8
0
 10
23
 20
-97.5
 11
23
 21
-87.5
  0
LINE
  8
0
 10
23
 20
-87.5
 11
20
 21
-87.5
  0
LINE
  8
0
 10
20
 20
-87.5
 11
20
 21
-77.5
  0
LINE
  8
0
 10
20
 20
-77.5
 11
23
 21
-77.5
  0
LINE
  8
0
 10
23
 20
-77.5
 11
23
 21
-67.5
  0
LINE
  8
0
 10
23
 20
-67.5
 11
20
 21
-67.5
  0
LINE
  8
0
 10
20
 20
-67.5
 11
20
 21
-57.5
  0
LINE
  8
0
 10
20
 20
-57.5
 11
23
 21
-57.5
  0
LINE
  8
0
 10
23
 20
-57.5
 11
23
 21
-47.5
  0
LINE
  8
0
 10
23
 20
-47.5
 11
15
 21
-47.5
  0
LINE
  8
0
 10
15
 20
-47.5
 11
15
 21
-44.5
  0
LINE
  8
0
 10
15
 20
-44.5
 11
10
 21
-44.5
  0
LINE
  8
0
 10
10
 20
-44.5
 11
10
 21
-47.5
  0
LINE
  8
0
 10
10
 20
-47.5
 11
5
 21
-47.5
  0
LINE
  8
0
 10
5
 20
-47.5
 11
5
 21
-44.5
  0
LINE
  8
0
 10
5
 20
-44.5
 11
0
 21
-44.5
  0
LINE
  8
0
 10
0
 20
-44.5
 11
0
 21
-47.5
  0
LINE
  8
0
 10
0
 20
-47.5
 11
-5
 21
-47.5
  0
LINE
  8
0
 10
-5
 20
-47.5
 11
-5
 21
-44.5
  0
LINE
  8
0
 10
-5
 20
-44.5
 11
-10
 21
-44.5
  0
LINE
  8
0
 10
-10
 20
-44.5
 11
-10
 21
-47.5
  0
LINE
  8
0
 10
-10
 20
-47.5
 11
-15
 21
-47.5
  0
LINE
  8
0
 10
-15
 20
-47.5
 11
-15
 21
-44.5
  0
LINE
  8
0
 10
-15
 20
-44.5
 11
-20
 21
-44.5
  0
LINE
  8
0
 10
-20
 20
-44.5
 11
-20
 21
-48.2928
  0
LINE
  8
0
 10
-20
 20
-48.2928
 11
-20.2031
 21
-48.3807
  0
LINE
  8
0
 10
-20.2031
 20
-48.3807
 11
-20.427
 21
-48.4948
  0
LINE
  8
0
 10
-20.427
 20
-48.4948
 11
-20.6433
 21
-48.6227
  0
LINE
  8
0
 10
-20.6433
 20
-48.6227
 11
-20.8511
 21
-48.7639
  0
LINE
  8
0
 10
-20.8511
 20
-48.7639
 11
-21.0497
 21
-48.918
  0
LINE
  8
0
 10
-21.0497
 20
-48.918
 11
-21.2382
 21
-49.0841
  0
LINE
  8
0
 10
-21.2382
 20
-49.0841
 11
-21.4159
 21
-49.2618
  0
LINE
  8
0
 10
-21.4159
 20
-49.2618
 11
-21.582
 21
-49.4503
  0
LINE
  8
0
 10
-21.582
 20
-49.4503
 11
-21.7361
 21
-49.6489
  0
LINE
  8
0
 10
-21.7361
 20
-49.6489
 11
-21.8773
 21
-49.8567
  0
LINE
  8
0
 10
-21.8773
 20
-49.8567
 11
-22.0052
 21
-50.073
  0
LINE
  8
0
 10
-22.0052
 20
-50.073
 11
-22.1193
 21
-50.2969
  0
LINE
  8
0
 10
-22.1193
 20
-50.2969
 11
-22.2191
 21
-50.5275
  0
LINE
  8
0
 10
-22.2191
 20
-50.5275
 11
-22.3042
 21
-50.7639
  0
LINE
  8
0
 10
-22.3042
 20
-50.7639
 11
-22.3743
 21
-51.0052
  0
LINE
  8
0
 10
-22.3743
 20
-51.0052
 11
-22.4291
 21
-51.2505
  0
LINE
  8
0
 10
-22.4291
 20
-51.2505
 11
-22.4684
 21
-51.4987
  0
LINE
  8
0
 10
-22.4684
 20
-51.4987
 11
-22.4921
 21
-51.7488
  0
LINE
  8
0
 10
-22.4921
 20
-51.7488
 11
-22.5
 21
-52
  0
LINE
  8
0
 10
-22.5
 20
-52
 11
-22.4921
 21
-52.2512
  0
LINE
  8
0
 10
-22.4921
 20
-52.2512
 11
-22.4684
 21
-52.5013
  0
LINE
  8
0
 10
-22.4684
 20
-52.5013
 11
-22.4291
 21
-52.7495
  0
LINE
  8
0
 10
-22.4291
 20
-52.7495
 11
-22.3743
 21
-52.9948
  0
LINE
  8
0
 10
-22.3743
 20
-52.9948
 11
-22.3042
 21
-53.2361
  0
LINE
  8
0
 10
-22.3042
 20
-53.2361
 11
-22.2191
 21
-53.4725
  0
LINE
  8
0
 10
-22.2191
 20
-53.4725
 11
-22.1193
 21
-53.7031
  0
LINE
  8
0
 10
-22.1193
 20
-53.7031
 11
-22.0052
 21
-53.927
  0
LINE
  8
0
 10
-22.0052
 20
-53.927
 11
-21.8773
 21
-54.1433
  0
LINE
  8
0
 10
-21.8773
 20
-54.1433
 11
-21.7361
 21
-54.3512
  0
LINE
  8
0
 10
-21.7361
 20
-54.3512
 11
-21.582
 21
-54.5497
  0
LINE
  8
0
 10
-21.582
 20
-54.5497
 11
-21.4159
 21
-54.7382
  0
LINE
  8
0
 10
-21.4159
 20
-54.7382
 11
-21.2382
 21
-54.9159
  0
LINE
  8
0
 10
-21.2382
 20
-54.9159
 11
-21.0497
 21
-55.0821
  0
LINE
  8
0
 10
-21.0497
 20
-55.0821
 11
-20.8511
 21
-55.2361
  0
LINE
  8
0
 10
-20.8511
 20
-55.2361
 11
-20.6433
 21
-55.3773
  0
LINE
  8
0
 10
-20.6433
 20
-55.3773
 11
-20.427
 21
-55.5052
  0
LINE
  8
0
 10
-20.427
 20
-55.5052
 11
-20.2031
 21
-55.6193
  0
LINE
  8
0
 10
-20.2031
 20
-55.6193
 11
-20
 21
-55.7072
  0
LINE
  8
0
 10
-20
 20
-55.7072
 11
-20
 21
-127.5
  0
LINE
  8
0
 10
-20
 20
-127.5
 11
-15
 21
-127.5
  0
LINE
  8
0
 10
-15
 20
-127.5
 11
-15
 21
-130.5
  0
LINE
  8
0
 10
-15
 20
-130.5
 11
-10
 21
-130.5
  0
LINE
  8
0
 10
-10
 20
-130.5
 11
-10
 21
-127.5
  0
LINE
  8
0
 10
-18.6256
 20
-53.9961
 11
-18.7507
 21
-53.9842
  0
LINE
  8
0
 10
-18.7507
 20
-53.9842
 11
-18.8748
 21
-53.9646
  0
LINE
  8
0
 10
-18.8748
 20
-53.9646
 11
-18.9974
 21
-53.9372
  0
LINE
  8
0
 10
-18.9974
 20
-53.9372
 11
-19.118
 21
-53.9021
  0
LINE
  8
0
 10
-19.118
 20
-53.9021
 11
-19.2362
 21
-53.8596
  0
LINE
  8
0
 10
-19.2362
 20
-53.8596
 11
-19.3515
 21
-53.8097
  0
LINE
  8
0
 10
-19.3515
 20
-53.8097
 11
-19.4635
 21
-53.7526
  0
LINE
  8
0
 10
-19.4635
 20
-53.7526
 11
-19.5716
 21
-53.6887
  0
LINE
  8
0
 10
-19.5716
 20
-53.6887
 11
-19.6756
 21
-53.618
  0
LINE
  8
0
 10
-19.6756
 20
-53.618
 11
-19.7748
 21
-53.541
  0
LINE
  8
0
 10
-19.7748
 20
-53.541
 11
-19.8691
 21
-53.4579
  0
LINE
  8
0
 10
-19.8691
 20
-53.4579
 11
-19.9579
 21
-53.3691
  0
LINE
  8
0
 10
-19.9579
 20
-53.3691
 11
-20.041
 21
-53.2749
  0
LINE
  8
0
 10
-20.041
 20
-53.2749
 11
-20.118
 21
-53.1756
  0
LINE
  8
0
 10
-20.118
 20
-53.1756
 11
-20.1886
 21
-53.0717
  0
LINE
  8
0
 10
-20.1886
 20
-53.0717
 11
-20.2526
 21
-52.9635
  0
LINE
  8
0
 10
-20.2526
 20
-52.9635
 11
-20.3096
 21
-52.8516
  0
LINE
  8
0
 10
-20.3096
 20
-52.8516
 11
-20.3595
 21
-52.7363
  0
LINE
  8
0
 10
-20.3595
 20
-52.7363
 11
-20.4021
 21
-52.618
  0
LINE
  8
0
 10
-20.4021
 20
-52.618
 11
-20.4372
 21
-52.4974
  0
LINE
  8
0
 10
-20.4372
 20
-52.4974
 11
-20.4646
 21
-52.3748
  0
LINE
  8
0
 10
-20.4646
 20
-52.3748
 11
-20.4842
 21
-52.2507
  0
LINE
  8
0
 10
-20.4842
 20
-52.2507
 11
-20.496
 21
-52.1256
  0
LINE
  8
0
 10
-20.496
 20
-52.1256
 11
-20.5
 21
-52
  0
LINE
  8
0
 10
-20.5
 20
-52
 11
-20.496
 21
-51.8744
  0
LINE
  8
0
 10
-20.496
 20
-51.8744
 11
-20.4842
 21
-51.7493
  0
LINE
  8
0
 10
-20.4842
 20
-51.7493
 11
-20.4646
 21
-51.6252
  0
LINE
  8
0
 10
-20.4646
 20
-51.6252
 11
-20.4372
 21
-51.5026
  0
LINE
  8
0
 10
-20.4372
 20
-51.5026
 11
-20.4021
 21
-51.382
  0
LINE
  8
0
 10
-20.4021
 20
-51.382
 11
-20.3595
 21
-51.2638
  0
LINE
  8
0
 10
-20.3595
 20
-51.2638
 11
-20.3096
 21
-51.1485
  0
LINE
  8
0
 10
-20.3096
 20
-51.1485
 11
-20.2526
 21
-51.0365
  0
LINE
  8
0
 10
-20.2526
 20
-51.0365
 11
-20.1886
 21
-50.9284
  0
LINE
  8
0
 10
-20.1886
 20
-50.9284
 11
-20.118
 21
-50.8244
  0
LINE
  8
0
 10
-20.118
 20
-50.8244
 11
-20.041
 21
-50.7252
  0
LINE
  8
0
 10
-20.041
 20
-50.7252
 11
-19.9579
 21
-50.6309
  0
LINE
  8
0
 10
-19.9579
 20
-50.6309
 11
-19.8691
 21
-50.5421
  0
LINE
  8
0
 10
-19.8691
 20
-50.5421
 11
-19.7748
 21
-50.459
  0
LINE
  8
0
 10
-19.7748
 20
-50.459
 11
-19.6756
 21
-50.382
  0
LINE
  8
0
 10
-19.6756
 20
-50.382
 11
-19.5716
 21
-50.3114
  0
LINE
  8
0
 10
-19.5716
 20
-50.3114
 11
-19.4635
 21
-50.2474
  0
LINE
  8
0
 10
-19.4635
 20
-50.2474
 11
-19.3515
 21
-50.1904
  0
LINE
  8
0
 10
-19.3515
 20
-50.1904
 11
-19.2362
 21
-50.1405
  0
LINE
  8
0
 10
-19.2362
 20
-50.1405
 11
-19.118
 21
-50.0979
  0
LINE
  8
0
 10
-19.118
 20
-50.0979
 11
-18.9974
 21
-50.0628
  0
LINE
  8
0
 10
-18.9974
 20
-50.0628
 11
-18.8748
 21
-50.0354
  0
LINE
  8
0
 10
-18.8748
 20
-50.0354
 11
-18.7507
 21
-50.0158
  0
LINE
  8
0
 10
-18.7507
 20
-50.0158
 11
-18.6256
 21
-50.004
  0
LINE
  8
0
 10
-18.6256
 20
-50.004
 11
-18.5
 21
-50
  0
LINE
  8
0
 10
-18.5
 20
-50
 11
-18.3744
 21
-50.004
  0
LINE
  8
0
 10
-18.3744
 20
-50.004
 11
-18.2493
 21
-50.0158
  0
LINE
  8
0
 10
-18.2493
 20
-50.0158
 11
-18.1252
 21
-50.0354
  0
LINE
  8
0
 10
-18.1252
 20
-50.0354
 11
-18.0026
 21
-50.0628
  0
LINE
  8
0
 10
-18.0026
 20
-50.0628
 11
-17.882
 21
-50.0979
  0
LINE
  8
0
 10
-17.882
 20
-50.0979
 11
-17.7637
 21
-50.1405
  0
LINE
  8
0
 10
-17.7637
 20
-50.1405
 11
-17.6484
 21
-50.1904
  0
LINE
  8
0
 10
-17.6484
 20
-50.1904
 11
-17.5365
 21
-50.2474
  0
LINE
  8
0
 10
-17.5365
 20
-50.2474
 11
-17.4283
 21
-50.3114
  0
LINE
  8
0
 10
-17.4283
 20
-50.3114
 11
-17.3244
 21
-50.382
  0
LINE
  8
0
 10
-17.3244
 20
-50.382
 11
-17.2251
 21
-50.459
  0
LINE
  8
0
 10
-17.2251
 20
-50.459
 11
-17.1309
 21
-50.5421
  0
LINE
  8
0
 10
-17.1309
 20
-50.5421
 11
-17.0421
 21
-50.6309
  0
LINE
  8
0
 10
-17.0421
 20
-50.6309
 11
-16.959
 21
-50.7252
  0
LINE
  8
0
 10
-16.959
 20
-50.7252
 11
-16.882
 21
-50.8244
  0
LINE
  8
0
 10
-16.882
 20
-50.8244
 11
-16.8113
 21
-50.9284
  0
LINE
  8
0
 10
-16.8113
 20
-50.9284
 11
-16.7474
 21
-51.0365
  0
LINE
  8
0
 10
-16.7474
 20
-51.0365
 11
-16.6903
 21
-51.1485
  0
LINE
  8
0
 10
-16.6903
 20
-51.1485
 11
-16.6404
 21
-51.2638
  0
LINE
  8
0
 10
-16.6404
 20
-51.2638
 11
-16.5979
 21
-51.382
  0
LINE
  8
0
 10
-16.5979
 20
-51.382
 11
-16.5628
 21
-51.5026
  0
LINE
  8
0
 10
-16.5628
 20
-51.5026
 11
-16.5354
 21
-51.6252
  0
LINE
  8
0
 10
-16.5354
 20
-51.6252
 11
-16.5158
 21
-51.7493
  0
LINE
  8
0
 10
-16.5158
 20
-51.7493
 11
-16.5039
 21
-51.8744
  0
LINE
  8
0
 10
-16.5039
 20
-51.8744
 11
-16.5
 21
-52
  0
LINE
  8
0
 10
-16.5
 20
-52
 11
-16.5039
 21
-52.1256
  0
LINE
  8
0
 10
-16.5039
 20
-52.1256
 11
-16.5158
 21
-52.2507
  0
LINE
  8
0
 10
-16.5158
 20
-52.2507
 11
-16.5354
 21
-52.3748
  0
LINE
  8
0
 10
-16.5354
 20
-52.3748
 11
-16.5628
 21
-52.4974
  0
LINE
  8
0
 10
-16.5628
 20
-52.4974
 11
-16.5979
 21
-52.618
  0
LINE
  8
0
 10
-16.5979
 20
-52.618
 11
-16.6404
 21
-52.7363
  0
LINE
  8
0
 10
-16.6404
 20
-52.7363
 11
-16.6903
 21
-52.8516
  0
LINE
  8
0
 10
-16.6903
 20
-52.8516
 11
-16.7474
 21
-52.9635
  0
LINE
  8
0
 10
-16.7474
 20
-52.9635
 11
-16.8113
 21
-53.0717
  0
LINE
  8
0
 10
-16.8113
 20
-53.0717
 11
-16.882
 21
-53.1756
  0
LINE
  8
0
 10
-16.882
 20
-53.1756
 11
-16.959
 21
-53.2749
  0
LINE
  8
0
 10
-16.959
 20
-53.2749
 11
-17.0421
 21
-53.3691
  0
LINE
  8
0
 10
-17.0421
 20
-53.3691
 11
-17.1309
 21
-53.4579
  0
LINE
  8
0
 10
-17.1309
 20
-53.4579
 11
-17.2251
 21
-53.541
  0
LINE
  8
0
 10
-17.2251
 20
-53.541
 11
-17.3244
 21
-53.618
  0
LINE
  8
0
 10
-17.3244
 20
-53.618
 11
-17.4283
 21
-53.6887
  0
LINE
  8
0
 10
-17.4283
 20
-53.6887
 11
-17.5365
 21
-53.7526
  0
LINE
  8
0
 10
-17.5365
 20
-53.7526
 11
-17.6484
 21
-53.8097
  0
LINE
  8
0
 10
-17.6484
 20
-53.8097
 11
-17.7637
 21
-53.8596
  0
LINE
  8
0
 10
-17.7637
 20
-53.8596
 11
-17.882
 21
-53.9021
  0
LINE
  8
0
 10
-17.882
 20
-53.9021
 11
-18.0026
 21
-53.9372
  0
LINE
  8
0
 10
-18.0026
 20
-53.9372
 11
-18.1252
 21
-53.9646
  0
LINE
  8
0
 10
-18.1252
 20
-53.9646
 11
-18.2493
 21
-53.9842
  0
LINE
  8
0
 10
-18.2493
 20
-53.9842
 11
-18.3744
 21
-53.9961
  0
LINE
  8
0
 10
-18.3744
 20
-53.9961
 11
-18.5
 21
-54
  0
LINE
  8
0
 10
-18.5
 20
-54
 11
-18.6256
 21
-53.9961
  0
LINE
  8
0
 10
37.5
 20
-127.5
 11
42.5
 21
-127.5
  0
LINE
  8
0
 10
42.5
 20
-127.5
 11
42.5
 21
-130.5
  0
LINE
  8
0
 10
42.5
 20
-130.5
 11
47.5
 21
-130.5
  0
LINE
  8
0
 10
47.5
 20
-130.5
 11
47.5
 21
-127.5
  0
LINE
  8
0
 10
47.5
 20
-127.5
 11
52.5
 21
-127.5
  0
LINE
  8
0
 10
52.5
 20
-127.5
 11
52.5
 21
-130.5
  0
LINE
  8
0
 10
52.5
 20
-130.5
 11
57.5
 21
-130.5
  0
LINE
  8
0
 10
57.5
 20
-130.5
 11
57.5
 21
-127.5
  0
LINE
  8
0
 10
57.5
 20
-127.5
 11
62.5
 21
-127.5
  0
LINE
  8
0
 10
62.5
 20
-127.5
 11
62.5
 21
-130.5
  0
LINE
  8
0
 10
62.5
 20
-130.5
 11
67.5
 21
-130.5
  0
LINE
  8
0
 10
67.5
 20
-130.5
 11
67.5
 21
-117.5
  0
LINE
  8
0
 10
67.5
 20
-117.5
 11
70.5
 21
-117.5
  0
LINE
  8
0
 10
70.5
 20
-117.5
 11
70.5
 21
-107.5
  0
LINE
  8
0
 10
70.5
 20
-107.5
 11
67.5
 21
-107.5
  0
LINE
  8
0
 10
67.5
 20
-107.5
 11
67.5
 21
-97.5
  0
LINE
  8
0
 10
67.5
 20
-97.5
 11
70.5
 21
-97.5
  0
LINE
  8
0
 10
70.5
 20
-97.5
 11
70.5
 21
-87.5
  0
LINE
  8
0
 10
70.5
 20
-87.5
 11
67.5
 21
-87.5
  0
LINE
  8
0
 10
67.5
 20
-87.5
 11
67.5
 21
-77.5
  0
LINE
  8
0
 10
67.5
 20
-77.5
 11
70.5
 21
-77.5
  0
LINE
  8
0
 10
70.5
 20
-77.5
 11
70.5
 21
-67.5
  0
LINE
  8
0
 10
70.5
 20
-67.5
 11
67.5
 21
-67.5
  0
LINE
  8
0
 10
67.5
 20
-67.5
 11
67.5
 21
-57.5
  0
LINE
  8
0
 10
67.5
 20
-57.5
 11
70.5
 21
-57.5
  0
LINE
  8
0
 10
70.5
 20
-57.5
 11
70.5
 21
-47.5
  0
LINE
  8
0
 10
70.5
 20
-47.5
 11
62.5
 21
-47.5
  0
LINE
  8
0
 10
62.5
 20
-47.5
 11
62.5
 21
-44.5
  0
LINE
  8
0
 10
62.5
 20
-44.5
 11
57.5
 21
-44.5
  0
LINE
  8
0
 10
57.5
 20
-44.5
 11
57.5
 21
-47.5
  0
LINE
  8
0
 10
57.5
 20
-47.5
 11
52.5
 21
-47.5
  0
LINE
  8
0
 10
52.5
 20
-47.5
 11
52.5
 21
-44.5
  0
LINE
  8
0
 10
52.5
 20
-44.5
 11
47.5
 21
-44.5
  0
LINE
  8
0
 10
47.5
 20
-44.5
 11
47.5
 21
-47.5
  0
LINE
  8
0
 10
47.5
 20
-47.5
 11
42.5
 21
-47.5
  0
LINE
  8
0
 10
42.5
 20
-47.5
 11
42.5
 21
-44.5
  0
LINE
  8
0
 10
42.5
 20
-44.5
 11
37.5
 21
-44.5
  0
LINE
  8
0
 10
37.5
 20
-44.5
 11
37.5
 21
-47.5
  0
LINE
  8
0
 10
37.5
 20
-47.5
 11
32.5
 21
-47.5
  0
LINE
  8
0
 10
32.5
 20
-47.5
 11
32.5
 21
-44.5
  0
LINE
  8
0
 10
32.5
 20
-44.5
 11
27.5
 21
-44.5
  0
LINE
  8
0
 10
27.5
 20
-44.5
 11
27.5
 21
-119.293
  0
LINE
  8
0
 10
27.5
 20
-119.293
 11
27.2969
 21
-119.381
  0
LINE
  8
0
 10
27.2969
 20
-119.381
 11
27.073
 21
-119.495
  0
LINE
  8
0
 10
27.073
 20
-119.495
 11
26.8567
 21
-119.623
  0
LINE
  8
0
 10
26.8567
 20
-119.623
 11
26.6488
 21
-119.764
  0
LINE
  8
0
 10
26.6488
 20
-119.764
 11
26.4503
 21
-119.918
  0
LINE
  8
0
 10
26.4503
 20
-119.918
 11
26.2618
 21
-120.084
  0
LINE
  8
0
 10
26.2618
 20
-120.084
 11
26.0841
 21
-120.262
  0
LINE
  8
0
 10
26.0841
 20
-120.262
 11
25.9179
 21
-120.45
  0
LINE
  8
0
 10
25.9179
 20
-120.45
 11
25.7639
 21
-120.649
  0
LINE
  8
0
 10
25.7639
 20
-120.649
 11
25.6227
 21
-120.857
  0
LINE
  8
0
 10
25.6227
 20
-120.857
 11
25.4948
 21
-121.073
  0
LINE
  8
0
 10
25.4948
 20
-121.073
 11
25.3807
 21
-121.297
  0
LINE
  8
0
 10
25.3807
 20
-121.297
 11
25.2809
 21
-121.527
  0
LINE
  8
0
 10
25.2809
 20
-121.527
 11
25.1958
 21
-121.764
  0
LINE
  8
0
 10
25.1958
 20
-121.764
 11
25.1257
 21
-122.005
  0
LINE
  8
0
 10
25.1257
 20
-122.005
 11
25.0708
 21
-122.25
  0
LINE
  8
0
 10
25.0708
 20
-122.25
 11
25.0315
 21
-122.499
  0
LINE
  8
0
 10
25.0315
 20
-122.499
 11
25.0079
 21
-122.749
  0
LINE
  8
0
 10
25.0079
 20
-122.749
 11
25
 21
-123
  0
LINE
  8
0
 10
25
 20
-123
 11
25.0079
 21
-123.251
  0
LINE
  8
0
 10
25.0079
 20
-123.251
 11
25.0315
 21
-123.501
  0
LINE
  8
0
 10
25.0315
 20
-123.501
 11
25.0708
 21
-123.75
  0
LINE
  8
0
 10
25.0708
 20
-123.75
 11
25.1257
 21
-123.995
  0
LINE
  8
0
 10
25.1257
 20
-123.995
 11
25.1958
 21
-124.236
  0
LINE
  8
0
 10
25.1958
 20
-124.236
 11
25.2809
 21
-124.472
  0
LINE
  8
0
 10
25.2809
 20
-124.472
 11
25.3807
 21
-124.703
  0
LINE
  8
0
 10
25.3807
 20
-124.703
 11
25.4948
 21
-124.927
  0
LINE
  8
0
 10
25.4948
 20
-124.927
 11
25.6227
 21
-125.143
  0
LINE
  8
0
 10
25.6227
 20
-125.143
 11
25.7639
 21
-125.351
  0
LINE
  8
0
 10
25.7639
 20
-125.351
 11
25.9179
 21
-125.55
  0
LINE
  8
0
 10
25.9179
 20
-125.55
 11
26.0841
 21
-125.738
  0
LINE
  8
0
 10
26.0841
 20
-125.738
 11
26.2618
 21
-125.916
  0
LINE
  8
0
 10
26.2618
 20
-125.916
 11
26.4503
 21
-126.082
  0
LINE
  8
0
 10
26.4503
 20
-126.082
 11
26.6488
 21
-126.236
  0
LINE
  8
0
 10
26.6488
 20
-126.236
 11
26.8567
 21
-126.377
  0
LINE
  8
0
 10
26.8567
 20
-126.377
 11
27.073
 21
-126.505
  0
LINE
  8
0
 10
27.073
 20
-126.505
 11
27.2969
 21
-126.619
  0
LINE
  8
0
 10
27.2969
 20
-126.619
 11
27.5
 21
-126.707
  0
LINE
  8
0
 10
27.5
 20
-126.707
 11
27.5
 21
-127.5
  0
LINE
  8
0
 10
27.5
 20
-127.5
 11
32.5
 21
-127.5
  0
LINE
  8
0
 10
32.5
 20
-127.5
 11
32.5
 21
-130.5
  0
LINE
  8
0
 10
32.5
 20
-130.5
 11
37.5
 21
-130.5
  0
LINE
  8
0
 10
37.5
 20
-130.5
 11
37.5
 21
-127.5
  0
LINE
  8
0
 10
28.8744
 20
-124.996
 11
28.7493
 21
-124.984
  0
LINE
  8
0
 10
28.7493
 20
-124.984
 11
28.6252
 21
-124.965
  0
LINE
  8
0
 10
28.6252
 20
-124.965
 11
28.5026
 21
-124.937
  0
LINE
  8
0
 10
28.5026
 20
-124.937
 11
28.382
 21
-124.902
  0
LINE
  8
0
 10
28.382
 20
-124.902
 11
28.2637
 21
-124.86
  0
LINE
  8
0
 10
28.2637
 20
-124.86
 11
28.1484
 21
-124.81
  0
LINE
  8
0
 10
28.1484
 20
-124.81
 11
28.0365
 21
-124.753
  0
LINE
  8
0
 10
28.0365
 20
-124.753
 11
27.9283
 21
-124.689
  0
LINE
  8
0
 10
27.9283
 20
-124.689
 11
27.8244
 21
-124.618
  0
LINE
  8
0
 10
27.8244
 20
-124.618
 11
27.7251
 21
-124.541
  0
LINE
  8
0
 10
27.7251
 20
-124.541
 11
27.6309
 21
-124.458
  0
LINE
  8
0
 10
27.6309
 20
-124.458
 11
27.5421
 21
-124.369
  0
LINE
  8
0
 10
27.5421
 20
-124.369
 11
27.459
 21
-124.275
  0
LINE
  8
0
 10
27.459
 20
-124.275
 11
27.382
 21
-124.176
  0
LINE
  8
0
 10
27.382
 20
-124.176
 11
27.3113
 21
-124.072
  0
LINE
  8
0
 10
27.3113
 20
-124.072
 11
27.2474
 21
-123.964
  0
LINE
  8
0
 10
27.2474
 20
-123.964
 11
27.1903
 21
-123.852
  0
LINE
  8
0
 10
27.1903
 20
-123.852
 11
27.1404
 21
-123.736
  0
LINE
  8
0
 10
27.1404
 20
-123.736
 11
27.0979
 21
-123.618
  0
LINE
  8
0
 10
27.0979
 20
-123.618
 11
27.0628
 21
-123.497
  0
LINE
  8
0
 10
27.0628
 20
-123.497
 11
27.0354
 21
-123.375
  0
LINE
  8
0
 10
27.0354
 20
-123.375
 11
27.0158
 21
-123.251
  0
LINE
  8
0
 10
27.0158
 20
-123.251
 11
27.0039
 21
-123.126
  0
LINE
  8
0
 10
27.0039
 20
-123.126
 11
27
 21
-123
  0
LINE
  8
0
 10
27
 20
-123
 11
27.0039
 21
-122.874
  0
LINE
  8
0
 10
27.0039
 20
-122.874
 11
27.0158
 21
-122.749
  0
LINE
  8
0
 10
27.0158
 20
-122.749
 11
27.0354
 21
-122.625
  0
LINE
  8
0
 10
27.0354
 20
-122.625
 11
27.0628
 21
-122.503
  0
LINE
  8
0
 10
27.0628
 20
-122.503
 11
27.0979
 21
-122.382
  0
LINE
  8
0
 10
27.0979
 20
-122.382
 11
27.1404
 21
-122.264
  0
LINE
  8
0
 10
27.1404
 20
-122.264
 11
27.1903
 21
-122.148
  0
LINE
  8
0
 10
27.1903
 20
-122.148
 11
27.2474
 21
-122.036
  0
LINE
  8
0
 10
27.2474
 20
-122.036
 11
27.3113
 21
-121.928
  0
LINE
  8
0
 10
27.3113
 20
-121.928
 11
27.382
 21
-121.824
  0
LINE
  8
0
 10
27.382
 20
-121.824
 11
27.459
 21
-121.725
  0
LINE
  8
0
 10
27.459
 20
-121.725
 11
27.5421
 21
-121.631
  0
LINE
  8
0
 10
27.5421
 20
-121.631
 11
27.6309
 21
-121.542
  0
LINE
  8
0
 10
27.6309
 20
-121.542
 11
27.7251
 21
-121.459
  0
LINE
  8
0
 10
27.7251
 20
-121.459
 11
27.8244
 21
-121.382
  0
LINE
  8
0
 10
27.8244
 20
-121.382
 11
27.9283
 21
-121.311
  0
LINE
  8
0
 10
27.9283
 20
-121.311
 11
28.0365
 21
-121.247
  0
LINE
  8
0
 10
28.0365
 20
-121.247
 11
28.1484
 21
-121.19
  0
LINE
  8
0
 10
28.1484
 20
-121.19
 11
28.2637
 21
-121.14
  0
LINE
  8
0
 10
28.2637
 20
-121.14
 11
28.382
 21
-121.098
  0
LINE
  8
0
 10
28.382
 20
-121.098
 11
28.5026
 21
-121.063
  0
LINE
  8
0
 10
28.5026
 20
-121.063
 11
28.6252
 21
-121.035
  0
LINE
  8
0
 10
28.6252
 20
-121.035
 11
28.7493
 21
-121.016
  0
LINE
  8
0
 10
28.7493
 20
-121.016
 11
28.8744
 21
-121.004
  0
LINE
  8
0
 10
28.8744
 20
-121.004
 11
29
 21
-121
  0
LINE
  8
0
 10
29
 20
-121
 11
29.1256
 21
-121.004
  0
LINE
  8
0
 10
29.1256
 20
-121.004
 11
29.2507
 21
-121.016
  0
LINE
  8
0
 10
29.2507
 20
-121.016
 11
29.3748
 21
-121.035
  0
LINE
  8
0
 10
29.3748
 20
-121.035
 11
29.4974
 21
-121.063
  0
LINE
  8
0
 10
29.4974
 20
-121.063
 11
29.618
 21
-121.098
  0
LINE
  8
0
 10
29.618
 20
-121.098
 11
29.7362
 21
-121.14
  0
LINE
  8
0
 10
29.7362
 20
-121.14
 11
29.8515
 21
-121.19
  0
LINE
  8
0
 10
29.8515
 20
-121.19
 11
29.9635
 21
-121.247
  0
LINE
  8
0
 10
29.9635
 20
-121.247
 11
30.0716
 21
-121.311
  0
LINE
  8
0
 10
30.0716
 20
-121.311
 11
30.1756
 21
-121.382
  0
LINE
  8
0
 10
30.1756
 20
-121.382
 11
30.2748
 21
-121.459
  0
LINE
  8
0
 10
30.2748
 20
-121.459
 11
30.3691
 21
-121.542
  0
LINE
  8
0
 10
30.3691
 20
-121.542
 11
30.4579
 21
-121.631
  0
LINE
  8
0
 10
30.4579
 20
-121.631
 11
30.541
 21
-121.725
  0
LINE
  8
0
 10
30.541
 20
-121.725
 11
30.618
 21
-121.824
  0
LINE
  8
0
 10
30.618
 20
-121.824
 11
30.6886
 21
-121.928
  0
LINE
  8
0
 10
30.6886
 20
-121.928
 11
30.7526
 21
-122.036
  0
LINE
  8
0
 10
30.7526
 20
-122.036
 11
30.8096
 21
-122.148
  0
LINE
  8
0
 10
30.8096
 20
-122.148
 11
30.8595
 21
-122.264
  0
LINE
  8
0
 10
30.8595
 20
-122.264
 11
30.9021
 21
-122.382
  0
LINE
  8
0
 10
30.9021
 20
-122.382
 11
30.9372
 21
-122.503
  0
LINE
  8
0
 10
30.9372
 20
-122.503
 11
30.9646
 21
-122.625
  0
LINE
  8
0
 10
30.9646
 20
-122.625
 11
30.9842
 21
-122.749
  0
LINE
  8
0
 10
30.9842
 20
-122.749
 11
30.996
 21
-122.874
  0
LINE
  8
0
 10
30.996
 20
-122.874
 11
31
 21
-123
  0
LINE
  8
0
 10
31
 20
-123
 11
30.996
 21
-123.126
  0
LINE
  8
0
 10
30.996
 20
-123.126
 11
30.9842
 21
-123.251
  0
LINE
  8
0
 10
30.9842
 20
-123.251
 11
30.9646
 21
-123.375
  0
LINE
  8
0
 10
30.9646
 20
-123.375
 11
30.9372
 21
-123.497
  0
LINE
  8
0
 10
30.9372
 20
-123.497
 11
30.9021
 21
-123.618
  0
LINE
  8
0
 10
30.9021
 20
-123.618
 11
30.8595
 21
-123.736
  0
LINE
  8
0
 10
30.8595
 20
-123.736
 11
30.8096
 21
-123.852
  0
LINE
  8
0
 10
30.8096
 20
-123.852
 11
30.7526
 21
-123.964
  0
LINE
  8
0
 10
30.7526
 20
-123.964
 11
30.6886
 21
-124.072
  0
LINE
  8
0
 10
30.6886
 20
-124.072
 11
30.618
 21
-124.176
  0
LINE
  8
0
 10
30.618
 20
-124.176
 11
30.541
 21
-124.275
  0
LINE
  8
0
 10
30.541
 20
-124.275
 11
30.4579
 21
-124.369
  0
LINE
  8
0
 10
30.4579
 20
-124.369
 11
30.3691
 21
-124.458
  0
LINE
  8
0
 10
30.3691
 20
-124.458
 11
30.2748
 21
-124.541
  0
LINE
  8
0
 10
30.2748
 20
-124.541
 11
30.1756
 21
-124.618
  0
LINE
  8
0
 10
30.1756
 20
-124.618
 11
30.0716
 21
-124.689
  0
LINE
  8
0
 10
30.0716
 20
-124.689
 11
29.9635
 21
-124.753
  0
LINE
  8
0
 10
29.9635
 20
-124.753
 11
29.8515
 21
-124.81
  0
LINE
  8
0
 10
29.8515
 20
-124.81
 11
29.7362
 21
-124.86
  0
LINE
  8
0
 10
29.7362
 20
-124.86
 11
29.618
 21
-124.902
  0
LINE
  8
0
 10
29.618
 20
-124.902
 11
29.4974
 21
-124.937
  0
LINE
  8
0
 10
29.4974
 20
-124.937
 11
29.3748
 21
-124.965
  0
LINE
  8
0
 10
29.3748
 20
-124.965
 11
29.2507
 21
-124.984
  0
LINE
  8
0
 10
29.2507
 20
-124.984
 11
29.1256
 21
-124.996
  0
LINE
  8
0
 10
29.1256
 20
-124.996
 11
29
 21
-125
  0
LINE
  8
0
 10
29
 20
-125
 11
28.8744
 21
-124.996
  0
ENDSEC
  0
SECTION
  2
OBJECTS
  0
DICTIONARY
  0
ENDSEC
  0
EOF
