  0
SECTION
  2
BLOCKS
  0
ENDSEC
  0
SECTION
  2
ENTITIES
  0
LINE
  8
0
 10
67.5
 20
47.5
 11
77.5
 21
47.5
  0
LINE
  8
0
 10
77.5
 20
47.5
 11
77.5
 21
44.5
  0
LINE
  8
0
 10
77.5
 20
44.5
 11
87.5
 21
44.5
  0
LINE
  8
0
 10
87.5
 20
44.5
 11
87.5
 21
47.5
  0
LINE
  8
0
 10
87.5
 20
47.5
 11
97.5
 21
47.5
  0
LINE
  8
0
 10
97.5
 20
47.5
 11
97.5
 21
44.5
  0
LINE
  8
0
 10
97.5
 20
44.5
 11
107.5
 21
44.5
  0
LINE
  8
0
 10
107.5
 20
44.5
 11
107.5
 21
47.5
  0
LINE
  8
0
 10
107.5
 20
47.5
 11
117.5
 21
47.5
  0
LINE
  8
0
 10
117.5
 20
47.5
 11
117.5
 21
44.5
  0
LINE
  8
0
 10
117.5
 20
44.5
 11
127.5
 21
44.5
  0
LINE
  8
0
 10
127.5
 20
44.5
 11
127.5
 21
52.5
  0
LINE
  8
0
 10
127.5
 20
52.5
 11
130.5
 21
52.5
  0
LINE
  8
0
 10
130.5
 20
52.5
 11
130.5
 21
57.5
  0
LINE
  8
0
 10
130.5
 20
57.5
 11
127.5
 21
57.5
  0
LINE
  8
0
 10
127.5
 20
57.5
 11
127.5
 21
62.5
  0
LINE
  8
0
 10
127.5
 20
62.5
 11
130.5
 21
62.5
  0
LINE
  8
0
 10
130.5
 20
62.5
 11
130.5
 21
67.5
  0
LINE
  8
0
 10
130.5
 20
67.5
 11
127.5
 21
67.5
  0
LINE
  8
0
 10
127.5
 20
67.5
 11
127.5
 21
72.5
  0
LINE
  8
0
 10
127.5
 20
72.5
 11
130.5
 21
72.5
  0
LINE
  8
0
 10
130.5
 20
72.5
 11
130.5
 21
77.5
  0
LINE
  8
0
 10
130.5
 20
77.5
 11
127.5
 21
77.5
  0
LINE
  8
0
 10
127.5
 20
77.5
 11
127.5
 21
82.5
  0
LINE
  8
0
 10
127.5
 20
82.5
 11
130.5
 21
82.5
  0
LINE
  8
0
 10
130.5
 20
82.5
 11
130.5
 21
87.5
  0
LINE
  8
0
 10
130.5
 20
87.5
 11
47.5
 21
87.5
  0
LINE
  8
0
 10
47.5
 20
87.5
 11
47.5
 21
82.5
  0
LINE
  8
0
 10
47.5
 20
82.5
 11
44.5
 21
82.5
  0
LINE
  8
0
 10
44.5
 20
82.5
 11
44.5
 21
77.5
  0
LINE
  8
0
 10
44.5
 20
77.5
 11
47.5
 21
77.5
  0
LINE
  8
0
 10
47.5
 20
77.5
 11
47.5
 21
72.5
  0
LINE
  8
0
 10
47.5
 20
72.5
 11
44.5
 21
72.5
  0
LINE
  8
0
 10
44.5
 20
72.5
 11
44.5
 21
67.5
  0
LINE
  8
0
 10
44.5
 20
67.5
 11
47.5
 21
67.5
  0
LINE
  8
0
 10
47.5
 20
67.5
 11
47.5
 21
62.5
  0
LINE
  8
0
 10
47.5
 20
62.5
 11
44.5
 21
62.5
  0
LINE
  8
0
 10
44.5
 20
62.5
 11
44.5
 21
57.5
  0
LINE
  8
0
 10
44.5
 20
57.5
 11
47.5
 21
57.5
  0
LINE
  8
0
 10
47.5
 20
57.5
 11
47.5
 21
52.5
  0
LINE
  8
0
 10
47.5
 20
52.5
 11
44.5
 21
52.5
  0
LINE
  8
0
 10
44.5
 20
52.5
 11
44.5
 21
47.5
  0
LINE
  8
0
 10
44.5
 20
47.5
 11
57.5
 21
47.5
  0
LINE
  8
0
 10
57.5
 20
47.5
 11
57.5
 21
44.5
  0
LINE
  8
0
 10
57.5
 20
44.5
 11
67.5
 21
44.5
  0
LINE
  8
0
 10
67.5
 20
44.5
 11
67.5
 21
47.5
  0
LINE
  8
0
 10
-20
 20
47.5
 11
-10
 21
47.5
  0
LINE
  8
0
 10
-10
 20
47.5
 11
-10
 21
44.5
  0
LINE
  8
0
 10
-10
 20
44.5
 11
0
 21
44.5
  0
LINE
  8
0
 10
0
 20
44.5
 11
0
 21
47.5
  0
LINE
  8
0
 10
0
 20
47.5
 11
10
 21
47.5
  0
LINE
  8
0
 10
10
 20
47.5
 11
10
 21
44.5
  0
LINE
  8
0
 10
10
 20
44.5
 11
20
 21
44.5
  0
LINE
  8
0
 10
20
 20
44.5
 11
20
 21
47.5
  0
LINE
  8
0
 10
20
 20
47.5
 11
30
 21
47.5
  0
LINE
  8
0
 10
30
 20
47.5
 11
30
 21
44.5
  0
LINE
  8
0
 10
30
 20
44.5
 11
40
 21
44.5
  0
LINE
  8
0
 10
40
 20
44.5
 11
40
 21
52.5
  0
LINE
  8
0
 10
40
 20
52.5
 11
43
 21
52.5
  0
LINE
  8
0
 10
43
 20
52.5
 11
43
 21
57.5
  0
LINE
  8
0
 10
43
 20
57.5
 11
40
 21
57.5
  0
LINE
  8
0
 10
40
 20
57.5
 11
40
 21
62.5
  0
LINE
  8
0
 10
40
 20
62.5
 11
43
 21
62.5
  0
LINE
  8
0
 10
43
 20
62.5
 11
43
 21
67.5
  0
LINE
  8
0
 10
43
 20
67.5
 11
40
 21
67.5
  0
LINE
  8
0
 10
40
 20
67.5
 11
40
 21
72.5
  0
LINE
  8
0
 10
40
 20
72.5
 11
43
 21
72.5
  0
LINE
  8
0
 10
43
 20
72.5
 11
43
 21
77.5
  0
LINE
  8
0
 10
43
 20
77.5
 11
40
 21
77.5
  0
LINE
  8
0
 10
40
 20
77.5
 11
40
 21
82.5
  0
LINE
  8
0
 10
40
 20
82.5
 11
43
 21
82.5
  0
LINE
  8
0
 10
43
 20
82.5
 11
43
 21
87.5
  0
LINE
  8
0
 10
43
 20
87.5
 11
-40
 21
87.5
  0
LINE
  8
0
 10
-40
 20
87.5
 11
-40
 21
82.5
  0
LINE
  8
0
 10
-40
 20
82.5
 11
-43
 21
82.5
  0
LINE
  8
0
 10
-43
 20
82.5
 11
-43
 21
77.5
  0
LINE
  8
0
 10
-43
 20
77.5
 11
-40
 21
77.5
  0
LINE
  8
0
 10
-40
 20
77.5
 11
-40
 21
72.5
  0
LINE
  8
0
 10
-40
 20
72.5
 11
-43
 21
72.5
  0
LINE
  8
0
 10
-43
 20
72.5
 11
-43
 21
67.5
  0
LINE
  8
0
 10
-43
 20
67.5
 11
-40
 21
67.5
  0
LINE
  8
0
 10
-40
 20
67.5
 11
-40
 21
62.5
  0
LINE
  8
0
 10
-40
 20
62.5
 11
-43
 21
62.5
  0
LINE
  8
0
 10
-43
 20
62.5
 11
-43
 21
57.5
  0
LINE
  8
0
 10
-43
 20
57.5
 11
-40
 21
57.5
  0
LINE
  8
0
 10
-40
 20
57.5
 11
-40
 21
52.5
  0
LINE
  8
0
 10
-40
 20
52.5
 11
-43
 21
52.5
  0
LINE
  8
0
 10
-43
 20
52.5
 11
-43
 21
47.5
  0
LINE
  8
0
 10
-43
 20
47.5
 11
-30
 21
47.5
  0
LINE
  8
0
 10
-30
 20
47.5
 11
-30
 21
44.5
  0
LINE
  8
0
 10
-30
 20
44.5
 11
-20
 21
44.5
  0
LINE
  8
0
 10
-20
 20
44.5
 11
-20
 21
47.5
  0
LINE
  8
0
 10
-20
 20
-40
 11
-10
 21
-40
  0
LINE
  8
0
 10
-10
 20
-40
 11
-10
 21
-43
  0
LINE
  8
0
 10
-10
 20
-43
 11
0
 21
-43
  0
LINE
  8
0
 10
0
 20
-43
 11
0
 21
-40
  0
LINE
  8
0
 10
0
 20
-40
 11
10
 21
-40
  0
LINE
  8
0
 10
10
 20
-40
 11
10
 21
-43
  0
LINE
  8
0
 10
10
 20
-43
 11
20
 21
-43
  0
LINE
  8
0
 10
20
 20
-43
 11
20
 21
-40
  0
LINE
  8
0
 10
20
 20
-40
 11
30
 21
-40
  0
LINE
  8
0
 10
30
 20
-40
 11
30
 21
-43
  0
LINE
  8
0
 10
30
 20
-43
 11
40
 21
-43
  0
LINE
  8
0
 10
40
 20
-43
 11
40
 21
-30
  0
LINE
  8
0
 10
40
 20
-30
 11
43
 21
-30
  0
LINE
  8
0
 10
43
 20
-30
 11
43
 21
-20
  0
LINE
  8
0
 10
43
 20
-20
 11
40
 21
-20
  0
LINE
  8
0
 10
40
 20
-20
 11
40
 21
-10
  0
LINE
  8
0
 10
40
 20
-10
 11
43
 21
-10
  0
LINE
  8
0
 10
43
 20
-10
 11
43
 21
0
  0
LINE
  8
0
 10
43
 20
0
 11
40
 21
0
  0
LINE
  8
0
 10
40
 20
0
 11
40
 21
10
  0
LINE
  8
0
 10
40
 20
10
 11
43
 21
10
  0
LINE
  8
0
 10
43
 20
10
 11
43
 21
20
  0
LINE
  8
0
 10
43
 20
20
 11
40
 21
20
  0
LINE
  8
0
 10
40
 20
20
 11
40
 21
30
  0
LINE
  8
0
 10
40
 20
30
 11
43
 21
30
  0
LINE
  8
0
 10
43
 20
30
 11
43
 21
40
  0
LINE
  8
0
 10
43
 20
40
 11
30
 21
40
  0
LINE
  8
0
 10
30
 20
40
 11
30
 21
43
  0
LINE
  8
0
 10
30
 20
43
 11
20
 21
43
  0
LINE
  8
0
 10
20
 20
43
 11
20
 21
40
  0
LINE
  8
0
 10
20
 20
40
 11
10
 21
40
  0
LINE
  8
0
 10
10
 20
40
 11
10
 21
43
  0
LINE
  8
0
 10
10
 20
43
 11
0
 21
43
  0
LINE
  8
0
 10
0
 20
43
 11
0
 21
40
  0
LINE
  8
0
 10
0
 20
40
 11
-10
 21
40
  0
LINE
  8
0
 10
-10
 20
40
 11
-10
 21
43
  0
LINE
  8
0
 10
-10
 20
43
 11
-20
 21
43
  0
LINE
  8
0
 10
-20
 20
43
 11
-20
 21
40
  0
LINE
  8
0
 10
-20
 20
40
 11
-30
 21
40
  0
LINE
  8
0
 10
-30
 20
40
 11
-30
 21
43
  0
LINE
  8
0
 10
-30
 20
43
 11
-40
 21
43
  0
LINE
  8
0
 10
-40
 20
43
 11
-40
 21
30
  0
LINE
  8
0
 10
-40
 20
30
 11
-43
 21
30
  0
LINE
  8
0
 10
-43
 20
30
 11
-43
 21
20
  0
LINE
  8
0
 10
-43
 20
20
 11
-40
 21
20
  0
LINE
  8
0
 10
-40
 20
20
 11
-40
 21
10
  0
LINE
  8
0
 10
-40
 20
10
 11
-43
 21
10
  0
LINE
  8
0
 10
-43
 20
10
 11
-43
 21
0
  0
LINE
  8
0
 10
-43
 20
0
 11
-40
 21
0
  0
LINE
  8
0
 10
-40
 20
0
 11
-40
 21
-10
  0
LINE
  8
0
 10
-40
 20
-10
 11
-43
 21
-10
  0
LINE
  8
0
 10
-43
 20
-10
 11
-43
 21
-20
  0
LINE
  8
0
 10
-43
 20
-20
 11
-40
 21
-20
  0
LINE
  8
0
 10
-40
 20
-20
 11
-40
 21
-30
  0
LINE
  8
0
 10
-40
 20
-30
 11
-43
 21
-30
  0
LINE
  8
0
 10
-43
 20
-30
 11
-43
 21
-40
  0
LINE
  8
0
 10
-43
 20
-40
 11
-30
 21
-40
  0
LINE
  8
0
 10
-30
 20
-40
 11
-30
 21
-43
  0
LINE
  8
0
 10
-30
 20
-43
 11
-20
 21
-43
  0
LINE
  8
0
 10
-20
 20
-43
 11
-20
 21
-40
  0
LINE
  8
0
 10
37.5
 20
-127.5
 11
42.5
 21
-127.5
  0
LINE
  8
0
 10
42.5
 20
-127.5
 11
42.5
 21
-130.5
  0
LINE
  8
0
 10
42.5
 20
-130.5
 11
47.5
 21
-130.5
  0
LINE
  8
0
 10
47.5
 20
-130.5
 11
47.5
 21
-127.5
  0
LINE
  8
0
 10
47.5
 20
-127.5
 11
52.5
 21
-127.5
  0
LINE
  8
0
 10
52.5
 20
-127.5
 11
52.5
 21
-130.5
  0
LINE
  8
0
 10
52.5
 20
-130.5
 11
57.5
 21
-130.5
  0
LINE
  8
0
 10
57.5
 20
-130.5
 11
57.5
 21
-127.5
  0
LINE
  8
0
 10
57.5
 20
-127.5
 11
62.5
 21
-127.5
  0
LINE
  8
0
 10
62.5
 20
-127.5
 11
62.5
 21
-130.5
  0
LINE
  8
0
 10
62.5
 20
-130.5
 11
67.5
 21
-130.5
  0
LINE
  8
0
 10
67.5
 20
-130.5
 11
67.5
 21
-117.5
  0
LINE
  8
0
 10
67.5
 20
-117.5
 11
70.5
 21
-117.5
  0
LINE
  8
0
 10
70.5
 20
-117.5
 11
70.5
 21
-107.5
  0
LINE
  8
0
 10
70.5
 20
-107.5
 11
67.5
 21
-107.5
  0
LINE
  8
0
 10
67.5
 20
-107.5
 11
67.5
 21
-97.5
  0
LINE
  8
0
 10
67.5
 20
-97.5
 11
70.5
 21
-97.5
  0
LINE
  8
0
 10
70.5
 20
-97.5
 11
70.5
 21
-87.5
  0
LINE
  8
0
 10
70.5
 20
-87.5
 11
67.5
 21
-87.5
  0
LINE
  8
0
 10
67.5
 20
-87.5
 11
67.5
 21
-77.5
  0
LINE
  8
0
 10
67.5
 20
-77.5
 11
70.5
 21
-77.5
  0
LINE
  8
0
 10
70.5
 20
-77.5
 11
70.5
 21
-67.5
  0
LINE
  8
0
 10
70.5
 20
-67.5
 11
67.5
 21
-67.5
  0
LINE
  8
0
 10
67.5
 20
-67.5
 11
67.5
 21
-57.5
  0
LINE
  8
0
 10
67.5
 20
-57.5
 11
70.5
 21
-57.5
  0
LINE
  8
0
 10
70.5
 20
-57.5
 11
70.5
 21
-47.5
  0
LINE
  8
0
 10
70.5
 20
-47.5
 11
62.5
 21
-47.5
  0
LINE
  8
0
 10
62.5
 20
-47.5
 11
62.5
 21
-44.5
  0
LINE
  8
0
 10
62.5
 20
-44.5
 11
57.5
 21
-44.5
  0
LINE
  8
0
 10
57.5
 20
-44.5
 11
57.5
 21
-47.5
  0
LINE
  8
0
 10
57.5
 20
-47.5
 11
52.5
 21
-47.5
  0
LINE
  8
0
 10
52.5
 20
-47.5
 11
52.5
 21
-44.5
  0
LINE
  8
0
 10
52.5
 20
-44.5
 11
47.5
 21
-44.5
  0
LINE
  8
0
 10
47.5
 20
-44.5
 11
47.5
 21
-47.5
  0
LINE
  8
0
 10
47.5
 20
-47.5
 11
42.5
 21
-47.5
  0
LINE
  8
0
 10
42.5
 20
-47.5
 11
42.5
 21
-44.5
  0
LINE
  8
0
 10
42.5
 20
-44.5
 11
37.5
 21
-44.5
  0
LINE
  8
0
 10
37.5
 20
-44.5
 11
37.5
 21
-47.5
  0
LINE
  8
0
 10
37.5
 20
-47.5
 11
32.5
 21
-47.5
  0
LINE
  8
0
 10
32.5
 20
-47.5
 11
32.5
 21
-44.5
  0
LINE
  8
0
 10
32.5
 20
-44.5
 11
27.5
 21
-44.5
  0
LINE
  8
0
 10
27.5
 20
-44.5
 11
27.5
 21
-127.5
  0
LINE
  8
0
 10
27.5
 20
-127.5
 11
32.5
 21
-127.5
  0
LINE
  8
0
 10
32.5
 20
-127.5
 11
32.5
 21
-130.5
  0
LINE
  8
0
 10
32.5
 20
-130.5
 11
37.5
 21
-130.5
  0
LINE
  8
0
 10
37.5
 20
-130.5
 11
37.5
 21
-127.5
  0
LINE
  8
0
 10
-10
 20
-127.5
 11
-5
 21
-127.5
  0
LINE
  8
0
 10
-5
 20
-127.5
 11
-5
 21
-130.5
  0
LINE
  8
0
 10
-5
 20
-130.5
 11
0
 21
-130.5
  0
LINE
  8
0
 10
0
 20
-130.5
 11
0
 21
-127.5
  0
LINE
  8
0
 10
0
 20
-127.5
 11
5
 21
-127.5
  0
LINE
  8
0
 10
5
 20
-127.5
 11
5
 21
-130.5
  0
LINE
  8
0
 10
5
 20
-130.5
 11
10
 21
-130.5
  0
LINE
  8
0
 10
10
 20
-130.5
 11
10
 21
-127.5
  0
LINE
  8
0
 10
10
 20
-127.5
 11
15
 21
-127.5
  0
LINE
  8
0
 10
15
 20
-127.5
 11
15
 21
-130.5
  0
LINE
  8
0
 10
15
 20
-130.5
 11
20
 21
-130.5
  0
LINE
  8
0
 10
20
 20
-130.5
 11
20
 21
-117.5
  0
LINE
  8
0
 10
20
 20
-117.5
 11
23
 21
-117.5
  0
LINE
  8
0
 10
23
 20
-117.5
 11
23
 21
-107.5
  0
LINE
  8
0
 10
23
 20
-107.5
 11
20
 21
-107.5
  0
LINE
  8
0
 10
20
 20
-107.5
 11
20
 21
-97.5
  0
LINE
  8
0
 10
20
 20
-97.5
 11
23
 21
-97.5
  0
LINE
  8
0
 10
23
 20
-97.5
 11
23
 21
-87.5
  0
LINE
  8
0
 10
23
 20
-87.5
 11
20
 21
-87.5
  0
LINE
  8
0
 10
20
 20
-87.5
 11
20
 21
-77.5
  0
LINE
  8
0
 10
20
 20
-77.5
 11
23
 21
-77.5
  0
LINE
  8
0
 10
23
 20
-77.5
 11
23
 21
-67.5
  0
LINE
  8
0
 10
23
 20
-67.5
 11
20
 21
-67.5
  0
LINE
  8
0
 10
20
 20
-67.5
 11
20
 21
-57.5
  0
LINE
  8
0
 10
20
 20
-57.5
 11
23
 21
-57.5
  0
LINE
  8
0
 10
23
 20
-57.5
 11
23
 21
-47.5
  0
LINE
  8
0
 10
23
 20
-47.5
 11
15
 21
-47.5
  0
LINE
  8
0
 10
15
 20
-47.5
 11
15
 21
-44.5
  0
LINE
  8
0
 10
15
 20
-44.5
 11
10
 21
-44.5
  0
LINE
  8
0
 10
10
 20
-44.5
 11
10
 21
-47.5
  0
LINE
  8
0
 10
10
 20
-47.5
 11
5
 21
-47.5
  0
LINE
  8
0
 10
5
 20
-47.5
 11
5
 21
-44.5
  0
LINE
  8
0
 10
5
 20
-44.5
 11
0
 21
-44.5
  0
LINE
  8
0
 10
0
 20
-44.5
 11
0
 21
-47.5
  0
LINE
  8
0
 10
0
 20
-47.5
 11
-5
 21
-47.5
  0
LINE
  8
0
 10
-5
 20
-47.5
 11
-5
 21
-44.5
  0
LINE
  8
0
 10
-5
 20
-44.5
 11
-10
 21
-44.5
  0
LINE
  8
0
 10
-10
 20
-44.5
 11
-10
 21
-47.5
  0
LINE
  8
0
 10
-10
 20
-47.5
 11
-15
 21
-47.5
  0
LINE
  8
0
 10
-15
 20
-47.5
 11
-15
 21
-44.5
  0
LINE
  8
0
 10
-15
 20
-44.5
 11
-20
 21
-44.5
  0
LINE
  8
0
 10
-20
 20
-44.5
 11
-20
 21
-127.5
  0
LINE
  8
0
 10
-20
 20
-127.5
 11
-15
 21
-127.5
  0
LINE
  8
0
 10
-15
 20
-127.5
 11
-15
 21
-130.5
  0
LINE
  8
0
 10
-15
 20
-130.5
 11
-10
 21
-130.5
  0
LINE
  8
0
 10
-10
 20
-130.5
 11
-10
 21
-127.5
  0
ENDSEC
  0
SECTION
  2
OBJECTS
  0
DICTIONARY
  0
ENDSEC
  0
EOF
