  0
SECTION
  2
BLOCKS
  0
ENDSEC
  0
SECTION
  2
ENTITIES
  0
LINE
  8
0
 10
30
 20
10
 11
-30
 21
10
  0
LINE
  8
0
 10
-30
 20
10
 11
-30
 21
-10
  0
LINE
  8
0
 10
-30
 20
-10
 11
30
 21
-10
  0
LINE
  8
0
 10
30
 20
-10
 11
30
 21
10
  0
LINE
  8
0
 10
19.8744
 20
-1.99605
 11
19.7493
 21
-1.98422
  0
LINE
  8
0
 10
19.7493
 20
-1.98422
 11
19.6252
 21
-1.96457
  0
LINE
  8
0
 10
19.6252
 20
-1.96457
 11
19.5026
 21
-1.93716
  0
LINE
  8
0
 10
19.5026
 20
-1.93716
 11
19.382
 21
-1.9021
  0
LINE
  8
0
 10
19.382
 20
-1.9021
 11
19.2637
 21
-1.85954
  0
LINE
  8
0
 10
19.2637
 20
-1.85954
 11
19.1484
 21
-1.80965
  0
LINE
  8
0
 10
19.1484
 20
-1.80965
 11
19.0365
 21
-1.75261
  0
LINE
  8
0
 10
19.0365
 20
-1.75261
 11
18.9283
 21
-1.68864
  0
LINE
  8
0
 10
18.9283
 20
-1.68864
 11
18.8244
 21
-1.61803
  0
LINE
  8
0
 10
18.8244
 20
-1.61803
 11
18.7251
 21
-1.54102
  0
LINE
  8
0
 10
18.7251
 20
-1.54102
 11
18.6309
 21
-1.45793
  0
LINE
  8
0
 10
18.6309
 20
-1.45793
 11
18.5421
 21
-1.36908
  0
LINE
  8
0
 10
18.5421
 20
-1.36908
 11
18.459
 21
-1.27484
  0
LINE
  8
0
 10
18.459
 20
-1.27484
 11
18.382
 21
-1.17557
  0
LINE
  8
0
 10
18.382
 20
-1.17557
 11
18.3113
 21
-1.07164
  0
LINE
  8
0
 10
18.3113
 20
-1.07164
 11
18.2474
 21
-0.963501
  0
LINE
  8
0
 10
18.2474
 20
-0.963501
 11
18.1903
 21
-0.851547
  0
LINE
  8
0
 10
18.1903
 20
-0.851547
 11
18.1404
 21
-0.736237
  0
LINE
  8
0
 10
18.1404
 20
-0.736237
 11
18.0979
 21
-0.618027
  0
LINE
  8
0
 10
18.0979
 20
-0.618027
 11
18.0628
 21
-0.497375
  0
LINE
  8
0
 10
18.0628
 20
-0.497375
 11
18.0354
 21
-0.374756
  0
LINE
  8
0
 10
18.0354
 20
-0.374756
 11
18.0158
 21
-0.250656
  0
LINE
  8
0
 10
18.0158
 20
-0.250656
 11
18.0039
 21
-0.12558
  0
LINE
  8
0
 10
18.0039
 20
-0.12558
 11
18
 21
0
  0
LINE
  8
0
 10
18
 20
0
 11
18.0039
 21
0.12558
  0
LINE
  8
0
 10
18.0039
 20
0.12558
 11
18.0158
 21
0.250656
  0
LINE
  8
0
 10
18.0158
 20
0.250656
 11
18.0354
 21
0.374756
  0
LINE
  8
0
 10
18.0354
 20
0.374756
 11
18.0628
 21
0.497375
  0
LINE
  8
0
 10
18.0628
 20
0.497375
 11
18.0979
 21
0.618027
  0
LINE
  8
0
 10
18.0979
 20
0.618027
 11
18.1404
 21
0.736237
  0
LINE
  8
0
 10
18.1404
 20
0.736237
 11
18.1903
 21
0.851547
  0
LINE
  8
0
 10
18.1903
 20
0.851547
 11
18.2474
 21
0.963501
  0
LINE
  8
0
 10
18.2474
 20
0.963501
 11
18.3113
 21
1.07164
  0
LINE
  8
0
 10
18.3113
 20
1.07164
 11
18.382
 21
1.17557
  0
LINE
  8
0
 10
18.382
 20
1.17557
 11
18.459
 21
1.27484
  0
LINE
  8
0
 10
18.459
 20
1.27484
 11
18.5421
 21
1.36908
  0
LINE
  8
0
 10
18.5421
 20
1.36908
 11
18.6309
 21
1.45793
  0
LINE
  8
0
 10
18.6309
 20
1.45793
 11
18.7251
 21
1.54102
  0
LINE
  8
0
 10
18.7251
 20
1.54102
 11
18.8244
 21
1.61803
  0
LINE
  8
0
 10
18.8244
 20
1.61803
 11
18.9283
 21
1.68864
  0
LINE
  8
0
 10
18.9283
 20
1.68864
 11
19.0365
 21
1.75261
  0
LINE
  8
0
 10
19.0365
 20
1.75261
 11
19.1484
 21
1.80965
  0
LINE
  8
0
 10
19.1484
 20
1.80965
 11
19.2637
 21
1.85954
  0
LINE
  8
0
 10
19.2637
 20
1.85954
 11
19.382
 21
1.9021
  0
LINE
  8
0
 10
19.382
 20
1.9021
 11
19.5026
 21
1.93716
  0
LINE
  8
0
 10
19.5026
 20
1.93716
 11
19.6252
 21
1.96457
  0
LINE
  8
0
 10
19.6252
 20
1.96457
 11
19.7493
 21
1.98422
  0
LINE
  8
0
 10
19.7493
 20
1.98422
 11
19.8744
 21
1.99605
  0
LINE
  8
0
 10
19.8744
 20
1.99605
 11
20
 21
2
  0
LINE
  8
0
 10
20
 20
2
 11
20.1256
 21
1.99605
  0
LINE
  8
0
 10
20.1256
 20
1.99605
 11
20.2507
 21
1.98422
  0
LINE
  8
0
 10
20.2507
 20
1.98422
 11
20.3748
 21
1.96457
  0
LINE
  8
0
 10
20.3748
 20
1.96457
 11
20.4974
 21
1.93716
  0
LINE
  8
0
 10
20.4974
 20
1.93716
 11
20.618
 21
1.9021
  0
LINE
  8
0
 10
20.618
 20
1.9021
 11
20.7362
 21
1.85954
  0
LINE
  8
0
 10
20.7362
 20
1.85954
 11
20.8515
 21
1.80965
  0
LINE
  8
0
 10
20.8515
 20
1.80965
 11
20.9635
 21
1.75261
  0
LINE
  8
0
 10
20.9635
 20
1.75261
 11
21.0716
 21
1.68864
  0
LINE
  8
0
 10
21.0716
 20
1.68864
 11
21.1756
 21
1.61803
  0
LINE
  8
0
 10
21.1756
 20
1.61803
 11
21.2748
 21
1.54102
  0
LINE
  8
0
 10
21.2748
 20
1.54102
 11
21.3691
 21
1.45793
  0
LINE
  8
0
 10
21.3691
 20
1.45793
 11
21.4579
 21
1.36908
  0
LINE
  8
0
 10
21.4579
 20
1.36908
 11
21.541
 21
1.27484
  0
LINE
  8
0
 10
21.541
 20
1.27484
 11
21.618
 21
1.17557
  0
LINE
  8
0
 10
21.618
 20
1.17557
 11
21.6886
 21
1.07164
  0
LINE
  8
0
 10
21.6886
 20
1.07164
 11
21.7526
 21
0.963501
  0
LINE
  8
0
 10
21.7526
 20
0.963501
 11
21.8096
 21
0.851547
  0
LINE
  8
0
 10
21.8096
 20
0.851547
 11
21.8595
 21
0.736237
  0
LINE
  8
0
 10
21.8595
 20
0.736237
 11
21.9021
 21
0.618027
  0
LINE
  8
0
 10
21.9021
 20
0.618027
 11
21.9372
 21
0.497375
  0
LINE
  8
0
 10
21.9372
 20
0.497375
 11
21.9646
 21
0.374756
  0
LINE
  8
0
 10
21.9646
 20
0.374756
 11
21.9842
 21
0.250656
  0
LINE
  8
0
 10
21.9842
 20
0.250656
 11
21.996
 21
0.12558
  0
LINE
  8
0
 10
21.996
 20
0.12558
 11
22
 21
0
  0
LINE
  8
0
 10
22
 20
0
 11
21.996
 21
-0.12558
  0
LINE
  8
0
 10
21.996
 20
-0.12558
 11
21.9842
 21
-0.250656
  0
LINE
  8
0
 10
21.9842
 20
-0.250656
 11
21.9646
 21
-0.374756
  0
LINE
  8
0
 10
21.9646
 20
-0.374756
 11
21.9372
 21
-0.497375
  0
LINE
  8
0
 10
21.9372
 20
-0.497375
 11
21.9021
 21
-0.618027
  0
LINE
  8
0
 10
21.9021
 20
-0.618027
 11
21.8595
 21
-0.736237
  0
LINE
  8
0
 10
21.8595
 20
-0.736237
 11
21.8096
 21
-0.851547
  0
LINE
  8
0
 10
21.8096
 20
-0.851547
 11
21.7526
 21
-0.963501
  0
LINE
  8
0
 10
21.7526
 20
-0.963501
 11
21.6886
 21
-1.07164
  0
LINE
  8
0
 10
21.6886
 20
-1.07164
 11
21.618
 21
-1.17557
  0
LINE
  8
0
 10
21.618
 20
-1.17557
 11
21.541
 21
-1.27484
  0
LINE
  8
0
 10
21.541
 20
-1.27484
 11
21.4579
 21
-1.36908
  0
LINE
  8
0
 10
21.4579
 20
-1.36908
 11
21.3691
 21
-1.45793
  0
LINE
  8
0
 10
21.3691
 20
-1.45793
 11
21.2748
 21
-1.54102
  0
LINE
  8
0
 10
21.2748
 20
-1.54102
 11
21.1756
 21
-1.61803
  0
LINE
  8
0
 10
21.1756
 20
-1.61803
 11
21.0716
 21
-1.68864
  0
LINE
  8
0
 10
21.0716
 20
-1.68864
 11
20.9635
 21
-1.75261
  0
LINE
  8
0
 10
20.9635
 20
-1.75261
 11
20.8515
 21
-1.80965
  0
LINE
  8
0
 10
20.8515
 20
-1.80965
 11
20.7362
 21
-1.85954
  0
LINE
  8
0
 10
20.7362
 20
-1.85954
 11
20.618
 21
-1.9021
  0
LINE
  8
0
 10
20.618
 20
-1.9021
 11
20.4974
 21
-1.93716
  0
LINE
  8
0
 10
20.4974
 20
-1.93716
 11
20.3748
 21
-1.96457
  0
LINE
  8
0
 10
20.3748
 20
-1.96457
 11
20.2507
 21
-1.98422
  0
LINE
  8
0
 10
20.2507
 20
-1.98422
 11
20.1256
 21
-1.99605
  0
LINE
  8
0
 10
20.1256
 20
-1.99605
 11
20
 21
-2
  0
LINE
  8
0
 10
20
 20
-2
 11
19.8744
 21
-1.99605
  0
LINE
  8
0
 10
-20.1256
 20
-1.99605
 11
-20.2507
 21
-1.98422
  0
LINE
  8
0
 10
-20.2507
 20
-1.98422
 11
-20.3748
 21
-1.96457
  0
LINE
  8
0
 10
-20.3748
 20
-1.96457
 11
-20.4974
 21
-1.93716
  0
LINE
  8
0
 10
-20.4974
 20
-1.93716
 11
-20.618
 21
-1.9021
  0
LINE
  8
0
 10
-20.618
 20
-1.9021
 11
-20.7362
 21
-1.85954
  0
LINE
  8
0
 10
-20.7362
 20
-1.85954
 11
-20.8515
 21
-1.80965
  0
LINE
  8
0
 10
-20.8515
 20
-1.80965
 11
-20.9635
 21
-1.75261
  0
LINE
  8
0
 10
-20.9635
 20
-1.75261
 11
-21.0716
 21
-1.68864
  0
LINE
  8
0
 10
-21.0716
 20
-1.68864
 11
-21.1756
 21
-1.61803
  0
LINE
  8
0
 10
-21.1756
 20
-1.61803
 11
-21.2748
 21
-1.54102
  0
LINE
  8
0
 10
-21.2748
 20
-1.54102
 11
-21.3691
 21
-1.45793
  0
LINE
  8
0
 10
-21.3691
 20
-1.45793
 11
-21.4579
 21
-1.36908
  0
LINE
  8
0
 10
-21.4579
 20
-1.36908
 11
-21.541
 21
-1.27484
  0
LINE
  8
0
 10
-21.541
 20
-1.27484
 11
-21.618
 21
-1.17557
  0
LINE
  8
0
 10
-21.618
 20
-1.17557
 11
-21.6886
 21
-1.07164
  0
LINE
  8
0
 10
-21.6886
 20
-1.07164
 11
-21.7526
 21
-0.963501
  0
LINE
  8
0
 10
-21.7526
 20
-0.963501
 11
-21.8096
 21
-0.851547
  0
LINE
  8
0
 10
-21.8096
 20
-0.851547
 11
-21.8595
 21
-0.736237
  0
LINE
  8
0
 10
-21.8595
 20
-0.736237
 11
-21.9021
 21
-0.618027
  0
LINE
  8
0
 10
-21.9021
 20
-0.618027
 11
-21.9372
 21
-0.497375
  0
LINE
  8
0
 10
-21.9372
 20
-0.497375
 11
-21.9646
 21
-0.374756
  0
LINE
  8
0
 10
-21.9646
 20
-0.374756
 11
-21.9842
 21
-0.250656
  0
LINE
  8
0
 10
-21.9842
 20
-0.250656
 11
-21.996
 21
-0.12558
  0
LINE
  8
0
 10
-21.996
 20
-0.12558
 11
-22
 21
0
  0
LINE
  8
0
 10
-22
 20
0
 11
-21.996
 21
0.12558
  0
LINE
  8
0
 10
-21.996
 20
0.12558
 11
-21.9842
 21
0.250656
  0
LINE
  8
0
 10
-21.9842
 20
0.250656
 11
-21.9646
 21
0.374756
  0
LINE
  8
0
 10
-21.9646
 20
0.374756
 11
-21.9372
 21
0.497375
  0
LINE
  8
0
 10
-21.9372
 20
0.497375
 11
-21.9021
 21
0.618027
  0
LINE
  8
0
 10
-21.9021
 20
0.618027
 11
-21.8595
 21
0.736237
  0
LINE
  8
0
 10
-21.8595
 20
0.736237
 11
-21.8096
 21
0.851547
  0
LINE
  8
0
 10
-21.8096
 20
0.851547
 11
-21.7526
 21
0.963501
  0
LINE
  8
0
 10
-21.7526
 20
0.963501
 11
-21.6886
 21
1.07164
  0
LINE
  8
0
 10
-21.6886
 20
1.07164
 11
-21.618
 21
1.17557
  0
LINE
  8
0
 10
-21.618
 20
1.17557
 11
-21.541
 21
1.27484
  0
LINE
  8
0
 10
-21.541
 20
1.27484
 11
-21.4579
 21
1.36908
  0
LINE
  8
0
 10
-21.4579
 20
1.36908
 11
-21.3691
 21
1.45793
  0
LINE
  8
0
 10
-21.3691
 20
1.45793
 11
-21.2748
 21
1.54102
  0
LINE
  8
0
 10
-21.2748
 20
1.54102
 11
-21.1756
 21
1.61803
  0
LINE
  8
0
 10
-21.1756
 20
1.61803
 11
-21.0716
 21
1.68864
  0
LINE
  8
0
 10
-21.0716
 20
1.68864
 11
-20.9635
 21
1.75261
  0
LINE
  8
0
 10
-20.9635
 20
1.75261
 11
-20.8515
 21
1.80965
  0
LINE
  8
0
 10
-20.8515
 20
1.80965
 11
-20.7362
 21
1.85954
  0
LINE
  8
0
 10
-20.7362
 20
1.85954
 11
-20.618
 21
1.9021
  0
LINE
  8
0
 10
-20.618
 20
1.9021
 11
-20.4974
 21
1.93716
  0
LINE
  8
0
 10
-20.4974
 20
1.93716
 11
-20.3748
 21
1.96457
  0
LINE
  8
0
 10
-20.3748
 20
1.96457
 11
-20.2507
 21
1.98422
  0
LINE
  8
0
 10
-20.2507
 20
1.98422
 11
-20.1256
 21
1.99605
  0
LINE
  8
0
 10
-20.1256
 20
1.99605
 11
-20
 21
2
  0
LINE
  8
0
 10
-20
 20
2
 11
-19.8744
 21
1.99605
  0
LINE
  8
0
 10
-19.8744
 20
1.99605
 11
-19.7493
 21
1.98422
  0
LINE
  8
0
 10
-19.7493
 20
1.98422
 11
-19.6252
 21
1.96457
  0
LINE
  8
0
 10
-19.6252
 20
1.96457
 11
-19.5026
 21
1.93716
  0
LINE
  8
0
 10
-19.5026
 20
1.93716
 11
-19.382
 21
1.9021
  0
LINE
  8
0
 10
-19.382
 20
1.9021
 11
-19.2637
 21
1.85954
  0
LINE
  8
0
 10
-19.2637
 20
1.85954
 11
-19.1484
 21
1.80965
  0
LINE
  8
0
 10
-19.1484
 20
1.80965
 11
-19.0365
 21
1.75261
  0
LINE
  8
0
 10
-19.0365
 20
1.75261
 11
-18.9283
 21
1.68864
  0
LINE
  8
0
 10
-18.9283
 20
1.68864
 11
-18.8244
 21
1.61803
  0
LINE
  8
0
 10
-18.8244
 20
1.61803
 11
-18.7251
 21
1.54102
  0
LINE
  8
0
 10
-18.7251
 20
1.54102
 11
-18.6309
 21
1.45793
  0
LINE
  8
0
 10
-18.6309
 20
1.45793
 11
-18.5421
 21
1.36908
  0
LINE
  8
0
 10
-18.5421
 20
1.36908
 11
-18.459
 21
1.27484
  0
LINE
  8
0
 10
-18.459
 20
1.27484
 11
-18.382
 21
1.17557
  0
LINE
  8
0
 10
-18.382
 20
1.17557
 11
-18.3113
 21
1.07164
  0
LINE
  8
0
 10
-18.3113
 20
1.07164
 11
-18.2474
 21
0.963501
  0
LINE
  8
0
 10
-18.2474
 20
0.963501
 11
-18.1903
 21
0.851547
  0
LINE
  8
0
 10
-18.1903
 20
0.851547
 11
-18.1404
 21
0.736237
  0
LINE
  8
0
 10
-18.1404
 20
0.736237
 11
-18.0979
 21
0.618027
  0
LINE
  8
0
 10
-18.0979
 20
0.618027
 11
-18.0628
 21
0.497375
  0
LINE
  8
0
 10
-18.0628
 20
0.497375
 11
-18.0354
 21
0.374756
  0
LINE
  8
0
 10
-18.0354
 20
0.374756
 11
-18.0158
 21
0.250656
  0
LINE
  8
0
 10
-18.0158
 20
0.250656
 11
-18.0039
 21
0.12558
  0
LINE
  8
0
 10
-18.0039
 20
0.12558
 11
-18
 21
0
  0
LINE
  8
0
 10
-18
 20
0
 11
-18.0039
 21
-0.12558
  0
LINE
  8
0
 10
-18.0039
 20
-0.12558
 11
-18.0158
 21
-0.250656
  0
LINE
  8
0
 10
-18.0158
 20
-0.250656
 11
-18.0354
 21
-0.374756
  0
LINE
  8
0
 10
-18.0354
 20
-0.374756
 11
-18.0628
 21
-0.497375
  0
LINE
  8
0
 10
-18.0628
 20
-0.497375
 11
-18.0979
 21
-0.618027
  0
LINE
  8
0
 10
-18.0979
 20
-0.618027
 11
-18.1404
 21
-0.736237
  0
LINE
  8
0
 10
-18.1404
 20
-0.736237
 11
-18.1903
 21
-0.851547
  0
LINE
  8
0
 10
-18.1903
 20
-0.851547
 11
-18.2474
 21
-0.963501
  0
LINE
  8
0
 10
-18.2474
 20
-0.963501
 11
-18.3113
 21
-1.07164
  0
LINE
  8
0
 10
-18.3113
 20
-1.07164
 11
-18.382
 21
-1.17557
  0
LINE
  8
0
 10
-18.382
 20
-1.17557
 11
-18.459
 21
-1.27484
  0
LINE
  8
0
 10
-18.459
 20
-1.27484
 11
-18.5421
 21
-1.36908
  0
LINE
  8
0
 10
-18.5421
 20
-1.36908
 11
-18.6309
 21
-1.45793
  0
LINE
  8
0
 10
-18.6309
 20
-1.45793
 11
-18.7251
 21
-1.54102
  0
LINE
  8
0
 10
-18.7251
 20
-1.54102
 11
-18.8244
 21
-1.61803
  0
LINE
  8
0
 10
-18.8244
 20
-1.61803
 11
-18.9283
 21
-1.68864
  0
LINE
  8
0
 10
-18.9283
 20
-1.68864
 11
-19.0365
 21
-1.75261
  0
LINE
  8
0
 10
-19.0365
 20
-1.75261
 11
-19.1484
 21
-1.80965
  0
LINE
  8
0
 10
-19.1484
 20
-1.80965
 11
-19.2637
 21
-1.85954
  0
LINE
  8
0
 10
-19.2637
 20
-1.85954
 11
-19.382
 21
-1.9021
  0
LINE
  8
0
 10
-19.382
 20
-1.9021
 11
-19.5026
 21
-1.93716
  0
LINE
  8
0
 10
-19.5026
 20
-1.93716
 11
-19.6252
 21
-1.96457
  0
LINE
  8
0
 10
-19.6252
 20
-1.96457
 11
-19.7493
 21
-1.98422
  0
LINE
  8
0
 10
-19.7493
 20
-1.98422
 11
-19.8744
 21
-1.99605
  0
LINE
  8
0
 10
-19.8744
 20
-1.99605
 11
-20
 21
-2
  0
LINE
  8
0
 10
-20
 20
-2
 11
-20.1256
 21
-1.99605
  0
ENDSEC
  0
SECTION
  2
OBJECTS
  0
DICTIONARY
  0
ENDSEC
  0
EOF
