  0
SECTION
  2
BLOCKS
  0
ENDSEC
  0
SECTION
  2
ENTITIES
  0
LINE
  8
0
 10
10
 20
150
 11
-10
 21
150
  0
LINE
  8
0
 10
-10
 20
150
 11
-10
 21
-150
  0
LINE
  8
0
 10
-10
 20
-150
 11
10
 21
-150
  0
LINE
  8
0
 10
10
 20
-150
 11
10
 21
150
  0
LINE
  8
0
 10
-0.25116
 20
136.008
 11
-0.501328
 21
136.032
  0
LINE
  8
0
 10
-0.501328
 20
136.032
 11
-0.749512
 21
136.071
  0
LINE
  8
0
 10
-0.749512
 20
136.071
 11
-0.994751
 21
136.126
  0
LINE
  8
0
 10
-0.994751
 20
136.126
 11
-1.23605
 21
136.196
  0
LINE
  8
0
 10
-1.23605
 20
136.196
 11
-1.47249
 21
136.281
  0
LINE
  8
0
 10
-1.47249
 20
136.281
 11
-1.70311
 21
136.381
  0
LINE
  8
0
 10
-1.70311
 20
136.381
 11
-1.927
 21
136.495
  0
LINE
  8
0
 10
-1.927
 20
136.495
 11
-2.1433
 21
136.623
  0
LINE
  8
0
 10
-2.1433
 20
136.623
 11
-2.35114
 21
136.764
  0
LINE
  8
0
 10
-2.35114
 20
136.764
 11
-2.54968
 21
136.918
  0
LINE
  8
0
 10
-2.54968
 20
136.918
 11
-2.73817
 21
137.084
  0
LINE
  8
0
 10
-2.73817
 20
137.084
 11
-2.91586
 21
137.262
  0
LINE
  8
0
 10
-2.91586
 20
137.262
 11
-3.08205
 21
137.45
  0
LINE
  8
0
 10
-3.08205
 20
137.45
 11
-3.23605
 21
137.649
  0
LINE
  8
0
 10
-3.23605
 20
137.649
 11
-3.3773
 21
137.857
  0
LINE
  8
0
 10
-3.3773
 20
137.857
 11
-3.50522
 21
138.073
  0
LINE
  8
0
 10
-3.50522
 20
138.073
 11
-3.61929
 21
138.297
  0
LINE
  8
0
 10
-3.61929
 20
138.297
 11
-3.7191
 21
138.527
  0
LINE
  8
0
 10
-3.7191
 20
138.527
 11
-3.80421
 21
138.764
  0
LINE
  8
0
 10
-3.80421
 20
138.764
 11
-3.87433
 21
139.005
  0
LINE
  8
0
 10
-3.87433
 20
139.005
 11
-3.92914
 21
139.25
  0
LINE
  8
0
 10
-3.92914
 20
139.25
 11
-3.96844
 21
139.499
  0
LINE
  8
0
 10
-3.96844
 20
139.499
 11
-3.9921
 21
139.749
  0
LINE
  8
0
 10
-3.9921
 20
139.749
 11
-4
 21
140
  0
LINE
  8
0
 10
-4
 20
140
 11
-3.9921
 21
140.251
  0
LINE
  8
0
 10
-3.9921
 20
140.251
 11
-3.96844
 21
140.501
  0
LINE
  8
0
 10
-3.96844
 20
140.501
 11
-3.92914
 21
140.75
  0
LINE
  8
0
 10
-3.92914
 20
140.75
 11
-3.87433
 21
140.995
  0
LINE
  8
0
 10
-3.87433
 20
140.995
 11
-3.80421
 21
141.236
  0
LINE
  8
0
 10
-3.80421
 20
141.236
 11
-3.7191
 21
141.472
  0
LINE
  8
0
 10
-3.7191
 20
141.472
 11
-3.61929
 21
141.703
  0
LINE
  8
0
 10
-3.61929
 20
141.703
 11
-3.50522
 21
141.927
  0
LINE
  8
0
 10
-3.50522
 20
141.927
 11
-3.3773
 21
142.143
  0
LINE
  8
0
 10
-3.3773
 20
142.143
 11
-3.23605
 21
142.351
  0
LINE
  8
0
 10
-3.23605
 20
142.351
 11
-3.08205
 21
142.55
  0
LINE
  8
0
 10
-3.08205
 20
142.55
 11
-2.91586
 21
142.738
  0
LINE
  8
0
 10
-2.91586
 20
142.738
 11
-2.73817
 21
142.916
  0
LINE
  8
0
 10
-2.73817
 20
142.916
 11
-2.54968
 21
143.082
  0
LINE
  8
0
 10
-2.54968
 20
143.082
 11
-2.35114
 21
143.236
  0
LINE
  8
0
 10
-2.35114
 20
143.236
 11
-2.1433
 21
143.377
  0
LINE
  8
0
 10
-2.1433
 20
143.377
 11
-1.927
 21
143.505
  0
LINE
  8
0
 10
-1.927
 20
143.505
 11
-1.70311
 21
143.619
  0
LINE
  8
0
 10
-1.70311
 20
143.619
 11
-1.47249
 21
143.719
  0
LINE
  8
0
 10
-1.47249
 20
143.719
 11
-1.23605
 21
143.804
  0
LINE
  8
0
 10
-1.23605
 20
143.804
 11
-0.994751
 21
143.874
  0
LINE
  8
0
 10
-0.994751
 20
143.874
 11
-0.749512
 21
143.929
  0
LINE
  8
0
 10
-0.749512
 20
143.929
 11
-0.501328
 21
143.968
  0
LINE
  8
0
 10
-0.501328
 20
143.968
 11
-0.25116
 21
143.992
  0
LINE
  8
0
 10
-0.25116
 20
143.992
 11
0
 21
144
  0
LINE
  8
0
 10
0
 20
144
 11
0.25116
 21
143.992
  0
LINE
  8
0
 10
0.25116
 20
143.992
 11
0.501328
 21
143.968
  0
LINE
  8
0
 10
0.501328
 20
143.968
 11
0.749512
 21
143.929
  0
LINE
  8
0
 10
0.749512
 20
143.929
 11
0.994751
 21
143.874
  0
LINE
  8
0
 10
0.994751
 20
143.874
 11
1.23605
 21
143.804
  0
LINE
  8
0
 10
1.23605
 20
143.804
 11
1.47249
 21
143.719
  0
LINE
  8
0
 10
1.47249
 20
143.719
 11
1.70311
 21
143.619
  0
LINE
  8
0
 10
1.70311
 20
143.619
 11
1.927
 21
143.505
  0
LINE
  8
0
 10
1.927
 20
143.505
 11
2.1433
 21
143.377
  0
LINE
  8
0
 10
2.1433
 20
143.377
 11
2.35114
 21
143.236
  0
LINE
  8
0
 10
2.35114
 20
143.236
 11
2.54968
 21
143.082
  0
LINE
  8
0
 10
2.54968
 20
143.082
 11
2.73817
 21
142.916
  0
LINE
  8
0
 10
2.73817
 20
142.916
 11
2.91586
 21
142.738
  0
LINE
  8
0
 10
2.91586
 20
142.738
 11
3.08205
 21
142.55
  0
LINE
  8
0
 10
3.08205
 20
142.55
 11
3.23605
 21
142.351
  0
LINE
  8
0
 10
3.23605
 20
142.351
 11
3.3773
 21
142.143
  0
LINE
  8
0
 10
3.3773
 20
142.143
 11
3.50522
 21
141.927
  0
LINE
  8
0
 10
3.50522
 20
141.927
 11
3.61929
 21
141.703
  0
LINE
  8
0
 10
3.61929
 20
141.703
 11
3.7191
 21
141.472
  0
LINE
  8
0
 10
3.7191
 20
141.472
 11
3.80421
 21
141.236
  0
LINE
  8
0
 10
3.80421
 20
141.236
 11
3.87433
 21
140.995
  0
LINE
  8
0
 10
3.87433
 20
140.995
 11
3.92914
 21
140.75
  0
LINE
  8
0
 10
3.92914
 20
140.75
 11
3.96844
 21
140.501
  0
LINE
  8
0
 10
3.96844
 20
140.501
 11
3.9921
 21
140.251
  0
LINE
  8
0
 10
3.9921
 20
140.251
 11
4
 21
140
  0
LINE
  8
0
 10
4
 20
140
 11
3.9921
 21
139.749
  0
LINE
  8
0
 10
3.9921
 20
139.749
 11
3.96844
 21
139.499
  0
LINE
  8
0
 10
3.96844
 20
139.499
 11
3.92914
 21
139.25
  0
LINE
  8
0
 10
3.92914
 20
139.25
 11
3.87433
 21
139.005
  0
LINE
  8
0
 10
3.87433
 20
139.005
 11
3.80421
 21
138.764
  0
LINE
  8
0
 10
3.80421
 20
138.764
 11
3.7191
 21
138.527
  0
LINE
  8
0
 10
3.7191
 20
138.527
 11
3.61929
 21
138.297
  0
LINE
  8
0
 10
3.61929
 20
138.297
 11
3.50522
 21
138.073
  0
LINE
  8
0
 10
3.50522
 20
138.073
 11
3.3773
 21
137.857
  0
LINE
  8
0
 10
3.3773
 20
137.857
 11
3.23605
 21
137.649
  0
LINE
  8
0
 10
3.23605
 20
137.649
 11
3.08205
 21
137.45
  0
LINE
  8
0
 10
3.08205
 20
137.45
 11
2.91586
 21
137.262
  0
LINE
  8
0
 10
2.91586
 20
137.262
 11
2.73817
 21
137.084
  0
LINE
  8
0
 10
2.73817
 20
137.084
 11
2.54968
 21
136.918
  0
LINE
  8
0
 10
2.54968
 20
136.918
 11
2.35114
 21
136.764
  0
LINE
  8
0
 10
2.35114
 20
136.764
 11
2.1433
 21
136.623
  0
LINE
  8
0
 10
2.1433
 20
136.623
 11
1.927
 21
136.495
  0
LINE
  8
0
 10
1.927
 20
136.495
 11
1.70311
 21
136.381
  0
LINE
  8
0
 10
1.70311
 20
136.381
 11
1.47249
 21
136.281
  0
LINE
  8
0
 10
1.47249
 20
136.281
 11
1.23605
 21
136.196
  0
LINE
  8
0
 10
1.23605
 20
136.196
 11
0.994751
 21
136.126
  0
LINE
  8
0
 10
0.994751
 20
136.126
 11
0.749512
 21
136.071
  0
LINE
  8
0
 10
0.749512
 20
136.071
 11
0.501328
 21
136.032
  0
LINE
  8
0
 10
0.501328
 20
136.032
 11
0.25116
 21
136.008
  0
LINE
  8
0
 10
0.25116
 20
136.008
 11
0
 21
136
  0
LINE
  8
0
 10
0
 20
136
 11
-0.25116
 21
136.008
  0
LINE
  8
0
 10
-0.25116
 20
-143.992
 11
-0.501328
 21
-143.968
  0
LINE
  8
0
 10
-0.501328
 20
-143.968
 11
-0.749512
 21
-143.929
  0
LINE
  8
0
 10
-0.749512
 20
-143.929
 11
-0.994751
 21
-143.874
  0
LINE
  8
0
 10
-0.994751
 20
-143.874
 11
-1.23605
 21
-143.804
  0
LINE
  8
0
 10
-1.23605
 20
-143.804
 11
-1.47249
 21
-143.719
  0
LINE
  8
0
 10
-1.47249
 20
-143.719
 11
-1.70311
 21
-143.619
  0
LINE
  8
0
 10
-1.70311
 20
-143.619
 11
-1.927
 21
-143.505
  0
LINE
  8
0
 10
-1.927
 20
-143.505
 11
-2.1433
 21
-143.377
  0
LINE
  8
0
 10
-2.1433
 20
-143.377
 11
-2.35114
 21
-143.236
  0
LINE
  8
0
 10
-2.35114
 20
-143.236
 11
-2.54968
 21
-143.082
  0
LINE
  8
0
 10
-2.54968
 20
-143.082
 11
-2.73817
 21
-142.916
  0
LINE
  8
0
 10
-2.73817
 20
-142.916
 11
-2.91586
 21
-142.738
  0
LINE
  8
0
 10
-2.91586
 20
-142.738
 11
-3.08205
 21
-142.55
  0
LINE
  8
0
 10
-3.08205
 20
-142.55
 11
-3.23605
 21
-142.351
  0
LINE
  8
0
 10
-3.23605
 20
-142.351
 11
-3.3773
 21
-142.143
  0
LINE
  8
0
 10
-3.3773
 20
-142.143
 11
-3.50522
 21
-141.927
  0
LINE
  8
0
 10
-3.50522
 20
-141.927
 11
-3.61929
 21
-141.703
  0
LINE
  8
0
 10
-3.61929
 20
-141.703
 11
-3.7191
 21
-141.472
  0
LINE
  8
0
 10
-3.7191
 20
-141.472
 11
-3.80421
 21
-141.236
  0
LINE
  8
0
 10
-3.80421
 20
-141.236
 11
-3.87433
 21
-140.995
  0
LINE
  8
0
 10
-3.87433
 20
-140.995
 11
-3.92914
 21
-140.75
  0
LINE
  8
0
 10
-3.92914
 20
-140.75
 11
-3.96844
 21
-140.501
  0
LINE
  8
0
 10
-3.96844
 20
-140.501
 11
-3.9921
 21
-140.251
  0
LINE
  8
0
 10
-3.9921
 20
-140.251
 11
-4
 21
-140
  0
LINE
  8
0
 10
-4
 20
-140
 11
-3.9921
 21
-139.749
  0
LINE
  8
0
 10
-3.9921
 20
-139.749
 11
-3.96844
 21
-139.499
  0
LINE
  8
0
 10
-3.96844
 20
-139.499
 11
-3.92914
 21
-139.25
  0
LINE
  8
0
 10
-3.92914
 20
-139.25
 11
-3.87433
 21
-139.005
  0
LINE
  8
0
 10
-3.87433
 20
-139.005
 11
-3.80421
 21
-138.764
  0
LINE
  8
0
 10
-3.80421
 20
-138.764
 11
-3.7191
 21
-138.527
  0
LINE
  8
0
 10
-3.7191
 20
-138.527
 11
-3.61929
 21
-138.297
  0
LINE
  8
0
 10
-3.61929
 20
-138.297
 11
-3.50522
 21
-138.073
  0
LINE
  8
0
 10
-3.50522
 20
-138.073
 11
-3.3773
 21
-137.857
  0
LINE
  8
0
 10
-3.3773
 20
-137.857
 11
-3.23605
 21
-137.649
  0
LINE
  8
0
 10
-3.23605
 20
-137.649
 11
-3.08205
 21
-137.45
  0
LINE
  8
0
 10
-3.08205
 20
-137.45
 11
-2.91586
 21
-137.262
  0
LINE
  8
0
 10
-2.91586
 20
-137.262
 11
-2.73817
 21
-137.084
  0
LINE
  8
0
 10
-2.73817
 20
-137.084
 11
-2.54968
 21
-136.918
  0
LINE
  8
0
 10
-2.54968
 20
-136.918
 11
-2.35114
 21
-136.764
  0
LINE
  8
0
 10
-2.35114
 20
-136.764
 11
-2.1433
 21
-136.623
  0
LINE
  8
0
 10
-2.1433
 20
-136.623
 11
-1.927
 21
-136.495
  0
LINE
  8
0
 10
-1.927
 20
-136.495
 11
-1.70311
 21
-136.381
  0
LINE
  8
0
 10
-1.70311
 20
-136.381
 11
-1.47249
 21
-136.281
  0
LINE
  8
0
 10
-1.47249
 20
-136.281
 11
-1.23605
 21
-136.196
  0
LINE
  8
0
 10
-1.23605
 20
-136.196
 11
-0.994751
 21
-136.126
  0
LINE
  8
0
 10
-0.994751
 20
-136.126
 11
-0.749512
 21
-136.071
  0
LINE
  8
0
 10
-0.749512
 20
-136.071
 11
-0.501328
 21
-136.032
  0
LINE
  8
0
 10
-0.501328
 20
-136.032
 11
-0.25116
 21
-136.008
  0
LINE
  8
0
 10
-0.25116
 20
-136.008
 11
0
 21
-136
  0
LINE
  8
0
 10
0
 20
-136
 11
0.25116
 21
-136.008
  0
LINE
  8
0
 10
0.25116
 20
-136.008
 11
0.501328
 21
-136.032
  0
LINE
  8
0
 10
0.501328
 20
-136.032
 11
0.749512
 21
-136.071
  0
LINE
  8
0
 10
0.749512
 20
-136.071
 11
0.994751
 21
-136.126
  0
LINE
  8
0
 10
0.994751
 20
-136.126
 11
1.23605
 21
-136.196
  0
LINE
  8
0
 10
1.23605
 20
-136.196
 11
1.47249
 21
-136.281
  0
LINE
  8
0
 10
1.47249
 20
-136.281
 11
1.70311
 21
-136.381
  0
LINE
  8
0
 10
1.70311
 20
-136.381
 11
1.927
 21
-136.495
  0
LINE
  8
0
 10
1.927
 20
-136.495
 11
2.1433
 21
-136.623
  0
LINE
  8
0
 10
2.1433
 20
-136.623
 11
2.35114
 21
-136.764
  0
LINE
  8
0
 10
2.35114
 20
-136.764
 11
2.54968
 21
-136.918
  0
LINE
  8
0
 10
2.54968
 20
-136.918
 11
2.73817
 21
-137.084
  0
LINE
  8
0
 10
2.73817
 20
-137.084
 11
2.91586
 21
-137.262
  0
LINE
  8
0
 10
2.91586
 20
-137.262
 11
3.08205
 21
-137.45
  0
LINE
  8
0
 10
3.08205
 20
-137.45
 11
3.23605
 21
-137.649
  0
LINE
  8
0
 10
3.23605
 20
-137.649
 11
3.3773
 21
-137.857
  0
LINE
  8
0
 10
3.3773
 20
-137.857
 11
3.50522
 21
-138.073
  0
LINE
  8
0
 10
3.50522
 20
-138.073
 11
3.61929
 21
-138.297
  0
LINE
  8
0
 10
3.61929
 20
-138.297
 11
3.7191
 21
-138.527
  0
LINE
  8
0
 10
3.7191
 20
-138.527
 11
3.80421
 21
-138.764
  0
LINE
  8
0
 10
3.80421
 20
-138.764
 11
3.87433
 21
-139.005
  0
LINE
  8
0
 10
3.87433
 20
-139.005
 11
3.92914
 21
-139.25
  0
LINE
  8
0
 10
3.92914
 20
-139.25
 11
3.96844
 21
-139.499
  0
LINE
  8
0
 10
3.96844
 20
-139.499
 11
3.9921
 21
-139.749
  0
LINE
  8
0
 10
3.9921
 20
-139.749
 11
4
 21
-140
  0
LINE
  8
0
 10
4
 20
-140
 11
3.9921
 21
-140.251
  0
LINE
  8
0
 10
3.9921
 20
-140.251
 11
3.96844
 21
-140.501
  0
LINE
  8
0
 10
3.96844
 20
-140.501
 11
3.92914
 21
-140.75
  0
LINE
  8
0
 10
3.92914
 20
-140.75
 11
3.87433
 21
-140.995
  0
LINE
  8
0
 10
3.87433
 20
-140.995
 11
3.80421
 21
-141.236
  0
LINE
  8
0
 10
3.80421
 20
-141.236
 11
3.7191
 21
-141.472
  0
LINE
  8
0
 10
3.7191
 20
-141.472
 11
3.61929
 21
-141.703
  0
LINE
  8
0
 10
3.61929
 20
-141.703
 11
3.50522
 21
-141.927
  0
LINE
  8
0
 10
3.50522
 20
-141.927
 11
3.3773
 21
-142.143
  0
LINE
  8
0
 10
3.3773
 20
-142.143
 11
3.23605
 21
-142.351
  0
LINE
  8
0
 10
3.23605
 20
-142.351
 11
3.08205
 21
-142.55
  0
LINE
  8
0
 10
3.08205
 20
-142.55
 11
2.91586
 21
-142.738
  0
LINE
  8
0
 10
2.91586
 20
-142.738
 11
2.73817
 21
-142.916
  0
LINE
  8
0
 10
2.73817
 20
-142.916
 11
2.54968
 21
-143.082
  0
LINE
  8
0
 10
2.54968
 20
-143.082
 11
2.35114
 21
-143.236
  0
LINE
  8
0
 10
2.35114
 20
-143.236
 11
2.1433
 21
-143.377
  0
LINE
  8
0
 10
2.1433
 20
-143.377
 11
1.927
 21
-143.505
  0
LINE
  8
0
 10
1.927
 20
-143.505
 11
1.70311
 21
-143.619
  0
LINE
  8
0
 10
1.70311
 20
-143.619
 11
1.47249
 21
-143.719
  0
LINE
  8
0
 10
1.47249
 20
-143.719
 11
1.23605
 21
-143.804
  0
LINE
  8
0
 10
1.23605
 20
-143.804
 11
0.994751
 21
-143.874
  0
LINE
  8
0
 10
0.994751
 20
-143.874
 11
0.749512
 21
-143.929
  0
LINE
  8
0
 10
0.749512
 20
-143.929
 11
0.501328
 21
-143.968
  0
LINE
  8
0
 10
0.501328
 20
-143.968
 11
0.25116
 21
-143.992
  0
LINE
  8
0
 10
0.25116
 20
-143.992
 11
0
 21
-144
  0
LINE
  8
0
 10
0
 20
-144
 11
-0.25116
 21
-143.992
  0
ENDSEC
  0
SECTION
  2
OBJECTS
  0
DICTIONARY
  0
ENDSEC
  0
EOF
