  0
SECTION
  2
BLOCKS
  0
ENDSEC
  0
SECTION
  2
ENTITIES
  0
LINE
  8
0
 10
85
 20
95
 11
-85
 21
95
  0
LINE
  8
0
 10
-85
 20
95
 11
-85
 21
-95
  0
LINE
  8
0
 10
-85
 20
-95
 11
85
 21
-95
  0
LINE
  8
0
 10
85
 20
-95
 11
85
 21
95
  0
LINE
  8
0
 10
-40.1256
 20
82.0039
 11
-40.2507
 21
82.0158
  0
LINE
  8
0
 10
-40.2507
 20
82.0158
 11
-40.3748
 21
82.0354
  0
LINE
  8
0
 10
-40.3748
 20
82.0354
 11
-40.4974
 21
82.0628
  0
LINE
  8
0
 10
-40.4974
 20
82.0628
 11
-40.618
 21
82.0979
  0
LINE
  8
0
 10
-40.618
 20
82.0979
 11
-40.7363
 21
82.1404
  0
LINE
  8
0
 10
-40.7363
 20
82.1404
 11
-40.8516
 21
82.1903
  0
LINE
  8
0
 10
-40.8516
 20
82.1903
 11
-40.9635
 21
82.2474
  0
LINE
  8
0
 10
-40.9635
 20
82.2474
 11
-41.0717
 21
82.3113
  0
LINE
  8
0
 10
-41.0717
 20
82.3113
 11
-41.1756
 21
82.382
  0
LINE
  8
0
 10
-41.1756
 20
82.382
 11
-41.2749
 21
82.459
  0
LINE
  8
0
 10
-41.2749
 20
82.459
 11
-41.3691
 21
82.5421
  0
LINE
  8
0
 10
-41.3691
 20
82.5421
 11
-41.4579
 21
82.6309
  0
LINE
  8
0
 10
-41.4579
 20
82.6309
 11
-41.541
 21
82.7251
  0
LINE
  8
0
 10
-41.541
 20
82.7251
 11
-41.618
 21
82.8244
  0
LINE
  8
0
 10
-41.618
 20
82.8244
 11
-41.6887
 21
82.9283
  0
LINE
  8
0
 10
-41.6887
 20
82.9283
 11
-41.7526
 21
83.0365
  0
LINE
  8
0
 10
-41.7526
 20
83.0365
 11
-41.8097
 21
83.1484
  0
LINE
  8
0
 10
-41.8097
 20
83.1484
 11
-41.8596
 21
83.2637
  0
LINE
  8
0
 10
-41.8596
 20
83.2637
 11
-41.9021
 21
83.382
  0
LINE
  8
0
 10
-41.9021
 20
83.382
 11
-41.9372
 21
83.5026
  0
LINE
  8
0
 10
-41.9372
 20
83.5026
 11
-41.9646
 21
83.6252
  0
LINE
  8
0
 10
-41.9646
 20
83.6252
 11
-41.9842
 21
83.7493
  0
LINE
  8
0
 10
-41.9842
 20
83.7493
 11
-41.9961
 21
83.8744
  0
LINE
  8
0
 10
-41.9961
 20
83.8744
 11
-42
 21
84
  0
LINE
  8
0
 10
-42
 20
84
 11
-41.9961
 21
84.1256
  0
LINE
  8
0
 10
-41.9961
 20
84.1256
 11
-41.9842
 21
84.2507
  0
LINE
  8
0
 10
-41.9842
 20
84.2507
 11
-41.9646
 21
84.3748
  0
LINE
  8
0
 10
-41.9646
 20
84.3748
 11
-41.9372
 21
84.4974
  0
LINE
  8
0
 10
-41.9372
 20
84.4974
 11
-41.9021
 21
84.618
  0
LINE
  8
0
 10
-41.9021
 20
84.618
 11
-41.8596
 21
84.7362
  0
LINE
  8
0
 10
-41.8596
 20
84.7362
 11
-41.8097
 21
84.8515
  0
LINE
  8
0
 10
-41.8097
 20
84.8515
 11
-41.7526
 21
84.9635
  0
LINE
  8
0
 10
-41.7526
 20
84.9635
 11
-41.6887
 21
85.0716
  0
LINE
  8
0
 10
-41.6887
 20
85.0716
 11
-41.618
 21
85.1756
  0
LINE
  8
0
 10
-41.618
 20
85.1756
 11
-41.541
 21
85.2748
  0
LINE
  8
0
 10
-41.541
 20
85.2748
 11
-41.4579
 21
85.3691
  0
LINE
  8
0
 10
-41.4579
 20
85.3691
 11
-41.3691
 21
85.4579
  0
LINE
  8
0
 10
-41.3691
 20
85.4579
 11
-41.2749
 21
85.541
  0
LINE
  8
0
 10
-41.2749
 20
85.541
 11
-41.1756
 21
85.618
  0
LINE
  8
0
 10
-41.1756
 20
85.618
 11
-41.0717
 21
85.6886
  0
LINE
  8
0
 10
-41.0717
 20
85.6886
 11
-40.9635
 21
85.7526
  0
LINE
  8
0
 10
-40.9635
 20
85.7526
 11
-40.8516
 21
85.8096
  0
LINE
  8
0
 10
-40.8516
 20
85.8096
 11
-40.7363
 21
85.8595
  0
LINE
  8
0
 10
-40.7363
 20
85.8595
 11
-40.618
 21
85.9021
  0
LINE
  8
0
 10
-40.618
 20
85.9021
 11
-40.4974
 21
85.9372
  0
LINE
  8
0
 10
-40.4974
 20
85.9372
 11
-40.3748
 21
85.9646
  0
LINE
  8
0
 10
-40.3748
 20
85.9646
 11
-40.2507
 21
85.9842
  0
LINE
  8
0
 10
-40.2507
 20
85.9842
 11
-40.1256
 21
85.996
  0
LINE
  8
0
 10
-40.1256
 20
85.996
 11
-40
 21
86
  0
LINE
  8
0
 10
-40
 20
86
 11
-39.8744
 21
85.996
  0
LINE
  8
0
 10
-39.8744
 20
85.996
 11
-39.7493
 21
85.9842
  0
LINE
  8
0
 10
-39.7493
 20
85.9842
 11
-39.6252
 21
85.9646
  0
LINE
  8
0
 10
-39.6252
 20
85.9646
 11
-39.5026
 21
85.9372
  0
LINE
  8
0
 10
-39.5026
 20
85.9372
 11
-39.382
 21
85.9021
  0
LINE
  8
0
 10
-39.382
 20
85.9021
 11
-39.2638
 21
85.8595
  0
LINE
  8
0
 10
-39.2638
 20
85.8595
 11
-39.1485
 21
85.8096
  0
LINE
  8
0
 10
-39.1485
 20
85.8096
 11
-39.0365
 21
85.7526
  0
LINE
  8
0
 10
-39.0365
 20
85.7526
 11
-38.9284
 21
85.6886
  0
LINE
  8
0
 10
-38.9284
 20
85.6886
 11
-38.8244
 21
85.618
  0
LINE
  8
0
 10
-38.8244
 20
85.618
 11
-38.7252
 21
85.541
  0
LINE
  8
0
 10
-38.7252
 20
85.541
 11
-38.6309
 21
85.4579
  0
LINE
  8
0
 10
-38.6309
 20
85.4579
 11
-38.5421
 21
85.3691
  0
LINE
  8
0
 10
-38.5421
 20
85.3691
 11
-38.459
 21
85.2748
  0
LINE
  8
0
 10
-38.459
 20
85.2748
 11
-38.382
 21
85.1756
  0
LINE
  8
0
 10
-38.382
 20
85.1756
 11
-38.3114
 21
85.0716
  0
LINE
  8
0
 10
-38.3114
 20
85.0716
 11
-38.2474
 21
84.9635
  0
LINE
  8
0
 10
-38.2474
 20
84.9635
 11
-38.1904
 21
84.8515
  0
LINE
  8
0
 10
-38.1904
 20
84.8515
 11
-38.1405
 21
84.7362
  0
LINE
  8
0
 10
-38.1405
 20
84.7362
 11
-38.0979
 21
84.618
  0
LINE
  8
0
 10
-38.0979
 20
84.618
 11
-38.0628
 21
84.4974
  0
LINE
  8
0
 10
-38.0628
 20
84.4974
 11
-38.0354
 21
84.3748
  0
LINE
  8
0
 10
-38.0354
 20
84.3748
 11
-38.0158
 21
84.2507
  0
LINE
  8
0
 10
-38.0158
 20
84.2507
 11
-38.004
 21
84.1256
  0
LINE
  8
0
 10
-38.004
 20
84.1256
 11
-38
 21
84
  0
LINE
  8
0
 10
-38
 20
84
 11
-38.004
 21
83.8744
  0
LINE
  8
0
 10
-38.004
 20
83.8744
 11
-38.0158
 21
83.7493
  0
LINE
  8
0
 10
-38.0158
 20
83.7493
 11
-38.0354
 21
83.6252
  0
LINE
  8
0
 10
-38.0354
 20
83.6252
 11
-38.0628
 21
83.5026
  0
LINE
  8
0
 10
-38.0628
 20
83.5026
 11
-38.0979
 21
83.382
  0
LINE
  8
0
 10
-38.0979
 20
83.382
 11
-38.1405
 21
83.2637
  0
LINE
  8
0
 10
-38.1405
 20
83.2637
 11
-38.1904
 21
83.1484
  0
LINE
  8
0
 10
-38.1904
 20
83.1484
 11
-38.2474
 21
83.0365
  0
LINE
  8
0
 10
-38.2474
 20
83.0365
 11
-38.3114
 21
82.9283
  0
LINE
  8
0
 10
-38.3114
 20
82.9283
 11
-38.382
 21
82.8244
  0
LINE
  8
0
 10
-38.382
 20
82.8244
 11
-38.459
 21
82.7251
  0
LINE
  8
0
 10
-38.459
 20
82.7251
 11
-38.5421
 21
82.6309
  0
LINE
  8
0
 10
-38.5421
 20
82.6309
 11
-38.6309
 21
82.5421
  0
LINE
  8
0
 10
-38.6309
 20
82.5421
 11
-38.7252
 21
82.459
  0
LINE
  8
0
 10
-38.7252
 20
82.459
 11
-38.8244
 21
82.382
  0
LINE
  8
0
 10
-38.8244
 20
82.382
 11
-38.9284
 21
82.3113
  0
LINE
  8
0
 10
-38.9284
 20
82.3113
 11
-39.0365
 21
82.2474
  0
LINE
  8
0
 10
-39.0365
 20
82.2474
 11
-39.1485
 21
82.1903
  0
LINE
  8
0
 10
-39.1485
 20
82.1903
 11
-39.2638
 21
82.1404
  0
LINE
  8
0
 10
-39.2638
 20
82.1404
 11
-39.382
 21
82.0979
  0
LINE
  8
0
 10
-39.382
 20
82.0979
 11
-39.5026
 21
82.0628
  0
LINE
  8
0
 10
-39.5026
 20
82.0628
 11
-39.6252
 21
82.0354
  0
LINE
  8
0
 10
-39.6252
 20
82.0354
 11
-39.7493
 21
82.0158
  0
LINE
  8
0
 10
-39.7493
 20
82.0158
 11
-39.8744
 21
82.0039
  0
LINE
  8
0
 10
-39.8744
 20
82.0039
 11
-40
 21
82
  0
LINE
  8
0
 10
-40
 20
82
 11
-40.1256
 21
82.0039
  0
LINE
  8
0
 10
79.8744
 20
82.0039
 11
79.7493
 21
82.0158
  0
LINE
  8
0
 10
79.7493
 20
82.0158
 11
79.6252
 21
82.0354
  0
LINE
  8
0
 10
79.6252
 20
82.0354
 11
79.5026
 21
82.0628
  0
LINE
  8
0
 10
79.5026
 20
82.0628
 11
79.382
 21
82.0979
  0
LINE
  8
0
 10
79.382
 20
82.0979
 11
79.2637
 21
82.1404
  0
LINE
  8
0
 10
79.2637
 20
82.1404
 11
79.1484
 21
82.1903
  0
LINE
  8
0
 10
79.1484
 20
82.1903
 11
79.0365
 21
82.2474
  0
LINE
  8
0
 10
79.0365
 20
82.2474
 11
78.9283
 21
82.3113
  0
LINE
  8
0
 10
78.9283
 20
82.3113
 11
78.8244
 21
82.382
  0
LINE
  8
0
 10
78.8244
 20
82.382
 11
78.7251
 21
82.459
  0
LINE
  8
0
 10
78.7251
 20
82.459
 11
78.6309
 21
82.5421
  0
LINE
  8
0
 10
78.6309
 20
82.5421
 11
78.5421
 21
82.6309
  0
LINE
  8
0
 10
78.5421
 20
82.6309
 11
78.459
 21
82.7251
  0
LINE
  8
0
 10
78.459
 20
82.7251
 11
78.382
 21
82.8244
  0
LINE
  8
0
 10
78.382
 20
82.8244
 11
78.3113
 21
82.9283
  0
LINE
  8
0
 10
78.3113
 20
82.9283
 11
78.2474
 21
83.0365
  0
LINE
  8
0
 10
78.2474
 20
83.0365
 11
78.1903
 21
83.1484
  0
LINE
  8
0
 10
78.1903
 20
83.1484
 11
78.1404
 21
83.2637
  0
LINE
  8
0
 10
78.1404
 20
83.2637
 11
78.0979
 21
83.382
  0
LINE
  8
0
 10
78.0979
 20
83.382
 11
78.0628
 21
83.5026
  0
LINE
  8
0
 10
78.0628
 20
83.5026
 11
78.0354
 21
83.6252
  0
LINE
  8
0
 10
78.0354
 20
83.6252
 11
78.0158
 21
83.7493
  0
LINE
  8
0
 10
78.0158
 20
83.7493
 11
78.0039
 21
83.8744
  0
LINE
  8
0
 10
78.0039
 20
83.8744
 11
78
 21
84
  0
LINE
  8
0
 10
78
 20
84
 11
78.0039
 21
84.1256
  0
LINE
  8
0
 10
78.0039
 20
84.1256
 11
78.0158
 21
84.2507
  0
LINE
  8
0
 10
78.0158
 20
84.2507
 11
78.0354
 21
84.3748
  0
LINE
  8
0
 10
78.0354
 20
84.3748
 11
78.0628
 21
84.4974
  0
LINE
  8
0
 10
78.0628
 20
84.4974
 11
78.0979
 21
84.618
  0
LINE
  8
0
 10
78.0979
 20
84.618
 11
78.1404
 21
84.7362
  0
LINE
  8
0
 10
78.1404
 20
84.7362
 11
78.1903
 21
84.8515
  0
LINE
  8
0
 10
78.1903
 20
84.8515
 11
78.2474
 21
84.9635
  0
LINE
  8
0
 10
78.2474
 20
84.9635
 11
78.3113
 21
85.0716
  0
LINE
  8
0
 10
78.3113
 20
85.0716
 11
78.382
 21
85.1756
  0
LINE
  8
0
 10
78.382
 20
85.1756
 11
78.459
 21
85.2748
  0
LINE
  8
0
 10
78.459
 20
85.2748
 11
78.5421
 21
85.3691
  0
LINE
  8
0
 10
78.5421
 20
85.3691
 11
78.6309
 21
85.4579
  0
LINE
  8
0
 10
78.6309
 20
85.4579
 11
78.7251
 21
85.541
  0
LINE
  8
0
 10
78.7251
 20
85.541
 11
78.8244
 21
85.618
  0
LINE
  8
0
 10
78.8244
 20
85.618
 11
78.9283
 21
85.6886
  0
LINE
  8
0
 10
78.9283
 20
85.6886
 11
79.0365
 21
85.7526
  0
LINE
  8
0
 10
79.0365
 20
85.7526
 11
79.1484
 21
85.8096
  0
LINE
  8
0
 10
79.1484
 20
85.8096
 11
79.2637
 21
85.8595
  0
LINE
  8
0
 10
79.2637
 20
85.8595
 11
79.382
 21
85.9021
  0
LINE
  8
0
 10
79.382
 20
85.9021
 11
79.5026
 21
85.9372
  0
LINE
  8
0
 10
79.5026
 20
85.9372
 11
79.6252
 21
85.9646
  0
LINE
  8
0
 10
79.6252
 20
85.9646
 11
79.7493
 21
85.9842
  0
LINE
  8
0
 10
79.7493
 20
85.9842
 11
79.8744
 21
85.996
  0
LINE
  8
0
 10
79.8744
 20
85.996
 11
80
 21
86
  0
LINE
  8
0
 10
80
 20
86
 11
80.1256
 21
85.996
  0
LINE
  8
0
 10
80.1256
 20
85.996
 11
80.2507
 21
85.9842
  0
LINE
  8
0
 10
80.2507
 20
85.9842
 11
80.3748
 21
85.9646
  0
LINE
  8
0
 10
80.3748
 20
85.9646
 11
80.4974
 21
85.9372
  0
LINE
  8
0
 10
80.4974
 20
85.9372
 11
80.618
 21
85.9021
  0
LINE
  8
0
 10
80.618
 20
85.9021
 11
80.7362
 21
85.8595
  0
LINE
  8
0
 10
80.7362
 20
85.8595
 11
80.8515
 21
85.8096
  0
LINE
  8
0
 10
80.8515
 20
85.8096
 11
80.9635
 21
85.7526
  0
LINE
  8
0
 10
80.9635
 20
85.7526
 11
81.0716
 21
85.6886
  0
LINE
  8
0
 10
81.0716
 20
85.6886
 11
81.1756
 21
85.618
  0
LINE
  8
0
 10
81.1756
 20
85.618
 11
81.2748
 21
85.541
  0
LINE
  8
0
 10
81.2748
 20
85.541
 11
81.3691
 21
85.4579
  0
LINE
  8
0
 10
81.3691
 20
85.4579
 11
81.4579
 21
85.3691
  0
LINE
  8
0
 10
81.4579
 20
85.3691
 11
81.541
 21
85.2748
  0
LINE
  8
0
 10
81.541
 20
85.2748
 11
81.618
 21
85.1756
  0
LINE
  8
0
 10
81.618
 20
85.1756
 11
81.6886
 21
85.0716
  0
LINE
  8
0
 10
81.6886
 20
85.0716
 11
81.7526
 21
84.9635
  0
LINE
  8
0
 10
81.7526
 20
84.9635
 11
81.8096
 21
84.8515
  0
LINE
  8
0
 10
81.8096
 20
84.8515
 11
81.8595
 21
84.7362
  0
LINE
  8
0
 10
81.8595
 20
84.7362
 11
81.9021
 21
84.618
  0
LINE
  8
0
 10
81.9021
 20
84.618
 11
81.9372
 21
84.4974
  0
LINE
  8
0
 10
81.9372
 20
84.4974
 11
81.9646
 21
84.3748
  0
LINE
  8
0
 10
81.9646
 20
84.3748
 11
81.9842
 21
84.2507
  0
LINE
  8
0
 10
81.9842
 20
84.2507
 11
81.996
 21
84.1256
  0
LINE
  8
0
 10
81.996
 20
84.1256
 11
82
 21
84
  0
LINE
  8
0
 10
82
 20
84
 11
81.996
 21
83.8744
  0
LINE
  8
0
 10
81.996
 20
83.8744
 11
81.9842
 21
83.7493
  0
LINE
  8
0
 10
81.9842
 20
83.7493
 11
81.9646
 21
83.6252
  0
LINE
  8
0
 10
81.9646
 20
83.6252
 11
81.9372
 21
83.5026
  0
LINE
  8
0
 10
81.9372
 20
83.5026
 11
81.9021
 21
83.382
  0
LINE
  8
0
 10
81.9021
 20
83.382
 11
81.8595
 21
83.2637
  0
LINE
  8
0
 10
81.8595
 20
83.2637
 11
81.8096
 21
83.1484
  0
LINE
  8
0
 10
81.8096
 20
83.1484
 11
81.7526
 21
83.0365
  0
LINE
  8
0
 10
81.7526
 20
83.0365
 11
81.6886
 21
82.9283
  0
LINE
  8
0
 10
81.6886
 20
82.9283
 11
81.618
 21
82.8244
  0
LINE
  8
0
 10
81.618
 20
82.8244
 11
81.541
 21
82.7251
  0
LINE
  8
0
 10
81.541
 20
82.7251
 11
81.4579
 21
82.6309
  0
LINE
  8
0
 10
81.4579
 20
82.6309
 11
81.3691
 21
82.5421
  0
LINE
  8
0
 10
81.3691
 20
82.5421
 11
81.2748
 21
82.459
  0
LINE
  8
0
 10
81.2748
 20
82.459
 11
81.1756
 21
82.382
  0
LINE
  8
0
 10
81.1756
 20
82.382
 11
81.0716
 21
82.3113
  0
LINE
  8
0
 10
81.0716
 20
82.3113
 11
80.9635
 21
82.2474
  0
LINE
  8
0
 10
80.9635
 20
82.2474
 11
80.8515
 21
82.1903
  0
LINE
  8
0
 10
80.8515
 20
82.1903
 11
80.7362
 21
82.1404
  0
LINE
  8
0
 10
80.7362
 20
82.1404
 11
80.618
 21
82.0979
  0
LINE
  8
0
 10
80.618
 20
82.0979
 11
80.4974
 21
82.0628
  0
LINE
  8
0
 10
80.4974
 20
82.0628
 11
80.3748
 21
82.0354
  0
LINE
  8
0
 10
80.3748
 20
82.0354
 11
80.2507
 21
82.0158
  0
LINE
  8
0
 10
80.2507
 20
82.0158
 11
80.1256
 21
82.0039
  0
LINE
  8
0
 10
80.1256
 20
82.0039
 11
80
 21
82
  0
LINE
  8
0
 10
80
 20
82
 11
79.8744
 21
82.0039
  0
LINE
  8
0
 10
-0.125595
 20
82.0039
 11
-0.250671
 21
82.0158
  0
LINE
  8
0
 10
-0.250671
 20
82.0158
 11
-0.374771
 21
82.0354
  0
LINE
  8
0
 10
-0.374771
 20
82.0354
 11
-0.497391
 21
82.0628
  0
LINE
  8
0
 10
-0.497391
 20
82.0628
 11
-0.618042
 21
82.0979
  0
LINE
  8
0
 10
-0.618042
 20
82.0979
 11
-0.736252
 21
82.1404
  0
LINE
  8
0
 10
-0.736252
 20
82.1404
 11
-0.851562
 21
82.1903
  0
LINE
  8
0
 10
-0.851562
 20
82.1903
 11
-0.963516
 21
82.2474
  0
LINE
  8
0
 10
-0.963516
 20
82.2474
 11
-1.07166
 21
82.3113
  0
LINE
  8
0
 10
-1.07166
 20
82.3113
 11
-1.17558
 21
82.382
  0
LINE
  8
0
 10
-1.17558
 20
82.382
 11
-1.27486
 21
82.459
  0
LINE
  8
0
 10
-1.27486
 20
82.459
 11
-1.36909
 21
82.5421
  0
LINE
  8
0
 10
-1.36909
 20
82.5421
 11
-1.45795
 21
82.6309
  0
LINE
  8
0
 10
-1.45795
 20
82.6309
 11
-1.54103
 21
82.7251
  0
LINE
  8
0
 10
-1.54103
 20
82.7251
 11
-1.61804
 21
82.8244
  0
LINE
  8
0
 10
-1.61804
 20
82.8244
 11
-1.68866
 21
82.9283
  0
LINE
  8
0
 10
-1.68866
 20
82.9283
 11
-1.75262
 21
83.0365
  0
LINE
  8
0
 10
-1.75262
 20
83.0365
 11
-1.80966
 21
83.1484
  0
LINE
  8
0
 10
-1.80966
 20
83.1484
 11
-1.85956
 21
83.2637
  0
LINE
  8
0
 10
-1.85956
 20
83.2637
 11
-1.90211
 21
83.382
  0
LINE
  8
0
 10
-1.90211
 20
83.382
 11
-1.93718
 21
83.5026
  0
LINE
  8
0
 10
-1.93718
 20
83.5026
 11
-1.96458
 21
83.6252
  0
LINE
  8
0
 10
-1.96458
 20
83.6252
 11
-1.98424
 21
83.7493
  0
LINE
  8
0
 10
-1.98424
 20
83.7493
 11
-1.99606
 21
83.8744
  0
LINE
  8
0
 10
-1.99606
 20
83.8744
 11
-2
 21
84
  0
LINE
  8
0
 10
-2
 20
84
 11
-1.99606
 21
84.1256
  0
LINE
  8
0
 10
-1.99606
 20
84.1256
 11
-1.98424
 21
84.2507
  0
LINE
  8
0
 10
-1.98424
 20
84.2507
 11
-1.96458
 21
84.3748
  0
LINE
  8
0
 10
-1.96458
 20
84.3748
 11
-1.93718
 21
84.4974
  0
LINE
  8
0
 10
-1.93718
 20
84.4974
 11
-1.90211
 21
84.618
  0
LINE
  8
0
 10
-1.90211
 20
84.618
 11
-1.85956
 21
84.7362
  0
LINE
  8
0
 10
-1.85956
 20
84.7362
 11
-1.80966
 21
84.8515
  0
LINE
  8
0
 10
-1.80966
 20
84.8515
 11
-1.75262
 21
84.9635
  0
LINE
  8
0
 10
-1.75262
 20
84.9635
 11
-1.68866
 21
85.0716
  0
LINE
  8
0
 10
-1.68866
 20
85.0716
 11
-1.61804
 21
85.1756
  0
LINE
  8
0
 10
-1.61804
 20
85.1756
 11
-1.54103
 21
85.2748
  0
LINE
  8
0
 10
-1.54103
 20
85.2748
 11
-1.45795
 21
85.3691
  0
LINE
  8
0
 10
-1.45795
 20
85.3691
 11
-1.36909
 21
85.4579
  0
LINE
  8
0
 10
-1.36909
 20
85.4579
 11
-1.27486
 21
85.541
  0
LINE
  8
0
 10
-1.27486
 20
85.541
 11
-1.17558
 21
85.618
  0
LINE
  8
0
 10
-1.17558
 20
85.618
 11
-1.07166
 21
85.6886
  0
LINE
  8
0
 10
-1.07166
 20
85.6886
 11
-0.963516
 21
85.7526
  0
LINE
  8
0
 10
-0.963516
 20
85.7526
 11
-0.851562
 21
85.8096
  0
LINE
  8
0
 10
-0.851562
 20
85.8096
 11
-0.736252
 21
85.8595
  0
LINE
  8
0
 10
-0.736252
 20
85.8595
 11
-0.618042
 21
85.9021
  0
LINE
  8
0
 10
-0.618042
 20
85.9021
 11
-0.497391
 21
85.9372
  0
LINE
  8
0
 10
-0.497391
 20
85.9372
 11
-0.374771
 21
85.9646
  0
LINE
  8
0
 10
-0.374771
 20
85.9646
 11
-0.250671
 21
85.9842
  0
LINE
  8
0
 10
-0.250671
 20
85.9842
 11
-0.125595
 21
85.996
  0
LINE
  8
0
 10
-0.125595
 20
85.996
 11
0
 21
86
  0
LINE
  8
0
 10
0
 20
86
 11
0.12558
 21
85.996
  0
LINE
  8
0
 10
0.12558
 20
85.996
 11
0.250656
 21
85.9842
  0
LINE
  8
0
 10
0.250656
 20
85.9842
 11
0.374756
 21
85.9646
  0
LINE
  8
0
 10
0.374756
 20
85.9646
 11
0.497375
 21
85.9372
  0
LINE
  8
0
 10
0.497375
 20
85.9372
 11
0.618027
 21
85.9021
  0
LINE
  8
0
 10
0.618027
 20
85.9021
 11
0.736237
 21
85.8595
  0
LINE
  8
0
 10
0.736237
 20
85.8595
 11
0.851547
 21
85.8096
  0
LINE
  8
0
 10
0.851547
 20
85.8096
 11
0.963501
 21
85.7526
  0
LINE
  8
0
 10
0.963501
 20
85.7526
 11
1.07164
 21
85.6886
  0
LINE
  8
0
 10
1.07164
 20
85.6886
 11
1.17557
 21
85.618
  0
LINE
  8
0
 10
1.17557
 20
85.618
 11
1.27484
 21
85.541
  0
LINE
  8
0
 10
1.27484
 20
85.541
 11
1.36908
 21
85.4579
  0
LINE
  8
0
 10
1.36908
 20
85.4579
 11
1.45793
 21
85.3691
  0
LINE
  8
0
 10
1.45793
 20
85.3691
 11
1.54102
 21
85.2748
  0
LINE
  8
0
 10
1.54102
 20
85.2748
 11
1.61803
 21
85.1756
  0
LINE
  8
0
 10
1.61803
 20
85.1756
 11
1.68864
 21
85.0716
  0
LINE
  8
0
 10
1.68864
 20
85.0716
 11
1.75261
 21
84.9635
  0
LINE
  8
0
 10
1.75261
 20
84.9635
 11
1.80965
 21
84.8515
  0
LINE
  8
0
 10
1.80965
 20
84.8515
 11
1.85954
 21
84.7362
  0
LINE
  8
0
 10
1.85954
 20
84.7362
 11
1.9021
 21
84.618
  0
LINE
  8
0
 10
1.9021
 20
84.618
 11
1.93716
 21
84.4974
  0
LINE
  8
0
 10
1.93716
 20
84.4974
 11
1.96457
 21
84.3748
  0
LINE
  8
0
 10
1.96457
 20
84.3748
 11
1.98422
 21
84.2507
  0
LINE
  8
0
 10
1.98422
 20
84.2507
 11
1.99605
 21
84.1256
  0
LINE
  8
0
 10
1.99605
 20
84.1256
 11
2
 21
84
  0
LINE
  8
0
 10
2
 20
84
 11
1.99605
 21
83.8744
  0
LINE
  8
0
 10
1.99605
 20
83.8744
 11
1.98422
 21
83.7493
  0
LINE
  8
0
 10
1.98422
 20
83.7493
 11
1.96457
 21
83.6252
  0
LINE
  8
0
 10
1.96457
 20
83.6252
 11
1.93716
 21
83.5026
  0
LINE
  8
0
 10
1.93716
 20
83.5026
 11
1.9021
 21
83.382
  0
LINE
  8
0
 10
1.9021
 20
83.382
 11
1.85954
 21
83.2637
  0
LINE
  8
0
 10
1.85954
 20
83.2637
 11
1.80965
 21
83.1484
  0
LINE
  8
0
 10
1.80965
 20
83.1484
 11
1.75261
 21
83.0365
  0
LINE
  8
0
 10
1.75261
 20
83.0365
 11
1.68864
 21
82.9283
  0
LINE
  8
0
 10
1.68864
 20
82.9283
 11
1.61803
 21
82.8244
  0
LINE
  8
0
 10
1.61803
 20
82.8244
 11
1.54102
 21
82.7251
  0
LINE
  8
0
 10
1.54102
 20
82.7251
 11
1.45793
 21
82.6309
  0
LINE
  8
0
 10
1.45793
 20
82.6309
 11
1.36908
 21
82.5421
  0
LINE
  8
0
 10
1.36908
 20
82.5421
 11
1.27484
 21
82.459
  0
LINE
  8
0
 10
1.27484
 20
82.459
 11
1.17557
 21
82.382
  0
LINE
  8
0
 10
1.17557
 20
82.382
 11
1.07164
 21
82.3113
  0
LINE
  8
0
 10
1.07164
 20
82.3113
 11
0.963501
 21
82.2474
  0
LINE
  8
0
 10
0.963501
 20
82.2474
 11
0.851547
 21
82.1903
  0
LINE
  8
0
 10
0.851547
 20
82.1903
 11
0.736237
 21
82.1404
  0
LINE
  8
0
 10
0.736237
 20
82.1404
 11
0.618027
 21
82.0979
  0
LINE
  8
0
 10
0.618027
 20
82.0979
 11
0.497375
 21
82.0628
  0
LINE
  8
0
 10
0.497375
 20
82.0628
 11
0.374756
 21
82.0354
  0
LINE
  8
0
 10
0.374756
 20
82.0354
 11
0.250656
 21
82.0158
  0
LINE
  8
0
 10
0.250656
 20
82.0158
 11
0.12558
 21
82.0039
  0
LINE
  8
0
 10
0.12558
 20
82.0039
 11
0
 21
82
  0
LINE
  8
0
 10
0
 20
82
 11
-0.125595
 21
82.0039
  0
LINE
  8
0
 10
-80.1256
 20
82.0039
 11
-80.2507
 21
82.0158
  0
LINE
  8
0
 10
-80.2507
 20
82.0158
 11
-80.3748
 21
82.0354
  0
LINE
  8
0
 10
-80.3748
 20
82.0354
 11
-80.4974
 21
82.0628
  0
LINE
  8
0
 10
-80.4974
 20
82.0628
 11
-80.618
 21
82.0979
  0
LINE
  8
0
 10
-80.618
 20
82.0979
 11
-80.7362
 21
82.1404
  0
LINE
  8
0
 10
-80.7362
 20
82.1404
 11
-80.8515
 21
82.1903
  0
LINE
  8
0
 10
-80.8515
 20
82.1903
 11
-80.9635
 21
82.2474
  0
LINE
  8
0
 10
-80.9635
 20
82.2474
 11
-81.0716
 21
82.3113
  0
LINE
  8
0
 10
-81.0716
 20
82.3113
 11
-81.1756
 21
82.382
  0
LINE
  8
0
 10
-81.1756
 20
82.382
 11
-81.2748
 21
82.459
  0
LINE
  8
0
 10
-81.2748
 20
82.459
 11
-81.3691
 21
82.5421
  0
LINE
  8
0
 10
-81.3691
 20
82.5421
 11
-81.4579
 21
82.6309
  0
LINE
  8
0
 10
-81.4579
 20
82.6309
 11
-81.541
 21
82.7251
  0
LINE
  8
0
 10
-81.541
 20
82.7251
 11
-81.618
 21
82.8244
  0
LINE
  8
0
 10
-81.618
 20
82.8244
 11
-81.6886
 21
82.9283
  0
LINE
  8
0
 10
-81.6886
 20
82.9283
 11
-81.7526
 21
83.0365
  0
LINE
  8
0
 10
-81.7526
 20
83.0365
 11
-81.8096
 21
83.1484
  0
LINE
  8
0
 10
-81.8096
 20
83.1484
 11
-81.8595
 21
83.2637
  0
LINE
  8
0
 10
-81.8595
 20
83.2637
 11
-81.9021
 21
83.382
  0
LINE
  8
0
 10
-81.9021
 20
83.382
 11
-81.9372
 21
83.5026
  0
LINE
  8
0
 10
-81.9372
 20
83.5026
 11
-81.9646
 21
83.6252
  0
LINE
  8
0
 10
-81.9646
 20
83.6252
 11
-81.9842
 21
83.7493
  0
LINE
  8
0
 10
-81.9842
 20
83.7493
 11
-81.996
 21
83.8744
  0
LINE
  8
0
 10
-81.996
 20
83.8744
 11
-82
 21
84
  0
LINE
  8
0
 10
-82
 20
84
 11
-81.996
 21
84.1256
  0
LINE
  8
0
 10
-81.996
 20
84.1256
 11
-81.9842
 21
84.2507
  0
LINE
  8
0
 10
-81.9842
 20
84.2507
 11
-81.9646
 21
84.3748
  0
LINE
  8
0
 10
-81.9646
 20
84.3748
 11
-81.9372
 21
84.4974
  0
LINE
  8
0
 10
-81.9372
 20
84.4974
 11
-81.9021
 21
84.618
  0
LINE
  8
0
 10
-81.9021
 20
84.618
 11
-81.8595
 21
84.7362
  0
LINE
  8
0
 10
-81.8595
 20
84.7362
 11
-81.8096
 21
84.8515
  0
LINE
  8
0
 10
-81.8096
 20
84.8515
 11
-81.7526
 21
84.9635
  0
LINE
  8
0
 10
-81.7526
 20
84.9635
 11
-81.6886
 21
85.0716
  0
LINE
  8
0
 10
-81.6886
 20
85.0716
 11
-81.618
 21
85.1756
  0
LINE
  8
0
 10
-81.618
 20
85.1756
 11
-81.541
 21
85.2748
  0
LINE
  8
0
 10
-81.541
 20
85.2748
 11
-81.4579
 21
85.3691
  0
LINE
  8
0
 10
-81.4579
 20
85.3691
 11
-81.3691
 21
85.4579
  0
LINE
  8
0
 10
-81.3691
 20
85.4579
 11
-81.2748
 21
85.541
  0
LINE
  8
0
 10
-81.2748
 20
85.541
 11
-81.1756
 21
85.618
  0
LINE
  8
0
 10
-81.1756
 20
85.618
 11
-81.0716
 21
85.6886
  0
LINE
  8
0
 10
-81.0716
 20
85.6886
 11
-80.9635
 21
85.7526
  0
LINE
  8
0
 10
-80.9635
 20
85.7526
 11
-80.8515
 21
85.8096
  0
LINE
  8
0
 10
-80.8515
 20
85.8096
 11
-80.7362
 21
85.8595
  0
LINE
  8
0
 10
-80.7362
 20
85.8595
 11
-80.618
 21
85.9021
  0
LINE
  8
0
 10
-80.618
 20
85.9021
 11
-80.4974
 21
85.9372
  0
LINE
  8
0
 10
-80.4974
 20
85.9372
 11
-80.3748
 21
85.9646
  0
LINE
  8
0
 10
-80.3748
 20
85.9646
 11
-80.2507
 21
85.9842
  0
LINE
  8
0
 10
-80.2507
 20
85.9842
 11
-80.1256
 21
85.996
  0
LINE
  8
0
 10
-80.1256
 20
85.996
 11
-80
 21
86
  0
LINE
  8
0
 10
-80
 20
86
 11
-79.8744
 21
85.996
  0
LINE
  8
0
 10
-79.8744
 20
85.996
 11
-79.7493
 21
85.9842
  0
LINE
  8
0
 10
-79.7493
 20
85.9842
 11
-79.6252
 21
85.9646
  0
LINE
  8
0
 10
-79.6252
 20
85.9646
 11
-79.5026
 21
85.9372
  0
LINE
  8
0
 10
-79.5026
 20
85.9372
 11
-79.382
 21
85.9021
  0
LINE
  8
0
 10
-79.382
 20
85.9021
 11
-79.2638
 21
85.8595
  0
LINE
  8
0
 10
-79.2638
 20
85.8595
 11
-79.1485
 21
85.8096
  0
LINE
  8
0
 10
-79.1485
 20
85.8096
 11
-79.0365
 21
85.7526
  0
LINE
  8
0
 10
-79.0365
 20
85.7526
 11
-78.9284
 21
85.6886
  0
LINE
  8
0
 10
-78.9284
 20
85.6886
 11
-78.8244
 21
85.618
  0
LINE
  8
0
 10
-78.8244
 20
85.618
 11
-78.7252
 21
85.541
  0
LINE
  8
0
 10
-78.7252
 20
85.541
 11
-78.6309
 21
85.4579
  0
LINE
  8
0
 10
-78.6309
 20
85.4579
 11
-78.5421
 21
85.3691
  0
LINE
  8
0
 10
-78.5421
 20
85.3691
 11
-78.459
 21
85.2748
  0
LINE
  8
0
 10
-78.459
 20
85.2748
 11
-78.382
 21
85.1756
  0
LINE
  8
0
 10
-78.382
 20
85.1756
 11
-78.3114
 21
85.0716
  0
LINE
  8
0
 10
-78.3114
 20
85.0716
 11
-78.2474
 21
84.9635
  0
LINE
  8
0
 10
-78.2474
 20
84.9635
 11
-78.1904
 21
84.8515
  0
LINE
  8
0
 10
-78.1904
 20
84.8515
 11
-78.1405
 21
84.7362
  0
LINE
  8
0
 10
-78.1405
 20
84.7362
 11
-78.0979
 21
84.618
  0
LINE
  8
0
 10
-78.0979
 20
84.618
 11
-78.0628
 21
84.4974
  0
LINE
  8
0
 10
-78.0628
 20
84.4974
 11
-78.0354
 21
84.3748
  0
LINE
  8
0
 10
-78.0354
 20
84.3748
 11
-78.0158
 21
84.2507
  0
LINE
  8
0
 10
-78.0158
 20
84.2507
 11
-78.004
 21
84.1256
  0
LINE
  8
0
 10
-78.004
 20
84.1256
 11
-78
 21
84
  0
LINE
  8
0
 10
-78
 20
84
 11
-78.004
 21
83.8744
  0
LINE
  8
0
 10
-78.004
 20
83.8744
 11
-78.0158
 21
83.7493
  0
LINE
  8
0
 10
-78.0158
 20
83.7493
 11
-78.0354
 21
83.6252
  0
LINE
  8
0
 10
-78.0354
 20
83.6252
 11
-78.0628
 21
83.5026
  0
LINE
  8
0
 10
-78.0628
 20
83.5026
 11
-78.0979
 21
83.382
  0
LINE
  8
0
 10
-78.0979
 20
83.382
 11
-78.1405
 21
83.2637
  0
LINE
  8
0
 10
-78.1405
 20
83.2637
 11
-78.1904
 21
83.1484
  0
LINE
  8
0
 10
-78.1904
 20
83.1484
 11
-78.2474
 21
83.0365
  0
LINE
  8
0
 10
-78.2474
 20
83.0365
 11
-78.3114
 21
82.9283
  0
LINE
  8
0
 10
-78.3114
 20
82.9283
 11
-78.382
 21
82.8244
  0
LINE
  8
0
 10
-78.382
 20
82.8244
 11
-78.459
 21
82.7251
  0
LINE
  8
0
 10
-78.459
 20
82.7251
 11
-78.5421
 21
82.6309
  0
LINE
  8
0
 10
-78.5421
 20
82.6309
 11
-78.6309
 21
82.5421
  0
LINE
  8
0
 10
-78.6309
 20
82.5421
 11
-78.7252
 21
82.459
  0
LINE
  8
0
 10
-78.7252
 20
82.459
 11
-78.8244
 21
82.382
  0
LINE
  8
0
 10
-78.8244
 20
82.382
 11
-78.9284
 21
82.3113
  0
LINE
  8
0
 10
-78.9284
 20
82.3113
 11
-79.0365
 21
82.2474
  0
LINE
  8
0
 10
-79.0365
 20
82.2474
 11
-79.1485
 21
82.1903
  0
LINE
  8
0
 10
-79.1485
 20
82.1903
 11
-79.2638
 21
82.1404
  0
LINE
  8
0
 10
-79.2638
 20
82.1404
 11
-79.382
 21
82.0979
  0
LINE
  8
0
 10
-79.382
 20
82.0979
 11
-79.5026
 21
82.0628
  0
LINE
  8
0
 10
-79.5026
 20
82.0628
 11
-79.6252
 21
82.0354
  0
LINE
  8
0
 10
-79.6252
 20
82.0354
 11
-79.7493
 21
82.0158
  0
LINE
  8
0
 10
-79.7493
 20
82.0158
 11
-79.8744
 21
82.0039
  0
LINE
  8
0
 10
-79.8744
 20
82.0039
 11
-80
 21
82
  0
LINE
  8
0
 10
-80
 20
82
 11
-80.1256
 21
82.0039
  0
LINE
  8
0
 10
39.8744
 20
82.0039
 11
39.7493
 21
82.0158
  0
LINE
  8
0
 10
39.7493
 20
82.0158
 11
39.6252
 21
82.0354
  0
LINE
  8
0
 10
39.6252
 20
82.0354
 11
39.5026
 21
82.0628
  0
LINE
  8
0
 10
39.5026
 20
82.0628
 11
39.382
 21
82.0979
  0
LINE
  8
0
 10
39.382
 20
82.0979
 11
39.2637
 21
82.1404
  0
LINE
  8
0
 10
39.2637
 20
82.1404
 11
39.1484
 21
82.1903
  0
LINE
  8
0
 10
39.1484
 20
82.1903
 11
39.0365
 21
82.2474
  0
LINE
  8
0
 10
39.0365
 20
82.2474
 11
38.9283
 21
82.3113
  0
LINE
  8
0
 10
38.9283
 20
82.3113
 11
38.8244
 21
82.382
  0
LINE
  8
0
 10
38.8244
 20
82.382
 11
38.7251
 21
82.459
  0
LINE
  8
0
 10
38.7251
 20
82.459
 11
38.6309
 21
82.5421
  0
LINE
  8
0
 10
38.6309
 20
82.5421
 11
38.5421
 21
82.6309
  0
LINE
  8
0
 10
38.5421
 20
82.6309
 11
38.459
 21
82.7251
  0
LINE
  8
0
 10
38.459
 20
82.7251
 11
38.382
 21
82.8244
  0
LINE
  8
0
 10
38.382
 20
82.8244
 11
38.3113
 21
82.9283
  0
LINE
  8
0
 10
38.3113
 20
82.9283
 11
38.2474
 21
83.0365
  0
LINE
  8
0
 10
38.2474
 20
83.0365
 11
38.1903
 21
83.1484
  0
LINE
  8
0
 10
38.1903
 20
83.1484
 11
38.1404
 21
83.2637
  0
LINE
  8
0
 10
38.1404
 20
83.2637
 11
38.0979
 21
83.382
  0
LINE
  8
0
 10
38.0979
 20
83.382
 11
38.0628
 21
83.5026
  0
LINE
  8
0
 10
38.0628
 20
83.5026
 11
38.0354
 21
83.6252
  0
LINE
  8
0
 10
38.0354
 20
83.6252
 11
38.0158
 21
83.7493
  0
LINE
  8
0
 10
38.0158
 20
83.7493
 11
38.0039
 21
83.8744
  0
LINE
  8
0
 10
38.0039
 20
83.8744
 11
38
 21
84
  0
LINE
  8
0
 10
38
 20
84
 11
38.0039
 21
84.1256
  0
LINE
  8
0
 10
38.0039
 20
84.1256
 11
38.0158
 21
84.2507
  0
LINE
  8
0
 10
38.0158
 20
84.2507
 11
38.0354
 21
84.3748
  0
LINE
  8
0
 10
38.0354
 20
84.3748
 11
38.0628
 21
84.4974
  0
LINE
  8
0
 10
38.0628
 20
84.4974
 11
38.0979
 21
84.618
  0
LINE
  8
0
 10
38.0979
 20
84.618
 11
38.1404
 21
84.7362
  0
LINE
  8
0
 10
38.1404
 20
84.7362
 11
38.1903
 21
84.8515
  0
LINE
  8
0
 10
38.1903
 20
84.8515
 11
38.2474
 21
84.9635
  0
LINE
  8
0
 10
38.2474
 20
84.9635
 11
38.3113
 21
85.0716
  0
LINE
  8
0
 10
38.3113
 20
85.0716
 11
38.382
 21
85.1756
  0
LINE
  8
0
 10
38.382
 20
85.1756
 11
38.459
 21
85.2748
  0
LINE
  8
0
 10
38.459
 20
85.2748
 11
38.5421
 21
85.3691
  0
LINE
  8
0
 10
38.5421
 20
85.3691
 11
38.6309
 21
85.4579
  0
LINE
  8
0
 10
38.6309
 20
85.4579
 11
38.7251
 21
85.541
  0
LINE
  8
0
 10
38.7251
 20
85.541
 11
38.8244
 21
85.618
  0
LINE
  8
0
 10
38.8244
 20
85.618
 11
38.9283
 21
85.6886
  0
LINE
  8
0
 10
38.9283
 20
85.6886
 11
39.0365
 21
85.7526
  0
LINE
  8
0
 10
39.0365
 20
85.7526
 11
39.1484
 21
85.8096
  0
LINE
  8
0
 10
39.1484
 20
85.8096
 11
39.2637
 21
85.8595
  0
LINE
  8
0
 10
39.2637
 20
85.8595
 11
39.382
 21
85.9021
  0
LINE
  8
0
 10
39.382
 20
85.9021
 11
39.5026
 21
85.9372
  0
LINE
  8
0
 10
39.5026
 20
85.9372
 11
39.6252
 21
85.9646
  0
LINE
  8
0
 10
39.6252
 20
85.9646
 11
39.7493
 21
85.9842
  0
LINE
  8
0
 10
39.7493
 20
85.9842
 11
39.8744
 21
85.996
  0
LINE
  8
0
 10
39.8744
 20
85.996
 11
40
 21
86
  0
LINE
  8
0
 10
40
 20
86
 11
40.1256
 21
85.996
  0
LINE
  8
0
 10
40.1256
 20
85.996
 11
40.2507
 21
85.9842
  0
LINE
  8
0
 10
40.2507
 20
85.9842
 11
40.3748
 21
85.9646
  0
LINE
  8
0
 10
40.3748
 20
85.9646
 11
40.4974
 21
85.9372
  0
LINE
  8
0
 10
40.4974
 20
85.9372
 11
40.618
 21
85.9021
  0
LINE
  8
0
 10
40.618
 20
85.9021
 11
40.7362
 21
85.8595
  0
LINE
  8
0
 10
40.7362
 20
85.8595
 11
40.8515
 21
85.8096
  0
LINE
  8
0
 10
40.8515
 20
85.8096
 11
40.9635
 21
85.7526
  0
LINE
  8
0
 10
40.9635
 20
85.7526
 11
41.0716
 21
85.6886
  0
LINE
  8
0
 10
41.0716
 20
85.6886
 11
41.1756
 21
85.618
  0
LINE
  8
0
 10
41.1756
 20
85.618
 11
41.2748
 21
85.541
  0
LINE
  8
0
 10
41.2748
 20
85.541
 11
41.3691
 21
85.4579
  0
LINE
  8
0
 10
41.3691
 20
85.4579
 11
41.4579
 21
85.3691
  0
LINE
  8
0
 10
41.4579
 20
85.3691
 11
41.541
 21
85.2748
  0
LINE
  8
0
 10
41.541
 20
85.2748
 11
41.618
 21
85.1756
  0
LINE
  8
0
 10
41.618
 20
85.1756
 11
41.6886
 21
85.0716
  0
LINE
  8
0
 10
41.6886
 20
85.0716
 11
41.7526
 21
84.9635
  0
LINE
  8
0
 10
41.7526
 20
84.9635
 11
41.8096
 21
84.8515
  0
LINE
  8
0
 10
41.8096
 20
84.8515
 11
41.8595
 21
84.7362
  0
LINE
  8
0
 10
41.8595
 20
84.7362
 11
41.9021
 21
84.618
  0
LINE
  8
0
 10
41.9021
 20
84.618
 11
41.9372
 21
84.4974
  0
LINE
  8
0
 10
41.9372
 20
84.4974
 11
41.9646
 21
84.3748
  0
LINE
  8
0
 10
41.9646
 20
84.3748
 11
41.9842
 21
84.2507
  0
LINE
  8
0
 10
41.9842
 20
84.2507
 11
41.996
 21
84.1256
  0
LINE
  8
0
 10
41.996
 20
84.1256
 11
42
 21
84
  0
LINE
  8
0
 10
42
 20
84
 11
41.996
 21
83.8744
  0
LINE
  8
0
 10
41.996
 20
83.8744
 11
41.9842
 21
83.7493
  0
LINE
  8
0
 10
41.9842
 20
83.7493
 11
41.9646
 21
83.6252
  0
LINE
  8
0
 10
41.9646
 20
83.6252
 11
41.9372
 21
83.5026
  0
LINE
  8
0
 10
41.9372
 20
83.5026
 11
41.9021
 21
83.382
  0
LINE
  8
0
 10
41.9021
 20
83.382
 11
41.8595
 21
83.2637
  0
LINE
  8
0
 10
41.8595
 20
83.2637
 11
41.8096
 21
83.1484
  0
LINE
  8
0
 10
41.8096
 20
83.1484
 11
41.7526
 21
83.0365
  0
LINE
  8
0
 10
41.7526
 20
83.0365
 11
41.6886
 21
82.9283
  0
LINE
  8
0
 10
41.6886
 20
82.9283
 11
41.618
 21
82.8244
  0
LINE
  8
0
 10
41.618
 20
82.8244
 11
41.541
 21
82.7251
  0
LINE
  8
0
 10
41.541
 20
82.7251
 11
41.4579
 21
82.6309
  0
LINE
  8
0
 10
41.4579
 20
82.6309
 11
41.3691
 21
82.5421
  0
LINE
  8
0
 10
41.3691
 20
82.5421
 11
41.2748
 21
82.459
  0
LINE
  8
0
 10
41.2748
 20
82.459
 11
41.1756
 21
82.382
  0
LINE
  8
0
 10
41.1756
 20
82.382
 11
41.0716
 21
82.3113
  0
LINE
  8
0
 10
41.0716
 20
82.3113
 11
40.9635
 21
82.2474
  0
LINE
  8
0
 10
40.9635
 20
82.2474
 11
40.8515
 21
82.1903
  0
LINE
  8
0
 10
40.8515
 20
82.1903
 11
40.7362
 21
82.1404
  0
LINE
  8
0
 10
40.7362
 20
82.1404
 11
40.618
 21
82.0979
  0
LINE
  8
0
 10
40.618
 20
82.0979
 11
40.4974
 21
82.0628
  0
LINE
  8
0
 10
40.4974
 20
82.0628
 11
40.3748
 21
82.0354
  0
LINE
  8
0
 10
40.3748
 20
82.0354
 11
40.2507
 21
82.0158
  0
LINE
  8
0
 10
40.2507
 20
82.0158
 11
40.1256
 21
82.0039
  0
LINE
  8
0
 10
40.1256
 20
82.0039
 11
40
 21
82
  0
LINE
  8
0
 10
40
 20
82
 11
39.8744
 21
82.0039
  0
LINE
  8
0
 10
-0.125595
 20
42.0039
 11
-0.250671
 21
42.0158
  0
LINE
  8
0
 10
-0.250671
 20
42.0158
 11
-0.374771
 21
42.0354
  0
LINE
  8
0
 10
-0.374771
 20
42.0354
 11
-0.497391
 21
42.0628
  0
LINE
  8
0
 10
-0.497391
 20
42.0628
 11
-0.618042
 21
42.0979
  0
LINE
  8
0
 10
-0.618042
 20
42.0979
 11
-0.736252
 21
42.1404
  0
LINE
  8
0
 10
-0.736252
 20
42.1404
 11
-0.851562
 21
42.1903
  0
LINE
  8
0
 10
-0.851562
 20
42.1903
 11
-0.963516
 21
42.2474
  0
LINE
  8
0
 10
-0.963516
 20
42.2474
 11
-1.07166
 21
42.3113
  0
LINE
  8
0
 10
-1.07166
 20
42.3113
 11
-1.17558
 21
42.382
  0
LINE
  8
0
 10
-1.17558
 20
42.382
 11
-1.27486
 21
42.459
  0
LINE
  8
0
 10
-1.27486
 20
42.459
 11
-1.36909
 21
42.5421
  0
LINE
  8
0
 10
-1.36909
 20
42.5421
 11
-1.45795
 21
42.6309
  0
LINE
  8
0
 10
-1.45795
 20
42.6309
 11
-1.54103
 21
42.7251
  0
LINE
  8
0
 10
-1.54103
 20
42.7251
 11
-1.61804
 21
42.8244
  0
LINE
  8
0
 10
-1.61804
 20
42.8244
 11
-1.68866
 21
42.9283
  0
LINE
  8
0
 10
-1.68866
 20
42.9283
 11
-1.75262
 21
43.0365
  0
LINE
  8
0
 10
-1.75262
 20
43.0365
 11
-1.80966
 21
43.1484
  0
LINE
  8
0
 10
-1.80966
 20
43.1484
 11
-1.85956
 21
43.2637
  0
LINE
  8
0
 10
-1.85956
 20
43.2637
 11
-1.90211
 21
43.382
  0
LINE
  8
0
 10
-1.90211
 20
43.382
 11
-1.93718
 21
43.5026
  0
LINE
  8
0
 10
-1.93718
 20
43.5026
 11
-1.96458
 21
43.6252
  0
LINE
  8
0
 10
-1.96458
 20
43.6252
 11
-1.98424
 21
43.7493
  0
LINE
  8
0
 10
-1.98424
 20
43.7493
 11
-1.99606
 21
43.8744
  0
LINE
  8
0
 10
-1.99606
 20
43.8744
 11
-2
 21
44
  0
LINE
  8
0
 10
-2
 20
44
 11
-1.99606
 21
44.1256
  0
LINE
  8
0
 10
-1.99606
 20
44.1256
 11
-1.98424
 21
44.2507
  0
LINE
  8
0
 10
-1.98424
 20
44.2507
 11
-1.96458
 21
44.3748
  0
LINE
  8
0
 10
-1.96458
 20
44.3748
 11
-1.93718
 21
44.4974
  0
LINE
  8
0
 10
-1.93718
 20
44.4974
 11
-1.90211
 21
44.618
  0
LINE
  8
0
 10
-1.90211
 20
44.618
 11
-1.85956
 21
44.7362
  0
LINE
  8
0
 10
-1.85956
 20
44.7362
 11
-1.80966
 21
44.8515
  0
LINE
  8
0
 10
-1.80966
 20
44.8515
 11
-1.75262
 21
44.9635
  0
LINE
  8
0
 10
-1.75262
 20
44.9635
 11
-1.68866
 21
45.0716
  0
LINE
  8
0
 10
-1.68866
 20
45.0716
 11
-1.61804
 21
45.1756
  0
LINE
  8
0
 10
-1.61804
 20
45.1756
 11
-1.54103
 21
45.2748
  0
LINE
  8
0
 10
-1.54103
 20
45.2748
 11
-1.45795
 21
45.3691
  0
LINE
  8
0
 10
-1.45795
 20
45.3691
 11
-1.36909
 21
45.4579
  0
LINE
  8
0
 10
-1.36909
 20
45.4579
 11
-1.27486
 21
45.541
  0
LINE
  8
0
 10
-1.27486
 20
45.541
 11
-1.17558
 21
45.618
  0
LINE
  8
0
 10
-1.17558
 20
45.618
 11
-1.07166
 21
45.6886
  0
LINE
  8
0
 10
-1.07166
 20
45.6886
 11
-0.963516
 21
45.7526
  0
LINE
  8
0
 10
-0.963516
 20
45.7526
 11
-0.851562
 21
45.8096
  0
LINE
  8
0
 10
-0.851562
 20
45.8096
 11
-0.736252
 21
45.8595
  0
LINE
  8
0
 10
-0.736252
 20
45.8595
 11
-0.618042
 21
45.9021
  0
LINE
  8
0
 10
-0.618042
 20
45.9021
 11
-0.497391
 21
45.9372
  0
LINE
  8
0
 10
-0.497391
 20
45.9372
 11
-0.374771
 21
45.9646
  0
LINE
  8
0
 10
-0.374771
 20
45.9646
 11
-0.250671
 21
45.9842
  0
LINE
  8
0
 10
-0.250671
 20
45.9842
 11
-0.125595
 21
45.996
  0
LINE
  8
0
 10
-0.125595
 20
45.996
 11
0
 21
46
  0
LINE
  8
0
 10
0
 20
46
 11
0.12558
 21
45.996
  0
LINE
  8
0
 10
0.12558
 20
45.996
 11
0.250656
 21
45.9842
  0
LINE
  8
0
 10
0.250656
 20
45.9842
 11
0.374756
 21
45.9646
  0
LINE
  8
0
 10
0.374756
 20
45.9646
 11
0.497375
 21
45.9372
  0
LINE
  8
0
 10
0.497375
 20
45.9372
 11
0.618027
 21
45.9021
  0
LINE
  8
0
 10
0.618027
 20
45.9021
 11
0.736237
 21
45.8595
  0
LINE
  8
0
 10
0.736237
 20
45.8595
 11
0.851547
 21
45.8096
  0
LINE
  8
0
 10
0.851547
 20
45.8096
 11
0.963501
 21
45.7526
  0
LINE
  8
0
 10
0.963501
 20
45.7526
 11
1.07164
 21
45.6886
  0
LINE
  8
0
 10
1.07164
 20
45.6886
 11
1.17557
 21
45.618
  0
LINE
  8
0
 10
1.17557
 20
45.618
 11
1.27484
 21
45.541
  0
LINE
  8
0
 10
1.27484
 20
45.541
 11
1.36908
 21
45.4579
  0
LINE
  8
0
 10
1.36908
 20
45.4579
 11
1.45793
 21
45.3691
  0
LINE
  8
0
 10
1.45793
 20
45.3691
 11
1.54102
 21
45.2748
  0
LINE
  8
0
 10
1.54102
 20
45.2748
 11
1.61803
 21
45.1756
  0
LINE
  8
0
 10
1.61803
 20
45.1756
 11
1.68864
 21
45.0716
  0
LINE
  8
0
 10
1.68864
 20
45.0716
 11
1.75261
 21
44.9635
  0
LINE
  8
0
 10
1.75261
 20
44.9635
 11
1.80965
 21
44.8515
  0
LINE
  8
0
 10
1.80965
 20
44.8515
 11
1.85954
 21
44.7362
  0
LINE
  8
0
 10
1.85954
 20
44.7362
 11
1.9021
 21
44.618
  0
LINE
  8
0
 10
1.9021
 20
44.618
 11
1.93716
 21
44.4974
  0
LINE
  8
0
 10
1.93716
 20
44.4974
 11
1.96457
 21
44.3748
  0
LINE
  8
0
 10
1.96457
 20
44.3748
 11
1.98422
 21
44.2507
  0
LINE
  8
0
 10
1.98422
 20
44.2507
 11
1.99605
 21
44.1256
  0
LINE
  8
0
 10
1.99605
 20
44.1256
 11
2
 21
44
  0
LINE
  8
0
 10
2
 20
44
 11
1.99605
 21
43.8744
  0
LINE
  8
0
 10
1.99605
 20
43.8744
 11
1.98422
 21
43.7493
  0
LINE
  8
0
 10
1.98422
 20
43.7493
 11
1.96457
 21
43.6252
  0
LINE
  8
0
 10
1.96457
 20
43.6252
 11
1.93716
 21
43.5026
  0
LINE
  8
0
 10
1.93716
 20
43.5026
 11
1.9021
 21
43.382
  0
LINE
  8
0
 10
1.9021
 20
43.382
 11
1.85954
 21
43.2637
  0
LINE
  8
0
 10
1.85954
 20
43.2637
 11
1.80965
 21
43.1484
  0
LINE
  8
0
 10
1.80965
 20
43.1484
 11
1.75261
 21
43.0365
  0
LINE
  8
0
 10
1.75261
 20
43.0365
 11
1.68864
 21
42.9283
  0
LINE
  8
0
 10
1.68864
 20
42.9283
 11
1.61803
 21
42.8244
  0
LINE
  8
0
 10
1.61803
 20
42.8244
 11
1.54102
 21
42.7251
  0
LINE
  8
0
 10
1.54102
 20
42.7251
 11
1.45793
 21
42.6309
  0
LINE
  8
0
 10
1.45793
 20
42.6309
 11
1.36908
 21
42.5421
  0
LINE
  8
0
 10
1.36908
 20
42.5421
 11
1.27484
 21
42.459
  0
LINE
  8
0
 10
1.27484
 20
42.459
 11
1.17557
 21
42.382
  0
LINE
  8
0
 10
1.17557
 20
42.382
 11
1.07164
 21
42.3113
  0
LINE
  8
0
 10
1.07164
 20
42.3113
 11
0.963501
 21
42.2474
  0
LINE
  8
0
 10
0.963501
 20
42.2474
 11
0.851547
 21
42.1903
  0
LINE
  8
0
 10
0.851547
 20
42.1903
 11
0.736237
 21
42.1404
  0
LINE
  8
0
 10
0.736237
 20
42.1404
 11
0.618027
 21
42.0979
  0
LINE
  8
0
 10
0.618027
 20
42.0979
 11
0.497375
 21
42.0628
  0
LINE
  8
0
 10
0.497375
 20
42.0628
 11
0.374756
 21
42.0354
  0
LINE
  8
0
 10
0.374756
 20
42.0354
 11
0.250656
 21
42.0158
  0
LINE
  8
0
 10
0.250656
 20
42.0158
 11
0.12558
 21
42.0039
  0
LINE
  8
0
 10
0.12558
 20
42.0039
 11
0
 21
42
  0
LINE
  8
0
 10
0
 20
42
 11
-0.125595
 21
42.0039
  0
LINE
  8
0
 10
39.8744
 20
42.0039
 11
39.7493
 21
42.0158
  0
LINE
  8
0
 10
39.7493
 20
42.0158
 11
39.6252
 21
42.0354
  0
LINE
  8
0
 10
39.6252
 20
42.0354
 11
39.5026
 21
42.0628
  0
LINE
  8
0
 10
39.5026
 20
42.0628
 11
39.382
 21
42.0979
  0
LINE
  8
0
 10
39.382
 20
42.0979
 11
39.2637
 21
42.1404
  0
LINE
  8
0
 10
39.2637
 20
42.1404
 11
39.1484
 21
42.1903
  0
LINE
  8
0
 10
39.1484
 20
42.1903
 11
39.0365
 21
42.2474
  0
LINE
  8
0
 10
39.0365
 20
42.2474
 11
38.9283
 21
42.3113
  0
LINE
  8
0
 10
38.9283
 20
42.3113
 11
38.8244
 21
42.382
  0
LINE
  8
0
 10
38.8244
 20
42.382
 11
38.7251
 21
42.459
  0
LINE
  8
0
 10
38.7251
 20
42.459
 11
38.6309
 21
42.5421
  0
LINE
  8
0
 10
38.6309
 20
42.5421
 11
38.5421
 21
42.6309
  0
LINE
  8
0
 10
38.5421
 20
42.6309
 11
38.459
 21
42.7251
  0
LINE
  8
0
 10
38.459
 20
42.7251
 11
38.382
 21
42.8244
  0
LINE
  8
0
 10
38.382
 20
42.8244
 11
38.3113
 21
42.9283
  0
LINE
  8
0
 10
38.3113
 20
42.9283
 11
38.2474
 21
43.0365
  0
LINE
  8
0
 10
38.2474
 20
43.0365
 11
38.1903
 21
43.1484
  0
LINE
  8
0
 10
38.1903
 20
43.1484
 11
38.1404
 21
43.2637
  0
LINE
  8
0
 10
38.1404
 20
43.2637
 11
38.0979
 21
43.382
  0
LINE
  8
0
 10
38.0979
 20
43.382
 11
38.0628
 21
43.5026
  0
LINE
  8
0
 10
38.0628
 20
43.5026
 11
38.0354
 21
43.6252
  0
LINE
  8
0
 10
38.0354
 20
43.6252
 11
38.0158
 21
43.7493
  0
LINE
  8
0
 10
38.0158
 20
43.7493
 11
38.0039
 21
43.8744
  0
LINE
  8
0
 10
38.0039
 20
43.8744
 11
38
 21
44
  0
LINE
  8
0
 10
38
 20
44
 11
38.0039
 21
44.1256
  0
LINE
  8
0
 10
38.0039
 20
44.1256
 11
38.0158
 21
44.2507
  0
LINE
  8
0
 10
38.0158
 20
44.2507
 11
38.0354
 21
44.3748
  0
LINE
  8
0
 10
38.0354
 20
44.3748
 11
38.0628
 21
44.4974
  0
LINE
  8
0
 10
38.0628
 20
44.4974
 11
38.0979
 21
44.618
  0
LINE
  8
0
 10
38.0979
 20
44.618
 11
38.1404
 21
44.7362
  0
LINE
  8
0
 10
38.1404
 20
44.7362
 11
38.1903
 21
44.8515
  0
LINE
  8
0
 10
38.1903
 20
44.8515
 11
38.2474
 21
44.9635
  0
LINE
  8
0
 10
38.2474
 20
44.9635
 11
38.3113
 21
45.0716
  0
LINE
  8
0
 10
38.3113
 20
45.0716
 11
38.382
 21
45.1756
  0
LINE
  8
0
 10
38.382
 20
45.1756
 11
38.459
 21
45.2748
  0
LINE
  8
0
 10
38.459
 20
45.2748
 11
38.5421
 21
45.3691
  0
LINE
  8
0
 10
38.5421
 20
45.3691
 11
38.6309
 21
45.4579
  0
LINE
  8
0
 10
38.6309
 20
45.4579
 11
38.7251
 21
45.541
  0
LINE
  8
0
 10
38.7251
 20
45.541
 11
38.8244
 21
45.618
  0
LINE
  8
0
 10
38.8244
 20
45.618
 11
38.9283
 21
45.6886
  0
LINE
  8
0
 10
38.9283
 20
45.6886
 11
39.0365
 21
45.7526
  0
LINE
  8
0
 10
39.0365
 20
45.7526
 11
39.1484
 21
45.8096
  0
LINE
  8
0
 10
39.1484
 20
45.8096
 11
39.2637
 21
45.8595
  0
LINE
  8
0
 10
39.2637
 20
45.8595
 11
39.382
 21
45.9021
  0
LINE
  8
0
 10
39.382
 20
45.9021
 11
39.5026
 21
45.9372
  0
LINE
  8
0
 10
39.5026
 20
45.9372
 11
39.6252
 21
45.9646
  0
LINE
  8
0
 10
39.6252
 20
45.9646
 11
39.7493
 21
45.9842
  0
LINE
  8
0
 10
39.7493
 20
45.9842
 11
39.8744
 21
45.996
  0
LINE
  8
0
 10
39.8744
 20
45.996
 11
40
 21
46
  0
LINE
  8
0
 10
40
 20
46
 11
40.1256
 21
45.996
  0
LINE
  8
0
 10
40.1256
 20
45.996
 11
40.2507
 21
45.9842
  0
LINE
  8
0
 10
40.2507
 20
45.9842
 11
40.3748
 21
45.9646
  0
LINE
  8
0
 10
40.3748
 20
45.9646
 11
40.4974
 21
45.9372
  0
LINE
  8
0
 10
40.4974
 20
45.9372
 11
40.618
 21
45.9021
  0
LINE
  8
0
 10
40.618
 20
45.9021
 11
40.7362
 21
45.8595
  0
LINE
  8
0
 10
40.7362
 20
45.8595
 11
40.8515
 21
45.8096
  0
LINE
  8
0
 10
40.8515
 20
45.8096
 11
40.9635
 21
45.7526
  0
LINE
  8
0
 10
40.9635
 20
45.7526
 11
41.0716
 21
45.6886
  0
LINE
  8
0
 10
41.0716
 20
45.6886
 11
41.1756
 21
45.618
  0
LINE
  8
0
 10
41.1756
 20
45.618
 11
41.2748
 21
45.541
  0
LINE
  8
0
 10
41.2748
 20
45.541
 11
41.3691
 21
45.4579
  0
LINE
  8
0
 10
41.3691
 20
45.4579
 11
41.4579
 21
45.3691
  0
LINE
  8
0
 10
41.4579
 20
45.3691
 11
41.541
 21
45.2748
  0
LINE
  8
0
 10
41.541
 20
45.2748
 11
41.618
 21
45.1756
  0
LINE
  8
0
 10
41.618
 20
45.1756
 11
41.6886
 21
45.0716
  0
LINE
  8
0
 10
41.6886
 20
45.0716
 11
41.7526
 21
44.9635
  0
LINE
  8
0
 10
41.7526
 20
44.9635
 11
41.8096
 21
44.8515
  0
LINE
  8
0
 10
41.8096
 20
44.8515
 11
41.8595
 21
44.7362
  0
LINE
  8
0
 10
41.8595
 20
44.7362
 11
41.9021
 21
44.618
  0
LINE
  8
0
 10
41.9021
 20
44.618
 11
41.9372
 21
44.4974
  0
LINE
  8
0
 10
41.9372
 20
44.4974
 11
41.9646
 21
44.3748
  0
LINE
  8
0
 10
41.9646
 20
44.3748
 11
41.9842
 21
44.2507
  0
LINE
  8
0
 10
41.9842
 20
44.2507
 11
41.996
 21
44.1256
  0
LINE
  8
0
 10
41.996
 20
44.1256
 11
42
 21
44
  0
LINE
  8
0
 10
42
 20
44
 11
41.996
 21
43.8744
  0
LINE
  8
0
 10
41.996
 20
43.8744
 11
41.9842
 21
43.7493
  0
LINE
  8
0
 10
41.9842
 20
43.7493
 11
41.9646
 21
43.6252
  0
LINE
  8
0
 10
41.9646
 20
43.6252
 11
41.9372
 21
43.5026
  0
LINE
  8
0
 10
41.9372
 20
43.5026
 11
41.9021
 21
43.382
  0
LINE
  8
0
 10
41.9021
 20
43.382
 11
41.8595
 21
43.2637
  0
LINE
  8
0
 10
41.8595
 20
43.2637
 11
41.8096
 21
43.1484
  0
LINE
  8
0
 10
41.8096
 20
43.1484
 11
41.7526
 21
43.0365
  0
LINE
  8
0
 10
41.7526
 20
43.0365
 11
41.6886
 21
42.9283
  0
LINE
  8
0
 10
41.6886
 20
42.9283
 11
41.618
 21
42.8244
  0
LINE
  8
0
 10
41.618
 20
42.8244
 11
41.541
 21
42.7251
  0
LINE
  8
0
 10
41.541
 20
42.7251
 11
41.4579
 21
42.6309
  0
LINE
  8
0
 10
41.4579
 20
42.6309
 11
41.3691
 21
42.5421
  0
LINE
  8
0
 10
41.3691
 20
42.5421
 11
41.2748
 21
42.459
  0
LINE
  8
0
 10
41.2748
 20
42.459
 11
41.1756
 21
42.382
  0
LINE
  8
0
 10
41.1756
 20
42.382
 11
41.0716
 21
42.3113
  0
LINE
  8
0
 10
41.0716
 20
42.3113
 11
40.9635
 21
42.2474
  0
LINE
  8
0
 10
40.9635
 20
42.2474
 11
40.8515
 21
42.1903
  0
LINE
  8
0
 10
40.8515
 20
42.1903
 11
40.7362
 21
42.1404
  0
LINE
  8
0
 10
40.7362
 20
42.1404
 11
40.618
 21
42.0979
  0
LINE
  8
0
 10
40.618
 20
42.0979
 11
40.4974
 21
42.0628
  0
LINE
  8
0
 10
40.4974
 20
42.0628
 11
40.3748
 21
42.0354
  0
LINE
  8
0
 10
40.3748
 20
42.0354
 11
40.2507
 21
42.0158
  0
LINE
  8
0
 10
40.2507
 20
42.0158
 11
40.1256
 21
42.0039
  0
LINE
  8
0
 10
40.1256
 20
42.0039
 11
40
 21
42
  0
LINE
  8
0
 10
40
 20
42
 11
39.8744
 21
42.0039
  0
LINE
  8
0
 10
-40.1256
 20
42.0039
 11
-40.2507
 21
42.0158
  0
LINE
  8
0
 10
-40.2507
 20
42.0158
 11
-40.3748
 21
42.0354
  0
LINE
  8
0
 10
-40.3748
 20
42.0354
 11
-40.4974
 21
42.0628
  0
LINE
  8
0
 10
-40.4974
 20
42.0628
 11
-40.618
 21
42.0979
  0
LINE
  8
0
 10
-40.618
 20
42.0979
 11
-40.7363
 21
42.1404
  0
LINE
  8
0
 10
-40.7363
 20
42.1404
 11
-40.8516
 21
42.1903
  0
LINE
  8
0
 10
-40.8516
 20
42.1903
 11
-40.9635
 21
42.2474
  0
LINE
  8
0
 10
-40.9635
 20
42.2474
 11
-41.0717
 21
42.3113
  0
LINE
  8
0
 10
-41.0717
 20
42.3113
 11
-41.1756
 21
42.382
  0
LINE
  8
0
 10
-41.1756
 20
42.382
 11
-41.2749
 21
42.459
  0
LINE
  8
0
 10
-41.2749
 20
42.459
 11
-41.3691
 21
42.5421
  0
LINE
  8
0
 10
-41.3691
 20
42.5421
 11
-41.4579
 21
42.6309
  0
LINE
  8
0
 10
-41.4579
 20
42.6309
 11
-41.541
 21
42.7251
  0
LINE
  8
0
 10
-41.541
 20
42.7251
 11
-41.618
 21
42.8244
  0
LINE
  8
0
 10
-41.618
 20
42.8244
 11
-41.6887
 21
42.9283
  0
LINE
  8
0
 10
-41.6887
 20
42.9283
 11
-41.7526
 21
43.0365
  0
LINE
  8
0
 10
-41.7526
 20
43.0365
 11
-41.8097
 21
43.1484
  0
LINE
  8
0
 10
-41.8097
 20
43.1484
 11
-41.8596
 21
43.2637
  0
LINE
  8
0
 10
-41.8596
 20
43.2637
 11
-41.9021
 21
43.382
  0
LINE
  8
0
 10
-41.9021
 20
43.382
 11
-41.9372
 21
43.5026
  0
LINE
  8
0
 10
-41.9372
 20
43.5026
 11
-41.9646
 21
43.6252
  0
LINE
  8
0
 10
-41.9646
 20
43.6252
 11
-41.9842
 21
43.7493
  0
LINE
  8
0
 10
-41.9842
 20
43.7493
 11
-41.9961
 21
43.8744
  0
LINE
  8
0
 10
-41.9961
 20
43.8744
 11
-42
 21
44
  0
LINE
  8
0
 10
-42
 20
44
 11
-41.9961
 21
44.1256
  0
LINE
  8
0
 10
-41.9961
 20
44.1256
 11
-41.9842
 21
44.2507
  0
LINE
  8
0
 10
-41.9842
 20
44.2507
 11
-41.9646
 21
44.3748
  0
LINE
  8
0
 10
-41.9646
 20
44.3748
 11
-41.9372
 21
44.4974
  0
LINE
  8
0
 10
-41.9372
 20
44.4974
 11
-41.9021
 21
44.618
  0
LINE
  8
0
 10
-41.9021
 20
44.618
 11
-41.8596
 21
44.7362
  0
LINE
  8
0
 10
-41.8596
 20
44.7362
 11
-41.8097
 21
44.8515
  0
LINE
  8
0
 10
-41.8097
 20
44.8515
 11
-41.7526
 21
44.9635
  0
LINE
  8
0
 10
-41.7526
 20
44.9635
 11
-41.6887
 21
45.0716
  0
LINE
  8
0
 10
-41.6887
 20
45.0716
 11
-41.618
 21
45.1756
  0
LINE
  8
0
 10
-41.618
 20
45.1756
 11
-41.541
 21
45.2748
  0
LINE
  8
0
 10
-41.541
 20
45.2748
 11
-41.4579
 21
45.3691
  0
LINE
  8
0
 10
-41.4579
 20
45.3691
 11
-41.3691
 21
45.4579
  0
LINE
  8
0
 10
-41.3691
 20
45.4579
 11
-41.2749
 21
45.541
  0
LINE
  8
0
 10
-41.2749
 20
45.541
 11
-41.1756
 21
45.618
  0
LINE
  8
0
 10
-41.1756
 20
45.618
 11
-41.0717
 21
45.6886
  0
LINE
  8
0
 10
-41.0717
 20
45.6886
 11
-40.9635
 21
45.7526
  0
LINE
  8
0
 10
-40.9635
 20
45.7526
 11
-40.8516
 21
45.8096
  0
LINE
  8
0
 10
-40.8516
 20
45.8096
 11
-40.7363
 21
45.8595
  0
LINE
  8
0
 10
-40.7363
 20
45.8595
 11
-40.618
 21
45.9021
  0
LINE
  8
0
 10
-40.618
 20
45.9021
 11
-40.4974
 21
45.9372
  0
LINE
  8
0
 10
-40.4974
 20
45.9372
 11
-40.3748
 21
45.9646
  0
LINE
  8
0
 10
-40.3748
 20
45.9646
 11
-40.2507
 21
45.9842
  0
LINE
  8
0
 10
-40.2507
 20
45.9842
 11
-40.1256
 21
45.996
  0
LINE
  8
0
 10
-40.1256
 20
45.996
 11
-40
 21
46
  0
LINE
  8
0
 10
-40
 20
46
 11
-39.8744
 21
45.996
  0
LINE
  8
0
 10
-39.8744
 20
45.996
 11
-39.7493
 21
45.9842
  0
LINE
  8
0
 10
-39.7493
 20
45.9842
 11
-39.6252
 21
45.9646
  0
LINE
  8
0
 10
-39.6252
 20
45.9646
 11
-39.5026
 21
45.9372
  0
LINE
  8
0
 10
-39.5026
 20
45.9372
 11
-39.382
 21
45.9021
  0
LINE
  8
0
 10
-39.382
 20
45.9021
 11
-39.2638
 21
45.8595
  0
LINE
  8
0
 10
-39.2638
 20
45.8595
 11
-39.1485
 21
45.8096
  0
LINE
  8
0
 10
-39.1485
 20
45.8096
 11
-39.0365
 21
45.7526
  0
LINE
  8
0
 10
-39.0365
 20
45.7526
 11
-38.9284
 21
45.6886
  0
LINE
  8
0
 10
-38.9284
 20
45.6886
 11
-38.8244
 21
45.618
  0
LINE
  8
0
 10
-38.8244
 20
45.618
 11
-38.7252
 21
45.541
  0
LINE
  8
0
 10
-38.7252
 20
45.541
 11
-38.6309
 21
45.4579
  0
LINE
  8
0
 10
-38.6309
 20
45.4579
 11
-38.5421
 21
45.3691
  0
LINE
  8
0
 10
-38.5421
 20
45.3691
 11
-38.459
 21
45.2748
  0
LINE
  8
0
 10
-38.459
 20
45.2748
 11
-38.382
 21
45.1756
  0
LINE
  8
0
 10
-38.382
 20
45.1756
 11
-38.3114
 21
45.0716
  0
LINE
  8
0
 10
-38.3114
 20
45.0716
 11
-38.2474
 21
44.9635
  0
LINE
  8
0
 10
-38.2474
 20
44.9635
 11
-38.1904
 21
44.8515
  0
LINE
  8
0
 10
-38.1904
 20
44.8515
 11
-38.1405
 21
44.7362
  0
LINE
  8
0
 10
-38.1405
 20
44.7362
 11
-38.0979
 21
44.618
  0
LINE
  8
0
 10
-38.0979
 20
44.618
 11
-38.0628
 21
44.4974
  0
LINE
  8
0
 10
-38.0628
 20
44.4974
 11
-38.0354
 21
44.3748
  0
LINE
  8
0
 10
-38.0354
 20
44.3748
 11
-38.0158
 21
44.2507
  0
LINE
  8
0
 10
-38.0158
 20
44.2507
 11
-38.004
 21
44.1256
  0
LINE
  8
0
 10
-38.004
 20
44.1256
 11
-38
 21
44
  0
LINE
  8
0
 10
-38
 20
44
 11
-38.004
 21
43.8744
  0
LINE
  8
0
 10
-38.004
 20
43.8744
 11
-38.0158
 21
43.7493
  0
LINE
  8
0
 10
-38.0158
 20
43.7493
 11
-38.0354
 21
43.6252
  0
LINE
  8
0
 10
-38.0354
 20
43.6252
 11
-38.0628
 21
43.5026
  0
LINE
  8
0
 10
-38.0628
 20
43.5026
 11
-38.0979
 21
43.382
  0
LINE
  8
0
 10
-38.0979
 20
43.382
 11
-38.1405
 21
43.2637
  0
LINE
  8
0
 10
-38.1405
 20
43.2637
 11
-38.1904
 21
43.1484
  0
LINE
  8
0
 10
-38.1904
 20
43.1484
 11
-38.2474
 21
43.0365
  0
LINE
  8
0
 10
-38.2474
 20
43.0365
 11
-38.3114
 21
42.9283
  0
LINE
  8
0
 10
-38.3114
 20
42.9283
 11
-38.382
 21
42.8244
  0
LINE
  8
0
 10
-38.382
 20
42.8244
 11
-38.459
 21
42.7251
  0
LINE
  8
0
 10
-38.459
 20
42.7251
 11
-38.5421
 21
42.6309
  0
LINE
  8
0
 10
-38.5421
 20
42.6309
 11
-38.6309
 21
42.5421
  0
LINE
  8
0
 10
-38.6309
 20
42.5421
 11
-38.7252
 21
42.459
  0
LINE
  8
0
 10
-38.7252
 20
42.459
 11
-38.8244
 21
42.382
  0
LINE
  8
0
 10
-38.8244
 20
42.382
 11
-38.9284
 21
42.3113
  0
LINE
  8
0
 10
-38.9284
 20
42.3113
 11
-39.0365
 21
42.2474
  0
LINE
  8
0
 10
-39.0365
 20
42.2474
 11
-39.1485
 21
42.1903
  0
LINE
  8
0
 10
-39.1485
 20
42.1903
 11
-39.2638
 21
42.1404
  0
LINE
  8
0
 10
-39.2638
 20
42.1404
 11
-39.382
 21
42.0979
  0
LINE
  8
0
 10
-39.382
 20
42.0979
 11
-39.5026
 21
42.0628
  0
LINE
  8
0
 10
-39.5026
 20
42.0628
 11
-39.6252
 21
42.0354
  0
LINE
  8
0
 10
-39.6252
 20
42.0354
 11
-39.7493
 21
42.0158
  0
LINE
  8
0
 10
-39.7493
 20
42.0158
 11
-39.8744
 21
42.0039
  0
LINE
  8
0
 10
-39.8744
 20
42.0039
 11
-40
 21
42
  0
LINE
  8
0
 10
-40
 20
42
 11
-40.1256
 21
42.0039
  0
LINE
  8
0
 10
79.8744
 20
42.0039
 11
79.7493
 21
42.0158
  0
LINE
  8
0
 10
79.7493
 20
42.0158
 11
79.6252
 21
42.0354
  0
LINE
  8
0
 10
79.6252
 20
42.0354
 11
79.5026
 21
42.0628
  0
LINE
  8
0
 10
79.5026
 20
42.0628
 11
79.382
 21
42.0979
  0
LINE
  8
0
 10
79.382
 20
42.0979
 11
79.2637
 21
42.1404
  0
LINE
  8
0
 10
79.2637
 20
42.1404
 11
79.1484
 21
42.1903
  0
LINE
  8
0
 10
79.1484
 20
42.1903
 11
79.0365
 21
42.2474
  0
LINE
  8
0
 10
79.0365
 20
42.2474
 11
78.9283
 21
42.3113
  0
LINE
  8
0
 10
78.9283
 20
42.3113
 11
78.8244
 21
42.382
  0
LINE
  8
0
 10
78.8244
 20
42.382
 11
78.7251
 21
42.459
  0
LINE
  8
0
 10
78.7251
 20
42.459
 11
78.6309
 21
42.5421
  0
LINE
  8
0
 10
78.6309
 20
42.5421
 11
78.5421
 21
42.6309
  0
LINE
  8
0
 10
78.5421
 20
42.6309
 11
78.459
 21
42.7251
  0
LINE
  8
0
 10
78.459
 20
42.7251
 11
78.382
 21
42.8244
  0
LINE
  8
0
 10
78.382
 20
42.8244
 11
78.3113
 21
42.9283
  0
LINE
  8
0
 10
78.3113
 20
42.9283
 11
78.2474
 21
43.0365
  0
LINE
  8
0
 10
78.2474
 20
43.0365
 11
78.1903
 21
43.1484
  0
LINE
  8
0
 10
78.1903
 20
43.1484
 11
78.1404
 21
43.2637
  0
LINE
  8
0
 10
78.1404
 20
43.2637
 11
78.0979
 21
43.382
  0
LINE
  8
0
 10
78.0979
 20
43.382
 11
78.0628
 21
43.5026
  0
LINE
  8
0
 10
78.0628
 20
43.5026
 11
78.0354
 21
43.6252
  0
LINE
  8
0
 10
78.0354
 20
43.6252
 11
78.0158
 21
43.7493
  0
LINE
  8
0
 10
78.0158
 20
43.7493
 11
78.0039
 21
43.8744
  0
LINE
  8
0
 10
78.0039
 20
43.8744
 11
78
 21
44
  0
LINE
  8
0
 10
78
 20
44
 11
78.0039
 21
44.1256
  0
LINE
  8
0
 10
78.0039
 20
44.1256
 11
78.0158
 21
44.2507
  0
LINE
  8
0
 10
78.0158
 20
44.2507
 11
78.0354
 21
44.3748
  0
LINE
  8
0
 10
78.0354
 20
44.3748
 11
78.0628
 21
44.4974
  0
LINE
  8
0
 10
78.0628
 20
44.4974
 11
78.0979
 21
44.618
  0
LINE
  8
0
 10
78.0979
 20
44.618
 11
78.1404
 21
44.7362
  0
LINE
  8
0
 10
78.1404
 20
44.7362
 11
78.1903
 21
44.8515
  0
LINE
  8
0
 10
78.1903
 20
44.8515
 11
78.2474
 21
44.9635
  0
LINE
  8
0
 10
78.2474
 20
44.9635
 11
78.3113
 21
45.0716
  0
LINE
  8
0
 10
78.3113
 20
45.0716
 11
78.382
 21
45.1756
  0
LINE
  8
0
 10
78.382
 20
45.1756
 11
78.459
 21
45.2748
  0
LINE
  8
0
 10
78.459
 20
45.2748
 11
78.5421
 21
45.3691
  0
LINE
  8
0
 10
78.5421
 20
45.3691
 11
78.6309
 21
45.4579
  0
LINE
  8
0
 10
78.6309
 20
45.4579
 11
78.7251
 21
45.541
  0
LINE
  8
0
 10
78.7251
 20
45.541
 11
78.8244
 21
45.618
  0
LINE
  8
0
 10
78.8244
 20
45.618
 11
78.9283
 21
45.6886
  0
LINE
  8
0
 10
78.9283
 20
45.6886
 11
79.0365
 21
45.7526
  0
LINE
  8
0
 10
79.0365
 20
45.7526
 11
79.1484
 21
45.8096
  0
LINE
  8
0
 10
79.1484
 20
45.8096
 11
79.2637
 21
45.8595
  0
LINE
  8
0
 10
79.2637
 20
45.8595
 11
79.382
 21
45.9021
  0
LINE
  8
0
 10
79.382
 20
45.9021
 11
79.5026
 21
45.9372
  0
LINE
  8
0
 10
79.5026
 20
45.9372
 11
79.6252
 21
45.9646
  0
LINE
  8
0
 10
79.6252
 20
45.9646
 11
79.7493
 21
45.9842
  0
LINE
  8
0
 10
79.7493
 20
45.9842
 11
79.8744
 21
45.996
  0
LINE
  8
0
 10
79.8744
 20
45.996
 11
80
 21
46
  0
LINE
  8
0
 10
80
 20
46
 11
80.1256
 21
45.996
  0
LINE
  8
0
 10
80.1256
 20
45.996
 11
80.2507
 21
45.9842
  0
LINE
  8
0
 10
80.2507
 20
45.9842
 11
80.3748
 21
45.9646
  0
LINE
  8
0
 10
80.3748
 20
45.9646
 11
80.4974
 21
45.9372
  0
LINE
  8
0
 10
80.4974
 20
45.9372
 11
80.618
 21
45.9021
  0
LINE
  8
0
 10
80.618
 20
45.9021
 11
80.7362
 21
45.8595
  0
LINE
  8
0
 10
80.7362
 20
45.8595
 11
80.8515
 21
45.8096
  0
LINE
  8
0
 10
80.8515
 20
45.8096
 11
80.9635
 21
45.7526
  0
LINE
  8
0
 10
80.9635
 20
45.7526
 11
81.0716
 21
45.6886
  0
LINE
  8
0
 10
81.0716
 20
45.6886
 11
81.1756
 21
45.618
  0
LINE
  8
0
 10
81.1756
 20
45.618
 11
81.2748
 21
45.541
  0
LINE
  8
0
 10
81.2748
 20
45.541
 11
81.3691
 21
45.4579
  0
LINE
  8
0
 10
81.3691
 20
45.4579
 11
81.4579
 21
45.3691
  0
LINE
  8
0
 10
81.4579
 20
45.3691
 11
81.541
 21
45.2748
  0
LINE
  8
0
 10
81.541
 20
45.2748
 11
81.618
 21
45.1756
  0
LINE
  8
0
 10
81.618
 20
45.1756
 11
81.6886
 21
45.0716
  0
LINE
  8
0
 10
81.6886
 20
45.0716
 11
81.7526
 21
44.9635
  0
LINE
  8
0
 10
81.7526
 20
44.9635
 11
81.8096
 21
44.8515
  0
LINE
  8
0
 10
81.8096
 20
44.8515
 11
81.8595
 21
44.7362
  0
LINE
  8
0
 10
81.8595
 20
44.7362
 11
81.9021
 21
44.618
  0
LINE
  8
0
 10
81.9021
 20
44.618
 11
81.9372
 21
44.4974
  0
LINE
  8
0
 10
81.9372
 20
44.4974
 11
81.9646
 21
44.3748
  0
LINE
  8
0
 10
81.9646
 20
44.3748
 11
81.9842
 21
44.2507
  0
LINE
  8
0
 10
81.9842
 20
44.2507
 11
81.996
 21
44.1256
  0
LINE
  8
0
 10
81.996
 20
44.1256
 11
82
 21
44
  0
LINE
  8
0
 10
82
 20
44
 11
81.996
 21
43.8744
  0
LINE
  8
0
 10
81.996
 20
43.8744
 11
81.9842
 21
43.7493
  0
LINE
  8
0
 10
81.9842
 20
43.7493
 11
81.9646
 21
43.6252
  0
LINE
  8
0
 10
81.9646
 20
43.6252
 11
81.9372
 21
43.5026
  0
LINE
  8
0
 10
81.9372
 20
43.5026
 11
81.9021
 21
43.382
  0
LINE
  8
0
 10
81.9021
 20
43.382
 11
81.8595
 21
43.2637
  0
LINE
  8
0
 10
81.8595
 20
43.2637
 11
81.8096
 21
43.1484
  0
LINE
  8
0
 10
81.8096
 20
43.1484
 11
81.7526
 21
43.0365
  0
LINE
  8
0
 10
81.7526
 20
43.0365
 11
81.6886
 21
42.9283
  0
LINE
  8
0
 10
81.6886
 20
42.9283
 11
81.618
 21
42.8244
  0
LINE
  8
0
 10
81.618
 20
42.8244
 11
81.541
 21
42.7251
  0
LINE
  8
0
 10
81.541
 20
42.7251
 11
81.4579
 21
42.6309
  0
LINE
  8
0
 10
81.4579
 20
42.6309
 11
81.3691
 21
42.5421
  0
LINE
  8
0
 10
81.3691
 20
42.5421
 11
81.2748
 21
42.459
  0
LINE
  8
0
 10
81.2748
 20
42.459
 11
81.1756
 21
42.382
  0
LINE
  8
0
 10
81.1756
 20
42.382
 11
81.0716
 21
42.3113
  0
LINE
  8
0
 10
81.0716
 20
42.3113
 11
80.9635
 21
42.2474
  0
LINE
  8
0
 10
80.9635
 20
42.2474
 11
80.8515
 21
42.1903
  0
LINE
  8
0
 10
80.8515
 20
42.1903
 11
80.7362
 21
42.1404
  0
LINE
  8
0
 10
80.7362
 20
42.1404
 11
80.618
 21
42.0979
  0
LINE
  8
0
 10
80.618
 20
42.0979
 11
80.4974
 21
42.0628
  0
LINE
  8
0
 10
80.4974
 20
42.0628
 11
80.3748
 21
42.0354
  0
LINE
  8
0
 10
80.3748
 20
42.0354
 11
80.2507
 21
42.0158
  0
LINE
  8
0
 10
80.2507
 20
42.0158
 11
80.1256
 21
42.0039
  0
LINE
  8
0
 10
80.1256
 20
42.0039
 11
80
 21
42
  0
LINE
  8
0
 10
80
 20
42
 11
79.8744
 21
42.0039
  0
LINE
  8
0
 10
-80.1256
 20
42.0039
 11
-80.2507
 21
42.0158
  0
LINE
  8
0
 10
-80.2507
 20
42.0158
 11
-80.3748
 21
42.0354
  0
LINE
  8
0
 10
-80.3748
 20
42.0354
 11
-80.4974
 21
42.0628
  0
LINE
  8
0
 10
-80.4974
 20
42.0628
 11
-80.618
 21
42.0979
  0
LINE
  8
0
 10
-80.618
 20
42.0979
 11
-80.7362
 21
42.1404
  0
LINE
  8
0
 10
-80.7362
 20
42.1404
 11
-80.8515
 21
42.1903
  0
LINE
  8
0
 10
-80.8515
 20
42.1903
 11
-80.9635
 21
42.2474
  0
LINE
  8
0
 10
-80.9635
 20
42.2474
 11
-81.0716
 21
42.3113
  0
LINE
  8
0
 10
-81.0716
 20
42.3113
 11
-81.1756
 21
42.382
  0
LINE
  8
0
 10
-81.1756
 20
42.382
 11
-81.2748
 21
42.459
  0
LINE
  8
0
 10
-81.2748
 20
42.459
 11
-81.3691
 21
42.5421
  0
LINE
  8
0
 10
-81.3691
 20
42.5421
 11
-81.4579
 21
42.6309
  0
LINE
  8
0
 10
-81.4579
 20
42.6309
 11
-81.541
 21
42.7251
  0
LINE
  8
0
 10
-81.541
 20
42.7251
 11
-81.618
 21
42.8244
  0
LINE
  8
0
 10
-81.618
 20
42.8244
 11
-81.6886
 21
42.9283
  0
LINE
  8
0
 10
-81.6886
 20
42.9283
 11
-81.7526
 21
43.0365
  0
LINE
  8
0
 10
-81.7526
 20
43.0365
 11
-81.8096
 21
43.1484
  0
LINE
  8
0
 10
-81.8096
 20
43.1484
 11
-81.8595
 21
43.2637
  0
LINE
  8
0
 10
-81.8595
 20
43.2637
 11
-81.9021
 21
43.382
  0
LINE
  8
0
 10
-81.9021
 20
43.382
 11
-81.9372
 21
43.5026
  0
LINE
  8
0
 10
-81.9372
 20
43.5026
 11
-81.9646
 21
43.6252
  0
LINE
  8
0
 10
-81.9646
 20
43.6252
 11
-81.9842
 21
43.7493
  0
LINE
  8
0
 10
-81.9842
 20
43.7493
 11
-81.996
 21
43.8744
  0
LINE
  8
0
 10
-81.996
 20
43.8744
 11
-82
 21
44
  0
LINE
  8
0
 10
-82
 20
44
 11
-81.996
 21
44.1256
  0
LINE
  8
0
 10
-81.996
 20
44.1256
 11
-81.9842
 21
44.2507
  0
LINE
  8
0
 10
-81.9842
 20
44.2507
 11
-81.9646
 21
44.3748
  0
LINE
  8
0
 10
-81.9646
 20
44.3748
 11
-81.9372
 21
44.4974
  0
LINE
  8
0
 10
-81.9372
 20
44.4974
 11
-81.9021
 21
44.618
  0
LINE
  8
0
 10
-81.9021
 20
44.618
 11
-81.8595
 21
44.7362
  0
LINE
  8
0
 10
-81.8595
 20
44.7362
 11
-81.8096
 21
44.8515
  0
LINE
  8
0
 10
-81.8096
 20
44.8515
 11
-81.7526
 21
44.9635
  0
LINE
  8
0
 10
-81.7526
 20
44.9635
 11
-81.6886
 21
45.0716
  0
LINE
  8
0
 10
-81.6886
 20
45.0716
 11
-81.618
 21
45.1756
  0
LINE
  8
0
 10
-81.618
 20
45.1756
 11
-81.541
 21
45.2748
  0
LINE
  8
0
 10
-81.541
 20
45.2748
 11
-81.4579
 21
45.3691
  0
LINE
  8
0
 10
-81.4579
 20
45.3691
 11
-81.3691
 21
45.4579
  0
LINE
  8
0
 10
-81.3691
 20
45.4579
 11
-81.2748
 21
45.541
  0
LINE
  8
0
 10
-81.2748
 20
45.541
 11
-81.1756
 21
45.618
  0
LINE
  8
0
 10
-81.1756
 20
45.618
 11
-81.0716
 21
45.6886
  0
LINE
  8
0
 10
-81.0716
 20
45.6886
 11
-80.9635
 21
45.7526
  0
LINE
  8
0
 10
-80.9635
 20
45.7526
 11
-80.8515
 21
45.8096
  0
LINE
  8
0
 10
-80.8515
 20
45.8096
 11
-80.7362
 21
45.8595
  0
LINE
  8
0
 10
-80.7362
 20
45.8595
 11
-80.618
 21
45.9021
  0
LINE
  8
0
 10
-80.618
 20
45.9021
 11
-80.4974
 21
45.9372
  0
LINE
  8
0
 10
-80.4974
 20
45.9372
 11
-80.3748
 21
45.9646
  0
LINE
  8
0
 10
-80.3748
 20
45.9646
 11
-80.2507
 21
45.9842
  0
LINE
  8
0
 10
-80.2507
 20
45.9842
 11
-80.1256
 21
45.996
  0
LINE
  8
0
 10
-80.1256
 20
45.996
 11
-80
 21
46
  0
LINE
  8
0
 10
-80
 20
46
 11
-79.8744
 21
45.996
  0
LINE
  8
0
 10
-79.8744
 20
45.996
 11
-79.7493
 21
45.9842
  0
LINE
  8
0
 10
-79.7493
 20
45.9842
 11
-79.6252
 21
45.9646
  0
LINE
  8
0
 10
-79.6252
 20
45.9646
 11
-79.5026
 21
45.9372
  0
LINE
  8
0
 10
-79.5026
 20
45.9372
 11
-79.382
 21
45.9021
  0
LINE
  8
0
 10
-79.382
 20
45.9021
 11
-79.2638
 21
45.8595
  0
LINE
  8
0
 10
-79.2638
 20
45.8595
 11
-79.1485
 21
45.8096
  0
LINE
  8
0
 10
-79.1485
 20
45.8096
 11
-79.0365
 21
45.7526
  0
LINE
  8
0
 10
-79.0365
 20
45.7526
 11
-78.9284
 21
45.6886
  0
LINE
  8
0
 10
-78.9284
 20
45.6886
 11
-78.8244
 21
45.618
  0
LINE
  8
0
 10
-78.8244
 20
45.618
 11
-78.7252
 21
45.541
  0
LINE
  8
0
 10
-78.7252
 20
45.541
 11
-78.6309
 21
45.4579
  0
LINE
  8
0
 10
-78.6309
 20
45.4579
 11
-78.5421
 21
45.3691
  0
LINE
  8
0
 10
-78.5421
 20
45.3691
 11
-78.459
 21
45.2748
  0
LINE
  8
0
 10
-78.459
 20
45.2748
 11
-78.382
 21
45.1756
  0
LINE
  8
0
 10
-78.382
 20
45.1756
 11
-78.3114
 21
45.0716
  0
LINE
  8
0
 10
-78.3114
 20
45.0716
 11
-78.2474
 21
44.9635
  0
LINE
  8
0
 10
-78.2474
 20
44.9635
 11
-78.1904
 21
44.8515
  0
LINE
  8
0
 10
-78.1904
 20
44.8515
 11
-78.1405
 21
44.7362
  0
LINE
  8
0
 10
-78.1405
 20
44.7362
 11
-78.0979
 21
44.618
  0
LINE
  8
0
 10
-78.0979
 20
44.618
 11
-78.0628
 21
44.4974
  0
LINE
  8
0
 10
-78.0628
 20
44.4974
 11
-78.0354
 21
44.3748
  0
LINE
  8
0
 10
-78.0354
 20
44.3748
 11
-78.0158
 21
44.2507
  0
LINE
  8
0
 10
-78.0158
 20
44.2507
 11
-78.004
 21
44.1256
  0
LINE
  8
0
 10
-78.004
 20
44.1256
 11
-78
 21
44
  0
LINE
  8
0
 10
-78
 20
44
 11
-78.004
 21
43.8744
  0
LINE
  8
0
 10
-78.004
 20
43.8744
 11
-78.0158
 21
43.7493
  0
LINE
  8
0
 10
-78.0158
 20
43.7493
 11
-78.0354
 21
43.6252
  0
LINE
  8
0
 10
-78.0354
 20
43.6252
 11
-78.0628
 21
43.5026
  0
LINE
  8
0
 10
-78.0628
 20
43.5026
 11
-78.0979
 21
43.382
  0
LINE
  8
0
 10
-78.0979
 20
43.382
 11
-78.1405
 21
43.2637
  0
LINE
  8
0
 10
-78.1405
 20
43.2637
 11
-78.1904
 21
43.1484
  0
LINE
  8
0
 10
-78.1904
 20
43.1484
 11
-78.2474
 21
43.0365
  0
LINE
  8
0
 10
-78.2474
 20
43.0365
 11
-78.3114
 21
42.9283
  0
LINE
  8
0
 10
-78.3114
 20
42.9283
 11
-78.382
 21
42.8244
  0
LINE
  8
0
 10
-78.382
 20
42.8244
 11
-78.459
 21
42.7251
  0
LINE
  8
0
 10
-78.459
 20
42.7251
 11
-78.5421
 21
42.6309
  0
LINE
  8
0
 10
-78.5421
 20
42.6309
 11
-78.6309
 21
42.5421
  0
LINE
  8
0
 10
-78.6309
 20
42.5421
 11
-78.7252
 21
42.459
  0
LINE
  8
0
 10
-78.7252
 20
42.459
 11
-78.8244
 21
42.382
  0
LINE
  8
0
 10
-78.8244
 20
42.382
 11
-78.9284
 21
42.3113
  0
LINE
  8
0
 10
-78.9284
 20
42.3113
 11
-79.0365
 21
42.2474
  0
LINE
  8
0
 10
-79.0365
 20
42.2474
 11
-79.1485
 21
42.1903
  0
LINE
  8
0
 10
-79.1485
 20
42.1903
 11
-79.2638
 21
42.1404
  0
LINE
  8
0
 10
-79.2638
 20
42.1404
 11
-79.382
 21
42.0979
  0
LINE
  8
0
 10
-79.382
 20
42.0979
 11
-79.5026
 21
42.0628
  0
LINE
  8
0
 10
-79.5026
 20
42.0628
 11
-79.6252
 21
42.0354
  0
LINE
  8
0
 10
-79.6252
 20
42.0354
 11
-79.7493
 21
42.0158
  0
LINE
  8
0
 10
-79.7493
 20
42.0158
 11
-79.8744
 21
42.0039
  0
LINE
  8
0
 10
-79.8744
 20
42.0039
 11
-80
 21
42
  0
LINE
  8
0
 10
-80
 20
42
 11
-80.1256
 21
42.0039
  0
LINE
  8
0
 10
-0.125595
 20
2.00394
 11
-0.250671
 21
2.01576
  0
LINE
  8
0
 10
-0.250671
 20
2.01576
 11
-0.374771
 21
2.03542
  0
LINE
  8
0
 10
-0.374771
 20
2.03542
 11
-0.497391
 21
2.06282
  0
LINE
  8
0
 10
-0.497391
 20
2.06282
 11
-0.618042
 21
2.09789
  0
LINE
  8
0
 10
-0.618042
 20
2.09789
 11
-0.736252
 21
2.14044
  0
LINE
  8
0
 10
-0.736252
 20
2.14044
 11
-0.851562
 21
2.19034
  0
LINE
  8
0
 10
-0.851562
 20
2.19034
 11
-0.963516
 21
2.24738
  0
LINE
  8
0
 10
-0.963516
 20
2.24738
 11
-1.07166
 21
2.31134
  0
LINE
  8
0
 10
-1.07166
 20
2.31134
 11
-1.17558
 21
2.38196
  0
LINE
  8
0
 10
-1.17558
 20
2.38196
 11
-1.27486
 21
2.45897
  0
LINE
  8
0
 10
-1.27486
 20
2.45897
 11
-1.36909
 21
2.54205
  0
LINE
  8
0
 10
-1.36909
 20
2.54205
 11
-1.45795
 21
2.63091
  0
LINE
  8
0
 10
-1.45795
 20
2.63091
 11
-1.54103
 21
2.72514
  0
LINE
  8
0
 10
-1.54103
 20
2.72514
 11
-1.61804
 21
2.82442
  0
LINE
  8
0
 10
-1.61804
 20
2.82442
 11
-1.68866
 21
2.92834
  0
LINE
  8
0
 10
-1.68866
 20
2.92834
 11
-1.75262
 21
3.03648
  0
LINE
  8
0
 10
-1.75262
 20
3.03648
 11
-1.80966
 21
3.14844
  0
LINE
  8
0
 10
-1.80966
 20
3.14844
 11
-1.85956
 21
3.26375
  0
LINE
  8
0
 10
-1.85956
 20
3.26375
 11
-1.90211
 21
3.38196
  0
LINE
  8
0
 10
-1.90211
 20
3.38196
 11
-1.93718
 21
3.50261
  0
LINE
  8
0
 10
-1.93718
 20
3.50261
 11
-1.96458
 21
3.62523
  0
LINE
  8
0
 10
-1.96458
 20
3.62523
 11
-1.98424
 21
3.74933
  0
LINE
  8
0
 10
-1.98424
 20
3.74933
 11
-1.99606
 21
3.8744
  0
LINE
  8
0
 10
-1.99606
 20
3.8744
 11
-2
 21
4
  0
LINE
  8
0
 10
-2
 20
4
 11
-1.99606
 21
4.12558
  0
LINE
  8
0
 10
-1.99606
 20
4.12558
 11
-1.98424
 21
4.25066
  0
LINE
  8
0
 10
-1.98424
 20
4.25066
 11
-1.96458
 21
4.37476
  0
LINE
  8
0
 10
-1.96458
 20
4.37476
 11
-1.93718
 21
4.49738
  0
LINE
  8
0
 10
-1.93718
 20
4.49738
 11
-1.90211
 21
4.61803
  0
LINE
  8
0
 10
-1.90211
 20
4.61803
 11
-1.85956
 21
4.73624
  0
LINE
  8
0
 10
-1.85956
 20
4.73624
 11
-1.80966
 21
4.85155
  0
LINE
  8
0
 10
-1.80966
 20
4.85155
 11
-1.75262
 21
4.9635
  0
LINE
  8
0
 10
-1.75262
 20
4.9635
 11
-1.68866
 21
5.07164
  0
LINE
  8
0
 10
-1.68866
 20
5.07164
 11
-1.61804
 21
5.17557
  0
LINE
  8
0
 10
-1.61804
 20
5.17557
 11
-1.54103
 21
5.27484
  0
LINE
  8
0
 10
-1.54103
 20
5.27484
 11
-1.45795
 21
5.36908
  0
LINE
  8
0
 10
-1.45795
 20
5.36908
 11
-1.36909
 21
5.45793
  0
LINE
  8
0
 10
-1.36909
 20
5.45793
 11
-1.27486
 21
5.54102
  0
LINE
  8
0
 10
-1.27486
 20
5.54102
 11
-1.17558
 21
5.61803
  0
LINE
  8
0
 10
-1.17558
 20
5.61803
 11
-1.07166
 21
5.68864
  0
LINE
  8
0
 10
-1.07166
 20
5.68864
 11
-0.963516
 21
5.75261
  0
LINE
  8
0
 10
-0.963516
 20
5.75261
 11
-0.851562
 21
5.80965
  0
LINE
  8
0
 10
-0.851562
 20
5.80965
 11
-0.736252
 21
5.85954
  0
LINE
  8
0
 10
-0.736252
 20
5.85954
 11
-0.618042
 21
5.9021
  0
LINE
  8
0
 10
-0.618042
 20
5.9021
 11
-0.497391
 21
5.93716
  0
LINE
  8
0
 10
-0.497391
 20
5.93716
 11
-0.374771
 21
5.96457
  0
LINE
  8
0
 10
-0.374771
 20
5.96457
 11
-0.250671
 21
5.98422
  0
LINE
  8
0
 10
-0.250671
 20
5.98422
 11
-0.125595
 21
5.99605
  0
LINE
  8
0
 10
-0.125595
 20
5.99605
 11
0
 21
6
  0
LINE
  8
0
 10
0
 20
6
 11
0.12558
 21
5.99605
  0
LINE
  8
0
 10
0.12558
 20
5.99605
 11
0.250656
 21
5.98422
  0
LINE
  8
0
 10
0.250656
 20
5.98422
 11
0.374756
 21
5.96457
  0
LINE
  8
0
 10
0.374756
 20
5.96457
 11
0.497375
 21
5.93716
  0
LINE
  8
0
 10
0.497375
 20
5.93716
 11
0.618027
 21
5.9021
  0
LINE
  8
0
 10
0.618027
 20
5.9021
 11
0.736237
 21
5.85954
  0
LINE
  8
0
 10
0.736237
 20
5.85954
 11
0.851547
 21
5.80965
  0
LINE
  8
0
 10
0.851547
 20
5.80965
 11
0.963501
 21
5.75261
  0
LINE
  8
0
 10
0.963501
 20
5.75261
 11
1.07164
 21
5.68864
  0
LINE
  8
0
 10
1.07164
 20
5.68864
 11
1.17557
 21
5.61803
  0
LINE
  8
0
 10
1.17557
 20
5.61803
 11
1.27484
 21
5.54102
  0
LINE
  8
0
 10
1.27484
 20
5.54102
 11
1.36908
 21
5.45793
  0
LINE
  8
0
 10
1.36908
 20
5.45793
 11
1.45793
 21
5.36908
  0
LINE
  8
0
 10
1.45793
 20
5.36908
 11
1.54102
 21
5.27484
  0
LINE
  8
0
 10
1.54102
 20
5.27484
 11
1.61803
 21
5.17557
  0
LINE
  8
0
 10
1.61803
 20
5.17557
 11
1.68864
 21
5.07164
  0
LINE
  8
0
 10
1.68864
 20
5.07164
 11
1.75261
 21
4.9635
  0
LINE
  8
0
 10
1.75261
 20
4.9635
 11
1.80965
 21
4.85155
  0
LINE
  8
0
 10
1.80965
 20
4.85155
 11
1.85954
 21
4.73624
  0
LINE
  8
0
 10
1.85954
 20
4.73624
 11
1.9021
 21
4.61803
  0
LINE
  8
0
 10
1.9021
 20
4.61803
 11
1.93716
 21
4.49738
  0
LINE
  8
0
 10
1.93716
 20
4.49738
 11
1.96457
 21
4.37476
  0
LINE
  8
0
 10
1.96457
 20
4.37476
 11
1.98422
 21
4.25066
  0
LINE
  8
0
 10
1.98422
 20
4.25066
 11
1.99605
 21
4.12558
  0
LINE
  8
0
 10
1.99605
 20
4.12558
 11
2
 21
4
  0
LINE
  8
0
 10
2
 20
4
 11
1.99605
 21
3.8744
  0
LINE
  8
0
 10
1.99605
 20
3.8744
 11
1.98422
 21
3.74933
  0
LINE
  8
0
 10
1.98422
 20
3.74933
 11
1.96457
 21
3.62523
  0
LINE
  8
0
 10
1.96457
 20
3.62523
 11
1.93716
 21
3.50261
  0
LINE
  8
0
 10
1.93716
 20
3.50261
 11
1.9021
 21
3.38196
  0
LINE
  8
0
 10
1.9021
 20
3.38196
 11
1.85954
 21
3.26375
  0
LINE
  8
0
 10
1.85954
 20
3.26375
 11
1.80965
 21
3.14844
  0
LINE
  8
0
 10
1.80965
 20
3.14844
 11
1.75261
 21
3.03648
  0
LINE
  8
0
 10
1.75261
 20
3.03648
 11
1.68864
 21
2.92834
  0
LINE
  8
0
 10
1.68864
 20
2.92834
 11
1.61803
 21
2.82442
  0
LINE
  8
0
 10
1.61803
 20
2.82442
 11
1.54102
 21
2.72514
  0
LINE
  8
0
 10
1.54102
 20
2.72514
 11
1.45793
 21
2.63091
  0
LINE
  8
0
 10
1.45793
 20
2.63091
 11
1.36908
 21
2.54205
  0
LINE
  8
0
 10
1.36908
 20
2.54205
 11
1.27484
 21
2.45897
  0
LINE
  8
0
 10
1.27484
 20
2.45897
 11
1.17557
 21
2.38196
  0
LINE
  8
0
 10
1.17557
 20
2.38196
 11
1.07164
 21
2.31134
  0
LINE
  8
0
 10
1.07164
 20
2.31134
 11
0.963501
 21
2.24738
  0
LINE
  8
0
 10
0.963501
 20
2.24738
 11
0.851547
 21
2.19034
  0
LINE
  8
0
 10
0.851547
 20
2.19034
 11
0.736237
 21
2.14044
  0
LINE
  8
0
 10
0.736237
 20
2.14044
 11
0.618027
 21
2.09789
  0
LINE
  8
0
 10
0.618027
 20
2.09789
 11
0.497375
 21
2.06282
  0
LINE
  8
0
 10
0.497375
 20
2.06282
 11
0.374756
 21
2.03542
  0
LINE
  8
0
 10
0.374756
 20
2.03542
 11
0.250656
 21
2.01576
  0
LINE
  8
0
 10
0.250656
 20
2.01576
 11
0.12558
 21
2.00394
  0
LINE
  8
0
 10
0.12558
 20
2.00394
 11
0
 21
2
  0
LINE
  8
0
 10
0
 20
2
 11
-0.125595
 21
2.00394
  0
LINE
  8
0
 10
79.8744
 20
2.00394
 11
79.7493
 21
2.01576
  0
LINE
  8
0
 10
79.7493
 20
2.01576
 11
79.6252
 21
2.03542
  0
LINE
  8
0
 10
79.6252
 20
2.03542
 11
79.5026
 21
2.06282
  0
LINE
  8
0
 10
79.5026
 20
2.06282
 11
79.382
 21
2.09789
  0
LINE
  8
0
 10
79.382
 20
2.09789
 11
79.2637
 21
2.14044
  0
LINE
  8
0
 10
79.2637
 20
2.14044
 11
79.1484
 21
2.19034
  0
LINE
  8
0
 10
79.1484
 20
2.19034
 11
79.0365
 21
2.24738
  0
LINE
  8
0
 10
79.0365
 20
2.24738
 11
78.9283
 21
2.31134
  0
LINE
  8
0
 10
78.9283
 20
2.31134
 11
78.8244
 21
2.38196
  0
LINE
  8
0
 10
78.8244
 20
2.38196
 11
78.7251
 21
2.45897
  0
LINE
  8
0
 10
78.7251
 20
2.45897
 11
78.6309
 21
2.54205
  0
LINE
  8
0
 10
78.6309
 20
2.54205
 11
78.5421
 21
2.63091
  0
LINE
  8
0
 10
78.5421
 20
2.63091
 11
78.459
 21
2.72514
  0
LINE
  8
0
 10
78.459
 20
2.72514
 11
78.382
 21
2.82442
  0
LINE
  8
0
 10
78.382
 20
2.82442
 11
78.3113
 21
2.92834
  0
LINE
  8
0
 10
78.3113
 20
2.92834
 11
78.2474
 21
3.03648
  0
LINE
  8
0
 10
78.2474
 20
3.03648
 11
78.1903
 21
3.14844
  0
LINE
  8
0
 10
78.1903
 20
3.14844
 11
78.1404
 21
3.26375
  0
LINE
  8
0
 10
78.1404
 20
3.26375
 11
78.0979
 21
3.38196
  0
LINE
  8
0
 10
78.0979
 20
3.38196
 11
78.0628
 21
3.50261
  0
LINE
  8
0
 10
78.0628
 20
3.50261
 11
78.0354
 21
3.62523
  0
LINE
  8
0
 10
78.0354
 20
3.62523
 11
78.0158
 21
3.74933
  0
LINE
  8
0
 10
78.0158
 20
3.74933
 11
78.0039
 21
3.8744
  0
LINE
  8
0
 10
78.0039
 20
3.8744
 11
78
 21
4
  0
LINE
  8
0
 10
78
 20
4
 11
78.0039
 21
4.12558
  0
LINE
  8
0
 10
78.0039
 20
4.12558
 11
78.0158
 21
4.25066
  0
LINE
  8
0
 10
78.0158
 20
4.25066
 11
78.0354
 21
4.37476
  0
LINE
  8
0
 10
78.0354
 20
4.37476
 11
78.0628
 21
4.49738
  0
LINE
  8
0
 10
78.0628
 20
4.49738
 11
78.0979
 21
4.61803
  0
LINE
  8
0
 10
78.0979
 20
4.61803
 11
78.1404
 21
4.73624
  0
LINE
  8
0
 10
78.1404
 20
4.73624
 11
78.1903
 21
4.85155
  0
LINE
  8
0
 10
78.1903
 20
4.85155
 11
78.2474
 21
4.9635
  0
LINE
  8
0
 10
78.2474
 20
4.9635
 11
78.3113
 21
5.07164
  0
LINE
  8
0
 10
78.3113
 20
5.07164
 11
78.382
 21
5.17557
  0
LINE
  8
0
 10
78.382
 20
5.17557
 11
78.459
 21
5.27484
  0
LINE
  8
0
 10
78.459
 20
5.27484
 11
78.5421
 21
5.36908
  0
LINE
  8
0
 10
78.5421
 20
5.36908
 11
78.6309
 21
5.45793
  0
LINE
  8
0
 10
78.6309
 20
5.45793
 11
78.7251
 21
5.54102
  0
LINE
  8
0
 10
78.7251
 20
5.54102
 11
78.8244
 21
5.61803
  0
LINE
  8
0
 10
78.8244
 20
5.61803
 11
78.9283
 21
5.68864
  0
LINE
  8
0
 10
78.9283
 20
5.68864
 11
79.0365
 21
5.75261
  0
LINE
  8
0
 10
79.0365
 20
5.75261
 11
79.1484
 21
5.80965
  0
LINE
  8
0
 10
79.1484
 20
5.80965
 11
79.2637
 21
5.85954
  0
LINE
  8
0
 10
79.2637
 20
5.85954
 11
79.382
 21
5.9021
  0
LINE
  8
0
 10
79.382
 20
5.9021
 11
79.5026
 21
5.93716
  0
LINE
  8
0
 10
79.5026
 20
5.93716
 11
79.6252
 21
5.96457
  0
LINE
  8
0
 10
79.6252
 20
5.96457
 11
79.7493
 21
5.98422
  0
LINE
  8
0
 10
79.7493
 20
5.98422
 11
79.8744
 21
5.99605
  0
LINE
  8
0
 10
79.8744
 20
5.99605
 11
80
 21
6
  0
LINE
  8
0
 10
80
 20
6
 11
80.1256
 21
5.99605
  0
LINE
  8
0
 10
80.1256
 20
5.99605
 11
80.2507
 21
5.98422
  0
LINE
  8
0
 10
80.2507
 20
5.98422
 11
80.3748
 21
5.96457
  0
LINE
  8
0
 10
80.3748
 20
5.96457
 11
80.4974
 21
5.93716
  0
LINE
  8
0
 10
80.4974
 20
5.93716
 11
80.618
 21
5.9021
  0
LINE
  8
0
 10
80.618
 20
5.9021
 11
80.7362
 21
5.85954
  0
LINE
  8
0
 10
80.7362
 20
5.85954
 11
80.8515
 21
5.80965
  0
LINE
  8
0
 10
80.8515
 20
5.80965
 11
80.9635
 21
5.75261
  0
LINE
  8
0
 10
80.9635
 20
5.75261
 11
81.0716
 21
5.68864
  0
LINE
  8
0
 10
81.0716
 20
5.68864
 11
81.1756
 21
5.61803
  0
LINE
  8
0
 10
81.1756
 20
5.61803
 11
81.2748
 21
5.54102
  0
LINE
  8
0
 10
81.2748
 20
5.54102
 11
81.3691
 21
5.45793
  0
LINE
  8
0
 10
81.3691
 20
5.45793
 11
81.4579
 21
5.36908
  0
LINE
  8
0
 10
81.4579
 20
5.36908
 11
81.541
 21
5.27484
  0
LINE
  8
0
 10
81.541
 20
5.27484
 11
81.618
 21
5.17557
  0
LINE
  8
0
 10
81.618
 20
5.17557
 11
81.6886
 21
5.07164
  0
LINE
  8
0
 10
81.6886
 20
5.07164
 11
81.7526
 21
4.9635
  0
LINE
  8
0
 10
81.7526
 20
4.9635
 11
81.8096
 21
4.85155
  0
LINE
  8
0
 10
81.8096
 20
4.85155
 11
81.8595
 21
4.73624
  0
LINE
  8
0
 10
81.8595
 20
4.73624
 11
81.9021
 21
4.61803
  0
LINE
  8
0
 10
81.9021
 20
4.61803
 11
81.9372
 21
4.49738
  0
LINE
  8
0
 10
81.9372
 20
4.49738
 11
81.9646
 21
4.37476
  0
LINE
  8
0
 10
81.9646
 20
4.37476
 11
81.9842
 21
4.25066
  0
LINE
  8
0
 10
81.9842
 20
4.25066
 11
81.996
 21
4.12558
  0
LINE
  8
0
 10
81.996
 20
4.12558
 11
82
 21
4
  0
LINE
  8
0
 10
82
 20
4
 11
81.996
 21
3.8744
  0
LINE
  8
0
 10
81.996
 20
3.8744
 11
81.9842
 21
3.74933
  0
LINE
  8
0
 10
81.9842
 20
3.74933
 11
81.9646
 21
3.62523
  0
LINE
  8
0
 10
81.9646
 20
3.62523
 11
81.9372
 21
3.50261
  0
LINE
  8
0
 10
81.9372
 20
3.50261
 11
81.9021
 21
3.38196
  0
LINE
  8
0
 10
81.9021
 20
3.38196
 11
81.8595
 21
3.26375
  0
LINE
  8
0
 10
81.8595
 20
3.26375
 11
81.8096
 21
3.14844
  0
LINE
  8
0
 10
81.8096
 20
3.14844
 11
81.7526
 21
3.03648
  0
LINE
  8
0
 10
81.7526
 20
3.03648
 11
81.6886
 21
2.92834
  0
LINE
  8
0
 10
81.6886
 20
2.92834
 11
81.618
 21
2.82442
  0
LINE
  8
0
 10
81.618
 20
2.82442
 11
81.541
 21
2.72514
  0
LINE
  8
0
 10
81.541
 20
2.72514
 11
81.4579
 21
2.63091
  0
LINE
  8
0
 10
81.4579
 20
2.63091
 11
81.3691
 21
2.54205
  0
LINE
  8
0
 10
81.3691
 20
2.54205
 11
81.2748
 21
2.45897
  0
LINE
  8
0
 10
81.2748
 20
2.45897
 11
81.1756
 21
2.38196
  0
LINE
  8
0
 10
81.1756
 20
2.38196
 11
81.0716
 21
2.31134
  0
LINE
  8
0
 10
81.0716
 20
2.31134
 11
80.9635
 21
2.24738
  0
LINE
  8
0
 10
80.9635
 20
2.24738
 11
80.8515
 21
2.19034
  0
LINE
  8
0
 10
80.8515
 20
2.19034
 11
80.7362
 21
2.14044
  0
LINE
  8
0
 10
80.7362
 20
2.14044
 11
80.618
 21
2.09789
  0
LINE
  8
0
 10
80.618
 20
2.09789
 11
80.4974
 21
2.06282
  0
LINE
  8
0
 10
80.4974
 20
2.06282
 11
80.3748
 21
2.03542
  0
LINE
  8
0
 10
80.3748
 20
2.03542
 11
80.2507
 21
2.01576
  0
LINE
  8
0
 10
80.2507
 20
2.01576
 11
80.1256
 21
2.00394
  0
LINE
  8
0
 10
80.1256
 20
2.00394
 11
80
 21
2
  0
LINE
  8
0
 10
80
 20
2
 11
79.8744
 21
2.00394
  0
LINE
  8
0
 10
39.8744
 20
2.00394
 11
39.7493
 21
2.01576
  0
LINE
  8
0
 10
39.7493
 20
2.01576
 11
39.6252
 21
2.03542
  0
LINE
  8
0
 10
39.6252
 20
2.03542
 11
39.5026
 21
2.06282
  0
LINE
  8
0
 10
39.5026
 20
2.06282
 11
39.382
 21
2.09789
  0
LINE
  8
0
 10
39.382
 20
2.09789
 11
39.2637
 21
2.14044
  0
LINE
  8
0
 10
39.2637
 20
2.14044
 11
39.1484
 21
2.19034
  0
LINE
  8
0
 10
39.1484
 20
2.19034
 11
39.0365
 21
2.24738
  0
LINE
  8
0
 10
39.0365
 20
2.24738
 11
38.9283
 21
2.31134
  0
LINE
  8
0
 10
38.9283
 20
2.31134
 11
38.8244
 21
2.38196
  0
LINE
  8
0
 10
38.8244
 20
2.38196
 11
38.7251
 21
2.45897
  0
LINE
  8
0
 10
38.7251
 20
2.45897
 11
38.6309
 21
2.54205
  0
LINE
  8
0
 10
38.6309
 20
2.54205
 11
38.5421
 21
2.63091
  0
LINE
  8
0
 10
38.5421
 20
2.63091
 11
38.459
 21
2.72514
  0
LINE
  8
0
 10
38.459
 20
2.72514
 11
38.382
 21
2.82442
  0
LINE
  8
0
 10
38.382
 20
2.82442
 11
38.3113
 21
2.92834
  0
LINE
  8
0
 10
38.3113
 20
2.92834
 11
38.2474
 21
3.03648
  0
LINE
  8
0
 10
38.2474
 20
3.03648
 11
38.1903
 21
3.14844
  0
LINE
  8
0
 10
38.1903
 20
3.14844
 11
38.1404
 21
3.26375
  0
LINE
  8
0
 10
38.1404
 20
3.26375
 11
38.0979
 21
3.38196
  0
LINE
  8
0
 10
38.0979
 20
3.38196
 11
38.0628
 21
3.50261
  0
LINE
  8
0
 10
38.0628
 20
3.50261
 11
38.0354
 21
3.62523
  0
LINE
  8
0
 10
38.0354
 20
3.62523
 11
38.0158
 21
3.74933
  0
LINE
  8
0
 10
38.0158
 20
3.74933
 11
38.0039
 21
3.8744
  0
LINE
  8
0
 10
38.0039
 20
3.8744
 11
38
 21
4
  0
LINE
  8
0
 10
38
 20
4
 11
38.0039
 21
4.12558
  0
LINE
  8
0
 10
38.0039
 20
4.12558
 11
38.0158
 21
4.25066
  0
LINE
  8
0
 10
38.0158
 20
4.25066
 11
38.0354
 21
4.37476
  0
LINE
  8
0
 10
38.0354
 20
4.37476
 11
38.0628
 21
4.49738
  0
LINE
  8
0
 10
38.0628
 20
4.49738
 11
38.0979
 21
4.61803
  0
LINE
  8
0
 10
38.0979
 20
4.61803
 11
38.1404
 21
4.73624
  0
LINE
  8
0
 10
38.1404
 20
4.73624
 11
38.1903
 21
4.85155
  0
LINE
  8
0
 10
38.1903
 20
4.85155
 11
38.2474
 21
4.9635
  0
LINE
  8
0
 10
38.2474
 20
4.9635
 11
38.3113
 21
5.07164
  0
LINE
  8
0
 10
38.3113
 20
5.07164
 11
38.382
 21
5.17557
  0
LINE
  8
0
 10
38.382
 20
5.17557
 11
38.459
 21
5.27484
  0
LINE
  8
0
 10
38.459
 20
5.27484
 11
38.5421
 21
5.36908
  0
LINE
  8
0
 10
38.5421
 20
5.36908
 11
38.6309
 21
5.45793
  0
LINE
  8
0
 10
38.6309
 20
5.45793
 11
38.7251
 21
5.54102
  0
LINE
  8
0
 10
38.7251
 20
5.54102
 11
38.8244
 21
5.61803
  0
LINE
  8
0
 10
38.8244
 20
5.61803
 11
38.9283
 21
5.68864
  0
LINE
  8
0
 10
38.9283
 20
5.68864
 11
39.0365
 21
5.75261
  0
LINE
  8
0
 10
39.0365
 20
5.75261
 11
39.1484
 21
5.80965
  0
LINE
  8
0
 10
39.1484
 20
5.80965
 11
39.2637
 21
5.85954
  0
LINE
  8
0
 10
39.2637
 20
5.85954
 11
39.382
 21
5.9021
  0
LINE
  8
0
 10
39.382
 20
5.9021
 11
39.5026
 21
5.93716
  0
LINE
  8
0
 10
39.5026
 20
5.93716
 11
39.6252
 21
5.96457
  0
LINE
  8
0
 10
39.6252
 20
5.96457
 11
39.7493
 21
5.98422
  0
LINE
  8
0
 10
39.7493
 20
5.98422
 11
39.8744
 21
5.99605
  0
LINE
  8
0
 10
39.8744
 20
5.99605
 11
40
 21
6
  0
LINE
  8
0
 10
40
 20
6
 11
40.1256
 21
5.99605
  0
LINE
  8
0
 10
40.1256
 20
5.99605
 11
40.2507
 21
5.98422
  0
LINE
  8
0
 10
40.2507
 20
5.98422
 11
40.3748
 21
5.96457
  0
LINE
  8
0
 10
40.3748
 20
5.96457
 11
40.4974
 21
5.93716
  0
LINE
  8
0
 10
40.4974
 20
5.93716
 11
40.618
 21
5.9021
  0
LINE
  8
0
 10
40.618
 20
5.9021
 11
40.7362
 21
5.85954
  0
LINE
  8
0
 10
40.7362
 20
5.85954
 11
40.8515
 21
5.80965
  0
LINE
  8
0
 10
40.8515
 20
5.80965
 11
40.9635
 21
5.75261
  0
LINE
  8
0
 10
40.9635
 20
5.75261
 11
41.0716
 21
5.68864
  0
LINE
  8
0
 10
41.0716
 20
5.68864
 11
41.1756
 21
5.61803
  0
LINE
  8
0
 10
41.1756
 20
5.61803
 11
41.2748
 21
5.54102
  0
LINE
  8
0
 10
41.2748
 20
5.54102
 11
41.3691
 21
5.45793
  0
LINE
  8
0
 10
41.3691
 20
5.45793
 11
41.4579
 21
5.36908
  0
LINE
  8
0
 10
41.4579
 20
5.36908
 11
41.541
 21
5.27484
  0
LINE
  8
0
 10
41.541
 20
5.27484
 11
41.618
 21
5.17557
  0
LINE
  8
0
 10
41.618
 20
5.17557
 11
41.6886
 21
5.07164
  0
LINE
  8
0
 10
41.6886
 20
5.07164
 11
41.7526
 21
4.9635
  0
LINE
  8
0
 10
41.7526
 20
4.9635
 11
41.8096
 21
4.85155
  0
LINE
  8
0
 10
41.8096
 20
4.85155
 11
41.8595
 21
4.73624
  0
LINE
  8
0
 10
41.8595
 20
4.73624
 11
41.9021
 21
4.61803
  0
LINE
  8
0
 10
41.9021
 20
4.61803
 11
41.9372
 21
4.49738
  0
LINE
  8
0
 10
41.9372
 20
4.49738
 11
41.9646
 21
4.37476
  0
LINE
  8
0
 10
41.9646
 20
4.37476
 11
41.9842
 21
4.25066
  0
LINE
  8
0
 10
41.9842
 20
4.25066
 11
41.996
 21
4.12558
  0
LINE
  8
0
 10
41.996
 20
4.12558
 11
42
 21
4
  0
LINE
  8
0
 10
42
 20
4
 11
41.996
 21
3.8744
  0
LINE
  8
0
 10
41.996
 20
3.8744
 11
41.9842
 21
3.74933
  0
LINE
  8
0
 10
41.9842
 20
3.74933
 11
41.9646
 21
3.62523
  0
LINE
  8
0
 10
41.9646
 20
3.62523
 11
41.9372
 21
3.50261
  0
LINE
  8
0
 10
41.9372
 20
3.50261
 11
41.9021
 21
3.38196
  0
LINE
  8
0
 10
41.9021
 20
3.38196
 11
41.8595
 21
3.26375
  0
LINE
  8
0
 10
41.8595
 20
3.26375
 11
41.8096
 21
3.14844
  0
LINE
  8
0
 10
41.8096
 20
3.14844
 11
41.7526
 21
3.03648
  0
LINE
  8
0
 10
41.7526
 20
3.03648
 11
41.6886
 21
2.92834
  0
LINE
  8
0
 10
41.6886
 20
2.92834
 11
41.618
 21
2.82442
  0
LINE
  8
0
 10
41.618
 20
2.82442
 11
41.541
 21
2.72514
  0
LINE
  8
0
 10
41.541
 20
2.72514
 11
41.4579
 21
2.63091
  0
LINE
  8
0
 10
41.4579
 20
2.63091
 11
41.3691
 21
2.54205
  0
LINE
  8
0
 10
41.3691
 20
2.54205
 11
41.2748
 21
2.45897
  0
LINE
  8
0
 10
41.2748
 20
2.45897
 11
41.1756
 21
2.38196
  0
LINE
  8
0
 10
41.1756
 20
2.38196
 11
41.0716
 21
2.31134
  0
LINE
  8
0
 10
41.0716
 20
2.31134
 11
40.9635
 21
2.24738
  0
LINE
  8
0
 10
40.9635
 20
2.24738
 11
40.8515
 21
2.19034
  0
LINE
  8
0
 10
40.8515
 20
2.19034
 11
40.7362
 21
2.14044
  0
LINE
  8
0
 10
40.7362
 20
2.14044
 11
40.618
 21
2.09789
  0
LINE
  8
0
 10
40.618
 20
2.09789
 11
40.4974
 21
2.06282
  0
LINE
  8
0
 10
40.4974
 20
2.06282
 11
40.3748
 21
2.03542
  0
LINE
  8
0
 10
40.3748
 20
2.03542
 11
40.2507
 21
2.01576
  0
LINE
  8
0
 10
40.2507
 20
2.01576
 11
40.1256
 21
2.00394
  0
LINE
  8
0
 10
40.1256
 20
2.00394
 11
40
 21
2
  0
LINE
  8
0
 10
40
 20
2
 11
39.8744
 21
2.00394
  0
LINE
  8
0
 10
-40.1256
 20
2.00394
 11
-40.2507
 21
2.01576
  0
LINE
  8
0
 10
-40.2507
 20
2.01576
 11
-40.3748
 21
2.03542
  0
LINE
  8
0
 10
-40.3748
 20
2.03542
 11
-40.4974
 21
2.06282
  0
LINE
  8
0
 10
-40.4974
 20
2.06282
 11
-40.618
 21
2.09789
  0
LINE
  8
0
 10
-40.618
 20
2.09789
 11
-40.7363
 21
2.14044
  0
LINE
  8
0
 10
-40.7363
 20
2.14044
 11
-40.8516
 21
2.19034
  0
LINE
  8
0
 10
-40.8516
 20
2.19034
 11
-40.9635
 21
2.24738
  0
LINE
  8
0
 10
-40.9635
 20
2.24738
 11
-41.0717
 21
2.31134
  0
LINE
  8
0
 10
-41.0717
 20
2.31134
 11
-41.1756
 21
2.38196
  0
LINE
  8
0
 10
-41.1756
 20
2.38196
 11
-41.2749
 21
2.45897
  0
LINE
  8
0
 10
-41.2749
 20
2.45897
 11
-41.3691
 21
2.54205
  0
LINE
  8
0
 10
-41.3691
 20
2.54205
 11
-41.4579
 21
2.63091
  0
LINE
  8
0
 10
-41.4579
 20
2.63091
 11
-41.541
 21
2.72514
  0
LINE
  8
0
 10
-41.541
 20
2.72514
 11
-41.618
 21
2.82442
  0
LINE
  8
0
 10
-41.618
 20
2.82442
 11
-41.6887
 21
2.92834
  0
LINE
  8
0
 10
-41.6887
 20
2.92834
 11
-41.7526
 21
3.03648
  0
LINE
  8
0
 10
-41.7526
 20
3.03648
 11
-41.8097
 21
3.14844
  0
LINE
  8
0
 10
-41.8097
 20
3.14844
 11
-41.8596
 21
3.26375
  0
LINE
  8
0
 10
-41.8596
 20
3.26375
 11
-41.9021
 21
3.38196
  0
LINE
  8
0
 10
-41.9021
 20
3.38196
 11
-41.9372
 21
3.50261
  0
LINE
  8
0
 10
-41.9372
 20
3.50261
 11
-41.9646
 21
3.62523
  0
LINE
  8
0
 10
-41.9646
 20
3.62523
 11
-41.9842
 21
3.74933
  0
LINE
  8
0
 10
-41.9842
 20
3.74933
 11
-41.9961
 21
3.8744
  0
LINE
  8
0
 10
-41.9961
 20
3.8744
 11
-42
 21
4
  0
LINE
  8
0
 10
-42
 20
4
 11
-41.9961
 21
4.12558
  0
LINE
  8
0
 10
-41.9961
 20
4.12558
 11
-41.9842
 21
4.25066
  0
LINE
  8
0
 10
-41.9842
 20
4.25066
 11
-41.9646
 21
4.37476
  0
LINE
  8
0
 10
-41.9646
 20
4.37476
 11
-41.9372
 21
4.49738
  0
LINE
  8
0
 10
-41.9372
 20
4.49738
 11
-41.9021
 21
4.61803
  0
LINE
  8
0
 10
-41.9021
 20
4.61803
 11
-41.8596
 21
4.73624
  0
LINE
  8
0
 10
-41.8596
 20
4.73624
 11
-41.8097
 21
4.85155
  0
LINE
  8
0
 10
-41.8097
 20
4.85155
 11
-41.7526
 21
4.9635
  0
LINE
  8
0
 10
-41.7526
 20
4.9635
 11
-41.6887
 21
5.07164
  0
LINE
  8
0
 10
-41.6887
 20
5.07164
 11
-41.618
 21
5.17557
  0
LINE
  8
0
 10
-41.618
 20
5.17557
 11
-41.541
 21
5.27484
  0
LINE
  8
0
 10
-41.541
 20
5.27484
 11
-41.4579
 21
5.36908
  0
LINE
  8
0
 10
-41.4579
 20
5.36908
 11
-41.3691
 21
5.45793
  0
LINE
  8
0
 10
-41.3691
 20
5.45793
 11
-41.2749
 21
5.54102
  0
LINE
  8
0
 10
-41.2749
 20
5.54102
 11
-41.1756
 21
5.61803
  0
LINE
  8
0
 10
-41.1756
 20
5.61803
 11
-41.0717
 21
5.68864
  0
LINE
  8
0
 10
-41.0717
 20
5.68864
 11
-40.9635
 21
5.75261
  0
LINE
  8
0
 10
-40.9635
 20
5.75261
 11
-40.8516
 21
5.80965
  0
LINE
  8
0
 10
-40.8516
 20
5.80965
 11
-40.7363
 21
5.85954
  0
LINE
  8
0
 10
-40.7363
 20
5.85954
 11
-40.618
 21
5.9021
  0
LINE
  8
0
 10
-40.618
 20
5.9021
 11
-40.4974
 21
5.93716
  0
LINE
  8
0
 10
-40.4974
 20
5.93716
 11
-40.3748
 21
5.96457
  0
LINE
  8
0
 10
-40.3748
 20
5.96457
 11
-40.2507
 21
5.98422
  0
LINE
  8
0
 10
-40.2507
 20
5.98422
 11
-40.1256
 21
5.99605
  0
LINE
  8
0
 10
-40.1256
 20
5.99605
 11
-40
 21
6
  0
LINE
  8
0
 10
-40
 20
6
 11
-39.8744
 21
5.99605
  0
LINE
  8
0
 10
-39.8744
 20
5.99605
 11
-39.7493
 21
5.98422
  0
LINE
  8
0
 10
-39.7493
 20
5.98422
 11
-39.6252
 21
5.96457
  0
LINE
  8
0
 10
-39.6252
 20
5.96457
 11
-39.5026
 21
5.93716
  0
LINE
  8
0
 10
-39.5026
 20
5.93716
 11
-39.382
 21
5.9021
  0
LINE
  8
0
 10
-39.382
 20
5.9021
 11
-39.2638
 21
5.85954
  0
LINE
  8
0
 10
-39.2638
 20
5.85954
 11
-39.1485
 21
5.80965
  0
LINE
  8
0
 10
-39.1485
 20
5.80965
 11
-39.0365
 21
5.75261
  0
LINE
  8
0
 10
-39.0365
 20
5.75261
 11
-38.9284
 21
5.68864
  0
LINE
  8
0
 10
-38.9284
 20
5.68864
 11
-38.8244
 21
5.61803
  0
LINE
  8
0
 10
-38.8244
 20
5.61803
 11
-38.7252
 21
5.54102
  0
LINE
  8
0
 10
-38.7252
 20
5.54102
 11
-38.6309
 21
5.45793
  0
LINE
  8
0
 10
-38.6309
 20
5.45793
 11
-38.5421
 21
5.36908
  0
LINE
  8
0
 10
-38.5421
 20
5.36908
 11
-38.459
 21
5.27484
  0
LINE
  8
0
 10
-38.459
 20
5.27484
 11
-38.382
 21
5.17557
  0
LINE
  8
0
 10
-38.382
 20
5.17557
 11
-38.3114
 21
5.07164
  0
LINE
  8
0
 10
-38.3114
 20
5.07164
 11
-38.2474
 21
4.9635
  0
LINE
  8
0
 10
-38.2474
 20
4.9635
 11
-38.1904
 21
4.85155
  0
LINE
  8
0
 10
-38.1904
 20
4.85155
 11
-38.1405
 21
4.73624
  0
LINE
  8
0
 10
-38.1405
 20
4.73624
 11
-38.0979
 21
4.61803
  0
LINE
  8
0
 10
-38.0979
 20
4.61803
 11
-38.0628
 21
4.49738
  0
LINE
  8
0
 10
-38.0628
 20
4.49738
 11
-38.0354
 21
4.37476
  0
LINE
  8
0
 10
-38.0354
 20
4.37476
 11
-38.0158
 21
4.25066
  0
LINE
  8
0
 10
-38.0158
 20
4.25066
 11
-38.004
 21
4.12558
  0
LINE
  8
0
 10
-38.004
 20
4.12558
 11
-38
 21
4
  0
LINE
  8
0
 10
-38
 20
4
 11
-38.004
 21
3.8744
  0
LINE
  8
0
 10
-38.004
 20
3.8744
 11
-38.0158
 21
3.74933
  0
LINE
  8
0
 10
-38.0158
 20
3.74933
 11
-38.0354
 21
3.62523
  0
LINE
  8
0
 10
-38.0354
 20
3.62523
 11
-38.0628
 21
3.50261
  0
LINE
  8
0
 10
-38.0628
 20
3.50261
 11
-38.0979
 21
3.38196
  0
LINE
  8
0
 10
-38.0979
 20
3.38196
 11
-38.1405
 21
3.26375
  0
LINE
  8
0
 10
-38.1405
 20
3.26375
 11
-38.1904
 21
3.14844
  0
LINE
  8
0
 10
-38.1904
 20
3.14844
 11
-38.2474
 21
3.03648
  0
LINE
  8
0
 10
-38.2474
 20
3.03648
 11
-38.3114
 21
2.92834
  0
LINE
  8
0
 10
-38.3114
 20
2.92834
 11
-38.382
 21
2.82442
  0
LINE
  8
0
 10
-38.382
 20
2.82442
 11
-38.459
 21
2.72514
  0
LINE
  8
0
 10
-38.459
 20
2.72514
 11
-38.5421
 21
2.63091
  0
LINE
  8
0
 10
-38.5421
 20
2.63091
 11
-38.6309
 21
2.54205
  0
LINE
  8
0
 10
-38.6309
 20
2.54205
 11
-38.7252
 21
2.45897
  0
LINE
  8
0
 10
-38.7252
 20
2.45897
 11
-38.8244
 21
2.38196
  0
LINE
  8
0
 10
-38.8244
 20
2.38196
 11
-38.9284
 21
2.31134
  0
LINE
  8
0
 10
-38.9284
 20
2.31134
 11
-39.0365
 21
2.24738
  0
LINE
  8
0
 10
-39.0365
 20
2.24738
 11
-39.1485
 21
2.19034
  0
LINE
  8
0
 10
-39.1485
 20
2.19034
 11
-39.2638
 21
2.14044
  0
LINE
  8
0
 10
-39.2638
 20
2.14044
 11
-39.382
 21
2.09789
  0
LINE
  8
0
 10
-39.382
 20
2.09789
 11
-39.5026
 21
2.06282
  0
LINE
  8
0
 10
-39.5026
 20
2.06282
 11
-39.6252
 21
2.03542
  0
LINE
  8
0
 10
-39.6252
 20
2.03542
 11
-39.7493
 21
2.01576
  0
LINE
  8
0
 10
-39.7493
 20
2.01576
 11
-39.8744
 21
2.00394
  0
LINE
  8
0
 10
-39.8744
 20
2.00394
 11
-40
 21
2
  0
LINE
  8
0
 10
-40
 20
2
 11
-40.1256
 21
2.00394
  0
LINE
  8
0
 10
-80.1256
 20
2.00394
 11
-80.2507
 21
2.01576
  0
LINE
  8
0
 10
-80.2507
 20
2.01576
 11
-80.3748
 21
2.03542
  0
LINE
  8
0
 10
-80.3748
 20
2.03542
 11
-80.4974
 21
2.06282
  0
LINE
  8
0
 10
-80.4974
 20
2.06282
 11
-80.618
 21
2.09789
  0
LINE
  8
0
 10
-80.618
 20
2.09789
 11
-80.7362
 21
2.14044
  0
LINE
  8
0
 10
-80.7362
 20
2.14044
 11
-80.8515
 21
2.19034
  0
LINE
  8
0
 10
-80.8515
 20
2.19034
 11
-80.9635
 21
2.24738
  0
LINE
  8
0
 10
-80.9635
 20
2.24738
 11
-81.0716
 21
2.31134
  0
LINE
  8
0
 10
-81.0716
 20
2.31134
 11
-81.1756
 21
2.38196
  0
LINE
  8
0
 10
-81.1756
 20
2.38196
 11
-81.2748
 21
2.45897
  0
LINE
  8
0
 10
-81.2748
 20
2.45897
 11
-81.3691
 21
2.54205
  0
LINE
  8
0
 10
-81.3691
 20
2.54205
 11
-81.4579
 21
2.63091
  0
LINE
  8
0
 10
-81.4579
 20
2.63091
 11
-81.541
 21
2.72514
  0
LINE
  8
0
 10
-81.541
 20
2.72514
 11
-81.618
 21
2.82442
  0
LINE
  8
0
 10
-81.618
 20
2.82442
 11
-81.6886
 21
2.92834
  0
LINE
  8
0
 10
-81.6886
 20
2.92834
 11
-81.7526
 21
3.03648
  0
LINE
  8
0
 10
-81.7526
 20
3.03648
 11
-81.8096
 21
3.14844
  0
LINE
  8
0
 10
-81.8096
 20
3.14844
 11
-81.8595
 21
3.26375
  0
LINE
  8
0
 10
-81.8595
 20
3.26375
 11
-81.9021
 21
3.38196
  0
LINE
  8
0
 10
-81.9021
 20
3.38196
 11
-81.9372
 21
3.50261
  0
LINE
  8
0
 10
-81.9372
 20
3.50261
 11
-81.9646
 21
3.62523
  0
LINE
  8
0
 10
-81.9646
 20
3.62523
 11
-81.9842
 21
3.74933
  0
LINE
  8
0
 10
-81.9842
 20
3.74933
 11
-81.996
 21
3.8744
  0
LINE
  8
0
 10
-81.996
 20
3.8744
 11
-82
 21
4
  0
LINE
  8
0
 10
-82
 20
4
 11
-81.996
 21
4.12558
  0
LINE
  8
0
 10
-81.996
 20
4.12558
 11
-81.9842
 21
4.25066
  0
LINE
  8
0
 10
-81.9842
 20
4.25066
 11
-81.9646
 21
4.37476
  0
LINE
  8
0
 10
-81.9646
 20
4.37476
 11
-81.9372
 21
4.49738
  0
LINE
  8
0
 10
-81.9372
 20
4.49738
 11
-81.9021
 21
4.61803
  0
LINE
  8
0
 10
-81.9021
 20
4.61803
 11
-81.8595
 21
4.73624
  0
LINE
  8
0
 10
-81.8595
 20
4.73624
 11
-81.8096
 21
4.85155
  0
LINE
  8
0
 10
-81.8096
 20
4.85155
 11
-81.7526
 21
4.9635
  0
LINE
  8
0
 10
-81.7526
 20
4.9635
 11
-81.6886
 21
5.07164
  0
LINE
  8
0
 10
-81.6886
 20
5.07164
 11
-81.618
 21
5.17557
  0
LINE
  8
0
 10
-81.618
 20
5.17557
 11
-81.541
 21
5.27484
  0
LINE
  8
0
 10
-81.541
 20
5.27484
 11
-81.4579
 21
5.36908
  0
LINE
  8
0
 10
-81.4579
 20
5.36908
 11
-81.3691
 21
5.45793
  0
LINE
  8
0
 10
-81.3691
 20
5.45793
 11
-81.2748
 21
5.54102
  0
LINE
  8
0
 10
-81.2748
 20
5.54102
 11
-81.1756
 21
5.61803
  0
LINE
  8
0
 10
-81.1756
 20
5.61803
 11
-81.0716
 21
5.68864
  0
LINE
  8
0
 10
-81.0716
 20
5.68864
 11
-80.9635
 21
5.75261
  0
LINE
  8
0
 10
-80.9635
 20
5.75261
 11
-80.8515
 21
5.80965
  0
LINE
  8
0
 10
-80.8515
 20
5.80965
 11
-80.7362
 21
5.85954
  0
LINE
  8
0
 10
-80.7362
 20
5.85954
 11
-80.618
 21
5.9021
  0
LINE
  8
0
 10
-80.618
 20
5.9021
 11
-80.4974
 21
5.93716
  0
LINE
  8
0
 10
-80.4974
 20
5.93716
 11
-80.3748
 21
5.96457
  0
LINE
  8
0
 10
-80.3748
 20
5.96457
 11
-80.2507
 21
5.98422
  0
LINE
  8
0
 10
-80.2507
 20
5.98422
 11
-80.1256
 21
5.99605
  0
LINE
  8
0
 10
-80.1256
 20
5.99605
 11
-80
 21
6
  0
LINE
  8
0
 10
-80
 20
6
 11
-79.8744
 21
5.99605
  0
LINE
  8
0
 10
-79.8744
 20
5.99605
 11
-79.7493
 21
5.98422
  0
LINE
  8
0
 10
-79.7493
 20
5.98422
 11
-79.6252
 21
5.96457
  0
LINE
  8
0
 10
-79.6252
 20
5.96457
 11
-79.5026
 21
5.93716
  0
LINE
  8
0
 10
-79.5026
 20
5.93716
 11
-79.382
 21
5.9021
  0
LINE
  8
0
 10
-79.382
 20
5.9021
 11
-79.2638
 21
5.85954
  0
LINE
  8
0
 10
-79.2638
 20
5.85954
 11
-79.1485
 21
5.80965
  0
LINE
  8
0
 10
-79.1485
 20
5.80965
 11
-79.0365
 21
5.75261
  0
LINE
  8
0
 10
-79.0365
 20
5.75261
 11
-78.9284
 21
5.68864
  0
LINE
  8
0
 10
-78.9284
 20
5.68864
 11
-78.8244
 21
5.61803
  0
LINE
  8
0
 10
-78.8244
 20
5.61803
 11
-78.7252
 21
5.54102
  0
LINE
  8
0
 10
-78.7252
 20
5.54102
 11
-78.6309
 21
5.45793
  0
LINE
  8
0
 10
-78.6309
 20
5.45793
 11
-78.5421
 21
5.36908
  0
LINE
  8
0
 10
-78.5421
 20
5.36908
 11
-78.459
 21
5.27484
  0
LINE
  8
0
 10
-78.459
 20
5.27484
 11
-78.382
 21
5.17557
  0
LINE
  8
0
 10
-78.382
 20
5.17557
 11
-78.3114
 21
5.07164
  0
LINE
  8
0
 10
-78.3114
 20
5.07164
 11
-78.2474
 21
4.9635
  0
LINE
  8
0
 10
-78.2474
 20
4.9635
 11
-78.1904
 21
4.85155
  0
LINE
  8
0
 10
-78.1904
 20
4.85155
 11
-78.1405
 21
4.73624
  0
LINE
  8
0
 10
-78.1405
 20
4.73624
 11
-78.0979
 21
4.61803
  0
LINE
  8
0
 10
-78.0979
 20
4.61803
 11
-78.0628
 21
4.49738
  0
LINE
  8
0
 10
-78.0628
 20
4.49738
 11
-78.0354
 21
4.37476
  0
LINE
  8
0
 10
-78.0354
 20
4.37476
 11
-78.0158
 21
4.25066
  0
LINE
  8
0
 10
-78.0158
 20
4.25066
 11
-78.004
 21
4.12558
  0
LINE
  8
0
 10
-78.004
 20
4.12558
 11
-78
 21
4
  0
LINE
  8
0
 10
-78
 20
4
 11
-78.004
 21
3.8744
  0
LINE
  8
0
 10
-78.004
 20
3.8744
 11
-78.0158
 21
3.74933
  0
LINE
  8
0
 10
-78.0158
 20
3.74933
 11
-78.0354
 21
3.62523
  0
LINE
  8
0
 10
-78.0354
 20
3.62523
 11
-78.0628
 21
3.50261
  0
LINE
  8
0
 10
-78.0628
 20
3.50261
 11
-78.0979
 21
3.38196
  0
LINE
  8
0
 10
-78.0979
 20
3.38196
 11
-78.1405
 21
3.26375
  0
LINE
  8
0
 10
-78.1405
 20
3.26375
 11
-78.1904
 21
3.14844
  0
LINE
  8
0
 10
-78.1904
 20
3.14844
 11
-78.2474
 21
3.03648
  0
LINE
  8
0
 10
-78.2474
 20
3.03648
 11
-78.3114
 21
2.92834
  0
LINE
  8
0
 10
-78.3114
 20
2.92834
 11
-78.382
 21
2.82442
  0
LINE
  8
0
 10
-78.382
 20
2.82442
 11
-78.459
 21
2.72514
  0
LINE
  8
0
 10
-78.459
 20
2.72514
 11
-78.5421
 21
2.63091
  0
LINE
  8
0
 10
-78.5421
 20
2.63091
 11
-78.6309
 21
2.54205
  0
LINE
  8
0
 10
-78.6309
 20
2.54205
 11
-78.7252
 21
2.45897
  0
LINE
  8
0
 10
-78.7252
 20
2.45897
 11
-78.8244
 21
2.38196
  0
LINE
  8
0
 10
-78.8244
 20
2.38196
 11
-78.9284
 21
2.31134
  0
LINE
  8
0
 10
-78.9284
 20
2.31134
 11
-79.0365
 21
2.24738
  0
LINE
  8
0
 10
-79.0365
 20
2.24738
 11
-79.1485
 21
2.19034
  0
LINE
  8
0
 10
-79.1485
 20
2.19034
 11
-79.2638
 21
2.14044
  0
LINE
  8
0
 10
-79.2638
 20
2.14044
 11
-79.382
 21
2.09789
  0
LINE
  8
0
 10
-79.382
 20
2.09789
 11
-79.5026
 21
2.06282
  0
LINE
  8
0
 10
-79.5026
 20
2.06282
 11
-79.6252
 21
2.03542
  0
LINE
  8
0
 10
-79.6252
 20
2.03542
 11
-79.7493
 21
2.01576
  0
LINE
  8
0
 10
-79.7493
 20
2.01576
 11
-79.8744
 21
2.00394
  0
LINE
  8
0
 10
-79.8744
 20
2.00394
 11
-80
 21
2
  0
LINE
  8
0
 10
-80
 20
2
 11
-80.1256
 21
2.00394
  0
LINE
  8
0
 10
-0.125595
 20
-37.996
 11
-0.250671
 21
-37.9842
  0
LINE
  8
0
 10
-0.250671
 20
-37.9842
 11
-0.374771
 21
-37.9646
  0
LINE
  8
0
 10
-0.374771
 20
-37.9646
 11
-0.497391
 21
-37.9372
  0
LINE
  8
0
 10
-0.497391
 20
-37.9372
 11
-0.618042
 21
-37.9021
  0
LINE
  8
0
 10
-0.618042
 20
-37.9021
 11
-0.736252
 21
-37.8595
  0
LINE
  8
0
 10
-0.736252
 20
-37.8595
 11
-0.851562
 21
-37.8096
  0
LINE
  8
0
 10
-0.851562
 20
-37.8096
 11
-0.963516
 21
-37.7526
  0
LINE
  8
0
 10
-0.963516
 20
-37.7526
 11
-1.07166
 21
-37.6886
  0
LINE
  8
0
 10
-1.07166
 20
-37.6886
 11
-1.17558
 21
-37.618
  0
LINE
  8
0
 10
-1.17558
 20
-37.618
 11
-1.27486
 21
-37.541
  0
LINE
  8
0
 10
-1.27486
 20
-37.541
 11
-1.36909
 21
-37.4579
  0
LINE
  8
0
 10
-1.36909
 20
-37.4579
 11
-1.45795
 21
-37.3691
  0
LINE
  8
0
 10
-1.45795
 20
-37.3691
 11
-1.54103
 21
-37.2748
  0
LINE
  8
0
 10
-1.54103
 20
-37.2748
 11
-1.61804
 21
-37.1756
  0
LINE
  8
0
 10
-1.61804
 20
-37.1756
 11
-1.68866
 21
-37.0716
  0
LINE
  8
0
 10
-1.68866
 20
-37.0716
 11
-1.75262
 21
-36.9635
  0
LINE
  8
0
 10
-1.75262
 20
-36.9635
 11
-1.80966
 21
-36.8515
  0
LINE
  8
0
 10
-1.80966
 20
-36.8515
 11
-1.85956
 21
-36.7362
  0
LINE
  8
0
 10
-1.85956
 20
-36.7362
 11
-1.90211
 21
-36.618
  0
LINE
  8
0
 10
-1.90211
 20
-36.618
 11
-1.93718
 21
-36.4974
  0
LINE
  8
0
 10
-1.93718
 20
-36.4974
 11
-1.96458
 21
-36.3748
  0
LINE
  8
0
 10
-1.96458
 20
-36.3748
 11
-1.98424
 21
-36.2507
  0
LINE
  8
0
 10
-1.98424
 20
-36.2507
 11
-1.99606
 21
-36.1256
  0
LINE
  8
0
 10
-1.99606
 20
-36.1256
 11
-2
 21
-36
  0
LINE
  8
0
 10
-2
 20
-36
 11
-1.99606
 21
-35.8744
  0
LINE
  8
0
 10
-1.99606
 20
-35.8744
 11
-1.98424
 21
-35.7493
  0
LINE
  8
0
 10
-1.98424
 20
-35.7493
 11
-1.96458
 21
-35.6252
  0
LINE
  8
0
 10
-1.96458
 20
-35.6252
 11
-1.93718
 21
-35.5026
  0
LINE
  8
0
 10
-1.93718
 20
-35.5026
 11
-1.90211
 21
-35.382
  0
LINE
  8
0
 10
-1.90211
 20
-35.382
 11
-1.85956
 21
-35.2638
  0
LINE
  8
0
 10
-1.85956
 20
-35.2638
 11
-1.80966
 21
-35.1485
  0
LINE
  8
0
 10
-1.80966
 20
-35.1485
 11
-1.75262
 21
-35.0365
  0
LINE
  8
0
 10
-1.75262
 20
-35.0365
 11
-1.68866
 21
-34.9284
  0
LINE
  8
0
 10
-1.68866
 20
-34.9284
 11
-1.61804
 21
-34.8244
  0
LINE
  8
0
 10
-1.61804
 20
-34.8244
 11
-1.54103
 21
-34.7252
  0
LINE
  8
0
 10
-1.54103
 20
-34.7252
 11
-1.45795
 21
-34.6309
  0
LINE
  8
0
 10
-1.45795
 20
-34.6309
 11
-1.36909
 21
-34.5421
  0
LINE
  8
0
 10
-1.36909
 20
-34.5421
 11
-1.27486
 21
-34.459
  0
LINE
  8
0
 10
-1.27486
 20
-34.459
 11
-1.17558
 21
-34.382
  0
LINE
  8
0
 10
-1.17558
 20
-34.382
 11
-1.07166
 21
-34.3114
  0
LINE
  8
0
 10
-1.07166
 20
-34.3114
 11
-0.963516
 21
-34.2474
  0
LINE
  8
0
 10
-0.963516
 20
-34.2474
 11
-0.851562
 21
-34.1904
  0
LINE
  8
0
 10
-0.851562
 20
-34.1904
 11
-0.736252
 21
-34.1405
  0
LINE
  8
0
 10
-0.736252
 20
-34.1405
 11
-0.618042
 21
-34.0979
  0
LINE
  8
0
 10
-0.618042
 20
-34.0979
 11
-0.497391
 21
-34.0628
  0
LINE
  8
0
 10
-0.497391
 20
-34.0628
 11
-0.374771
 21
-34.0354
  0
LINE
  8
0
 10
-0.374771
 20
-34.0354
 11
-0.250671
 21
-34.0158
  0
LINE
  8
0
 10
-0.250671
 20
-34.0158
 11
-0.125595
 21
-34.004
  0
LINE
  8
0
 10
-0.125595
 20
-34.004
 11
0
 21
-34
  0
LINE
  8
0
 10
0
 20
-34
 11
0.12558
 21
-34.004
  0
LINE
  8
0
 10
0.12558
 20
-34.004
 11
0.250656
 21
-34.0158
  0
LINE
  8
0
 10
0.250656
 20
-34.0158
 11
0.374756
 21
-34.0354
  0
LINE
  8
0
 10
0.374756
 20
-34.0354
 11
0.497375
 21
-34.0628
  0
LINE
  8
0
 10
0.497375
 20
-34.0628
 11
0.618027
 21
-34.0979
  0
LINE
  8
0
 10
0.618027
 20
-34.0979
 11
0.736237
 21
-34.1405
  0
LINE
  8
0
 10
0.736237
 20
-34.1405
 11
0.851547
 21
-34.1904
  0
LINE
  8
0
 10
0.851547
 20
-34.1904
 11
0.963501
 21
-34.2474
  0
LINE
  8
0
 10
0.963501
 20
-34.2474
 11
1.07164
 21
-34.3114
  0
LINE
  8
0
 10
1.07164
 20
-34.3114
 11
1.17557
 21
-34.382
  0
LINE
  8
0
 10
1.17557
 20
-34.382
 11
1.27484
 21
-34.459
  0
LINE
  8
0
 10
1.27484
 20
-34.459
 11
1.36908
 21
-34.5421
  0
LINE
  8
0
 10
1.36908
 20
-34.5421
 11
1.45793
 21
-34.6309
  0
LINE
  8
0
 10
1.45793
 20
-34.6309
 11
1.54102
 21
-34.7252
  0
LINE
  8
0
 10
1.54102
 20
-34.7252
 11
1.61803
 21
-34.8244
  0
LINE
  8
0
 10
1.61803
 20
-34.8244
 11
1.68864
 21
-34.9284
  0
LINE
  8
0
 10
1.68864
 20
-34.9284
 11
1.75261
 21
-35.0365
  0
LINE
  8
0
 10
1.75261
 20
-35.0365
 11
1.80965
 21
-35.1485
  0
LINE
  8
0
 10
1.80965
 20
-35.1485
 11
1.85954
 21
-35.2638
  0
LINE
  8
0
 10
1.85954
 20
-35.2638
 11
1.9021
 21
-35.382
  0
LINE
  8
0
 10
1.9021
 20
-35.382
 11
1.93716
 21
-35.5026
  0
LINE
  8
0
 10
1.93716
 20
-35.5026
 11
1.96457
 21
-35.6252
  0
LINE
  8
0
 10
1.96457
 20
-35.6252
 11
1.98422
 21
-35.7493
  0
LINE
  8
0
 10
1.98422
 20
-35.7493
 11
1.99605
 21
-35.8744
  0
LINE
  8
0
 10
1.99605
 20
-35.8744
 11
2
 21
-36
  0
LINE
  8
0
 10
2
 20
-36
 11
1.99605
 21
-36.1256
  0
LINE
  8
0
 10
1.99605
 20
-36.1256
 11
1.98422
 21
-36.2507
  0
LINE
  8
0
 10
1.98422
 20
-36.2507
 11
1.96457
 21
-36.3748
  0
LINE
  8
0
 10
1.96457
 20
-36.3748
 11
1.93716
 21
-36.4974
  0
LINE
  8
0
 10
1.93716
 20
-36.4974
 11
1.9021
 21
-36.618
  0
LINE
  8
0
 10
1.9021
 20
-36.618
 11
1.85954
 21
-36.7362
  0
LINE
  8
0
 10
1.85954
 20
-36.7362
 11
1.80965
 21
-36.8515
  0
LINE
  8
0
 10
1.80965
 20
-36.8515
 11
1.75261
 21
-36.9635
  0
LINE
  8
0
 10
1.75261
 20
-36.9635
 11
1.68864
 21
-37.0716
  0
LINE
  8
0
 10
1.68864
 20
-37.0716
 11
1.61803
 21
-37.1756
  0
LINE
  8
0
 10
1.61803
 20
-37.1756
 11
1.54102
 21
-37.2748
  0
LINE
  8
0
 10
1.54102
 20
-37.2748
 11
1.45793
 21
-37.3691
  0
LINE
  8
0
 10
1.45793
 20
-37.3691
 11
1.36908
 21
-37.4579
  0
LINE
  8
0
 10
1.36908
 20
-37.4579
 11
1.27484
 21
-37.541
  0
LINE
  8
0
 10
1.27484
 20
-37.541
 11
1.17557
 21
-37.618
  0
LINE
  8
0
 10
1.17557
 20
-37.618
 11
1.07164
 21
-37.6886
  0
LINE
  8
0
 10
1.07164
 20
-37.6886
 11
0.963501
 21
-37.7526
  0
LINE
  8
0
 10
0.963501
 20
-37.7526
 11
0.851547
 21
-37.8096
  0
LINE
  8
0
 10
0.851547
 20
-37.8096
 11
0.736237
 21
-37.8595
  0
LINE
  8
0
 10
0.736237
 20
-37.8595
 11
0.618027
 21
-37.9021
  0
LINE
  8
0
 10
0.618027
 20
-37.9021
 11
0.497375
 21
-37.9372
  0
LINE
  8
0
 10
0.497375
 20
-37.9372
 11
0.374756
 21
-37.9646
  0
LINE
  8
0
 10
0.374756
 20
-37.9646
 11
0.250656
 21
-37.9842
  0
LINE
  8
0
 10
0.250656
 20
-37.9842
 11
0.12558
 21
-37.996
  0
LINE
  8
0
 10
0.12558
 20
-37.996
 11
0
 21
-38
  0
LINE
  8
0
 10
0
 20
-38
 11
-0.125595
 21
-37.996
  0
LINE
  8
0
 10
-40.1256
 20
-37.996
 11
-40.2507
 21
-37.9842
  0
LINE
  8
0
 10
-40.2507
 20
-37.9842
 11
-40.3748
 21
-37.9646
  0
LINE
  8
0
 10
-40.3748
 20
-37.9646
 11
-40.4974
 21
-37.9372
  0
LINE
  8
0
 10
-40.4974
 20
-37.9372
 11
-40.618
 21
-37.9021
  0
LINE
  8
0
 10
-40.618
 20
-37.9021
 11
-40.7363
 21
-37.8595
  0
LINE
  8
0
 10
-40.7363
 20
-37.8595
 11
-40.8516
 21
-37.8096
  0
LINE
  8
0
 10
-40.8516
 20
-37.8096
 11
-40.9635
 21
-37.7526
  0
LINE
  8
0
 10
-40.9635
 20
-37.7526
 11
-41.0717
 21
-37.6886
  0
LINE
  8
0
 10
-41.0717
 20
-37.6886
 11
-41.1756
 21
-37.618
  0
LINE
  8
0
 10
-41.1756
 20
-37.618
 11
-41.2749
 21
-37.541
  0
LINE
  8
0
 10
-41.2749
 20
-37.541
 11
-41.3691
 21
-37.4579
  0
LINE
  8
0
 10
-41.3691
 20
-37.4579
 11
-41.4579
 21
-37.3691
  0
LINE
  8
0
 10
-41.4579
 20
-37.3691
 11
-41.541
 21
-37.2748
  0
LINE
  8
0
 10
-41.541
 20
-37.2748
 11
-41.618
 21
-37.1756
  0
LINE
  8
0
 10
-41.618
 20
-37.1756
 11
-41.6887
 21
-37.0716
  0
LINE
  8
0
 10
-41.6887
 20
-37.0716
 11
-41.7526
 21
-36.9635
  0
LINE
  8
0
 10
-41.7526
 20
-36.9635
 11
-41.8097
 21
-36.8515
  0
LINE
  8
0
 10
-41.8097
 20
-36.8515
 11
-41.8596
 21
-36.7362
  0
LINE
  8
0
 10
-41.8596
 20
-36.7362
 11
-41.9021
 21
-36.618
  0
LINE
  8
0
 10
-41.9021
 20
-36.618
 11
-41.9372
 21
-36.4974
  0
LINE
  8
0
 10
-41.9372
 20
-36.4974
 11
-41.9646
 21
-36.3748
  0
LINE
  8
0
 10
-41.9646
 20
-36.3748
 11
-41.9842
 21
-36.2507
  0
LINE
  8
0
 10
-41.9842
 20
-36.2507
 11
-41.9961
 21
-36.1256
  0
LINE
  8
0
 10
-41.9961
 20
-36.1256
 11
-42
 21
-36
  0
LINE
  8
0
 10
-42
 20
-36
 11
-41.9961
 21
-35.8744
  0
LINE
  8
0
 10
-41.9961
 20
-35.8744
 11
-41.9842
 21
-35.7493
  0
LINE
  8
0
 10
-41.9842
 20
-35.7493
 11
-41.9646
 21
-35.6252
  0
LINE
  8
0
 10
-41.9646
 20
-35.6252
 11
-41.9372
 21
-35.5026
  0
LINE
  8
0
 10
-41.9372
 20
-35.5026
 11
-41.9021
 21
-35.382
  0
LINE
  8
0
 10
-41.9021
 20
-35.382
 11
-41.8596
 21
-35.2638
  0
LINE
  8
0
 10
-41.8596
 20
-35.2638
 11
-41.8097
 21
-35.1485
  0
LINE
  8
0
 10
-41.8097
 20
-35.1485
 11
-41.7526
 21
-35.0365
  0
LINE
  8
0
 10
-41.7526
 20
-35.0365
 11
-41.6887
 21
-34.9284
  0
LINE
  8
0
 10
-41.6887
 20
-34.9284
 11
-41.618
 21
-34.8244
  0
LINE
  8
0
 10
-41.618
 20
-34.8244
 11
-41.541
 21
-34.7252
  0
LINE
  8
0
 10
-41.541
 20
-34.7252
 11
-41.4579
 21
-34.6309
  0
LINE
  8
0
 10
-41.4579
 20
-34.6309
 11
-41.3691
 21
-34.5421
  0
LINE
  8
0
 10
-41.3691
 20
-34.5421
 11
-41.2749
 21
-34.459
  0
LINE
  8
0
 10
-41.2749
 20
-34.459
 11
-41.1756
 21
-34.382
  0
LINE
  8
0
 10
-41.1756
 20
-34.382
 11
-41.0717
 21
-34.3114
  0
LINE
  8
0
 10
-41.0717
 20
-34.3114
 11
-40.9635
 21
-34.2474
  0
LINE
  8
0
 10
-40.9635
 20
-34.2474
 11
-40.8516
 21
-34.1904
  0
LINE
  8
0
 10
-40.8516
 20
-34.1904
 11
-40.7363
 21
-34.1405
  0
LINE
  8
0
 10
-40.7363
 20
-34.1405
 11
-40.618
 21
-34.0979
  0
LINE
  8
0
 10
-40.618
 20
-34.0979
 11
-40.4974
 21
-34.0628
  0
LINE
  8
0
 10
-40.4974
 20
-34.0628
 11
-40.3748
 21
-34.0354
  0
LINE
  8
0
 10
-40.3748
 20
-34.0354
 11
-40.2507
 21
-34.0158
  0
LINE
  8
0
 10
-40.2507
 20
-34.0158
 11
-40.1256
 21
-34.004
  0
LINE
  8
0
 10
-40.1256
 20
-34.004
 11
-40
 21
-34
  0
LINE
  8
0
 10
-40
 20
-34
 11
-39.8744
 21
-34.004
  0
LINE
  8
0
 10
-39.8744
 20
-34.004
 11
-39.7493
 21
-34.0158
  0
LINE
  8
0
 10
-39.7493
 20
-34.0158
 11
-39.6252
 21
-34.0354
  0
LINE
  8
0
 10
-39.6252
 20
-34.0354
 11
-39.5026
 21
-34.0628
  0
LINE
  8
0
 10
-39.5026
 20
-34.0628
 11
-39.382
 21
-34.0979
  0
LINE
  8
0
 10
-39.382
 20
-34.0979
 11
-39.2638
 21
-34.1405
  0
LINE
  8
0
 10
-39.2638
 20
-34.1405
 11
-39.1485
 21
-34.1904
  0
LINE
  8
0
 10
-39.1485
 20
-34.1904
 11
-39.0365
 21
-34.2474
  0
LINE
  8
0
 10
-39.0365
 20
-34.2474
 11
-38.9284
 21
-34.3114
  0
LINE
  8
0
 10
-38.9284
 20
-34.3114
 11
-38.8244
 21
-34.382
  0
LINE
  8
0
 10
-38.8244
 20
-34.382
 11
-38.7252
 21
-34.459
  0
LINE
  8
0
 10
-38.7252
 20
-34.459
 11
-38.6309
 21
-34.5421
  0
LINE
  8
0
 10
-38.6309
 20
-34.5421
 11
-38.5421
 21
-34.6309
  0
LINE
  8
0
 10
-38.5421
 20
-34.6309
 11
-38.459
 21
-34.7252
  0
LINE
  8
0
 10
-38.459
 20
-34.7252
 11
-38.382
 21
-34.8244
  0
LINE
  8
0
 10
-38.382
 20
-34.8244
 11
-38.3114
 21
-34.9284
  0
LINE
  8
0
 10
-38.3114
 20
-34.9284
 11
-38.2474
 21
-35.0365
  0
LINE
  8
0
 10
-38.2474
 20
-35.0365
 11
-38.1904
 21
-35.1485
  0
LINE
  8
0
 10
-38.1904
 20
-35.1485
 11
-38.1405
 21
-35.2638
  0
LINE
  8
0
 10
-38.1405
 20
-35.2638
 11
-38.0979
 21
-35.382
  0
LINE
  8
0
 10
-38.0979
 20
-35.382
 11
-38.0628
 21
-35.5026
  0
LINE
  8
0
 10
-38.0628
 20
-35.5026
 11
-38.0354
 21
-35.6252
  0
LINE
  8
0
 10
-38.0354
 20
-35.6252
 11
-38.0158
 21
-35.7493
  0
LINE
  8
0
 10
-38.0158
 20
-35.7493
 11
-38.004
 21
-35.8744
  0
LINE
  8
0
 10
-38.004
 20
-35.8744
 11
-38
 21
-36
  0
LINE
  8
0
 10
-38
 20
-36
 11
-38.004
 21
-36.1256
  0
LINE
  8
0
 10
-38.004
 20
-36.1256
 11
-38.0158
 21
-36.2507
  0
LINE
  8
0
 10
-38.0158
 20
-36.2507
 11
-38.0354
 21
-36.3748
  0
LINE
  8
0
 10
-38.0354
 20
-36.3748
 11
-38.0628
 21
-36.4974
  0
LINE
  8
0
 10
-38.0628
 20
-36.4974
 11
-38.0979
 21
-36.618
  0
LINE
  8
0
 10
-38.0979
 20
-36.618
 11
-38.1405
 21
-36.7362
  0
LINE
  8
0
 10
-38.1405
 20
-36.7362
 11
-38.1904
 21
-36.8515
  0
LINE
  8
0
 10
-38.1904
 20
-36.8515
 11
-38.2474
 21
-36.9635
  0
LINE
  8
0
 10
-38.2474
 20
-36.9635
 11
-38.3114
 21
-37.0716
  0
LINE
  8
0
 10
-38.3114
 20
-37.0716
 11
-38.382
 21
-37.1756
  0
LINE
  8
0
 10
-38.382
 20
-37.1756
 11
-38.459
 21
-37.2748
  0
LINE
  8
0
 10
-38.459
 20
-37.2748
 11
-38.5421
 21
-37.3691
  0
LINE
  8
0
 10
-38.5421
 20
-37.3691
 11
-38.6309
 21
-37.4579
  0
LINE
  8
0
 10
-38.6309
 20
-37.4579
 11
-38.7252
 21
-37.541
  0
LINE
  8
0
 10
-38.7252
 20
-37.541
 11
-38.8244
 21
-37.618
  0
LINE
  8
0
 10
-38.8244
 20
-37.618
 11
-38.9284
 21
-37.6886
  0
LINE
  8
0
 10
-38.9284
 20
-37.6886
 11
-39.0365
 21
-37.7526
  0
LINE
  8
0
 10
-39.0365
 20
-37.7526
 11
-39.1485
 21
-37.8096
  0
LINE
  8
0
 10
-39.1485
 20
-37.8096
 11
-39.2638
 21
-37.8595
  0
LINE
  8
0
 10
-39.2638
 20
-37.8595
 11
-39.382
 21
-37.9021
  0
LINE
  8
0
 10
-39.382
 20
-37.9021
 11
-39.5026
 21
-37.9372
  0
LINE
  8
0
 10
-39.5026
 20
-37.9372
 11
-39.6252
 21
-37.9646
  0
LINE
  8
0
 10
-39.6252
 20
-37.9646
 11
-39.7493
 21
-37.9842
  0
LINE
  8
0
 10
-39.7493
 20
-37.9842
 11
-39.8744
 21
-37.996
  0
LINE
  8
0
 10
-39.8744
 20
-37.996
 11
-40
 21
-38
  0
LINE
  8
0
 10
-40
 20
-38
 11
-40.1256
 21
-37.996
  0
LINE
  8
0
 10
39.8744
 20
-37.996
 11
39.7493
 21
-37.9842
  0
LINE
  8
0
 10
39.7493
 20
-37.9842
 11
39.6252
 21
-37.9646
  0
LINE
  8
0
 10
39.6252
 20
-37.9646
 11
39.5026
 21
-37.9372
  0
LINE
  8
0
 10
39.5026
 20
-37.9372
 11
39.382
 21
-37.9021
  0
LINE
  8
0
 10
39.382
 20
-37.9021
 11
39.2637
 21
-37.8595
  0
LINE
  8
0
 10
39.2637
 20
-37.8595
 11
39.1484
 21
-37.8096
  0
LINE
  8
0
 10
39.1484
 20
-37.8096
 11
39.0365
 21
-37.7526
  0
LINE
  8
0
 10
39.0365
 20
-37.7526
 11
38.9283
 21
-37.6886
  0
LINE
  8
0
 10
38.9283
 20
-37.6886
 11
38.8244
 21
-37.618
  0
LINE
  8
0
 10
38.8244
 20
-37.618
 11
38.7251
 21
-37.541
  0
LINE
  8
0
 10
38.7251
 20
-37.541
 11
38.6309
 21
-37.4579
  0
LINE
  8
0
 10
38.6309
 20
-37.4579
 11
38.5421
 21
-37.3691
  0
LINE
  8
0
 10
38.5421
 20
-37.3691
 11
38.459
 21
-37.2748
  0
LINE
  8
0
 10
38.459
 20
-37.2748
 11
38.382
 21
-37.1756
  0
LINE
  8
0
 10
38.382
 20
-37.1756
 11
38.3113
 21
-37.0716
  0
LINE
  8
0
 10
38.3113
 20
-37.0716
 11
38.2474
 21
-36.9635
  0
LINE
  8
0
 10
38.2474
 20
-36.9635
 11
38.1903
 21
-36.8515
  0
LINE
  8
0
 10
38.1903
 20
-36.8515
 11
38.1404
 21
-36.7362
  0
LINE
  8
0
 10
38.1404
 20
-36.7362
 11
38.0979
 21
-36.618
  0
LINE
  8
0
 10
38.0979
 20
-36.618
 11
38.0628
 21
-36.4974
  0
LINE
  8
0
 10
38.0628
 20
-36.4974
 11
38.0354
 21
-36.3748
  0
LINE
  8
0
 10
38.0354
 20
-36.3748
 11
38.0158
 21
-36.2507
  0
LINE
  8
0
 10
38.0158
 20
-36.2507
 11
38.0039
 21
-36.1256
  0
LINE
  8
0
 10
38.0039
 20
-36.1256
 11
38
 21
-36
  0
LINE
  8
0
 10
38
 20
-36
 11
38.0039
 21
-35.8744
  0
LINE
  8
0
 10
38.0039
 20
-35.8744
 11
38.0158
 21
-35.7493
  0
LINE
  8
0
 10
38.0158
 20
-35.7493
 11
38.0354
 21
-35.6252
  0
LINE
  8
0
 10
38.0354
 20
-35.6252
 11
38.0628
 21
-35.5026
  0
LINE
  8
0
 10
38.0628
 20
-35.5026
 11
38.0979
 21
-35.382
  0
LINE
  8
0
 10
38.0979
 20
-35.382
 11
38.1404
 21
-35.2638
  0
LINE
  8
0
 10
38.1404
 20
-35.2638
 11
38.1903
 21
-35.1485
  0
LINE
  8
0
 10
38.1903
 20
-35.1485
 11
38.2474
 21
-35.0365
  0
LINE
  8
0
 10
38.2474
 20
-35.0365
 11
38.3113
 21
-34.9284
  0
LINE
  8
0
 10
38.3113
 20
-34.9284
 11
38.382
 21
-34.8244
  0
LINE
  8
0
 10
38.382
 20
-34.8244
 11
38.459
 21
-34.7252
  0
LINE
  8
0
 10
38.459
 20
-34.7252
 11
38.5421
 21
-34.6309
  0
LINE
  8
0
 10
38.5421
 20
-34.6309
 11
38.6309
 21
-34.5421
  0
LINE
  8
0
 10
38.6309
 20
-34.5421
 11
38.7251
 21
-34.459
  0
LINE
  8
0
 10
38.7251
 20
-34.459
 11
38.8244
 21
-34.382
  0
LINE
  8
0
 10
38.8244
 20
-34.382
 11
38.9283
 21
-34.3114
  0
LINE
  8
0
 10
38.9283
 20
-34.3114
 11
39.0365
 21
-34.2474
  0
LINE
  8
0
 10
39.0365
 20
-34.2474
 11
39.1484
 21
-34.1904
  0
LINE
  8
0
 10
39.1484
 20
-34.1904
 11
39.2637
 21
-34.1405
  0
LINE
  8
0
 10
39.2637
 20
-34.1405
 11
39.382
 21
-34.0979
  0
LINE
  8
0
 10
39.382
 20
-34.0979
 11
39.5026
 21
-34.0628
  0
LINE
  8
0
 10
39.5026
 20
-34.0628
 11
39.6252
 21
-34.0354
  0
LINE
  8
0
 10
39.6252
 20
-34.0354
 11
39.7493
 21
-34.0158
  0
LINE
  8
0
 10
39.7493
 20
-34.0158
 11
39.8744
 21
-34.004
  0
LINE
  8
0
 10
39.8744
 20
-34.004
 11
40
 21
-34
  0
LINE
  8
0
 10
40
 20
-34
 11
40.1256
 21
-34.004
  0
LINE
  8
0
 10
40.1256
 20
-34.004
 11
40.2507
 21
-34.0158
  0
LINE
  8
0
 10
40.2507
 20
-34.0158
 11
40.3748
 21
-34.0354
  0
LINE
  8
0
 10
40.3748
 20
-34.0354
 11
40.4974
 21
-34.0628
  0
LINE
  8
0
 10
40.4974
 20
-34.0628
 11
40.618
 21
-34.0979
  0
LINE
  8
0
 10
40.618
 20
-34.0979
 11
40.7362
 21
-34.1405
  0
LINE
  8
0
 10
40.7362
 20
-34.1405
 11
40.8515
 21
-34.1904
  0
LINE
  8
0
 10
40.8515
 20
-34.1904
 11
40.9635
 21
-34.2474
  0
LINE
  8
0
 10
40.9635
 20
-34.2474
 11
41.0716
 21
-34.3114
  0
LINE
  8
0
 10
41.0716
 20
-34.3114
 11
41.1756
 21
-34.382
  0
LINE
  8
0
 10
41.1756
 20
-34.382
 11
41.2748
 21
-34.459
  0
LINE
  8
0
 10
41.2748
 20
-34.459
 11
41.3691
 21
-34.5421
  0
LINE
  8
0
 10
41.3691
 20
-34.5421
 11
41.4579
 21
-34.6309
  0
LINE
  8
0
 10
41.4579
 20
-34.6309
 11
41.541
 21
-34.7252
  0
LINE
  8
0
 10
41.541
 20
-34.7252
 11
41.618
 21
-34.8244
  0
LINE
  8
0
 10
41.618
 20
-34.8244
 11
41.6886
 21
-34.9284
  0
LINE
  8
0
 10
41.6886
 20
-34.9284
 11
41.7526
 21
-35.0365
  0
LINE
  8
0
 10
41.7526
 20
-35.0365
 11
41.8096
 21
-35.1485
  0
LINE
  8
0
 10
41.8096
 20
-35.1485
 11
41.8595
 21
-35.2638
  0
LINE
  8
0
 10
41.8595
 20
-35.2638
 11
41.9021
 21
-35.382
  0
LINE
  8
0
 10
41.9021
 20
-35.382
 11
41.9372
 21
-35.5026
  0
LINE
  8
0
 10
41.9372
 20
-35.5026
 11
41.9646
 21
-35.6252
  0
LINE
  8
0
 10
41.9646
 20
-35.6252
 11
41.9842
 21
-35.7493
  0
LINE
  8
0
 10
41.9842
 20
-35.7493
 11
41.996
 21
-35.8744
  0
LINE
  8
0
 10
41.996
 20
-35.8744
 11
42
 21
-36
  0
LINE
  8
0
 10
42
 20
-36
 11
41.996
 21
-36.1256
  0
LINE
  8
0
 10
41.996
 20
-36.1256
 11
41.9842
 21
-36.2507
  0
LINE
  8
0
 10
41.9842
 20
-36.2507
 11
41.9646
 21
-36.3748
  0
LINE
  8
0
 10
41.9646
 20
-36.3748
 11
41.9372
 21
-36.4974
  0
LINE
  8
0
 10
41.9372
 20
-36.4974
 11
41.9021
 21
-36.618
  0
LINE
  8
0
 10
41.9021
 20
-36.618
 11
41.8595
 21
-36.7362
  0
LINE
  8
0
 10
41.8595
 20
-36.7362
 11
41.8096
 21
-36.8515
  0
LINE
  8
0
 10
41.8096
 20
-36.8515
 11
41.7526
 21
-36.9635
  0
LINE
  8
0
 10
41.7526
 20
-36.9635
 11
41.6886
 21
-37.0716
  0
LINE
  8
0
 10
41.6886
 20
-37.0716
 11
41.618
 21
-37.1756
  0
LINE
  8
0
 10
41.618
 20
-37.1756
 11
41.541
 21
-37.2748
  0
LINE
  8
0
 10
41.541
 20
-37.2748
 11
41.4579
 21
-37.3691
  0
LINE
  8
0
 10
41.4579
 20
-37.3691
 11
41.3691
 21
-37.4579
  0
LINE
  8
0
 10
41.3691
 20
-37.4579
 11
41.2748
 21
-37.541
  0
LINE
  8
0
 10
41.2748
 20
-37.541
 11
41.1756
 21
-37.618
  0
LINE
  8
0
 10
41.1756
 20
-37.618
 11
41.0716
 21
-37.6886
  0
LINE
  8
0
 10
41.0716
 20
-37.6886
 11
40.9635
 21
-37.7526
  0
LINE
  8
0
 10
40.9635
 20
-37.7526
 11
40.8515
 21
-37.8096
  0
LINE
  8
0
 10
40.8515
 20
-37.8096
 11
40.7362
 21
-37.8595
  0
LINE
  8
0
 10
40.7362
 20
-37.8595
 11
40.618
 21
-37.9021
  0
LINE
  8
0
 10
40.618
 20
-37.9021
 11
40.4974
 21
-37.9372
  0
LINE
  8
0
 10
40.4974
 20
-37.9372
 11
40.3748
 21
-37.9646
  0
LINE
  8
0
 10
40.3748
 20
-37.9646
 11
40.2507
 21
-37.9842
  0
LINE
  8
0
 10
40.2507
 20
-37.9842
 11
40.1256
 21
-37.996
  0
LINE
  8
0
 10
40.1256
 20
-37.996
 11
40
 21
-38
  0
LINE
  8
0
 10
40
 20
-38
 11
39.8744
 21
-37.996
  0
LINE
  8
0
 10
-80.1256
 20
-37.996
 11
-80.2507
 21
-37.9842
  0
LINE
  8
0
 10
-80.2507
 20
-37.9842
 11
-80.3748
 21
-37.9646
  0
LINE
  8
0
 10
-80.3748
 20
-37.9646
 11
-80.4974
 21
-37.9372
  0
LINE
  8
0
 10
-80.4974
 20
-37.9372
 11
-80.618
 21
-37.9021
  0
LINE
  8
0
 10
-80.618
 20
-37.9021
 11
-80.7362
 21
-37.8595
  0
LINE
  8
0
 10
-80.7362
 20
-37.8595
 11
-80.8515
 21
-37.8096
  0
LINE
  8
0
 10
-80.8515
 20
-37.8096
 11
-80.9635
 21
-37.7526
  0
LINE
  8
0
 10
-80.9635
 20
-37.7526
 11
-81.0716
 21
-37.6886
  0
LINE
  8
0
 10
-81.0716
 20
-37.6886
 11
-81.1756
 21
-37.618
  0
LINE
  8
0
 10
-81.1756
 20
-37.618
 11
-81.2748
 21
-37.541
  0
LINE
  8
0
 10
-81.2748
 20
-37.541
 11
-81.3691
 21
-37.4579
  0
LINE
  8
0
 10
-81.3691
 20
-37.4579
 11
-81.4579
 21
-37.3691
  0
LINE
  8
0
 10
-81.4579
 20
-37.3691
 11
-81.541
 21
-37.2748
  0
LINE
  8
0
 10
-81.541
 20
-37.2748
 11
-81.618
 21
-37.1756
  0
LINE
  8
0
 10
-81.618
 20
-37.1756
 11
-81.6886
 21
-37.0716
  0
LINE
  8
0
 10
-81.6886
 20
-37.0716
 11
-81.7526
 21
-36.9635
  0
LINE
  8
0
 10
-81.7526
 20
-36.9635
 11
-81.8096
 21
-36.8515
  0
LINE
  8
0
 10
-81.8096
 20
-36.8515
 11
-81.8595
 21
-36.7362
  0
LINE
  8
0
 10
-81.8595
 20
-36.7362
 11
-81.9021
 21
-36.618
  0
LINE
  8
0
 10
-81.9021
 20
-36.618
 11
-81.9372
 21
-36.4974
  0
LINE
  8
0
 10
-81.9372
 20
-36.4974
 11
-81.9646
 21
-36.3748
  0
LINE
  8
0
 10
-81.9646
 20
-36.3748
 11
-81.9842
 21
-36.2507
  0
LINE
  8
0
 10
-81.9842
 20
-36.2507
 11
-81.996
 21
-36.1256
  0
LINE
  8
0
 10
-81.996
 20
-36.1256
 11
-82
 21
-36
  0
LINE
  8
0
 10
-82
 20
-36
 11
-81.996
 21
-35.8744
  0
LINE
  8
0
 10
-81.996
 20
-35.8744
 11
-81.9842
 21
-35.7493
  0
LINE
  8
0
 10
-81.9842
 20
-35.7493
 11
-81.9646
 21
-35.6252
  0
LINE
  8
0
 10
-81.9646
 20
-35.6252
 11
-81.9372
 21
-35.5026
  0
LINE
  8
0
 10
-81.9372
 20
-35.5026
 11
-81.9021
 21
-35.382
  0
LINE
  8
0
 10
-81.9021
 20
-35.382
 11
-81.8595
 21
-35.2638
  0
LINE
  8
0
 10
-81.8595
 20
-35.2638
 11
-81.8096
 21
-35.1485
  0
LINE
  8
0
 10
-81.8096
 20
-35.1485
 11
-81.7526
 21
-35.0365
  0
LINE
  8
0
 10
-81.7526
 20
-35.0365
 11
-81.6886
 21
-34.9284
  0
LINE
  8
0
 10
-81.6886
 20
-34.9284
 11
-81.618
 21
-34.8244
  0
LINE
  8
0
 10
-81.618
 20
-34.8244
 11
-81.541
 21
-34.7252
  0
LINE
  8
0
 10
-81.541
 20
-34.7252
 11
-81.4579
 21
-34.6309
  0
LINE
  8
0
 10
-81.4579
 20
-34.6309
 11
-81.3691
 21
-34.5421
  0
LINE
  8
0
 10
-81.3691
 20
-34.5421
 11
-81.2748
 21
-34.459
  0
LINE
  8
0
 10
-81.2748
 20
-34.459
 11
-81.1756
 21
-34.382
  0
LINE
  8
0
 10
-81.1756
 20
-34.382
 11
-81.0716
 21
-34.3114
  0
LINE
  8
0
 10
-81.0716
 20
-34.3114
 11
-80.9635
 21
-34.2474
  0
LINE
  8
0
 10
-80.9635
 20
-34.2474
 11
-80.8515
 21
-34.1904
  0
LINE
  8
0
 10
-80.8515
 20
-34.1904
 11
-80.7362
 21
-34.1405
  0
LINE
  8
0
 10
-80.7362
 20
-34.1405
 11
-80.618
 21
-34.0979
  0
LINE
  8
0
 10
-80.618
 20
-34.0979
 11
-80.4974
 21
-34.0628
  0
LINE
  8
0
 10
-80.4974
 20
-34.0628
 11
-80.3748
 21
-34.0354
  0
LINE
  8
0
 10
-80.3748
 20
-34.0354
 11
-80.2507
 21
-34.0158
  0
LINE
  8
0
 10
-80.2507
 20
-34.0158
 11
-80.1256
 21
-34.004
  0
LINE
  8
0
 10
-80.1256
 20
-34.004
 11
-80
 21
-34
  0
LINE
  8
0
 10
-80
 20
-34
 11
-79.8744
 21
-34.004
  0
LINE
  8
0
 10
-79.8744
 20
-34.004
 11
-79.7493
 21
-34.0158
  0
LINE
  8
0
 10
-79.7493
 20
-34.0158
 11
-79.6252
 21
-34.0354
  0
LINE
  8
0
 10
-79.6252
 20
-34.0354
 11
-79.5026
 21
-34.0628
  0
LINE
  8
0
 10
-79.5026
 20
-34.0628
 11
-79.382
 21
-34.0979
  0
LINE
  8
0
 10
-79.382
 20
-34.0979
 11
-79.2638
 21
-34.1405
  0
LINE
  8
0
 10
-79.2638
 20
-34.1405
 11
-79.1485
 21
-34.1904
  0
LINE
  8
0
 10
-79.1485
 20
-34.1904
 11
-79.0365
 21
-34.2474
  0
LINE
  8
0
 10
-79.0365
 20
-34.2474
 11
-78.9284
 21
-34.3114
  0
LINE
  8
0
 10
-78.9284
 20
-34.3114
 11
-78.8244
 21
-34.382
  0
LINE
  8
0
 10
-78.8244
 20
-34.382
 11
-78.7252
 21
-34.459
  0
LINE
  8
0
 10
-78.7252
 20
-34.459
 11
-78.6309
 21
-34.5421
  0
LINE
  8
0
 10
-78.6309
 20
-34.5421
 11
-78.5421
 21
-34.6309
  0
LINE
  8
0
 10
-78.5421
 20
-34.6309
 11
-78.459
 21
-34.7252
  0
LINE
  8
0
 10
-78.459
 20
-34.7252
 11
-78.382
 21
-34.8244
  0
LINE
  8
0
 10
-78.382
 20
-34.8244
 11
-78.3114
 21
-34.9284
  0
LINE
  8
0
 10
-78.3114
 20
-34.9284
 11
-78.2474
 21
-35.0365
  0
LINE
  8
0
 10
-78.2474
 20
-35.0365
 11
-78.1904
 21
-35.1485
  0
LINE
  8
0
 10
-78.1904
 20
-35.1485
 11
-78.1405
 21
-35.2638
  0
LINE
  8
0
 10
-78.1405
 20
-35.2638
 11
-78.0979
 21
-35.382
  0
LINE
  8
0
 10
-78.0979
 20
-35.382
 11
-78.0628
 21
-35.5026
  0
LINE
  8
0
 10
-78.0628
 20
-35.5026
 11
-78.0354
 21
-35.6252
  0
LINE
  8
0
 10
-78.0354
 20
-35.6252
 11
-78.0158
 21
-35.7493
  0
LINE
  8
0
 10
-78.0158
 20
-35.7493
 11
-78.004
 21
-35.8744
  0
LINE
  8
0
 10
-78.004
 20
-35.8744
 11
-78
 21
-36
  0
LINE
  8
0
 10
-78
 20
-36
 11
-78.004
 21
-36.1256
  0
LINE
  8
0
 10
-78.004
 20
-36.1256
 11
-78.0158
 21
-36.2507
  0
LINE
  8
0
 10
-78.0158
 20
-36.2507
 11
-78.0354
 21
-36.3748
  0
LINE
  8
0
 10
-78.0354
 20
-36.3748
 11
-78.0628
 21
-36.4974
  0
LINE
  8
0
 10
-78.0628
 20
-36.4974
 11
-78.0979
 21
-36.618
  0
LINE
  8
0
 10
-78.0979
 20
-36.618
 11
-78.1405
 21
-36.7362
  0
LINE
  8
0
 10
-78.1405
 20
-36.7362
 11
-78.1904
 21
-36.8515
  0
LINE
  8
0
 10
-78.1904
 20
-36.8515
 11
-78.2474
 21
-36.9635
  0
LINE
  8
0
 10
-78.2474
 20
-36.9635
 11
-78.3114
 21
-37.0716
  0
LINE
  8
0
 10
-78.3114
 20
-37.0716
 11
-78.382
 21
-37.1756
  0
LINE
  8
0
 10
-78.382
 20
-37.1756
 11
-78.459
 21
-37.2748
  0
LINE
  8
0
 10
-78.459
 20
-37.2748
 11
-78.5421
 21
-37.3691
  0
LINE
  8
0
 10
-78.5421
 20
-37.3691
 11
-78.6309
 21
-37.4579
  0
LINE
  8
0
 10
-78.6309
 20
-37.4579
 11
-78.7252
 21
-37.541
  0
LINE
  8
0
 10
-78.7252
 20
-37.541
 11
-78.8244
 21
-37.618
  0
LINE
  8
0
 10
-78.8244
 20
-37.618
 11
-78.9284
 21
-37.6886
  0
LINE
  8
0
 10
-78.9284
 20
-37.6886
 11
-79.0365
 21
-37.7526
  0
LINE
  8
0
 10
-79.0365
 20
-37.7526
 11
-79.1485
 21
-37.8096
  0
LINE
  8
0
 10
-79.1485
 20
-37.8096
 11
-79.2638
 21
-37.8595
  0
LINE
  8
0
 10
-79.2638
 20
-37.8595
 11
-79.382
 21
-37.9021
  0
LINE
  8
0
 10
-79.382
 20
-37.9021
 11
-79.5026
 21
-37.9372
  0
LINE
  8
0
 10
-79.5026
 20
-37.9372
 11
-79.6252
 21
-37.9646
  0
LINE
  8
0
 10
-79.6252
 20
-37.9646
 11
-79.7493
 21
-37.9842
  0
LINE
  8
0
 10
-79.7493
 20
-37.9842
 11
-79.8744
 21
-37.996
  0
LINE
  8
0
 10
-79.8744
 20
-37.996
 11
-80
 21
-38
  0
LINE
  8
0
 10
-80
 20
-38
 11
-80.1256
 21
-37.996
  0
LINE
  8
0
 10
79.8744
 20
-37.996
 11
79.7493
 21
-37.9842
  0
LINE
  8
0
 10
79.7493
 20
-37.9842
 11
79.6252
 21
-37.9646
  0
LINE
  8
0
 10
79.6252
 20
-37.9646
 11
79.5026
 21
-37.9372
  0
LINE
  8
0
 10
79.5026
 20
-37.9372
 11
79.382
 21
-37.9021
  0
LINE
  8
0
 10
79.382
 20
-37.9021
 11
79.2637
 21
-37.8595
  0
LINE
  8
0
 10
79.2637
 20
-37.8595
 11
79.1484
 21
-37.8096
  0
LINE
  8
0
 10
79.1484
 20
-37.8096
 11
79.0365
 21
-37.7526
  0
LINE
  8
0
 10
79.0365
 20
-37.7526
 11
78.9283
 21
-37.6886
  0
LINE
  8
0
 10
78.9283
 20
-37.6886
 11
78.8244
 21
-37.618
  0
LINE
  8
0
 10
78.8244
 20
-37.618
 11
78.7251
 21
-37.541
  0
LINE
  8
0
 10
78.7251
 20
-37.541
 11
78.6309
 21
-37.4579
  0
LINE
  8
0
 10
78.6309
 20
-37.4579
 11
78.5421
 21
-37.3691
  0
LINE
  8
0
 10
78.5421
 20
-37.3691
 11
78.459
 21
-37.2748
  0
LINE
  8
0
 10
78.459
 20
-37.2748
 11
78.382
 21
-37.1756
  0
LINE
  8
0
 10
78.382
 20
-37.1756
 11
78.3113
 21
-37.0716
  0
LINE
  8
0
 10
78.3113
 20
-37.0716
 11
78.2474
 21
-36.9635
  0
LINE
  8
0
 10
78.2474
 20
-36.9635
 11
78.1903
 21
-36.8515
  0
LINE
  8
0
 10
78.1903
 20
-36.8515
 11
78.1404
 21
-36.7362
  0
LINE
  8
0
 10
78.1404
 20
-36.7362
 11
78.0979
 21
-36.618
  0
LINE
  8
0
 10
78.0979
 20
-36.618
 11
78.0628
 21
-36.4974
  0
LINE
  8
0
 10
78.0628
 20
-36.4974
 11
78.0354
 21
-36.3748
  0
LINE
  8
0
 10
78.0354
 20
-36.3748
 11
78.0158
 21
-36.2507
  0
LINE
  8
0
 10
78.0158
 20
-36.2507
 11
78.0039
 21
-36.1256
  0
LINE
  8
0
 10
78.0039
 20
-36.1256
 11
78
 21
-36
  0
LINE
  8
0
 10
78
 20
-36
 11
78.0039
 21
-35.8744
  0
LINE
  8
0
 10
78.0039
 20
-35.8744
 11
78.0158
 21
-35.7493
  0
LINE
  8
0
 10
78.0158
 20
-35.7493
 11
78.0354
 21
-35.6252
  0
LINE
  8
0
 10
78.0354
 20
-35.6252
 11
78.0628
 21
-35.5026
  0
LINE
  8
0
 10
78.0628
 20
-35.5026
 11
78.0979
 21
-35.382
  0
LINE
  8
0
 10
78.0979
 20
-35.382
 11
78.1404
 21
-35.2638
  0
LINE
  8
0
 10
78.1404
 20
-35.2638
 11
78.1903
 21
-35.1485
  0
LINE
  8
0
 10
78.1903
 20
-35.1485
 11
78.2474
 21
-35.0365
  0
LINE
  8
0
 10
78.2474
 20
-35.0365
 11
78.3113
 21
-34.9284
  0
LINE
  8
0
 10
78.3113
 20
-34.9284
 11
78.382
 21
-34.8244
  0
LINE
  8
0
 10
78.382
 20
-34.8244
 11
78.459
 21
-34.7252
  0
LINE
  8
0
 10
78.459
 20
-34.7252
 11
78.5421
 21
-34.6309
  0
LINE
  8
0
 10
78.5421
 20
-34.6309
 11
78.6309
 21
-34.5421
  0
LINE
  8
0
 10
78.6309
 20
-34.5421
 11
78.7251
 21
-34.459
  0
LINE
  8
0
 10
78.7251
 20
-34.459
 11
78.8244
 21
-34.382
  0
LINE
  8
0
 10
78.8244
 20
-34.382
 11
78.9283
 21
-34.3114
  0
LINE
  8
0
 10
78.9283
 20
-34.3114
 11
79.0365
 21
-34.2474
  0
LINE
  8
0
 10
79.0365
 20
-34.2474
 11
79.1484
 21
-34.1904
  0
LINE
  8
0
 10
79.1484
 20
-34.1904
 11
79.2637
 21
-34.1405
  0
LINE
  8
0
 10
79.2637
 20
-34.1405
 11
79.382
 21
-34.0979
  0
LINE
  8
0
 10
79.382
 20
-34.0979
 11
79.5026
 21
-34.0628
  0
LINE
  8
0
 10
79.5026
 20
-34.0628
 11
79.6252
 21
-34.0354
  0
LINE
  8
0
 10
79.6252
 20
-34.0354
 11
79.7493
 21
-34.0158
  0
LINE
  8
0
 10
79.7493
 20
-34.0158
 11
79.8744
 21
-34.004
  0
LINE
  8
0
 10
79.8744
 20
-34.004
 11
80
 21
-34
  0
LINE
  8
0
 10
80
 20
-34
 11
80.1256
 21
-34.004
  0
LINE
  8
0
 10
80.1256
 20
-34.004
 11
80.2507
 21
-34.0158
  0
LINE
  8
0
 10
80.2507
 20
-34.0158
 11
80.3748
 21
-34.0354
  0
LINE
  8
0
 10
80.3748
 20
-34.0354
 11
80.4974
 21
-34.0628
  0
LINE
  8
0
 10
80.4974
 20
-34.0628
 11
80.618
 21
-34.0979
  0
LINE
  8
0
 10
80.618
 20
-34.0979
 11
80.7362
 21
-34.1405
  0
LINE
  8
0
 10
80.7362
 20
-34.1405
 11
80.8515
 21
-34.1904
  0
LINE
  8
0
 10
80.8515
 20
-34.1904
 11
80.9635
 21
-34.2474
  0
LINE
  8
0
 10
80.9635
 20
-34.2474
 11
81.0716
 21
-34.3114
  0
LINE
  8
0
 10
81.0716
 20
-34.3114
 11
81.1756
 21
-34.382
  0
LINE
  8
0
 10
81.1756
 20
-34.382
 11
81.2748
 21
-34.459
  0
LINE
  8
0
 10
81.2748
 20
-34.459
 11
81.3691
 21
-34.5421
  0
LINE
  8
0
 10
81.3691
 20
-34.5421
 11
81.4579
 21
-34.6309
  0
LINE
  8
0
 10
81.4579
 20
-34.6309
 11
81.541
 21
-34.7252
  0
LINE
  8
0
 10
81.541
 20
-34.7252
 11
81.618
 21
-34.8244
  0
LINE
  8
0
 10
81.618
 20
-34.8244
 11
81.6886
 21
-34.9284
  0
LINE
  8
0
 10
81.6886
 20
-34.9284
 11
81.7526
 21
-35.0365
  0
LINE
  8
0
 10
81.7526
 20
-35.0365
 11
81.8096
 21
-35.1485
  0
LINE
  8
0
 10
81.8096
 20
-35.1485
 11
81.8595
 21
-35.2638
  0
LINE
  8
0
 10
81.8595
 20
-35.2638
 11
81.9021
 21
-35.382
  0
LINE
  8
0
 10
81.9021
 20
-35.382
 11
81.9372
 21
-35.5026
  0
LINE
  8
0
 10
81.9372
 20
-35.5026
 11
81.9646
 21
-35.6252
  0
LINE
  8
0
 10
81.9646
 20
-35.6252
 11
81.9842
 21
-35.7493
  0
LINE
  8
0
 10
81.9842
 20
-35.7493
 11
81.996
 21
-35.8744
  0
LINE
  8
0
 10
81.996
 20
-35.8744
 11
82
 21
-36
  0
LINE
  8
0
 10
82
 20
-36
 11
81.996
 21
-36.1256
  0
LINE
  8
0
 10
81.996
 20
-36.1256
 11
81.9842
 21
-36.2507
  0
LINE
  8
0
 10
81.9842
 20
-36.2507
 11
81.9646
 21
-36.3748
  0
LINE
  8
0
 10
81.9646
 20
-36.3748
 11
81.9372
 21
-36.4974
  0
LINE
  8
0
 10
81.9372
 20
-36.4974
 11
81.9021
 21
-36.618
  0
LINE
  8
0
 10
81.9021
 20
-36.618
 11
81.8595
 21
-36.7362
  0
LINE
  8
0
 10
81.8595
 20
-36.7362
 11
81.8096
 21
-36.8515
  0
LINE
  8
0
 10
81.8096
 20
-36.8515
 11
81.7526
 21
-36.9635
  0
LINE
  8
0
 10
81.7526
 20
-36.9635
 11
81.6886
 21
-37.0716
  0
LINE
  8
0
 10
81.6886
 20
-37.0716
 11
81.618
 21
-37.1756
  0
LINE
  8
0
 10
81.618
 20
-37.1756
 11
81.541
 21
-37.2748
  0
LINE
  8
0
 10
81.541
 20
-37.2748
 11
81.4579
 21
-37.3691
  0
LINE
  8
0
 10
81.4579
 20
-37.3691
 11
81.3691
 21
-37.4579
  0
LINE
  8
0
 10
81.3691
 20
-37.4579
 11
81.2748
 21
-37.541
  0
LINE
  8
0
 10
81.2748
 20
-37.541
 11
81.1756
 21
-37.618
  0
LINE
  8
0
 10
81.1756
 20
-37.618
 11
81.0716
 21
-37.6886
  0
LINE
  8
0
 10
81.0716
 20
-37.6886
 11
80.9635
 21
-37.7526
  0
LINE
  8
0
 10
80.9635
 20
-37.7526
 11
80.8515
 21
-37.8096
  0
LINE
  8
0
 10
80.8515
 20
-37.8096
 11
80.7362
 21
-37.8595
  0
LINE
  8
0
 10
80.7362
 20
-37.8595
 11
80.618
 21
-37.9021
  0
LINE
  8
0
 10
80.618
 20
-37.9021
 11
80.4974
 21
-37.9372
  0
LINE
  8
0
 10
80.4974
 20
-37.9372
 11
80.3748
 21
-37.9646
  0
LINE
  8
0
 10
80.3748
 20
-37.9646
 11
80.2507
 21
-37.9842
  0
LINE
  8
0
 10
80.2507
 20
-37.9842
 11
80.1256
 21
-37.996
  0
LINE
  8
0
 10
80.1256
 20
-37.996
 11
80
 21
-38
  0
LINE
  8
0
 10
80
 20
-38
 11
79.8744
 21
-37.996
  0
LINE
  8
0
 10
-40
 20
-53.25
 11
-40
 21
-48.75
  0
LINE
  8
0
 10
-40
 20
-48.75
 11
40
 21
-48.75
  0
LINE
  8
0
 10
40
 20
-48.75
 11
40
 21
-53.25
  0
LINE
  8
0
 10
40
 20
-53.25
 11
-40
 21
-53.25
  0
LINE
  8
0
 10
79.8744
 20
-77.996
 11
79.7493
 21
-77.9842
  0
LINE
  8
0
 10
79.7493
 20
-77.9842
 11
79.6252
 21
-77.9646
  0
LINE
  8
0
 10
79.6252
 20
-77.9646
 11
79.5026
 21
-77.9372
  0
LINE
  8
0
 10
79.5026
 20
-77.9372
 11
79.382
 21
-77.9021
  0
LINE
  8
0
 10
79.382
 20
-77.9021
 11
79.2637
 21
-77.8595
  0
LINE
  8
0
 10
79.2637
 20
-77.8595
 11
79.1484
 21
-77.8096
  0
LINE
  8
0
 10
79.1484
 20
-77.8096
 11
79.0365
 21
-77.7526
  0
LINE
  8
0
 10
79.0365
 20
-77.7526
 11
78.9283
 21
-77.6886
  0
LINE
  8
0
 10
78.9283
 20
-77.6886
 11
78.8244
 21
-77.618
  0
LINE
  8
0
 10
78.8244
 20
-77.618
 11
78.7251
 21
-77.541
  0
LINE
  8
0
 10
78.7251
 20
-77.541
 11
78.6309
 21
-77.4579
  0
LINE
  8
0
 10
78.6309
 20
-77.4579
 11
78.5421
 21
-77.3691
  0
LINE
  8
0
 10
78.5421
 20
-77.3691
 11
78.459
 21
-77.2748
  0
LINE
  8
0
 10
78.459
 20
-77.2748
 11
78.382
 21
-77.1756
  0
LINE
  8
0
 10
78.382
 20
-77.1756
 11
78.3113
 21
-77.0716
  0
LINE
  8
0
 10
78.3113
 20
-77.0716
 11
78.2474
 21
-76.9635
  0
LINE
  8
0
 10
78.2474
 20
-76.9635
 11
78.1903
 21
-76.8515
  0
LINE
  8
0
 10
78.1903
 20
-76.8515
 11
78.1404
 21
-76.7362
  0
LINE
  8
0
 10
78.1404
 20
-76.7362
 11
78.0979
 21
-76.618
  0
LINE
  8
0
 10
78.0979
 20
-76.618
 11
78.0628
 21
-76.4974
  0
LINE
  8
0
 10
78.0628
 20
-76.4974
 11
78.0354
 21
-76.3748
  0
LINE
  8
0
 10
78.0354
 20
-76.3748
 11
78.0158
 21
-76.2507
  0
LINE
  8
0
 10
78.0158
 20
-76.2507
 11
78.0039
 21
-76.1256
  0
LINE
  8
0
 10
78.0039
 20
-76.1256
 11
78
 21
-76
  0
LINE
  8
0
 10
78
 20
-76
 11
78.0039
 21
-75.8744
  0
LINE
  8
0
 10
78.0039
 20
-75.8744
 11
78.0158
 21
-75.7493
  0
LINE
  8
0
 10
78.0158
 20
-75.7493
 11
78.0354
 21
-75.6252
  0
LINE
  8
0
 10
78.0354
 20
-75.6252
 11
78.0628
 21
-75.5026
  0
LINE
  8
0
 10
78.0628
 20
-75.5026
 11
78.0979
 21
-75.382
  0
LINE
  8
0
 10
78.0979
 20
-75.382
 11
78.1404
 21
-75.2637
  0
LINE
  8
0
 10
78.1404
 20
-75.2637
 11
78.1903
 21
-75.1484
  0
LINE
  8
0
 10
78.1903
 20
-75.1484
 11
78.2474
 21
-75.0365
  0
LINE
  8
0
 10
78.2474
 20
-75.0365
 11
78.3113
 21
-74.9283
  0
LINE
  8
0
 10
78.3113
 20
-74.9283
 11
78.382
 21
-74.8244
  0
LINE
  8
0
 10
78.382
 20
-74.8244
 11
78.459
 21
-74.7251
  0
LINE
  8
0
 10
78.459
 20
-74.7251
 11
78.5421
 21
-74.6309
  0
LINE
  8
0
 10
78.5421
 20
-74.6309
 11
78.6309
 21
-74.5421
  0
LINE
  8
0
 10
78.6309
 20
-74.5421
 11
78.7251
 21
-74.459
  0
LINE
  8
0
 10
78.7251
 20
-74.459
 11
78.8244
 21
-74.382
  0
LINE
  8
0
 10
78.8244
 20
-74.382
 11
78.9283
 21
-74.3113
  0
LINE
  8
0
 10
78.9283
 20
-74.3113
 11
79.0365
 21
-74.2474
  0
LINE
  8
0
 10
79.0365
 20
-74.2474
 11
79.1484
 21
-74.1903
  0
LINE
  8
0
 10
79.1484
 20
-74.1903
 11
79.2637
 21
-74.1404
  0
LINE
  8
0
 10
79.2637
 20
-74.1404
 11
79.382
 21
-74.0979
  0
LINE
  8
0
 10
79.382
 20
-74.0979
 11
79.5026
 21
-74.0628
  0
LINE
  8
0
 10
79.5026
 20
-74.0628
 11
79.6252
 21
-74.0354
  0
LINE
  8
0
 10
79.6252
 20
-74.0354
 11
79.7493
 21
-74.0158
  0
LINE
  8
0
 10
79.7493
 20
-74.0158
 11
79.8744
 21
-74.0039
  0
LINE
  8
0
 10
79.8744
 20
-74.0039
 11
80
 21
-74
  0
LINE
  8
0
 10
80
 20
-74
 11
80.1256
 21
-74.0039
  0
LINE
  8
0
 10
80.1256
 20
-74.0039
 11
80.2507
 21
-74.0158
  0
LINE
  8
0
 10
80.2507
 20
-74.0158
 11
80.3748
 21
-74.0354
  0
LINE
  8
0
 10
80.3748
 20
-74.0354
 11
80.4974
 21
-74.0628
  0
LINE
  8
0
 10
80.4974
 20
-74.0628
 11
80.618
 21
-74.0979
  0
LINE
  8
0
 10
80.618
 20
-74.0979
 11
80.7362
 21
-74.1404
  0
LINE
  8
0
 10
80.7362
 20
-74.1404
 11
80.8515
 21
-74.1903
  0
LINE
  8
0
 10
80.8515
 20
-74.1903
 11
80.9635
 21
-74.2474
  0
LINE
  8
0
 10
80.9635
 20
-74.2474
 11
81.0716
 21
-74.3113
  0
LINE
  8
0
 10
81.0716
 20
-74.3113
 11
81.1756
 21
-74.382
  0
LINE
  8
0
 10
81.1756
 20
-74.382
 11
81.2748
 21
-74.459
  0
LINE
  8
0
 10
81.2748
 20
-74.459
 11
81.3691
 21
-74.5421
  0
LINE
  8
0
 10
81.3691
 20
-74.5421
 11
81.4579
 21
-74.6309
  0
LINE
  8
0
 10
81.4579
 20
-74.6309
 11
81.541
 21
-74.7251
  0
LINE
  8
0
 10
81.541
 20
-74.7251
 11
81.618
 21
-74.8244
  0
LINE
  8
0
 10
81.618
 20
-74.8244
 11
81.6886
 21
-74.9283
  0
LINE
  8
0
 10
81.6886
 20
-74.9283
 11
81.7526
 21
-75.0365
  0
LINE
  8
0
 10
81.7526
 20
-75.0365
 11
81.8096
 21
-75.1484
  0
LINE
  8
0
 10
81.8096
 20
-75.1484
 11
81.8595
 21
-75.2637
  0
LINE
  8
0
 10
81.8595
 20
-75.2637
 11
81.9021
 21
-75.382
  0
LINE
  8
0
 10
81.9021
 20
-75.382
 11
81.9372
 21
-75.5026
  0
LINE
  8
0
 10
81.9372
 20
-75.5026
 11
81.9646
 21
-75.6252
  0
LINE
  8
0
 10
81.9646
 20
-75.6252
 11
81.9842
 21
-75.7493
  0
LINE
  8
0
 10
81.9842
 20
-75.7493
 11
81.996
 21
-75.8744
  0
LINE
  8
0
 10
81.996
 20
-75.8744
 11
82
 21
-76
  0
LINE
  8
0
 10
82
 20
-76
 11
81.996
 21
-76.1256
  0
LINE
  8
0
 10
81.996
 20
-76.1256
 11
81.9842
 21
-76.2507
  0
LINE
  8
0
 10
81.9842
 20
-76.2507
 11
81.9646
 21
-76.3748
  0
LINE
  8
0
 10
81.9646
 20
-76.3748
 11
81.9372
 21
-76.4974
  0
LINE
  8
0
 10
81.9372
 20
-76.4974
 11
81.9021
 21
-76.618
  0
LINE
  8
0
 10
81.9021
 20
-76.618
 11
81.8595
 21
-76.7362
  0
LINE
  8
0
 10
81.8595
 20
-76.7362
 11
81.8096
 21
-76.8515
  0
LINE
  8
0
 10
81.8096
 20
-76.8515
 11
81.7526
 21
-76.9635
  0
LINE
  8
0
 10
81.7526
 20
-76.9635
 11
81.6886
 21
-77.0716
  0
LINE
  8
0
 10
81.6886
 20
-77.0716
 11
81.618
 21
-77.1756
  0
LINE
  8
0
 10
81.618
 20
-77.1756
 11
81.541
 21
-77.2748
  0
LINE
  8
0
 10
81.541
 20
-77.2748
 11
81.4579
 21
-77.3691
  0
LINE
  8
0
 10
81.4579
 20
-77.3691
 11
81.3691
 21
-77.4579
  0
LINE
  8
0
 10
81.3691
 20
-77.4579
 11
81.2748
 21
-77.541
  0
LINE
  8
0
 10
81.2748
 20
-77.541
 11
81.1756
 21
-77.618
  0
LINE
  8
0
 10
81.1756
 20
-77.618
 11
81.0716
 21
-77.6886
  0
LINE
  8
0
 10
81.0716
 20
-77.6886
 11
80.9635
 21
-77.7526
  0
LINE
  8
0
 10
80.9635
 20
-77.7526
 11
80.8515
 21
-77.8096
  0
LINE
  8
0
 10
80.8515
 20
-77.8096
 11
80.7362
 21
-77.8595
  0
LINE
  8
0
 10
80.7362
 20
-77.8595
 11
80.618
 21
-77.9021
  0
LINE
  8
0
 10
80.618
 20
-77.9021
 11
80.4974
 21
-77.9372
  0
LINE
  8
0
 10
80.4974
 20
-77.9372
 11
80.3748
 21
-77.9646
  0
LINE
  8
0
 10
80.3748
 20
-77.9646
 11
80.2507
 21
-77.9842
  0
LINE
  8
0
 10
80.2507
 20
-77.9842
 11
80.1256
 21
-77.996
  0
LINE
  8
0
 10
80.1256
 20
-77.996
 11
80
 21
-78
  0
LINE
  8
0
 10
80
 20
-78
 11
79.8744
 21
-77.996
  0
LINE
  8
0
 10
-80.1256
 20
-77.996
 11
-80.2507
 21
-77.9842
  0
LINE
  8
0
 10
-80.2507
 20
-77.9842
 11
-80.3748
 21
-77.9646
  0
LINE
  8
0
 10
-80.3748
 20
-77.9646
 11
-80.4974
 21
-77.9372
  0
LINE
  8
0
 10
-80.4974
 20
-77.9372
 11
-80.618
 21
-77.9021
  0
LINE
  8
0
 10
-80.618
 20
-77.9021
 11
-80.7362
 21
-77.8595
  0
LINE
  8
0
 10
-80.7362
 20
-77.8595
 11
-80.8515
 21
-77.8096
  0
LINE
  8
0
 10
-80.8515
 20
-77.8096
 11
-80.9635
 21
-77.7526
  0
LINE
  8
0
 10
-80.9635
 20
-77.7526
 11
-81.0716
 21
-77.6886
  0
LINE
  8
0
 10
-81.0716
 20
-77.6886
 11
-81.1756
 21
-77.618
  0
LINE
  8
0
 10
-81.1756
 20
-77.618
 11
-81.2748
 21
-77.541
  0
LINE
  8
0
 10
-81.2748
 20
-77.541
 11
-81.3691
 21
-77.4579
  0
LINE
  8
0
 10
-81.3691
 20
-77.4579
 11
-81.4579
 21
-77.3691
  0
LINE
  8
0
 10
-81.4579
 20
-77.3691
 11
-81.541
 21
-77.2748
  0
LINE
  8
0
 10
-81.541
 20
-77.2748
 11
-81.618
 21
-77.1756
  0
LINE
  8
0
 10
-81.618
 20
-77.1756
 11
-81.6886
 21
-77.0716
  0
LINE
  8
0
 10
-81.6886
 20
-77.0716
 11
-81.7526
 21
-76.9635
  0
LINE
  8
0
 10
-81.7526
 20
-76.9635
 11
-81.8096
 21
-76.8515
  0
LINE
  8
0
 10
-81.8096
 20
-76.8515
 11
-81.8595
 21
-76.7362
  0
LINE
  8
0
 10
-81.8595
 20
-76.7362
 11
-81.9021
 21
-76.618
  0
LINE
  8
0
 10
-81.9021
 20
-76.618
 11
-81.9372
 21
-76.4974
  0
LINE
  8
0
 10
-81.9372
 20
-76.4974
 11
-81.9646
 21
-76.3748
  0
LINE
  8
0
 10
-81.9646
 20
-76.3748
 11
-81.9842
 21
-76.2507
  0
LINE
  8
0
 10
-81.9842
 20
-76.2507
 11
-81.996
 21
-76.1256
  0
LINE
  8
0
 10
-81.996
 20
-76.1256
 11
-82
 21
-76
  0
LINE
  8
0
 10
-82
 20
-76
 11
-81.996
 21
-75.8744
  0
LINE
  8
0
 10
-81.996
 20
-75.8744
 11
-81.9842
 21
-75.7493
  0
LINE
  8
0
 10
-81.9842
 20
-75.7493
 11
-81.9646
 21
-75.6252
  0
LINE
  8
0
 10
-81.9646
 20
-75.6252
 11
-81.9372
 21
-75.5026
  0
LINE
  8
0
 10
-81.9372
 20
-75.5026
 11
-81.9021
 21
-75.382
  0
LINE
  8
0
 10
-81.9021
 20
-75.382
 11
-81.8595
 21
-75.2637
  0
LINE
  8
0
 10
-81.8595
 20
-75.2637
 11
-81.8096
 21
-75.1484
  0
LINE
  8
0
 10
-81.8096
 20
-75.1484
 11
-81.7526
 21
-75.0365
  0
LINE
  8
0
 10
-81.7526
 20
-75.0365
 11
-81.6886
 21
-74.9283
  0
LINE
  8
0
 10
-81.6886
 20
-74.9283
 11
-81.618
 21
-74.8244
  0
LINE
  8
0
 10
-81.618
 20
-74.8244
 11
-81.541
 21
-74.7251
  0
LINE
  8
0
 10
-81.541
 20
-74.7251
 11
-81.4579
 21
-74.6309
  0
LINE
  8
0
 10
-81.4579
 20
-74.6309
 11
-81.3691
 21
-74.5421
  0
LINE
  8
0
 10
-81.3691
 20
-74.5421
 11
-81.2748
 21
-74.459
  0
LINE
  8
0
 10
-81.2748
 20
-74.459
 11
-81.1756
 21
-74.382
  0
LINE
  8
0
 10
-81.1756
 20
-74.382
 11
-81.0716
 21
-74.3113
  0
LINE
  8
0
 10
-81.0716
 20
-74.3113
 11
-80.9635
 21
-74.2474
  0
LINE
  8
0
 10
-80.9635
 20
-74.2474
 11
-80.8515
 21
-74.1903
  0
LINE
  8
0
 10
-80.8515
 20
-74.1903
 11
-80.7362
 21
-74.1404
  0
LINE
  8
0
 10
-80.7362
 20
-74.1404
 11
-80.618
 21
-74.0979
  0
LINE
  8
0
 10
-80.618
 20
-74.0979
 11
-80.4974
 21
-74.0628
  0
LINE
  8
0
 10
-80.4974
 20
-74.0628
 11
-80.3748
 21
-74.0354
  0
LINE
  8
0
 10
-80.3748
 20
-74.0354
 11
-80.2507
 21
-74.0158
  0
LINE
  8
0
 10
-80.2507
 20
-74.0158
 11
-80.1256
 21
-74.0039
  0
LINE
  8
0
 10
-80.1256
 20
-74.0039
 11
-80
 21
-74
  0
LINE
  8
0
 10
-80
 20
-74
 11
-79.8744
 21
-74.0039
  0
LINE
  8
0
 10
-79.8744
 20
-74.0039
 11
-79.7493
 21
-74.0158
  0
LINE
  8
0
 10
-79.7493
 20
-74.0158
 11
-79.6252
 21
-74.0354
  0
LINE
  8
0
 10
-79.6252
 20
-74.0354
 11
-79.5026
 21
-74.0628
  0
LINE
  8
0
 10
-79.5026
 20
-74.0628
 11
-79.382
 21
-74.0979
  0
LINE
  8
0
 10
-79.382
 20
-74.0979
 11
-79.2637
 21
-74.1404
  0
LINE
  8
0
 10
-79.2637
 20
-74.1404
 11
-79.1484
 21
-74.1903
  0
LINE
  8
0
 10
-79.1484
 20
-74.1903
 11
-79.0365
 21
-74.2474
  0
LINE
  8
0
 10
-79.0365
 20
-74.2474
 11
-78.9283
 21
-74.3113
  0
LINE
  8
0
 10
-78.9283
 20
-74.3113
 11
-78.8244
 21
-74.382
  0
LINE
  8
0
 10
-78.8244
 20
-74.382
 11
-78.7251
 21
-74.459
  0
LINE
  8
0
 10
-78.7251
 20
-74.459
 11
-78.6309
 21
-74.5421
  0
LINE
  8
0
 10
-78.6309
 20
-74.5421
 11
-78.5421
 21
-74.6309
  0
LINE
  8
0
 10
-78.5421
 20
-74.6309
 11
-78.459
 21
-74.7251
  0
LINE
  8
0
 10
-78.459
 20
-74.7251
 11
-78.382
 21
-74.8244
  0
LINE
  8
0
 10
-78.382
 20
-74.8244
 11
-78.3113
 21
-74.9283
  0
LINE
  8
0
 10
-78.3113
 20
-74.9283
 11
-78.2474
 21
-75.0365
  0
LINE
  8
0
 10
-78.2474
 20
-75.0365
 11
-78.1903
 21
-75.1484
  0
LINE
  8
0
 10
-78.1903
 20
-75.1484
 11
-78.1404
 21
-75.2637
  0
LINE
  8
0
 10
-78.1404
 20
-75.2637
 11
-78.0979
 21
-75.382
  0
LINE
  8
0
 10
-78.0979
 20
-75.382
 11
-78.0628
 21
-75.5026
  0
LINE
  8
0
 10
-78.0628
 20
-75.5026
 11
-78.0354
 21
-75.6252
  0
LINE
  8
0
 10
-78.0354
 20
-75.6252
 11
-78.0158
 21
-75.7493
  0
LINE
  8
0
 10
-78.0158
 20
-75.7493
 11
-78.0039
 21
-75.8744
  0
LINE
  8
0
 10
-78.0039
 20
-75.8744
 11
-78
 21
-76
  0
LINE
  8
0
 10
-78
 20
-76
 11
-78.0039
 21
-76.1256
  0
LINE
  8
0
 10
-78.0039
 20
-76.1256
 11
-78.0158
 21
-76.2507
  0
LINE
  8
0
 10
-78.0158
 20
-76.2507
 11
-78.0354
 21
-76.3748
  0
LINE
  8
0
 10
-78.0354
 20
-76.3748
 11
-78.0628
 21
-76.4974
  0
LINE
  8
0
 10
-78.0628
 20
-76.4974
 11
-78.0979
 21
-76.618
  0
LINE
  8
0
 10
-78.0979
 20
-76.618
 11
-78.1404
 21
-76.7362
  0
LINE
  8
0
 10
-78.1404
 20
-76.7362
 11
-78.1903
 21
-76.8515
  0
LINE
  8
0
 10
-78.1903
 20
-76.8515
 11
-78.2474
 21
-76.9635
  0
LINE
  8
0
 10
-78.2474
 20
-76.9635
 11
-78.3113
 21
-77.0716
  0
LINE
  8
0
 10
-78.3113
 20
-77.0716
 11
-78.382
 21
-77.1756
  0
LINE
  8
0
 10
-78.382
 20
-77.1756
 11
-78.459
 21
-77.2748
  0
LINE
  8
0
 10
-78.459
 20
-77.2748
 11
-78.5421
 21
-77.3691
  0
LINE
  8
0
 10
-78.5421
 20
-77.3691
 11
-78.6309
 21
-77.4579
  0
LINE
  8
0
 10
-78.6309
 20
-77.4579
 11
-78.7251
 21
-77.541
  0
LINE
  8
0
 10
-78.7251
 20
-77.541
 11
-78.8244
 21
-77.618
  0
LINE
  8
0
 10
-78.8244
 20
-77.618
 11
-78.9283
 21
-77.6886
  0
LINE
  8
0
 10
-78.9283
 20
-77.6886
 11
-79.0365
 21
-77.7526
  0
LINE
  8
0
 10
-79.0365
 20
-77.7526
 11
-79.1484
 21
-77.8096
  0
LINE
  8
0
 10
-79.1484
 20
-77.8096
 11
-79.2637
 21
-77.8595
  0
LINE
  8
0
 10
-79.2637
 20
-77.8595
 11
-79.382
 21
-77.9021
  0
LINE
  8
0
 10
-79.382
 20
-77.9021
 11
-79.5026
 21
-77.9372
  0
LINE
  8
0
 10
-79.5026
 20
-77.9372
 11
-79.6252
 21
-77.9646
  0
LINE
  8
0
 10
-79.6252
 20
-77.9646
 11
-79.7493
 21
-77.9842
  0
LINE
  8
0
 10
-79.7493
 20
-77.9842
 11
-79.8744
 21
-77.996
  0
LINE
  8
0
 10
-79.8744
 20
-77.996
 11
-80
 21
-78
  0
LINE
  8
0
 10
-80
 20
-78
 11
-80.1256
 21
-77.996
  0
LINE
  8
0
 10
-40
 20
-82.25
 11
-40
 21
-77.75
  0
LINE
  8
0
 10
-40
 20
-77.75
 11
40
 21
-77.75
  0
LINE
  8
0
 10
40
 20
-77.75
 11
40
 21
-82.25
  0
LINE
  8
0
 10
40
 20
-82.25
 11
-40
 21
-82.25
  0
ENDSEC
  0
SECTION
  2
OBJECTS
  0
DICTIONARY
  0
ENDSEC
  0
EOF
