  0
SECTION
  2
BLOCKS
  0
ENDSEC
  0
SECTION
  2
ENTITIES
  0
LINE
  8
0
 10
37
 20
41
 11
-37
 21
41
  0
LINE
  8
0
 10
-37
 20
41
 11
-37
 21
-41
  0
LINE
  8
0
 10
-37
 20
-41
 11
37
 21
-41
  0
LINE
  8
0
 10
37
 20
-41
 11
37
 21
41
  0
LINE
  8
0
 10
30.0488
 20
27.5079
 11
29.7987
 21
27.5315
  0
LINE
  8
0
 10
29.7987
 20
27.5315
 11
29.5505
 21
27.5708
  0
LINE
  8
0
 10
29.5505
 20
27.5708
 11
29.3052
 21
27.6257
  0
LINE
  8
0
 10
29.3052
 20
27.6257
 11
29.0639
 21
27.6958
  0
LINE
  8
0
 10
29.0639
 20
27.6958
 11
28.8275
 21
27.7809
  0
LINE
  8
0
 10
28.8275
 20
27.7809
 11
28.5969
 21
27.8807
  0
LINE
  8
0
 10
28.5969
 20
27.8807
 11
28.373
 21
27.9948
  0
LINE
  8
0
 10
28.373
 20
27.9948
 11
28.1567
 21
28.1227
  0
LINE
  8
0
 10
28.1567
 20
28.1227
 11
27.9489
 21
28.2639
  0
LINE
  8
0
 10
27.9489
 20
28.2639
 11
27.7503
 21
28.4179
  0
LINE
  8
0
 10
27.7503
 20
28.4179
 11
27.5618
 21
28.5841
  0
LINE
  8
0
 10
27.5618
 20
28.5841
 11
27.3841
 21
28.7618
  0
LINE
  8
0
 10
27.3841
 20
28.7618
 11
27.2179
 21
28.9503
  0
LINE
  8
0
 10
27.2179
 20
28.9503
 11
27.0639
 21
29.1488
  0
LINE
  8
0
 10
27.0639
 20
29.1488
 11
26.9227
 21
29.3567
  0
LINE
  8
0
 10
26.9227
 20
29.3567
 11
26.7948
 21
29.573
  0
LINE
  8
0
 10
26.7948
 20
29.573
 11
26.6807
 21
29.7969
  0
LINE
  8
0
 10
26.6807
 20
29.7969
 11
26.5809
 21
30.0275
  0
LINE
  8
0
 10
26.5809
 20
30.0275
 11
26.4958
 21
30.2639
  0
LINE
  8
0
 10
26.4958
 20
30.2639
 11
26.4257
 21
30.5052
  0
LINE
  8
0
 10
26.4257
 20
30.5052
 11
26.3708
 21
30.7505
  0
LINE
  8
0
 10
26.3708
 20
30.7505
 11
26.3315
 21
30.9987
  0
LINE
  8
0
 10
26.3315
 20
30.9987
 11
26.3079
 21
31.2488
  0
LINE
  8
0
 10
26.3079
 20
31.2488
 11
26.3
 21
31.5
  0
LINE
  8
0
 10
26.3
 20
31.5
 11
26.3079
 21
31.7512
  0
LINE
  8
0
 10
26.3079
 20
31.7512
 11
26.3315
 21
32.0013
  0
LINE
  8
0
 10
26.3315
 20
32.0013
 11
26.3708
 21
32.2495
  0
LINE
  8
0
 10
26.3708
 20
32.2495
 11
26.4257
 21
32.4948
  0
LINE
  8
0
 10
26.4257
 20
32.4948
 11
26.4958
 21
32.7361
  0
LINE
  8
0
 10
26.4958
 20
32.7361
 11
26.5809
 21
32.9725
  0
LINE
  8
0
 10
26.5809
 20
32.9725
 11
26.6807
 21
33.2031
  0
LINE
  8
0
 10
26.6807
 20
33.2031
 11
26.7948
 21
33.427
  0
LINE
  8
0
 10
26.7948
 20
33.427
 11
26.9227
 21
33.6433
  0
LINE
  8
0
 10
26.9227
 20
33.6433
 11
27.0639
 21
33.8511
  0
LINE
  8
0
 10
27.0639
 20
33.8511
 11
27.2179
 21
34.0497
  0
LINE
  8
0
 10
27.2179
 20
34.0497
 11
27.3841
 21
34.2382
  0
LINE
  8
0
 10
27.3841
 20
34.2382
 11
27.5618
 21
34.4159
  0
LINE
  8
0
 10
27.5618
 20
34.4159
 11
27.7503
 21
34.582
  0
LINE
  8
0
 10
27.7503
 20
34.582
 11
27.9489
 21
34.7361
  0
LINE
  8
0
 10
27.9489
 20
34.7361
 11
28.1567
 21
34.8773
  0
LINE
  8
0
 10
28.1567
 20
34.8773
 11
28.373
 21
35.0052
  0
LINE
  8
0
 10
28.373
 20
35.0052
 11
28.5969
 21
35.1193
  0
LINE
  8
0
 10
28.5969
 20
35.1193
 11
28.8275
 21
35.2191
  0
LINE
  8
0
 10
28.8275
 20
35.2191
 11
29.0639
 21
35.3042
  0
LINE
  8
0
 10
29.0639
 20
35.3042
 11
29.3052
 21
35.3743
  0
LINE
  8
0
 10
29.3052
 20
35.3743
 11
29.5505
 21
35.4291
  0
LINE
  8
0
 10
29.5505
 20
35.4291
 11
29.7987
 21
35.4684
  0
LINE
  8
0
 10
29.7987
 20
35.4684
 11
30.0488
 21
35.4921
  0
LINE
  8
0
 10
30.0488
 20
35.4921
 11
30.3
 21
35.5
  0
LINE
  8
0
 10
30.3
 20
35.5
 11
30.5511
 21
35.4921
  0
LINE
  8
0
 10
30.5511
 20
35.4921
 11
30.8013
 21
35.4684
  0
LINE
  8
0
 10
30.8013
 20
35.4684
 11
31.0495
 21
35.4291
  0
LINE
  8
0
 10
31.0495
 20
35.4291
 11
31.2948
 21
35.3743
  0
LINE
  8
0
 10
31.2948
 20
35.3743
 11
31.5361
 21
35.3042
  0
LINE
  8
0
 10
31.5361
 20
35.3042
 11
31.7725
 21
35.2191
  0
LINE
  8
0
 10
31.7725
 20
35.2191
 11
32.0031
 21
35.1193
  0
LINE
  8
0
 10
32.0031
 20
35.1193
 11
32.227
 21
35.0052
  0
LINE
  8
0
 10
32.227
 20
35.0052
 11
32.4433
 21
34.8773
  0
LINE
  8
0
 10
32.4433
 20
34.8773
 11
32.6511
 21
34.7361
  0
LINE
  8
0
 10
32.6511
 20
34.7361
 11
32.8497
 21
34.582
  0
LINE
  8
0
 10
32.8497
 20
34.582
 11
33.0382
 21
34.4159
  0
LINE
  8
0
 10
33.0382
 20
34.4159
 11
33.2159
 21
34.2382
  0
LINE
  8
0
 10
33.2159
 20
34.2382
 11
33.382
 21
34.0497
  0
LINE
  8
0
 10
33.382
 20
34.0497
 11
33.5361
 21
33.8511
  0
LINE
  8
0
 10
33.5361
 20
33.8511
 11
33.6773
 21
33.6433
  0
LINE
  8
0
 10
33.6773
 20
33.6433
 11
33.8052
 21
33.427
  0
LINE
  8
0
 10
33.8052
 20
33.427
 11
33.9193
 21
33.2031
  0
LINE
  8
0
 10
33.9193
 20
33.2031
 11
34.0191
 21
32.9725
  0
LINE
  8
0
 10
34.0191
 20
32.9725
 11
34.1042
 21
32.7361
  0
LINE
  8
0
 10
34.1042
 20
32.7361
 11
34.1743
 21
32.4948
  0
LINE
  8
0
 10
34.1743
 20
32.4948
 11
34.2291
 21
32.2495
  0
LINE
  8
0
 10
34.2291
 20
32.2495
 11
34.2684
 21
32.0013
  0
LINE
  8
0
 10
34.2684
 20
32.0013
 11
34.2921
 21
31.7512
  0
LINE
  8
0
 10
34.2921
 20
31.7512
 11
34.3
 21
31.5
  0
LINE
  8
0
 10
34.3
 20
31.5
 11
34.2921
 21
31.2488
  0
LINE
  8
0
 10
34.2921
 20
31.2488
 11
34.2684
 21
30.9987
  0
LINE
  8
0
 10
34.2684
 20
30.9987
 11
34.2291
 21
30.7505
  0
LINE
  8
0
 10
34.2291
 20
30.7505
 11
34.1743
 21
30.5052
  0
LINE
  8
0
 10
34.1743
 20
30.5052
 11
34.1042
 21
30.2639
  0
LINE
  8
0
 10
34.1042
 20
30.2639
 11
34.0191
 21
30.0275
  0
LINE
  8
0
 10
34.0191
 20
30.0275
 11
33.9193
 21
29.7969
  0
LINE
  8
0
 10
33.9193
 20
29.7969
 11
33.8052
 21
29.573
  0
LINE
  8
0
 10
33.8052
 20
29.573
 11
33.6773
 21
29.3567
  0
LINE
  8
0
 10
33.6773
 20
29.3567
 11
33.5361
 21
29.1488
  0
LINE
  8
0
 10
33.5361
 20
29.1488
 11
33.382
 21
28.9503
  0
LINE
  8
0
 10
33.382
 20
28.9503
 11
33.2159
 21
28.7618
  0
LINE
  8
0
 10
33.2159
 20
28.7618
 11
33.0382
 21
28.5841
  0
LINE
  8
0
 10
33.0382
 20
28.5841
 11
32.8497
 21
28.4179
  0
LINE
  8
0
 10
32.8497
 20
28.4179
 11
32.6511
 21
28.2639
  0
LINE
  8
0
 10
32.6511
 20
28.2639
 11
32.4433
 21
28.1227
  0
LINE
  8
0
 10
32.4433
 20
28.1227
 11
32.227
 21
27.9948
  0
LINE
  8
0
 10
32.227
 20
27.9948
 11
32.0031
 21
27.8807
  0
LINE
  8
0
 10
32.0031
 20
27.8807
 11
31.7725
 21
27.7809
  0
LINE
  8
0
 10
31.7725
 20
27.7809
 11
31.5361
 21
27.6958
  0
LINE
  8
0
 10
31.5361
 20
27.6958
 11
31.2948
 21
27.6257
  0
LINE
  8
0
 10
31.2948
 20
27.6257
 11
31.0495
 21
27.5708
  0
LINE
  8
0
 10
31.0495
 20
27.5708
 11
30.8013
 21
27.5315
  0
LINE
  8
0
 10
30.8013
 20
27.5315
 11
30.5511
 21
27.5079
  0
LINE
  8
0
 10
30.5511
 20
27.5079
 11
30.3
 21
27.5
  0
LINE
  8
0
 10
30.3
 20
27.5
 11
30.0488
 21
27.5079
  0
LINE
  8
0
 10
-30.5511
 20
27.5079
 11
-30.8013
 21
27.5315
  0
LINE
  8
0
 10
-30.8013
 20
27.5315
 11
-31.0495
 21
27.5708
  0
LINE
  8
0
 10
-31.0495
 20
27.5708
 11
-31.2948
 21
27.6257
  0
LINE
  8
0
 10
-31.2948
 20
27.6257
 11
-31.5361
 21
27.6958
  0
LINE
  8
0
 10
-31.5361
 20
27.6958
 11
-31.7725
 21
27.7809
  0
LINE
  8
0
 10
-31.7725
 20
27.7809
 11
-32.0031
 21
27.8807
  0
LINE
  8
0
 10
-32.0031
 20
27.8807
 11
-32.227
 21
27.9948
  0
LINE
  8
0
 10
-32.227
 20
27.9948
 11
-32.4433
 21
28.1227
  0
LINE
  8
0
 10
-32.4433
 20
28.1227
 11
-32.6511
 21
28.2639
  0
LINE
  8
0
 10
-32.6511
 20
28.2639
 11
-32.8497
 21
28.4179
  0
LINE
  8
0
 10
-32.8497
 20
28.4179
 11
-33.0382
 21
28.5841
  0
LINE
  8
0
 10
-33.0382
 20
28.5841
 11
-33.2159
 21
28.7618
  0
LINE
  8
0
 10
-33.2159
 20
28.7618
 11
-33.382
 21
28.9503
  0
LINE
  8
0
 10
-33.382
 20
28.9503
 11
-33.5361
 21
29.1488
  0
LINE
  8
0
 10
-33.5361
 20
29.1488
 11
-33.6773
 21
29.3567
  0
LINE
  8
0
 10
-33.6773
 20
29.3567
 11
-33.8052
 21
29.573
  0
LINE
  8
0
 10
-33.8052
 20
29.573
 11
-33.9193
 21
29.7969
  0
LINE
  8
0
 10
-33.9193
 20
29.7969
 11
-34.0191
 21
30.0275
  0
LINE
  8
0
 10
-34.0191
 20
30.0275
 11
-34.1042
 21
30.2639
  0
LINE
  8
0
 10
-34.1042
 20
30.2639
 11
-34.1743
 21
30.5052
  0
LINE
  8
0
 10
-34.1743
 20
30.5052
 11
-34.2291
 21
30.7505
  0
LINE
  8
0
 10
-34.2291
 20
30.7505
 11
-34.2684
 21
30.9987
  0
LINE
  8
0
 10
-34.2684
 20
30.9987
 11
-34.2921
 21
31.2488
  0
LINE
  8
0
 10
-34.2921
 20
31.2488
 11
-34.3
 21
31.5
  0
LINE
  8
0
 10
-34.3
 20
31.5
 11
-34.2921
 21
31.7512
  0
LINE
  8
0
 10
-34.2921
 20
31.7512
 11
-34.2684
 21
32.0013
  0
LINE
  8
0
 10
-34.2684
 20
32.0013
 11
-34.2291
 21
32.2495
  0
LINE
  8
0
 10
-34.2291
 20
32.2495
 11
-34.1743
 21
32.4948
  0
LINE
  8
0
 10
-34.1743
 20
32.4948
 11
-34.1042
 21
32.7361
  0
LINE
  8
0
 10
-34.1042
 20
32.7361
 11
-34.0191
 21
32.9725
  0
LINE
  8
0
 10
-34.0191
 20
32.9725
 11
-33.9193
 21
33.2031
  0
LINE
  8
0
 10
-33.9193
 20
33.2031
 11
-33.8052
 21
33.427
  0
LINE
  8
0
 10
-33.8052
 20
33.427
 11
-33.6773
 21
33.6433
  0
LINE
  8
0
 10
-33.6773
 20
33.6433
 11
-33.5361
 21
33.8511
  0
LINE
  8
0
 10
-33.5361
 20
33.8511
 11
-33.382
 21
34.0497
  0
LINE
  8
0
 10
-33.382
 20
34.0497
 11
-33.2159
 21
34.2382
  0
LINE
  8
0
 10
-33.2159
 20
34.2382
 11
-33.0382
 21
34.4159
  0
LINE
  8
0
 10
-33.0382
 20
34.4159
 11
-32.8497
 21
34.582
  0
LINE
  8
0
 10
-32.8497
 20
34.582
 11
-32.6511
 21
34.7361
  0
LINE
  8
0
 10
-32.6511
 20
34.7361
 11
-32.4433
 21
34.8773
  0
LINE
  8
0
 10
-32.4433
 20
34.8773
 11
-32.227
 21
35.0052
  0
LINE
  8
0
 10
-32.227
 20
35.0052
 11
-32.0031
 21
35.1193
  0
LINE
  8
0
 10
-32.0031
 20
35.1193
 11
-31.7725
 21
35.2191
  0
LINE
  8
0
 10
-31.7725
 20
35.2191
 11
-31.5361
 21
35.3042
  0
LINE
  8
0
 10
-31.5361
 20
35.3042
 11
-31.2948
 21
35.3743
  0
LINE
  8
0
 10
-31.2948
 20
35.3743
 11
-31.0495
 21
35.4291
  0
LINE
  8
0
 10
-31.0495
 20
35.4291
 11
-30.8013
 21
35.4684
  0
LINE
  8
0
 10
-30.8013
 20
35.4684
 11
-30.5511
 21
35.4921
  0
LINE
  8
0
 10
-30.5511
 20
35.4921
 11
-30.3
 21
35.5
  0
LINE
  8
0
 10
-30.3
 20
35.5
 11
-30.0488
 21
35.4921
  0
LINE
  8
0
 10
-30.0488
 20
35.4921
 11
-29.7987
 21
35.4684
  0
LINE
  8
0
 10
-29.7987
 20
35.4684
 11
-29.5505
 21
35.4291
  0
LINE
  8
0
 10
-29.5505
 20
35.4291
 11
-29.3052
 21
35.3743
  0
LINE
  8
0
 10
-29.3052
 20
35.3743
 11
-29.0639
 21
35.3042
  0
LINE
  8
0
 10
-29.0639
 20
35.3042
 11
-28.8275
 21
35.2191
  0
LINE
  8
0
 10
-28.8275
 20
35.2191
 11
-28.5969
 21
35.1193
  0
LINE
  8
0
 10
-28.5969
 20
35.1193
 11
-28.373
 21
35.0052
  0
LINE
  8
0
 10
-28.373
 20
35.0052
 11
-28.1567
 21
34.8773
  0
LINE
  8
0
 10
-28.1567
 20
34.8773
 11
-27.9489
 21
34.7361
  0
LINE
  8
0
 10
-27.9489
 20
34.7361
 11
-27.7503
 21
34.582
  0
LINE
  8
0
 10
-27.7503
 20
34.582
 11
-27.5618
 21
34.4159
  0
LINE
  8
0
 10
-27.5618
 20
34.4159
 11
-27.3841
 21
34.2382
  0
LINE
  8
0
 10
-27.3841
 20
34.2382
 11
-27.2179
 21
34.0497
  0
LINE
  8
0
 10
-27.2179
 20
34.0497
 11
-27.0639
 21
33.8511
  0
LINE
  8
0
 10
-27.0639
 20
33.8511
 11
-26.9227
 21
33.6433
  0
LINE
  8
0
 10
-26.9227
 20
33.6433
 11
-26.7948
 21
33.427
  0
LINE
  8
0
 10
-26.7948
 20
33.427
 11
-26.6807
 21
33.2031
  0
LINE
  8
0
 10
-26.6807
 20
33.2031
 11
-26.5809
 21
32.9725
  0
LINE
  8
0
 10
-26.5809
 20
32.9725
 11
-26.4958
 21
32.7361
  0
LINE
  8
0
 10
-26.4958
 20
32.7361
 11
-26.4257
 21
32.4948
  0
LINE
  8
0
 10
-26.4257
 20
32.4948
 11
-26.3708
 21
32.2495
  0
LINE
  8
0
 10
-26.3708
 20
32.2495
 11
-26.3315
 21
32.0013
  0
LINE
  8
0
 10
-26.3315
 20
32.0013
 11
-26.3079
 21
31.7512
  0
LINE
  8
0
 10
-26.3079
 20
31.7512
 11
-26.3
 21
31.5
  0
LINE
  8
0
 10
-26.3
 20
31.5
 11
-26.3079
 21
31.2488
  0
LINE
  8
0
 10
-26.3079
 20
31.2488
 11
-26.3315
 21
30.9987
  0
LINE
  8
0
 10
-26.3315
 20
30.9987
 11
-26.3708
 21
30.7505
  0
LINE
  8
0
 10
-26.3708
 20
30.7505
 11
-26.4257
 21
30.5052
  0
LINE
  8
0
 10
-26.4257
 20
30.5052
 11
-26.4958
 21
30.2639
  0
LINE
  8
0
 10
-26.4958
 20
30.2639
 11
-26.5809
 21
30.0275
  0
LINE
  8
0
 10
-26.5809
 20
30.0275
 11
-26.6807
 21
29.7969
  0
LINE
  8
0
 10
-26.6807
 20
29.7969
 11
-26.7948
 21
29.573
  0
LINE
  8
0
 10
-26.7948
 20
29.573
 11
-26.9227
 21
29.3567
  0
LINE
  8
0
 10
-26.9227
 20
29.3567
 11
-27.0639
 21
29.1488
  0
LINE
  8
0
 10
-27.0639
 20
29.1488
 11
-27.2179
 21
28.9503
  0
LINE
  8
0
 10
-27.2179
 20
28.9503
 11
-27.3841
 21
28.7618
  0
LINE
  8
0
 10
-27.3841
 20
28.7618
 11
-27.5618
 21
28.5841
  0
LINE
  8
0
 10
-27.5618
 20
28.5841
 11
-27.7503
 21
28.4179
  0
LINE
  8
0
 10
-27.7503
 20
28.4179
 11
-27.9489
 21
28.2639
  0
LINE
  8
0
 10
-27.9489
 20
28.2639
 11
-28.1567
 21
28.1227
  0
LINE
  8
0
 10
-28.1567
 20
28.1227
 11
-28.373
 21
27.9948
  0
LINE
  8
0
 10
-28.373
 20
27.9948
 11
-28.5969
 21
27.8807
  0
LINE
  8
0
 10
-28.5969
 20
27.8807
 11
-28.8275
 21
27.7809
  0
LINE
  8
0
 10
-28.8275
 20
27.7809
 11
-29.0639
 21
27.6958
  0
LINE
  8
0
 10
-29.0639
 20
27.6958
 11
-29.3052
 21
27.6257
  0
LINE
  8
0
 10
-29.3052
 20
27.6257
 11
-29.5505
 21
27.5708
  0
LINE
  8
0
 10
-29.5505
 20
27.5708
 11
-29.7987
 21
27.5315
  0
LINE
  8
0
 10
-29.7987
 20
27.5315
 11
-30.0488
 21
27.5079
  0
LINE
  8
0
 10
-30.0488
 20
27.5079
 11
-30.3
 21
27.5
  0
LINE
  8
0
 10
-30.3
 20
27.5
 11
-30.5511
 21
27.5079
  0
LINE
  8
0
 10
-30.5511
 20
-35.4921
 11
-30.8013
 21
-35.4684
  0
LINE
  8
0
 10
-30.8013
 20
-35.4684
 11
-31.0495
 21
-35.4291
  0
LINE
  8
0
 10
-31.0495
 20
-35.4291
 11
-31.2948
 21
-35.3743
  0
LINE
  8
0
 10
-31.2948
 20
-35.3743
 11
-31.5361
 21
-35.3042
  0
LINE
  8
0
 10
-31.5361
 20
-35.3042
 11
-31.7725
 21
-35.2191
  0
LINE
  8
0
 10
-31.7725
 20
-35.2191
 11
-32.0031
 21
-35.1193
  0
LINE
  8
0
 10
-32.0031
 20
-35.1193
 11
-32.227
 21
-35.0052
  0
LINE
  8
0
 10
-32.227
 20
-35.0052
 11
-32.4433
 21
-34.8773
  0
LINE
  8
0
 10
-32.4433
 20
-34.8773
 11
-32.6511
 21
-34.7361
  0
LINE
  8
0
 10
-32.6511
 20
-34.7361
 11
-32.8497
 21
-34.582
  0
LINE
  8
0
 10
-32.8497
 20
-34.582
 11
-33.0382
 21
-34.4159
  0
LINE
  8
0
 10
-33.0382
 20
-34.4159
 11
-33.2159
 21
-34.2382
  0
LINE
  8
0
 10
-33.2159
 20
-34.2382
 11
-33.382
 21
-34.0497
  0
LINE
  8
0
 10
-33.382
 20
-34.0497
 11
-33.5361
 21
-33.8511
  0
LINE
  8
0
 10
-33.5361
 20
-33.8511
 11
-33.6773
 21
-33.6433
  0
LINE
  8
0
 10
-33.6773
 20
-33.6433
 11
-33.8052
 21
-33.427
  0
LINE
  8
0
 10
-33.8052
 20
-33.427
 11
-33.9193
 21
-33.2031
  0
LINE
  8
0
 10
-33.9193
 20
-33.2031
 11
-34.0191
 21
-32.9725
  0
LINE
  8
0
 10
-34.0191
 20
-32.9725
 11
-34.1042
 21
-32.7361
  0
LINE
  8
0
 10
-34.1042
 20
-32.7361
 11
-34.1743
 21
-32.4948
  0
LINE
  8
0
 10
-34.1743
 20
-32.4948
 11
-34.2291
 21
-32.2495
  0
LINE
  8
0
 10
-34.2291
 20
-32.2495
 11
-34.2684
 21
-32.0013
  0
LINE
  8
0
 10
-34.2684
 20
-32.0013
 11
-34.2921
 21
-31.7512
  0
LINE
  8
0
 10
-34.2921
 20
-31.7512
 11
-34.3
 21
-31.5
  0
LINE
  8
0
 10
-34.3
 20
-31.5
 11
-34.2921
 21
-31.2488
  0
LINE
  8
0
 10
-34.2921
 20
-31.2488
 11
-34.2684
 21
-30.9987
  0
LINE
  8
0
 10
-34.2684
 20
-30.9987
 11
-34.2291
 21
-30.7505
  0
LINE
  8
0
 10
-34.2291
 20
-30.7505
 11
-34.1743
 21
-30.5052
  0
LINE
  8
0
 10
-34.1743
 20
-30.5052
 11
-34.1042
 21
-30.2639
  0
LINE
  8
0
 10
-34.1042
 20
-30.2639
 11
-34.0191
 21
-30.0275
  0
LINE
  8
0
 10
-34.0191
 20
-30.0275
 11
-33.9193
 21
-29.7969
  0
LINE
  8
0
 10
-33.9193
 20
-29.7969
 11
-33.8052
 21
-29.573
  0
LINE
  8
0
 10
-33.8052
 20
-29.573
 11
-33.6773
 21
-29.3567
  0
LINE
  8
0
 10
-33.6773
 20
-29.3567
 11
-33.5361
 21
-29.1488
  0
LINE
  8
0
 10
-33.5361
 20
-29.1488
 11
-33.382
 21
-28.9503
  0
LINE
  8
0
 10
-33.382
 20
-28.9503
 11
-33.2159
 21
-28.7618
  0
LINE
  8
0
 10
-33.2159
 20
-28.7618
 11
-33.0382
 21
-28.5841
  0
LINE
  8
0
 10
-33.0382
 20
-28.5841
 11
-32.8497
 21
-28.4179
  0
LINE
  8
0
 10
-32.8497
 20
-28.4179
 11
-32.6511
 21
-28.2639
  0
LINE
  8
0
 10
-32.6511
 20
-28.2639
 11
-32.4433
 21
-28.1227
  0
LINE
  8
0
 10
-32.4433
 20
-28.1227
 11
-32.227
 21
-27.9948
  0
LINE
  8
0
 10
-32.227
 20
-27.9948
 11
-32.0031
 21
-27.8807
  0
LINE
  8
0
 10
-32.0031
 20
-27.8807
 11
-31.7725
 21
-27.7809
  0
LINE
  8
0
 10
-31.7725
 20
-27.7809
 11
-31.5361
 21
-27.6958
  0
LINE
  8
0
 10
-31.5361
 20
-27.6958
 11
-31.2948
 21
-27.6257
  0
LINE
  8
0
 10
-31.2948
 20
-27.6257
 11
-31.0495
 21
-27.5708
  0
LINE
  8
0
 10
-31.0495
 20
-27.5708
 11
-30.8013
 21
-27.5315
  0
LINE
  8
0
 10
-30.8013
 20
-27.5315
 11
-30.5511
 21
-27.5079
  0
LINE
  8
0
 10
-30.5511
 20
-27.5079
 11
-30.3
 21
-27.5
  0
LINE
  8
0
 10
-30.3
 20
-27.5
 11
-30.0488
 21
-27.5079
  0
LINE
  8
0
 10
-30.0488
 20
-27.5079
 11
-29.7987
 21
-27.5315
  0
LINE
  8
0
 10
-29.7987
 20
-27.5315
 11
-29.5505
 21
-27.5708
  0
LINE
  8
0
 10
-29.5505
 20
-27.5708
 11
-29.3052
 21
-27.6257
  0
LINE
  8
0
 10
-29.3052
 20
-27.6257
 11
-29.0639
 21
-27.6958
  0
LINE
  8
0
 10
-29.0639
 20
-27.6958
 11
-28.8275
 21
-27.7809
  0
LINE
  8
0
 10
-28.8275
 20
-27.7809
 11
-28.5969
 21
-27.8807
  0
LINE
  8
0
 10
-28.5969
 20
-27.8807
 11
-28.373
 21
-27.9948
  0
LINE
  8
0
 10
-28.373
 20
-27.9948
 11
-28.1567
 21
-28.1227
  0
LINE
  8
0
 10
-28.1567
 20
-28.1227
 11
-27.9489
 21
-28.2639
  0
LINE
  8
0
 10
-27.9489
 20
-28.2639
 11
-27.7503
 21
-28.4179
  0
LINE
  8
0
 10
-27.7503
 20
-28.4179
 11
-27.5618
 21
-28.5841
  0
LINE
  8
0
 10
-27.5618
 20
-28.5841
 11
-27.3841
 21
-28.7618
  0
LINE
  8
0
 10
-27.3841
 20
-28.7618
 11
-27.2179
 21
-28.9503
  0
LINE
  8
0
 10
-27.2179
 20
-28.9503
 11
-27.0639
 21
-29.1488
  0
LINE
  8
0
 10
-27.0639
 20
-29.1488
 11
-26.9227
 21
-29.3567
  0
LINE
  8
0
 10
-26.9227
 20
-29.3567
 11
-26.7948
 21
-29.573
  0
LINE
  8
0
 10
-26.7948
 20
-29.573
 11
-26.6807
 21
-29.7969
  0
LINE
  8
0
 10
-26.6807
 20
-29.7969
 11
-26.5809
 21
-30.0275
  0
LINE
  8
0
 10
-26.5809
 20
-30.0275
 11
-26.4958
 21
-30.2639
  0
LINE
  8
0
 10
-26.4958
 20
-30.2639
 11
-26.4257
 21
-30.5052
  0
LINE
  8
0
 10
-26.4257
 20
-30.5052
 11
-26.3708
 21
-30.7505
  0
LINE
  8
0
 10
-26.3708
 20
-30.7505
 11
-26.3315
 21
-30.9987
  0
LINE
  8
0
 10
-26.3315
 20
-30.9987
 11
-26.3079
 21
-31.2488
  0
LINE
  8
0
 10
-26.3079
 20
-31.2488
 11
-26.3
 21
-31.5
  0
LINE
  8
0
 10
-26.3
 20
-31.5
 11
-26.3079
 21
-31.7512
  0
LINE
  8
0
 10
-26.3079
 20
-31.7512
 11
-26.3315
 21
-32.0013
  0
LINE
  8
0
 10
-26.3315
 20
-32.0013
 11
-26.3708
 21
-32.2495
  0
LINE
  8
0
 10
-26.3708
 20
-32.2495
 11
-26.4257
 21
-32.4948
  0
LINE
  8
0
 10
-26.4257
 20
-32.4948
 11
-26.4958
 21
-32.7361
  0
LINE
  8
0
 10
-26.4958
 20
-32.7361
 11
-26.5809
 21
-32.9725
  0
LINE
  8
0
 10
-26.5809
 20
-32.9725
 11
-26.6807
 21
-33.2031
  0
LINE
  8
0
 10
-26.6807
 20
-33.2031
 11
-26.7948
 21
-33.427
  0
LINE
  8
0
 10
-26.7948
 20
-33.427
 11
-26.9227
 21
-33.6433
  0
LINE
  8
0
 10
-26.9227
 20
-33.6433
 11
-27.0639
 21
-33.8511
  0
LINE
  8
0
 10
-27.0639
 20
-33.8511
 11
-27.2179
 21
-34.0497
  0
LINE
  8
0
 10
-27.2179
 20
-34.0497
 11
-27.3841
 21
-34.2382
  0
LINE
  8
0
 10
-27.3841
 20
-34.2382
 11
-27.5618
 21
-34.4159
  0
LINE
  8
0
 10
-27.5618
 20
-34.4159
 11
-27.7503
 21
-34.582
  0
LINE
  8
0
 10
-27.7503
 20
-34.582
 11
-27.9489
 21
-34.7361
  0
LINE
  8
0
 10
-27.9489
 20
-34.7361
 11
-28.1567
 21
-34.8773
  0
LINE
  8
0
 10
-28.1567
 20
-34.8773
 11
-28.373
 21
-35.0052
  0
LINE
  8
0
 10
-28.373
 20
-35.0052
 11
-28.5969
 21
-35.1193
  0
LINE
  8
0
 10
-28.5969
 20
-35.1193
 11
-28.8275
 21
-35.2191
  0
LINE
  8
0
 10
-28.8275
 20
-35.2191
 11
-29.0639
 21
-35.3042
  0
LINE
  8
0
 10
-29.0639
 20
-35.3042
 11
-29.3052
 21
-35.3743
  0
LINE
  8
0
 10
-29.3052
 20
-35.3743
 11
-29.5505
 21
-35.4291
  0
LINE
  8
0
 10
-29.5505
 20
-35.4291
 11
-29.7987
 21
-35.4684
  0
LINE
  8
0
 10
-29.7987
 20
-35.4684
 11
-30.0488
 21
-35.4921
  0
LINE
  8
0
 10
-30.0488
 20
-35.4921
 11
-30.3
 21
-35.5
  0
LINE
  8
0
 10
-30.3
 20
-35.5
 11
-30.5511
 21
-35.4921
  0
LINE
  8
0
 10
30.0488
 20
-35.4921
 11
29.7987
 21
-35.4684
  0
LINE
  8
0
 10
29.7987
 20
-35.4684
 11
29.5505
 21
-35.4291
  0
LINE
  8
0
 10
29.5505
 20
-35.4291
 11
29.3052
 21
-35.3743
  0
LINE
  8
0
 10
29.3052
 20
-35.3743
 11
29.0639
 21
-35.3042
  0
LINE
  8
0
 10
29.0639
 20
-35.3042
 11
28.8275
 21
-35.2191
  0
LINE
  8
0
 10
28.8275
 20
-35.2191
 11
28.5969
 21
-35.1193
  0
LINE
  8
0
 10
28.5969
 20
-35.1193
 11
28.373
 21
-35.0052
  0
LINE
  8
0
 10
28.373
 20
-35.0052
 11
28.1567
 21
-34.8773
  0
LINE
  8
0
 10
28.1567
 20
-34.8773
 11
27.9489
 21
-34.7361
  0
LINE
  8
0
 10
27.9489
 20
-34.7361
 11
27.7503
 21
-34.582
  0
LINE
  8
0
 10
27.7503
 20
-34.582
 11
27.5618
 21
-34.4159
  0
LINE
  8
0
 10
27.5618
 20
-34.4159
 11
27.3841
 21
-34.2382
  0
LINE
  8
0
 10
27.3841
 20
-34.2382
 11
27.2179
 21
-34.0497
  0
LINE
  8
0
 10
27.2179
 20
-34.0497
 11
27.0639
 21
-33.8511
  0
LINE
  8
0
 10
27.0639
 20
-33.8511
 11
26.9227
 21
-33.6433
  0
LINE
  8
0
 10
26.9227
 20
-33.6433
 11
26.7948
 21
-33.427
  0
LINE
  8
0
 10
26.7948
 20
-33.427
 11
26.6807
 21
-33.2031
  0
LINE
  8
0
 10
26.6807
 20
-33.2031
 11
26.5809
 21
-32.9725
  0
LINE
  8
0
 10
26.5809
 20
-32.9725
 11
26.4958
 21
-32.7361
  0
LINE
  8
0
 10
26.4958
 20
-32.7361
 11
26.4257
 21
-32.4948
  0
LINE
  8
0
 10
26.4257
 20
-32.4948
 11
26.3708
 21
-32.2495
  0
LINE
  8
0
 10
26.3708
 20
-32.2495
 11
26.3315
 21
-32.0013
  0
LINE
  8
0
 10
26.3315
 20
-32.0013
 11
26.3079
 21
-31.7512
  0
LINE
  8
0
 10
26.3079
 20
-31.7512
 11
26.3
 21
-31.5
  0
LINE
  8
0
 10
26.3
 20
-31.5
 11
26.3079
 21
-31.2488
  0
LINE
  8
0
 10
26.3079
 20
-31.2488
 11
26.3315
 21
-30.9987
  0
LINE
  8
0
 10
26.3315
 20
-30.9987
 11
26.3708
 21
-30.7505
  0
LINE
  8
0
 10
26.3708
 20
-30.7505
 11
26.4257
 21
-30.5052
  0
LINE
  8
0
 10
26.4257
 20
-30.5052
 11
26.4958
 21
-30.2639
  0
LINE
  8
0
 10
26.4958
 20
-30.2639
 11
26.5809
 21
-30.0275
  0
LINE
  8
0
 10
26.5809
 20
-30.0275
 11
26.6807
 21
-29.7969
  0
LINE
  8
0
 10
26.6807
 20
-29.7969
 11
26.7948
 21
-29.573
  0
LINE
  8
0
 10
26.7948
 20
-29.573
 11
26.9227
 21
-29.3567
  0
LINE
  8
0
 10
26.9227
 20
-29.3567
 11
27.0639
 21
-29.1488
  0
LINE
  8
0
 10
27.0639
 20
-29.1488
 11
27.2179
 21
-28.9503
  0
LINE
  8
0
 10
27.2179
 20
-28.9503
 11
27.3841
 21
-28.7618
  0
LINE
  8
0
 10
27.3841
 20
-28.7618
 11
27.5618
 21
-28.5841
  0
LINE
  8
0
 10
27.5618
 20
-28.5841
 11
27.7503
 21
-28.4179
  0
LINE
  8
0
 10
27.7503
 20
-28.4179
 11
27.9489
 21
-28.2639
  0
LINE
  8
0
 10
27.9489
 20
-28.2639
 11
28.1567
 21
-28.1227
  0
LINE
  8
0
 10
28.1567
 20
-28.1227
 11
28.373
 21
-27.9948
  0
LINE
  8
0
 10
28.373
 20
-27.9948
 11
28.5969
 21
-27.8807
  0
LINE
  8
0
 10
28.5969
 20
-27.8807
 11
28.8275
 21
-27.7809
  0
LINE
  8
0
 10
28.8275
 20
-27.7809
 11
29.0639
 21
-27.6958
  0
LINE
  8
0
 10
29.0639
 20
-27.6958
 11
29.3052
 21
-27.6257
  0
LINE
  8
0
 10
29.3052
 20
-27.6257
 11
29.5505
 21
-27.5708
  0
LINE
  8
0
 10
29.5505
 20
-27.5708
 11
29.7987
 21
-27.5315
  0
LINE
  8
0
 10
29.7987
 20
-27.5315
 11
30.0488
 21
-27.5079
  0
LINE
  8
0
 10
30.0488
 20
-27.5079
 11
30.3
 21
-27.5
  0
LINE
  8
0
 10
30.3
 20
-27.5
 11
30.5511
 21
-27.5079
  0
LINE
  8
0
 10
30.5511
 20
-27.5079
 11
30.8013
 21
-27.5315
  0
LINE
  8
0
 10
30.8013
 20
-27.5315
 11
31.0495
 21
-27.5708
  0
LINE
  8
0
 10
31.0495
 20
-27.5708
 11
31.2948
 21
-27.6257
  0
LINE
  8
0
 10
31.2948
 20
-27.6257
 11
31.5361
 21
-27.6958
  0
LINE
  8
0
 10
31.5361
 20
-27.6958
 11
31.7725
 21
-27.7809
  0
LINE
  8
0
 10
31.7725
 20
-27.7809
 11
32.0031
 21
-27.8807
  0
LINE
  8
0
 10
32.0031
 20
-27.8807
 11
32.227
 21
-27.9948
  0
LINE
  8
0
 10
32.227
 20
-27.9948
 11
32.4433
 21
-28.1227
  0
LINE
  8
0
 10
32.4433
 20
-28.1227
 11
32.6511
 21
-28.2639
  0
LINE
  8
0
 10
32.6511
 20
-28.2639
 11
32.8497
 21
-28.4179
  0
LINE
  8
0
 10
32.8497
 20
-28.4179
 11
33.0382
 21
-28.5841
  0
LINE
  8
0
 10
33.0382
 20
-28.5841
 11
33.2159
 21
-28.7618
  0
LINE
  8
0
 10
33.2159
 20
-28.7618
 11
33.382
 21
-28.9503
  0
LINE
  8
0
 10
33.382
 20
-28.9503
 11
33.5361
 21
-29.1488
  0
LINE
  8
0
 10
33.5361
 20
-29.1488
 11
33.6773
 21
-29.3567
  0
LINE
  8
0
 10
33.6773
 20
-29.3567
 11
33.8052
 21
-29.573
  0
LINE
  8
0
 10
33.8052
 20
-29.573
 11
33.9193
 21
-29.7969
  0
LINE
  8
0
 10
33.9193
 20
-29.7969
 11
34.0191
 21
-30.0275
  0
LINE
  8
0
 10
34.0191
 20
-30.0275
 11
34.1042
 21
-30.2639
  0
LINE
  8
0
 10
34.1042
 20
-30.2639
 11
34.1743
 21
-30.5052
  0
LINE
  8
0
 10
34.1743
 20
-30.5052
 11
34.2291
 21
-30.7505
  0
LINE
  8
0
 10
34.2291
 20
-30.7505
 11
34.2684
 21
-30.9987
  0
LINE
  8
0
 10
34.2684
 20
-30.9987
 11
34.2921
 21
-31.2488
  0
LINE
  8
0
 10
34.2921
 20
-31.2488
 11
34.3
 21
-31.5
  0
LINE
  8
0
 10
34.3
 20
-31.5
 11
34.2921
 21
-31.7512
  0
LINE
  8
0
 10
34.2921
 20
-31.7512
 11
34.2684
 21
-32.0013
  0
LINE
  8
0
 10
34.2684
 20
-32.0013
 11
34.2291
 21
-32.2495
  0
LINE
  8
0
 10
34.2291
 20
-32.2495
 11
34.1743
 21
-32.4948
  0
LINE
  8
0
 10
34.1743
 20
-32.4948
 11
34.1042
 21
-32.7361
  0
LINE
  8
0
 10
34.1042
 20
-32.7361
 11
34.0191
 21
-32.9725
  0
LINE
  8
0
 10
34.0191
 20
-32.9725
 11
33.9193
 21
-33.2031
  0
LINE
  8
0
 10
33.9193
 20
-33.2031
 11
33.8052
 21
-33.427
  0
LINE
  8
0
 10
33.8052
 20
-33.427
 11
33.6773
 21
-33.6433
  0
LINE
  8
0
 10
33.6773
 20
-33.6433
 11
33.5361
 21
-33.8511
  0
LINE
  8
0
 10
33.5361
 20
-33.8511
 11
33.382
 21
-34.0497
  0
LINE
  8
0
 10
33.382
 20
-34.0497
 11
33.2159
 21
-34.2382
  0
LINE
  8
0
 10
33.2159
 20
-34.2382
 11
33.0382
 21
-34.4159
  0
LINE
  8
0
 10
33.0382
 20
-34.4159
 11
32.8497
 21
-34.582
  0
LINE
  8
0
 10
32.8497
 20
-34.582
 11
32.6511
 21
-34.7361
  0
LINE
  8
0
 10
32.6511
 20
-34.7361
 11
32.4433
 21
-34.8773
  0
LINE
  8
0
 10
32.4433
 20
-34.8773
 11
32.227
 21
-35.0052
  0
LINE
  8
0
 10
32.227
 20
-35.0052
 11
32.0031
 21
-35.1193
  0
LINE
  8
0
 10
32.0031
 20
-35.1193
 11
31.7725
 21
-35.2191
  0
LINE
  8
0
 10
31.7725
 20
-35.2191
 11
31.5361
 21
-35.3042
  0
LINE
  8
0
 10
31.5361
 20
-35.3042
 11
31.2948
 21
-35.3743
  0
LINE
  8
0
 10
31.2948
 20
-35.3743
 11
31.0495
 21
-35.4291
  0
LINE
  8
0
 10
31.0495
 20
-35.4291
 11
30.8013
 21
-35.4684
  0
LINE
  8
0
 10
30.8013
 20
-35.4684
 11
30.5511
 21
-35.4921
  0
LINE
  8
0
 10
30.5511
 20
-35.4921
 11
30.3
 21
-35.5
  0
LINE
  8
0
 10
30.3
 20
-35.5
 11
30.0488
 21
-35.4921
  0
ENDSEC
  0
SECTION
  2
OBJECTS
  0
DICTIONARY
  0
ENDSEC
  0
EOF
