  0
SECTION
  2
BLOCKS
  0
ENDSEC
  0
SECTION
  2
ENTITIES
  0
LINE
  8
0
 10
0.329636
 20
-5.23964
 11
0.65799
 21
-5.20859
  0
LINE
  8
0
 10
0.65799
 20
-5.20859
 11
0.983749
 21
-5.157
  0
LINE
  8
0
 10
0.983749
 20
-5.157
 11
1.30562
 21
-5.08505
  0
LINE
  8
0
 10
1.30562
 20
-5.08505
 11
1.62233
 21
-4.99304
  0
LINE
  8
0
 10
1.62233
 20
-4.99304
 11
1.93265
 21
-4.88132
  0
LINE
  8
0
 10
1.93265
 20
-4.88132
 11
2.23534
 21
-4.75034
  0
LINE
  8
0
 10
2.23534
 20
-4.75034
 11
2.52921
 21
-4.6006
  0
LINE
  8
0
 10
2.52921
 20
-4.6006
 11
2.81308
 21
-4.43271
  0
LINE
  8
0
 10
2.81308
 20
-4.43271
 11
3.08586
 21
-4.24733
  0
LINE
  8
0
 10
3.08586
 20
-4.24733
 11
3.34647
 21
-4.04518
  0
LINE
  8
0
 10
3.34647
 20
-4.04518
 11
3.59387
 21
-3.82707
  0
LINE
  8
0
 10
3.59387
 20
-3.82707
 11
3.82707
 21
-3.59387
  0
LINE
  8
0
 10
3.82707
 20
-3.59387
 11
4.04518
 21
-3.34647
  0
LINE
  8
0
 10
4.04518
 20
-3.34647
 11
4.24733
 21
-3.08586
  0
LINE
  8
0
 10
4.24733
 20
-3.08586
 11
4.43271
 21
-2.81308
  0
LINE
  8
0
 10
4.43271
 20
-2.81308
 11
4.6006
 21
-2.52921
  0
LINE
  8
0
 10
4.6006
 20
-2.52921
 11
4.75034
 21
-2.23534
  0
LINE
  8
0
 10
4.75034
 20
-2.23534
 11
4.88132
 21
-1.93265
  0
LINE
  8
0
 10
4.88132
 20
-1.93265
 11
4.99304
 21
-1.62233
  0
LINE
  8
0
 10
4.99304
 20
-1.62233
 11
5.08505
 21
-1.30562
  0
LINE
  8
0
 10
5.08505
 20
-1.30562
 11
5.157
 21
-0.983749
  0
LINE
  8
0
 10
5.157
 20
-0.983749
 11
5.20859
 21
-0.65799
  0
LINE
  8
0
 10
5.20859
 20
-0.65799
 11
5.23964
 21
-0.329636
  0
LINE
  8
0
 10
5.23964
 20
-0.329636
 11
5.25
 21
0
  0
LINE
  8
0
 10
5.25
 20
0
 11
5.23964
 21
0.329636
  0
LINE
  8
0
 10
5.23964
 20
0.329636
 11
5.20859
 21
0.65799
  0
LINE
  8
0
 10
5.20859
 20
0.65799
 11
5.157
 21
0.983749
  0
LINE
  8
0
 10
5.157
 20
0.983749
 11
5.08505
 21
1.30562
  0
LINE
  8
0
 10
5.08505
 20
1.30562
 11
4.99304
 21
1.62233
  0
LINE
  8
0
 10
4.99304
 20
1.62233
 11
4.88132
 21
1.93265
  0
LINE
  8
0
 10
4.88132
 20
1.93265
 11
4.75034
 21
2.23534
  0
LINE
  8
0
 10
4.75034
 20
2.23534
 11
4.6006
 21
2.52921
  0
LINE
  8
0
 10
4.6006
 20
2.52921
 11
4.43271
 21
2.81308
  0
LINE
  8
0
 10
4.43271
 20
2.81308
 11
4.24733
 21
3.08586
  0
LINE
  8
0
 10
4.24733
 20
3.08586
 11
4.04518
 21
3.34647
  0
LINE
  8
0
 10
4.04518
 20
3.34647
 11
3.82707
 21
3.59387
  0
LINE
  8
0
 10
3.82707
 20
3.59387
 11
3.59387
 21
3.82707
  0
LINE
  8
0
 10
3.59387
 20
3.82707
 11
3.34647
 21
4.04518
  0
LINE
  8
0
 10
3.34647
 20
4.04518
 11
3.08586
 21
4.24733
  0
LINE
  8
0
 10
3.08586
 20
4.24733
 11
2.81308
 21
4.43271
  0
LINE
  8
0
 10
2.81308
 20
4.43271
 11
2.52921
 21
4.6006
  0
LINE
  8
0
 10
2.52921
 20
4.6006
 11
2.23534
 21
4.75034
  0
LINE
  8
0
 10
2.23534
 20
4.75034
 11
1.93265
 21
4.88132
  0
LINE
  8
0
 10
1.93265
 20
4.88132
 11
1.62233
 21
4.99304
  0
LINE
  8
0
 10
1.62233
 20
4.99304
 11
1.30562
 21
5.08505
  0
LINE
  8
0
 10
1.30562
 20
5.08505
 11
0.983749
 21
5.157
  0
LINE
  8
0
 10
0.983749
 20
5.157
 11
0.65799
 21
5.20859
  0
LINE
  8
0
 10
0.65799
 20
5.20859
 11
0.329636
 21
5.23964
  0
LINE
  8
0
 10
0.329636
 20
5.23964
 11
0
 21
5.25
  0
LINE
  8
0
 10
0
 20
5.25
 11
-0.329636
 21
5.23964
  0
LINE
  8
0
 10
-0.329636
 20
5.23964
 11
-0.65799
 21
5.20859
  0
LINE
  8
0
 10
-0.65799
 20
5.20859
 11
-0.983749
 21
5.157
  0
LINE
  8
0
 10
-0.983749
 20
5.157
 11
-1.30562
 21
5.08505
  0
LINE
  8
0
 10
-1.30562
 20
5.08505
 11
-1.62233
 21
4.99304
  0
LINE
  8
0
 10
-1.62233
 20
4.99304
 11
-1.93265
 21
4.88132
  0
LINE
  8
0
 10
-1.93265
 20
4.88132
 11
-2.23534
 21
4.75034
  0
LINE
  8
0
 10
-2.23534
 20
4.75034
 11
-2.52921
 21
4.6006
  0
LINE
  8
0
 10
-2.52921
 20
4.6006
 11
-2.81308
 21
4.43271
  0
LINE
  8
0
 10
-2.81308
 20
4.43271
 11
-3.08586
 21
4.24733
  0
LINE
  8
0
 10
-3.08586
 20
4.24733
 11
-3.34647
 21
4.04518
  0
LINE
  8
0
 10
-3.34647
 20
4.04518
 11
-3.59387
 21
3.82707
  0
LINE
  8
0
 10
-3.59387
 20
3.82707
 11
-3.82707
 21
3.59387
  0
LINE
  8
0
 10
-3.82707
 20
3.59387
 11
-4.04518
 21
3.34647
  0
LINE
  8
0
 10
-4.04518
 20
3.34647
 11
-4.24733
 21
3.08586
  0
LINE
  8
0
 10
-4.24733
 20
3.08586
 11
-4.43271
 21
2.81308
  0
LINE
  8
0
 10
-4.43271
 20
2.81308
 11
-4.6006
 21
2.52921
  0
LINE
  8
0
 10
-4.6006
 20
2.52921
 11
-4.75034
 21
2.23534
  0
LINE
  8
0
 10
-4.75034
 20
2.23534
 11
-4.88132
 21
1.93265
  0
LINE
  8
0
 10
-4.88132
 20
1.93265
 11
-4.99304
 21
1.62233
  0
LINE
  8
0
 10
-4.99304
 20
1.62233
 11
-5.08505
 21
1.30562
  0
LINE
  8
0
 10
-5.08505
 20
1.30562
 11
-5.157
 21
0.983749
  0
LINE
  8
0
 10
-5.157
 20
0.983749
 11
-5.20859
 21
0.65799
  0
LINE
  8
0
 10
-5.20859
 20
0.65799
 11
-5.23964
 21
0.329636
  0
LINE
  8
0
 10
-5.23964
 20
0.329636
 11
-5.25
 21
0
  0
LINE
  8
0
 10
-5.25
 20
0
 11
-5.23964
 21
-0.329636
  0
LINE
  8
0
 10
-5.23964
 20
-0.329636
 11
-5.20859
 21
-0.65799
  0
LINE
  8
0
 10
-5.20859
 20
-0.65799
 11
-5.157
 21
-0.983749
  0
LINE
  8
0
 10
-5.157
 20
-0.983749
 11
-5.08505
 21
-1.30562
  0
LINE
  8
0
 10
-5.08505
 20
-1.30562
 11
-4.99304
 21
-1.62233
  0
LINE
  8
0
 10
-4.99304
 20
-1.62233
 11
-4.88132
 21
-1.93265
  0
LINE
  8
0
 10
-4.88132
 20
-1.93265
 11
-4.75034
 21
-2.23534
  0
LINE
  8
0
 10
-4.75034
 20
-2.23534
 11
-4.6006
 21
-2.52921
  0
LINE
  8
0
 10
-4.6006
 20
-2.52921
 11
-4.43271
 21
-2.81308
  0
LINE
  8
0
 10
-4.43271
 20
-2.81308
 11
-4.24733
 21
-3.08586
  0
LINE
  8
0
 10
-4.24733
 20
-3.08586
 11
-4.04518
 21
-3.34647
  0
LINE
  8
0
 10
-4.04518
 20
-3.34647
 11
-3.82707
 21
-3.59387
  0
LINE
  8
0
 10
-3.82707
 20
-3.59387
 11
-3.59387
 21
-3.82707
  0
LINE
  8
0
 10
-3.59387
 20
-3.82707
 11
-3.34647
 21
-4.04518
  0
LINE
  8
0
 10
-3.34647
 20
-4.04518
 11
-3.08586
 21
-4.24733
  0
LINE
  8
0
 10
-3.08586
 20
-4.24733
 11
-2.81308
 21
-4.43271
  0
LINE
  8
0
 10
-2.81308
 20
-4.43271
 11
-2.52921
 21
-4.6006
  0
LINE
  8
0
 10
-2.52921
 20
-4.6006
 11
-2.23534
 21
-4.75034
  0
LINE
  8
0
 10
-2.23534
 20
-4.75034
 11
-1.93265
 21
-4.88132
  0
LINE
  8
0
 10
-1.93265
 20
-4.88132
 11
-1.62233
 21
-4.99304
  0
LINE
  8
0
 10
-1.62233
 20
-4.99304
 11
-1.30562
 21
-5.08505
  0
LINE
  8
0
 10
-1.30562
 20
-5.08505
 11
-0.983749
 21
-5.157
  0
LINE
  8
0
 10
-0.983749
 20
-5.157
 11
-0.65799
 21
-5.20859
  0
LINE
  8
0
 10
-0.65799
 20
-5.20859
 11
-0.329636
 21
-5.23964
  0
LINE
  8
0
 10
-0.329636
 20
-5.23964
 11
0
 21
-5.25
  0
LINE
  8
0
 10
0
 20
-5.25
 11
0.329636
 21
-5.23964
  0
LINE
  8
0
 10
-0.141266
 20
-2.24556
 11
-0.281998
 21
-2.23225
  0
LINE
  8
0
 10
-0.281998
 20
-2.23225
 11
-0.4216
 21
-2.21014
  0
LINE
  8
0
 10
-0.4216
 20
-2.21014
 11
-0.55954
 21
-2.17931
  0
LINE
  8
0
 10
-0.55954
 20
-2.17931
 11
-0.695282
 21
-2.13986
  0
LINE
  8
0
 10
-0.695282
 20
-2.13986
 11
-0.828278
 21
-2.092
  0
LINE
  8
0
 10
-0.828278
 20
-2.092
 11
-0.957993
 21
-2.03586
  0
LINE
  8
0
 10
-0.957993
 20
-2.03586
 11
-1.08394
 21
-1.97168
  0
LINE
  8
0
 10
-1.08394
 20
-1.97168
 11
-1.2056
 21
-1.89973
  0
LINE
  8
0
 10
-1.2056
 20
-1.89973
 11
-1.32251
 21
-1.82028
  0
LINE
  8
0
 10
-1.32251
 20
-1.82028
 11
-1.43419
 21
-1.73364
  0
LINE
  8
0
 10
-1.43419
 20
-1.73364
 11
-1.54022
 21
-1.64017
  0
LINE
  8
0
 10
-1.54022
 20
-1.64017
 11
-1.64017
 21
-1.54022
  0
LINE
  8
0
 10
-1.64017
 20
-1.54022
 11
-1.73364
 21
-1.43419
  0
LINE
  8
0
 10
-1.73364
 20
-1.43419
 11
-1.82028
 21
-1.32251
  0
LINE
  8
0
 10
-1.82028
 20
-1.32251
 11
-1.89973
 21
-1.2056
  0
LINE
  8
0
 10
-1.89973
 20
-1.2056
 11
-1.97168
 21
-1.08394
  0
LINE
  8
0
 10
-1.97168
 20
-1.08394
 11
-2.03586
 21
-0.957993
  0
LINE
  8
0
 10
-2.03586
 20
-0.957993
 11
-2.092
 21
-0.828278
  0
LINE
  8
0
 10
-2.092
 20
-0.828278
 11
-2.13986
 21
-0.695282
  0
LINE
  8
0
 10
-2.13986
 20
-0.695282
 11
-2.17931
 21
-0.55954
  0
LINE
  8
0
 10
-2.17931
 20
-0.55954
 11
-2.21014
 21
-0.4216
  0
LINE
  8
0
 10
-2.21014
 20
-0.4216
 11
-2.23225
 21
-0.281998
  0
LINE
  8
0
 10
-2.23225
 20
-0.281998
 11
-2.24556
 21
-0.141266
  0
LINE
  8
0
 10
-2.24556
 20
-0.141266
 11
-2.25
 21
0
  0
LINE
  8
0
 10
-2.25
 20
0
 11
-2.24556
 21
0.141266
  0
LINE
  8
0
 10
-2.24556
 20
0.141266
 11
-2.23225
 21
0.281998
  0
LINE
  8
0
 10
-2.23225
 20
0.281998
 11
-2.21014
 21
0.4216
  0
LINE
  8
0
 10
-2.21014
 20
0.4216
 11
-2.17931
 21
0.55954
  0
LINE
  8
0
 10
-2.17931
 20
0.55954
 11
-2.13986
 21
0.695282
  0
LINE
  8
0
 10
-2.13986
 20
0.695282
 11
-2.092
 21
0.828278
  0
LINE
  8
0
 10
-2.092
 20
0.828278
 11
-2.03586
 21
0.957993
  0
LINE
  8
0
 10
-2.03586
 20
0.957993
 11
-1.97168
 21
1.08394
  0
LINE
  8
0
 10
-1.97168
 20
1.08394
 11
-1.89973
 21
1.2056
  0
LINE
  8
0
 10
-1.89973
 20
1.2056
 11
-1.82028
 21
1.32251
  0
LINE
  8
0
 10
-1.82028
 20
1.32251
 11
-1.73364
 21
1.43419
  0
LINE
  8
0
 10
-1.73364
 20
1.43419
 11
-1.64017
 21
1.54022
  0
LINE
  8
0
 10
-1.64017
 20
1.54022
 11
-1.54022
 21
1.64017
  0
LINE
  8
0
 10
-1.54022
 20
1.64017
 11
-1.43419
 21
1.73364
  0
LINE
  8
0
 10
-1.43419
 20
1.73364
 11
-1.32251
 21
1.82028
  0
LINE
  8
0
 10
-1.32251
 20
1.82028
 11
-1.2056
 21
1.89973
  0
LINE
  8
0
 10
-1.2056
 20
1.89973
 11
-1.08394
 21
1.97168
  0
LINE
  8
0
 10
-1.08394
 20
1.97168
 11
-0.957993
 21
2.03586
  0
LINE
  8
0
 10
-0.957993
 20
2.03586
 11
-0.828278
 21
2.092
  0
LINE
  8
0
 10
-0.828278
 20
2.092
 11
-0.695282
 21
2.13986
  0
LINE
  8
0
 10
-0.695282
 20
2.13986
 11
-0.55954
 21
2.17931
  0
LINE
  8
0
 10
-0.55954
 20
2.17931
 11
-0.4216
 21
2.21014
  0
LINE
  8
0
 10
-0.4216
 20
2.21014
 11
-0.281998
 21
2.23225
  0
LINE
  8
0
 10
-0.281998
 20
2.23225
 11
-0.141266
 21
2.24556
  0
LINE
  8
0
 10
-0.141266
 20
2.24556
 11
0
 21
2.25
  0
LINE
  8
0
 10
0
 20
2.25
 11
0.141266
 21
2.24556
  0
LINE
  8
0
 10
0.141266
 20
2.24556
 11
0.281998
 21
2.23225
  0
LINE
  8
0
 10
0.281998
 20
2.23225
 11
0.4216
 21
2.21014
  0
LINE
  8
0
 10
0.4216
 20
2.21014
 11
0.55954
 21
2.17931
  0
LINE
  8
0
 10
0.55954
 20
2.17931
 11
0.695282
 21
2.13986
  0
LINE
  8
0
 10
0.695282
 20
2.13986
 11
0.828278
 21
2.092
  0
LINE
  8
0
 10
0.828278
 20
2.092
 11
0.957993
 21
2.03586
  0
LINE
  8
0
 10
0.957993
 20
2.03586
 11
1.08394
 21
1.97168
  0
LINE
  8
0
 10
1.08394
 20
1.97168
 11
1.2056
 21
1.89973
  0
LINE
  8
0
 10
1.2056
 20
1.89973
 11
1.32251
 21
1.82028
  0
LINE
  8
0
 10
1.32251
 20
1.82028
 11
1.43419
 21
1.73364
  0
LINE
  8
0
 10
1.43419
 20
1.73364
 11
1.54022
 21
1.64017
  0
LINE
  8
0
 10
1.54022
 20
1.64017
 11
1.64017
 21
1.54022
  0
LINE
  8
0
 10
1.64017
 20
1.54022
 11
1.73364
 21
1.43419
  0
LINE
  8
0
 10
1.73364
 20
1.43419
 11
1.82028
 21
1.32251
  0
LINE
  8
0
 10
1.82028
 20
1.32251
 11
1.89973
 21
1.2056
  0
LINE
  8
0
 10
1.89973
 20
1.2056
 11
1.97168
 21
1.08394
  0
LINE
  8
0
 10
1.97168
 20
1.08394
 11
2.03586
 21
0.957993
  0
LINE
  8
0
 10
2.03586
 20
0.957993
 11
2.092
 21
0.828278
  0
LINE
  8
0
 10
2.092
 20
0.828278
 11
2.13986
 21
0.695282
  0
LINE
  8
0
 10
2.13986
 20
0.695282
 11
2.17931
 21
0.55954
  0
LINE
  8
0
 10
2.17931
 20
0.55954
 11
2.21014
 21
0.4216
  0
LINE
  8
0
 10
2.21014
 20
0.4216
 11
2.23225
 21
0.281998
  0
LINE
  8
0
 10
2.23225
 20
0.281998
 11
2.24556
 21
0.141266
  0
LINE
  8
0
 10
2.24556
 20
0.141266
 11
2.25
 21
0
  0
LINE
  8
0
 10
2.25
 20
0
 11
2.24556
 21
-0.141266
  0
LINE
  8
0
 10
2.24556
 20
-0.141266
 11
2.23225
 21
-0.281998
  0
LINE
  8
0
 10
2.23225
 20
-0.281998
 11
2.21014
 21
-0.4216
  0
LINE
  8
0
 10
2.21014
 20
-0.4216
 11
2.17931
 21
-0.55954
  0
LINE
  8
0
 10
2.17931
 20
-0.55954
 11
2.13986
 21
-0.695282
  0
LINE
  8
0
 10
2.13986
 20
-0.695282
 11
2.092
 21
-0.828278
  0
LINE
  8
0
 10
2.092
 20
-0.828278
 11
2.03586
 21
-0.957993
  0
LINE
  8
0
 10
2.03586
 20
-0.957993
 11
1.97168
 21
-1.08394
  0
LINE
  8
0
 10
1.97168
 20
-1.08394
 11
1.89973
 21
-1.2056
  0
LINE
  8
0
 10
1.89973
 20
-1.2056
 11
1.82028
 21
-1.32251
  0
LINE
  8
0
 10
1.82028
 20
-1.32251
 11
1.73364
 21
-1.43419
  0
LINE
  8
0
 10
1.73364
 20
-1.43419
 11
1.64017
 21
-1.54022
  0
LINE
  8
0
 10
1.64017
 20
-1.54022
 11
1.54022
 21
-1.64017
  0
LINE
  8
0
 10
1.54022
 20
-1.64017
 11
1.43419
 21
-1.73364
  0
LINE
  8
0
 10
1.43419
 20
-1.73364
 11
1.32251
 21
-1.82028
  0
LINE
  8
0
 10
1.32251
 20
-1.82028
 11
1.2056
 21
-1.89973
  0
LINE
  8
0
 10
1.2056
 20
-1.89973
 11
1.08394
 21
-1.97168
  0
LINE
  8
0
 10
1.08394
 20
-1.97168
 11
0.957993
 21
-2.03586
  0
LINE
  8
0
 10
0.957993
 20
-2.03586
 11
0.828278
 21
-2.092
  0
LINE
  8
0
 10
0.828278
 20
-2.092
 11
0.695282
 21
-2.13986
  0
LINE
  8
0
 10
0.695282
 20
-2.13986
 11
0.55954
 21
-2.17931
  0
LINE
  8
0
 10
0.55954
 20
-2.17931
 11
0.4216
 21
-2.21014
  0
LINE
  8
0
 10
0.4216
 20
-2.21014
 11
0.281998
 21
-2.23225
  0
LINE
  8
0
 10
0.281998
 20
-2.23225
 11
0.141266
 21
-2.24556
  0
LINE
  8
0
 10
0.141266
 20
-2.24556
 11
0
 21
-2.25
  0
LINE
  8
0
 10
0
 20
-2.25
 11
-0.141266
 21
-2.24556
  0
ENDSEC
  0
SECTION
  2
OBJECTS
  0
DICTIONARY
  0
ENDSEC
  0
EOF
