  0
SECTION
  2
BLOCKS
  0
ENDSEC
  0
SECTION
  2
ENTITIES
  0
LINE
  8
0
 10
125
 20
115
 11
-125
 21
115
  0
LINE
  8
0
 10
-125
 20
115
 11
-125
 21
-115
  0
LINE
  8
0
 10
-125
 20
-115
 11
125
 21
-115
  0
LINE
  8
0
 10
125
 20
-115
 11
125
 21
115
  0
LINE
  8
0
 10
114.812
 20
102.006
 11
114.624
 21
102.024
  0
LINE
  8
0
 10
114.624
 20
102.024
 11
114.438
 21
102.053
  0
LINE
  8
0
 10
114.438
 20
102.053
 11
114.254
 21
102.094
  0
LINE
  8
0
 10
114.254
 20
102.094
 11
114.073
 21
102.147
  0
LINE
  8
0
 10
114.073
 20
102.147
 11
113.896
 21
102.211
  0
LINE
  8
0
 10
113.896
 20
102.211
 11
113.723
 21
102.286
  0
LINE
  8
0
 10
113.723
 20
102.286
 11
113.555
 21
102.371
  0
LINE
  8
0
 10
113.555
 20
102.371
 11
113.393
 21
102.467
  0
LINE
  8
0
 10
113.393
 20
102.467
 11
113.237
 21
102.573
  0
LINE
  8
0
 10
113.237
 20
102.573
 11
113.088
 21
102.688
  0
LINE
  8
0
 10
113.088
 20
102.688
 11
112.946
 21
102.813
  0
LINE
  8
0
 10
112.946
 20
102.813
 11
112.813
 21
102.946
  0
LINE
  8
0
 10
112.813
 20
102.946
 11
112.688
 21
103.088
  0
LINE
  8
0
 10
112.688
 20
103.088
 11
112.573
 21
103.237
  0
LINE
  8
0
 10
112.573
 20
103.237
 11
112.467
 21
103.393
  0
LINE
  8
0
 10
112.467
 20
103.393
 11
112.371
 21
103.555
  0
LINE
  8
0
 10
112.371
 20
103.555
 11
112.286
 21
103.723
  0
LINE
  8
0
 10
112.286
 20
103.723
 11
112.211
 21
103.896
  0
LINE
  8
0
 10
112.211
 20
103.896
 11
112.147
 21
104.073
  0
LINE
  8
0
 10
112.147
 20
104.073
 11
112.094
 21
104.254
  0
LINE
  8
0
 10
112.094
 20
104.254
 11
112.053
 21
104.438
  0
LINE
  8
0
 10
112.053
 20
104.438
 11
112.024
 21
104.624
  0
LINE
  8
0
 10
112.024
 20
104.624
 11
112.006
 21
104.812
  0
LINE
  8
0
 10
112.006
 20
104.812
 11
112
 21
105
  0
LINE
  8
0
 10
112
 20
105
 11
112.006
 21
105.188
  0
LINE
  8
0
 10
112.006
 20
105.188
 11
112.024
 21
105.376
  0
LINE
  8
0
 10
112.024
 20
105.376
 11
112.053
 21
105.562
  0
LINE
  8
0
 10
112.053
 20
105.562
 11
112.094
 21
105.746
  0
LINE
  8
0
 10
112.094
 20
105.746
 11
112.147
 21
105.927
  0
LINE
  8
0
 10
112.147
 20
105.927
 11
112.211
 21
106.104
  0
LINE
  8
0
 10
112.211
 20
106.104
 11
112.286
 21
106.277
  0
LINE
  8
0
 10
112.286
 20
106.277
 11
112.371
 21
106.445
  0
LINE
  8
0
 10
112.371
 20
106.445
 11
112.467
 21
106.607
  0
LINE
  8
0
 10
112.467
 20
106.607
 11
112.573
 21
106.763
  0
LINE
  8
0
 10
112.573
 20
106.763
 11
112.688
 21
106.912
  0
LINE
  8
0
 10
112.688
 20
106.912
 11
112.813
 21
107.054
  0
LINE
  8
0
 10
112.813
 20
107.054
 11
112.946
 21
107.187
  0
LINE
  8
0
 10
112.946
 20
107.187
 11
113.088
 21
107.312
  0
LINE
  8
0
 10
113.088
 20
107.312
 11
113.237
 21
107.427
  0
LINE
  8
0
 10
113.237
 20
107.427
 11
113.393
 21
107.533
  0
LINE
  8
0
 10
113.393
 20
107.533
 11
113.555
 21
107.629
  0
LINE
  8
0
 10
113.555
 20
107.629
 11
113.723
 21
107.714
  0
LINE
  8
0
 10
113.723
 20
107.714
 11
113.896
 21
107.789
  0
LINE
  8
0
 10
113.896
 20
107.789
 11
114.073
 21
107.853
  0
LINE
  8
0
 10
114.073
 20
107.853
 11
114.254
 21
107.906
  0
LINE
  8
0
 10
114.254
 20
107.906
 11
114.438
 21
107.947
  0
LINE
  8
0
 10
114.438
 20
107.947
 11
114.624
 21
107.976
  0
LINE
  8
0
 10
114.624
 20
107.976
 11
114.812
 21
107.994
  0
LINE
  8
0
 10
114.812
 20
107.994
 11
115
 21
108
  0
LINE
  8
0
 10
115
 20
108
 11
115.188
 21
107.994
  0
LINE
  8
0
 10
115.188
 20
107.994
 11
115.376
 21
107.976
  0
LINE
  8
0
 10
115.376
 20
107.976
 11
115.562
 21
107.947
  0
LINE
  8
0
 10
115.562
 20
107.947
 11
115.746
 21
107.906
  0
LINE
  8
0
 10
115.746
 20
107.906
 11
115.927
 21
107.853
  0
LINE
  8
0
 10
115.927
 20
107.853
 11
116.104
 21
107.789
  0
LINE
  8
0
 10
116.104
 20
107.789
 11
116.277
 21
107.714
  0
LINE
  8
0
 10
116.277
 20
107.714
 11
116.445
 21
107.629
  0
LINE
  8
0
 10
116.445
 20
107.629
 11
116.607
 21
107.533
  0
LINE
  8
0
 10
116.607
 20
107.533
 11
116.763
 21
107.427
  0
LINE
  8
0
 10
116.763
 20
107.427
 11
116.912
 21
107.312
  0
LINE
  8
0
 10
116.912
 20
107.312
 11
117.054
 21
107.187
  0
LINE
  8
0
 10
117.054
 20
107.187
 11
117.187
 21
107.054
  0
LINE
  8
0
 10
117.187
 20
107.054
 11
117.312
 21
106.912
  0
LINE
  8
0
 10
117.312
 20
106.912
 11
117.427
 21
106.763
  0
LINE
  8
0
 10
117.427
 20
106.763
 11
117.533
 21
106.607
  0
LINE
  8
0
 10
117.533
 20
106.607
 11
117.629
 21
106.445
  0
LINE
  8
0
 10
117.629
 20
106.445
 11
117.714
 21
106.277
  0
LINE
  8
0
 10
117.714
 20
106.277
 11
117.789
 21
106.104
  0
LINE
  8
0
 10
117.789
 20
106.104
 11
117.853
 21
105.927
  0
LINE
  8
0
 10
117.853
 20
105.927
 11
117.906
 21
105.746
  0
LINE
  8
0
 10
117.906
 20
105.746
 11
117.947
 21
105.562
  0
LINE
  8
0
 10
117.947
 20
105.562
 11
117.976
 21
105.376
  0
LINE
  8
0
 10
117.976
 20
105.376
 11
117.994
 21
105.188
  0
LINE
  8
0
 10
117.994
 20
105.188
 11
118
 21
105
  0
LINE
  8
0
 10
118
 20
105
 11
117.994
 21
104.812
  0
LINE
  8
0
 10
117.994
 20
104.812
 11
117.976
 21
104.624
  0
LINE
  8
0
 10
117.976
 20
104.624
 11
117.947
 21
104.438
  0
LINE
  8
0
 10
117.947
 20
104.438
 11
117.906
 21
104.254
  0
LINE
  8
0
 10
117.906
 20
104.254
 11
117.853
 21
104.073
  0
LINE
  8
0
 10
117.853
 20
104.073
 11
117.789
 21
103.896
  0
LINE
  8
0
 10
117.789
 20
103.896
 11
117.714
 21
103.723
  0
LINE
  8
0
 10
117.714
 20
103.723
 11
117.629
 21
103.555
  0
LINE
  8
0
 10
117.629
 20
103.555
 11
117.533
 21
103.393
  0
LINE
  8
0
 10
117.533
 20
103.393
 11
117.427
 21
103.237
  0
LINE
  8
0
 10
117.427
 20
103.237
 11
117.312
 21
103.088
  0
LINE
  8
0
 10
117.312
 20
103.088
 11
117.187
 21
102.946
  0
LINE
  8
0
 10
117.187
 20
102.946
 11
117.054
 21
102.813
  0
LINE
  8
0
 10
117.054
 20
102.813
 11
116.912
 21
102.688
  0
LINE
  8
0
 10
116.912
 20
102.688
 11
116.763
 21
102.573
  0
LINE
  8
0
 10
116.763
 20
102.573
 11
116.607
 21
102.467
  0
LINE
  8
0
 10
116.607
 20
102.467
 11
116.445
 21
102.371
  0
LINE
  8
0
 10
116.445
 20
102.371
 11
116.277
 21
102.286
  0
LINE
  8
0
 10
116.277
 20
102.286
 11
116.104
 21
102.211
  0
LINE
  8
0
 10
116.104
 20
102.211
 11
115.927
 21
102.147
  0
LINE
  8
0
 10
115.927
 20
102.147
 11
115.746
 21
102.094
  0
LINE
  8
0
 10
115.746
 20
102.094
 11
115.562
 21
102.053
  0
LINE
  8
0
 10
115.562
 20
102.053
 11
115.376
 21
102.024
  0
LINE
  8
0
 10
115.376
 20
102.024
 11
115.188
 21
102.006
  0
LINE
  8
0
 10
115.188
 20
102.006
 11
115
 21
102
  0
LINE
  8
0
 10
115
 20
102
 11
114.812
 21
102.006
  0
LINE
  8
0
 10
-115.188
 20
102.006
 11
-115.376
 21
102.024
  0
LINE
  8
0
 10
-115.376
 20
102.024
 11
-115.562
 21
102.053
  0
LINE
  8
0
 10
-115.562
 20
102.053
 11
-115.746
 21
102.094
  0
LINE
  8
0
 10
-115.746
 20
102.094
 11
-115.927
 21
102.147
  0
LINE
  8
0
 10
-115.927
 20
102.147
 11
-116.104
 21
102.211
  0
LINE
  8
0
 10
-116.104
 20
102.211
 11
-116.277
 21
102.286
  0
LINE
  8
0
 10
-116.277
 20
102.286
 11
-116.445
 21
102.371
  0
LINE
  8
0
 10
-116.445
 20
102.371
 11
-116.607
 21
102.467
  0
LINE
  8
0
 10
-116.607
 20
102.467
 11
-116.763
 21
102.573
  0
LINE
  8
0
 10
-116.763
 20
102.573
 11
-116.912
 21
102.688
  0
LINE
  8
0
 10
-116.912
 20
102.688
 11
-117.054
 21
102.813
  0
LINE
  8
0
 10
-117.054
 20
102.813
 11
-117.187
 21
102.946
  0
LINE
  8
0
 10
-117.187
 20
102.946
 11
-117.312
 21
103.088
  0
LINE
  8
0
 10
-117.312
 20
103.088
 11
-117.427
 21
103.237
  0
LINE
  8
0
 10
-117.427
 20
103.237
 11
-117.533
 21
103.393
  0
LINE
  8
0
 10
-117.533
 20
103.393
 11
-117.629
 21
103.555
  0
LINE
  8
0
 10
-117.629
 20
103.555
 11
-117.714
 21
103.723
  0
LINE
  8
0
 10
-117.714
 20
103.723
 11
-117.789
 21
103.896
  0
LINE
  8
0
 10
-117.789
 20
103.896
 11
-117.853
 21
104.073
  0
LINE
  8
0
 10
-117.853
 20
104.073
 11
-117.906
 21
104.254
  0
LINE
  8
0
 10
-117.906
 20
104.254
 11
-117.947
 21
104.438
  0
LINE
  8
0
 10
-117.947
 20
104.438
 11
-117.976
 21
104.624
  0
LINE
  8
0
 10
-117.976
 20
104.624
 11
-117.994
 21
104.812
  0
LINE
  8
0
 10
-117.994
 20
104.812
 11
-118
 21
105
  0
LINE
  8
0
 10
-118
 20
105
 11
-117.994
 21
105.188
  0
LINE
  8
0
 10
-117.994
 20
105.188
 11
-117.976
 21
105.376
  0
LINE
  8
0
 10
-117.976
 20
105.376
 11
-117.947
 21
105.562
  0
LINE
  8
0
 10
-117.947
 20
105.562
 11
-117.906
 21
105.746
  0
LINE
  8
0
 10
-117.906
 20
105.746
 11
-117.853
 21
105.927
  0
LINE
  8
0
 10
-117.853
 20
105.927
 11
-117.789
 21
106.104
  0
LINE
  8
0
 10
-117.789
 20
106.104
 11
-117.714
 21
106.277
  0
LINE
  8
0
 10
-117.714
 20
106.277
 11
-117.629
 21
106.445
  0
LINE
  8
0
 10
-117.629
 20
106.445
 11
-117.533
 21
106.607
  0
LINE
  8
0
 10
-117.533
 20
106.607
 11
-117.427
 21
106.763
  0
LINE
  8
0
 10
-117.427
 20
106.763
 11
-117.312
 21
106.912
  0
LINE
  8
0
 10
-117.312
 20
106.912
 11
-117.187
 21
107.054
  0
LINE
  8
0
 10
-117.187
 20
107.054
 11
-117.054
 21
107.187
  0
LINE
  8
0
 10
-117.054
 20
107.187
 11
-116.912
 21
107.312
  0
LINE
  8
0
 10
-116.912
 20
107.312
 11
-116.763
 21
107.427
  0
LINE
  8
0
 10
-116.763
 20
107.427
 11
-116.607
 21
107.533
  0
LINE
  8
0
 10
-116.607
 20
107.533
 11
-116.445
 21
107.629
  0
LINE
  8
0
 10
-116.445
 20
107.629
 11
-116.277
 21
107.714
  0
LINE
  8
0
 10
-116.277
 20
107.714
 11
-116.104
 21
107.789
  0
LINE
  8
0
 10
-116.104
 20
107.789
 11
-115.927
 21
107.853
  0
LINE
  8
0
 10
-115.927
 20
107.853
 11
-115.746
 21
107.906
  0
LINE
  8
0
 10
-115.746
 20
107.906
 11
-115.562
 21
107.947
  0
LINE
  8
0
 10
-115.562
 20
107.947
 11
-115.376
 21
107.976
  0
LINE
  8
0
 10
-115.376
 20
107.976
 11
-115.188
 21
107.994
  0
LINE
  8
0
 10
-115.188
 20
107.994
 11
-115
 21
108
  0
LINE
  8
0
 10
-115
 20
108
 11
-114.812
 21
107.994
  0
LINE
  8
0
 10
-114.812
 20
107.994
 11
-114.624
 21
107.976
  0
LINE
  8
0
 10
-114.624
 20
107.976
 11
-114.438
 21
107.947
  0
LINE
  8
0
 10
-114.438
 20
107.947
 11
-114.254
 21
107.906
  0
LINE
  8
0
 10
-114.254
 20
107.906
 11
-114.073
 21
107.853
  0
LINE
  8
0
 10
-114.073
 20
107.853
 11
-113.896
 21
107.789
  0
LINE
  8
0
 10
-113.896
 20
107.789
 11
-113.723
 21
107.714
  0
LINE
  8
0
 10
-113.723
 20
107.714
 11
-113.555
 21
107.629
  0
LINE
  8
0
 10
-113.555
 20
107.629
 11
-113.393
 21
107.533
  0
LINE
  8
0
 10
-113.393
 20
107.533
 11
-113.237
 21
107.427
  0
LINE
  8
0
 10
-113.237
 20
107.427
 11
-113.088
 21
107.312
  0
LINE
  8
0
 10
-113.088
 20
107.312
 11
-112.946
 21
107.187
  0
LINE
  8
0
 10
-112.946
 20
107.187
 11
-112.813
 21
107.054
  0
LINE
  8
0
 10
-112.813
 20
107.054
 11
-112.688
 21
106.912
  0
LINE
  8
0
 10
-112.688
 20
106.912
 11
-112.573
 21
106.763
  0
LINE
  8
0
 10
-112.573
 20
106.763
 11
-112.467
 21
106.607
  0
LINE
  8
0
 10
-112.467
 20
106.607
 11
-112.371
 21
106.445
  0
LINE
  8
0
 10
-112.371
 20
106.445
 11
-112.286
 21
106.277
  0
LINE
  8
0
 10
-112.286
 20
106.277
 11
-112.211
 21
106.104
  0
LINE
  8
0
 10
-112.211
 20
106.104
 11
-112.147
 21
105.927
  0
LINE
  8
0
 10
-112.147
 20
105.927
 11
-112.094
 21
105.746
  0
LINE
  8
0
 10
-112.094
 20
105.746
 11
-112.053
 21
105.562
  0
LINE
  8
0
 10
-112.053
 20
105.562
 11
-112.024
 21
105.376
  0
LINE
  8
0
 10
-112.024
 20
105.376
 11
-112.006
 21
105.188
  0
LINE
  8
0
 10
-112.006
 20
105.188
 11
-112
 21
105
  0
LINE
  8
0
 10
-112
 20
105
 11
-112.006
 21
104.812
  0
LINE
  8
0
 10
-112.006
 20
104.812
 11
-112.024
 21
104.624
  0
LINE
  8
0
 10
-112.024
 20
104.624
 11
-112.053
 21
104.438
  0
LINE
  8
0
 10
-112.053
 20
104.438
 11
-112.094
 21
104.254
  0
LINE
  8
0
 10
-112.094
 20
104.254
 11
-112.147
 21
104.073
  0
LINE
  8
0
 10
-112.147
 20
104.073
 11
-112.211
 21
103.896
  0
LINE
  8
0
 10
-112.211
 20
103.896
 11
-112.286
 21
103.723
  0
LINE
  8
0
 10
-112.286
 20
103.723
 11
-112.371
 21
103.555
  0
LINE
  8
0
 10
-112.371
 20
103.555
 11
-112.467
 21
103.393
  0
LINE
  8
0
 10
-112.467
 20
103.393
 11
-112.573
 21
103.237
  0
LINE
  8
0
 10
-112.573
 20
103.237
 11
-112.688
 21
103.088
  0
LINE
  8
0
 10
-112.688
 20
103.088
 11
-112.813
 21
102.946
  0
LINE
  8
0
 10
-112.813
 20
102.946
 11
-112.946
 21
102.813
  0
LINE
  8
0
 10
-112.946
 20
102.813
 11
-113.088
 21
102.688
  0
LINE
  8
0
 10
-113.088
 20
102.688
 11
-113.237
 21
102.573
  0
LINE
  8
0
 10
-113.237
 20
102.573
 11
-113.393
 21
102.467
  0
LINE
  8
0
 10
-113.393
 20
102.467
 11
-113.555
 21
102.371
  0
LINE
  8
0
 10
-113.555
 20
102.371
 11
-113.723
 21
102.286
  0
LINE
  8
0
 10
-113.723
 20
102.286
 11
-113.896
 21
102.211
  0
LINE
  8
0
 10
-113.896
 20
102.211
 11
-114.073
 21
102.147
  0
LINE
  8
0
 10
-114.073
 20
102.147
 11
-114.254
 21
102.094
  0
LINE
  8
0
 10
-114.254
 20
102.094
 11
-114.438
 21
102.053
  0
LINE
  8
0
 10
-114.438
 20
102.053
 11
-114.624
 21
102.024
  0
LINE
  8
0
 10
-114.624
 20
102.024
 11
-114.812
 21
102.006
  0
LINE
  8
0
 10
-114.812
 20
102.006
 11
-115
 21
102
  0
LINE
  8
0
 10
-115
 20
102
 11
-115.188
 21
102.006
  0
LINE
  8
0
 10
114.812
 20
82.0059
 11
114.624
 21
82.0237
  0
LINE
  8
0
 10
114.624
 20
82.0237
 11
114.438
 21
82.0531
  0
LINE
  8
0
 10
114.438
 20
82.0531
 11
114.254
 21
82.0943
  0
LINE
  8
0
 10
114.254
 20
82.0943
 11
114.073
 21
82.1468
  0
LINE
  8
0
 10
114.073
 20
82.1468
 11
113.896
 21
82.2107
  0
LINE
  8
0
 10
113.896
 20
82.2107
 11
113.723
 21
82.2855
  0
LINE
  8
0
 10
113.723
 20
82.2855
 11
113.555
 21
82.3711
  0
LINE
  8
0
 10
113.555
 20
82.3711
 11
113.393
 21
82.467
  0
LINE
  8
0
 10
113.393
 20
82.467
 11
113.237
 21
82.573
  0
LINE
  8
0
 10
113.237
 20
82.573
 11
113.088
 21
82.6885
  0
LINE
  8
0
 10
113.088
 20
82.6885
 11
112.946
 21
82.8131
  0
LINE
  8
0
 10
112.946
 20
82.8131
 11
112.813
 21
82.9464
  0
LINE
  8
0
 10
112.813
 20
82.9464
 11
112.688
 21
83.0877
  0
LINE
  8
0
 10
112.688
 20
83.0877
 11
112.573
 21
83.2366
  0
LINE
  8
0
 10
112.573
 20
83.2366
 11
112.467
 21
83.3925
  0
LINE
  8
0
 10
112.467
 20
83.3925
 11
112.371
 21
83.5547
  0
LINE
  8
0
 10
112.371
 20
83.5547
 11
112.286
 21
83.7227
  0
LINE
  8
0
 10
112.286
 20
83.7227
 11
112.211
 21
83.8956
  0
LINE
  8
0
 10
112.211
 20
83.8956
 11
112.147
 21
84.073
  0
LINE
  8
0
 10
112.147
 20
84.073
 11
112.094
 21
84.2539
  0
LINE
  8
0
 10
112.094
 20
84.2539
 11
112.053
 21
84.4379
  0
LINE
  8
0
 10
112.053
 20
84.4379
 11
112.024
 21
84.624
  0
LINE
  8
0
 10
112.024
 20
84.624
 11
112.006
 21
84.8116
  0
LINE
  8
0
 10
112.006
 20
84.8116
 11
112
 21
85
  0
LINE
  8
0
 10
112
 20
85
 11
112.006
 21
85.1884
  0
LINE
  8
0
 10
112.006
 20
85.1884
 11
112.024
 21
85.376
  0
LINE
  8
0
 10
112.024
 20
85.376
 11
112.053
 21
85.5621
  0
LINE
  8
0
 10
112.053
 20
85.5621
 11
112.094
 21
85.7461
  0
LINE
  8
0
 10
112.094
 20
85.7461
 11
112.147
 21
85.9271
  0
LINE
  8
0
 10
112.147
 20
85.9271
 11
112.211
 21
86.1044
  0
LINE
  8
0
 10
112.211
 20
86.1044
 11
112.286
 21
86.2773
  0
LINE
  8
0
 10
112.286
 20
86.2773
 11
112.371
 21
86.4453
  0
LINE
  8
0
 10
112.371
 20
86.4453
 11
112.467
 21
86.6075
  0
LINE
  8
0
 10
112.467
 20
86.6075
 11
112.573
 21
86.7634
  0
LINE
  8
0
 10
112.573
 20
86.7634
 11
112.688
 21
86.9123
  0
LINE
  8
0
 10
112.688
 20
86.9123
 11
112.813
 21
87.0536
  0
LINE
  8
0
 10
112.813
 20
87.0536
 11
112.946
 21
87.1869
  0
LINE
  8
0
 10
112.946
 20
87.1869
 11
113.088
 21
87.3116
  0
LINE
  8
0
 10
113.088
 20
87.3116
 11
113.237
 21
87.4271
  0
LINE
  8
0
 10
113.237
 20
87.4271
 11
113.393
 21
87.533
  0
LINE
  8
0
 10
113.393
 20
87.533
 11
113.555
 21
87.6289
  0
LINE
  8
0
 10
113.555
 20
87.6289
 11
113.723
 21
87.7145
  0
LINE
  8
0
 10
113.723
 20
87.7145
 11
113.896
 21
87.7893
  0
LINE
  8
0
 10
113.896
 20
87.7893
 11
114.073
 21
87.8532
  0
LINE
  8
0
 10
114.073
 20
87.8532
 11
114.254
 21
87.9058
  0
LINE
  8
0
 10
114.254
 20
87.9058
 11
114.438
 21
87.9469
  0
LINE
  8
0
 10
114.438
 20
87.9469
 11
114.624
 21
87.9763
  0
LINE
  8
0
 10
114.624
 20
87.9763
 11
114.812
 21
87.9941
  0
LINE
  8
0
 10
114.812
 20
87.9941
 11
115
 21
88
  0
LINE
  8
0
 10
115
 20
88
 11
115.188
 21
87.9941
  0
LINE
  8
0
 10
115.188
 20
87.9941
 11
115.376
 21
87.9763
  0
LINE
  8
0
 10
115.376
 20
87.9763
 11
115.562
 21
87.9469
  0
LINE
  8
0
 10
115.562
 20
87.9469
 11
115.746
 21
87.9058
  0
LINE
  8
0
 10
115.746
 20
87.9058
 11
115.927
 21
87.8532
  0
LINE
  8
0
 10
115.927
 20
87.8532
 11
116.104
 21
87.7893
  0
LINE
  8
0
 10
116.104
 20
87.7893
 11
116.277
 21
87.7145
  0
LINE
  8
0
 10
116.277
 20
87.7145
 11
116.445
 21
87.6289
  0
LINE
  8
0
 10
116.445
 20
87.6289
 11
116.607
 21
87.533
  0
LINE
  8
0
 10
116.607
 20
87.533
 11
116.763
 21
87.4271
  0
LINE
  8
0
 10
116.763
 20
87.4271
 11
116.912
 21
87.3116
  0
LINE
  8
0
 10
116.912
 20
87.3116
 11
117.054
 21
87.1869
  0
LINE
  8
0
 10
117.054
 20
87.1869
 11
117.187
 21
87.0536
  0
LINE
  8
0
 10
117.187
 20
87.0536
 11
117.312
 21
86.9123
  0
LINE
  8
0
 10
117.312
 20
86.9123
 11
117.427
 21
86.7634
  0
LINE
  8
0
 10
117.427
 20
86.7634
 11
117.533
 21
86.6075
  0
LINE
  8
0
 10
117.533
 20
86.6075
 11
117.629
 21
86.4453
  0
LINE
  8
0
 10
117.629
 20
86.4453
 11
117.714
 21
86.2773
  0
LINE
  8
0
 10
117.714
 20
86.2773
 11
117.789
 21
86.1044
  0
LINE
  8
0
 10
117.789
 20
86.1044
 11
117.853
 21
85.9271
  0
LINE
  8
0
 10
117.853
 20
85.9271
 11
117.906
 21
85.7461
  0
LINE
  8
0
 10
117.906
 20
85.7461
 11
117.947
 21
85.5621
  0
LINE
  8
0
 10
117.947
 20
85.5621
 11
117.976
 21
85.376
  0
LINE
  8
0
 10
117.976
 20
85.376
 11
117.994
 21
85.1884
  0
LINE
  8
0
 10
117.994
 20
85.1884
 11
118
 21
85
  0
LINE
  8
0
 10
118
 20
85
 11
117.994
 21
84.8116
  0
LINE
  8
0
 10
117.994
 20
84.8116
 11
117.976
 21
84.624
  0
LINE
  8
0
 10
117.976
 20
84.624
 11
117.947
 21
84.4379
  0
LINE
  8
0
 10
117.947
 20
84.4379
 11
117.906
 21
84.2539
  0
LINE
  8
0
 10
117.906
 20
84.2539
 11
117.853
 21
84.073
  0
LINE
  8
0
 10
117.853
 20
84.073
 11
117.789
 21
83.8956
  0
LINE
  8
0
 10
117.789
 20
83.8956
 11
117.714
 21
83.7227
  0
LINE
  8
0
 10
117.714
 20
83.7227
 11
117.629
 21
83.5547
  0
LINE
  8
0
 10
117.629
 20
83.5547
 11
117.533
 21
83.3925
  0
LINE
  8
0
 10
117.533
 20
83.3925
 11
117.427
 21
83.2366
  0
LINE
  8
0
 10
117.427
 20
83.2366
 11
117.312
 21
83.0877
  0
LINE
  8
0
 10
117.312
 20
83.0877
 11
117.187
 21
82.9464
  0
LINE
  8
0
 10
117.187
 20
82.9464
 11
117.054
 21
82.8131
  0
LINE
  8
0
 10
117.054
 20
82.8131
 11
116.912
 21
82.6885
  0
LINE
  8
0
 10
116.912
 20
82.6885
 11
116.763
 21
82.573
  0
LINE
  8
0
 10
116.763
 20
82.573
 11
116.607
 21
82.467
  0
LINE
  8
0
 10
116.607
 20
82.467
 11
116.445
 21
82.3711
  0
LINE
  8
0
 10
116.445
 20
82.3711
 11
116.277
 21
82.2855
  0
LINE
  8
0
 10
116.277
 20
82.2855
 11
116.104
 21
82.2107
  0
LINE
  8
0
 10
116.104
 20
82.2107
 11
115.927
 21
82.1468
  0
LINE
  8
0
 10
115.927
 20
82.1468
 11
115.746
 21
82.0943
  0
LINE
  8
0
 10
115.746
 20
82.0943
 11
115.562
 21
82.0531
  0
LINE
  8
0
 10
115.562
 20
82.0531
 11
115.376
 21
82.0237
  0
LINE
  8
0
 10
115.376
 20
82.0237
 11
115.188
 21
82.0059
  0
LINE
  8
0
 10
115.188
 20
82.0059
 11
115
 21
82
  0
LINE
  8
0
 10
115
 20
82
 11
114.812
 21
82.0059
  0
LINE
  8
0
 10
-115.188
 20
82.0059
 11
-115.376
 21
82.0237
  0
LINE
  8
0
 10
-115.376
 20
82.0237
 11
-115.562
 21
82.0531
  0
LINE
  8
0
 10
-115.562
 20
82.0531
 11
-115.746
 21
82.0943
  0
LINE
  8
0
 10
-115.746
 20
82.0943
 11
-115.927
 21
82.1468
  0
LINE
  8
0
 10
-115.927
 20
82.1468
 11
-116.104
 21
82.2107
  0
LINE
  8
0
 10
-116.104
 20
82.2107
 11
-116.277
 21
82.2855
  0
LINE
  8
0
 10
-116.277
 20
82.2855
 11
-116.445
 21
82.3711
  0
LINE
  8
0
 10
-116.445
 20
82.3711
 11
-116.607
 21
82.467
  0
LINE
  8
0
 10
-116.607
 20
82.467
 11
-116.763
 21
82.573
  0
LINE
  8
0
 10
-116.763
 20
82.573
 11
-116.912
 21
82.6885
  0
LINE
  8
0
 10
-116.912
 20
82.6885
 11
-117.054
 21
82.8131
  0
LINE
  8
0
 10
-117.054
 20
82.8131
 11
-117.187
 21
82.9464
  0
LINE
  8
0
 10
-117.187
 20
82.9464
 11
-117.312
 21
83.0877
  0
LINE
  8
0
 10
-117.312
 20
83.0877
 11
-117.427
 21
83.2366
  0
LINE
  8
0
 10
-117.427
 20
83.2366
 11
-117.533
 21
83.3925
  0
LINE
  8
0
 10
-117.533
 20
83.3925
 11
-117.629
 21
83.5547
  0
LINE
  8
0
 10
-117.629
 20
83.5547
 11
-117.714
 21
83.7227
  0
LINE
  8
0
 10
-117.714
 20
83.7227
 11
-117.789
 21
83.8956
  0
LINE
  8
0
 10
-117.789
 20
83.8956
 11
-117.853
 21
84.073
  0
LINE
  8
0
 10
-117.853
 20
84.073
 11
-117.906
 21
84.2539
  0
LINE
  8
0
 10
-117.906
 20
84.2539
 11
-117.947
 21
84.4379
  0
LINE
  8
0
 10
-117.947
 20
84.4379
 11
-117.976
 21
84.624
  0
LINE
  8
0
 10
-117.976
 20
84.624
 11
-117.994
 21
84.8116
  0
LINE
  8
0
 10
-117.994
 20
84.8116
 11
-118
 21
85
  0
LINE
  8
0
 10
-118
 20
85
 11
-117.994
 21
85.1884
  0
LINE
  8
0
 10
-117.994
 20
85.1884
 11
-117.976
 21
85.376
  0
LINE
  8
0
 10
-117.976
 20
85.376
 11
-117.947
 21
85.5621
  0
LINE
  8
0
 10
-117.947
 20
85.5621
 11
-117.906
 21
85.7461
  0
LINE
  8
0
 10
-117.906
 20
85.7461
 11
-117.853
 21
85.9271
  0
LINE
  8
0
 10
-117.853
 20
85.9271
 11
-117.789
 21
86.1044
  0
LINE
  8
0
 10
-117.789
 20
86.1044
 11
-117.714
 21
86.2773
  0
LINE
  8
0
 10
-117.714
 20
86.2773
 11
-117.629
 21
86.4453
  0
LINE
  8
0
 10
-117.629
 20
86.4453
 11
-117.533
 21
86.6075
  0
LINE
  8
0
 10
-117.533
 20
86.6075
 11
-117.427
 21
86.7634
  0
LINE
  8
0
 10
-117.427
 20
86.7634
 11
-117.312
 21
86.9123
  0
LINE
  8
0
 10
-117.312
 20
86.9123
 11
-117.187
 21
87.0536
  0
LINE
  8
0
 10
-117.187
 20
87.0536
 11
-117.054
 21
87.1869
  0
LINE
  8
0
 10
-117.054
 20
87.1869
 11
-116.912
 21
87.3116
  0
LINE
  8
0
 10
-116.912
 20
87.3116
 11
-116.763
 21
87.4271
  0
LINE
  8
0
 10
-116.763
 20
87.4271
 11
-116.607
 21
87.533
  0
LINE
  8
0
 10
-116.607
 20
87.533
 11
-116.445
 21
87.6289
  0
LINE
  8
0
 10
-116.445
 20
87.6289
 11
-116.277
 21
87.7145
  0
LINE
  8
0
 10
-116.277
 20
87.7145
 11
-116.104
 21
87.7893
  0
LINE
  8
0
 10
-116.104
 20
87.7893
 11
-115.927
 21
87.8532
  0
LINE
  8
0
 10
-115.927
 20
87.8532
 11
-115.746
 21
87.9058
  0
LINE
  8
0
 10
-115.746
 20
87.9058
 11
-115.562
 21
87.9469
  0
LINE
  8
0
 10
-115.562
 20
87.9469
 11
-115.376
 21
87.9763
  0
LINE
  8
0
 10
-115.376
 20
87.9763
 11
-115.188
 21
87.9941
  0
LINE
  8
0
 10
-115.188
 20
87.9941
 11
-115
 21
88
  0
LINE
  8
0
 10
-115
 20
88
 11
-114.812
 21
87.9941
  0
LINE
  8
0
 10
-114.812
 20
87.9941
 11
-114.624
 21
87.9763
  0
LINE
  8
0
 10
-114.624
 20
87.9763
 11
-114.438
 21
87.9469
  0
LINE
  8
0
 10
-114.438
 20
87.9469
 11
-114.254
 21
87.9058
  0
LINE
  8
0
 10
-114.254
 20
87.9058
 11
-114.073
 21
87.8532
  0
LINE
  8
0
 10
-114.073
 20
87.8532
 11
-113.896
 21
87.7893
  0
LINE
  8
0
 10
-113.896
 20
87.7893
 11
-113.723
 21
87.7145
  0
LINE
  8
0
 10
-113.723
 20
87.7145
 11
-113.555
 21
87.6289
  0
LINE
  8
0
 10
-113.555
 20
87.6289
 11
-113.393
 21
87.533
  0
LINE
  8
0
 10
-113.393
 20
87.533
 11
-113.237
 21
87.4271
  0
LINE
  8
0
 10
-113.237
 20
87.4271
 11
-113.088
 21
87.3116
  0
LINE
  8
0
 10
-113.088
 20
87.3116
 11
-112.946
 21
87.1869
  0
LINE
  8
0
 10
-112.946
 20
87.1869
 11
-112.813
 21
87.0536
  0
LINE
  8
0
 10
-112.813
 20
87.0536
 11
-112.688
 21
86.9123
  0
LINE
  8
0
 10
-112.688
 20
86.9123
 11
-112.573
 21
86.7634
  0
LINE
  8
0
 10
-112.573
 20
86.7634
 11
-112.467
 21
86.6075
  0
LINE
  8
0
 10
-112.467
 20
86.6075
 11
-112.371
 21
86.4453
  0
LINE
  8
0
 10
-112.371
 20
86.4453
 11
-112.286
 21
86.2773
  0
LINE
  8
0
 10
-112.286
 20
86.2773
 11
-112.211
 21
86.1044
  0
LINE
  8
0
 10
-112.211
 20
86.1044
 11
-112.147
 21
85.9271
  0
LINE
  8
0
 10
-112.147
 20
85.9271
 11
-112.094
 21
85.7461
  0
LINE
  8
0
 10
-112.094
 20
85.7461
 11
-112.053
 21
85.5621
  0
LINE
  8
0
 10
-112.053
 20
85.5621
 11
-112.024
 21
85.376
  0
LINE
  8
0
 10
-112.024
 20
85.376
 11
-112.006
 21
85.1884
  0
LINE
  8
0
 10
-112.006
 20
85.1884
 11
-112
 21
85
  0
LINE
  8
0
 10
-112
 20
85
 11
-112.006
 21
84.8116
  0
LINE
  8
0
 10
-112.006
 20
84.8116
 11
-112.024
 21
84.624
  0
LINE
  8
0
 10
-112.024
 20
84.624
 11
-112.053
 21
84.4379
  0
LINE
  8
0
 10
-112.053
 20
84.4379
 11
-112.094
 21
84.2539
  0
LINE
  8
0
 10
-112.094
 20
84.2539
 11
-112.147
 21
84.073
  0
LINE
  8
0
 10
-112.147
 20
84.073
 11
-112.211
 21
83.8956
  0
LINE
  8
0
 10
-112.211
 20
83.8956
 11
-112.286
 21
83.7227
  0
LINE
  8
0
 10
-112.286
 20
83.7227
 11
-112.371
 21
83.5547
  0
LINE
  8
0
 10
-112.371
 20
83.5547
 11
-112.467
 21
83.3925
  0
LINE
  8
0
 10
-112.467
 20
83.3925
 11
-112.573
 21
83.2366
  0
LINE
  8
0
 10
-112.573
 20
83.2366
 11
-112.688
 21
83.0877
  0
LINE
  8
0
 10
-112.688
 20
83.0877
 11
-112.813
 21
82.9464
  0
LINE
  8
0
 10
-112.813
 20
82.9464
 11
-112.946
 21
82.8131
  0
LINE
  8
0
 10
-112.946
 20
82.8131
 11
-113.088
 21
82.6885
  0
LINE
  8
0
 10
-113.088
 20
82.6885
 11
-113.237
 21
82.573
  0
LINE
  8
0
 10
-113.237
 20
82.573
 11
-113.393
 21
82.467
  0
LINE
  8
0
 10
-113.393
 20
82.467
 11
-113.555
 21
82.3711
  0
LINE
  8
0
 10
-113.555
 20
82.3711
 11
-113.723
 21
82.2855
  0
LINE
  8
0
 10
-113.723
 20
82.2855
 11
-113.896
 21
82.2107
  0
LINE
  8
0
 10
-113.896
 20
82.2107
 11
-114.073
 21
82.1468
  0
LINE
  8
0
 10
-114.073
 20
82.1468
 11
-114.254
 21
82.0943
  0
LINE
  8
0
 10
-114.254
 20
82.0943
 11
-114.438
 21
82.0531
  0
LINE
  8
0
 10
-114.438
 20
82.0531
 11
-114.624
 21
82.0237
  0
LINE
  8
0
 10
-114.624
 20
82.0237
 11
-114.812
 21
82.0059
  0
LINE
  8
0
 10
-114.812
 20
82.0059
 11
-115
 21
82
  0
LINE
  8
0
 10
-115
 20
82
 11
-115.188
 21
82.0059
  0
LINE
  8
0
 10
95
 20
-98
 11
95
 21
-92
  0
LINE
  8
0
 10
95
 20
-92
 11
115
 21
-92
  0
LINE
  8
0
 10
115
 20
-92
 11
115
 21
-98
  0
LINE
  8
0
 10
115
 20
-98
 11
95
 21
-98
  0
LINE
  8
0
 10
-115
 20
-98
 11
-115
 21
-92
  0
LINE
  8
0
 10
-115
 20
-92
 11
-95
 21
-92
  0
LINE
  8
0
 10
-95
 20
-92
 11
-95
 21
-98
  0
LINE
  8
0
 10
-95
 20
-98
 11
-115
 21
-98
  0
ENDSEC
  0
SECTION
  2
OBJECTS
  0
DICTIONARY
  0
ENDSEC
  0
EOF
