  0
SECTION
  2
BLOCKS
  0
ENDSEC
  0
SECTION
  2
ENTITIES
  0
LINE
  8
0
 10
0.816269
 20
-12.9743
 11
1.62932
 21
-12.8975
  0
LINE
  8
0
 10
1.62932
 20
-12.8975
 11
2.43594
 21
-12.7697
  0
LINE
  8
0
 10
2.43594
 20
-12.7697
 11
3.23296
 21
-12.5916
  0
LINE
  8
0
 10
3.23296
 20
-12.5916
 11
4.01721
 21
-12.3637
  0
LINE
  8
0
 10
4.01721
 20
-12.3637
 11
4.78561
 21
-12.0871
  0
LINE
  8
0
 10
4.78561
 20
-12.0871
 11
5.53513
 21
-11.7627
  0
LINE
  8
0
 10
5.53513
 20
-11.7627
 11
6.26279
 21
-11.392
  0
LINE
  8
0
 10
6.26279
 20
-11.392
 11
6.96574
 21
-10.9763
  0
LINE
  8
0
 10
6.96574
 20
-10.9763
 11
7.6412
 21
-10.5172
  0
LINE
  8
0
 10
7.6412
 20
-10.5172
 11
8.2865
 21
-10.0167
  0
LINE
  8
0
 10
8.2865
 20
-10.0167
 11
8.89911
 21
-9.47658
  0
LINE
  8
0
 10
8.89911
 20
-9.47658
 11
9.47658
 21
-8.89911
  0
LINE
  8
0
 10
9.47658
 20
-8.89911
 11
10.0167
 21
-8.2865
  0
LINE
  8
0
 10
10.0167
 20
-8.2865
 11
10.5172
 21
-7.6412
  0
LINE
  8
0
 10
10.5172
 20
-7.6412
 11
10.9763
 21
-6.96574
  0
LINE
  8
0
 10
10.9763
 20
-6.96574
 11
11.392
 21
-6.26279
  0
LINE
  8
0
 10
11.392
 20
-6.26279
 11
11.7627
 21
-5.53513
  0
LINE
  8
0
 10
11.7627
 20
-5.53513
 11
12.0871
 21
-4.78561
  0
LINE
  8
0
 10
12.0871
 20
-4.78561
 11
12.3637
 21
-4.01721
  0
LINE
  8
0
 10
12.3637
 20
-4.01721
 11
12.5916
 21
-3.23296
  0
LINE
  8
0
 10
12.5916
 20
-3.23296
 11
12.7697
 21
-2.43594
  0
LINE
  8
0
 10
12.7697
 20
-2.43594
 11
12.8975
 21
-1.62932
  0
LINE
  8
0
 10
12.8975
 20
-1.62932
 11
12.9743
 21
-0.816269
  0
LINE
  8
0
 10
12.9743
 20
-0.816269
 11
13
 21
0
  0
LINE
  8
0
 10
13
 20
0
 11
12.9743
 21
0.816269
  0
LINE
  8
0
 10
12.9743
 20
0.816269
 11
12.8975
 21
1.62932
  0
LINE
  8
0
 10
12.8975
 20
1.62932
 11
12.7697
 21
2.43594
  0
LINE
  8
0
 10
12.7697
 20
2.43594
 11
12.5916
 21
3.23296
  0
LINE
  8
0
 10
12.5916
 20
3.23296
 11
12.3637
 21
4.01721
  0
LINE
  8
0
 10
12.3637
 20
4.01721
 11
12.0871
 21
4.78561
  0
LINE
  8
0
 10
12.0871
 20
4.78561
 11
11.7627
 21
5.53513
  0
LINE
  8
0
 10
11.7627
 20
5.53513
 11
11.392
 21
6.26279
  0
LINE
  8
0
 10
11.392
 20
6.26279
 11
10.9763
 21
6.96574
  0
LINE
  8
0
 10
10.9763
 20
6.96574
 11
10.5172
 21
7.6412
  0
LINE
  8
0
 10
10.5172
 20
7.6412
 11
10.0167
 21
8.2865
  0
LINE
  8
0
 10
10.0167
 20
8.2865
 11
9.47658
 21
8.89911
  0
LINE
  8
0
 10
9.47658
 20
8.89911
 11
8.89911
 21
9.47658
  0
LINE
  8
0
 10
8.89911
 20
9.47658
 11
8.2865
 21
10.0167
  0
LINE
  8
0
 10
8.2865
 20
10.0167
 11
7.6412
 21
10.5172
  0
LINE
  8
0
 10
7.6412
 20
10.5172
 11
6.96574
 21
10.9763
  0
LINE
  8
0
 10
6.96574
 20
10.9763
 11
6.26279
 21
11.392
  0
LINE
  8
0
 10
6.26279
 20
11.392
 11
5.53513
 21
11.7627
  0
LINE
  8
0
 10
5.53513
 20
11.7627
 11
4.78561
 21
12.0871
  0
LINE
  8
0
 10
4.78561
 20
12.0871
 11
4.01721
 21
12.3637
  0
LINE
  8
0
 10
4.01721
 20
12.3637
 11
3.23296
 21
12.5916
  0
LINE
  8
0
 10
3.23296
 20
12.5916
 11
2.43594
 21
12.7697
  0
LINE
  8
0
 10
2.43594
 20
12.7697
 11
1.62932
 21
12.8975
  0
LINE
  8
0
 10
1.62932
 20
12.8975
 11
0.816269
 21
12.9743
  0
LINE
  8
0
 10
0.816269
 20
12.9743
 11
0
 21
13
  0
LINE
  8
0
 10
0
 20
13
 11
-0.816269
 21
12.9743
  0
LINE
  8
0
 10
-0.816269
 20
12.9743
 11
-1.62932
 21
12.8975
  0
LINE
  8
0
 10
-1.62932
 20
12.8975
 11
-2.43594
 21
12.7697
  0
LINE
  8
0
 10
-2.43594
 20
12.7697
 11
-3.23296
 21
12.5916
  0
LINE
  8
0
 10
-3.23296
 20
12.5916
 11
-4.01721
 21
12.3637
  0
LINE
  8
0
 10
-4.01721
 20
12.3637
 11
-4.78561
 21
12.0871
  0
LINE
  8
0
 10
-4.78561
 20
12.0871
 11
-5.53513
 21
11.7627
  0
LINE
  8
0
 10
-5.53513
 20
11.7627
 11
-6.26279
 21
11.392
  0
LINE
  8
0
 10
-6.26279
 20
11.392
 11
-6.96574
 21
10.9763
  0
LINE
  8
0
 10
-6.96574
 20
10.9763
 11
-7.6412
 21
10.5172
  0
LINE
  8
0
 10
-7.6412
 20
10.5172
 11
-8.2865
 21
10.0167
  0
LINE
  8
0
 10
-8.2865
 20
10.0167
 11
-8.89911
 21
9.47658
  0
LINE
  8
0
 10
-8.89911
 20
9.47658
 11
-9.47658
 21
8.89911
  0
LINE
  8
0
 10
-9.47658
 20
8.89911
 11
-10.0167
 21
8.2865
  0
LINE
  8
0
 10
-10.0167
 20
8.2865
 11
-10.5172
 21
7.6412
  0
LINE
  8
0
 10
-10.5172
 20
7.6412
 11
-10.9763
 21
6.96574
  0
LINE
  8
0
 10
-10.9763
 20
6.96574
 11
-11.392
 21
6.26279
  0
LINE
  8
0
 10
-11.392
 20
6.26279
 11
-11.7627
 21
5.53513
  0
LINE
  8
0
 10
-11.7627
 20
5.53513
 11
-12.0871
 21
4.78561
  0
LINE
  8
0
 10
-12.0871
 20
4.78561
 11
-12.3637
 21
4.01721
  0
LINE
  8
0
 10
-12.3637
 20
4.01721
 11
-12.5916
 21
3.23296
  0
LINE
  8
0
 10
-12.5916
 20
3.23296
 11
-12.7697
 21
2.43594
  0
LINE
  8
0
 10
-12.7697
 20
2.43594
 11
-12.8975
 21
1.62932
  0
LINE
  8
0
 10
-12.8975
 20
1.62932
 11
-12.9743
 21
0.816269
  0
LINE
  8
0
 10
-12.9743
 20
0.816269
 11
-13
 21
0
  0
LINE
  8
0
 10
-13
 20
0
 11
-12.9743
 21
-0.816269
  0
LINE
  8
0
 10
-12.9743
 20
-0.816269
 11
-12.8975
 21
-1.62932
  0
LINE
  8
0
 10
-12.8975
 20
-1.62932
 11
-12.7697
 21
-2.43594
  0
LINE
  8
0
 10
-12.7697
 20
-2.43594
 11
-12.5916
 21
-3.23296
  0
LINE
  8
0
 10
-12.5916
 20
-3.23296
 11
-12.3637
 21
-4.01721
  0
LINE
  8
0
 10
-12.3637
 20
-4.01721
 11
-12.0871
 21
-4.78561
  0
LINE
  8
0
 10
-12.0871
 20
-4.78561
 11
-11.7627
 21
-5.53513
  0
LINE
  8
0
 10
-11.7627
 20
-5.53513
 11
-11.392
 21
-6.26279
  0
LINE
  8
0
 10
-11.392
 20
-6.26279
 11
-10.9763
 21
-6.96574
  0
LINE
  8
0
 10
-10.9763
 20
-6.96574
 11
-10.5172
 21
-7.6412
  0
LINE
  8
0
 10
-10.5172
 20
-7.6412
 11
-10.0167
 21
-8.2865
  0
LINE
  8
0
 10
-10.0167
 20
-8.2865
 11
-9.47658
 21
-8.89911
  0
LINE
  8
0
 10
-9.47658
 20
-8.89911
 11
-8.89911
 21
-9.47658
  0
LINE
  8
0
 10
-8.89911
 20
-9.47658
 11
-8.2865
 21
-10.0167
  0
LINE
  8
0
 10
-8.2865
 20
-10.0167
 11
-7.6412
 21
-10.5172
  0
LINE
  8
0
 10
-7.6412
 20
-10.5172
 11
-6.96574
 21
-10.9763
  0
LINE
  8
0
 10
-6.96574
 20
-10.9763
 11
-6.26279
 21
-11.392
  0
LINE
  8
0
 10
-6.26279
 20
-11.392
 11
-5.53513
 21
-11.7627
  0
LINE
  8
0
 10
-5.53513
 20
-11.7627
 11
-4.78561
 21
-12.0871
  0
LINE
  8
0
 10
-4.78561
 20
-12.0871
 11
-4.01721
 21
-12.3637
  0
LINE
  8
0
 10
-4.01721
 20
-12.3637
 11
-3.23296
 21
-12.5916
  0
LINE
  8
0
 10
-3.23296
 20
-12.5916
 11
-2.43594
 21
-12.7697
  0
LINE
  8
0
 10
-2.43594
 20
-12.7697
 11
-1.62932
 21
-12.8975
  0
LINE
  8
0
 10
-1.62932
 20
-12.8975
 11
-0.816269
 21
-12.9743
  0
LINE
  8
0
 10
-0.816269
 20
-12.9743
 11
0
 21
-13
  0
LINE
  8
0
 10
0
 20
-13
 11
0.816269
 21
-12.9743
  0
LINE
  8
0
 10
-0.25116
 20
-3.9921
 11
-0.501328
 21
-3.96844
  0
LINE
  8
0
 10
-0.501328
 20
-3.96844
 11
-0.749512
 21
-3.92914
  0
LINE
  8
0
 10
-0.749512
 20
-3.92914
 11
-0.994751
 21
-3.87433
  0
LINE
  8
0
 10
-0.994751
 20
-3.87433
 11
-1.23605
 21
-3.80421
  0
LINE
  8
0
 10
-1.23605
 20
-3.80421
 11
-1.47249
 21
-3.7191
  0
LINE
  8
0
 10
-1.47249
 20
-3.7191
 11
-1.70311
 21
-3.61929
  0
LINE
  8
0
 10
-1.70311
 20
-3.61929
 11
-1.927
 21
-3.50522
  0
LINE
  8
0
 10
-1.927
 20
-3.50522
 11
-2.1433
 21
-3.3773
  0
LINE
  8
0
 10
-2.1433
 20
-3.3773
 11
-2.35114
 21
-3.23605
  0
LINE
  8
0
 10
-2.35114
 20
-3.23605
 11
-2.54968
 21
-3.08205
  0
LINE
  8
0
 10
-2.54968
 20
-3.08205
 11
-2.73817
 21
-2.91586
  0
LINE
  8
0
 10
-2.73817
 20
-2.91586
 11
-2.91586
 21
-2.73817
  0
LINE
  8
0
 10
-2.91586
 20
-2.73817
 11
-3.08205
 21
-2.54968
  0
LINE
  8
0
 10
-3.08205
 20
-2.54968
 11
-3.23605
 21
-2.35114
  0
LINE
  8
0
 10
-3.23605
 20
-2.35114
 11
-3.3773
 21
-2.1433
  0
LINE
  8
0
 10
-3.3773
 20
-2.1433
 11
-3.50522
 21
-1.927
  0
LINE
  8
0
 10
-3.50522
 20
-1.927
 11
-3.61929
 21
-1.70311
  0
LINE
  8
0
 10
-3.61929
 20
-1.70311
 11
-3.7191
 21
-1.47249
  0
LINE
  8
0
 10
-3.7191
 20
-1.47249
 11
-3.80421
 21
-1.23605
  0
LINE
  8
0
 10
-3.80421
 20
-1.23605
 11
-3.87433
 21
-0.994751
  0
LINE
  8
0
 10
-3.87433
 20
-0.994751
 11
-3.92914
 21
-0.749512
  0
LINE
  8
0
 10
-3.92914
 20
-0.749512
 11
-3.96844
 21
-0.501328
  0
LINE
  8
0
 10
-3.96844
 20
-0.501328
 11
-3.9921
 21
-0.25116
  0
LINE
  8
0
 10
-3.9921
 20
-0.25116
 11
-4
 21
0
  0
LINE
  8
0
 10
-4
 20
0
 11
-3.9921
 21
0.25116
  0
LINE
  8
0
 10
-3.9921
 20
0.25116
 11
-3.96844
 21
0.501328
  0
LINE
  8
0
 10
-3.96844
 20
0.501328
 11
-3.92914
 21
0.749512
  0
LINE
  8
0
 10
-3.92914
 20
0.749512
 11
-3.87433
 21
0.994751
  0
LINE
  8
0
 10
-3.87433
 20
0.994751
 11
-3.80421
 21
1.23605
  0
LINE
  8
0
 10
-3.80421
 20
1.23605
 11
-3.7191
 21
1.47249
  0
LINE
  8
0
 10
-3.7191
 20
1.47249
 11
-3.61929
 21
1.70311
  0
LINE
  8
0
 10
-3.61929
 20
1.70311
 11
-3.50522
 21
1.927
  0
LINE
  8
0
 10
-3.50522
 20
1.927
 11
-3.3773
 21
2.1433
  0
LINE
  8
0
 10
-3.3773
 20
2.1433
 11
-3.23605
 21
2.35114
  0
LINE
  8
0
 10
-3.23605
 20
2.35114
 11
-3.08205
 21
2.54968
  0
LINE
  8
0
 10
-3.08205
 20
2.54968
 11
-2.91586
 21
2.73817
  0
LINE
  8
0
 10
-2.91586
 20
2.73817
 11
-2.73817
 21
2.91586
  0
LINE
  8
0
 10
-2.73817
 20
2.91586
 11
-2.54968
 21
3.08205
  0
LINE
  8
0
 10
-2.54968
 20
3.08205
 11
-2.35114
 21
3.23605
  0
LINE
  8
0
 10
-2.35114
 20
3.23605
 11
-2.1433
 21
3.3773
  0
LINE
  8
0
 10
-2.1433
 20
3.3773
 11
-1.927
 21
3.50522
  0
LINE
  8
0
 10
-1.927
 20
3.50522
 11
-1.70311
 21
3.61929
  0
LINE
  8
0
 10
-1.70311
 20
3.61929
 11
-1.47249
 21
3.7191
  0
LINE
  8
0
 10
-1.47249
 20
3.7191
 11
-1.23605
 21
3.80421
  0
LINE
  8
0
 10
-1.23605
 20
3.80421
 11
-0.994751
 21
3.87433
  0
LINE
  8
0
 10
-0.994751
 20
3.87433
 11
-0.749512
 21
3.92914
  0
LINE
  8
0
 10
-0.749512
 20
3.92914
 11
-0.501328
 21
3.96844
  0
LINE
  8
0
 10
-0.501328
 20
3.96844
 11
-0.25116
 21
3.9921
  0
LINE
  8
0
 10
-0.25116
 20
3.9921
 11
0
 21
4
  0
LINE
  8
0
 10
0
 20
4
 11
0.25116
 21
3.9921
  0
LINE
  8
0
 10
0.25116
 20
3.9921
 11
0.501328
 21
3.96844
  0
LINE
  8
0
 10
0.501328
 20
3.96844
 11
0.749512
 21
3.92914
  0
LINE
  8
0
 10
0.749512
 20
3.92914
 11
0.994751
 21
3.87433
  0
LINE
  8
0
 10
0.994751
 20
3.87433
 11
1.23605
 21
3.80421
  0
LINE
  8
0
 10
1.23605
 20
3.80421
 11
1.47249
 21
3.7191
  0
LINE
  8
0
 10
1.47249
 20
3.7191
 11
1.70311
 21
3.61929
  0
LINE
  8
0
 10
1.70311
 20
3.61929
 11
1.927
 21
3.50522
  0
LINE
  8
0
 10
1.927
 20
3.50522
 11
2.1433
 21
3.3773
  0
LINE
  8
0
 10
2.1433
 20
3.3773
 11
2.35114
 21
3.23605
  0
LINE
  8
0
 10
2.35114
 20
3.23605
 11
2.54968
 21
3.08205
  0
LINE
  8
0
 10
2.54968
 20
3.08205
 11
2.73817
 21
2.91586
  0
LINE
  8
0
 10
2.73817
 20
2.91586
 11
2.91586
 21
2.73817
  0
LINE
  8
0
 10
2.91586
 20
2.73817
 11
3.08205
 21
2.54968
  0
LINE
  8
0
 10
3.08205
 20
2.54968
 11
3.23605
 21
2.35114
  0
LINE
  8
0
 10
3.23605
 20
2.35114
 11
3.3773
 21
2.1433
  0
LINE
  8
0
 10
3.3773
 20
2.1433
 11
3.50522
 21
1.927
  0
LINE
  8
0
 10
3.50522
 20
1.927
 11
3.61929
 21
1.70311
  0
LINE
  8
0
 10
3.61929
 20
1.70311
 11
3.7191
 21
1.47249
  0
LINE
  8
0
 10
3.7191
 20
1.47249
 11
3.80421
 21
1.23605
  0
LINE
  8
0
 10
3.80421
 20
1.23605
 11
3.87433
 21
0.994751
  0
LINE
  8
0
 10
3.87433
 20
0.994751
 11
3.92914
 21
0.749512
  0
LINE
  8
0
 10
3.92914
 20
0.749512
 11
3.96844
 21
0.501328
  0
LINE
  8
0
 10
3.96844
 20
0.501328
 11
3.9921
 21
0.25116
  0
LINE
  8
0
 10
3.9921
 20
0.25116
 11
4
 21
0
  0
LINE
  8
0
 10
4
 20
0
 11
3.9921
 21
-0.25116
  0
LINE
  8
0
 10
3.9921
 20
-0.25116
 11
3.96844
 21
-0.501328
  0
LINE
  8
0
 10
3.96844
 20
-0.501328
 11
3.92914
 21
-0.749512
  0
LINE
  8
0
 10
3.92914
 20
-0.749512
 11
3.87433
 21
-0.994751
  0
LINE
  8
0
 10
3.87433
 20
-0.994751
 11
3.80421
 21
-1.23605
  0
LINE
  8
0
 10
3.80421
 20
-1.23605
 11
3.7191
 21
-1.47249
  0
LINE
  8
0
 10
3.7191
 20
-1.47249
 11
3.61929
 21
-1.70311
  0
LINE
  8
0
 10
3.61929
 20
-1.70311
 11
3.50522
 21
-1.927
  0
LINE
  8
0
 10
3.50522
 20
-1.927
 11
3.3773
 21
-2.1433
  0
LINE
  8
0
 10
3.3773
 20
-2.1433
 11
3.23605
 21
-2.35114
  0
LINE
  8
0
 10
3.23605
 20
-2.35114
 11
3.08205
 21
-2.54968
  0
LINE
  8
0
 10
3.08205
 20
-2.54968
 11
2.91586
 21
-2.73817
  0
LINE
  8
0
 10
2.91586
 20
-2.73817
 11
2.73817
 21
-2.91586
  0
LINE
  8
0
 10
2.73817
 20
-2.91586
 11
2.54968
 21
-3.08205
  0
LINE
  8
0
 10
2.54968
 20
-3.08205
 11
2.35114
 21
-3.23605
  0
LINE
  8
0
 10
2.35114
 20
-3.23605
 11
2.1433
 21
-3.3773
  0
LINE
  8
0
 10
2.1433
 20
-3.3773
 11
1.927
 21
-3.50522
  0
LINE
  8
0
 10
1.927
 20
-3.50522
 11
1.70311
 21
-3.61929
  0
LINE
  8
0
 10
1.70311
 20
-3.61929
 11
1.47249
 21
-3.7191
  0
LINE
  8
0
 10
1.47249
 20
-3.7191
 11
1.23605
 21
-3.80421
  0
LINE
  8
0
 10
1.23605
 20
-3.80421
 11
0.994751
 21
-3.87433
  0
LINE
  8
0
 10
0.994751
 20
-3.87433
 11
0.749512
 21
-3.92914
  0
LINE
  8
0
 10
0.749512
 20
-3.92914
 11
0.501328
 21
-3.96844
  0
LINE
  8
0
 10
0.501328
 20
-3.96844
 11
0.25116
 21
-3.9921
  0
LINE
  8
0
 10
0.25116
 20
-3.9921
 11
0
 21
-4
  0
LINE
  8
0
 10
0
 20
-4
 11
-0.25116
 21
-3.9921
  0
ENDSEC
  0
SECTION
  2
OBJECTS
  0
DICTIONARY
  0
ENDSEC
  0
EOF
