  0
SECTION
  2
BLOCKS
  0
ENDSEC
  0
SECTION
  2
ENTITIES
  0
LINE
  8
0
 10
90
 20
41
 11
-50
 21
41
  0
LINE
  8
0
 10
-50
 20
41
 11
-50
 21
-41
  0
LINE
  8
0
 10
-50
 20
-41
 11
90
 21
-41
  0
LINE
  8
0
 10
90
 20
-41
 11
90
 21
41
  0
LINE
  8
0
 10
30.0488
 20
27.5079
 11
29.7987
 21
27.5315
  0
LINE
  8
0
 10
29.7987
 20
27.5315
 11
29.5505
 21
27.5708
  0
LINE
  8
0
 10
29.5505
 20
27.5708
 11
29.3052
 21
27.6257
  0
LINE
  8
0
 10
29.3052
 20
27.6257
 11
29.0639
 21
27.6958
  0
LINE
  8
0
 10
29.0639
 20
27.6958
 11
28.8275
 21
27.7809
  0
LINE
  8
0
 10
28.8275
 20
27.7809
 11
28.5969
 21
27.8807
  0
LINE
  8
0
 10
28.5969
 20
27.8807
 11
28.373
 21
27.9948
  0
LINE
  8
0
 10
28.373
 20
27.9948
 11
28.1567
 21
28.1227
  0
LINE
  8
0
 10
28.1567
 20
28.1227
 11
27.9489
 21
28.2639
  0
LINE
  8
0
 10
27.9489
 20
28.2639
 11
27.7503
 21
28.4179
  0
LINE
  8
0
 10
27.7503
 20
28.4179
 11
27.5618
 21
28.5841
  0
LINE
  8
0
 10
27.5618
 20
28.5841
 11
27.3841
 21
28.7618
  0
LINE
  8
0
 10
27.3841
 20
28.7618
 11
27.2179
 21
28.9503
  0
LINE
  8
0
 10
27.2179
 20
28.9503
 11
27.0639
 21
29.1488
  0
LINE
  8
0
 10
27.0639
 20
29.1488
 11
26.9227
 21
29.3567
  0
LINE
  8
0
 10
26.9227
 20
29.3567
 11
26.7948
 21
29.573
  0
LINE
  8
0
 10
26.7948
 20
29.573
 11
26.6807
 21
29.7969
  0
LINE
  8
0
 10
26.6807
 20
29.7969
 11
26.5809
 21
30.0275
  0
LINE
  8
0
 10
26.5809
 20
30.0275
 11
26.4958
 21
30.2639
  0
LINE
  8
0
 10
26.4958
 20
30.2639
 11
26.4257
 21
30.5052
  0
LINE
  8
0
 10
26.4257
 20
30.5052
 11
26.3708
 21
30.7505
  0
LINE
  8
0
 10
26.3708
 20
30.7505
 11
26.3315
 21
30.9987
  0
LINE
  8
0
 10
26.3315
 20
30.9987
 11
26.3079
 21
31.2488
  0
LINE
  8
0
 10
26.3079
 20
31.2488
 11
26.3
 21
31.5
  0
LINE
  8
0
 10
26.3
 20
31.5
 11
26.3079
 21
31.7512
  0
LINE
  8
0
 10
26.3079
 20
31.7512
 11
26.3315
 21
32.0013
  0
LINE
  8
0
 10
26.3315
 20
32.0013
 11
26.3708
 21
32.2495
  0
LINE
  8
0
 10
26.3708
 20
32.2495
 11
26.4257
 21
32.4948
  0
LINE
  8
0
 10
26.4257
 20
32.4948
 11
26.4958
 21
32.7361
  0
LINE
  8
0
 10
26.4958
 20
32.7361
 11
26.5809
 21
32.9725
  0
LINE
  8
0
 10
26.5809
 20
32.9725
 11
26.6807
 21
33.2031
  0
LINE
  8
0
 10
26.6807
 20
33.2031
 11
26.7948
 21
33.427
  0
LINE
  8
0
 10
26.7948
 20
33.427
 11
26.9227
 21
33.6433
  0
LINE
  8
0
 10
26.9227
 20
33.6433
 11
27.0639
 21
33.8511
  0
LINE
  8
0
 10
27.0639
 20
33.8511
 11
27.2179
 21
34.0497
  0
LINE
  8
0
 10
27.2179
 20
34.0497
 11
27.3841
 21
34.2382
  0
LINE
  8
0
 10
27.3841
 20
34.2382
 11
27.5618
 21
34.4159
  0
LINE
  8
0
 10
27.5618
 20
34.4159
 11
27.7503
 21
34.582
  0
LINE
  8
0
 10
27.7503
 20
34.582
 11
27.9489
 21
34.7361
  0
LINE
  8
0
 10
27.9489
 20
34.7361
 11
28.1567
 21
34.8773
  0
LINE
  8
0
 10
28.1567
 20
34.8773
 11
28.373
 21
35.0052
  0
LINE
  8
0
 10
28.373
 20
35.0052
 11
28.5969
 21
35.1193
  0
LINE
  8
0
 10
28.5969
 20
35.1193
 11
28.8275
 21
35.2191
  0
LINE
  8
0
 10
28.8275
 20
35.2191
 11
29.0639
 21
35.3042
  0
LINE
  8
0
 10
29.0639
 20
35.3042
 11
29.3052
 21
35.3743
  0
LINE
  8
0
 10
29.3052
 20
35.3743
 11
29.5505
 21
35.4291
  0
LINE
  8
0
 10
29.5505
 20
35.4291
 11
29.7987
 21
35.4684
  0
LINE
  8
0
 10
29.7987
 20
35.4684
 11
30.0488
 21
35.4921
  0
LINE
  8
0
 10
30.0488
 20
35.4921
 11
30.3
 21
35.5
  0
LINE
  8
0
 10
30.3
 20
35.5
 11
30.5511
 21
35.4921
  0
LINE
  8
0
 10
30.5511
 20
35.4921
 11
30.8013
 21
35.4684
  0
LINE
  8
0
 10
30.8013
 20
35.4684
 11
31.0495
 21
35.4291
  0
LINE
  8
0
 10
31.0495
 20
35.4291
 11
31.2948
 21
35.3743
  0
LINE
  8
0
 10
31.2948
 20
35.3743
 11
31.5361
 21
35.3042
  0
LINE
  8
0
 10
31.5361
 20
35.3042
 11
31.7725
 21
35.2191
  0
LINE
  8
0
 10
31.7725
 20
35.2191
 11
32.0031
 21
35.1193
  0
LINE
  8
0
 10
32.0031
 20
35.1193
 11
32.227
 21
35.0052
  0
LINE
  8
0
 10
32.227
 20
35.0052
 11
32.4433
 21
34.8773
  0
LINE
  8
0
 10
32.4433
 20
34.8773
 11
32.6511
 21
34.7361
  0
LINE
  8
0
 10
32.6511
 20
34.7361
 11
32.8497
 21
34.582
  0
LINE
  8
0
 10
32.8497
 20
34.582
 11
33.0382
 21
34.4159
  0
LINE
  8
0
 10
33.0382
 20
34.4159
 11
33.2159
 21
34.2382
  0
LINE
  8
0
 10
33.2159
 20
34.2382
 11
33.382
 21
34.0497
  0
LINE
  8
0
 10
33.382
 20
34.0497
 11
33.5361
 21
33.8511
  0
LINE
  8
0
 10
33.5361
 20
33.8511
 11
33.6773
 21
33.6433
  0
LINE
  8
0
 10
33.6773
 20
33.6433
 11
33.8052
 21
33.427
  0
LINE
  8
0
 10
33.8052
 20
33.427
 11
33.9193
 21
33.2031
  0
LINE
  8
0
 10
33.9193
 20
33.2031
 11
34.0191
 21
32.9725
  0
LINE
  8
0
 10
34.0191
 20
32.9725
 11
34.1042
 21
32.7361
  0
LINE
  8
0
 10
34.1042
 20
32.7361
 11
34.1743
 21
32.4948
  0
LINE
  8
0
 10
34.1743
 20
32.4948
 11
34.2291
 21
32.2495
  0
LINE
  8
0
 10
34.2291
 20
32.2495
 11
34.2684
 21
32.0013
  0
LINE
  8
0
 10
34.2684
 20
32.0013
 11
34.2921
 21
31.7512
  0
LINE
  8
0
 10
34.2921
 20
31.7512
 11
34.3
 21
31.5
  0
LINE
  8
0
 10
34.3
 20
31.5
 11
34.2921
 21
31.2488
  0
LINE
  8
0
 10
34.2921
 20
31.2488
 11
34.2684
 21
30.9987
  0
LINE
  8
0
 10
34.2684
 20
30.9987
 11
34.2291
 21
30.7505
  0
LINE
  8
0
 10
34.2291
 20
30.7505
 11
34.1743
 21
30.5052
  0
LINE
  8
0
 10
34.1743
 20
30.5052
 11
34.1042
 21
30.2639
  0
LINE
  8
0
 10
34.1042
 20
30.2639
 11
34.0191
 21
30.0275
  0
LINE
  8
0
 10
34.0191
 20
30.0275
 11
33.9193
 21
29.7969
  0
LINE
  8
0
 10
33.9193
 20
29.7969
 11
33.8052
 21
29.573
  0
LINE
  8
0
 10
33.8052
 20
29.573
 11
33.6773
 21
29.3567
  0
LINE
  8
0
 10
33.6773
 20
29.3567
 11
33.5361
 21
29.1488
  0
LINE
  8
0
 10
33.5361
 20
29.1488
 11
33.382
 21
28.9503
  0
LINE
  8
0
 10
33.382
 20
28.9503
 11
33.2159
 21
28.7618
  0
LINE
  8
0
 10
33.2159
 20
28.7618
 11
33.0382
 21
28.5841
  0
LINE
  8
0
 10
33.0382
 20
28.5841
 11
32.8497
 21
28.4179
  0
LINE
  8
0
 10
32.8497
 20
28.4179
 11
32.6511
 21
28.2639
  0
LINE
  8
0
 10
32.6511
 20
28.2639
 11
32.4433
 21
28.1227
  0
LINE
  8
0
 10
32.4433
 20
28.1227
 11
32.227
 21
27.9948
  0
LINE
  8
0
 10
32.227
 20
27.9948
 11
32.0031
 21
27.8807
  0
LINE
  8
0
 10
32.0031
 20
27.8807
 11
31.7725
 21
27.7809
  0
LINE
  8
0
 10
31.7725
 20
27.7809
 11
31.5361
 21
27.6958
  0
LINE
  8
0
 10
31.5361
 20
27.6958
 11
31.2948
 21
27.6257
  0
LINE
  8
0
 10
31.2948
 20
27.6257
 11
31.0495
 21
27.5708
  0
LINE
  8
0
 10
31.0495
 20
27.5708
 11
30.8013
 21
27.5315
  0
LINE
  8
0
 10
30.8013
 20
27.5315
 11
30.5511
 21
27.5079
  0
LINE
  8
0
 10
30.5511
 20
27.5079
 11
30.3
 21
27.5
  0
LINE
  8
0
 10
30.3
 20
27.5
 11
30.0488
 21
27.5079
  0
LINE
  8
0
 10
-30.5511
 20
27.5079
 11
-30.8013
 21
27.5315
  0
LINE
  8
0
 10
-30.8013
 20
27.5315
 11
-31.0495
 21
27.5708
  0
LINE
  8
0
 10
-31.0495
 20
27.5708
 11
-31.2948
 21
27.6257
  0
LINE
  8
0
 10
-31.2948
 20
27.6257
 11
-31.5361
 21
27.6958
  0
LINE
  8
0
 10
-31.5361
 20
27.6958
 11
-31.7725
 21
27.7809
  0
LINE
  8
0
 10
-31.7725
 20
27.7809
 11
-32.0031
 21
27.8807
  0
LINE
  8
0
 10
-32.0031
 20
27.8807
 11
-32.227
 21
27.9948
  0
LINE
  8
0
 10
-32.227
 20
27.9948
 11
-32.4433
 21
28.1227
  0
LINE
  8
0
 10
-32.4433
 20
28.1227
 11
-32.6511
 21
28.2639
  0
LINE
  8
0
 10
-32.6511
 20
28.2639
 11
-32.8497
 21
28.4179
  0
LINE
  8
0
 10
-32.8497
 20
28.4179
 11
-33.0382
 21
28.5841
  0
LINE
  8
0
 10
-33.0382
 20
28.5841
 11
-33.2159
 21
28.7618
  0
LINE
  8
0
 10
-33.2159
 20
28.7618
 11
-33.382
 21
28.9503
  0
LINE
  8
0
 10
-33.382
 20
28.9503
 11
-33.5361
 21
29.1488
  0
LINE
  8
0
 10
-33.5361
 20
29.1488
 11
-33.6773
 21
29.3567
  0
LINE
  8
0
 10
-33.6773
 20
29.3567
 11
-33.8052
 21
29.573
  0
LINE
  8
0
 10
-33.8052
 20
29.573
 11
-33.9193
 21
29.7969
  0
LINE
  8
0
 10
-33.9193
 20
29.7969
 11
-34.0191
 21
30.0275
  0
LINE
  8
0
 10
-34.0191
 20
30.0275
 11
-34.1042
 21
30.2639
  0
LINE
  8
0
 10
-34.1042
 20
30.2639
 11
-34.1743
 21
30.5052
  0
LINE
  8
0
 10
-34.1743
 20
30.5052
 11
-34.2291
 21
30.7505
  0
LINE
  8
0
 10
-34.2291
 20
30.7505
 11
-34.2684
 21
30.9987
  0
LINE
  8
0
 10
-34.2684
 20
30.9987
 11
-34.2921
 21
31.2488
  0
LINE
  8
0
 10
-34.2921
 20
31.2488
 11
-34.3
 21
31.5
  0
LINE
  8
0
 10
-34.3
 20
31.5
 11
-34.2921
 21
31.7512
  0
LINE
  8
0
 10
-34.2921
 20
31.7512
 11
-34.2684
 21
32.0013
  0
LINE
  8
0
 10
-34.2684
 20
32.0013
 11
-34.2291
 21
32.2495
  0
LINE
  8
0
 10
-34.2291
 20
32.2495
 11
-34.1743
 21
32.4948
  0
LINE
  8
0
 10
-34.1743
 20
32.4948
 11
-34.1042
 21
32.7361
  0
LINE
  8
0
 10
-34.1042
 20
32.7361
 11
-34.0191
 21
32.9725
  0
LINE
  8
0
 10
-34.0191
 20
32.9725
 11
-33.9193
 21
33.2031
  0
LINE
  8
0
 10
-33.9193
 20
33.2031
 11
-33.8052
 21
33.427
  0
LINE
  8
0
 10
-33.8052
 20
33.427
 11
-33.6773
 21
33.6433
  0
LINE
  8
0
 10
-33.6773
 20
33.6433
 11
-33.5361
 21
33.8511
  0
LINE
  8
0
 10
-33.5361
 20
33.8511
 11
-33.382
 21
34.0497
  0
LINE
  8
0
 10
-33.382
 20
34.0497
 11
-33.2159
 21
34.2382
  0
LINE
  8
0
 10
-33.2159
 20
34.2382
 11
-33.0382
 21
34.4159
  0
LINE
  8
0
 10
-33.0382
 20
34.4159
 11
-32.8497
 21
34.582
  0
LINE
  8
0
 10
-32.8497
 20
34.582
 11
-32.6511
 21
34.7361
  0
LINE
  8
0
 10
-32.6511
 20
34.7361
 11
-32.4433
 21
34.8773
  0
LINE
  8
0
 10
-32.4433
 20
34.8773
 11
-32.227
 21
35.0052
  0
LINE
  8
0
 10
-32.227
 20
35.0052
 11
-32.0031
 21
35.1193
  0
LINE
  8
0
 10
-32.0031
 20
35.1193
 11
-31.7725
 21
35.2191
  0
LINE
  8
0
 10
-31.7725
 20
35.2191
 11
-31.5361
 21
35.3042
  0
LINE
  8
0
 10
-31.5361
 20
35.3042
 11
-31.2948
 21
35.3743
  0
LINE
  8
0
 10
-31.2948
 20
35.3743
 11
-31.0495
 21
35.4291
  0
LINE
  8
0
 10
-31.0495
 20
35.4291
 11
-30.8013
 21
35.4684
  0
LINE
  8
0
 10
-30.8013
 20
35.4684
 11
-30.5511
 21
35.4921
  0
LINE
  8
0
 10
-30.5511
 20
35.4921
 11
-30.3
 21
35.5
  0
LINE
  8
0
 10
-30.3
 20
35.5
 11
-30.0488
 21
35.4921
  0
LINE
  8
0
 10
-30.0488
 20
35.4921
 11
-29.7987
 21
35.4684
  0
LINE
  8
0
 10
-29.7987
 20
35.4684
 11
-29.5505
 21
35.4291
  0
LINE
  8
0
 10
-29.5505
 20
35.4291
 11
-29.3052
 21
35.3743
  0
LINE
  8
0
 10
-29.3052
 20
35.3743
 11
-29.0639
 21
35.3042
  0
LINE
  8
0
 10
-29.0639
 20
35.3042
 11
-28.8275
 21
35.2191
  0
LINE
  8
0
 10
-28.8275
 20
35.2191
 11
-28.5969
 21
35.1193
  0
LINE
  8
0
 10
-28.5969
 20
35.1193
 11
-28.373
 21
35.0052
  0
LINE
  8
0
 10
-28.373
 20
35.0052
 11
-28.1567
 21
34.8773
  0
LINE
  8
0
 10
-28.1567
 20
34.8773
 11
-27.9489
 21
34.7361
  0
LINE
  8
0
 10
-27.9489
 20
34.7361
 11
-27.7503
 21
34.582
  0
LINE
  8
0
 10
-27.7503
 20
34.582
 11
-27.5618
 21
34.4159
  0
LINE
  8
0
 10
-27.5618
 20
34.4159
 11
-27.3841
 21
34.2382
  0
LINE
  8
0
 10
-27.3841
 20
34.2382
 11
-27.2179
 21
34.0497
  0
LINE
  8
0
 10
-27.2179
 20
34.0497
 11
-27.0639
 21
33.8511
  0
LINE
  8
0
 10
-27.0639
 20
33.8511
 11
-26.9227
 21
33.6433
  0
LINE
  8
0
 10
-26.9227
 20
33.6433
 11
-26.7948
 21
33.427
  0
LINE
  8
0
 10
-26.7948
 20
33.427
 11
-26.6807
 21
33.2031
  0
LINE
  8
0
 10
-26.6807
 20
33.2031
 11
-26.5809
 21
32.9725
  0
LINE
  8
0
 10
-26.5809
 20
32.9725
 11
-26.4958
 21
32.7361
  0
LINE
  8
0
 10
-26.4958
 20
32.7361
 11
-26.4257
 21
32.4948
  0
LINE
  8
0
 10
-26.4257
 20
32.4948
 11
-26.3708
 21
32.2495
  0
LINE
  8
0
 10
-26.3708
 20
32.2495
 11
-26.3315
 21
32.0013
  0
LINE
  8
0
 10
-26.3315
 20
32.0013
 11
-26.3079
 21
31.7512
  0
LINE
  8
0
 10
-26.3079
 20
31.7512
 11
-26.3
 21
31.5
  0
LINE
  8
0
 10
-26.3
 20
31.5
 11
-26.3079
 21
31.2488
  0
LINE
  8
0
 10
-26.3079
 20
31.2488
 11
-26.3315
 21
30.9987
  0
LINE
  8
0
 10
-26.3315
 20
30.9987
 11
-26.3708
 21
30.7505
  0
LINE
  8
0
 10
-26.3708
 20
30.7505
 11
-26.4257
 21
30.5052
  0
LINE
  8
0
 10
-26.4257
 20
30.5052
 11
-26.4958
 21
30.2639
  0
LINE
  8
0
 10
-26.4958
 20
30.2639
 11
-26.5809
 21
30.0275
  0
LINE
  8
0
 10
-26.5809
 20
30.0275
 11
-26.6807
 21
29.7969
  0
LINE
  8
0
 10
-26.6807
 20
29.7969
 11
-26.7948
 21
29.573
  0
LINE
  8
0
 10
-26.7948
 20
29.573
 11
-26.9227
 21
29.3567
  0
LINE
  8
0
 10
-26.9227
 20
29.3567
 11
-27.0639
 21
29.1488
  0
LINE
  8
0
 10
-27.0639
 20
29.1488
 11
-27.2179
 21
28.9503
  0
LINE
  8
0
 10
-27.2179
 20
28.9503
 11
-27.3841
 21
28.7618
  0
LINE
  8
0
 10
-27.3841
 20
28.7618
 11
-27.5618
 21
28.5841
  0
LINE
  8
0
 10
-27.5618
 20
28.5841
 11
-27.7503
 21
28.4179
  0
LINE
  8
0
 10
-27.7503
 20
28.4179
 11
-27.9489
 21
28.2639
  0
LINE
  8
0
 10
-27.9489
 20
28.2639
 11
-28.1567
 21
28.1227
  0
LINE
  8
0
 10
-28.1567
 20
28.1227
 11
-28.373
 21
27.9948
  0
LINE
  8
0
 10
-28.373
 20
27.9948
 11
-28.5969
 21
27.8807
  0
LINE
  8
0
 10
-28.5969
 20
27.8807
 11
-28.8275
 21
27.7809
  0
LINE
  8
0
 10
-28.8275
 20
27.7809
 11
-29.0639
 21
27.6958
  0
LINE
  8
0
 10
-29.0639
 20
27.6958
 11
-29.3052
 21
27.6257
  0
LINE
  8
0
 10
-29.3052
 20
27.6257
 11
-29.5505
 21
27.5708
  0
LINE
  8
0
 10
-29.5505
 20
27.5708
 11
-29.7987
 21
27.5315
  0
LINE
  8
0
 10
-29.7987
 20
27.5315
 11
-30.0488
 21
27.5079
  0
LINE
  8
0
 10
-30.0488
 20
27.5079
 11
-30.3
 21
27.5
  0
LINE
  8
0
 10
-30.3
 20
27.5
 11
-30.5511
 21
27.5079
  0
LINE
  8
0
 10
74.9058
 20
13.5029
 11
74.812
 21
13.5118
  0
LINE
  8
0
 10
74.812
 20
13.5118
 11
74.7189
 21
13.5266
  0
LINE
  8
0
 10
74.7189
 20
13.5266
 11
74.627
 21
13.5471
  0
LINE
  8
0
 10
74.627
 20
13.5471
 11
74.5365
 21
13.5734
  0
LINE
  8
0
 10
74.5365
 20
13.5734
 11
74.4478
 21
13.6053
  0
LINE
  8
0
 10
74.4478
 20
13.6053
 11
74.3613
 21
13.6427
  0
LINE
  8
0
 10
74.3613
 20
13.6427
 11
74.2774
 21
13.6855
  0
LINE
  8
0
 10
74.2774
 20
13.6855
 11
74.1963
 21
13.7335
  0
LINE
  8
0
 10
74.1963
 20
13.7335
 11
74.1183
 21
13.7865
  0
LINE
  8
0
 10
74.1183
 20
13.7865
 11
74.0439
 21
13.8442
  0
LINE
  8
0
 10
74.0439
 20
13.8442
 11
73.9732
 21
13.9065
  0
LINE
  8
0
 10
73.9732
 20
13.9065
 11
73.9065
 21
13.9732
  0
LINE
  8
0
 10
73.9065
 20
13.9732
 11
73.8442
 21
14.0439
  0
LINE
  8
0
 10
73.8442
 20
14.0439
 11
73.7865
 21
14.1183
  0
LINE
  8
0
 10
73.7865
 20
14.1183
 11
73.7335
 21
14.1963
  0
LINE
  8
0
 10
73.7335
 20
14.1963
 11
73.6855
 21
14.2774
  0
LINE
  8
0
 10
73.6855
 20
14.2774
 11
73.6427
 21
14.3613
  0
LINE
  8
0
 10
73.6427
 20
14.3613
 11
73.6053
 21
14.4478
  0
LINE
  8
0
 10
73.6053
 20
14.4478
 11
73.5734
 21
14.5365
  0
LINE
  8
0
 10
73.5734
 20
14.5365
 11
73.5471
 21
14.627
  0
LINE
  8
0
 10
73.5471
 20
14.627
 11
73.5266
 21
14.7189
  0
LINE
  8
0
 10
73.5266
 20
14.7189
 11
73.5118
 21
14.812
  0
LINE
  8
0
 10
73.5118
 20
14.812
 11
73.5029
 21
14.9058
  0
LINE
  8
0
 10
73.5029
 20
14.9058
 11
73.5
 21
15
  0
LINE
  8
0
 10
73.5
 20
15
 11
73.5029
 21
15.0942
  0
LINE
  8
0
 10
73.5029
 20
15.0942
 11
73.5118
 21
15.188
  0
LINE
  8
0
 10
73.5118
 20
15.188
 11
73.5266
 21
15.2811
  0
LINE
  8
0
 10
73.5266
 20
15.2811
 11
73.5471
 21
15.373
  0
LINE
  8
0
 10
73.5471
 20
15.373
 11
73.5734
 21
15.4635
  0
LINE
  8
0
 10
73.5734
 20
15.4635
 11
73.6053
 21
15.5522
  0
LINE
  8
0
 10
73.6053
 20
15.5522
 11
73.6427
 21
15.6387
  0
LINE
  8
0
 10
73.6427
 20
15.6387
 11
73.6855
 21
15.7226
  0
LINE
  8
0
 10
73.6855
 20
15.7226
 11
73.7335
 21
15.8037
  0
LINE
  8
0
 10
73.7335
 20
15.8037
 11
73.7865
 21
15.8817
  0
LINE
  8
0
 10
73.7865
 20
15.8817
 11
73.8442
 21
15.9561
  0
LINE
  8
0
 10
73.8442
 20
15.9561
 11
73.9065
 21
16.0268
  0
LINE
  8
0
 10
73.9065
 20
16.0268
 11
73.9732
 21
16.0934
  0
LINE
  8
0
 10
73.9732
 20
16.0934
 11
74.0439
 21
16.1558
  0
LINE
  8
0
 10
74.0439
 20
16.1558
 11
74.1183
 21
16.2135
  0
LINE
  8
0
 10
74.1183
 20
16.2135
 11
74.1963
 21
16.2665
  0
LINE
  8
0
 10
74.1963
 20
16.2665
 11
74.2774
 21
16.3145
  0
LINE
  8
0
 10
74.2774
 20
16.3145
 11
74.3613
 21
16.3572
  0
LINE
  8
0
 10
74.3613
 20
16.3572
 11
74.4478
 21
16.3947
  0
LINE
  8
0
 10
74.4478
 20
16.3947
 11
74.5365
 21
16.4266
  0
LINE
  8
0
 10
74.5365
 20
16.4266
 11
74.627
 21
16.4529
  0
LINE
  8
0
 10
74.627
 20
16.4529
 11
74.7189
 21
16.4734
  0
LINE
  8
0
 10
74.7189
 20
16.4734
 11
74.812
 21
16.4882
  0
LINE
  8
0
 10
74.812
 20
16.4882
 11
74.9058
 21
16.497
  0
LINE
  8
0
 10
74.9058
 20
16.497
 11
75
 21
16.5
  0
LINE
  8
0
 10
75
 20
16.5
 11
75.0942
 21
16.497
  0
LINE
  8
0
 10
75.0942
 20
16.497
 11
75.188
 21
16.4882
  0
LINE
  8
0
 10
75.188
 20
16.4882
 11
75.2811
 21
16.4734
  0
LINE
  8
0
 10
75.2811
 20
16.4734
 11
75.373
 21
16.4529
  0
LINE
  8
0
 10
75.373
 20
16.4529
 11
75.4635
 21
16.4266
  0
LINE
  8
0
 10
75.4635
 20
16.4266
 11
75.5522
 21
16.3947
  0
LINE
  8
0
 10
75.5522
 20
16.3947
 11
75.6387
 21
16.3572
  0
LINE
  8
0
 10
75.6387
 20
16.3572
 11
75.7226
 21
16.3145
  0
LINE
  8
0
 10
75.7226
 20
16.3145
 11
75.8037
 21
16.2665
  0
LINE
  8
0
 10
75.8037
 20
16.2665
 11
75.8817
 21
16.2135
  0
LINE
  8
0
 10
75.8817
 20
16.2135
 11
75.9561
 21
16.1558
  0
LINE
  8
0
 10
75.9561
 20
16.1558
 11
76.0268
 21
16.0934
  0
LINE
  8
0
 10
76.0268
 20
16.0934
 11
76.0934
 21
16.0268
  0
LINE
  8
0
 10
76.0934
 20
16.0268
 11
76.1558
 21
15.9561
  0
LINE
  8
0
 10
76.1558
 20
15.9561
 11
76.2135
 21
15.8817
  0
LINE
  8
0
 10
76.2135
 20
15.8817
 11
76.2665
 21
15.8037
  0
LINE
  8
0
 10
76.2665
 20
15.8037
 11
76.3145
 21
15.7226
  0
LINE
  8
0
 10
76.3145
 20
15.7226
 11
76.3572
 21
15.6387
  0
LINE
  8
0
 10
76.3572
 20
15.6387
 11
76.3947
 21
15.5522
  0
LINE
  8
0
 10
76.3947
 20
15.5522
 11
76.4266
 21
15.4635
  0
LINE
  8
0
 10
76.4266
 20
15.4635
 11
76.4529
 21
15.373
  0
LINE
  8
0
 10
76.4529
 20
15.373
 11
76.4734
 21
15.2811
  0
LINE
  8
0
 10
76.4734
 20
15.2811
 11
76.4882
 21
15.188
  0
LINE
  8
0
 10
76.4882
 20
15.188
 11
76.497
 21
15.0942
  0
LINE
  8
0
 10
76.497
 20
15.0942
 11
76.5
 21
15
  0
LINE
  8
0
 10
76.5
 20
15
 11
76.497
 21
14.9058
  0
LINE
  8
0
 10
76.497
 20
14.9058
 11
76.4882
 21
14.812
  0
LINE
  8
0
 10
76.4882
 20
14.812
 11
76.4734
 21
14.7189
  0
LINE
  8
0
 10
76.4734
 20
14.7189
 11
76.4529
 21
14.627
  0
LINE
  8
0
 10
76.4529
 20
14.627
 11
76.4266
 21
14.5365
  0
LINE
  8
0
 10
76.4266
 20
14.5365
 11
76.3947
 21
14.4478
  0
LINE
  8
0
 10
76.3947
 20
14.4478
 11
76.3572
 21
14.3613
  0
LINE
  8
0
 10
76.3572
 20
14.3613
 11
76.3145
 21
14.2774
  0
LINE
  8
0
 10
76.3145
 20
14.2774
 11
76.2665
 21
14.1963
  0
LINE
  8
0
 10
76.2665
 20
14.1963
 11
76.2135
 21
14.1183
  0
LINE
  8
0
 10
76.2135
 20
14.1183
 11
76.1558
 21
14.0439
  0
LINE
  8
0
 10
76.1558
 20
14.0439
 11
76.0934
 21
13.9732
  0
LINE
  8
0
 10
76.0934
 20
13.9732
 11
76.0268
 21
13.9065
  0
LINE
  8
0
 10
76.0268
 20
13.9065
 11
75.9561
 21
13.8442
  0
LINE
  8
0
 10
75.9561
 20
13.8442
 11
75.8817
 21
13.7865
  0
LINE
  8
0
 10
75.8817
 20
13.7865
 11
75.8037
 21
13.7335
  0
LINE
  8
0
 10
75.8037
 20
13.7335
 11
75.7226
 21
13.6855
  0
LINE
  8
0
 10
75.7226
 20
13.6855
 11
75.6387
 21
13.6427
  0
LINE
  8
0
 10
75.6387
 20
13.6427
 11
75.5522
 21
13.6053
  0
LINE
  8
0
 10
75.5522
 20
13.6053
 11
75.4635
 21
13.5734
  0
LINE
  8
0
 10
75.4635
 20
13.5734
 11
75.373
 21
13.5471
  0
LINE
  8
0
 10
75.373
 20
13.5471
 11
75.2811
 21
13.5266
  0
LINE
  8
0
 10
75.2811
 20
13.5266
 11
75.188
 21
13.5118
  0
LINE
  8
0
 10
75.188
 20
13.5118
 11
75.0942
 21
13.5029
  0
LINE
  8
0
 10
75.0942
 20
13.5029
 11
75
 21
13.5
  0
LINE
  8
0
 10
75
 20
13.5
 11
74.9058
 21
13.5029
  0
LINE
  8
0
 10
44.9058
 20
13.5029
 11
44.812
 21
13.5118
  0
LINE
  8
0
 10
44.812
 20
13.5118
 11
44.7189
 21
13.5266
  0
LINE
  8
0
 10
44.7189
 20
13.5266
 11
44.627
 21
13.5471
  0
LINE
  8
0
 10
44.627
 20
13.5471
 11
44.5365
 21
13.5734
  0
LINE
  8
0
 10
44.5365
 20
13.5734
 11
44.4478
 21
13.6053
  0
LINE
  8
0
 10
44.4478
 20
13.6053
 11
44.3613
 21
13.6427
  0
LINE
  8
0
 10
44.3613
 20
13.6427
 11
44.2774
 21
13.6855
  0
LINE
  8
0
 10
44.2774
 20
13.6855
 11
44.1963
 21
13.7335
  0
LINE
  8
0
 10
44.1963
 20
13.7335
 11
44.1183
 21
13.7865
  0
LINE
  8
0
 10
44.1183
 20
13.7865
 11
44.0439
 21
13.8442
  0
LINE
  8
0
 10
44.0439
 20
13.8442
 11
43.9732
 21
13.9065
  0
LINE
  8
0
 10
43.9732
 20
13.9065
 11
43.9066
 21
13.9732
  0
LINE
  8
0
 10
43.9066
 20
13.9732
 11
43.8442
 21
14.0439
  0
LINE
  8
0
 10
43.8442
 20
14.0439
 11
43.7865
 21
14.1183
  0
LINE
  8
0
 10
43.7865
 20
14.1183
 11
43.7335
 21
14.1963
  0
LINE
  8
0
 10
43.7335
 20
14.1963
 11
43.6855
 21
14.2774
  0
LINE
  8
0
 10
43.6855
 20
14.2774
 11
43.6428
 21
14.3613
  0
LINE
  8
0
 10
43.6428
 20
14.3613
 11
43.6053
 21
14.4478
  0
LINE
  8
0
 10
43.6053
 20
14.4478
 11
43.5734
 21
14.5365
  0
LINE
  8
0
 10
43.5734
 20
14.5365
 11
43.5471
 21
14.627
  0
LINE
  8
0
 10
43.5471
 20
14.627
 11
43.5266
 21
14.7189
  0
LINE
  8
0
 10
43.5266
 20
14.7189
 11
43.5118
 21
14.812
  0
LINE
  8
0
 10
43.5118
 20
14.812
 11
43.503
 21
14.9058
  0
LINE
  8
0
 10
43.503
 20
14.9058
 11
43.5
 21
15
  0
LINE
  8
0
 10
43.5
 20
15
 11
43.503
 21
15.0942
  0
LINE
  8
0
 10
43.503
 20
15.0942
 11
43.5118
 21
15.188
  0
LINE
  8
0
 10
43.5118
 20
15.188
 11
43.5266
 21
15.2811
  0
LINE
  8
0
 10
43.5266
 20
15.2811
 11
43.5471
 21
15.373
  0
LINE
  8
0
 10
43.5471
 20
15.373
 11
43.5734
 21
15.4635
  0
LINE
  8
0
 10
43.5734
 20
15.4635
 11
43.6053
 21
15.5522
  0
LINE
  8
0
 10
43.6053
 20
15.5522
 11
43.6428
 21
15.6387
  0
LINE
  8
0
 10
43.6428
 20
15.6387
 11
43.6855
 21
15.7226
  0
LINE
  8
0
 10
43.6855
 20
15.7226
 11
43.7335
 21
15.8037
  0
LINE
  8
0
 10
43.7335
 20
15.8037
 11
43.7865
 21
15.8817
  0
LINE
  8
0
 10
43.7865
 20
15.8817
 11
43.8442
 21
15.9561
  0
LINE
  8
0
 10
43.8442
 20
15.9561
 11
43.9066
 21
16.0268
  0
LINE
  8
0
 10
43.9066
 20
16.0268
 11
43.9732
 21
16.0934
  0
LINE
  8
0
 10
43.9732
 20
16.0934
 11
44.0439
 21
16.1558
  0
LINE
  8
0
 10
44.0439
 20
16.1558
 11
44.1183
 21
16.2135
  0
LINE
  8
0
 10
44.1183
 20
16.2135
 11
44.1963
 21
16.2665
  0
LINE
  8
0
 10
44.1963
 20
16.2665
 11
44.2774
 21
16.3145
  0
LINE
  8
0
 10
44.2774
 20
16.3145
 11
44.3613
 21
16.3572
  0
LINE
  8
0
 10
44.3613
 20
16.3572
 11
44.4478
 21
16.3947
  0
LINE
  8
0
 10
44.4478
 20
16.3947
 11
44.5365
 21
16.4266
  0
LINE
  8
0
 10
44.5365
 20
16.4266
 11
44.627
 21
16.4529
  0
LINE
  8
0
 10
44.627
 20
16.4529
 11
44.7189
 21
16.4734
  0
LINE
  8
0
 10
44.7189
 20
16.4734
 11
44.812
 21
16.4882
  0
LINE
  8
0
 10
44.812
 20
16.4882
 11
44.9058
 21
16.497
  0
LINE
  8
0
 10
44.9058
 20
16.497
 11
45
 21
16.5
  0
LINE
  8
0
 10
45
 20
16.5
 11
45.0942
 21
16.497
  0
LINE
  8
0
 10
45.0942
 20
16.497
 11
45.188
 21
16.4882
  0
LINE
  8
0
 10
45.188
 20
16.4882
 11
45.2811
 21
16.4734
  0
LINE
  8
0
 10
45.2811
 20
16.4734
 11
45.373
 21
16.4529
  0
LINE
  8
0
 10
45.373
 20
16.4529
 11
45.4635
 21
16.4266
  0
LINE
  8
0
 10
45.4635
 20
16.4266
 11
45.5522
 21
16.3947
  0
LINE
  8
0
 10
45.5522
 20
16.3947
 11
45.6387
 21
16.3572
  0
LINE
  8
0
 10
45.6387
 20
16.3572
 11
45.7226
 21
16.3145
  0
LINE
  8
0
 10
45.7226
 20
16.3145
 11
45.8037
 21
16.2665
  0
LINE
  8
0
 10
45.8037
 20
16.2665
 11
45.8817
 21
16.2135
  0
LINE
  8
0
 10
45.8817
 20
16.2135
 11
45.9561
 21
16.1558
  0
LINE
  8
0
 10
45.9561
 20
16.1558
 11
46.0268
 21
16.0934
  0
LINE
  8
0
 10
46.0268
 20
16.0934
 11
46.0935
 21
16.0268
  0
LINE
  8
0
 10
46.0935
 20
16.0268
 11
46.1558
 21
15.9561
  0
LINE
  8
0
 10
46.1558
 20
15.9561
 11
46.2135
 21
15.8817
  0
LINE
  8
0
 10
46.2135
 20
15.8817
 11
46.2665
 21
15.8037
  0
LINE
  8
0
 10
46.2665
 20
15.8037
 11
46.3145
 21
15.7226
  0
LINE
  8
0
 10
46.3145
 20
15.7226
 11
46.3573
 21
15.6387
  0
LINE
  8
0
 10
46.3573
 20
15.6387
 11
46.3947
 21
15.5522
  0
LINE
  8
0
 10
46.3947
 20
15.5522
 11
46.4266
 21
15.4635
  0
LINE
  8
0
 10
46.4266
 20
15.4635
 11
46.4529
 21
15.373
  0
LINE
  8
0
 10
46.4529
 20
15.373
 11
46.4734
 21
15.2811
  0
LINE
  8
0
 10
46.4734
 20
15.2811
 11
46.4882
 21
15.188
  0
LINE
  8
0
 10
46.4882
 20
15.188
 11
46.4971
 21
15.0942
  0
LINE
  8
0
 10
46.4971
 20
15.0942
 11
46.5
 21
15
  0
LINE
  8
0
 10
46.5
 20
15
 11
46.4971
 21
14.9058
  0
LINE
  8
0
 10
46.4971
 20
14.9058
 11
46.4882
 21
14.812
  0
LINE
  8
0
 10
46.4882
 20
14.812
 11
46.4734
 21
14.7189
  0
LINE
  8
0
 10
46.4734
 20
14.7189
 11
46.4529
 21
14.627
  0
LINE
  8
0
 10
46.4529
 20
14.627
 11
46.4266
 21
14.5365
  0
LINE
  8
0
 10
46.4266
 20
14.5365
 11
46.3947
 21
14.4478
  0
LINE
  8
0
 10
46.3947
 20
14.4478
 11
46.3573
 21
14.3613
  0
LINE
  8
0
 10
46.3573
 20
14.3613
 11
46.3145
 21
14.2774
  0
LINE
  8
0
 10
46.3145
 20
14.2774
 11
46.2665
 21
14.1963
  0
LINE
  8
0
 10
46.2665
 20
14.1963
 11
46.2135
 21
14.1183
  0
LINE
  8
0
 10
46.2135
 20
14.1183
 11
46.1558
 21
14.0439
  0
LINE
  8
0
 10
46.1558
 20
14.0439
 11
46.0935
 21
13.9732
  0
LINE
  8
0
 10
46.0935
 20
13.9732
 11
46.0268
 21
13.9065
  0
LINE
  8
0
 10
46.0268
 20
13.9065
 11
45.9561
 21
13.8442
  0
LINE
  8
0
 10
45.9561
 20
13.8442
 11
45.8817
 21
13.7865
  0
LINE
  8
0
 10
45.8817
 20
13.7865
 11
45.8037
 21
13.7335
  0
LINE
  8
0
 10
45.8037
 20
13.7335
 11
45.7226
 21
13.6855
  0
LINE
  8
0
 10
45.7226
 20
13.6855
 11
45.6387
 21
13.6427
  0
LINE
  8
0
 10
45.6387
 20
13.6427
 11
45.5522
 21
13.6053
  0
LINE
  8
0
 10
45.5522
 20
13.6053
 11
45.4635
 21
13.5734
  0
LINE
  8
0
 10
45.4635
 20
13.5734
 11
45.373
 21
13.5471
  0
LINE
  8
0
 10
45.373
 20
13.5471
 11
45.2811
 21
13.5266
  0
LINE
  8
0
 10
45.2811
 20
13.5266
 11
45.188
 21
13.5118
  0
LINE
  8
0
 10
45.188
 20
13.5118
 11
45.0942
 21
13.5029
  0
LINE
  8
0
 10
45.0942
 20
13.5029
 11
45
 21
13.5
  0
LINE
  8
0
 10
45
 20
13.5
 11
44.9058
 21
13.5029
  0
LINE
  8
0
 10
59.3093
 20
-10.9783
 11
58.6213
 21
-10.9133
  0
LINE
  8
0
 10
58.6213
 20
-10.9133
 11
57.9388
 21
-10.8051
  0
LINE
  8
0
 10
57.9388
 20
-10.8051
 11
57.2644
 21
-10.6544
  0
LINE
  8
0
 10
57.2644
 20
-10.6544
 11
56.6008
 21
-10.4616
  0
LINE
  8
0
 10
56.6008
 20
-10.4616
 11
55.9506
 21
-10.2275
  0
LINE
  8
0
 10
55.9506
 20
-10.2275
 11
55.3164
 21
-9.95309
  0
LINE
  8
0
 10
55.3164
 20
-9.95309
 11
54.7007
 21
-9.63936
  0
LINE
  8
0
 10
54.7007
 20
-9.63936
 11
54.1059
 21
-9.2876
  0
LINE
  8
0
 10
54.1059
 20
-9.2876
 11
53.5344
 21
-8.89919
  0
LINE
  8
0
 10
53.5344
 20
-8.89919
 11
52.9883
 21
-8.47563
  0
LINE
  8
0
 10
52.9883
 20
-8.47563
 11
52.47
 21
-8.01865
  0
LINE
  8
0
 10
52.47
 20
-8.01865
 11
51.9814
 21
-7.53001
  0
LINE
  8
0
 10
51.9814
 20
-7.53001
 11
51.5244
 21
-7.01166
  0
LINE
  8
0
 10
51.5244
 20
-7.01166
 11
51.1008
 21
-6.46564
  0
LINE
  8
0
 10
51.1008
 20
-6.46564
 11
50.7124
 21
-5.89409
  0
LINE
  8
0
 10
50.7124
 20
-5.89409
 11
50.3606
 21
-5.29929
  0
LINE
  8
0
 10
50.3606
 20
-5.29929
 11
50.0469
 21
-4.68356
  0
LINE
  8
0
 10
50.0469
 20
-4.68356
 11
49.7725
 21
-4.04936
  0
LINE
  8
0
 10
49.7725
 20
-4.04936
 11
49.5384
 21
-3.39919
  0
LINE
  8
0
 10
49.5384
 20
-3.39919
 11
49.3456
 21
-2.73558
  0
LINE
  8
0
 10
49.3456
 20
-2.73558
 11
49.1949
 21
-2.06119
  0
LINE
  8
0
 10
49.1949
 20
-2.06119
 11
49.0867
 21
-1.37866
  0
LINE
  8
0
 10
49.0867
 20
-1.37866
 11
49.0217
 21
-0.690689
  0
LINE
  8
0
 10
49.0217
 20
-0.690689
 11
49
 21
0
  0
LINE
  8
0
 10
49
 20
0
 11
49.0217
 21
0.690689
  0
LINE
  8
0
 10
49.0217
 20
0.690689
 11
49.0867
 21
1.37866
  0
LINE
  8
0
 10
49.0867
 20
1.37866
 11
49.1949
 21
2.06119
  0
LINE
  8
0
 10
49.1949
 20
2.06119
 11
49.3456
 21
2.73558
  0
LINE
  8
0
 10
49.3456
 20
2.73558
 11
49.5384
 21
3.39919
  0
LINE
  8
0
 10
49.5384
 20
3.39919
 11
49.7725
 21
4.04936
  0
LINE
  8
0
 10
49.7725
 20
4.04936
 11
50.0469
 21
4.68356
  0
LINE
  8
0
 10
50.0469
 20
4.68356
 11
50.3606
 21
5.29929
  0
LINE
  8
0
 10
50.3606
 20
5.29929
 11
50.7124
 21
5.89409
  0
LINE
  8
0
 10
50.7124
 20
5.89409
 11
51.1008
 21
6.46564
  0
LINE
  8
0
 10
51.1008
 20
6.46564
 11
51.5244
 21
7.01166
  0
LINE
  8
0
 10
51.5244
 20
7.01166
 11
51.9814
 21
7.53001
  0
LINE
  8
0
 10
51.9814
 20
7.53001
 11
52.47
 21
8.01865
  0
LINE
  8
0
 10
52.47
 20
8.01865
 11
52.9883
 21
8.47563
  0
LINE
  8
0
 10
52.9883
 20
8.47563
 11
53.5344
 21
8.89919
  0
LINE
  8
0
 10
53.5344
 20
8.89919
 11
54.1059
 21
9.2876
  0
LINE
  8
0
 10
54.1059
 20
9.2876
 11
54.7007
 21
9.63936
  0
LINE
  8
0
 10
54.7007
 20
9.63936
 11
55.3164
 21
9.95309
  0
LINE
  8
0
 10
55.3164
 20
9.95309
 11
55.9506
 21
10.2275
  0
LINE
  8
0
 10
55.9506
 20
10.2275
 11
56.6008
 21
10.4616
  0
LINE
  8
0
 10
56.6008
 20
10.4616
 11
57.2644
 21
10.6544
  0
LINE
  8
0
 10
57.2644
 20
10.6544
 11
57.9388
 21
10.8051
  0
LINE
  8
0
 10
57.9388
 20
10.8051
 11
58.6213
 21
10.9133
  0
LINE
  8
0
 10
58.6213
 20
10.9133
 11
59.3093
 21
10.9783
  0
LINE
  8
0
 10
59.3093
 20
10.9783
 11
60
 21
11
  0
LINE
  8
0
 10
60
 20
11
 11
60.6907
 21
10.9783
  0
LINE
  8
0
 10
60.6907
 20
10.9783
 11
61.3787
 21
10.9133
  0
LINE
  8
0
 10
61.3787
 20
10.9133
 11
62.0612
 21
10.8051
  0
LINE
  8
0
 10
62.0612
 20
10.8051
 11
62.7356
 21
10.6544
  0
LINE
  8
0
 10
62.7356
 20
10.6544
 11
63.3992
 21
10.4616
  0
LINE
  8
0
 10
63.3992
 20
10.4616
 11
64.0494
 21
10.2275
  0
LINE
  8
0
 10
64.0494
 20
10.2275
 11
64.6836
 21
9.95309
  0
LINE
  8
0
 10
64.6836
 20
9.95309
 11
65.2993
 21
9.63936
  0
LINE
  8
0
 10
65.2993
 20
9.63936
 11
65.8941
 21
9.2876
  0
LINE
  8
0
 10
65.8941
 20
9.2876
 11
66.4656
 21
8.89919
  0
LINE
  8
0
 10
66.4656
 20
8.89919
 11
67.0117
 21
8.47563
  0
LINE
  8
0
 10
67.0117
 20
8.47563
 11
67.53
 21
8.01865
  0
LINE
  8
0
 10
67.53
 20
8.01865
 11
68.0186
 21
7.53001
  0
LINE
  8
0
 10
68.0186
 20
7.53001
 11
68.4756
 21
7.01166
  0
LINE
  8
0
 10
68.4756
 20
7.01166
 11
68.8992
 21
6.46564
  0
LINE
  8
0
 10
68.8992
 20
6.46564
 11
69.2876
 21
5.89409
  0
LINE
  8
0
 10
69.2876
 20
5.89409
 11
69.6394
 21
5.29929
  0
LINE
  8
0
 10
69.6394
 20
5.29929
 11
69.9531
 21
4.68356
  0
LINE
  8
0
 10
69.9531
 20
4.68356
 11
70.2275
 21
4.04936
  0
LINE
  8
0
 10
70.2275
 20
4.04936
 11
70.4616
 21
3.39919
  0
LINE
  8
0
 10
70.4616
 20
3.39919
 11
70.6544
 21
2.73558
  0
LINE
  8
0
 10
70.6544
 20
2.73558
 11
70.8051
 21
2.06119
  0
LINE
  8
0
 10
70.8051
 20
2.06119
 11
70.9133
 21
1.37866
  0
LINE
  8
0
 10
70.9133
 20
1.37866
 11
70.9783
 21
0.690689
  0
LINE
  8
0
 10
70.9783
 20
0.690689
 11
71
 21
0
  0
LINE
  8
0
 10
71
 20
0
 11
70.9783
 21
-0.690689
  0
LINE
  8
0
 10
70.9783
 20
-0.690689
 11
70.9133
 21
-1.37866
  0
LINE
  8
0
 10
70.9133
 20
-1.37866
 11
70.8051
 21
-2.06119
  0
LINE
  8
0
 10
70.8051
 20
-2.06119
 11
70.6544
 21
-2.73558
  0
LINE
  8
0
 10
70.6544
 20
-2.73558
 11
70.4616
 21
-3.39919
  0
LINE
  8
0
 10
70.4616
 20
-3.39919
 11
70.2275
 21
-4.04936
  0
LINE
  8
0
 10
70.2275
 20
-4.04936
 11
69.9531
 21
-4.68356
  0
LINE
  8
0
 10
69.9531
 20
-4.68356
 11
69.6394
 21
-5.29929
  0
LINE
  8
0
 10
69.6394
 20
-5.29929
 11
69.2876
 21
-5.89409
  0
LINE
  8
0
 10
69.2876
 20
-5.89409
 11
68.8992
 21
-6.46564
  0
LINE
  8
0
 10
68.8992
 20
-6.46564
 11
68.4756
 21
-7.01166
  0
LINE
  8
0
 10
68.4756
 20
-7.01166
 11
68.0186
 21
-7.53001
  0
LINE
  8
0
 10
68.0186
 20
-7.53001
 11
67.53
 21
-8.01865
  0
LINE
  8
0
 10
67.53
 20
-8.01865
 11
67.0117
 21
-8.47563
  0
LINE
  8
0
 10
67.0117
 20
-8.47563
 11
66.4656
 21
-8.89919
  0
LINE
  8
0
 10
66.4656
 20
-8.89919
 11
65.8941
 21
-9.2876
  0
LINE
  8
0
 10
65.8941
 20
-9.2876
 11
65.2993
 21
-9.63936
  0
LINE
  8
0
 10
65.2993
 20
-9.63936
 11
64.6836
 21
-9.95309
  0
LINE
  8
0
 10
64.6836
 20
-9.95309
 11
64.0494
 21
-10.2275
  0
LINE
  8
0
 10
64.0494
 20
-10.2275
 11
63.3992
 21
-10.4616
  0
LINE
  8
0
 10
63.3992
 20
-10.4616
 11
62.7356
 21
-10.6544
  0
LINE
  8
0
 10
62.7356
 20
-10.6544
 11
62.0612
 21
-10.8051
  0
LINE
  8
0
 10
62.0612
 20
-10.8051
 11
61.3787
 21
-10.9133
  0
LINE
  8
0
 10
61.3787
 20
-10.9133
 11
60.6907
 21
-10.9783
  0
LINE
  8
0
 10
60.6907
 20
-10.9783
 11
60
 21
-11
  0
LINE
  8
0
 10
60
 20
-11
 11
59.3093
 21
-10.9783
  0
LINE
  8
0
 10
44.9058
 20
-16.497
 11
44.812
 21
-16.4882
  0
LINE
  8
0
 10
44.812
 20
-16.4882
 11
44.7189
 21
-16.4734
  0
LINE
  8
0
 10
44.7189
 20
-16.4734
 11
44.627
 21
-16.4529
  0
LINE
  8
0
 10
44.627
 20
-16.4529
 11
44.5365
 21
-16.4266
  0
LINE
  8
0
 10
44.5365
 20
-16.4266
 11
44.4478
 21
-16.3947
  0
LINE
  8
0
 10
44.4478
 20
-16.3947
 11
44.3613
 21
-16.3572
  0
LINE
  8
0
 10
44.3613
 20
-16.3572
 11
44.2774
 21
-16.3145
  0
LINE
  8
0
 10
44.2774
 20
-16.3145
 11
44.1963
 21
-16.2665
  0
LINE
  8
0
 10
44.1963
 20
-16.2665
 11
44.1183
 21
-16.2135
  0
LINE
  8
0
 10
44.1183
 20
-16.2135
 11
44.0439
 21
-16.1558
  0
LINE
  8
0
 10
44.0439
 20
-16.1558
 11
43.9732
 21
-16.0934
  0
LINE
  8
0
 10
43.9732
 20
-16.0934
 11
43.9066
 21
-16.0268
  0
LINE
  8
0
 10
43.9066
 20
-16.0268
 11
43.8442
 21
-15.9561
  0
LINE
  8
0
 10
43.8442
 20
-15.9561
 11
43.7865
 21
-15.8817
  0
LINE
  8
0
 10
43.7865
 20
-15.8817
 11
43.7335
 21
-15.8037
  0
LINE
  8
0
 10
43.7335
 20
-15.8037
 11
43.6855
 21
-15.7226
  0
LINE
  8
0
 10
43.6855
 20
-15.7226
 11
43.6428
 21
-15.6387
  0
LINE
  8
0
 10
43.6428
 20
-15.6387
 11
43.6053
 21
-15.5522
  0
LINE
  8
0
 10
43.6053
 20
-15.5522
 11
43.5734
 21
-15.4635
  0
LINE
  8
0
 10
43.5734
 20
-15.4635
 11
43.5471
 21
-15.373
  0
LINE
  8
0
 10
43.5471
 20
-15.373
 11
43.5266
 21
-15.2811
  0
LINE
  8
0
 10
43.5266
 20
-15.2811
 11
43.5118
 21
-15.188
  0
LINE
  8
0
 10
43.5118
 20
-15.188
 11
43.503
 21
-15.0942
  0
LINE
  8
0
 10
43.503
 20
-15.0942
 11
43.5
 21
-15
  0
LINE
  8
0
 10
43.5
 20
-15
 11
43.503
 21
-14.9058
  0
LINE
  8
0
 10
43.503
 20
-14.9058
 11
43.5118
 21
-14.812
  0
LINE
  8
0
 10
43.5118
 20
-14.812
 11
43.5266
 21
-14.7189
  0
LINE
  8
0
 10
43.5266
 20
-14.7189
 11
43.5471
 21
-14.627
  0
LINE
  8
0
 10
43.5471
 20
-14.627
 11
43.5734
 21
-14.5365
  0
LINE
  8
0
 10
43.5734
 20
-14.5365
 11
43.6053
 21
-14.4478
  0
LINE
  8
0
 10
43.6053
 20
-14.4478
 11
43.6428
 21
-14.3613
  0
LINE
  8
0
 10
43.6428
 20
-14.3613
 11
43.6855
 21
-14.2774
  0
LINE
  8
0
 10
43.6855
 20
-14.2774
 11
43.7335
 21
-14.1963
  0
LINE
  8
0
 10
43.7335
 20
-14.1963
 11
43.7865
 21
-14.1183
  0
LINE
  8
0
 10
43.7865
 20
-14.1183
 11
43.8442
 21
-14.0439
  0
LINE
  8
0
 10
43.8442
 20
-14.0439
 11
43.9066
 21
-13.9732
  0
LINE
  8
0
 10
43.9066
 20
-13.9732
 11
43.9732
 21
-13.9065
  0
LINE
  8
0
 10
43.9732
 20
-13.9065
 11
44.0439
 21
-13.8442
  0
LINE
  8
0
 10
44.0439
 20
-13.8442
 11
44.1183
 21
-13.7865
  0
LINE
  8
0
 10
44.1183
 20
-13.7865
 11
44.1963
 21
-13.7335
  0
LINE
  8
0
 10
44.1963
 20
-13.7335
 11
44.2774
 21
-13.6855
  0
LINE
  8
0
 10
44.2774
 20
-13.6855
 11
44.3613
 21
-13.6427
  0
LINE
  8
0
 10
44.3613
 20
-13.6427
 11
44.4478
 21
-13.6053
  0
LINE
  8
0
 10
44.4478
 20
-13.6053
 11
44.5365
 21
-13.5734
  0
LINE
  8
0
 10
44.5365
 20
-13.5734
 11
44.627
 21
-13.5471
  0
LINE
  8
0
 10
44.627
 20
-13.5471
 11
44.7189
 21
-13.5266
  0
LINE
  8
0
 10
44.7189
 20
-13.5266
 11
44.812
 21
-13.5118
  0
LINE
  8
0
 10
44.812
 20
-13.5118
 11
44.9058
 21
-13.5029
  0
LINE
  8
0
 10
44.9058
 20
-13.5029
 11
45
 21
-13.5
  0
LINE
  8
0
 10
45
 20
-13.5
 11
45.0942
 21
-13.5029
  0
LINE
  8
0
 10
45.0942
 20
-13.5029
 11
45.188
 21
-13.5118
  0
LINE
  8
0
 10
45.188
 20
-13.5118
 11
45.2811
 21
-13.5266
  0
LINE
  8
0
 10
45.2811
 20
-13.5266
 11
45.373
 21
-13.5471
  0
LINE
  8
0
 10
45.373
 20
-13.5471
 11
45.4635
 21
-13.5734
  0
LINE
  8
0
 10
45.4635
 20
-13.5734
 11
45.5522
 21
-13.6053
  0
LINE
  8
0
 10
45.5522
 20
-13.6053
 11
45.6387
 21
-13.6427
  0
LINE
  8
0
 10
45.6387
 20
-13.6427
 11
45.7226
 21
-13.6855
  0
LINE
  8
0
 10
45.7226
 20
-13.6855
 11
45.8037
 21
-13.7335
  0
LINE
  8
0
 10
45.8037
 20
-13.7335
 11
45.8817
 21
-13.7865
  0
LINE
  8
0
 10
45.8817
 20
-13.7865
 11
45.9561
 21
-13.8442
  0
LINE
  8
0
 10
45.9561
 20
-13.8442
 11
46.0268
 21
-13.9065
  0
LINE
  8
0
 10
46.0268
 20
-13.9065
 11
46.0935
 21
-13.9732
  0
LINE
  8
0
 10
46.0935
 20
-13.9732
 11
46.1558
 21
-14.0439
  0
LINE
  8
0
 10
46.1558
 20
-14.0439
 11
46.2135
 21
-14.1183
  0
LINE
  8
0
 10
46.2135
 20
-14.1183
 11
46.2665
 21
-14.1963
  0
LINE
  8
0
 10
46.2665
 20
-14.1963
 11
46.3145
 21
-14.2774
  0
LINE
  8
0
 10
46.3145
 20
-14.2774
 11
46.3573
 21
-14.3613
  0
LINE
  8
0
 10
46.3573
 20
-14.3613
 11
46.3947
 21
-14.4478
  0
LINE
  8
0
 10
46.3947
 20
-14.4478
 11
46.4266
 21
-14.5365
  0
LINE
  8
0
 10
46.4266
 20
-14.5365
 11
46.4529
 21
-14.627
  0
LINE
  8
0
 10
46.4529
 20
-14.627
 11
46.4734
 21
-14.7189
  0
LINE
  8
0
 10
46.4734
 20
-14.7189
 11
46.4882
 21
-14.812
  0
LINE
  8
0
 10
46.4882
 20
-14.812
 11
46.4971
 21
-14.9058
  0
LINE
  8
0
 10
46.4971
 20
-14.9058
 11
46.5
 21
-15
  0
LINE
  8
0
 10
46.5
 20
-15
 11
46.4971
 21
-15.0942
  0
LINE
  8
0
 10
46.4971
 20
-15.0942
 11
46.4882
 21
-15.188
  0
LINE
  8
0
 10
46.4882
 20
-15.188
 11
46.4734
 21
-15.2811
  0
LINE
  8
0
 10
46.4734
 20
-15.2811
 11
46.4529
 21
-15.373
  0
LINE
  8
0
 10
46.4529
 20
-15.373
 11
46.4266
 21
-15.4635
  0
LINE
  8
0
 10
46.4266
 20
-15.4635
 11
46.3947
 21
-15.5522
  0
LINE
  8
0
 10
46.3947
 20
-15.5522
 11
46.3573
 21
-15.6387
  0
LINE
  8
0
 10
46.3573
 20
-15.6387
 11
46.3145
 21
-15.7226
  0
LINE
  8
0
 10
46.3145
 20
-15.7226
 11
46.2665
 21
-15.8037
  0
LINE
  8
0
 10
46.2665
 20
-15.8037
 11
46.2135
 21
-15.8817
  0
LINE
  8
0
 10
46.2135
 20
-15.8817
 11
46.1558
 21
-15.9561
  0
LINE
  8
0
 10
46.1558
 20
-15.9561
 11
46.0935
 21
-16.0268
  0
LINE
  8
0
 10
46.0935
 20
-16.0268
 11
46.0268
 21
-16.0934
  0
LINE
  8
0
 10
46.0268
 20
-16.0934
 11
45.9561
 21
-16.1558
  0
LINE
  8
0
 10
45.9561
 20
-16.1558
 11
45.8817
 21
-16.2135
  0
LINE
  8
0
 10
45.8817
 20
-16.2135
 11
45.8037
 21
-16.2665
  0
LINE
  8
0
 10
45.8037
 20
-16.2665
 11
45.7226
 21
-16.3145
  0
LINE
  8
0
 10
45.7226
 20
-16.3145
 11
45.6387
 21
-16.3572
  0
LINE
  8
0
 10
45.6387
 20
-16.3572
 11
45.5522
 21
-16.3947
  0
LINE
  8
0
 10
45.5522
 20
-16.3947
 11
45.4635
 21
-16.4266
  0
LINE
  8
0
 10
45.4635
 20
-16.4266
 11
45.373
 21
-16.4529
  0
LINE
  8
0
 10
45.373
 20
-16.4529
 11
45.2811
 21
-16.4734
  0
LINE
  8
0
 10
45.2811
 20
-16.4734
 11
45.188
 21
-16.4882
  0
LINE
  8
0
 10
45.188
 20
-16.4882
 11
45.0942
 21
-16.497
  0
LINE
  8
0
 10
45.0942
 20
-16.497
 11
45
 21
-16.5
  0
LINE
  8
0
 10
45
 20
-16.5
 11
44.9058
 21
-16.497
  0
LINE
  8
0
 10
74.9058
 20
-16.497
 11
74.812
 21
-16.4882
  0
LINE
  8
0
 10
74.812
 20
-16.4882
 11
74.7189
 21
-16.4734
  0
LINE
  8
0
 10
74.7189
 20
-16.4734
 11
74.627
 21
-16.4529
  0
LINE
  8
0
 10
74.627
 20
-16.4529
 11
74.5365
 21
-16.4266
  0
LINE
  8
0
 10
74.5365
 20
-16.4266
 11
74.4478
 21
-16.3947
  0
LINE
  8
0
 10
74.4478
 20
-16.3947
 11
74.3613
 21
-16.3572
  0
LINE
  8
0
 10
74.3613
 20
-16.3572
 11
74.2774
 21
-16.3145
  0
LINE
  8
0
 10
74.2774
 20
-16.3145
 11
74.1963
 21
-16.2665
  0
LINE
  8
0
 10
74.1963
 20
-16.2665
 11
74.1183
 21
-16.2135
  0
LINE
  8
0
 10
74.1183
 20
-16.2135
 11
74.0439
 21
-16.1558
  0
LINE
  8
0
 10
74.0439
 20
-16.1558
 11
73.9732
 21
-16.0934
  0
LINE
  8
0
 10
73.9732
 20
-16.0934
 11
73.9065
 21
-16.0268
  0
LINE
  8
0
 10
73.9065
 20
-16.0268
 11
73.8442
 21
-15.9561
  0
LINE
  8
0
 10
73.8442
 20
-15.9561
 11
73.7865
 21
-15.8817
  0
LINE
  8
0
 10
73.7865
 20
-15.8817
 11
73.7335
 21
-15.8037
  0
LINE
  8
0
 10
73.7335
 20
-15.8037
 11
73.6855
 21
-15.7226
  0
LINE
  8
0
 10
73.6855
 20
-15.7226
 11
73.6427
 21
-15.6387
  0
LINE
  8
0
 10
73.6427
 20
-15.6387
 11
73.6053
 21
-15.5522
  0
LINE
  8
0
 10
73.6053
 20
-15.5522
 11
73.5734
 21
-15.4635
  0
LINE
  8
0
 10
73.5734
 20
-15.4635
 11
73.5471
 21
-15.373
  0
LINE
  8
0
 10
73.5471
 20
-15.373
 11
73.5266
 21
-15.2811
  0
LINE
  8
0
 10
73.5266
 20
-15.2811
 11
73.5118
 21
-15.188
  0
LINE
  8
0
 10
73.5118
 20
-15.188
 11
73.5029
 21
-15.0942
  0
LINE
  8
0
 10
73.5029
 20
-15.0942
 11
73.5
 21
-15
  0
LINE
  8
0
 10
73.5
 20
-15
 11
73.5029
 21
-14.9058
  0
LINE
  8
0
 10
73.5029
 20
-14.9058
 11
73.5118
 21
-14.812
  0
LINE
  8
0
 10
73.5118
 20
-14.812
 11
73.5266
 21
-14.7189
  0
LINE
  8
0
 10
73.5266
 20
-14.7189
 11
73.5471
 21
-14.627
  0
LINE
  8
0
 10
73.5471
 20
-14.627
 11
73.5734
 21
-14.5365
  0
LINE
  8
0
 10
73.5734
 20
-14.5365
 11
73.6053
 21
-14.4478
  0
LINE
  8
0
 10
73.6053
 20
-14.4478
 11
73.6427
 21
-14.3613
  0
LINE
  8
0
 10
73.6427
 20
-14.3613
 11
73.6855
 21
-14.2774
  0
LINE
  8
0
 10
73.6855
 20
-14.2774
 11
73.7335
 21
-14.1963
  0
LINE
  8
0
 10
73.7335
 20
-14.1963
 11
73.7865
 21
-14.1183
  0
LINE
  8
0
 10
73.7865
 20
-14.1183
 11
73.8442
 21
-14.0439
  0
LINE
  8
0
 10
73.8442
 20
-14.0439
 11
73.9065
 21
-13.9732
  0
LINE
  8
0
 10
73.9065
 20
-13.9732
 11
73.9732
 21
-13.9065
  0
LINE
  8
0
 10
73.9732
 20
-13.9065
 11
74.0439
 21
-13.8442
  0
LINE
  8
0
 10
74.0439
 20
-13.8442
 11
74.1183
 21
-13.7865
  0
LINE
  8
0
 10
74.1183
 20
-13.7865
 11
74.1963
 21
-13.7335
  0
LINE
  8
0
 10
74.1963
 20
-13.7335
 11
74.2774
 21
-13.6855
  0
LINE
  8
0
 10
74.2774
 20
-13.6855
 11
74.3613
 21
-13.6427
  0
LINE
  8
0
 10
74.3613
 20
-13.6427
 11
74.4478
 21
-13.6053
  0
LINE
  8
0
 10
74.4478
 20
-13.6053
 11
74.5365
 21
-13.5734
  0
LINE
  8
0
 10
74.5365
 20
-13.5734
 11
74.627
 21
-13.5471
  0
LINE
  8
0
 10
74.627
 20
-13.5471
 11
74.7189
 21
-13.5266
  0
LINE
  8
0
 10
74.7189
 20
-13.5266
 11
74.812
 21
-13.5118
  0
LINE
  8
0
 10
74.812
 20
-13.5118
 11
74.9058
 21
-13.5029
  0
LINE
  8
0
 10
74.9058
 20
-13.5029
 11
75
 21
-13.5
  0
LINE
  8
0
 10
75
 20
-13.5
 11
75.0942
 21
-13.5029
  0
LINE
  8
0
 10
75.0942
 20
-13.5029
 11
75.188
 21
-13.5118
  0
LINE
  8
0
 10
75.188
 20
-13.5118
 11
75.2811
 21
-13.5266
  0
LINE
  8
0
 10
75.2811
 20
-13.5266
 11
75.373
 21
-13.5471
  0
LINE
  8
0
 10
75.373
 20
-13.5471
 11
75.4635
 21
-13.5734
  0
LINE
  8
0
 10
75.4635
 20
-13.5734
 11
75.5522
 21
-13.6053
  0
LINE
  8
0
 10
75.5522
 20
-13.6053
 11
75.6387
 21
-13.6427
  0
LINE
  8
0
 10
75.6387
 20
-13.6427
 11
75.7226
 21
-13.6855
  0
LINE
  8
0
 10
75.7226
 20
-13.6855
 11
75.8037
 21
-13.7335
  0
LINE
  8
0
 10
75.8037
 20
-13.7335
 11
75.8817
 21
-13.7865
  0
LINE
  8
0
 10
75.8817
 20
-13.7865
 11
75.9561
 21
-13.8442
  0
LINE
  8
0
 10
75.9561
 20
-13.8442
 11
76.0268
 21
-13.9065
  0
LINE
  8
0
 10
76.0268
 20
-13.9065
 11
76.0934
 21
-13.9732
  0
LINE
  8
0
 10
76.0934
 20
-13.9732
 11
76.1558
 21
-14.0439
  0
LINE
  8
0
 10
76.1558
 20
-14.0439
 11
76.2135
 21
-14.1183
  0
LINE
  8
0
 10
76.2135
 20
-14.1183
 11
76.2665
 21
-14.1963
  0
LINE
  8
0
 10
76.2665
 20
-14.1963
 11
76.3145
 21
-14.2774
  0
LINE
  8
0
 10
76.3145
 20
-14.2774
 11
76.3572
 21
-14.3613
  0
LINE
  8
0
 10
76.3572
 20
-14.3613
 11
76.3947
 21
-14.4478
  0
LINE
  8
0
 10
76.3947
 20
-14.4478
 11
76.4266
 21
-14.5365
  0
LINE
  8
0
 10
76.4266
 20
-14.5365
 11
76.4529
 21
-14.627
  0
LINE
  8
0
 10
76.4529
 20
-14.627
 11
76.4734
 21
-14.7189
  0
LINE
  8
0
 10
76.4734
 20
-14.7189
 11
76.4882
 21
-14.812
  0
LINE
  8
0
 10
76.4882
 20
-14.812
 11
76.497
 21
-14.9058
  0
LINE
  8
0
 10
76.497
 20
-14.9058
 11
76.5
 21
-15
  0
LINE
  8
0
 10
76.5
 20
-15
 11
76.497
 21
-15.0942
  0
LINE
  8
0
 10
76.497
 20
-15.0942
 11
76.4882
 21
-15.188
  0
LINE
  8
0
 10
76.4882
 20
-15.188
 11
76.4734
 21
-15.2811
  0
LINE
  8
0
 10
76.4734
 20
-15.2811
 11
76.4529
 21
-15.373
  0
LINE
  8
0
 10
76.4529
 20
-15.373
 11
76.4266
 21
-15.4635
  0
LINE
  8
0
 10
76.4266
 20
-15.4635
 11
76.3947
 21
-15.5522
  0
LINE
  8
0
 10
76.3947
 20
-15.5522
 11
76.3572
 21
-15.6387
  0
LINE
  8
0
 10
76.3572
 20
-15.6387
 11
76.3145
 21
-15.7226
  0
LINE
  8
0
 10
76.3145
 20
-15.7226
 11
76.2665
 21
-15.8037
  0
LINE
  8
0
 10
76.2665
 20
-15.8037
 11
76.2135
 21
-15.8817
  0
LINE
  8
0
 10
76.2135
 20
-15.8817
 11
76.1558
 21
-15.9561
  0
LINE
  8
0
 10
76.1558
 20
-15.9561
 11
76.0934
 21
-16.0268
  0
LINE
  8
0
 10
76.0934
 20
-16.0268
 11
76.0268
 21
-16.0934
  0
LINE
  8
0
 10
76.0268
 20
-16.0934
 11
75.9561
 21
-16.1558
  0
LINE
  8
0
 10
75.9561
 20
-16.1558
 11
75.8817
 21
-16.2135
  0
LINE
  8
0
 10
75.8817
 20
-16.2135
 11
75.8037
 21
-16.2665
  0
LINE
  8
0
 10
75.8037
 20
-16.2665
 11
75.7226
 21
-16.3145
  0
LINE
  8
0
 10
75.7226
 20
-16.3145
 11
75.6387
 21
-16.3572
  0
LINE
  8
0
 10
75.6387
 20
-16.3572
 11
75.5522
 21
-16.3947
  0
LINE
  8
0
 10
75.5522
 20
-16.3947
 11
75.4635
 21
-16.4266
  0
LINE
  8
0
 10
75.4635
 20
-16.4266
 11
75.373
 21
-16.4529
  0
LINE
  8
0
 10
75.373
 20
-16.4529
 11
75.2811
 21
-16.4734
  0
LINE
  8
0
 10
75.2811
 20
-16.4734
 11
75.188
 21
-16.4882
  0
LINE
  8
0
 10
75.188
 20
-16.4882
 11
75.0942
 21
-16.497
  0
LINE
  8
0
 10
75.0942
 20
-16.497
 11
75
 21
-16.5
  0
LINE
  8
0
 10
75
 20
-16.5
 11
74.9058
 21
-16.497
  0
LINE
  8
0
 10
-30.5511
 20
-35.4921
 11
-30.8013
 21
-35.4684
  0
LINE
  8
0
 10
-30.8013
 20
-35.4684
 11
-31.0495
 21
-35.4291
  0
LINE
  8
0
 10
-31.0495
 20
-35.4291
 11
-31.2948
 21
-35.3743
  0
LINE
  8
0
 10
-31.2948
 20
-35.3743
 11
-31.5361
 21
-35.3042
  0
LINE
  8
0
 10
-31.5361
 20
-35.3042
 11
-31.7725
 21
-35.2191
  0
LINE
  8
0
 10
-31.7725
 20
-35.2191
 11
-32.0031
 21
-35.1193
  0
LINE
  8
0
 10
-32.0031
 20
-35.1193
 11
-32.227
 21
-35.0052
  0
LINE
  8
0
 10
-32.227
 20
-35.0052
 11
-32.4433
 21
-34.8773
  0
LINE
  8
0
 10
-32.4433
 20
-34.8773
 11
-32.6511
 21
-34.7361
  0
LINE
  8
0
 10
-32.6511
 20
-34.7361
 11
-32.8497
 21
-34.582
  0
LINE
  8
0
 10
-32.8497
 20
-34.582
 11
-33.0382
 21
-34.4159
  0
LINE
  8
0
 10
-33.0382
 20
-34.4159
 11
-33.2159
 21
-34.2382
  0
LINE
  8
0
 10
-33.2159
 20
-34.2382
 11
-33.382
 21
-34.0497
  0
LINE
  8
0
 10
-33.382
 20
-34.0497
 11
-33.5361
 21
-33.8511
  0
LINE
  8
0
 10
-33.5361
 20
-33.8511
 11
-33.6773
 21
-33.6433
  0
LINE
  8
0
 10
-33.6773
 20
-33.6433
 11
-33.8052
 21
-33.427
  0
LINE
  8
0
 10
-33.8052
 20
-33.427
 11
-33.9193
 21
-33.2031
  0
LINE
  8
0
 10
-33.9193
 20
-33.2031
 11
-34.0191
 21
-32.9725
  0
LINE
  8
0
 10
-34.0191
 20
-32.9725
 11
-34.1042
 21
-32.7361
  0
LINE
  8
0
 10
-34.1042
 20
-32.7361
 11
-34.1743
 21
-32.4948
  0
LINE
  8
0
 10
-34.1743
 20
-32.4948
 11
-34.2291
 21
-32.2495
  0
LINE
  8
0
 10
-34.2291
 20
-32.2495
 11
-34.2684
 21
-32.0013
  0
LINE
  8
0
 10
-34.2684
 20
-32.0013
 11
-34.2921
 21
-31.7512
  0
LINE
  8
0
 10
-34.2921
 20
-31.7512
 11
-34.3
 21
-31.5
  0
LINE
  8
0
 10
-34.3
 20
-31.5
 11
-34.2921
 21
-31.2488
  0
LINE
  8
0
 10
-34.2921
 20
-31.2488
 11
-34.2684
 21
-30.9987
  0
LINE
  8
0
 10
-34.2684
 20
-30.9987
 11
-34.2291
 21
-30.7505
  0
LINE
  8
0
 10
-34.2291
 20
-30.7505
 11
-34.1743
 21
-30.5052
  0
LINE
  8
0
 10
-34.1743
 20
-30.5052
 11
-34.1042
 21
-30.2639
  0
LINE
  8
0
 10
-34.1042
 20
-30.2639
 11
-34.0191
 21
-30.0275
  0
LINE
  8
0
 10
-34.0191
 20
-30.0275
 11
-33.9193
 21
-29.7969
  0
LINE
  8
0
 10
-33.9193
 20
-29.7969
 11
-33.8052
 21
-29.573
  0
LINE
  8
0
 10
-33.8052
 20
-29.573
 11
-33.6773
 21
-29.3567
  0
LINE
  8
0
 10
-33.6773
 20
-29.3567
 11
-33.5361
 21
-29.1488
  0
LINE
  8
0
 10
-33.5361
 20
-29.1488
 11
-33.382
 21
-28.9503
  0
LINE
  8
0
 10
-33.382
 20
-28.9503
 11
-33.2159
 21
-28.7618
  0
LINE
  8
0
 10
-33.2159
 20
-28.7618
 11
-33.0382
 21
-28.5841
  0
LINE
  8
0
 10
-33.0382
 20
-28.5841
 11
-32.8497
 21
-28.4179
  0
LINE
  8
0
 10
-32.8497
 20
-28.4179
 11
-32.6511
 21
-28.2639
  0
LINE
  8
0
 10
-32.6511
 20
-28.2639
 11
-32.4433
 21
-28.1227
  0
LINE
  8
0
 10
-32.4433
 20
-28.1227
 11
-32.227
 21
-27.9948
  0
LINE
  8
0
 10
-32.227
 20
-27.9948
 11
-32.0031
 21
-27.8807
  0
LINE
  8
0
 10
-32.0031
 20
-27.8807
 11
-31.7725
 21
-27.7809
  0
LINE
  8
0
 10
-31.7725
 20
-27.7809
 11
-31.5361
 21
-27.6958
  0
LINE
  8
0
 10
-31.5361
 20
-27.6958
 11
-31.2948
 21
-27.6257
  0
LINE
  8
0
 10
-31.2948
 20
-27.6257
 11
-31.0495
 21
-27.5708
  0
LINE
  8
0
 10
-31.0495
 20
-27.5708
 11
-30.8013
 21
-27.5315
  0
LINE
  8
0
 10
-30.8013
 20
-27.5315
 11
-30.5511
 21
-27.5079
  0
LINE
  8
0
 10
-30.5511
 20
-27.5079
 11
-30.3
 21
-27.5
  0
LINE
  8
0
 10
-30.3
 20
-27.5
 11
-30.0488
 21
-27.5079
  0
LINE
  8
0
 10
-30.0488
 20
-27.5079
 11
-29.7987
 21
-27.5315
  0
LINE
  8
0
 10
-29.7987
 20
-27.5315
 11
-29.5505
 21
-27.5708
  0
LINE
  8
0
 10
-29.5505
 20
-27.5708
 11
-29.3052
 21
-27.6257
  0
LINE
  8
0
 10
-29.3052
 20
-27.6257
 11
-29.0639
 21
-27.6958
  0
LINE
  8
0
 10
-29.0639
 20
-27.6958
 11
-28.8275
 21
-27.7809
  0
LINE
  8
0
 10
-28.8275
 20
-27.7809
 11
-28.5969
 21
-27.8807
  0
LINE
  8
0
 10
-28.5969
 20
-27.8807
 11
-28.373
 21
-27.9948
  0
LINE
  8
0
 10
-28.373
 20
-27.9948
 11
-28.1567
 21
-28.1227
  0
LINE
  8
0
 10
-28.1567
 20
-28.1227
 11
-27.9489
 21
-28.2639
  0
LINE
  8
0
 10
-27.9489
 20
-28.2639
 11
-27.7503
 21
-28.4179
  0
LINE
  8
0
 10
-27.7503
 20
-28.4179
 11
-27.5618
 21
-28.5841
  0
LINE
  8
0
 10
-27.5618
 20
-28.5841
 11
-27.3841
 21
-28.7618
  0
LINE
  8
0
 10
-27.3841
 20
-28.7618
 11
-27.2179
 21
-28.9503
  0
LINE
  8
0
 10
-27.2179
 20
-28.9503
 11
-27.0639
 21
-29.1488
  0
LINE
  8
0
 10
-27.0639
 20
-29.1488
 11
-26.9227
 21
-29.3567
  0
LINE
  8
0
 10
-26.9227
 20
-29.3567
 11
-26.7948
 21
-29.573
  0
LINE
  8
0
 10
-26.7948
 20
-29.573
 11
-26.6807
 21
-29.7969
  0
LINE
  8
0
 10
-26.6807
 20
-29.7969
 11
-26.5809
 21
-30.0275
  0
LINE
  8
0
 10
-26.5809
 20
-30.0275
 11
-26.4958
 21
-30.2639
  0
LINE
  8
0
 10
-26.4958
 20
-30.2639
 11
-26.4257
 21
-30.5052
  0
LINE
  8
0
 10
-26.4257
 20
-30.5052
 11
-26.3708
 21
-30.7505
  0
LINE
  8
0
 10
-26.3708
 20
-30.7505
 11
-26.3315
 21
-30.9987
  0
LINE
  8
0
 10
-26.3315
 20
-30.9987
 11
-26.3079
 21
-31.2488
  0
LINE
  8
0
 10
-26.3079
 20
-31.2488
 11
-26.3
 21
-31.5
  0
LINE
  8
0
 10
-26.3
 20
-31.5
 11
-26.3079
 21
-31.7512
  0
LINE
  8
0
 10
-26.3079
 20
-31.7512
 11
-26.3315
 21
-32.0013
  0
LINE
  8
0
 10
-26.3315
 20
-32.0013
 11
-26.3708
 21
-32.2495
  0
LINE
  8
0
 10
-26.3708
 20
-32.2495
 11
-26.4257
 21
-32.4948
  0
LINE
  8
0
 10
-26.4257
 20
-32.4948
 11
-26.4958
 21
-32.7361
  0
LINE
  8
0
 10
-26.4958
 20
-32.7361
 11
-26.5809
 21
-32.9725
  0
LINE
  8
0
 10
-26.5809
 20
-32.9725
 11
-26.6807
 21
-33.2031
  0
LINE
  8
0
 10
-26.6807
 20
-33.2031
 11
-26.7948
 21
-33.427
  0
LINE
  8
0
 10
-26.7948
 20
-33.427
 11
-26.9227
 21
-33.6433
  0
LINE
  8
0
 10
-26.9227
 20
-33.6433
 11
-27.0639
 21
-33.8511
  0
LINE
  8
0
 10
-27.0639
 20
-33.8511
 11
-27.2179
 21
-34.0497
  0
LINE
  8
0
 10
-27.2179
 20
-34.0497
 11
-27.3841
 21
-34.2382
  0
LINE
  8
0
 10
-27.3841
 20
-34.2382
 11
-27.5618
 21
-34.4159
  0
LINE
  8
0
 10
-27.5618
 20
-34.4159
 11
-27.7503
 21
-34.582
  0
LINE
  8
0
 10
-27.7503
 20
-34.582
 11
-27.9489
 21
-34.7361
  0
LINE
  8
0
 10
-27.9489
 20
-34.7361
 11
-28.1567
 21
-34.8773
  0
LINE
  8
0
 10
-28.1567
 20
-34.8773
 11
-28.373
 21
-35.0052
  0
LINE
  8
0
 10
-28.373
 20
-35.0052
 11
-28.5969
 21
-35.1193
  0
LINE
  8
0
 10
-28.5969
 20
-35.1193
 11
-28.8275
 21
-35.2191
  0
LINE
  8
0
 10
-28.8275
 20
-35.2191
 11
-29.0639
 21
-35.3042
  0
LINE
  8
0
 10
-29.0639
 20
-35.3042
 11
-29.3052
 21
-35.3743
  0
LINE
  8
0
 10
-29.3052
 20
-35.3743
 11
-29.5505
 21
-35.4291
  0
LINE
  8
0
 10
-29.5505
 20
-35.4291
 11
-29.7987
 21
-35.4684
  0
LINE
  8
0
 10
-29.7987
 20
-35.4684
 11
-30.0488
 21
-35.4921
  0
LINE
  8
0
 10
-30.0488
 20
-35.4921
 11
-30.3
 21
-35.5
  0
LINE
  8
0
 10
-30.3
 20
-35.5
 11
-30.5511
 21
-35.4921
  0
LINE
  8
0
 10
30.0488
 20
-35.4921
 11
29.7987
 21
-35.4684
  0
LINE
  8
0
 10
29.7987
 20
-35.4684
 11
29.5505
 21
-35.4291
  0
LINE
  8
0
 10
29.5505
 20
-35.4291
 11
29.3052
 21
-35.3743
  0
LINE
  8
0
 10
29.3052
 20
-35.3743
 11
29.0639
 21
-35.3042
  0
LINE
  8
0
 10
29.0639
 20
-35.3042
 11
28.8275
 21
-35.2191
  0
LINE
  8
0
 10
28.8275
 20
-35.2191
 11
28.5969
 21
-35.1193
  0
LINE
  8
0
 10
28.5969
 20
-35.1193
 11
28.373
 21
-35.0052
  0
LINE
  8
0
 10
28.373
 20
-35.0052
 11
28.1567
 21
-34.8773
  0
LINE
  8
0
 10
28.1567
 20
-34.8773
 11
27.9489
 21
-34.7361
  0
LINE
  8
0
 10
27.9489
 20
-34.7361
 11
27.7503
 21
-34.582
  0
LINE
  8
0
 10
27.7503
 20
-34.582
 11
27.5618
 21
-34.4159
  0
LINE
  8
0
 10
27.5618
 20
-34.4159
 11
27.3841
 21
-34.2382
  0
LINE
  8
0
 10
27.3841
 20
-34.2382
 11
27.2179
 21
-34.0497
  0
LINE
  8
0
 10
27.2179
 20
-34.0497
 11
27.0639
 21
-33.8511
  0
LINE
  8
0
 10
27.0639
 20
-33.8511
 11
26.9227
 21
-33.6433
  0
LINE
  8
0
 10
26.9227
 20
-33.6433
 11
26.7948
 21
-33.427
  0
LINE
  8
0
 10
26.7948
 20
-33.427
 11
26.6807
 21
-33.2031
  0
LINE
  8
0
 10
26.6807
 20
-33.2031
 11
26.5809
 21
-32.9725
  0
LINE
  8
0
 10
26.5809
 20
-32.9725
 11
26.4958
 21
-32.7361
  0
LINE
  8
0
 10
26.4958
 20
-32.7361
 11
26.4257
 21
-32.4948
  0
LINE
  8
0
 10
26.4257
 20
-32.4948
 11
26.3708
 21
-32.2495
  0
LINE
  8
0
 10
26.3708
 20
-32.2495
 11
26.3315
 21
-32.0013
  0
LINE
  8
0
 10
26.3315
 20
-32.0013
 11
26.3079
 21
-31.7512
  0
LINE
  8
0
 10
26.3079
 20
-31.7512
 11
26.3
 21
-31.5
  0
LINE
  8
0
 10
26.3
 20
-31.5
 11
26.3079
 21
-31.2488
  0
LINE
  8
0
 10
26.3079
 20
-31.2488
 11
26.3315
 21
-30.9987
  0
LINE
  8
0
 10
26.3315
 20
-30.9987
 11
26.3708
 21
-30.7505
  0
LINE
  8
0
 10
26.3708
 20
-30.7505
 11
26.4257
 21
-30.5052
  0
LINE
  8
0
 10
26.4257
 20
-30.5052
 11
26.4958
 21
-30.2639
  0
LINE
  8
0
 10
26.4958
 20
-30.2639
 11
26.5809
 21
-30.0275
  0
LINE
  8
0
 10
26.5809
 20
-30.0275
 11
26.6807
 21
-29.7969
  0
LINE
  8
0
 10
26.6807
 20
-29.7969
 11
26.7948
 21
-29.573
  0
LINE
  8
0
 10
26.7948
 20
-29.573
 11
26.9227
 21
-29.3567
  0
LINE
  8
0
 10
26.9227
 20
-29.3567
 11
27.0639
 21
-29.1488
  0
LINE
  8
0
 10
27.0639
 20
-29.1488
 11
27.2179
 21
-28.9503
  0
LINE
  8
0
 10
27.2179
 20
-28.9503
 11
27.3841
 21
-28.7618
  0
LINE
  8
0
 10
27.3841
 20
-28.7618
 11
27.5618
 21
-28.5841
  0
LINE
  8
0
 10
27.5618
 20
-28.5841
 11
27.7503
 21
-28.4179
  0
LINE
  8
0
 10
27.7503
 20
-28.4179
 11
27.9489
 21
-28.2639
  0
LINE
  8
0
 10
27.9489
 20
-28.2639
 11
28.1567
 21
-28.1227
  0
LINE
  8
0
 10
28.1567
 20
-28.1227
 11
28.373
 21
-27.9948
  0
LINE
  8
0
 10
28.373
 20
-27.9948
 11
28.5969
 21
-27.8807
  0
LINE
  8
0
 10
28.5969
 20
-27.8807
 11
28.8275
 21
-27.7809
  0
LINE
  8
0
 10
28.8275
 20
-27.7809
 11
29.0639
 21
-27.6958
  0
LINE
  8
0
 10
29.0639
 20
-27.6958
 11
29.3052
 21
-27.6257
  0
LINE
  8
0
 10
29.3052
 20
-27.6257
 11
29.5505
 21
-27.5708
  0
LINE
  8
0
 10
29.5505
 20
-27.5708
 11
29.7987
 21
-27.5315
  0
LINE
  8
0
 10
29.7987
 20
-27.5315
 11
30.0488
 21
-27.5079
  0
LINE
  8
0
 10
30.0488
 20
-27.5079
 11
30.3
 21
-27.5
  0
LINE
  8
0
 10
30.3
 20
-27.5
 11
30.5511
 21
-27.5079
  0
LINE
  8
0
 10
30.5511
 20
-27.5079
 11
30.8013
 21
-27.5315
  0
LINE
  8
0
 10
30.8013
 20
-27.5315
 11
31.0495
 21
-27.5708
  0
LINE
  8
0
 10
31.0495
 20
-27.5708
 11
31.2948
 21
-27.6257
  0
LINE
  8
0
 10
31.2948
 20
-27.6257
 11
31.5361
 21
-27.6958
  0
LINE
  8
0
 10
31.5361
 20
-27.6958
 11
31.7725
 21
-27.7809
  0
LINE
  8
0
 10
31.7725
 20
-27.7809
 11
32.0031
 21
-27.8807
  0
LINE
  8
0
 10
32.0031
 20
-27.8807
 11
32.227
 21
-27.9948
  0
LINE
  8
0
 10
32.227
 20
-27.9948
 11
32.4433
 21
-28.1227
  0
LINE
  8
0
 10
32.4433
 20
-28.1227
 11
32.6511
 21
-28.2639
  0
LINE
  8
0
 10
32.6511
 20
-28.2639
 11
32.8497
 21
-28.4179
  0
LINE
  8
0
 10
32.8497
 20
-28.4179
 11
33.0382
 21
-28.5841
  0
LINE
  8
0
 10
33.0382
 20
-28.5841
 11
33.2159
 21
-28.7618
  0
LINE
  8
0
 10
33.2159
 20
-28.7618
 11
33.382
 21
-28.9503
  0
LINE
  8
0
 10
33.382
 20
-28.9503
 11
33.5361
 21
-29.1488
  0
LINE
  8
0
 10
33.5361
 20
-29.1488
 11
33.6773
 21
-29.3567
  0
LINE
  8
0
 10
33.6773
 20
-29.3567
 11
33.8052
 21
-29.573
  0
LINE
  8
0
 10
33.8052
 20
-29.573
 11
33.9193
 21
-29.7969
  0
LINE
  8
0
 10
33.9193
 20
-29.7969
 11
34.0191
 21
-30.0275
  0
LINE
  8
0
 10
34.0191
 20
-30.0275
 11
34.1042
 21
-30.2639
  0
LINE
  8
0
 10
34.1042
 20
-30.2639
 11
34.1743
 21
-30.5052
  0
LINE
  8
0
 10
34.1743
 20
-30.5052
 11
34.2291
 21
-30.7505
  0
LINE
  8
0
 10
34.2291
 20
-30.7505
 11
34.2684
 21
-30.9987
  0
LINE
  8
0
 10
34.2684
 20
-30.9987
 11
34.2921
 21
-31.2488
  0
LINE
  8
0
 10
34.2921
 20
-31.2488
 11
34.3
 21
-31.5
  0
LINE
  8
0
 10
34.3
 20
-31.5
 11
34.2921
 21
-31.7512
  0
LINE
  8
0
 10
34.2921
 20
-31.7512
 11
34.2684
 21
-32.0013
  0
LINE
  8
0
 10
34.2684
 20
-32.0013
 11
34.2291
 21
-32.2495
  0
LINE
  8
0
 10
34.2291
 20
-32.2495
 11
34.1743
 21
-32.4948
  0
LINE
  8
0
 10
34.1743
 20
-32.4948
 11
34.1042
 21
-32.7361
  0
LINE
  8
0
 10
34.1042
 20
-32.7361
 11
34.0191
 21
-32.9725
  0
LINE
  8
0
 10
34.0191
 20
-32.9725
 11
33.9193
 21
-33.2031
  0
LINE
  8
0
 10
33.9193
 20
-33.2031
 11
33.8052
 21
-33.427
  0
LINE
  8
0
 10
33.8052
 20
-33.427
 11
33.6773
 21
-33.6433
  0
LINE
  8
0
 10
33.6773
 20
-33.6433
 11
33.5361
 21
-33.8511
  0
LINE
  8
0
 10
33.5361
 20
-33.8511
 11
33.382
 21
-34.0497
  0
LINE
  8
0
 10
33.382
 20
-34.0497
 11
33.2159
 21
-34.2382
  0
LINE
  8
0
 10
33.2159
 20
-34.2382
 11
33.0382
 21
-34.4159
  0
LINE
  8
0
 10
33.0382
 20
-34.4159
 11
32.8497
 21
-34.582
  0
LINE
  8
0
 10
32.8497
 20
-34.582
 11
32.6511
 21
-34.7361
  0
LINE
  8
0
 10
32.6511
 20
-34.7361
 11
32.4433
 21
-34.8773
  0
LINE
  8
0
 10
32.4433
 20
-34.8773
 11
32.227
 21
-35.0052
  0
LINE
  8
0
 10
32.227
 20
-35.0052
 11
32.0031
 21
-35.1193
  0
LINE
  8
0
 10
32.0031
 20
-35.1193
 11
31.7725
 21
-35.2191
  0
LINE
  8
0
 10
31.7725
 20
-35.2191
 11
31.5361
 21
-35.3042
  0
LINE
  8
0
 10
31.5361
 20
-35.3042
 11
31.2948
 21
-35.3743
  0
LINE
  8
0
 10
31.2948
 20
-35.3743
 11
31.0495
 21
-35.4291
  0
LINE
  8
0
 10
31.0495
 20
-35.4291
 11
30.8013
 21
-35.4684
  0
LINE
  8
0
 10
30.8013
 20
-35.4684
 11
30.5511
 21
-35.4921
  0
LINE
  8
0
 10
30.5511
 20
-35.4921
 11
30.3
 21
-35.5
  0
LINE
  8
0
 10
30.3
 20
-35.5
 11
30.0488
 21
-35.4921
  0
ENDSEC
  0
SECTION
  2
OBJECTS
  0
DICTIONARY
  0
ENDSEC
  0
EOF
