  0
SECTION
  2
BLOCKS
  0
ENDSEC
  0
SECTION
  2
ENTITIES
  0
LINE
  8
0
 10
-16
 20
16
 11
-10
 21
16
  0
LINE
  8
0
 10
-10
 20
16
 11
-10
 21
-10
  0
LINE
  8
0
 10
-10
 20
-10
 11
10
 21
-10
  0
LINE
  8
0
 10
10
 20
-10
 11
10
 21
16
  0
LINE
  8
0
 10
10
 20
16
 11
16
 21
16
  0
LINE
  8
0
 10
16
 20
16
 11
16
 21
22
  0
LINE
  8
0
 10
16
 20
22
 11
-16
 21
22
  0
LINE
  8
0
 10
-16
 20
22
 11
-16
 21
16
  0
LINE
  8
0
 10
-0.25116
 20
-3.9921
 11
-0.501328
 21
-3.96844
  0
LINE
  8
0
 10
-0.501328
 20
-3.96844
 11
-0.749512
 21
-3.92914
  0
LINE
  8
0
 10
-0.749512
 20
-3.92914
 11
-0.994751
 21
-3.87433
  0
LINE
  8
0
 10
-0.994751
 20
-3.87433
 11
-1.23605
 21
-3.80421
  0
LINE
  8
0
 10
-1.23605
 20
-3.80421
 11
-1.47249
 21
-3.7191
  0
LINE
  8
0
 10
-1.47249
 20
-3.7191
 11
-1.70311
 21
-3.61929
  0
LINE
  8
0
 10
-1.70311
 20
-3.61929
 11
-1.927
 21
-3.50522
  0
LINE
  8
0
 10
-1.927
 20
-3.50522
 11
-2.1433
 21
-3.3773
  0
LINE
  8
0
 10
-2.1433
 20
-3.3773
 11
-2.35114
 21
-3.23605
  0
LINE
  8
0
 10
-2.35114
 20
-3.23605
 11
-2.54968
 21
-3.08205
  0
LINE
  8
0
 10
-2.54968
 20
-3.08205
 11
-2.73817
 21
-2.91586
  0
LINE
  8
0
 10
-2.73817
 20
-2.91586
 11
-2.91586
 21
-2.73817
  0
LINE
  8
0
 10
-2.91586
 20
-2.73817
 11
-3.08205
 21
-2.54968
  0
LINE
  8
0
 10
-3.08205
 20
-2.54968
 11
-3.23605
 21
-2.35114
  0
LINE
  8
0
 10
-3.23605
 20
-2.35114
 11
-3.3773
 21
-2.1433
  0
LINE
  8
0
 10
-3.3773
 20
-2.1433
 11
-3.50522
 21
-1.927
  0
LINE
  8
0
 10
-3.50522
 20
-1.927
 11
-3.61929
 21
-1.70311
  0
LINE
  8
0
 10
-3.61929
 20
-1.70311
 11
-3.7191
 21
-1.47249
  0
LINE
  8
0
 10
-3.7191
 20
-1.47249
 11
-3.80421
 21
-1.23605
  0
LINE
  8
0
 10
-3.80421
 20
-1.23605
 11
-3.87433
 21
-0.994751
  0
LINE
  8
0
 10
-3.87433
 20
-0.994751
 11
-3.92914
 21
-0.749512
  0
LINE
  8
0
 10
-3.92914
 20
-0.749512
 11
-3.96844
 21
-0.501328
  0
LINE
  8
0
 10
-3.96844
 20
-0.501328
 11
-3.9921
 21
-0.25116
  0
LINE
  8
0
 10
-3.9921
 20
-0.25116
 11
-4
 21
0
  0
LINE
  8
0
 10
-4
 20
0
 11
-3.9921
 21
0.25116
  0
LINE
  8
0
 10
-3.9921
 20
0.25116
 11
-3.96844
 21
0.501328
  0
LINE
  8
0
 10
-3.96844
 20
0.501328
 11
-3.92914
 21
0.749512
  0
LINE
  8
0
 10
-3.92914
 20
0.749512
 11
-3.87433
 21
0.994751
  0
LINE
  8
0
 10
-3.87433
 20
0.994751
 11
-3.80421
 21
1.23605
  0
LINE
  8
0
 10
-3.80421
 20
1.23605
 11
-3.7191
 21
1.47249
  0
LINE
  8
0
 10
-3.7191
 20
1.47249
 11
-3.61929
 21
1.70311
  0
LINE
  8
0
 10
-3.61929
 20
1.70311
 11
-3.50522
 21
1.927
  0
LINE
  8
0
 10
-3.50522
 20
1.927
 11
-3.3773
 21
2.1433
  0
LINE
  8
0
 10
-3.3773
 20
2.1433
 11
-3.23605
 21
2.35114
  0
LINE
  8
0
 10
-3.23605
 20
2.35114
 11
-3.08205
 21
2.54968
  0
LINE
  8
0
 10
-3.08205
 20
2.54968
 11
-2.91586
 21
2.73817
  0
LINE
  8
0
 10
-2.91586
 20
2.73817
 11
-2.73817
 21
2.91586
  0
LINE
  8
0
 10
-2.73817
 20
2.91586
 11
-2.54968
 21
3.08205
  0
LINE
  8
0
 10
-2.54968
 20
3.08205
 11
-2.35114
 21
3.23605
  0
LINE
  8
0
 10
-2.35114
 20
3.23605
 11
-2.1433
 21
3.3773
  0
LINE
  8
0
 10
-2.1433
 20
3.3773
 11
-1.927
 21
3.50522
  0
LINE
  8
0
 10
-1.927
 20
3.50522
 11
-1.70311
 21
3.61929
  0
LINE
  8
0
 10
-1.70311
 20
3.61929
 11
-1.47249
 21
3.7191
  0
LINE
  8
0
 10
-1.47249
 20
3.7191
 11
-1.23605
 21
3.80421
  0
LINE
  8
0
 10
-1.23605
 20
3.80421
 11
-0.994751
 21
3.87433
  0
LINE
  8
0
 10
-0.994751
 20
3.87433
 11
-0.749512
 21
3.92914
  0
LINE
  8
0
 10
-0.749512
 20
3.92914
 11
-0.501328
 21
3.96844
  0
LINE
  8
0
 10
-0.501328
 20
3.96844
 11
-0.25116
 21
3.9921
  0
LINE
  8
0
 10
-0.25116
 20
3.9921
 11
0
 21
4
  0
LINE
  8
0
 10
0
 20
4
 11
0.25116
 21
3.9921
  0
LINE
  8
0
 10
0.25116
 20
3.9921
 11
0.501328
 21
3.96844
  0
LINE
  8
0
 10
0.501328
 20
3.96844
 11
0.749512
 21
3.92914
  0
LINE
  8
0
 10
0.749512
 20
3.92914
 11
0.994751
 21
3.87433
  0
LINE
  8
0
 10
0.994751
 20
3.87433
 11
1.23605
 21
3.80421
  0
LINE
  8
0
 10
1.23605
 20
3.80421
 11
1.47249
 21
3.7191
  0
LINE
  8
0
 10
1.47249
 20
3.7191
 11
1.70311
 21
3.61929
  0
LINE
  8
0
 10
1.70311
 20
3.61929
 11
1.927
 21
3.50522
  0
LINE
  8
0
 10
1.927
 20
3.50522
 11
2.1433
 21
3.3773
  0
LINE
  8
0
 10
2.1433
 20
3.3773
 11
2.35114
 21
3.23605
  0
LINE
  8
0
 10
2.35114
 20
3.23605
 11
2.54968
 21
3.08205
  0
LINE
  8
0
 10
2.54968
 20
3.08205
 11
2.73817
 21
2.91586
  0
LINE
  8
0
 10
2.73817
 20
2.91586
 11
2.91586
 21
2.73817
  0
LINE
  8
0
 10
2.91586
 20
2.73817
 11
3.08205
 21
2.54968
  0
LINE
  8
0
 10
3.08205
 20
2.54968
 11
3.23605
 21
2.35114
  0
LINE
  8
0
 10
3.23605
 20
2.35114
 11
3.3773
 21
2.1433
  0
LINE
  8
0
 10
3.3773
 20
2.1433
 11
3.50522
 21
1.927
  0
LINE
  8
0
 10
3.50522
 20
1.927
 11
3.61929
 21
1.70311
  0
LINE
  8
0
 10
3.61929
 20
1.70311
 11
3.7191
 21
1.47249
  0
LINE
  8
0
 10
3.7191
 20
1.47249
 11
3.80421
 21
1.23605
  0
LINE
  8
0
 10
3.80421
 20
1.23605
 11
3.87433
 21
0.994751
  0
LINE
  8
0
 10
3.87433
 20
0.994751
 11
3.92914
 21
0.749512
  0
LINE
  8
0
 10
3.92914
 20
0.749512
 11
3.96844
 21
0.501328
  0
LINE
  8
0
 10
3.96844
 20
0.501328
 11
3.9921
 21
0.25116
  0
LINE
  8
0
 10
3.9921
 20
0.25116
 11
4
 21
0
  0
LINE
  8
0
 10
4
 20
0
 11
3.9921
 21
-0.25116
  0
LINE
  8
0
 10
3.9921
 20
-0.25116
 11
3.96844
 21
-0.501328
  0
LINE
  8
0
 10
3.96844
 20
-0.501328
 11
3.92914
 21
-0.749512
  0
LINE
  8
0
 10
3.92914
 20
-0.749512
 11
3.87433
 21
-0.994751
  0
LINE
  8
0
 10
3.87433
 20
-0.994751
 11
3.80421
 21
-1.23605
  0
LINE
  8
0
 10
3.80421
 20
-1.23605
 11
3.7191
 21
-1.47249
  0
LINE
  8
0
 10
3.7191
 20
-1.47249
 11
3.61929
 21
-1.70311
  0
LINE
  8
0
 10
3.61929
 20
-1.70311
 11
3.50522
 21
-1.927
  0
LINE
  8
0
 10
3.50522
 20
-1.927
 11
3.3773
 21
-2.1433
  0
LINE
  8
0
 10
3.3773
 20
-2.1433
 11
3.23605
 21
-2.35114
  0
LINE
  8
0
 10
3.23605
 20
-2.35114
 11
3.08205
 21
-2.54968
  0
LINE
  8
0
 10
3.08205
 20
-2.54968
 11
2.91586
 21
-2.73817
  0
LINE
  8
0
 10
2.91586
 20
-2.73817
 11
2.73817
 21
-2.91586
  0
LINE
  8
0
 10
2.73817
 20
-2.91586
 11
2.54968
 21
-3.08205
  0
LINE
  8
0
 10
2.54968
 20
-3.08205
 11
2.35114
 21
-3.23605
  0
LINE
  8
0
 10
2.35114
 20
-3.23605
 11
2.1433
 21
-3.3773
  0
LINE
  8
0
 10
2.1433
 20
-3.3773
 11
1.927
 21
-3.50522
  0
LINE
  8
0
 10
1.927
 20
-3.50522
 11
1.70311
 21
-3.61929
  0
LINE
  8
0
 10
1.70311
 20
-3.61929
 11
1.47249
 21
-3.7191
  0
LINE
  8
0
 10
1.47249
 20
-3.7191
 11
1.23605
 21
-3.80421
  0
LINE
  8
0
 10
1.23605
 20
-3.80421
 11
0.994751
 21
-3.87433
  0
LINE
  8
0
 10
0.994751
 20
-3.87433
 11
0.749512
 21
-3.92914
  0
LINE
  8
0
 10
0.749512
 20
-3.92914
 11
0.501328
 21
-3.96844
  0
LINE
  8
0
 10
0.501328
 20
-3.96844
 11
0.25116
 21
-3.9921
  0
LINE
  8
0
 10
0.25116
 20
-3.9921
 11
0
 21
-4
  0
LINE
  8
0
 10
0
 20
-4
 11
-0.25116
 21
-3.9921
  0
ENDSEC
  0
SECTION
  2
OBJECTS
  0
DICTIONARY
  0
ENDSEC
  0
EOF
