  0
SECTION
  2
BLOCKS
  0
ENDSEC
  0
SECTION
  2
ENTITIES
  0
LINE
  8
0
 10
125
 20
115
 11
-125
 21
115
  0
LINE
  8
0
 10
-125
 20
115
 11
-125
 21
-115
  0
LINE
  8
0
 10
-125
 20
-115
 11
125
 21
-115
  0
LINE
  8
0
 10
125
 20
-115
 11
125
 21
115
  0
LINE
  8
0
 10
114.812
 20
102.006
 11
114.624
 21
102.024
  0
LINE
  8
0
 10
114.624
 20
102.024
 11
114.438
 21
102.053
  0
LINE
  8
0
 10
114.438
 20
102.053
 11
114.254
 21
102.094
  0
LINE
  8
0
 10
114.254
 20
102.094
 11
114.073
 21
102.147
  0
LINE
  8
0
 10
114.073
 20
102.147
 11
113.896
 21
102.211
  0
LINE
  8
0
 10
113.896
 20
102.211
 11
113.723
 21
102.286
  0
LINE
  8
0
 10
113.723
 20
102.286
 11
113.555
 21
102.371
  0
LINE
  8
0
 10
113.555
 20
102.371
 11
113.393
 21
102.467
  0
LINE
  8
0
 10
113.393
 20
102.467
 11
113.237
 21
102.573
  0
LINE
  8
0
 10
113.237
 20
102.573
 11
113.088
 21
102.688
  0
LINE
  8
0
 10
113.088
 20
102.688
 11
112.946
 21
102.813
  0
LINE
  8
0
 10
112.946
 20
102.813
 11
112.813
 21
102.946
  0
LINE
  8
0
 10
112.813
 20
102.946
 11
112.688
 21
103.088
  0
LINE
  8
0
 10
112.688
 20
103.088
 11
112.573
 21
103.237
  0
LINE
  8
0
 10
112.573
 20
103.237
 11
112.467
 21
103.393
  0
LINE
  8
0
 10
112.467
 20
103.393
 11
112.371
 21
103.555
  0
LINE
  8
0
 10
112.371
 20
103.555
 11
112.286
 21
103.723
  0
LINE
  8
0
 10
112.286
 20
103.723
 11
112.211
 21
103.896
  0
LINE
  8
0
 10
112.211
 20
103.896
 11
112.147
 21
104.073
  0
LINE
  8
0
 10
112.147
 20
104.073
 11
112.094
 21
104.254
  0
LINE
  8
0
 10
112.094
 20
104.254
 11
112.053
 21
104.438
  0
LINE
  8
0
 10
112.053
 20
104.438
 11
112.024
 21
104.624
  0
LINE
  8
0
 10
112.024
 20
104.624
 11
112.006
 21
104.812
  0
LINE
  8
0
 10
112.006
 20
104.812
 11
112
 21
105
  0
LINE
  8
0
 10
112
 20
105
 11
112.006
 21
105.188
  0
LINE
  8
0
 10
112.006
 20
105.188
 11
112.024
 21
105.376
  0
LINE
  8
0
 10
112.024
 20
105.376
 11
112.053
 21
105.562
  0
LINE
  8
0
 10
112.053
 20
105.562
 11
112.094
 21
105.746
  0
LINE
  8
0
 10
112.094
 20
105.746
 11
112.147
 21
105.927
  0
LINE
  8
0
 10
112.147
 20
105.927
 11
112.211
 21
106.104
  0
LINE
  8
0
 10
112.211
 20
106.104
 11
112.286
 21
106.277
  0
LINE
  8
0
 10
112.286
 20
106.277
 11
112.371
 21
106.445
  0
LINE
  8
0
 10
112.371
 20
106.445
 11
112.467
 21
106.607
  0
LINE
  8
0
 10
112.467
 20
106.607
 11
112.573
 21
106.763
  0
LINE
  8
0
 10
112.573
 20
106.763
 11
112.688
 21
106.912
  0
LINE
  8
0
 10
112.688
 20
106.912
 11
112.813
 21
107.054
  0
LINE
  8
0
 10
112.813
 20
107.054
 11
112.946
 21
107.187
  0
LINE
  8
0
 10
112.946
 20
107.187
 11
113.088
 21
107.312
  0
LINE
  8
0
 10
113.088
 20
107.312
 11
113.237
 21
107.427
  0
LINE
  8
0
 10
113.237
 20
107.427
 11
113.393
 21
107.533
  0
LINE
  8
0
 10
113.393
 20
107.533
 11
113.555
 21
107.629
  0
LINE
  8
0
 10
113.555
 20
107.629
 11
113.723
 21
107.714
  0
LINE
  8
0
 10
113.723
 20
107.714
 11
113.896
 21
107.789
  0
LINE
  8
0
 10
113.896
 20
107.789
 11
114.073
 21
107.853
  0
LINE
  8
0
 10
114.073
 20
107.853
 11
114.254
 21
107.906
  0
LINE
  8
0
 10
114.254
 20
107.906
 11
114.438
 21
107.947
  0
LINE
  8
0
 10
114.438
 20
107.947
 11
114.624
 21
107.976
  0
LINE
  8
0
 10
114.624
 20
107.976
 11
114.812
 21
107.994
  0
LINE
  8
0
 10
114.812
 20
107.994
 11
115
 21
108
  0
LINE
  8
0
 10
115
 20
108
 11
115.188
 21
107.994
  0
LINE
  8
0
 10
115.188
 20
107.994
 11
115.376
 21
107.976
  0
LINE
  8
0
 10
115.376
 20
107.976
 11
115.562
 21
107.947
  0
LINE
  8
0
 10
115.562
 20
107.947
 11
115.746
 21
107.906
  0
LINE
  8
0
 10
115.746
 20
107.906
 11
115.927
 21
107.853
  0
LINE
  8
0
 10
115.927
 20
107.853
 11
116.104
 21
107.789
  0
LINE
  8
0
 10
116.104
 20
107.789
 11
116.277
 21
107.714
  0
LINE
  8
0
 10
116.277
 20
107.714
 11
116.445
 21
107.629
  0
LINE
  8
0
 10
116.445
 20
107.629
 11
116.607
 21
107.533
  0
LINE
  8
0
 10
116.607
 20
107.533
 11
116.763
 21
107.427
  0
LINE
  8
0
 10
116.763
 20
107.427
 11
116.912
 21
107.312
  0
LINE
  8
0
 10
116.912
 20
107.312
 11
117.054
 21
107.187
  0
LINE
  8
0
 10
117.054
 20
107.187
 11
117.187
 21
107.054
  0
LINE
  8
0
 10
117.187
 20
107.054
 11
117.312
 21
106.912
  0
LINE
  8
0
 10
117.312
 20
106.912
 11
117.427
 21
106.763
  0
LINE
  8
0
 10
117.427
 20
106.763
 11
117.533
 21
106.607
  0
LINE
  8
0
 10
117.533
 20
106.607
 11
117.629
 21
106.445
  0
LINE
  8
0
 10
117.629
 20
106.445
 11
117.714
 21
106.277
  0
LINE
  8
0
 10
117.714
 20
106.277
 11
117.789
 21
106.104
  0
LINE
  8
0
 10
117.789
 20
106.104
 11
117.853
 21
105.927
  0
LINE
  8
0
 10
117.853
 20
105.927
 11
117.906
 21
105.746
  0
LINE
  8
0
 10
117.906
 20
105.746
 11
117.947
 21
105.562
  0
LINE
  8
0
 10
117.947
 20
105.562
 11
117.976
 21
105.376
  0
LINE
  8
0
 10
117.976
 20
105.376
 11
117.994
 21
105.188
  0
LINE
  8
0
 10
117.994
 20
105.188
 11
118
 21
105
  0
LINE
  8
0
 10
118
 20
105
 11
117.994
 21
104.812
  0
LINE
  8
0
 10
117.994
 20
104.812
 11
117.976
 21
104.624
  0
LINE
  8
0
 10
117.976
 20
104.624
 11
117.947
 21
104.438
  0
LINE
  8
0
 10
117.947
 20
104.438
 11
117.906
 21
104.254
  0
LINE
  8
0
 10
117.906
 20
104.254
 11
117.853
 21
104.073
  0
LINE
  8
0
 10
117.853
 20
104.073
 11
117.789
 21
103.896
  0
LINE
  8
0
 10
117.789
 20
103.896
 11
117.714
 21
103.723
  0
LINE
  8
0
 10
117.714
 20
103.723
 11
117.629
 21
103.555
  0
LINE
  8
0
 10
117.629
 20
103.555
 11
117.533
 21
103.393
  0
LINE
  8
0
 10
117.533
 20
103.393
 11
117.427
 21
103.237
  0
LINE
  8
0
 10
117.427
 20
103.237
 11
117.312
 21
103.088
  0
LINE
  8
0
 10
117.312
 20
103.088
 11
117.187
 21
102.946
  0
LINE
  8
0
 10
117.187
 20
102.946
 11
117.054
 21
102.813
  0
LINE
  8
0
 10
117.054
 20
102.813
 11
116.912
 21
102.688
  0
LINE
  8
0
 10
116.912
 20
102.688
 11
116.763
 21
102.573
  0
LINE
  8
0
 10
116.763
 20
102.573
 11
116.607
 21
102.467
  0
LINE
  8
0
 10
116.607
 20
102.467
 11
116.445
 21
102.371
  0
LINE
  8
0
 10
116.445
 20
102.371
 11
116.277
 21
102.286
  0
LINE
  8
0
 10
116.277
 20
102.286
 11
116.104
 21
102.211
  0
LINE
  8
0
 10
116.104
 20
102.211
 11
115.927
 21
102.147
  0
LINE
  8
0
 10
115.927
 20
102.147
 11
115.746
 21
102.094
  0
LINE
  8
0
 10
115.746
 20
102.094
 11
115.562
 21
102.053
  0
LINE
  8
0
 10
115.562
 20
102.053
 11
115.376
 21
102.024
  0
LINE
  8
0
 10
115.376
 20
102.024
 11
115.188
 21
102.006
  0
LINE
  8
0
 10
115.188
 20
102.006
 11
115
 21
102
  0
LINE
  8
0
 10
115
 20
102
 11
114.812
 21
102.006
  0
LINE
  8
0
 10
-115.188
 20
102.006
 11
-115.376
 21
102.024
  0
LINE
  8
0
 10
-115.376
 20
102.024
 11
-115.562
 21
102.053
  0
LINE
  8
0
 10
-115.562
 20
102.053
 11
-115.746
 21
102.094
  0
LINE
  8
0
 10
-115.746
 20
102.094
 11
-115.927
 21
102.147
  0
LINE
  8
0
 10
-115.927
 20
102.147
 11
-116.104
 21
102.211
  0
LINE
  8
0
 10
-116.104
 20
102.211
 11
-116.277
 21
102.286
  0
LINE
  8
0
 10
-116.277
 20
102.286
 11
-116.445
 21
102.371
  0
LINE
  8
0
 10
-116.445
 20
102.371
 11
-116.607
 21
102.467
  0
LINE
  8
0
 10
-116.607
 20
102.467
 11
-116.763
 21
102.573
  0
LINE
  8
0
 10
-116.763
 20
102.573
 11
-116.912
 21
102.688
  0
LINE
  8
0
 10
-116.912
 20
102.688
 11
-117.054
 21
102.813
  0
LINE
  8
0
 10
-117.054
 20
102.813
 11
-117.187
 21
102.946
  0
LINE
  8
0
 10
-117.187
 20
102.946
 11
-117.312
 21
103.088
  0
LINE
  8
0
 10
-117.312
 20
103.088
 11
-117.427
 21
103.237
  0
LINE
  8
0
 10
-117.427
 20
103.237
 11
-117.533
 21
103.393
  0
LINE
  8
0
 10
-117.533
 20
103.393
 11
-117.629
 21
103.555
  0
LINE
  8
0
 10
-117.629
 20
103.555
 11
-117.714
 21
103.723
  0
LINE
  8
0
 10
-117.714
 20
103.723
 11
-117.789
 21
103.896
  0
LINE
  8
0
 10
-117.789
 20
103.896
 11
-117.853
 21
104.073
  0
LINE
  8
0
 10
-117.853
 20
104.073
 11
-117.906
 21
104.254
  0
LINE
  8
0
 10
-117.906
 20
104.254
 11
-117.947
 21
104.438
  0
LINE
  8
0
 10
-117.947
 20
104.438
 11
-117.976
 21
104.624
  0
LINE
  8
0
 10
-117.976
 20
104.624
 11
-117.994
 21
104.812
  0
LINE
  8
0
 10
-117.994
 20
104.812
 11
-118
 21
105
  0
LINE
  8
0
 10
-118
 20
105
 11
-117.994
 21
105.188
  0
LINE
  8
0
 10
-117.994
 20
105.188
 11
-117.976
 21
105.376
  0
LINE
  8
0
 10
-117.976
 20
105.376
 11
-117.947
 21
105.562
  0
LINE
  8
0
 10
-117.947
 20
105.562
 11
-117.906
 21
105.746
  0
LINE
  8
0
 10
-117.906
 20
105.746
 11
-117.853
 21
105.927
  0
LINE
  8
0
 10
-117.853
 20
105.927
 11
-117.789
 21
106.104
  0
LINE
  8
0
 10
-117.789
 20
106.104
 11
-117.714
 21
106.277
  0
LINE
  8
0
 10
-117.714
 20
106.277
 11
-117.629
 21
106.445
  0
LINE
  8
0
 10
-117.629
 20
106.445
 11
-117.533
 21
106.607
  0
LINE
  8
0
 10
-117.533
 20
106.607
 11
-117.427
 21
106.763
  0
LINE
  8
0
 10
-117.427
 20
106.763
 11
-117.312
 21
106.912
  0
LINE
  8
0
 10
-117.312
 20
106.912
 11
-117.187
 21
107.054
  0
LINE
  8
0
 10
-117.187
 20
107.054
 11
-117.054
 21
107.187
  0
LINE
  8
0
 10
-117.054
 20
107.187
 11
-116.912
 21
107.312
  0
LINE
  8
0
 10
-116.912
 20
107.312
 11
-116.763
 21
107.427
  0
LINE
  8
0
 10
-116.763
 20
107.427
 11
-116.607
 21
107.533
  0
LINE
  8
0
 10
-116.607
 20
107.533
 11
-116.445
 21
107.629
  0
LINE
  8
0
 10
-116.445
 20
107.629
 11
-116.277
 21
107.714
  0
LINE
  8
0
 10
-116.277
 20
107.714
 11
-116.104
 21
107.789
  0
LINE
  8
0
 10
-116.104
 20
107.789
 11
-115.927
 21
107.853
  0
LINE
  8
0
 10
-115.927
 20
107.853
 11
-115.746
 21
107.906
  0
LINE
  8
0
 10
-115.746
 20
107.906
 11
-115.562
 21
107.947
  0
LINE
  8
0
 10
-115.562
 20
107.947
 11
-115.376
 21
107.976
  0
LINE
  8
0
 10
-115.376
 20
107.976
 11
-115.188
 21
107.994
  0
LINE
  8
0
 10
-115.188
 20
107.994
 11
-115
 21
108
  0
LINE
  8
0
 10
-115
 20
108
 11
-114.812
 21
107.994
  0
LINE
  8
0
 10
-114.812
 20
107.994
 11
-114.624
 21
107.976
  0
LINE
  8
0
 10
-114.624
 20
107.976
 11
-114.438
 21
107.947
  0
LINE
  8
0
 10
-114.438
 20
107.947
 11
-114.254
 21
107.906
  0
LINE
  8
0
 10
-114.254
 20
107.906
 11
-114.073
 21
107.853
  0
LINE
  8
0
 10
-114.073
 20
107.853
 11
-113.896
 21
107.789
  0
LINE
  8
0
 10
-113.896
 20
107.789
 11
-113.723
 21
107.714
  0
LINE
  8
0
 10
-113.723
 20
107.714
 11
-113.555
 21
107.629
  0
LINE
  8
0
 10
-113.555
 20
107.629
 11
-113.393
 21
107.533
  0
LINE
  8
0
 10
-113.393
 20
107.533
 11
-113.237
 21
107.427
  0
LINE
  8
0
 10
-113.237
 20
107.427
 11
-113.088
 21
107.312
  0
LINE
  8
0
 10
-113.088
 20
107.312
 11
-112.946
 21
107.187
  0
LINE
  8
0
 10
-112.946
 20
107.187
 11
-112.813
 21
107.054
  0
LINE
  8
0
 10
-112.813
 20
107.054
 11
-112.688
 21
106.912
  0
LINE
  8
0
 10
-112.688
 20
106.912
 11
-112.573
 21
106.763
  0
LINE
  8
0
 10
-112.573
 20
106.763
 11
-112.467
 21
106.607
  0
LINE
  8
0
 10
-112.467
 20
106.607
 11
-112.371
 21
106.445
  0
LINE
  8
0
 10
-112.371
 20
106.445
 11
-112.286
 21
106.277
  0
LINE
  8
0
 10
-112.286
 20
106.277
 11
-112.211
 21
106.104
  0
LINE
  8
0
 10
-112.211
 20
106.104
 11
-112.147
 21
105.927
  0
LINE
  8
0
 10
-112.147
 20
105.927
 11
-112.094
 21
105.746
  0
LINE
  8
0
 10
-112.094
 20
105.746
 11
-112.053
 21
105.562
  0
LINE
  8
0
 10
-112.053
 20
105.562
 11
-112.024
 21
105.376
  0
LINE
  8
0
 10
-112.024
 20
105.376
 11
-112.006
 21
105.188
  0
LINE
  8
0
 10
-112.006
 20
105.188
 11
-112
 21
105
  0
LINE
  8
0
 10
-112
 20
105
 11
-112.006
 21
104.812
  0
LINE
  8
0
 10
-112.006
 20
104.812
 11
-112.024
 21
104.624
  0
LINE
  8
0
 10
-112.024
 20
104.624
 11
-112.053
 21
104.438
  0
LINE
  8
0
 10
-112.053
 20
104.438
 11
-112.094
 21
104.254
  0
LINE
  8
0
 10
-112.094
 20
104.254
 11
-112.147
 21
104.073
  0
LINE
  8
0
 10
-112.147
 20
104.073
 11
-112.211
 21
103.896
  0
LINE
  8
0
 10
-112.211
 20
103.896
 11
-112.286
 21
103.723
  0
LINE
  8
0
 10
-112.286
 20
103.723
 11
-112.371
 21
103.555
  0
LINE
  8
0
 10
-112.371
 20
103.555
 11
-112.467
 21
103.393
  0
LINE
  8
0
 10
-112.467
 20
103.393
 11
-112.573
 21
103.237
  0
LINE
  8
0
 10
-112.573
 20
103.237
 11
-112.688
 21
103.088
  0
LINE
  8
0
 10
-112.688
 20
103.088
 11
-112.813
 21
102.946
  0
LINE
  8
0
 10
-112.813
 20
102.946
 11
-112.946
 21
102.813
  0
LINE
  8
0
 10
-112.946
 20
102.813
 11
-113.088
 21
102.688
  0
LINE
  8
0
 10
-113.088
 20
102.688
 11
-113.237
 21
102.573
  0
LINE
  8
0
 10
-113.237
 20
102.573
 11
-113.393
 21
102.467
  0
LINE
  8
0
 10
-113.393
 20
102.467
 11
-113.555
 21
102.371
  0
LINE
  8
0
 10
-113.555
 20
102.371
 11
-113.723
 21
102.286
  0
LINE
  8
0
 10
-113.723
 20
102.286
 11
-113.896
 21
102.211
  0
LINE
  8
0
 10
-113.896
 20
102.211
 11
-114.073
 21
102.147
  0
LINE
  8
0
 10
-114.073
 20
102.147
 11
-114.254
 21
102.094
  0
LINE
  8
0
 10
-114.254
 20
102.094
 11
-114.438
 21
102.053
  0
LINE
  8
0
 10
-114.438
 20
102.053
 11
-114.624
 21
102.024
  0
LINE
  8
0
 10
-114.624
 20
102.024
 11
-114.812
 21
102.006
  0
LINE
  8
0
 10
-114.812
 20
102.006
 11
-115
 21
102
  0
LINE
  8
0
 10
-115
 20
102
 11
-115.188
 21
102.006
  0
LINE
  8
0
 10
-57.5
 20
-95
 11
-57.5
 21
95
  0
LINE
  8
0
 10
-57.5
 20
95
 11
57.5
 21
95
  0
LINE
  8
0
 10
57.5
 20
95
 11
57.5
 21
-95
  0
LINE
  8
0
 10
57.5
 20
-95
 11
-57.5
 21
-95
  0
LINE
  8
0
 10
114.812
 20
82.0059
 11
114.624
 21
82.0237
  0
LINE
  8
0
 10
114.624
 20
82.0237
 11
114.438
 21
82.0531
  0
LINE
  8
0
 10
114.438
 20
82.0531
 11
114.254
 21
82.0943
  0
LINE
  8
0
 10
114.254
 20
82.0943
 11
114.073
 21
82.1468
  0
LINE
  8
0
 10
114.073
 20
82.1468
 11
113.896
 21
82.2107
  0
LINE
  8
0
 10
113.896
 20
82.2107
 11
113.723
 21
82.2855
  0
LINE
  8
0
 10
113.723
 20
82.2855
 11
113.555
 21
82.3711
  0
LINE
  8
0
 10
113.555
 20
82.3711
 11
113.393
 21
82.467
  0
LINE
  8
0
 10
113.393
 20
82.467
 11
113.237
 21
82.573
  0
LINE
  8
0
 10
113.237
 20
82.573
 11
113.088
 21
82.6885
  0
LINE
  8
0
 10
113.088
 20
82.6885
 11
112.946
 21
82.8131
  0
LINE
  8
0
 10
112.946
 20
82.8131
 11
112.813
 21
82.9464
  0
LINE
  8
0
 10
112.813
 20
82.9464
 11
112.688
 21
83.0877
  0
LINE
  8
0
 10
112.688
 20
83.0877
 11
112.573
 21
83.2366
  0
LINE
  8
0
 10
112.573
 20
83.2366
 11
112.467
 21
83.3925
  0
LINE
  8
0
 10
112.467
 20
83.3925
 11
112.371
 21
83.5547
  0
LINE
  8
0
 10
112.371
 20
83.5547
 11
112.286
 21
83.7227
  0
LINE
  8
0
 10
112.286
 20
83.7227
 11
112.211
 21
83.8956
  0
LINE
  8
0
 10
112.211
 20
83.8956
 11
112.147
 21
84.073
  0
LINE
  8
0
 10
112.147
 20
84.073
 11
112.094
 21
84.2539
  0
LINE
  8
0
 10
112.094
 20
84.2539
 11
112.053
 21
84.4379
  0
LINE
  8
0
 10
112.053
 20
84.4379
 11
112.024
 21
84.624
  0
LINE
  8
0
 10
112.024
 20
84.624
 11
112.006
 21
84.8116
  0
LINE
  8
0
 10
112.006
 20
84.8116
 11
112
 21
85
  0
LINE
  8
0
 10
112
 20
85
 11
112.006
 21
85.1884
  0
LINE
  8
0
 10
112.006
 20
85.1884
 11
112.024
 21
85.376
  0
LINE
  8
0
 10
112.024
 20
85.376
 11
112.053
 21
85.5621
  0
LINE
  8
0
 10
112.053
 20
85.5621
 11
112.094
 21
85.7461
  0
LINE
  8
0
 10
112.094
 20
85.7461
 11
112.147
 21
85.9271
  0
LINE
  8
0
 10
112.147
 20
85.9271
 11
112.211
 21
86.1044
  0
LINE
  8
0
 10
112.211
 20
86.1044
 11
112.286
 21
86.2773
  0
LINE
  8
0
 10
112.286
 20
86.2773
 11
112.371
 21
86.4453
  0
LINE
  8
0
 10
112.371
 20
86.4453
 11
112.467
 21
86.6075
  0
LINE
  8
0
 10
112.467
 20
86.6075
 11
112.573
 21
86.7634
  0
LINE
  8
0
 10
112.573
 20
86.7634
 11
112.688
 21
86.9123
  0
LINE
  8
0
 10
112.688
 20
86.9123
 11
112.813
 21
87.0536
  0
LINE
  8
0
 10
112.813
 20
87.0536
 11
112.946
 21
87.1869
  0
LINE
  8
0
 10
112.946
 20
87.1869
 11
113.088
 21
87.3116
  0
LINE
  8
0
 10
113.088
 20
87.3116
 11
113.237
 21
87.4271
  0
LINE
  8
0
 10
113.237
 20
87.4271
 11
113.393
 21
87.533
  0
LINE
  8
0
 10
113.393
 20
87.533
 11
113.555
 21
87.6289
  0
LINE
  8
0
 10
113.555
 20
87.6289
 11
113.723
 21
87.7145
  0
LINE
  8
0
 10
113.723
 20
87.7145
 11
113.896
 21
87.7893
  0
LINE
  8
0
 10
113.896
 20
87.7893
 11
114.073
 21
87.8532
  0
LINE
  8
0
 10
114.073
 20
87.8532
 11
114.254
 21
87.9058
  0
LINE
  8
0
 10
114.254
 20
87.9058
 11
114.438
 21
87.9469
  0
LINE
  8
0
 10
114.438
 20
87.9469
 11
114.624
 21
87.9763
  0
LINE
  8
0
 10
114.624
 20
87.9763
 11
114.812
 21
87.9941
  0
LINE
  8
0
 10
114.812
 20
87.9941
 11
115
 21
88
  0
LINE
  8
0
 10
115
 20
88
 11
115.188
 21
87.9941
  0
LINE
  8
0
 10
115.188
 20
87.9941
 11
115.376
 21
87.9763
  0
LINE
  8
0
 10
115.376
 20
87.9763
 11
115.562
 21
87.9469
  0
LINE
  8
0
 10
115.562
 20
87.9469
 11
115.746
 21
87.9058
  0
LINE
  8
0
 10
115.746
 20
87.9058
 11
115.927
 21
87.8532
  0
LINE
  8
0
 10
115.927
 20
87.8532
 11
116.104
 21
87.7893
  0
LINE
  8
0
 10
116.104
 20
87.7893
 11
116.277
 21
87.7145
  0
LINE
  8
0
 10
116.277
 20
87.7145
 11
116.445
 21
87.6289
  0
LINE
  8
0
 10
116.445
 20
87.6289
 11
116.607
 21
87.533
  0
LINE
  8
0
 10
116.607
 20
87.533
 11
116.763
 21
87.4271
  0
LINE
  8
0
 10
116.763
 20
87.4271
 11
116.912
 21
87.3116
  0
LINE
  8
0
 10
116.912
 20
87.3116
 11
117.054
 21
87.1869
  0
LINE
  8
0
 10
117.054
 20
87.1869
 11
117.187
 21
87.0536
  0
LINE
  8
0
 10
117.187
 20
87.0536
 11
117.312
 21
86.9123
  0
LINE
  8
0
 10
117.312
 20
86.9123
 11
117.427
 21
86.7634
  0
LINE
  8
0
 10
117.427
 20
86.7634
 11
117.533
 21
86.6075
  0
LINE
  8
0
 10
117.533
 20
86.6075
 11
117.629
 21
86.4453
  0
LINE
  8
0
 10
117.629
 20
86.4453
 11
117.714
 21
86.2773
  0
LINE
  8
0
 10
117.714
 20
86.2773
 11
117.789
 21
86.1044
  0
LINE
  8
0
 10
117.789
 20
86.1044
 11
117.853
 21
85.9271
  0
LINE
  8
0
 10
117.853
 20
85.9271
 11
117.906
 21
85.7461
  0
LINE
  8
0
 10
117.906
 20
85.7461
 11
117.947
 21
85.5621
  0
LINE
  8
0
 10
117.947
 20
85.5621
 11
117.976
 21
85.376
  0
LINE
  8
0
 10
117.976
 20
85.376
 11
117.994
 21
85.1884
  0
LINE
  8
0
 10
117.994
 20
85.1884
 11
118
 21
85
  0
LINE
  8
0
 10
118
 20
85
 11
117.994
 21
84.8116
  0
LINE
  8
0
 10
117.994
 20
84.8116
 11
117.976
 21
84.624
  0
LINE
  8
0
 10
117.976
 20
84.624
 11
117.947
 21
84.4379
  0
LINE
  8
0
 10
117.947
 20
84.4379
 11
117.906
 21
84.2539
  0
LINE
  8
0
 10
117.906
 20
84.2539
 11
117.853
 21
84.073
  0
LINE
  8
0
 10
117.853
 20
84.073
 11
117.789
 21
83.8956
  0
LINE
  8
0
 10
117.789
 20
83.8956
 11
117.714
 21
83.7227
  0
LINE
  8
0
 10
117.714
 20
83.7227
 11
117.629
 21
83.5547
  0
LINE
  8
0
 10
117.629
 20
83.5547
 11
117.533
 21
83.3925
  0
LINE
  8
0
 10
117.533
 20
83.3925
 11
117.427
 21
83.2366
  0
LINE
  8
0
 10
117.427
 20
83.2366
 11
117.312
 21
83.0877
  0
LINE
  8
0
 10
117.312
 20
83.0877
 11
117.187
 21
82.9464
  0
LINE
  8
0
 10
117.187
 20
82.9464
 11
117.054
 21
82.8131
  0
LINE
  8
0
 10
117.054
 20
82.8131
 11
116.912
 21
82.6885
  0
LINE
  8
0
 10
116.912
 20
82.6885
 11
116.763
 21
82.573
  0
LINE
  8
0
 10
116.763
 20
82.573
 11
116.607
 21
82.467
  0
LINE
  8
0
 10
116.607
 20
82.467
 11
116.445
 21
82.3711
  0
LINE
  8
0
 10
116.445
 20
82.3711
 11
116.277
 21
82.2855
  0
LINE
  8
0
 10
116.277
 20
82.2855
 11
116.104
 21
82.2107
  0
LINE
  8
0
 10
116.104
 20
82.2107
 11
115.927
 21
82.1468
  0
LINE
  8
0
 10
115.927
 20
82.1468
 11
115.746
 21
82.0943
  0
LINE
  8
0
 10
115.746
 20
82.0943
 11
115.562
 21
82.0531
  0
LINE
  8
0
 10
115.562
 20
82.0531
 11
115.376
 21
82.0237
  0
LINE
  8
0
 10
115.376
 20
82.0237
 11
115.188
 21
82.0059
  0
LINE
  8
0
 10
115.188
 20
82.0059
 11
115
 21
82
  0
LINE
  8
0
 10
115
 20
82
 11
114.812
 21
82.0059
  0
LINE
  8
0
 10
-115.188
 20
82.0059
 11
-115.376
 21
82.0237
  0
LINE
  8
0
 10
-115.376
 20
82.0237
 11
-115.562
 21
82.0531
  0
LINE
  8
0
 10
-115.562
 20
82.0531
 11
-115.746
 21
82.0943
  0
LINE
  8
0
 10
-115.746
 20
82.0943
 11
-115.927
 21
82.1468
  0
LINE
  8
0
 10
-115.927
 20
82.1468
 11
-116.104
 21
82.2107
  0
LINE
  8
0
 10
-116.104
 20
82.2107
 11
-116.277
 21
82.2855
  0
LINE
  8
0
 10
-116.277
 20
82.2855
 11
-116.445
 21
82.3711
  0
LINE
  8
0
 10
-116.445
 20
82.3711
 11
-116.607
 21
82.467
  0
LINE
  8
0
 10
-116.607
 20
82.467
 11
-116.763
 21
82.573
  0
LINE
  8
0
 10
-116.763
 20
82.573
 11
-116.912
 21
82.6885
  0
LINE
  8
0
 10
-116.912
 20
82.6885
 11
-117.054
 21
82.8131
  0
LINE
  8
0
 10
-117.054
 20
82.8131
 11
-117.187
 21
82.9464
  0
LINE
  8
0
 10
-117.187
 20
82.9464
 11
-117.312
 21
83.0877
  0
LINE
  8
0
 10
-117.312
 20
83.0877
 11
-117.427
 21
83.2366
  0
LINE
  8
0
 10
-117.427
 20
83.2366
 11
-117.533
 21
83.3925
  0
LINE
  8
0
 10
-117.533
 20
83.3925
 11
-117.629
 21
83.5547
  0
LINE
  8
0
 10
-117.629
 20
83.5547
 11
-117.714
 21
83.7227
  0
LINE
  8
0
 10
-117.714
 20
83.7227
 11
-117.789
 21
83.8956
  0
LINE
  8
0
 10
-117.789
 20
83.8956
 11
-117.853
 21
84.073
  0
LINE
  8
0
 10
-117.853
 20
84.073
 11
-117.906
 21
84.2539
  0
LINE
  8
0
 10
-117.906
 20
84.2539
 11
-117.947
 21
84.4379
  0
LINE
  8
0
 10
-117.947
 20
84.4379
 11
-117.976
 21
84.624
  0
LINE
  8
0
 10
-117.976
 20
84.624
 11
-117.994
 21
84.8116
  0
LINE
  8
0
 10
-117.994
 20
84.8116
 11
-118
 21
85
  0
LINE
  8
0
 10
-118
 20
85
 11
-117.994
 21
85.1884
  0
LINE
  8
0
 10
-117.994
 20
85.1884
 11
-117.976
 21
85.376
  0
LINE
  8
0
 10
-117.976
 20
85.376
 11
-117.947
 21
85.5621
  0
LINE
  8
0
 10
-117.947
 20
85.5621
 11
-117.906
 21
85.7461
  0
LINE
  8
0
 10
-117.906
 20
85.7461
 11
-117.853
 21
85.9271
  0
LINE
  8
0
 10
-117.853
 20
85.9271
 11
-117.789
 21
86.1044
  0
LINE
  8
0
 10
-117.789
 20
86.1044
 11
-117.714
 21
86.2773
  0
LINE
  8
0
 10
-117.714
 20
86.2773
 11
-117.629
 21
86.4453
  0
LINE
  8
0
 10
-117.629
 20
86.4453
 11
-117.533
 21
86.6075
  0
LINE
  8
0
 10
-117.533
 20
86.6075
 11
-117.427
 21
86.7634
  0
LINE
  8
0
 10
-117.427
 20
86.7634
 11
-117.312
 21
86.9123
  0
LINE
  8
0
 10
-117.312
 20
86.9123
 11
-117.187
 21
87.0536
  0
LINE
  8
0
 10
-117.187
 20
87.0536
 11
-117.054
 21
87.1869
  0
LINE
  8
0
 10
-117.054
 20
87.1869
 11
-116.912
 21
87.3116
  0
LINE
  8
0
 10
-116.912
 20
87.3116
 11
-116.763
 21
87.4271
  0
LINE
  8
0
 10
-116.763
 20
87.4271
 11
-116.607
 21
87.533
  0
LINE
  8
0
 10
-116.607
 20
87.533
 11
-116.445
 21
87.6289
  0
LINE
  8
0
 10
-116.445
 20
87.6289
 11
-116.277
 21
87.7145
  0
LINE
  8
0
 10
-116.277
 20
87.7145
 11
-116.104
 21
87.7893
  0
LINE
  8
0
 10
-116.104
 20
87.7893
 11
-115.927
 21
87.8532
  0
LINE
  8
0
 10
-115.927
 20
87.8532
 11
-115.746
 21
87.9058
  0
LINE
  8
0
 10
-115.746
 20
87.9058
 11
-115.562
 21
87.9469
  0
LINE
  8
0
 10
-115.562
 20
87.9469
 11
-115.376
 21
87.9763
  0
LINE
  8
0
 10
-115.376
 20
87.9763
 11
-115.188
 21
87.9941
  0
LINE
  8
0
 10
-115.188
 20
87.9941
 11
-115
 21
88
  0
LINE
  8
0
 10
-115
 20
88
 11
-114.812
 21
87.9941
  0
LINE
  8
0
 10
-114.812
 20
87.9941
 11
-114.624
 21
87.9763
  0
LINE
  8
0
 10
-114.624
 20
87.9763
 11
-114.438
 21
87.9469
  0
LINE
  8
0
 10
-114.438
 20
87.9469
 11
-114.254
 21
87.9058
  0
LINE
  8
0
 10
-114.254
 20
87.9058
 11
-114.073
 21
87.8532
  0
LINE
  8
0
 10
-114.073
 20
87.8532
 11
-113.896
 21
87.7893
  0
LINE
  8
0
 10
-113.896
 20
87.7893
 11
-113.723
 21
87.7145
  0
LINE
  8
0
 10
-113.723
 20
87.7145
 11
-113.555
 21
87.6289
  0
LINE
  8
0
 10
-113.555
 20
87.6289
 11
-113.393
 21
87.533
  0
LINE
  8
0
 10
-113.393
 20
87.533
 11
-113.237
 21
87.4271
  0
LINE
  8
0
 10
-113.237
 20
87.4271
 11
-113.088
 21
87.3116
  0
LINE
  8
0
 10
-113.088
 20
87.3116
 11
-112.946
 21
87.1869
  0
LINE
  8
0
 10
-112.946
 20
87.1869
 11
-112.813
 21
87.0536
  0
LINE
  8
0
 10
-112.813
 20
87.0536
 11
-112.688
 21
86.9123
  0
LINE
  8
0
 10
-112.688
 20
86.9123
 11
-112.573
 21
86.7634
  0
LINE
  8
0
 10
-112.573
 20
86.7634
 11
-112.467
 21
86.6075
  0
LINE
  8
0
 10
-112.467
 20
86.6075
 11
-112.371
 21
86.4453
  0
LINE
  8
0
 10
-112.371
 20
86.4453
 11
-112.286
 21
86.2773
  0
LINE
  8
0
 10
-112.286
 20
86.2773
 11
-112.211
 21
86.1044
  0
LINE
  8
0
 10
-112.211
 20
86.1044
 11
-112.147
 21
85.9271
  0
LINE
  8
0
 10
-112.147
 20
85.9271
 11
-112.094
 21
85.7461
  0
LINE
  8
0
 10
-112.094
 20
85.7461
 11
-112.053
 21
85.5621
  0
LINE
  8
0
 10
-112.053
 20
85.5621
 11
-112.024
 21
85.376
  0
LINE
  8
0
 10
-112.024
 20
85.376
 11
-112.006
 21
85.1884
  0
LINE
  8
0
 10
-112.006
 20
85.1884
 11
-112
 21
85
  0
LINE
  8
0
 10
-112
 20
85
 11
-112.006
 21
84.8116
  0
LINE
  8
0
 10
-112.006
 20
84.8116
 11
-112.024
 21
84.624
  0
LINE
  8
0
 10
-112.024
 20
84.624
 11
-112.053
 21
84.4379
  0
LINE
  8
0
 10
-112.053
 20
84.4379
 11
-112.094
 21
84.2539
  0
LINE
  8
0
 10
-112.094
 20
84.2539
 11
-112.147
 21
84.073
  0
LINE
  8
0
 10
-112.147
 20
84.073
 11
-112.211
 21
83.8956
  0
LINE
  8
0
 10
-112.211
 20
83.8956
 11
-112.286
 21
83.7227
  0
LINE
  8
0
 10
-112.286
 20
83.7227
 11
-112.371
 21
83.5547
  0
LINE
  8
0
 10
-112.371
 20
83.5547
 11
-112.467
 21
83.3925
  0
LINE
  8
0
 10
-112.467
 20
83.3925
 11
-112.573
 21
83.2366
  0
LINE
  8
0
 10
-112.573
 20
83.2366
 11
-112.688
 21
83.0877
  0
LINE
  8
0
 10
-112.688
 20
83.0877
 11
-112.813
 21
82.9464
  0
LINE
  8
0
 10
-112.813
 20
82.9464
 11
-112.946
 21
82.8131
  0
LINE
  8
0
 10
-112.946
 20
82.8131
 11
-113.088
 21
82.6885
  0
LINE
  8
0
 10
-113.088
 20
82.6885
 11
-113.237
 21
82.573
  0
LINE
  8
0
 10
-113.237
 20
82.573
 11
-113.393
 21
82.467
  0
LINE
  8
0
 10
-113.393
 20
82.467
 11
-113.555
 21
82.3711
  0
LINE
  8
0
 10
-113.555
 20
82.3711
 11
-113.723
 21
82.2855
  0
LINE
  8
0
 10
-113.723
 20
82.2855
 11
-113.896
 21
82.2107
  0
LINE
  8
0
 10
-113.896
 20
82.2107
 11
-114.073
 21
82.1468
  0
LINE
  8
0
 10
-114.073
 20
82.1468
 11
-114.254
 21
82.0943
  0
LINE
  8
0
 10
-114.254
 20
82.0943
 11
-114.438
 21
82.0531
  0
LINE
  8
0
 10
-114.438
 20
82.0531
 11
-114.624
 21
82.0237
  0
LINE
  8
0
 10
-114.624
 20
82.0237
 11
-114.812
 21
82.0059
  0
LINE
  8
0
 10
-114.812
 20
82.0059
 11
-115
 21
82
  0
LINE
  8
0
 10
-115
 20
82
 11
-115.188
 21
82.0059
  0
LINE
  8
0
 10
117.89
 20
58.2485
 11
117.78
 21
58.2589
  0
LINE
  8
0
 10
117.78
 20
58.2589
 11
117.671
 21
58.2761
  0
LINE
  8
0
 10
117.671
 20
58.2761
 11
117.564
 21
58.3001
  0
LINE
  8
0
 10
117.564
 20
58.3001
 11
117.458
 21
58.3309
  0
LINE
  8
0
 10
117.458
 20
58.3309
 11
117.354
 21
58.3683
  0
LINE
  8
0
 10
117.354
 20
58.3683
 11
117.253
 21
58.412
  0
LINE
  8
0
 10
117.253
 20
58.412
 11
117.155
 21
58.4621
  0
LINE
  8
0
 10
117.155
 20
58.4621
 11
117.06
 21
58.5182
  0
LINE
  8
0
 10
117.06
 20
58.5182
 11
116.968
 21
58.5802
  0
LINE
  8
0
 10
116.968
 20
58.5802
 11
116.881
 21
58.6478
  0
LINE
  8
0
 10
116.881
 20
58.6478
 11
116.799
 21
58.7207
  0
LINE
  8
0
 10
116.799
 20
58.7207
 11
116.721
 21
58.7986
  0
LINE
  8
0
 10
116.721
 20
58.7986
 11
116.648
 21
58.8813
  0
LINE
  8
0
 10
116.648
 20
58.8813
 11
116.58
 21
58.9684
  0
LINE
  8
0
 10
116.58
 20
58.9684
 11
116.518
 21
59.0596
  0
LINE
  8
0
 10
116.518
 20
59.0596
 11
116.462
 21
59.1545
  0
LINE
  8
0
 10
116.462
 20
59.1545
 11
116.412
 21
59.2528
  0
LINE
  8
0
 10
116.412
 20
59.2528
 11
116.368
 21
59.3539
  0
LINE
  8
0
 10
116.368
 20
59.3539
 11
116.331
 21
59.4577
  0
LINE
  8
0
 10
116.331
 20
59.4577
 11
116.3
 21
59.5636
  0
LINE
  8
0
 10
116.3
 20
59.5636
 11
116.276
 21
59.6712
  0
LINE
  8
0
 10
116.276
 20
59.6712
 11
116.259
 21
59.78
  0
LINE
  8
0
 10
116.259
 20
59.78
 11
116.248
 21
59.8898
  0
LINE
  8
0
 10
116.248
 20
59.8898
 11
116.245
 21
60
  0
LINE
  8
0
 10
116.245
 20
60
 11
116.248
 21
60.1102
  0
LINE
  8
0
 10
116.248
 20
60.1102
 11
116.259
 21
60.22
  0
LINE
  8
0
 10
116.259
 20
60.22
 11
116.276
 21
60.3288
  0
LINE
  8
0
 10
116.276
 20
60.3288
 11
116.3
 21
60.4364
  0
LINE
  8
0
 10
116.3
 20
60.4364
 11
116.331
 21
60.5423
  0
LINE
  8
0
 10
116.331
 20
60.5423
 11
116.368
 21
60.6461
  0
LINE
  8
0
 10
116.368
 20
60.6461
 11
116.412
 21
60.7472
  0
LINE
  8
0
 10
116.412
 20
60.7472
 11
116.462
 21
60.8455
  0
LINE
  8
0
 10
116.462
 20
60.8455
 11
116.518
 21
60.9404
  0
LINE
  8
0
 10
116.518
 20
60.9404
 11
116.58
 21
61.0316
  0
LINE
  8
0
 10
116.58
 20
61.0316
 11
116.648
 21
61.1187
  0
LINE
  8
0
 10
116.648
 20
61.1187
 11
116.721
 21
61.2014
  0
LINE
  8
0
 10
116.721
 20
61.2014
 11
116.799
 21
61.2793
  0
LINE
  8
0
 10
116.799
 20
61.2793
 11
116.881
 21
61.3522
  0
LINE
  8
0
 10
116.881
 20
61.3522
 11
116.968
 21
61.4198
  0
LINE
  8
0
 10
116.968
 20
61.4198
 11
117.06
 21
61.4818
  0
LINE
  8
0
 10
117.06
 20
61.4818
 11
117.155
 21
61.5379
  0
LINE
  8
0
 10
117.155
 20
61.5379
 11
117.253
 21
61.588
  0
LINE
  8
0
 10
117.253
 20
61.588
 11
117.354
 21
61.6317
  0
LINE
  8
0
 10
117.354
 20
61.6317
 11
117.458
 21
61.6691
  0
LINE
  8
0
 10
117.458
 20
61.6691
 11
117.564
 21
61.6999
  0
LINE
  8
0
 10
117.564
 20
61.6999
 11
117.671
 21
61.7239
  0
LINE
  8
0
 10
117.671
 20
61.7239
 11
117.78
 21
61.7411
  0
LINE
  8
0
 10
117.78
 20
61.7411
 11
117.89
 21
61.7515
  0
LINE
  8
0
 10
117.89
 20
61.7515
 11
118
 21
61.755
  0
LINE
  8
0
 10
118
 20
61.755
 11
118.11
 21
61.7515
  0
LINE
  8
0
 10
118.11
 20
61.7515
 11
118.22
 21
61.7411
  0
LINE
  8
0
 10
118.22
 20
61.7411
 11
118.329
 21
61.7239
  0
LINE
  8
0
 10
118.329
 20
61.7239
 11
118.436
 21
61.6999
  0
LINE
  8
0
 10
118.436
 20
61.6999
 11
118.542
 21
61.6691
  0
LINE
  8
0
 10
118.542
 20
61.6691
 11
118.646
 21
61.6317
  0
LINE
  8
0
 10
118.646
 20
61.6317
 11
118.747
 21
61.588
  0
LINE
  8
0
 10
118.747
 20
61.588
 11
118.845
 21
61.5379
  0
LINE
  8
0
 10
118.845
 20
61.5379
 11
118.94
 21
61.4818
  0
LINE
  8
0
 10
118.94
 20
61.4818
 11
119.032
 21
61.4198
  0
LINE
  8
0
 10
119.032
 20
61.4198
 11
119.119
 21
61.3522
  0
LINE
  8
0
 10
119.119
 20
61.3522
 11
119.201
 21
61.2793
  0
LINE
  8
0
 10
119.201
 20
61.2793
 11
119.279
 21
61.2014
  0
LINE
  8
0
 10
119.279
 20
61.2014
 11
119.352
 21
61.1187
  0
LINE
  8
0
 10
119.352
 20
61.1187
 11
119.42
 21
61.0316
  0
LINE
  8
0
 10
119.42
 20
61.0316
 11
119.482
 21
60.9404
  0
LINE
  8
0
 10
119.482
 20
60.9404
 11
119.538
 21
60.8455
  0
LINE
  8
0
 10
119.538
 20
60.8455
 11
119.588
 21
60.7472
  0
LINE
  8
0
 10
119.588
 20
60.7472
 11
119.632
 21
60.6461
  0
LINE
  8
0
 10
119.632
 20
60.6461
 11
119.669
 21
60.5423
  0
LINE
  8
0
 10
119.669
 20
60.5423
 11
119.7
 21
60.4364
  0
LINE
  8
0
 10
119.7
 20
60.4364
 11
119.724
 21
60.3288
  0
LINE
  8
0
 10
119.724
 20
60.3288
 11
119.741
 21
60.22
  0
LINE
  8
0
 10
119.741
 20
60.22
 11
119.752
 21
60.1102
  0
LINE
  8
0
 10
119.752
 20
60.1102
 11
119.755
 21
60
  0
LINE
  8
0
 10
119.755
 20
60
 11
119.752
 21
59.8898
  0
LINE
  8
0
 10
119.752
 20
59.8898
 11
119.741
 21
59.78
  0
LINE
  8
0
 10
119.741
 20
59.78
 11
119.724
 21
59.6712
  0
LINE
  8
0
 10
119.724
 20
59.6712
 11
119.7
 21
59.5636
  0
LINE
  8
0
 10
119.7
 20
59.5636
 11
119.669
 21
59.4577
  0
LINE
  8
0
 10
119.669
 20
59.4577
 11
119.632
 21
59.3539
  0
LINE
  8
0
 10
119.632
 20
59.3539
 11
119.588
 21
59.2528
  0
LINE
  8
0
 10
119.588
 20
59.2528
 11
119.538
 21
59.1545
  0
LINE
  8
0
 10
119.538
 20
59.1545
 11
119.482
 21
59.0596
  0
LINE
  8
0
 10
119.482
 20
59.0596
 11
119.42
 21
58.9684
  0
LINE
  8
0
 10
119.42
 20
58.9684
 11
119.352
 21
58.8813
  0
LINE
  8
0
 10
119.352
 20
58.8813
 11
119.279
 21
58.7986
  0
LINE
  8
0
 10
119.279
 20
58.7986
 11
119.201
 21
58.7207
  0
LINE
  8
0
 10
119.201
 20
58.7207
 11
119.119
 21
58.6478
  0
LINE
  8
0
 10
119.119
 20
58.6478
 11
119.032
 21
58.5802
  0
LINE
  8
0
 10
119.032
 20
58.5802
 11
118.94
 21
58.5182
  0
LINE
  8
0
 10
118.94
 20
58.5182
 11
118.845
 21
58.4621
  0
LINE
  8
0
 10
118.845
 20
58.4621
 11
118.747
 21
58.412
  0
LINE
  8
0
 10
118.747
 20
58.412
 11
118.646
 21
58.3683
  0
LINE
  8
0
 10
118.646
 20
58.3683
 11
118.542
 21
58.3309
  0
LINE
  8
0
 10
118.542
 20
58.3309
 11
118.436
 21
58.3001
  0
LINE
  8
0
 10
118.436
 20
58.3001
 11
118.329
 21
58.2761
  0
LINE
  8
0
 10
118.329
 20
58.2761
 11
118.22
 21
58.2589
  0
LINE
  8
0
 10
118.22
 20
58.2589
 11
118.11
 21
58.2485
  0
LINE
  8
0
 10
118.11
 20
58.2485
 11
118
 21
58.245
  0
LINE
  8
0
 10
118
 20
58.245
 11
117.89
 21
58.2485
  0
LINE
  8
0
 10
64.8898
 20
58.2485
 11
64.78
 21
58.2589
  0
LINE
  8
0
 10
64.78
 20
58.2589
 11
64.6712
 21
58.2761
  0
LINE
  8
0
 10
64.6712
 20
58.2761
 11
64.5636
 21
58.3001
  0
LINE
  8
0
 10
64.5636
 20
58.3001
 11
64.4577
 21
58.3309
  0
LINE
  8
0
 10
64.4577
 20
58.3309
 11
64.3539
 21
58.3683
  0
LINE
  8
0
 10
64.3539
 20
58.3683
 11
64.2528
 21
58.412
  0
LINE
  8
0
 10
64.2528
 20
58.412
 11
64.1545
 21
58.4621
  0
LINE
  8
0
 10
64.1545
 20
58.4621
 11
64.0596
 21
58.5182
  0
LINE
  8
0
 10
64.0596
 20
58.5182
 11
63.9684
 21
58.5802
  0
LINE
  8
0
 10
63.9684
 20
58.5802
 11
63.8813
 21
58.6478
  0
LINE
  8
0
 10
63.8813
 20
58.6478
 11
63.7986
 21
58.7207
  0
LINE
  8
0
 10
63.7986
 20
58.7207
 11
63.7207
 21
58.7986
  0
LINE
  8
0
 10
63.7207
 20
58.7986
 11
63.6478
 21
58.8813
  0
LINE
  8
0
 10
63.6478
 20
58.8813
 11
63.5802
 21
58.9684
  0
LINE
  8
0
 10
63.5802
 20
58.9684
 11
63.5182
 21
59.0596
  0
LINE
  8
0
 10
63.5182
 20
59.0596
 11
63.4621
 21
59.1545
  0
LINE
  8
0
 10
63.4621
 20
59.1545
 11
63.412
 21
59.2528
  0
LINE
  8
0
 10
63.412
 20
59.2528
 11
63.3683
 21
59.3539
  0
LINE
  8
0
 10
63.3683
 20
59.3539
 11
63.3309
 21
59.4577
  0
LINE
  8
0
 10
63.3309
 20
59.4577
 11
63.3001
 21
59.5636
  0
LINE
  8
0
 10
63.3001
 20
59.5636
 11
63.2761
 21
59.6712
  0
LINE
  8
0
 10
63.2761
 20
59.6712
 11
63.2589
 21
59.78
  0
LINE
  8
0
 10
63.2589
 20
59.78
 11
63.2485
 21
59.8898
  0
LINE
  8
0
 10
63.2485
 20
59.8898
 11
63.245
 21
60
  0
LINE
  8
0
 10
63.245
 20
60
 11
63.2485
 21
60.1102
  0
LINE
  8
0
 10
63.2485
 20
60.1102
 11
63.2589
 21
60.22
  0
LINE
  8
0
 10
63.2589
 20
60.22
 11
63.2761
 21
60.3288
  0
LINE
  8
0
 10
63.2761
 20
60.3288
 11
63.3001
 21
60.4364
  0
LINE
  8
0
 10
63.3001
 20
60.4364
 11
63.3309
 21
60.5423
  0
LINE
  8
0
 10
63.3309
 20
60.5423
 11
63.3683
 21
60.6461
  0
LINE
  8
0
 10
63.3683
 20
60.6461
 11
63.412
 21
60.7472
  0
LINE
  8
0
 10
63.412
 20
60.7472
 11
63.4621
 21
60.8455
  0
LINE
  8
0
 10
63.4621
 20
60.8455
 11
63.5182
 21
60.9404
  0
LINE
  8
0
 10
63.5182
 20
60.9404
 11
63.5802
 21
61.0316
  0
LINE
  8
0
 10
63.5802
 20
61.0316
 11
63.6478
 21
61.1187
  0
LINE
  8
0
 10
63.6478
 20
61.1187
 11
63.7207
 21
61.2014
  0
LINE
  8
0
 10
63.7207
 20
61.2014
 11
63.7986
 21
61.2793
  0
LINE
  8
0
 10
63.7986
 20
61.2793
 11
63.8813
 21
61.3522
  0
LINE
  8
0
 10
63.8813
 20
61.3522
 11
63.9684
 21
61.4198
  0
LINE
  8
0
 10
63.9684
 20
61.4198
 11
64.0596
 21
61.4818
  0
LINE
  8
0
 10
64.0596
 20
61.4818
 11
64.1545
 21
61.5379
  0
LINE
  8
0
 10
64.1545
 20
61.5379
 11
64.2528
 21
61.588
  0
LINE
  8
0
 10
64.2528
 20
61.588
 11
64.3539
 21
61.6317
  0
LINE
  8
0
 10
64.3539
 20
61.6317
 11
64.4577
 21
61.6691
  0
LINE
  8
0
 10
64.4577
 20
61.6691
 11
64.5636
 21
61.6999
  0
LINE
  8
0
 10
64.5636
 20
61.6999
 11
64.6712
 21
61.7239
  0
LINE
  8
0
 10
64.6712
 20
61.7239
 11
64.78
 21
61.7411
  0
LINE
  8
0
 10
64.78
 20
61.7411
 11
64.8898
 21
61.7515
  0
LINE
  8
0
 10
64.8898
 20
61.7515
 11
65
 21
61.755
  0
LINE
  8
0
 10
65
 20
61.755
 11
65.1102
 21
61.7515
  0
LINE
  8
0
 10
65.1102
 20
61.7515
 11
65.22
 21
61.7411
  0
LINE
  8
0
 10
65.22
 20
61.7411
 11
65.3289
 21
61.7239
  0
LINE
  8
0
 10
65.3289
 20
61.7239
 11
65.4365
 21
61.6999
  0
LINE
  8
0
 10
65.4365
 20
61.6999
 11
65.5423
 21
61.6691
  0
LINE
  8
0
 10
65.5423
 20
61.6691
 11
65.6461
 21
61.6317
  0
LINE
  8
0
 10
65.6461
 20
61.6317
 11
65.7473
 21
61.588
  0
LINE
  8
0
 10
65.7473
 20
61.588
 11
65.8455
 21
61.5379
  0
LINE
  8
0
 10
65.8455
 20
61.5379
 11
65.9404
 21
61.4818
  0
LINE
  8
0
 10
65.9404
 20
61.4818
 11
66.0316
 21
61.4198
  0
LINE
  8
0
 10
66.0316
 20
61.4198
 11
66.1187
 21
61.3522
  0
LINE
  8
0
 10
66.1187
 20
61.3522
 11
66.2014
 21
61.2793
  0
LINE
  8
0
 10
66.2014
 20
61.2793
 11
66.2793
 21
61.2014
  0
LINE
  8
0
 10
66.2793
 20
61.2014
 11
66.3523
 21
61.1187
  0
LINE
  8
0
 10
66.3523
 20
61.1187
 11
66.4198
 21
61.0316
  0
LINE
  8
0
 10
66.4198
 20
61.0316
 11
66.4818
 21
60.9404
  0
LINE
  8
0
 10
66.4818
 20
60.9404
 11
66.5379
 21
60.8455
  0
LINE
  8
0
 10
66.5379
 20
60.8455
 11
66.588
 21
60.7472
  0
LINE
  8
0
 10
66.588
 20
60.7472
 11
66.6318
 21
60.6461
  0
LINE
  8
0
 10
66.6318
 20
60.6461
 11
66.6691
 21
60.5423
  0
LINE
  8
0
 10
66.6691
 20
60.5423
 11
66.6999
 21
60.4364
  0
LINE
  8
0
 10
66.6999
 20
60.4364
 11
66.7239
 21
60.3288
  0
LINE
  8
0
 10
66.7239
 20
60.3288
 11
66.7412
 21
60.22
  0
LINE
  8
0
 10
66.7412
 20
60.22
 11
66.7515
 21
60.1102
  0
LINE
  8
0
 10
66.7515
 20
60.1102
 11
66.755
 21
60
  0
LINE
  8
0
 10
66.755
 20
60
 11
66.7515
 21
59.8898
  0
LINE
  8
0
 10
66.7515
 20
59.8898
 11
66.7412
 21
59.78
  0
LINE
  8
0
 10
66.7412
 20
59.78
 11
66.7239
 21
59.6712
  0
LINE
  8
0
 10
66.7239
 20
59.6712
 11
66.6999
 21
59.5636
  0
LINE
  8
0
 10
66.6999
 20
59.5636
 11
66.6691
 21
59.4577
  0
LINE
  8
0
 10
66.6691
 20
59.4577
 11
66.6318
 21
59.3539
  0
LINE
  8
0
 10
66.6318
 20
59.3539
 11
66.588
 21
59.2528
  0
LINE
  8
0
 10
66.588
 20
59.2528
 11
66.5379
 21
59.1545
  0
LINE
  8
0
 10
66.5379
 20
59.1545
 11
66.4818
 21
59.0596
  0
LINE
  8
0
 10
66.4818
 20
59.0596
 11
66.4198
 21
58.9684
  0
LINE
  8
0
 10
66.4198
 20
58.9684
 11
66.3523
 21
58.8813
  0
LINE
  8
0
 10
66.3523
 20
58.8813
 11
66.2793
 21
58.7986
  0
LINE
  8
0
 10
66.2793
 20
58.7986
 11
66.2014
 21
58.7207
  0
LINE
  8
0
 10
66.2014
 20
58.7207
 11
66.1187
 21
58.6478
  0
LINE
  8
0
 10
66.1187
 20
58.6478
 11
66.0316
 21
58.5802
  0
LINE
  8
0
 10
66.0316
 20
58.5802
 11
65.9404
 21
58.5182
  0
LINE
  8
0
 10
65.9404
 20
58.5182
 11
65.8455
 21
58.4621
  0
LINE
  8
0
 10
65.8455
 20
58.4621
 11
65.7473
 21
58.412
  0
LINE
  8
0
 10
65.7473
 20
58.412
 11
65.6461
 21
58.3683
  0
LINE
  8
0
 10
65.6461
 20
58.3683
 11
65.5423
 21
58.3309
  0
LINE
  8
0
 10
65.5423
 20
58.3309
 11
65.4365
 21
58.3001
  0
LINE
  8
0
 10
65.4365
 20
58.3001
 11
65.3289
 21
58.2761
  0
LINE
  8
0
 10
65.3289
 20
58.2761
 11
65.22
 21
58.2589
  0
LINE
  8
0
 10
65.22
 20
58.2589
 11
65.1102
 21
58.2485
  0
LINE
  8
0
 10
65.1102
 20
58.2485
 11
65
 21
58.245
  0
LINE
  8
0
 10
65
 20
58.245
 11
64.8898
 21
58.2485
  0
LINE
  8
0
 10
112.89
 20
1.24847
 11
112.78
 21
1.25885
  0
LINE
  8
0
 10
112.78
 20
1.25885
 11
112.671
 21
1.27609
  0
LINE
  8
0
 10
112.671
 20
1.27609
 11
112.564
 21
1.30014
  0
LINE
  8
0
 10
112.564
 20
1.30014
 11
112.458
 21
1.3309
  0
LINE
  8
0
 10
112.458
 20
1.3309
 11
112.354
 21
1.36826
  0
LINE
  8
0
 10
112.354
 20
1.36826
 11
112.253
 21
1.41203
  0
LINE
  8
0
 10
112.253
 20
1.41203
 11
112.155
 21
1.46208
  0
LINE
  8
0
 10
112.155
 20
1.46208
 11
112.06
 21
1.51822
  0
LINE
  8
0
 10
112.06
 20
1.51822
 11
111.968
 21
1.58018
  0
LINE
  8
0
 10
111.968
 20
1.58018
 11
111.881
 21
1.64775
  0
LINE
  8
0
 10
111.881
 20
1.64775
 11
111.799
 21
1.72067
  0
LINE
  8
0
 10
111.799
 20
1.72067
 11
111.721
 21
1.79863
  0
LINE
  8
0
 10
111.721
 20
1.79863
 11
111.648
 21
1.88133
  0
LINE
  8
0
 10
111.648
 20
1.88133
 11
111.58
 21
1.96844
  0
LINE
  8
0
 10
111.58
 20
1.96844
 11
111.518
 21
2.05963
  0
LINE
  8
0
 10
111.518
 20
2.05963
 11
111.462
 21
2.15453
  0
LINE
  8
0
 10
111.462
 20
2.15453
 11
111.412
 21
2.25276
  0
LINE
  8
0
 10
111.412
 20
2.25276
 11
111.368
 21
2.35394
  0
LINE
  8
0
 10
111.368
 20
2.35394
 11
111.331
 21
2.45769
  0
LINE
  8
0
 10
111.331
 20
2.45769
 11
111.3
 21
2.56355
  0
LINE
  8
0
 10
111.3
 20
2.56355
 11
111.276
 21
2.67116
  0
LINE
  8
0
 10
111.276
 20
2.67116
 11
111.259
 21
2.78004
  0
LINE
  8
0
 10
111.259
 20
2.78004
 11
111.248
 21
2.88982
  0
LINE
  8
0
 10
111.248
 20
2.88982
 11
111.245
 21
3
  0
LINE
  8
0
 10
111.245
 20
3
 11
111.248
 21
3.1102
  0
LINE
  8
0
 10
111.248
 20
3.1102
 11
111.259
 21
3.21997
  0
LINE
  8
0
 10
111.259
 20
3.21997
 11
111.276
 21
3.32886
  0
LINE
  8
0
 10
111.276
 20
3.32886
 11
111.3
 21
3.43646
  0
LINE
  8
0
 10
111.3
 20
3.43646
 11
111.331
 21
3.54233
  0
LINE
  8
0
 10
111.331
 20
3.54233
 11
111.368
 21
3.64607
  0
LINE
  8
0
 10
111.368
 20
3.64607
 11
111.412
 21
3.74725
  0
LINE
  8
0
 10
111.412
 20
3.74725
 11
111.462
 21
3.84549
  0
LINE
  8
0
 10
111.462
 20
3.84549
 11
111.518
 21
3.94038
  0
LINE
  8
0
 10
111.518
 20
3.94038
 11
111.58
 21
4.03157
  0
LINE
  8
0
 10
111.58
 20
4.03157
 11
111.648
 21
4.11868
  0
LINE
  8
0
 10
111.648
 20
4.11868
 11
111.721
 21
4.20139
  0
LINE
  8
0
 10
111.721
 20
4.20139
 11
111.799
 21
4.27934
  0
LINE
  8
0
 10
111.799
 20
4.27934
 11
111.881
 21
4.35226
  0
LINE
  8
0
 10
111.881
 20
4.35226
 11
111.968
 21
4.41983
  0
LINE
  8
0
 10
111.968
 20
4.41983
 11
112.06
 21
4.4818
  0
LINE
  8
0
 10
112.06
 20
4.4818
 11
112.155
 21
4.53793
  0
LINE
  8
0
 10
112.155
 20
4.53793
 11
112.253
 21
4.58798
  0
LINE
  8
0
 10
112.253
 20
4.58798
 11
112.354
 21
4.63176
  0
LINE
  8
0
 10
112.354
 20
4.63176
 11
112.458
 21
4.66911
  0
LINE
  8
0
 10
112.458
 20
4.66911
 11
112.564
 21
4.69987
  0
LINE
  8
0
 10
112.564
 20
4.69987
 11
112.671
 21
4.72392
  0
LINE
  8
0
 10
112.671
 20
4.72392
 11
112.78
 21
4.74117
  0
LINE
  8
0
 10
112.78
 20
4.74117
 11
112.89
 21
4.75154
  0
LINE
  8
0
 10
112.89
 20
4.75154
 11
113
 21
4.755
  0
LINE
  8
0
 10
113
 20
4.755
 11
113.11
 21
4.75154
  0
LINE
  8
0
 10
113.11
 20
4.75154
 11
113.22
 21
4.74117
  0
LINE
  8
0
 10
113.22
 20
4.74117
 11
113.329
 21
4.72392
  0
LINE
  8
0
 10
113.329
 20
4.72392
 11
113.436
 21
4.69987
  0
LINE
  8
0
 10
113.436
 20
4.69987
 11
113.542
 21
4.66911
  0
LINE
  8
0
 10
113.542
 20
4.66911
 11
113.646
 21
4.63176
  0
LINE
  8
0
 10
113.646
 20
4.63176
 11
113.747
 21
4.58798
  0
LINE
  8
0
 10
113.747
 20
4.58798
 11
113.845
 21
4.53793
  0
LINE
  8
0
 10
113.845
 20
4.53793
 11
113.94
 21
4.4818
  0
LINE
  8
0
 10
113.94
 20
4.4818
 11
114.032
 21
4.41983
  0
LINE
  8
0
 10
114.032
 20
4.41983
 11
114.119
 21
4.35226
  0
LINE
  8
0
 10
114.119
 20
4.35226
 11
114.201
 21
4.27934
  0
LINE
  8
0
 10
114.201
 20
4.27934
 11
114.279
 21
4.20139
  0
LINE
  8
0
 10
114.279
 20
4.20139
 11
114.352
 21
4.11868
  0
LINE
  8
0
 10
114.352
 20
4.11868
 11
114.42
 21
4.03157
  0
LINE
  8
0
 10
114.42
 20
4.03157
 11
114.482
 21
3.94038
  0
LINE
  8
0
 10
114.482
 20
3.94038
 11
114.538
 21
3.84549
  0
LINE
  8
0
 10
114.538
 20
3.84549
 11
114.588
 21
3.74725
  0
LINE
  8
0
 10
114.588
 20
3.74725
 11
114.632
 21
3.64607
  0
LINE
  8
0
 10
114.632
 20
3.64607
 11
114.669
 21
3.54233
  0
LINE
  8
0
 10
114.669
 20
3.54233
 11
114.7
 21
3.43646
  0
LINE
  8
0
 10
114.7
 20
3.43646
 11
114.724
 21
3.32886
  0
LINE
  8
0
 10
114.724
 20
3.32886
 11
114.741
 21
3.21997
  0
LINE
  8
0
 10
114.741
 20
3.21997
 11
114.752
 21
3.1102
  0
LINE
  8
0
 10
114.752
 20
3.1102
 11
114.755
 21
3
  0
LINE
  8
0
 10
114.755
 20
3
 11
114.752
 21
2.88982
  0
LINE
  8
0
 10
114.752
 20
2.88982
 11
114.741
 21
2.78004
  0
LINE
  8
0
 10
114.741
 20
2.78004
 11
114.724
 21
2.67116
  0
LINE
  8
0
 10
114.724
 20
2.67116
 11
114.7
 21
2.56355
  0
LINE
  8
0
 10
114.7
 20
2.56355
 11
114.669
 21
2.45769
  0
LINE
  8
0
 10
114.669
 20
2.45769
 11
114.632
 21
2.35394
  0
LINE
  8
0
 10
114.632
 20
2.35394
 11
114.588
 21
2.25276
  0
LINE
  8
0
 10
114.588
 20
2.25276
 11
114.538
 21
2.15453
  0
LINE
  8
0
 10
114.538
 20
2.15453
 11
114.482
 21
2.05963
  0
LINE
  8
0
 10
114.482
 20
2.05963
 11
114.42
 21
1.96844
  0
LINE
  8
0
 10
114.42
 20
1.96844
 11
114.352
 21
1.88133
  0
LINE
  8
0
 10
114.352
 20
1.88133
 11
114.279
 21
1.79863
  0
LINE
  8
0
 10
114.279
 20
1.79863
 11
114.201
 21
1.72067
  0
LINE
  8
0
 10
114.201
 20
1.72067
 11
114.119
 21
1.64775
  0
LINE
  8
0
 10
114.119
 20
1.64775
 11
114.032
 21
1.58018
  0
LINE
  8
0
 10
114.032
 20
1.58018
 11
113.94
 21
1.51822
  0
LINE
  8
0
 10
113.94
 20
1.51822
 11
113.845
 21
1.46208
  0
LINE
  8
0
 10
113.845
 20
1.46208
 11
113.747
 21
1.41203
  0
LINE
  8
0
 10
113.747
 20
1.41203
 11
113.646
 21
1.36826
  0
LINE
  8
0
 10
113.646
 20
1.36826
 11
113.542
 21
1.3309
  0
LINE
  8
0
 10
113.542
 20
1.3309
 11
113.436
 21
1.30014
  0
LINE
  8
0
 10
113.436
 20
1.30014
 11
113.329
 21
1.27609
  0
LINE
  8
0
 10
113.329
 20
1.27609
 11
113.22
 21
1.25885
  0
LINE
  8
0
 10
113.22
 20
1.25885
 11
113.11
 21
1.24847
  0
LINE
  8
0
 10
113.11
 20
1.24847
 11
113
 21
1.24501
  0
LINE
  8
0
 10
113
 20
1.24501
 11
112.89
 21
1.24847
  0
LINE
  8
0
 10
84.8898
 20
1.24847
 11
84.78
 21
1.25885
  0
LINE
  8
0
 10
84.78
 20
1.25885
 11
84.6712
 21
1.27609
  0
LINE
  8
0
 10
84.6712
 20
1.27609
 11
84.5636
 21
1.30014
  0
LINE
  8
0
 10
84.5636
 20
1.30014
 11
84.4577
 21
1.3309
  0
LINE
  8
0
 10
84.4577
 20
1.3309
 11
84.3539
 21
1.36826
  0
LINE
  8
0
 10
84.3539
 20
1.36826
 11
84.2528
 21
1.41203
  0
LINE
  8
0
 10
84.2528
 20
1.41203
 11
84.1545
 21
1.46208
  0
LINE
  8
0
 10
84.1545
 20
1.46208
 11
84.0596
 21
1.51822
  0
LINE
  8
0
 10
84.0596
 20
1.51822
 11
83.9684
 21
1.58018
  0
LINE
  8
0
 10
83.9684
 20
1.58018
 11
83.8813
 21
1.64775
  0
LINE
  8
0
 10
83.8813
 20
1.64775
 11
83.7986
 21
1.72067
  0
LINE
  8
0
 10
83.7986
 20
1.72067
 11
83.7207
 21
1.79863
  0
LINE
  8
0
 10
83.7207
 20
1.79863
 11
83.6478
 21
1.88133
  0
LINE
  8
0
 10
83.6478
 20
1.88133
 11
83.5802
 21
1.96844
  0
LINE
  8
0
 10
83.5802
 20
1.96844
 11
83.5182
 21
2.05963
  0
LINE
  8
0
 10
83.5182
 20
2.05963
 11
83.4621
 21
2.15453
  0
LINE
  8
0
 10
83.4621
 20
2.15453
 11
83.412
 21
2.25276
  0
LINE
  8
0
 10
83.412
 20
2.25276
 11
83.3683
 21
2.35394
  0
LINE
  8
0
 10
83.3683
 20
2.35394
 11
83.3309
 21
2.45769
  0
LINE
  8
0
 10
83.3309
 20
2.45769
 11
83.3001
 21
2.56355
  0
LINE
  8
0
 10
83.3001
 20
2.56355
 11
83.2761
 21
2.67116
  0
LINE
  8
0
 10
83.2761
 20
2.67116
 11
83.2589
 21
2.78004
  0
LINE
  8
0
 10
83.2589
 20
2.78004
 11
83.2485
 21
2.88982
  0
LINE
  8
0
 10
83.2485
 20
2.88982
 11
83.245
 21
3
  0
LINE
  8
0
 10
83.245
 20
3
 11
83.2485
 21
3.1102
  0
LINE
  8
0
 10
83.2485
 20
3.1102
 11
83.2589
 21
3.21997
  0
LINE
  8
0
 10
83.2589
 20
3.21997
 11
83.2761
 21
3.32886
  0
LINE
  8
0
 10
83.2761
 20
3.32886
 11
83.3001
 21
3.43646
  0
LINE
  8
0
 10
83.3001
 20
3.43646
 11
83.3309
 21
3.54233
  0
LINE
  8
0
 10
83.3309
 20
3.54233
 11
83.3683
 21
3.64607
  0
LINE
  8
0
 10
83.3683
 20
3.64607
 11
83.412
 21
3.74725
  0
LINE
  8
0
 10
83.412
 20
3.74725
 11
83.4621
 21
3.84549
  0
LINE
  8
0
 10
83.4621
 20
3.84549
 11
83.5182
 21
3.94038
  0
LINE
  8
0
 10
83.5182
 20
3.94038
 11
83.5802
 21
4.03157
  0
LINE
  8
0
 10
83.5802
 20
4.03157
 11
83.6478
 21
4.11868
  0
LINE
  8
0
 10
83.6478
 20
4.11868
 11
83.7207
 21
4.20139
  0
LINE
  8
0
 10
83.7207
 20
4.20139
 11
83.7986
 21
4.27934
  0
LINE
  8
0
 10
83.7986
 20
4.27934
 11
83.8813
 21
4.35226
  0
LINE
  8
0
 10
83.8813
 20
4.35226
 11
83.9684
 21
4.41983
  0
LINE
  8
0
 10
83.9684
 20
4.41983
 11
84.0596
 21
4.4818
  0
LINE
  8
0
 10
84.0596
 20
4.4818
 11
84.1545
 21
4.53793
  0
LINE
  8
0
 10
84.1545
 20
4.53793
 11
84.2528
 21
4.58798
  0
LINE
  8
0
 10
84.2528
 20
4.58798
 11
84.3539
 21
4.63176
  0
LINE
  8
0
 10
84.3539
 20
4.63176
 11
84.4577
 21
4.66911
  0
LINE
  8
0
 10
84.4577
 20
4.66911
 11
84.5636
 21
4.69987
  0
LINE
  8
0
 10
84.5636
 20
4.69987
 11
84.6712
 21
4.72392
  0
LINE
  8
0
 10
84.6712
 20
4.72392
 11
84.78
 21
4.74117
  0
LINE
  8
0
 10
84.78
 20
4.74117
 11
84.8898
 21
4.75154
  0
LINE
  8
0
 10
84.8898
 20
4.75154
 11
85
 21
4.755
  0
LINE
  8
0
 10
85
 20
4.755
 11
85.1102
 21
4.75154
  0
LINE
  8
0
 10
85.1102
 20
4.75154
 11
85.22
 21
4.74117
  0
LINE
  8
0
 10
85.22
 20
4.74117
 11
85.3289
 21
4.72392
  0
LINE
  8
0
 10
85.3289
 20
4.72392
 11
85.4365
 21
4.69987
  0
LINE
  8
0
 10
85.4365
 20
4.69987
 11
85.5423
 21
4.66911
  0
LINE
  8
0
 10
85.5423
 20
4.66911
 11
85.6461
 21
4.63176
  0
LINE
  8
0
 10
85.6461
 20
4.63176
 11
85.7473
 21
4.58798
  0
LINE
  8
0
 10
85.7473
 20
4.58798
 11
85.8455
 21
4.53793
  0
LINE
  8
0
 10
85.8455
 20
4.53793
 11
85.9404
 21
4.4818
  0
LINE
  8
0
 10
85.9404
 20
4.4818
 11
86.0316
 21
4.41983
  0
LINE
  8
0
 10
86.0316
 20
4.41983
 11
86.1187
 21
4.35226
  0
LINE
  8
0
 10
86.1187
 20
4.35226
 11
86.2014
 21
4.27934
  0
LINE
  8
0
 10
86.2014
 20
4.27934
 11
86.2793
 21
4.20139
  0
LINE
  8
0
 10
86.2793
 20
4.20139
 11
86.3523
 21
4.11868
  0
LINE
  8
0
 10
86.3523
 20
4.11868
 11
86.4198
 21
4.03157
  0
LINE
  8
0
 10
86.4198
 20
4.03157
 11
86.4818
 21
3.94038
  0
LINE
  8
0
 10
86.4818
 20
3.94038
 11
86.5379
 21
3.84549
  0
LINE
  8
0
 10
86.5379
 20
3.84549
 11
86.588
 21
3.74725
  0
LINE
  8
0
 10
86.588
 20
3.74725
 11
86.6318
 21
3.64607
  0
LINE
  8
0
 10
86.6318
 20
3.64607
 11
86.6691
 21
3.54233
  0
LINE
  8
0
 10
86.6691
 20
3.54233
 11
86.6999
 21
3.43646
  0
LINE
  8
0
 10
86.6999
 20
3.43646
 11
86.7239
 21
3.32886
  0
LINE
  8
0
 10
86.7239
 20
3.32886
 11
86.7412
 21
3.21997
  0
LINE
  8
0
 10
86.7412
 20
3.21997
 11
86.7515
 21
3.1102
  0
LINE
  8
0
 10
86.7515
 20
3.1102
 11
86.755
 21
3
  0
LINE
  8
0
 10
86.755
 20
3
 11
86.7515
 21
2.88982
  0
LINE
  8
0
 10
86.7515
 20
2.88982
 11
86.7412
 21
2.78004
  0
LINE
  8
0
 10
86.7412
 20
2.78004
 11
86.7239
 21
2.67116
  0
LINE
  8
0
 10
86.7239
 20
2.67116
 11
86.6999
 21
2.56355
  0
LINE
  8
0
 10
86.6999
 20
2.56355
 11
86.6691
 21
2.45769
  0
LINE
  8
0
 10
86.6691
 20
2.45769
 11
86.6318
 21
2.35394
  0
LINE
  8
0
 10
86.6318
 20
2.35394
 11
86.588
 21
2.25276
  0
LINE
  8
0
 10
86.588
 20
2.25276
 11
86.5379
 21
2.15453
  0
LINE
  8
0
 10
86.5379
 20
2.15453
 11
86.4818
 21
2.05963
  0
LINE
  8
0
 10
86.4818
 20
2.05963
 11
86.4198
 21
1.96844
  0
LINE
  8
0
 10
86.4198
 20
1.96844
 11
86.3523
 21
1.88133
  0
LINE
  8
0
 10
86.3523
 20
1.88133
 11
86.2793
 21
1.79863
  0
LINE
  8
0
 10
86.2793
 20
1.79863
 11
86.2014
 21
1.72067
  0
LINE
  8
0
 10
86.2014
 20
1.72067
 11
86.1187
 21
1.64775
  0
LINE
  8
0
 10
86.1187
 20
1.64775
 11
86.0316
 21
1.58018
  0
LINE
  8
0
 10
86.0316
 20
1.58018
 11
85.9404
 21
1.51822
  0
LINE
  8
0
 10
85.9404
 20
1.51822
 11
85.8455
 21
1.46208
  0
LINE
  8
0
 10
85.8455
 20
1.46208
 11
85.7473
 21
1.41203
  0
LINE
  8
0
 10
85.7473
 20
1.41203
 11
85.6461
 21
1.36826
  0
LINE
  8
0
 10
85.6461
 20
1.36826
 11
85.5423
 21
1.3309
  0
LINE
  8
0
 10
85.5423
 20
1.3309
 11
85.4365
 21
1.30014
  0
LINE
  8
0
 10
85.4365
 20
1.30014
 11
85.3289
 21
1.27609
  0
LINE
  8
0
 10
85.3289
 20
1.27609
 11
85.22
 21
1.25885
  0
LINE
  8
0
 10
85.22
 20
1.25885
 11
85.1102
 21
1.24847
  0
LINE
  8
0
 10
85.1102
 20
1.24847
 11
85
 21
1.24501
  0
LINE
  8
0
 10
85
 20
1.24501
 11
84.8898
 21
1.24847
  0
LINE
  8
0
 10
95
 20
-98
 11
95
 21
-92
  0
LINE
  8
0
 10
95
 20
-92
 11
115
 21
-92
  0
LINE
  8
0
 10
115
 20
-92
 11
115
 21
-98
  0
LINE
  8
0
 10
115
 20
-98
 11
95
 21
-98
  0
LINE
  8
0
 10
-115
 20
-98
 11
-115
 21
-92
  0
LINE
  8
0
 10
-115
 20
-92
 11
-95
 21
-92
  0
LINE
  8
0
 10
-95
 20
-92
 11
-95
 21
-98
  0
LINE
  8
0
 10
-95
 20
-98
 11
-115
 21
-98
  0
LINE
  8
0
 10
-0.141266
 20
-107.246
 11
-0.281998
 21
-107.232
  0
LINE
  8
0
 10
-0.281998
 20
-107.232
 11
-0.4216
 21
-107.21
  0
LINE
  8
0
 10
-0.4216
 20
-107.21
 11
-0.55954
 21
-107.179
  0
LINE
  8
0
 10
-0.55954
 20
-107.179
 11
-0.695282
 21
-107.14
  0
LINE
  8
0
 10
-0.695282
 20
-107.14
 11
-0.828278
 21
-107.092
  0
LINE
  8
0
 10
-0.828278
 20
-107.092
 11
-0.957993
 21
-107.036
  0
LINE
  8
0
 10
-0.957993
 20
-107.036
 11
-1.08394
 21
-106.972
  0
LINE
  8
0
 10
-1.08394
 20
-106.972
 11
-1.2056
 21
-106.9
  0
LINE
  8
0
 10
-1.2056
 20
-106.9
 11
-1.32251
 21
-106.82
  0
LINE
  8
0
 10
-1.32251
 20
-106.82
 11
-1.43419
 21
-106.734
  0
LINE
  8
0
 10
-1.43419
 20
-106.734
 11
-1.54022
 21
-106.64
  0
LINE
  8
0
 10
-1.54022
 20
-106.64
 11
-1.64017
 21
-106.54
  0
LINE
  8
0
 10
-1.64017
 20
-106.54
 11
-1.73364
 21
-106.434
  0
LINE
  8
0
 10
-1.73364
 20
-106.434
 11
-1.82028
 21
-106.323
  0
LINE
  8
0
 10
-1.82028
 20
-106.323
 11
-1.89973
 21
-106.206
  0
LINE
  8
0
 10
-1.89973
 20
-106.206
 11
-1.97168
 21
-106.084
  0
LINE
  8
0
 10
-1.97168
 20
-106.084
 11
-2.03586
 21
-105.958
  0
LINE
  8
0
 10
-2.03586
 20
-105.958
 11
-2.092
 21
-105.828
  0
LINE
  8
0
 10
-2.092
 20
-105.828
 11
-2.13986
 21
-105.695
  0
LINE
  8
0
 10
-2.13986
 20
-105.695
 11
-2.17931
 21
-105.56
  0
LINE
  8
0
 10
-2.17931
 20
-105.56
 11
-2.21014
 21
-105.422
  0
LINE
  8
0
 10
-2.21014
 20
-105.422
 11
-2.23225
 21
-105.282
  0
LINE
  8
0
 10
-2.23225
 20
-105.282
 11
-2.24556
 21
-105.141
  0
LINE
  8
0
 10
-2.24556
 20
-105.141
 11
-2.25
 21
-105
  0
LINE
  8
0
 10
-2.25
 20
-105
 11
-2.24556
 21
-104.859
  0
LINE
  8
0
 10
-2.24556
 20
-104.859
 11
-2.23225
 21
-104.718
  0
LINE
  8
0
 10
-2.23225
 20
-104.718
 11
-2.21014
 21
-104.578
  0
LINE
  8
0
 10
-2.21014
 20
-104.578
 11
-2.17931
 21
-104.44
  0
LINE
  8
0
 10
-2.17931
 20
-104.44
 11
-2.13986
 21
-104.305
  0
LINE
  8
0
 10
-2.13986
 20
-104.305
 11
-2.092
 21
-104.172
  0
LINE
  8
0
 10
-2.092
 20
-104.172
 11
-2.03586
 21
-104.042
  0
LINE
  8
0
 10
-2.03586
 20
-104.042
 11
-1.97168
 21
-103.916
  0
LINE
  8
0
 10
-1.97168
 20
-103.916
 11
-1.89973
 21
-103.794
  0
LINE
  8
0
 10
-1.89973
 20
-103.794
 11
-1.82028
 21
-103.677
  0
LINE
  8
0
 10
-1.82028
 20
-103.677
 11
-1.73364
 21
-103.566
  0
LINE
  8
0
 10
-1.73364
 20
-103.566
 11
-1.64017
 21
-103.46
  0
LINE
  8
0
 10
-1.64017
 20
-103.46
 11
-1.54022
 21
-103.36
  0
LINE
  8
0
 10
-1.54022
 20
-103.36
 11
-1.43419
 21
-103.266
  0
LINE
  8
0
 10
-1.43419
 20
-103.266
 11
-1.32251
 21
-103.18
  0
LINE
  8
0
 10
-1.32251
 20
-103.18
 11
-1.2056
 21
-103.1
  0
LINE
  8
0
 10
-1.2056
 20
-103.1
 11
-1.08394
 21
-103.028
  0
LINE
  8
0
 10
-1.08394
 20
-103.028
 11
-0.957993
 21
-102.964
  0
LINE
  8
0
 10
-0.957993
 20
-102.964
 11
-0.828278
 21
-102.908
  0
LINE
  8
0
 10
-0.828278
 20
-102.908
 11
-0.695282
 21
-102.86
  0
LINE
  8
0
 10
-0.695282
 20
-102.86
 11
-0.55954
 21
-102.821
  0
LINE
  8
0
 10
-0.55954
 20
-102.821
 11
-0.4216
 21
-102.79
  0
LINE
  8
0
 10
-0.4216
 20
-102.79
 11
-0.281998
 21
-102.768
  0
LINE
  8
0
 10
-0.281998
 20
-102.768
 11
-0.141266
 21
-102.754
  0
LINE
  8
0
 10
-0.141266
 20
-102.754
 11
0
 21
-102.75
  0
LINE
  8
0
 10
0
 20
-102.75
 11
0.141266
 21
-102.754
  0
LINE
  8
0
 10
0.141266
 20
-102.754
 11
0.281998
 21
-102.768
  0
LINE
  8
0
 10
0.281998
 20
-102.768
 11
0.4216
 21
-102.79
  0
LINE
  8
0
 10
0.4216
 20
-102.79
 11
0.55954
 21
-102.821
  0
LINE
  8
0
 10
0.55954
 20
-102.821
 11
0.695282
 21
-102.86
  0
LINE
  8
0
 10
0.695282
 20
-102.86
 11
0.828278
 21
-102.908
  0
LINE
  8
0
 10
0.828278
 20
-102.908
 11
0.957993
 21
-102.964
  0
LINE
  8
0
 10
0.957993
 20
-102.964
 11
1.08394
 21
-103.028
  0
LINE
  8
0
 10
1.08394
 20
-103.028
 11
1.2056
 21
-103.1
  0
LINE
  8
0
 10
1.2056
 20
-103.1
 11
1.32251
 21
-103.18
  0
LINE
  8
0
 10
1.32251
 20
-103.18
 11
1.43419
 21
-103.266
  0
LINE
  8
0
 10
1.43419
 20
-103.266
 11
1.54022
 21
-103.36
  0
LINE
  8
0
 10
1.54022
 20
-103.36
 11
1.64017
 21
-103.46
  0
LINE
  8
0
 10
1.64017
 20
-103.46
 11
1.73364
 21
-103.566
  0
LINE
  8
0
 10
1.73364
 20
-103.566
 11
1.82028
 21
-103.677
  0
LINE
  8
0
 10
1.82028
 20
-103.677
 11
1.89973
 21
-103.794
  0
LINE
  8
0
 10
1.89973
 20
-103.794
 11
1.97168
 21
-103.916
  0
LINE
  8
0
 10
1.97168
 20
-103.916
 11
2.03586
 21
-104.042
  0
LINE
  8
0
 10
2.03586
 20
-104.042
 11
2.092
 21
-104.172
  0
LINE
  8
0
 10
2.092
 20
-104.172
 11
2.13986
 21
-104.305
  0
LINE
  8
0
 10
2.13986
 20
-104.305
 11
2.17931
 21
-104.44
  0
LINE
  8
0
 10
2.17931
 20
-104.44
 11
2.21014
 21
-104.578
  0
LINE
  8
0
 10
2.21014
 20
-104.578
 11
2.23225
 21
-104.718
  0
LINE
  8
0
 10
2.23225
 20
-104.718
 11
2.24556
 21
-104.859
  0
LINE
  8
0
 10
2.24556
 20
-104.859
 11
2.25
 21
-105
  0
LINE
  8
0
 10
2.25
 20
-105
 11
2.24556
 21
-105.141
  0
LINE
  8
0
 10
2.24556
 20
-105.141
 11
2.23225
 21
-105.282
  0
LINE
  8
0
 10
2.23225
 20
-105.282
 11
2.21014
 21
-105.422
  0
LINE
  8
0
 10
2.21014
 20
-105.422
 11
2.17931
 21
-105.56
  0
LINE
  8
0
 10
2.17931
 20
-105.56
 11
2.13986
 21
-105.695
  0
LINE
  8
0
 10
2.13986
 20
-105.695
 11
2.092
 21
-105.828
  0
LINE
  8
0
 10
2.092
 20
-105.828
 11
2.03586
 21
-105.958
  0
LINE
  8
0
 10
2.03586
 20
-105.958
 11
1.97168
 21
-106.084
  0
LINE
  8
0
 10
1.97168
 20
-106.084
 11
1.89973
 21
-106.206
  0
LINE
  8
0
 10
1.89973
 20
-106.206
 11
1.82028
 21
-106.323
  0
LINE
  8
0
 10
1.82028
 20
-106.323
 11
1.73364
 21
-106.434
  0
LINE
  8
0
 10
1.73364
 20
-106.434
 11
1.64017
 21
-106.54
  0
LINE
  8
0
 10
1.64017
 20
-106.54
 11
1.54022
 21
-106.64
  0
LINE
  8
0
 10
1.54022
 20
-106.64
 11
1.43419
 21
-106.734
  0
LINE
  8
0
 10
1.43419
 20
-106.734
 11
1.32251
 21
-106.82
  0
LINE
  8
0
 10
1.32251
 20
-106.82
 11
1.2056
 21
-106.9
  0
LINE
  8
0
 10
1.2056
 20
-106.9
 11
1.08394
 21
-106.972
  0
LINE
  8
0
 10
1.08394
 20
-106.972
 11
0.957993
 21
-107.036
  0
LINE
  8
0
 10
0.957993
 20
-107.036
 11
0.828278
 21
-107.092
  0
LINE
  8
0
 10
0.828278
 20
-107.092
 11
0.695282
 21
-107.14
  0
LINE
  8
0
 10
0.695282
 20
-107.14
 11
0.55954
 21
-107.179
  0
LINE
  8
0
 10
0.55954
 20
-107.179
 11
0.4216
 21
-107.21
  0
LINE
  8
0
 10
0.4216
 20
-107.21
 11
0.281998
 21
-107.232
  0
LINE
  8
0
 10
0.281998
 20
-107.232
 11
0.141266
 21
-107.246
  0
LINE
  8
0
 10
0.141266
 20
-107.246
 11
0
 21
-107.25
  0
LINE
  8
0
 10
0
 20
-107.25
 11
-0.141266
 21
-107.246
  0
ENDSEC
  0
SECTION
  2
OBJECTS
  0
DICTIONARY
  0
ENDSEC
  0
EOF
